%TF.GenerationSoftware,KiCad,Pcbnew,(6.0.7)*%
%TF.CreationDate,2022-11-13T01:59:09+01:00*%
%TF.ProjectId,TTL_to_HDMI,54544c5f-746f-45f4-9844-4d492e6b6963,rev?*%
%TF.SameCoordinates,Original*%
%TF.FileFunction,Drillmap*%
%TF.FilePolarity,Positive*%
%FSLAX45Y45*%
G04 Gerber Fmt 4.5, Leading zero omitted, Abs format (unit mm)*
G04 Created by KiCad (PCBNEW (6.0.7)) date 2022-11-13 01:59:09*
%MOMM*%
%LPD*%
G01*
G04 APERTURE LIST*
%ADD10C,0.100000*%
%ADD11C,0.200000*%
G04 APERTURE END LIST*
D10*
X13500000Y-9300000D02*
X13500000Y-11440000D01*
X11600000Y-11280000D02*
G75*
G03*
X11500000Y-11380000I0J-100000D01*
G01*
X13000000Y-9700000D02*
G75*
G03*
X13100000Y-9600000I0J100000D01*
G01*
X11500000Y-11380000D02*
X11500000Y-11900000D01*
X13100000Y-11440000D02*
G75*
G03*
X13000000Y-11340000I-100000J0D01*
G01*
X7600000Y-7200000D02*
X12400000Y-7200000D01*
X13100000Y-9300000D02*
X13500000Y-9300000D01*
X11699998Y-11340001D02*
G75*
G03*
X11600000Y-11280000I-99998J-53329D01*
G01*
X11720000Y-9500000D02*
G75*
G03*
X11620000Y-9600000I0J-100000D01*
G01*
X7600000Y-11900000D02*
X7600000Y-7200000D01*
X13000000Y-11340000D02*
X11700000Y-11340000D01*
X12400000Y-7200000D02*
X12400000Y-9400000D01*
X13100000Y-11440000D02*
X13100000Y-11740000D01*
X13100000Y-11740000D02*
X13500000Y-11740000D01*
X13500000Y-11740000D02*
X13500000Y-11440000D01*
X11620000Y-9600000D02*
G75*
G03*
X11720000Y-9700000I100000J0D01*
G01*
X11720000Y-9500000D02*
X12400000Y-9500000D01*
X11720000Y-9700000D02*
X13000000Y-9700000D01*
X13100000Y-9600000D02*
X13100000Y-9300000D01*
X12400000Y-9400000D02*
X12400000Y-9500000D01*
X11500000Y-11900000D02*
X7600000Y-11900000D01*
D11*
X7852619Y-12215476D02*
X7852619Y-12015476D01*
X7900238Y-12015476D01*
X7928809Y-12025000D01*
X7947857Y-12044048D01*
X7957381Y-12063095D01*
X7966905Y-12101190D01*
X7966905Y-12129762D01*
X7957381Y-12167857D01*
X7947857Y-12186905D01*
X7928809Y-12205952D01*
X7900238Y-12215476D01*
X7852619Y-12215476D01*
X8052619Y-12215476D02*
X8052619Y-12082143D01*
X8052619Y-12120238D02*
X8062143Y-12101190D01*
X8071667Y-12091667D01*
X8090714Y-12082143D01*
X8109762Y-12082143D01*
X8176428Y-12215476D02*
X8176428Y-12082143D01*
X8176428Y-12015476D02*
X8166905Y-12025000D01*
X8176428Y-12034524D01*
X8185952Y-12025000D01*
X8176428Y-12015476D01*
X8176428Y-12034524D01*
X8300238Y-12215476D02*
X8281190Y-12205952D01*
X8271667Y-12186905D01*
X8271667Y-12015476D01*
X8405000Y-12215476D02*
X8385952Y-12205952D01*
X8376428Y-12186905D01*
X8376428Y-12015476D01*
X8633571Y-12215476D02*
X8633571Y-12015476D01*
X8700238Y-12158333D01*
X8766905Y-12015476D01*
X8766905Y-12215476D01*
X8947857Y-12215476D02*
X8947857Y-12110714D01*
X8938333Y-12091667D01*
X8919286Y-12082143D01*
X8881190Y-12082143D01*
X8862143Y-12091667D01*
X8947857Y-12205952D02*
X8928810Y-12215476D01*
X8881190Y-12215476D01*
X8862143Y-12205952D01*
X8852619Y-12186905D01*
X8852619Y-12167857D01*
X8862143Y-12148809D01*
X8881190Y-12139286D01*
X8928810Y-12139286D01*
X8947857Y-12129762D01*
X9043095Y-12082143D02*
X9043095Y-12282143D01*
X9043095Y-12091667D02*
X9062143Y-12082143D01*
X9100238Y-12082143D01*
X9119286Y-12091667D01*
X9128810Y-12101190D01*
X9138333Y-12120238D01*
X9138333Y-12177381D01*
X9128810Y-12196428D01*
X9119286Y-12205952D01*
X9100238Y-12215476D01*
X9062143Y-12215476D01*
X9043095Y-12205952D01*
X9224048Y-12196428D02*
X9233571Y-12205952D01*
X9224048Y-12215476D01*
X9214524Y-12205952D01*
X9224048Y-12196428D01*
X9224048Y-12215476D01*
X9224048Y-12091667D02*
X9233571Y-12101190D01*
X9224048Y-12110714D01*
X9214524Y-12101190D01*
X9224048Y-12091667D01*
X9224048Y-12110714D01*
M02*
