%TF.GenerationSoftware,KiCad,Pcbnew,(6.0.7)*%
%TF.CreationDate,2022-11-13T02:02:31+01:00*%
%TF.ProjectId,TTL_to_HDMI,54544c5f-746f-45f4-9844-4d492e6b6963,rev?*%
%TF.SameCoordinates,Original*%
%TF.FileFunction,Legend,Bot*%
%TF.FilePolarity,Positive*%
%FSLAX46Y46*%
G04 Gerber Fmt 4.6, Leading zero omitted, Abs format (unit mm)*
G04 Created by KiCad (PCBNEW (6.0.7)) date 2022-11-13 02:02:31*
%MOMM*%
%LPD*%
G01*
G04 APERTURE LIST*
%ADD10C,3.000000*%
%ADD11C,0.150000*%
G04 APERTURE END LIST*
D10*
X112500000Y-105000000D02*
X108300000Y-100800000D01*
X112500000Y-105000000D02*
X105900000Y-105000000D01*
X99297033Y-98200001D02*
G75*
G03*
X105900000Y-105000000I6803867J901D01*
G01*
D11*
X116000000Y-97000000D02*
X117000000Y-97000000D01*
D10*
X112500000Y-105000000D02*
X108300000Y-109200000D01*
D11*
X116000000Y-112800000D02*
X116000000Y-97000000D01*
X77692738Y-80634285D02*
X78073690Y-80634285D01*
X77835595Y-80967619D02*
X77835595Y-80110476D01*
X77883214Y-80015238D01*
X77978452Y-79967619D01*
X78073690Y-79967619D01*
X78407023Y-79967619D02*
X78407023Y-80967619D01*
X78835595Y-79967619D02*
X78835595Y-80491428D01*
X78787976Y-80586666D01*
X78692738Y-80634285D01*
X78549880Y-80634285D01*
X78454642Y-80586666D01*
X78407023Y-80539047D01*
X79311785Y-79967619D02*
X79311785Y-80634285D01*
X79311785Y-80967619D02*
X79264166Y-80920000D01*
X79311785Y-80872380D01*
X79359404Y-80920000D01*
X79311785Y-80967619D01*
X79311785Y-80872380D01*
X79740357Y-80015238D02*
X79835595Y-79967619D01*
X80026071Y-79967619D01*
X80121309Y-80015238D01*
X80168928Y-80110476D01*
X80168928Y-80158095D01*
X80121309Y-80253333D01*
X80026071Y-80300952D01*
X79883214Y-80300952D01*
X79787976Y-80348571D01*
X79740357Y-80443809D01*
X79740357Y-80491428D01*
X79787976Y-80586666D01*
X79883214Y-80634285D01*
X80026071Y-80634285D01*
X80121309Y-80586666D01*
X81359404Y-79967619D02*
X81359404Y-80967619D01*
X81740357Y-80967619D01*
X81835595Y-80920000D01*
X81883214Y-80872380D01*
X81930833Y-80777142D01*
X81930833Y-80634285D01*
X81883214Y-80539047D01*
X81835595Y-80491428D01*
X81740357Y-80443809D01*
X81359404Y-80443809D01*
X82930833Y-80062857D02*
X82883214Y-80015238D01*
X82740357Y-79967619D01*
X82645119Y-79967619D01*
X82502261Y-80015238D01*
X82407023Y-80110476D01*
X82359404Y-80205714D01*
X82311785Y-80396190D01*
X82311785Y-80539047D01*
X82359404Y-80729523D01*
X82407023Y-80824761D01*
X82502261Y-80920000D01*
X82645119Y-80967619D01*
X82740357Y-80967619D01*
X82883214Y-80920000D01*
X82930833Y-80872380D01*
X83692738Y-80491428D02*
X83835595Y-80443809D01*
X83883214Y-80396190D01*
X83930833Y-80300952D01*
X83930833Y-80158095D01*
X83883214Y-80062857D01*
X83835595Y-80015238D01*
X83740357Y-79967619D01*
X83359404Y-79967619D01*
X83359404Y-80967619D01*
X83692738Y-80967619D01*
X83787976Y-80920000D01*
X83835595Y-80872380D01*
X83883214Y-80777142D01*
X83883214Y-80681904D01*
X83835595Y-80586666D01*
X83787976Y-80539047D01*
X83692738Y-80491428D01*
X83359404Y-80491428D01*
X85121309Y-79967619D02*
X85121309Y-80634285D01*
X85121309Y-80967619D02*
X85073690Y-80920000D01*
X85121309Y-80872380D01*
X85168928Y-80920000D01*
X85121309Y-80967619D01*
X85121309Y-80872380D01*
X85549880Y-80015238D02*
X85645119Y-79967619D01*
X85835595Y-79967619D01*
X85930833Y-80015238D01*
X85978452Y-80110476D01*
X85978452Y-80158095D01*
X85930833Y-80253333D01*
X85835595Y-80300952D01*
X85692738Y-80300952D01*
X85597500Y-80348571D01*
X85549880Y-80443809D01*
X85549880Y-80491428D01*
X85597500Y-80586666D01*
X85692738Y-80634285D01*
X85835595Y-80634285D01*
X85930833Y-80586666D01*
X87026071Y-80634285D02*
X87407023Y-80634285D01*
X87168928Y-80967619D02*
X87168928Y-80110476D01*
X87216547Y-80015238D01*
X87311785Y-79967619D01*
X87407023Y-79967619D01*
X87883214Y-79967619D02*
X87787976Y-80015238D01*
X87740357Y-80062857D01*
X87692738Y-80158095D01*
X87692738Y-80443809D01*
X87740357Y-80539047D01*
X87787976Y-80586666D01*
X87883214Y-80634285D01*
X88026071Y-80634285D01*
X88121309Y-80586666D01*
X88168928Y-80539047D01*
X88216547Y-80443809D01*
X88216547Y-80158095D01*
X88168928Y-80062857D01*
X88121309Y-80015238D01*
X88026071Y-79967619D01*
X87883214Y-79967619D01*
X78264166Y-78405238D02*
X78168928Y-78357619D01*
X77978452Y-78357619D01*
X77883214Y-78405238D01*
X77835595Y-78452857D01*
X77787976Y-78548095D01*
X77787976Y-78833809D01*
X77835595Y-78929047D01*
X77883214Y-78976666D01*
X77978452Y-79024285D01*
X78168928Y-79024285D01*
X78264166Y-78976666D01*
X78835595Y-78357619D02*
X78740357Y-78405238D01*
X78692738Y-78452857D01*
X78645119Y-78548095D01*
X78645119Y-78833809D01*
X78692738Y-78929047D01*
X78740357Y-78976666D01*
X78835595Y-79024285D01*
X78978452Y-79024285D01*
X79073690Y-78976666D01*
X79121309Y-78929047D01*
X79168928Y-78833809D01*
X79168928Y-78548095D01*
X79121309Y-78452857D01*
X79073690Y-78405238D01*
X78978452Y-78357619D01*
X78835595Y-78357619D01*
X79597500Y-79024285D02*
X79597500Y-78357619D01*
X79597500Y-78929047D02*
X79645119Y-78976666D01*
X79740357Y-79024285D01*
X79883214Y-79024285D01*
X79978452Y-78976666D01*
X80026071Y-78881428D01*
X80026071Y-78357619D01*
X80407023Y-79024285D02*
X80645119Y-78357619D01*
X80883214Y-79024285D01*
X81645119Y-78405238D02*
X81549880Y-78357619D01*
X81359404Y-78357619D01*
X81264166Y-78405238D01*
X81216547Y-78500476D01*
X81216547Y-78881428D01*
X81264166Y-78976666D01*
X81359404Y-79024285D01*
X81549880Y-79024285D01*
X81645119Y-78976666D01*
X81692738Y-78881428D01*
X81692738Y-78786190D01*
X81216547Y-78690952D01*
X82121309Y-78357619D02*
X82121309Y-79024285D01*
X82121309Y-78833809D02*
X82168928Y-78929047D01*
X82216547Y-78976666D01*
X82311785Y-79024285D01*
X82407023Y-79024285D01*
X82597500Y-79024285D02*
X82978452Y-79024285D01*
X82740357Y-79357619D02*
X82740357Y-78500476D01*
X82787976Y-78405238D01*
X82883214Y-78357619D01*
X82978452Y-78357619D01*
X83930833Y-79357619D02*
X84502261Y-79357619D01*
X84216547Y-78357619D02*
X84216547Y-79357619D01*
X84692738Y-79357619D02*
X85264166Y-79357619D01*
X84978452Y-78357619D02*
X84978452Y-79357619D01*
X86073690Y-78357619D02*
X85597500Y-78357619D01*
X85597500Y-79357619D01*
X87168928Y-78357619D02*
X87168928Y-79357619D01*
X87407023Y-79357619D01*
X87549880Y-79310000D01*
X87645119Y-79214761D01*
X87692738Y-79119523D01*
X87740357Y-78929047D01*
X87740357Y-78786190D01*
X87692738Y-78595714D01*
X87645119Y-78500476D01*
X87549880Y-78405238D01*
X87407023Y-78357619D01*
X87168928Y-78357619D01*
X88168928Y-78357619D02*
X88168928Y-79024285D01*
X88168928Y-79357619D02*
X88121309Y-79310000D01*
X88168928Y-79262380D01*
X88216547Y-79310000D01*
X88168928Y-79357619D01*
X88168928Y-79262380D01*
X88597500Y-78405238D02*
X88692738Y-78357619D01*
X88883214Y-78357619D01*
X88978452Y-78405238D01*
X89026071Y-78500476D01*
X89026071Y-78548095D01*
X88978452Y-78643333D01*
X88883214Y-78690952D01*
X88740357Y-78690952D01*
X88645119Y-78738571D01*
X88597500Y-78833809D01*
X88597500Y-78881428D01*
X88645119Y-78976666D01*
X88740357Y-79024285D01*
X88883214Y-79024285D01*
X88978452Y-78976666D01*
X89454642Y-79024285D02*
X89454642Y-78024285D01*
X89454642Y-78976666D02*
X89549880Y-79024285D01*
X89740357Y-79024285D01*
X89835595Y-78976666D01*
X89883214Y-78929047D01*
X89930833Y-78833809D01*
X89930833Y-78548095D01*
X89883214Y-78452857D01*
X89835595Y-78405238D01*
X89740357Y-78357619D01*
X89549880Y-78357619D01*
X89454642Y-78405238D01*
X90502261Y-78357619D02*
X90407023Y-78405238D01*
X90359404Y-78500476D01*
X90359404Y-79357619D01*
X91311785Y-78357619D02*
X91311785Y-78881428D01*
X91264166Y-78976666D01*
X91168928Y-79024285D01*
X90978452Y-79024285D01*
X90883214Y-78976666D01*
X91311785Y-78405238D02*
X91216547Y-78357619D01*
X90978452Y-78357619D01*
X90883214Y-78405238D01*
X90835595Y-78500476D01*
X90835595Y-78595714D01*
X90883214Y-78690952D01*
X90978452Y-78738571D01*
X91216547Y-78738571D01*
X91311785Y-78786190D01*
X91692738Y-79024285D02*
X91930833Y-78357619D01*
X92168928Y-79024285D02*
X91930833Y-78357619D01*
X91835595Y-78119523D01*
X91787976Y-78071904D01*
X91692738Y-78024285D01*
X92549880Y-78738571D02*
X93311785Y-78738571D01*
X77787976Y-76795238D02*
X77883214Y-76747619D01*
X78073690Y-76747619D01*
X78168928Y-76795238D01*
X78216547Y-76890476D01*
X78216547Y-76938095D01*
X78168928Y-77033333D01*
X78073690Y-77080952D01*
X77930833Y-77080952D01*
X77835595Y-77128571D01*
X77787976Y-77223809D01*
X77787976Y-77271428D01*
X77835595Y-77366666D01*
X77930833Y-77414285D01*
X78073690Y-77414285D01*
X78168928Y-77366666D01*
X78645119Y-76747619D02*
X78645119Y-77414285D01*
X78645119Y-77747619D02*
X78597500Y-77700000D01*
X78645119Y-77652380D01*
X78692738Y-77700000D01*
X78645119Y-77747619D01*
X78645119Y-77652380D01*
X79549880Y-77414285D02*
X79549880Y-76604761D01*
X79502261Y-76509523D01*
X79454642Y-76461904D01*
X79359404Y-76414285D01*
X79216547Y-76414285D01*
X79121309Y-76461904D01*
X79549880Y-76795238D02*
X79454642Y-76747619D01*
X79264166Y-76747619D01*
X79168928Y-76795238D01*
X79121309Y-76842857D01*
X79073690Y-76938095D01*
X79073690Y-77223809D01*
X79121309Y-77319047D01*
X79168928Y-77366666D01*
X79264166Y-77414285D01*
X79454642Y-77414285D01*
X79549880Y-77366666D01*
X80026071Y-77414285D02*
X80026071Y-76747619D01*
X80026071Y-77319047D02*
X80073690Y-77366666D01*
X80168928Y-77414285D01*
X80311785Y-77414285D01*
X80407023Y-77366666D01*
X80454642Y-77271428D01*
X80454642Y-76747619D01*
X81359404Y-76747619D02*
X81359404Y-77271428D01*
X81311785Y-77366666D01*
X81216547Y-77414285D01*
X81026071Y-77414285D01*
X80930833Y-77366666D01*
X81359404Y-76795238D02*
X81264166Y-76747619D01*
X81026071Y-76747619D01*
X80930833Y-76795238D01*
X80883214Y-76890476D01*
X80883214Y-76985714D01*
X80930833Y-77080952D01*
X81026071Y-77128571D01*
X81264166Y-77128571D01*
X81359404Y-77176190D01*
X81978452Y-76747619D02*
X81883214Y-76795238D01*
X81835595Y-76890476D01*
X81835595Y-77747619D01*
X82311785Y-76795238D02*
X82407023Y-76747619D01*
X82597500Y-76747619D01*
X82692738Y-76795238D01*
X82740357Y-76890476D01*
X82740357Y-76938095D01*
X82692738Y-77033333D01*
X82597500Y-77080952D01*
X82454642Y-77080952D01*
X82359404Y-77128571D01*
X82311785Y-77223809D01*
X82311785Y-77271428D01*
X82359404Y-77366666D01*
X82454642Y-77414285D01*
X82597500Y-77414285D01*
X82692738Y-77366666D01*
X83787976Y-77414285D02*
X84168928Y-77414285D01*
X83930833Y-77747619D02*
X83930833Y-76890476D01*
X83978452Y-76795238D01*
X84073690Y-76747619D01*
X84168928Y-76747619D01*
X84645119Y-76747619D02*
X84549880Y-76795238D01*
X84502261Y-76842857D01*
X84454642Y-76938095D01*
X84454642Y-77223809D01*
X84502261Y-77319047D01*
X84549880Y-77366666D01*
X84645119Y-77414285D01*
X84787976Y-77414285D01*
X84883214Y-77366666D01*
X84930833Y-77319047D01*
X84978452Y-77223809D01*
X84978452Y-76938095D01*
X84930833Y-76842857D01*
X84883214Y-76795238D01*
X84787976Y-76747619D01*
X84645119Y-76747619D01*
X86168928Y-76747619D02*
X86168928Y-77747619D01*
X86168928Y-77271428D02*
X86740357Y-77271428D01*
X86740357Y-76747619D02*
X86740357Y-77747619D01*
X87216547Y-76747619D02*
X87216547Y-77747619D01*
X87454642Y-77747619D01*
X87597500Y-77700000D01*
X87692738Y-77604761D01*
X87740357Y-77509523D01*
X87787976Y-77319047D01*
X87787976Y-77176190D01*
X87740357Y-76985714D01*
X87692738Y-76890476D01*
X87597500Y-76795238D01*
X87454642Y-76747619D01*
X87216547Y-76747619D01*
X88216547Y-76747619D02*
X88216547Y-77747619D01*
X88549880Y-77033333D01*
X88883214Y-77747619D01*
X88883214Y-76747619D01*
X89359404Y-76747619D02*
X89359404Y-77747619D01*
X77692738Y-75804285D02*
X78073690Y-75804285D01*
X77835595Y-76137619D02*
X77835595Y-75280476D01*
X77883214Y-75185238D01*
X77978452Y-75137619D01*
X78073690Y-75137619D01*
X78407023Y-75137619D02*
X78407023Y-76137619D01*
X78835595Y-75137619D02*
X78835595Y-75661428D01*
X78787976Y-75756666D01*
X78692738Y-75804285D01*
X78549880Y-75804285D01*
X78454642Y-75756666D01*
X78407023Y-75709047D01*
X79692738Y-75185238D02*
X79597500Y-75137619D01*
X79407023Y-75137619D01*
X79311785Y-75185238D01*
X79264166Y-75280476D01*
X79264166Y-75661428D01*
X79311785Y-75756666D01*
X79407023Y-75804285D01*
X79597500Y-75804285D01*
X79692738Y-75756666D01*
X79740357Y-75661428D01*
X79740357Y-75566190D01*
X79264166Y-75470952D01*
X80930833Y-75137619D02*
X80930833Y-76137619D01*
X81311785Y-76137619D01*
X81407023Y-76090000D01*
X81454642Y-76042380D01*
X81502261Y-75947142D01*
X81502261Y-75804285D01*
X81454642Y-75709047D01*
X81407023Y-75661428D01*
X81311785Y-75613809D01*
X80930833Y-75613809D01*
X81930833Y-75137619D02*
X81930833Y-75804285D01*
X81930833Y-76137619D02*
X81883214Y-76090000D01*
X81930833Y-76042380D01*
X81978452Y-76090000D01*
X81930833Y-76137619D01*
X81930833Y-76042380D01*
X82407023Y-75804285D02*
X82407023Y-75137619D01*
X82407023Y-75709047D02*
X82454642Y-75756666D01*
X82549880Y-75804285D01*
X82692738Y-75804285D01*
X82787976Y-75756666D01*
X82835595Y-75661428D01*
X82835595Y-75137619D01*
X83454642Y-75137619D02*
X83359404Y-75185238D01*
X83311785Y-75232857D01*
X83264166Y-75328095D01*
X83264166Y-75613809D01*
X83311785Y-75709047D01*
X83359404Y-75756666D01*
X83454642Y-75804285D01*
X83597500Y-75804285D01*
X83692738Y-75756666D01*
X83740357Y-75709047D01*
X83787976Y-75613809D01*
X83787976Y-75328095D01*
X83740357Y-75232857D01*
X83692738Y-75185238D01*
X83597500Y-75137619D01*
X83454642Y-75137619D01*
X84645119Y-75804285D02*
X84645119Y-75137619D01*
X84216547Y-75804285D02*
X84216547Y-75280476D01*
X84264166Y-75185238D01*
X84359404Y-75137619D01*
X84502261Y-75137619D01*
X84597500Y-75185238D01*
X84645119Y-75232857D01*
X84978452Y-75804285D02*
X85359404Y-75804285D01*
X85121309Y-76137619D02*
X85121309Y-75280476D01*
X85168928Y-75185238D01*
X85264166Y-75137619D01*
X85359404Y-75137619D01*
X86454642Y-75137619D02*
X86454642Y-75804285D01*
X86454642Y-76137619D02*
X86407023Y-76090000D01*
X86454642Y-76042380D01*
X86502261Y-76090000D01*
X86454642Y-76137619D01*
X86454642Y-76042380D01*
X86883214Y-75185238D02*
X86978452Y-75137619D01*
X87168928Y-75137619D01*
X87264166Y-75185238D01*
X87311785Y-75280476D01*
X87311785Y-75328095D01*
X87264166Y-75423333D01*
X87168928Y-75470952D01*
X87026071Y-75470952D01*
X86930833Y-75518571D01*
X86883214Y-75613809D01*
X86883214Y-75661428D01*
X86930833Y-75756666D01*
X87026071Y-75804285D01*
X87168928Y-75804285D01*
X87264166Y-75756666D01*
X88359404Y-75804285D02*
X88740357Y-75804285D01*
X88502261Y-76137619D02*
X88502261Y-75280476D01*
X88549880Y-75185238D01*
X88645119Y-75137619D01*
X88740357Y-75137619D01*
X89502261Y-75137619D02*
X89502261Y-75661428D01*
X89454642Y-75756666D01*
X89359404Y-75804285D01*
X89168928Y-75804285D01*
X89073690Y-75756666D01*
X89502261Y-75185238D02*
X89407023Y-75137619D01*
X89168928Y-75137619D01*
X89073690Y-75185238D01*
X89026071Y-75280476D01*
X89026071Y-75375714D01*
X89073690Y-75470952D01*
X89168928Y-75518571D01*
X89407023Y-75518571D01*
X89502261Y-75566190D01*
X89978452Y-75137619D02*
X89978452Y-76137619D01*
X90073690Y-75518571D02*
X90359404Y-75137619D01*
X90359404Y-75804285D02*
X89978452Y-75423333D01*
X91168928Y-75185238D02*
X91073690Y-75137619D01*
X90883214Y-75137619D01*
X90787976Y-75185238D01*
X90740357Y-75280476D01*
X90740357Y-75661428D01*
X90787976Y-75756666D01*
X90883214Y-75804285D01*
X91073690Y-75804285D01*
X91168928Y-75756666D01*
X91216547Y-75661428D01*
X91216547Y-75566190D01*
X90740357Y-75470952D01*
X91692738Y-76185238D02*
X91549880Y-76042380D01*
X92026071Y-75804285D02*
X92026071Y-75137619D01*
X92026071Y-75709047D02*
X92073690Y-75756666D01*
X92168928Y-75804285D01*
X92311785Y-75804285D01*
X92407023Y-75756666D01*
X92454642Y-75661428D01*
X92454642Y-75137619D01*
X77692738Y-74194285D02*
X78073690Y-74194285D01*
X77835595Y-73527619D02*
X77835595Y-74384761D01*
X77883214Y-74480000D01*
X77978452Y-74527619D01*
X78073690Y-74527619D01*
X78407023Y-73527619D02*
X78407023Y-74194285D01*
X78407023Y-74003809D02*
X78454642Y-74099047D01*
X78502261Y-74146666D01*
X78597500Y-74194285D01*
X78692738Y-74194285D01*
X79168928Y-73527619D02*
X79073690Y-73575238D01*
X79026071Y-73622857D01*
X78978452Y-73718095D01*
X78978452Y-74003809D01*
X79026071Y-74099047D01*
X79073690Y-74146666D01*
X79168928Y-74194285D01*
X79311785Y-74194285D01*
X79407023Y-74146666D01*
X79454642Y-74099047D01*
X79502261Y-74003809D01*
X79502261Y-73718095D01*
X79454642Y-73622857D01*
X79407023Y-73575238D01*
X79311785Y-73527619D01*
X79168928Y-73527619D01*
X79930833Y-73527619D02*
X79930833Y-74194285D01*
X79930833Y-74099047D02*
X79978452Y-74146666D01*
X80073690Y-74194285D01*
X80216547Y-74194285D01*
X80311785Y-74146666D01*
X80359404Y-74051428D01*
X80359404Y-73527619D01*
X80359404Y-74051428D02*
X80407023Y-74146666D01*
X80502261Y-74194285D01*
X80645119Y-74194285D01*
X80740357Y-74146666D01*
X80787976Y-74051428D01*
X80787976Y-73527619D01*
X81883214Y-74194285D02*
X82264166Y-74194285D01*
X82026071Y-74527619D02*
X82026071Y-73670476D01*
X82073690Y-73575238D01*
X82168928Y-73527619D01*
X82264166Y-73527619D01*
X82597500Y-73527619D02*
X82597500Y-74527619D01*
X83026071Y-73527619D02*
X83026071Y-74051428D01*
X82978452Y-74146666D01*
X82883214Y-74194285D01*
X82740357Y-74194285D01*
X82645119Y-74146666D01*
X82597500Y-74099047D01*
X83883214Y-73575238D02*
X83787976Y-73527619D01*
X83597500Y-73527619D01*
X83502261Y-73575238D01*
X83454642Y-73670476D01*
X83454642Y-74051428D01*
X83502261Y-74146666D01*
X83597500Y-74194285D01*
X83787976Y-74194285D01*
X83883214Y-74146666D01*
X83930833Y-74051428D01*
X83930833Y-73956190D01*
X83454642Y-73860952D01*
X84978452Y-74527619D02*
X85549880Y-74527619D01*
X85264166Y-73527619D02*
X85264166Y-74527619D01*
X85883214Y-73527619D02*
X85883214Y-74527619D01*
X86216547Y-73813333D01*
X86549880Y-74527619D01*
X86549880Y-73527619D01*
X87216547Y-74527619D02*
X87311785Y-74527619D01*
X87407023Y-74480000D01*
X87454642Y-74432380D01*
X87502261Y-74337142D01*
X87549880Y-74146666D01*
X87549880Y-73908571D01*
X87502261Y-73718095D01*
X87454642Y-73622857D01*
X87407023Y-73575238D01*
X87311785Y-73527619D01*
X87216547Y-73527619D01*
X87121309Y-73575238D01*
X87073690Y-73622857D01*
X87026071Y-73718095D01*
X86978452Y-73908571D01*
X86978452Y-74146666D01*
X87026071Y-74337142D01*
X87073690Y-74432380D01*
X87121309Y-74480000D01*
X87216547Y-74527619D01*
X87883214Y-74527619D02*
X88549880Y-74527619D01*
X88121309Y-73527619D01*
X89121309Y-74527619D02*
X89216547Y-74527619D01*
X89311785Y-74480000D01*
X89359404Y-74432380D01*
X89407023Y-74337142D01*
X89454642Y-74146666D01*
X89454642Y-73908571D01*
X89407023Y-73718095D01*
X89359404Y-73622857D01*
X89311785Y-73575238D01*
X89216547Y-73527619D01*
X89121309Y-73527619D01*
X89026071Y-73575238D01*
X88978452Y-73622857D01*
X88930833Y-73718095D01*
X88883214Y-73908571D01*
X88883214Y-74146666D01*
X88930833Y-74337142D01*
X88978452Y-74432380D01*
X89026071Y-74480000D01*
X89121309Y-74527619D01*
X90454642Y-73527619D02*
X90121309Y-74003809D01*
X89883214Y-73527619D02*
X89883214Y-74527619D01*
X90264166Y-74527619D01*
X90359404Y-74480000D01*
X90407023Y-74432380D01*
X90454642Y-74337142D01*
X90454642Y-74194285D01*
X90407023Y-74099047D01*
X90359404Y-74051428D01*
X90264166Y-74003809D01*
X89883214Y-74003809D01*
X90883214Y-73527619D02*
X90883214Y-74527619D01*
X91121309Y-74527619D01*
X91264166Y-74480000D01*
X91359404Y-74384761D01*
X91407023Y-74289523D01*
X91454642Y-74099047D01*
X91454642Y-73956190D01*
X91407023Y-73765714D01*
X91359404Y-73670476D01*
X91264166Y-73575238D01*
X91121309Y-73527619D01*
X90883214Y-73527619D01*
X91883214Y-73527619D02*
X91883214Y-74527619D01*
X91883214Y-74051428D02*
X92454642Y-74051428D01*
X92454642Y-73527619D02*
X92454642Y-74527619D01*
X93454642Y-73527619D02*
X92883214Y-73527619D01*
X93168928Y-73527619D02*
X93168928Y-74527619D01*
X93073690Y-74384761D01*
X92978452Y-74289523D01*
X92883214Y-74241904D01*
X93787976Y-74527619D02*
X94407023Y-74527619D01*
X94073690Y-74146666D01*
X94216547Y-74146666D01*
X94311785Y-74099047D01*
X94359404Y-74051428D01*
X94407023Y-73956190D01*
X94407023Y-73718095D01*
X94359404Y-73622857D01*
X94311785Y-73575238D01*
X94216547Y-73527619D01*
X93930833Y-73527619D01*
X93835595Y-73575238D01*
X93787976Y-73622857D01*
%TO.C,G\u002A\u002A\u002A*%
G36*
X84670340Y-83031262D02*
G01*
X84566777Y-83030375D01*
X84464709Y-83027793D01*
X84374724Y-83023828D01*
X84303869Y-83018793D01*
X84259189Y-83013001D01*
X84226633Y-83005350D01*
X84117031Y-82962217D01*
X84031853Y-82896750D01*
X83970225Y-82808101D01*
X83931273Y-82695426D01*
X83923393Y-82640889D01*
X83923840Y-82635177D01*
X84114859Y-82635177D01*
X84133937Y-82710675D01*
X84177488Y-82777199D01*
X84245279Y-82827763D01*
X84273323Y-82840832D01*
X84305578Y-82851679D01*
X84344155Y-82858747D01*
X84395779Y-82862823D01*
X84467174Y-82864692D01*
X84565063Y-82865141D01*
X84810726Y-82865141D01*
X84810726Y-82363857D01*
X84549084Y-82369469D01*
X84471778Y-82371379D01*
X84389626Y-82374609D01*
X84330438Y-82379190D01*
X84288266Y-82385848D01*
X84257162Y-82395312D01*
X84231179Y-82408306D01*
X84206817Y-82424690D01*
X84151064Y-82485199D01*
X84120490Y-82557690D01*
X84114859Y-82635177D01*
X83923840Y-82635177D01*
X83931522Y-82537121D01*
X83968201Y-82441431D01*
X84030561Y-82359982D01*
X84115735Y-82298940D01*
X84181690Y-82265292D01*
X84126840Y-82228329D01*
X84082401Y-82190488D01*
X84031784Y-82115984D01*
X84003703Y-82028694D01*
X84001082Y-81983931D01*
X84179464Y-81983931D01*
X84179561Y-81992603D01*
X84193430Y-82074030D01*
X84231637Y-82133699D01*
X84295447Y-82173677D01*
X84300901Y-82175774D01*
X84344051Y-82187508D01*
X84402010Y-82195189D01*
X84480889Y-82199382D01*
X84586798Y-82200654D01*
X84810726Y-82200654D01*
X84810726Y-81765691D01*
X84565696Y-81772137D01*
X84475376Y-81775480D01*
X84382170Y-81781767D01*
X84315113Y-81790052D01*
X84277729Y-81799994D01*
X84227792Y-81840300D01*
X84192263Y-81904939D01*
X84179464Y-81983931D01*
X84001082Y-81983931D01*
X83998263Y-81935790D01*
X84015573Y-81844446D01*
X84055739Y-81761835D01*
X84118869Y-81695131D01*
X84121320Y-81693280D01*
X84142925Y-81677276D01*
X84164069Y-81663276D01*
X84186998Y-81651145D01*
X84213957Y-81640750D01*
X84247192Y-81631957D01*
X84288949Y-81624631D01*
X84341474Y-81618639D01*
X84407011Y-81613847D01*
X84487808Y-81610121D01*
X84586109Y-81607326D01*
X84704160Y-81605328D01*
X84844207Y-81603995D01*
X85008495Y-81603191D01*
X85199271Y-81602782D01*
X85418780Y-81602635D01*
X85669267Y-81602616D01*
X86986919Y-81602616D01*
X86986919Y-81785350D01*
X84993460Y-81785350D01*
X84993460Y-83031262D01*
X84670340Y-83031262D01*
G37*
G36*
X86172923Y-82518015D02*
G01*
X86172601Y-82544637D01*
X86157865Y-82684484D01*
X86120647Y-82800512D01*
X86060212Y-82893919D01*
X85975823Y-82965908D01*
X85866745Y-83017678D01*
X85820465Y-83031146D01*
X85704202Y-83046302D01*
X85587118Y-83038462D01*
X85478437Y-83008767D01*
X85387380Y-82958358D01*
X85372611Y-82946270D01*
X85326402Y-82899275D01*
X85284846Y-82845324D01*
X85254748Y-82794002D01*
X85242915Y-82754895D01*
X85246664Y-82748418D01*
X85273873Y-82735011D01*
X85318813Y-82724593D01*
X85357577Y-82719821D01*
X85390227Y-82722944D01*
X85418636Y-82740792D01*
X85455863Y-82778503D01*
X85502900Y-82820844D01*
X85586247Y-82865642D01*
X85673869Y-82882382D01*
X85760628Y-82872731D01*
X85841383Y-82838352D01*
X85910994Y-82780911D01*
X85964321Y-82702072D01*
X85996224Y-82603499D01*
X86005971Y-82549510D01*
X85226030Y-82549510D01*
X85226289Y-82487214D01*
X85234109Y-82387001D01*
X85235085Y-82383388D01*
X85405162Y-82383388D01*
X85697676Y-82383388D01*
X85782657Y-82383270D01*
X85864966Y-82382526D01*
X85922140Y-82380672D01*
X85958715Y-82377231D01*
X85979224Y-82371727D01*
X85988204Y-82363682D01*
X85990190Y-82352620D01*
X85980996Y-82314302D01*
X85948326Y-82261256D01*
X85899039Y-82210318D01*
X85840546Y-82170506D01*
X85759936Y-82141769D01*
X85669269Y-82135861D01*
X85583348Y-82154941D01*
X85508368Y-82196569D01*
X85450527Y-82258303D01*
X85416019Y-82337705D01*
X85405162Y-82383388D01*
X85235085Y-82383388D01*
X85267550Y-82263236D01*
X85324521Y-82158099D01*
X85402005Y-82073948D01*
X85496985Y-82013142D01*
X85606444Y-81978039D01*
X85727366Y-81970997D01*
X85856734Y-81994375D01*
X85902686Y-82011158D01*
X85965070Y-82048173D01*
X86030594Y-82106507D01*
X86063418Y-82141903D01*
X86115363Y-82215682D01*
X86149135Y-82297774D01*
X86159352Y-82352620D01*
X86167425Y-82395958D01*
X86172923Y-82518015D01*
G37*
G36*
X81405232Y-82153508D02*
G01*
X81107776Y-82148010D01*
X81060848Y-82147260D01*
X80953153Y-82146789D01*
X80876813Y-82148624D01*
X80832426Y-82152744D01*
X80820590Y-82159124D01*
X80821317Y-82160161D01*
X80837883Y-82180183D01*
X80873126Y-82221213D01*
X80924150Y-82279929D01*
X80988061Y-82353011D01*
X81061964Y-82437137D01*
X81142965Y-82528986D01*
X81146886Y-82533424D01*
X81237073Y-82635664D01*
X81307695Y-82716456D01*
X81361142Y-82779077D01*
X81399805Y-82826804D01*
X81426077Y-82862916D01*
X81442348Y-82890688D01*
X81451009Y-82913400D01*
X81454452Y-82934328D01*
X81455069Y-82956750D01*
X81455069Y-83031262D01*
X80541399Y-83031262D01*
X80541399Y-82862237D01*
X81233875Y-82873447D01*
X81121825Y-82748856D01*
X81080697Y-82702790D01*
X81018680Y-82632724D01*
X80946074Y-82550249D01*
X80868823Y-82462119D01*
X80792866Y-82375082D01*
X80775529Y-82355154D01*
X80705461Y-82274051D01*
X80653983Y-82212712D01*
X80618232Y-82166931D01*
X80595349Y-82132505D01*
X80582472Y-82105227D01*
X80576739Y-82080893D01*
X80575290Y-82055298D01*
X80574624Y-81984696D01*
X81405232Y-81984696D01*
X81405232Y-82153508D01*
G37*
G36*
X87236102Y-83031262D02*
G01*
X87053368Y-83031262D01*
X87053368Y-82677773D01*
X87053087Y-82560133D01*
X87052004Y-82470556D01*
X87049723Y-82404029D01*
X87045847Y-82355540D01*
X87039982Y-82320079D01*
X87031732Y-82292633D01*
X87020699Y-82268192D01*
X86977981Y-82212346D01*
X86910412Y-82166438D01*
X86830700Y-82140152D01*
X86748308Y-82136475D01*
X86672703Y-82158392D01*
X86643015Y-82176458D01*
X86619175Y-82199596D01*
X86601241Y-82231438D01*
X86588399Y-82276068D01*
X86579832Y-82337570D01*
X86574723Y-82420029D01*
X86572256Y-82527528D01*
X86571615Y-82664152D01*
X86571615Y-83031262D01*
X86388882Y-83031262D01*
X86388978Y-82686560D01*
X86388994Y-82672777D01*
X86389988Y-82562078D01*
X86392337Y-82457001D01*
X86395792Y-82364446D01*
X86400103Y-82291313D01*
X86405018Y-82244503D01*
X86426081Y-82162708D01*
X86472093Y-82080274D01*
X86540238Y-82022152D01*
X86631295Y-81987728D01*
X86746043Y-81976390D01*
X86780360Y-81976811D01*
X86841043Y-81982082D01*
X86889618Y-81996134D01*
X86940591Y-82022396D01*
X86970630Y-82041392D01*
X87012234Y-82072699D01*
X87035606Y-82097150D01*
X87039637Y-82100514D01*
X87045429Y-82085558D01*
X87049483Y-82042280D01*
X87051921Y-81969055D01*
X87052863Y-81864258D01*
X87053368Y-81602616D01*
X87236102Y-81602616D01*
X87236102Y-83031262D01*
G37*
G36*
X82354626Y-82337705D02*
G01*
X82354925Y-82355642D01*
X82357138Y-82470333D01*
X82359710Y-82557358D01*
X82363114Y-82621614D01*
X82367828Y-82667995D01*
X82374327Y-82701398D01*
X82383086Y-82726716D01*
X82394582Y-82748846D01*
X82440715Y-82805466D01*
X82510562Y-82852033D01*
X82590303Y-82876487D01*
X82671472Y-82876402D01*
X82745604Y-82849355D01*
X82758328Y-82841433D01*
X82784637Y-82822354D01*
X82804810Y-82800256D01*
X82819754Y-82770824D01*
X82830371Y-82729742D01*
X82837568Y-82672696D01*
X82842250Y-82595370D01*
X82845321Y-82493451D01*
X82847686Y-82362623D01*
X82853646Y-81984696D01*
X83018210Y-81984696D01*
X83013258Y-82404153D01*
X83012389Y-82473302D01*
X83010475Y-82590287D01*
X83008080Y-82680604D01*
X83004877Y-82748638D01*
X83000540Y-82798774D01*
X82994743Y-82835397D01*
X82987161Y-82862892D01*
X82977466Y-82885644D01*
X82939511Y-82938957D01*
X82871421Y-82993766D01*
X82787961Y-83031334D01*
X82737355Y-83042205D01*
X82636914Y-83042731D01*
X82537608Y-83019534D01*
X82448851Y-82975345D01*
X82380055Y-82912898D01*
X82335882Y-82856835D01*
X82335698Y-82944049D01*
X82335513Y-83031262D01*
X82186004Y-83031262D01*
X82186004Y-81984696D01*
X82348821Y-81984696D01*
X82354626Y-82337705D01*
G37*
G36*
X83647874Y-83047875D02*
G01*
X83640219Y-83047881D01*
X83582062Y-83049028D01*
X83549296Y-83053543D01*
X83534835Y-83063425D01*
X83531589Y-83080672D01*
X83543463Y-83109464D01*
X83578483Y-83137720D01*
X83616642Y-83161538D01*
X83646965Y-83187983D01*
X83650052Y-83190566D01*
X83659222Y-83194282D01*
X83675208Y-83197589D01*
X83699772Y-83200509D01*
X83734673Y-83203067D01*
X83781672Y-83205285D01*
X83842530Y-83207188D01*
X83919008Y-83208798D01*
X84012865Y-83210139D01*
X84125862Y-83211234D01*
X84259760Y-83212108D01*
X84416319Y-83212783D01*
X84597300Y-83213282D01*
X84804463Y-83213630D01*
X85039569Y-83213849D01*
X85304378Y-83213963D01*
X85600651Y-83213996D01*
X85794934Y-83213983D01*
X86070793Y-83213901D01*
X86316330Y-83213722D01*
X86533310Y-83213422D01*
X86723499Y-83212980D01*
X86888663Y-83212369D01*
X87030568Y-83211569D01*
X87150980Y-83210554D01*
X87251664Y-83209301D01*
X87334387Y-83207786D01*
X87400914Y-83205987D01*
X87453011Y-83203880D01*
X87492444Y-83201440D01*
X87520979Y-83198645D01*
X87540381Y-83195471D01*
X87552417Y-83191894D01*
X87558853Y-83187891D01*
X87559902Y-83186791D01*
X87567194Y-83174814D01*
X87572949Y-83154393D01*
X87577343Y-83121987D01*
X87580548Y-83074058D01*
X87582738Y-83007064D01*
X87584087Y-82917467D01*
X87584769Y-82801726D01*
X87584957Y-82656302D01*
X87584957Y-82150818D01*
X87402224Y-82150818D01*
X87402224Y-81984696D01*
X87584957Y-81984696D01*
X87584957Y-81810268D01*
X87585459Y-81754456D01*
X87587434Y-81693134D01*
X87590558Y-81651308D01*
X87594458Y-81635841D01*
X87602923Y-81638784D01*
X87633919Y-81654397D01*
X87677519Y-81678950D01*
X87751079Y-81722058D01*
X87751079Y-81984696D01*
X87883976Y-81984696D01*
X87883976Y-82150818D01*
X87751079Y-82150818D01*
X87750834Y-82694866D01*
X87750803Y-82749266D01*
X87750479Y-82897181D01*
X87749407Y-83016423D01*
X87747064Y-83110432D01*
X87742927Y-83182650D01*
X87736474Y-83236517D01*
X87727182Y-83275474D01*
X87714529Y-83302962D01*
X87697992Y-83322422D01*
X87677048Y-83337294D01*
X87651175Y-83351021D01*
X87646068Y-83353389D01*
X87634224Y-83357548D01*
X87618105Y-83361254D01*
X87595903Y-83364536D01*
X87565807Y-83367419D01*
X87526009Y-83369930D01*
X87474700Y-83372096D01*
X87410069Y-83373943D01*
X87330307Y-83375499D01*
X87233605Y-83376789D01*
X87118154Y-83377841D01*
X86982144Y-83378682D01*
X86823767Y-83379336D01*
X86641211Y-83379833D01*
X86432669Y-83380198D01*
X86196331Y-83380457D01*
X85930387Y-83380638D01*
X85633028Y-83380767D01*
X83672793Y-83381468D01*
X83615278Y-83430630D01*
X83606801Y-83437737D01*
X83567280Y-83464406D01*
X83525106Y-83476771D01*
X83465141Y-83479791D01*
X83451649Y-83479706D01*
X83396238Y-83475289D01*
X83355736Y-83460583D01*
X83315004Y-83430630D01*
X83257488Y-83381468D01*
X78788816Y-83381468D01*
X78731301Y-83430630D01*
X78722825Y-83437737D01*
X78683303Y-83464406D01*
X78641130Y-83476771D01*
X78581164Y-83479791D01*
X78567673Y-83479706D01*
X78512261Y-83475289D01*
X78471760Y-83460583D01*
X78431027Y-83430630D01*
X78419762Y-83421255D01*
X78381098Y-83395949D01*
X78338722Y-83384052D01*
X78277992Y-83380793D01*
X78182472Y-83380118D01*
X78182472Y-83213996D01*
X78280111Y-83213996D01*
X78315112Y-83213161D01*
X78369869Y-83205206D01*
X78399339Y-83187983D01*
X78427073Y-83163438D01*
X78467822Y-83137720D01*
X78500209Y-83112667D01*
X78514715Y-83080672D01*
X78647613Y-83080672D01*
X78659487Y-83109464D01*
X78694506Y-83137720D01*
X78732665Y-83161538D01*
X78762989Y-83187983D01*
X78767993Y-83191489D01*
X78778634Y-83194861D01*
X78796358Y-83197884D01*
X78822798Y-83200575D01*
X78859588Y-83202953D01*
X78908363Y-83205038D01*
X78970756Y-83206848D01*
X79048401Y-83208402D01*
X79142931Y-83209719D01*
X79255982Y-83210817D01*
X79389185Y-83211716D01*
X79544176Y-83212434D01*
X79722589Y-83212990D01*
X79926056Y-83213402D01*
X80156212Y-83213690D01*
X80414691Y-83213873D01*
X80703126Y-83213969D01*
X81023152Y-83213996D01*
X81324893Y-83213972D01*
X81615177Y-83213881D01*
X81875406Y-83213704D01*
X82107215Y-83213423D01*
X82312236Y-83213018D01*
X82492105Y-83212471D01*
X82648455Y-83211764D01*
X82782919Y-83210877D01*
X82897132Y-83209791D01*
X82992727Y-83208488D01*
X83071338Y-83206948D01*
X83134600Y-83205154D01*
X83184145Y-83203086D01*
X83221608Y-83200726D01*
X83248623Y-83198054D01*
X83266823Y-83195052D01*
X83277843Y-83191701D01*
X83283316Y-83187983D01*
X83311050Y-83163438D01*
X83351798Y-83137720D01*
X83384185Y-83112667D01*
X83398692Y-83080672D01*
X83398669Y-83078513D01*
X83394602Y-83062110D01*
X83378595Y-83052869D01*
X83343559Y-83048790D01*
X83282407Y-83047875D01*
X83166122Y-83047875D01*
X83166122Y-82218907D01*
X83293563Y-82218907D01*
X83308288Y-82252352D01*
X83320501Y-82273326D01*
X83344081Y-82291738D01*
X83381170Y-82289711D01*
X83394935Y-82287551D01*
X83433821Y-82293054D01*
X83472345Y-82322634D01*
X83484742Y-82335471D01*
X83497336Y-82352525D01*
X83505835Y-82374381D01*
X83511043Y-82406723D01*
X83513765Y-82455235D01*
X83514808Y-82525602D01*
X83514977Y-82623509D01*
X83514977Y-82881753D01*
X83631262Y-82881753D01*
X83631262Y-82184042D01*
X83573120Y-82184042D01*
X83562930Y-82184206D01*
X83526094Y-82191188D01*
X83514977Y-82210166D01*
X83513214Y-82222068D01*
X83500955Y-82222718D01*
X83471206Y-82201860D01*
X83436125Y-82179222D01*
X83384975Y-82168963D01*
X83325489Y-82186357D01*
X83298885Y-82200991D01*
X83293563Y-82218907D01*
X83166122Y-82218907D01*
X83166122Y-82017920D01*
X83290713Y-82017920D01*
X83335819Y-82017411D01*
X83383900Y-82014004D01*
X83408434Y-82006396D01*
X83415304Y-81993429D01*
X83415293Y-81992900D01*
X83401197Y-81968664D01*
X83368411Y-81944688D01*
X83330251Y-81920870D01*
X83299928Y-81894425D01*
X83297723Y-81892132D01*
X83286860Y-81885862D01*
X83267525Y-81880784D01*
X83236624Y-81876775D01*
X83191064Y-81873715D01*
X83127749Y-81871483D01*
X83043586Y-81869957D01*
X82935482Y-81869017D01*
X82800342Y-81868542D01*
X82635073Y-81868411D01*
X82572489Y-81868417D01*
X82420415Y-81868540D01*
X82297174Y-81868945D01*
X82199541Y-81869790D01*
X82124289Y-81871231D01*
X82068193Y-81873426D01*
X82028025Y-81876532D01*
X82000561Y-81880706D01*
X81982573Y-81886106D01*
X81970836Y-81892889D01*
X81962123Y-81901211D01*
X81936511Y-81924040D01*
X81901406Y-81943861D01*
X81894441Y-81946898D01*
X81886899Y-81954776D01*
X81881111Y-81970378D01*
X81876845Y-81997347D01*
X81873866Y-82039325D01*
X81871938Y-82099955D01*
X81870829Y-82182881D01*
X81870304Y-82291745D01*
X81870128Y-82430191D01*
X81870112Y-82449511D01*
X81869457Y-82600101D01*
X81867803Y-82720313D01*
X81865046Y-82812686D01*
X81861084Y-82879765D01*
X81855813Y-82924089D01*
X81849131Y-82948202D01*
X81835278Y-82969297D01*
X81783973Y-83010410D01*
X81712569Y-83037781D01*
X81629496Y-83047594D01*
X81610270Y-83047401D01*
X81552959Y-83042704D01*
X81521648Y-83028201D01*
X81510754Y-82999192D01*
X81514694Y-82950979D01*
X81518554Y-82928189D01*
X81528676Y-82896215D01*
X81548815Y-82883825D01*
X81588902Y-82881753D01*
X81603711Y-82881713D01*
X81633678Y-82880110D01*
X81657006Y-82873534D01*
X81674527Y-82858455D01*
X81687072Y-82831339D01*
X81695473Y-82788657D01*
X81700560Y-82726876D01*
X81703165Y-82642465D01*
X81704118Y-82531892D01*
X81704251Y-82391627D01*
X81704239Y-82339602D01*
X81703998Y-82218685D01*
X81703245Y-82125794D01*
X81701718Y-82057123D01*
X81699151Y-82008865D01*
X81695281Y-81977216D01*
X81689845Y-81958369D01*
X81682578Y-81948519D01*
X81673218Y-81943861D01*
X81647059Y-81930325D01*
X81612500Y-81901211D01*
X81610296Y-81898836D01*
X81600140Y-81890147D01*
X81585751Y-81883289D01*
X81563506Y-81878046D01*
X81529780Y-81874202D01*
X81480950Y-81871541D01*
X81413392Y-81869848D01*
X81323482Y-81868906D01*
X81207595Y-81868499D01*
X81062108Y-81868411D01*
X80541399Y-81868411D01*
X80541399Y-81824926D01*
X80541269Y-81821128D01*
X80523462Y-81773663D01*
X80476905Y-81716947D01*
X80475989Y-81716031D01*
X80447983Y-81687856D01*
X80424824Y-81666191D01*
X80406050Y-81653465D01*
X80391204Y-81652105D01*
X80379825Y-81664541D01*
X80371454Y-81693200D01*
X80365632Y-81740512D01*
X80361899Y-81808905D01*
X80359795Y-81900808D01*
X80358861Y-82018648D01*
X80358638Y-82164855D01*
X80358666Y-82341858D01*
X80358666Y-83031262D01*
X80192544Y-83031262D01*
X80192544Y-82333552D01*
X80192484Y-82253651D01*
X80192062Y-82110333D01*
X80191274Y-81979648D01*
X80190164Y-81865029D01*
X80188779Y-81769907D01*
X80187162Y-81697713D01*
X80185358Y-81651881D01*
X80183413Y-81635841D01*
X80183103Y-81635853D01*
X80162563Y-81643239D01*
X80127249Y-81660162D01*
X80087635Y-81686451D01*
X80040568Y-81732839D01*
X80006390Y-81783456D01*
X79993198Y-81828155D01*
X79993198Y-81868411D01*
X79397194Y-81868411D01*
X79247126Y-81868539D01*
X79116799Y-81869041D01*
X79013449Y-81870053D01*
X78933857Y-81871710D01*
X78874804Y-81874148D01*
X78833070Y-81877503D01*
X78805438Y-81881911D01*
X78788688Y-81887506D01*
X78779601Y-81894425D01*
X78751867Y-81918969D01*
X78711118Y-81944688D01*
X78688404Y-81957755D01*
X78662669Y-81982539D01*
X78668628Y-82001511D01*
X78705425Y-82013647D01*
X78772204Y-82017920D01*
X78880183Y-82017920D01*
X78880183Y-83047875D01*
X78763898Y-83047875D01*
X78756243Y-83047881D01*
X78698085Y-83049028D01*
X78665320Y-83053543D01*
X78650858Y-83063425D01*
X78647613Y-83080672D01*
X78514715Y-83080672D01*
X78514693Y-83078513D01*
X78510626Y-83062110D01*
X78494618Y-83052869D01*
X78459582Y-83048790D01*
X78398430Y-83047875D01*
X78282145Y-83047875D01*
X78282145Y-82254507D01*
X78384534Y-82254507D01*
X78403898Y-82290949D01*
X78409508Y-82298191D01*
X78431487Y-82312152D01*
X78462668Y-82301510D01*
X78501819Y-82289644D01*
X78551017Y-82303070D01*
X78597345Y-82349558D01*
X78608354Y-82366918D01*
X78618392Y-82391472D01*
X78624969Y-82424900D01*
X78628791Y-82473288D01*
X78630566Y-82542722D01*
X78631001Y-82639288D01*
X78631001Y-82881753D01*
X78747286Y-82881753D01*
X78747286Y-82184042D01*
X78689143Y-82184042D01*
X78678953Y-82184206D01*
X78642118Y-82191188D01*
X78631001Y-82210166D01*
X78629238Y-82222068D01*
X78616979Y-82222718D01*
X78587230Y-82201860D01*
X78565938Y-82186185D01*
X78530779Y-82170415D01*
X78493242Y-82173682D01*
X78440524Y-82195425D01*
X78427914Y-82201676D01*
X78391631Y-82227116D01*
X78384534Y-82254507D01*
X78282145Y-82254507D01*
X78282145Y-82017920D01*
X78406736Y-82017920D01*
X78451842Y-82017411D01*
X78499923Y-82014004D01*
X78524457Y-82006396D01*
X78531328Y-81993429D01*
X78531317Y-81992900D01*
X78517220Y-81968664D01*
X78484434Y-81944688D01*
X78446275Y-81920870D01*
X78415951Y-81894425D01*
X78399398Y-81882125D01*
X78357347Y-81871643D01*
X78288417Y-81868411D01*
X78182472Y-81868411D01*
X78182472Y-81702289D01*
X78286298Y-81701614D01*
X78324015Y-81700795D01*
X78373325Y-81694937D01*
X78410121Y-81679961D01*
X78447639Y-81651778D01*
X78456115Y-81644670D01*
X78495637Y-81618002D01*
X78537810Y-81605636D01*
X78597776Y-81602616D01*
X78611267Y-81602702D01*
X78666679Y-81607119D01*
X78707181Y-81621825D01*
X78747913Y-81651778D01*
X78805428Y-81700939D01*
X79890572Y-81702289D01*
X79929426Y-81656599D01*
X79950944Y-81632621D01*
X80037209Y-81560157D01*
X80128264Y-81518972D01*
X80192544Y-81501663D01*
X80192544Y-81320209D01*
X80357008Y-81320209D01*
X80361990Y-81413194D01*
X80362215Y-81417384D01*
X80366219Y-81468841D01*
X80375264Y-81497836D01*
X80395586Y-81514461D01*
X80433420Y-81528809D01*
X80462962Y-81542347D01*
X80518756Y-81579643D01*
X80571384Y-81626864D01*
X80642900Y-81702289D01*
X81573302Y-81702289D01*
X81638776Y-81649672D01*
X81704251Y-81597056D01*
X81704251Y-81475245D01*
X81704279Y-81465970D01*
X81705793Y-81408924D01*
X81709164Y-81368675D01*
X81713752Y-81353434D01*
X81722216Y-81356377D01*
X81753213Y-81371990D01*
X81796813Y-81396543D01*
X81830804Y-81417333D01*
X81857792Y-81441189D01*
X81868479Y-81470718D01*
X81870373Y-81518354D01*
X81870726Y-81542208D01*
X81876832Y-81583499D01*
X81896145Y-81614519D01*
X81935847Y-81649672D01*
X82001322Y-81702289D01*
X82637711Y-81701614D01*
X83274101Y-81700939D01*
X83331616Y-81651778D01*
X83340092Y-81644670D01*
X83379614Y-81618002D01*
X83421787Y-81605636D01*
X83481753Y-81602616D01*
X83495244Y-81602702D01*
X83550655Y-81607119D01*
X83591157Y-81621825D01*
X83631890Y-81651778D01*
X83661643Y-81675094D01*
X83695331Y-81691890D01*
X83737919Y-81699542D01*
X83801537Y-81701614D01*
X83913669Y-81702289D01*
X83913669Y-81868411D01*
X83799418Y-81868411D01*
X83733570Y-81870666D01*
X83688129Y-81878935D01*
X83663577Y-81894425D01*
X83635843Y-81918969D01*
X83595095Y-81944688D01*
X83572381Y-81957755D01*
X83546645Y-81982539D01*
X83550065Y-81993429D01*
X83552604Y-82001511D01*
X83589401Y-82013647D01*
X83656180Y-82017920D01*
X83764159Y-82017920D01*
X83764159Y-83047875D01*
X83647874Y-83047875D01*
G37*
G36*
X79959974Y-82518015D02*
G01*
X79959651Y-82544637D01*
X79944915Y-82684484D01*
X79907698Y-82800512D01*
X79847262Y-82893919D01*
X79762873Y-82965908D01*
X79653795Y-83017678D01*
X79607516Y-83031146D01*
X79491252Y-83046302D01*
X79374169Y-83038462D01*
X79265487Y-83008767D01*
X79174430Y-82958358D01*
X79159661Y-82946270D01*
X79113452Y-82899275D01*
X79071896Y-82845324D01*
X79041798Y-82794002D01*
X79029966Y-82754895D01*
X79033714Y-82748418D01*
X79060924Y-82735011D01*
X79105863Y-82724593D01*
X79144627Y-82719821D01*
X79177278Y-82722944D01*
X79205686Y-82740792D01*
X79242914Y-82778503D01*
X79289951Y-82820844D01*
X79373297Y-82865642D01*
X79460920Y-82882382D01*
X79547678Y-82872731D01*
X79628433Y-82838352D01*
X79698044Y-82780911D01*
X79751371Y-82702072D01*
X79783274Y-82603499D01*
X79793021Y-82549510D01*
X79013080Y-82549510D01*
X79013340Y-82487214D01*
X79021159Y-82387001D01*
X79022135Y-82383388D01*
X79192212Y-82383388D01*
X79484726Y-82383388D01*
X79569707Y-82383270D01*
X79652016Y-82382526D01*
X79709191Y-82380672D01*
X79745765Y-82377231D01*
X79766275Y-82371727D01*
X79775254Y-82363682D01*
X79777240Y-82352620D01*
X79768046Y-82314302D01*
X79735376Y-82261256D01*
X79686089Y-82210318D01*
X79627596Y-82170506D01*
X79546986Y-82141769D01*
X79456319Y-82135861D01*
X79370398Y-82154941D01*
X79295418Y-82196569D01*
X79237577Y-82258303D01*
X79203069Y-82337705D01*
X79192212Y-82383388D01*
X79022135Y-82383388D01*
X79054601Y-82263236D01*
X79111572Y-82158099D01*
X79189055Y-82073948D01*
X79284035Y-82013142D01*
X79393494Y-81978039D01*
X79514416Y-81970997D01*
X79643784Y-81994375D01*
X79689736Y-82011158D01*
X79752120Y-82048173D01*
X79817645Y-82106507D01*
X79850468Y-82141903D01*
X79902413Y-82215682D01*
X79936185Y-82297774D01*
X79946402Y-82352620D01*
X79954475Y-82395958D01*
X79959974Y-82518015D01*
G37*
G36*
X96744600Y-81362312D02*
G01*
X96761835Y-81397591D01*
X96617600Y-81413557D01*
X96477837Y-81399395D01*
X96490600Y-81362312D01*
X96536590Y-81348893D01*
X96744600Y-81362312D01*
G37*
G36*
X103628000Y-91538800D02*
G01*
X103577200Y-91589600D01*
X103526400Y-91538800D01*
X103577200Y-91488000D01*
X103628000Y-91538800D01*
G37*
G36*
X97963800Y-78208297D02*
G01*
X98015269Y-78224138D01*
X97954946Y-78244401D01*
X97735200Y-78252327D01*
X97586102Y-78249364D01*
X97458454Y-78233422D01*
X97506600Y-78208297D01*
X97667740Y-78191488D01*
X97963800Y-78208297D01*
G37*
G36*
X99894200Y-83796297D02*
G01*
X99945669Y-83812138D01*
X99885346Y-83832401D01*
X99665600Y-83840327D01*
X99516502Y-83837364D01*
X99388854Y-83821422D01*
X99437000Y-83796297D01*
X99598140Y-83779488D01*
X99894200Y-83796297D01*
G37*
G36*
X100275200Y-81785200D02*
G01*
X100224400Y-81836000D01*
X100173600Y-81785200D01*
X100224400Y-81734400D01*
X100275200Y-81785200D01*
G37*
G36*
X100072000Y-81683600D02*
G01*
X100021200Y-81734400D01*
X99970400Y-81683600D01*
X100021200Y-81632800D01*
X100072000Y-81683600D01*
G37*
G36*
X96617600Y-80159600D02*
G01*
X96566800Y-80210400D01*
X96516000Y-80159600D01*
X96566800Y-80108800D01*
X96617600Y-80159600D01*
G37*
G36*
X100756493Y-87273922D02*
G01*
X100729874Y-87428087D01*
X100665837Y-87489756D01*
X100570556Y-87409447D01*
X100539893Y-87335432D01*
X100589606Y-87235616D01*
X100638238Y-87223840D01*
X100756493Y-87273922D01*
G37*
G36*
X116734400Y-79346800D02*
G01*
X116683600Y-79397600D01*
X116632800Y-79346800D01*
X116683600Y-79296000D01*
X116734400Y-79346800D01*
G37*
G36*
X97396534Y-88372266D02*
G01*
X97412429Y-88402826D01*
X97328800Y-88440000D01*
X97275014Y-88432667D01*
X97261067Y-88372266D01*
X97275958Y-88360107D01*
X97396534Y-88372266D01*
G37*
G36*
X96590267Y-81054392D02*
G01*
X96607736Y-81059419D01*
X96622777Y-81090342D01*
X96465200Y-81104993D01*
X96441140Y-81105132D01*
X96282089Y-81091510D01*
X96285467Y-81058156D01*
X96368951Y-81039518D01*
X96590267Y-81054392D01*
G37*
G36*
X98880263Y-82554544D02*
G01*
X98956928Y-82681739D01*
X99024396Y-82902279D01*
X99054613Y-83131400D01*
X99044385Y-83181504D01*
X98923920Y-83258400D01*
X98923459Y-83258398D01*
X98826549Y-83164276D01*
X98791840Y-82902800D01*
X98792433Y-82856411D01*
X98815360Y-82636603D01*
X98861271Y-82547200D01*
X98880263Y-82554544D01*
G37*
G36*
X98818934Y-78415466D02*
G01*
X98834829Y-78446026D01*
X98751200Y-78483200D01*
X98697414Y-78475867D01*
X98683467Y-78415466D01*
X98698358Y-78403307D01*
X98818934Y-78415466D01*
G37*
G36*
X115779374Y-88771907D02*
G01*
X115798054Y-88812062D01*
X115760773Y-88961636D01*
X115694374Y-89038525D01*
X115638416Y-88962045D01*
X115625963Y-88867559D01*
X115678935Y-88755222D01*
X115779374Y-88771907D01*
G37*
G36*
X94992000Y-82090000D02*
G01*
X94941200Y-82140800D01*
X94890400Y-82090000D01*
X94941200Y-82039200D01*
X94992000Y-82090000D01*
G37*
G36*
X97735200Y-81175600D02*
G01*
X97684400Y-81226400D01*
X97633600Y-81175600D01*
X97684400Y-81124800D01*
X97735200Y-81175600D01*
G37*
G36*
X96022911Y-84045470D02*
G01*
X96032573Y-84056741D01*
X95990290Y-84099283D01*
X95782593Y-84083273D01*
X95602939Y-84049414D01*
X95557561Y-84019775D01*
X95689519Y-83990199D01*
X95858595Y-83986930D01*
X96022911Y-84045470D01*
G37*
G36*
X106851867Y-78107992D02*
G01*
X106869336Y-78113019D01*
X106884377Y-78143942D01*
X106726800Y-78158593D01*
X106702740Y-78158732D01*
X106543689Y-78145110D01*
X106547067Y-78111756D01*
X106630551Y-78093118D01*
X106851867Y-78107992D01*
G37*
G36*
X104352160Y-90903800D02*
G01*
X104224104Y-91031666D01*
X104089272Y-91073444D01*
X104034400Y-90963066D01*
X104039723Y-90922165D01*
X104101252Y-90911385D01*
X104170147Y-90926629D01*
X104329852Y-90852118D01*
X104390886Y-90805447D01*
X104439632Y-90783761D01*
X104352160Y-90903800D01*
G37*
G36*
X95627000Y-81057512D02*
G01*
X95644235Y-81092791D01*
X95500000Y-81108757D01*
X95360237Y-81094595D01*
X95373000Y-81057512D01*
X95418990Y-81044093D01*
X95627000Y-81057512D01*
G37*
G36*
X99601047Y-83527924D02*
G01*
X99420067Y-83563200D01*
X99244800Y-83537064D01*
X99157600Y-83461600D01*
X99174794Y-83414861D01*
X99184802Y-83410800D01*
X99462400Y-83410800D01*
X99513200Y-83461600D01*
X99564000Y-83410800D01*
X99513200Y-83360000D01*
X99462400Y-83410800D01*
X99184802Y-83410800D01*
X99310000Y-83360000D01*
X99376626Y-83359369D01*
X99536060Y-83352380D01*
X99558953Y-83354869D01*
X99608148Y-83410800D01*
X99646127Y-83453980D01*
X99601047Y-83527924D01*
G37*
G36*
X95982600Y-80749964D02*
G01*
X96011427Y-80759462D01*
X95989643Y-80785835D01*
X95804800Y-80796428D01*
X95735867Y-80795445D01*
X95595380Y-80779413D01*
X95627000Y-80749964D01*
X95724920Y-80734163D01*
X95982600Y-80749964D01*
G37*
G36*
X117830796Y-83597066D02*
G01*
X117813220Y-83720913D01*
X117783603Y-83763510D01*
X117604777Y-83823863D01*
X117255869Y-83822905D01*
X117254424Y-83822806D01*
X116874678Y-83783320D01*
X116655708Y-83711731D01*
X116590906Y-83627626D01*
X117463572Y-83627626D01*
X117547200Y-83664800D01*
X117600987Y-83657467D01*
X117614934Y-83597066D01*
X117600043Y-83584907D01*
X117479467Y-83597066D01*
X117463572Y-83627626D01*
X116590906Y-83627626D01*
X116555290Y-83581401D01*
X116531200Y-83365688D01*
X116539102Y-83309200D01*
X117445600Y-83309200D01*
X117496400Y-83360000D01*
X117547200Y-83309200D01*
X117496400Y-83258400D01*
X117445600Y-83309200D01*
X116539102Y-83309200D01*
X116551588Y-83219938D01*
X116683349Y-83018026D01*
X117463572Y-83018026D01*
X117547200Y-83055200D01*
X117600987Y-83047867D01*
X117614934Y-82987466D01*
X117600043Y-82975307D01*
X117479467Y-82987466D01*
X117463572Y-83018026D01*
X116683349Y-83018026D01*
X116719185Y-82963110D01*
X117023546Y-82804428D01*
X117425504Y-82769983D01*
X117492155Y-82775883D01*
X117704275Y-82819445D01*
X117797242Y-82936907D01*
X117804378Y-82987466D01*
X117833371Y-83192884D01*
X117837527Y-83251864D01*
X117837944Y-83309200D01*
X117839586Y-83535133D01*
X117830796Y-83597066D01*
G37*
G36*
X96922400Y-90726000D02*
G01*
X96871600Y-90776800D01*
X96820800Y-90726000D01*
X96871600Y-90675200D01*
X96922400Y-90726000D01*
G37*
G36*
X100907309Y-78995075D02*
G01*
X101037200Y-79092800D01*
X101046758Y-79145145D01*
X100941597Y-79194400D01*
X100865899Y-79181965D01*
X100783200Y-79092800D01*
X100785937Y-79068694D01*
X100878804Y-78991200D01*
X100907309Y-78995075D01*
G37*
G36*
X96748702Y-82430794D02*
G01*
X96800765Y-82738232D01*
X96795316Y-83058275D01*
X96669976Y-83422654D01*
X96655258Y-83446079D01*
X96582009Y-83617283D01*
X96540584Y-83858702D01*
X96526428Y-84214393D01*
X96534987Y-84728413D01*
X96541128Y-85059932D01*
X96536533Y-85420809D01*
X96519105Y-85658140D01*
X96490600Y-85732203D01*
X96465109Y-85693973D01*
X96426288Y-85487688D01*
X96408185Y-85153990D01*
X96409113Y-84743753D01*
X96427386Y-84307855D01*
X96461318Y-83897171D01*
X96509221Y-83562579D01*
X96569410Y-83354954D01*
X96586436Y-83320785D01*
X96651737Y-83132143D01*
X96625593Y-83055200D01*
X96603482Y-83044431D01*
X96554665Y-82902199D01*
X96543023Y-82647546D01*
X96549352Y-82549981D01*
X96599137Y-82328274D01*
X96673540Y-82291343D01*
X96748702Y-82430794D01*
G37*
G36*
X116328000Y-81836000D02*
G01*
X116320668Y-81889786D01*
X116260267Y-81903733D01*
X116248108Y-81888842D01*
X116260267Y-81768266D01*
X116290827Y-81752371D01*
X116328000Y-81836000D01*
G37*
G36*
X94687200Y-82293200D02*
G01*
X94636400Y-82344000D01*
X94585600Y-82293200D01*
X94636400Y-82242400D01*
X94687200Y-82293200D01*
G37*
G36*
X116294134Y-84613066D02*
G01*
X116310029Y-84643626D01*
X116226400Y-84680800D01*
X116172614Y-84673467D01*
X116158667Y-84613066D01*
X116173558Y-84600907D01*
X116294134Y-84613066D01*
G37*
G36*
X94299850Y-82274595D02*
G01*
X94346878Y-82311166D01*
X94238467Y-82335978D01*
X94135418Y-82328795D01*
X94105117Y-82282616D01*
X94141062Y-82262483D01*
X94299850Y-82274595D01*
G37*
G36*
X96337085Y-83159752D02*
G01*
X96414400Y-83258400D01*
X96411448Y-83282684D01*
X96312800Y-83360000D01*
X96288516Y-83357047D01*
X96211200Y-83258400D01*
X96214153Y-83234115D01*
X96312800Y-83156800D01*
X96337085Y-83159752D01*
G37*
G36*
X113686400Y-93062800D02*
G01*
X113635600Y-93113600D01*
X113584800Y-93062800D01*
X113635600Y-93012000D01*
X113686400Y-93062800D01*
G37*
G36*
X95220425Y-87540252D02*
G01*
X95296800Y-87627200D01*
X95324448Y-87623139D01*
X95398400Y-87519956D01*
X95398772Y-87514509D01*
X95497440Y-87453988D01*
X95728600Y-87454479D01*
X95757494Y-87458593D01*
X95963040Y-87522797D01*
X96033400Y-87612522D01*
X96036818Y-87664035D01*
X96148869Y-87728800D01*
X96261387Y-87641130D01*
X96334473Y-87424000D01*
X96334826Y-87421574D01*
X96335672Y-87206279D01*
X96273433Y-87119200D01*
X96244441Y-87079329D01*
X96332079Y-86954778D01*
X96445879Y-86864831D01*
X96594588Y-86844348D01*
X96649530Y-86968465D01*
X96576383Y-87202393D01*
X96462764Y-87434555D01*
X96369419Y-87666516D01*
X96334619Y-87744278D01*
X96238909Y-87810333D01*
X96044849Y-87826455D01*
X95701049Y-87803150D01*
X95424329Y-87788140D01*
X95185344Y-87799745D01*
X95093600Y-87840034D01*
X95074366Y-87866590D01*
X94913910Y-87913448D01*
X94643797Y-87932000D01*
X94581655Y-87931553D01*
X94304970Y-87901093D01*
X94102182Y-87790150D01*
X93881797Y-87553251D01*
X93816016Y-87472108D01*
X93681449Y-87276507D01*
X93609820Y-87078997D01*
X93583792Y-86812577D01*
X93586028Y-86410251D01*
X93602456Y-85646000D01*
X93663538Y-86357200D01*
X93702855Y-86719781D01*
X93785441Y-87102166D01*
X93914865Y-87330452D01*
X94110590Y-87433580D01*
X94392078Y-87440490D01*
X94477036Y-87434523D01*
X94699569Y-87445152D01*
X94788800Y-87494527D01*
X94781987Y-87511074D01*
X94651622Y-87550058D01*
X94407800Y-87544945D01*
X94304364Y-87536841D01*
X94137413Y-87554509D01*
X94137469Y-87613727D01*
X94287701Y-87691751D01*
X94571278Y-87765840D01*
X94640819Y-87778702D01*
X94829122Y-87794302D01*
X94888440Y-87709838D01*
X94871080Y-87474475D01*
X94857975Y-87304833D01*
X94865586Y-87271600D01*
X94992000Y-87271600D01*
X95042800Y-87322400D01*
X95093600Y-87271600D01*
X95042800Y-87220800D01*
X94992000Y-87271600D01*
X94865586Y-87271600D01*
X94891885Y-87156765D01*
X95012402Y-87119200D01*
X95143113Y-87169279D01*
X95169249Y-87271600D01*
X95195200Y-87373200D01*
X95220425Y-87540252D01*
G37*
G36*
X96711179Y-86043933D02*
G01*
X96703996Y-86146982D01*
X96657817Y-86177283D01*
X96637684Y-86141338D01*
X96649796Y-85982550D01*
X96686367Y-85935522D01*
X96711179Y-86043933D01*
G37*
G36*
X99565778Y-85087541D02*
G01*
X99837767Y-85108700D01*
X99984688Y-85183584D01*
X100072000Y-85341200D01*
X100113149Y-85525699D01*
X100081030Y-85825450D01*
X100066521Y-85861547D01*
X99979533Y-85983951D01*
X99820320Y-86028826D01*
X99524745Y-86018419D01*
X99377839Y-86001439D01*
X99147008Y-85945501D01*
X99056000Y-85876475D01*
X99056689Y-85869089D01*
X99159990Y-85815384D01*
X99405309Y-85828497D01*
X99666461Y-85839875D01*
X99864262Y-85753068D01*
X99872222Y-85743104D01*
X99929875Y-85539046D01*
X99828125Y-85361416D01*
X99603930Y-85277700D01*
X99378291Y-85258362D01*
X99144028Y-85209181D01*
X99079717Y-85152837D01*
X99194816Y-85106465D01*
X99498782Y-85087200D01*
X99565778Y-85087541D01*
G37*
G36*
X94484000Y-87085996D02*
G01*
X94466700Y-87158135D01*
X94322326Y-87207800D01*
X94026999Y-87127289D01*
X93927388Y-87079869D01*
X93949290Y-87038607D01*
X94153999Y-86999626D01*
X94175706Y-86996565D01*
X94410598Y-86996149D01*
X94484000Y-87085996D01*
G37*
G36*
X94518281Y-81147345D02*
G01*
X94671726Y-81225971D01*
X94657220Y-81328667D01*
X94483518Y-81381683D01*
X94370271Y-81402272D01*
X94307027Y-81483283D01*
X94312766Y-81495312D01*
X94444910Y-81550646D01*
X94687200Y-81563232D01*
X95042800Y-81544465D01*
X94738000Y-81627411D01*
X94546688Y-81664255D01*
X94279588Y-81694265D01*
X94001085Y-81712200D01*
X93764568Y-81715908D01*
X93623422Y-81703237D01*
X93631034Y-81672034D01*
X93694694Y-81597195D01*
X93721219Y-81400655D01*
X93717845Y-81295882D01*
X93743052Y-81353400D01*
X93752602Y-81390417D01*
X93810009Y-81509581D01*
X93911702Y-81488731D01*
X94105294Y-81324005D01*
X94308367Y-81189861D01*
X94511470Y-81146205D01*
X94518281Y-81147345D01*
G37*
G36*
X116429600Y-80464400D02*
G01*
X116378800Y-80515200D01*
X116328000Y-80464400D01*
X116378800Y-80413600D01*
X116429600Y-80464400D01*
G37*
G36*
X94754934Y-80955466D02*
G01*
X94770829Y-80986026D01*
X94687200Y-81023200D01*
X94633414Y-81015867D01*
X94619467Y-80955466D01*
X94634358Y-80943307D01*
X94754934Y-80955466D01*
G37*
G36*
X115026250Y-93247395D02*
G01*
X115073278Y-93283966D01*
X114964867Y-93308778D01*
X114861818Y-93301595D01*
X114831517Y-93255416D01*
X114867462Y-93235283D01*
X115026250Y-93247395D01*
G37*
G36*
X107921147Y-77834116D02*
G01*
X107956496Y-77933685D01*
X107948236Y-77970985D01*
X108020550Y-78024464D01*
X108256815Y-78005342D01*
X108515915Y-77992810D01*
X108606400Y-78063506D01*
X108552938Y-78115687D01*
X108308685Y-78157993D01*
X107869800Y-78166379D01*
X107619642Y-78160311D01*
X107383300Y-78144104D01*
X107327379Y-78117226D01*
X107438000Y-78076800D01*
X107469886Y-78068406D01*
X107616345Y-78015343D01*
X107598867Y-77987220D01*
X107546230Y-77978321D01*
X107510931Y-77925654D01*
X107610176Y-77860929D01*
X107800151Y-77820446D01*
X107921147Y-77834116D01*
G37*
G36*
X117749561Y-86207626D02*
G01*
X117728199Y-86463050D01*
X117660158Y-86589802D01*
X117521800Y-86644591D01*
X117202392Y-86668646D01*
X116810084Y-86600583D01*
X116512467Y-86441846D01*
X116457577Y-86390139D01*
X116346266Y-86228577D01*
X116383985Y-86067112D01*
X116573368Y-85849200D01*
X117445600Y-85849200D01*
X117496400Y-85900000D01*
X117547200Y-85849200D01*
X117496400Y-85798400D01*
X117445600Y-85849200D01*
X116573368Y-85849200D01*
X116577382Y-85844581D01*
X116676309Y-85756156D01*
X116931043Y-85630084D01*
X117288582Y-85595200D01*
X117750400Y-85595200D01*
X117750400Y-86096133D01*
X117749561Y-86207626D01*
G37*
G36*
X98673816Y-84202542D02*
G01*
X98723808Y-84215827D01*
X98693957Y-84238774D01*
X98497200Y-84248778D01*
X98389569Y-84247465D01*
X98243666Y-84232055D01*
X98267416Y-84204592D01*
X98409084Y-84186184D01*
X98673816Y-84202542D01*
G37*
G36*
X98363182Y-84495713D02*
G01*
X98446400Y-84591049D01*
X98444967Y-84609653D01*
X98346093Y-84677486D01*
X98099694Y-84619353D01*
X98023516Y-84575189D01*
X97989885Y-84476492D01*
X98025640Y-84447716D01*
X98186461Y-84438784D01*
X98363182Y-84495713D01*
G37*
G36*
X100275200Y-85849200D02*
G01*
X100224400Y-85900000D01*
X100173600Y-85849200D01*
X100224400Y-85798400D01*
X100275200Y-85849200D01*
G37*
G36*
X94572000Y-84045184D02*
G01*
X94582491Y-84277617D01*
X94530661Y-84533770D01*
X94425943Y-84724342D01*
X94302969Y-84815842D01*
X94095743Y-84882502D01*
X94073805Y-84881733D01*
X94031393Y-84845393D01*
X94179200Y-84751340D01*
X94264267Y-84701418D01*
X94397830Y-84535156D01*
X94433200Y-84254417D01*
X94434361Y-84191285D01*
X94460227Y-83991170D01*
X94509400Y-83934375D01*
X94572000Y-84045184D01*
G37*
G36*
X104034400Y-91234000D02*
G01*
X103983600Y-91284800D01*
X103932800Y-91234000D01*
X103983600Y-91183200D01*
X104034400Y-91234000D01*
G37*
G36*
X95703200Y-83207600D02*
G01*
X95652400Y-83258400D01*
X95601600Y-83207600D01*
X95652400Y-83156800D01*
X95703200Y-83207600D01*
G37*
G36*
X117420200Y-79022764D02*
G01*
X117449027Y-79032262D01*
X117427243Y-79058635D01*
X117242400Y-79069228D01*
X117173467Y-79068245D01*
X117032980Y-79052213D01*
X117064600Y-79022764D01*
X117162520Y-79006963D01*
X117420200Y-79022764D01*
G37*
G36*
X113076800Y-77822800D02*
G01*
X113026000Y-77873600D01*
X112975200Y-77822800D01*
X113026000Y-77772000D01*
X113076800Y-77822800D01*
G37*
G36*
X97043050Y-88472195D02*
G01*
X97090078Y-88508766D01*
X96981667Y-88533578D01*
X96878618Y-88526395D01*
X96848317Y-88480216D01*
X96884262Y-88460083D01*
X97043050Y-88472195D01*
G37*
G36*
X98844779Y-84519933D02*
G01*
X98837596Y-84622982D01*
X98791417Y-84653283D01*
X98771284Y-84617338D01*
X98783396Y-84458550D01*
X98819967Y-84411522D01*
X98844779Y-84519933D01*
G37*
G36*
X111840281Y-77813925D02*
G01*
X112084688Y-77839081D01*
X112152922Y-77906637D01*
X112065725Y-78031235D01*
X112055142Y-78041118D01*
X111868863Y-78122110D01*
X111634782Y-78133307D01*
X111434495Y-78081357D01*
X111349600Y-77972906D01*
X111362296Y-77908972D01*
X111480219Y-77832639D01*
X111756000Y-77812591D01*
X111840281Y-77813925D01*
G37*
G36*
X99259200Y-87271600D02*
G01*
X99208400Y-87322400D01*
X99157600Y-87271600D01*
X99208400Y-87220800D01*
X99259200Y-87271600D01*
G37*
G36*
X116328000Y-83207600D02*
G01*
X116277200Y-83258400D01*
X116226400Y-83207600D01*
X116277200Y-83156800D01*
X116328000Y-83207600D01*
G37*
G36*
X115266524Y-78146726D02*
G01*
X114174920Y-78158131D01*
X113815208Y-78156505D01*
X113422396Y-78140207D01*
X113143559Y-78111055D01*
X113023262Y-78072368D01*
X113014331Y-78023272D01*
X113118416Y-77975200D01*
X113201493Y-77951970D01*
X113204826Y-77913302D01*
X113397563Y-77913302D01*
X113421817Y-78049283D01*
X113456500Y-78047710D01*
X113475179Y-77915933D01*
X113459674Y-77820757D01*
X113708108Y-77820757D01*
X113717706Y-77915933D01*
X113720267Y-77941333D01*
X113750827Y-77957228D01*
X113788000Y-77873600D01*
X113780797Y-77820757D01*
X114216108Y-77820757D01*
X114221437Y-77873600D01*
X114228267Y-77941333D01*
X114258827Y-77957228D01*
X114296000Y-77873600D01*
X114288797Y-77820757D01*
X114724108Y-77820757D01*
X114729437Y-77873600D01*
X114736267Y-77941333D01*
X114766827Y-77957228D01*
X114804000Y-77873600D01*
X114796668Y-77819813D01*
X114736267Y-77805866D01*
X114724108Y-77820757D01*
X114288797Y-77820757D01*
X114288668Y-77819813D01*
X114228267Y-77805866D01*
X114216108Y-77820757D01*
X113780797Y-77820757D01*
X113780668Y-77819813D01*
X113720267Y-77805866D01*
X113708108Y-77820757D01*
X113459674Y-77820757D01*
X113458910Y-77816065D01*
X113413796Y-77854550D01*
X113397563Y-77913302D01*
X113204826Y-77913302D01*
X113213089Y-77817449D01*
X113212966Y-77817129D01*
X113209699Y-77720488D01*
X113326244Y-77680461D01*
X113603285Y-77683030D01*
X113722340Y-77686648D01*
X114002495Y-77674215D01*
X114167988Y-77635924D01*
X114219282Y-77616819D01*
X114348825Y-77673676D01*
X114390253Y-77713138D01*
X114533646Y-77698646D01*
X114691101Y-77643029D01*
X114946765Y-77617513D01*
X115059754Y-77623124D01*
X115210059Y-77691685D01*
X115252021Y-77873600D01*
X115254227Y-77883163D01*
X115266524Y-78146726D01*
G37*
G36*
X94955827Y-83206762D02*
G01*
X95002128Y-83385400D01*
X95007838Y-83489905D01*
X95027560Y-83545562D01*
X95078328Y-83409225D01*
X95122705Y-83314028D01*
X95278043Y-83208534D01*
X95457667Y-83283800D01*
X95471613Y-83325414D01*
X95364534Y-83360000D01*
X95318320Y-83366247D01*
X95254806Y-83426512D01*
X95217403Y-83580807D01*
X95199679Y-83865482D01*
X95195200Y-84316890D01*
X95193571Y-84539410D01*
X95181620Y-84949618D01*
X95160598Y-85266244D01*
X95133530Y-85434490D01*
X95105173Y-85504115D01*
X95048684Y-85585652D01*
X95035251Y-85472825D01*
X95064303Y-85163400D01*
X95080449Y-85026976D01*
X95091160Y-84845073D01*
X95054222Y-84823776D01*
X94956267Y-84934800D01*
X94854039Y-85095316D01*
X94792032Y-85281933D01*
X94782095Y-85342196D01*
X94719931Y-85356996D01*
X94709524Y-85321205D01*
X94753070Y-85145535D01*
X94872503Y-84894123D01*
X94915729Y-84816477D01*
X95016323Y-84612111D01*
X95016373Y-84525765D01*
X94921444Y-84514260D01*
X94890864Y-84514809D01*
X94776101Y-84437395D01*
X94729960Y-84198200D01*
X94728737Y-84172039D01*
X94744823Y-83956455D01*
X94800689Y-83868000D01*
X94851762Y-83903314D01*
X94890400Y-84065203D01*
X94907053Y-84182010D01*
X94994812Y-84326937D01*
X95000284Y-84330002D01*
X95052202Y-84284848D01*
X95046826Y-84100019D01*
X94990576Y-83825433D01*
X94889872Y-83511008D01*
X94875594Y-83473325D01*
X94803239Y-83260544D01*
X94808147Y-83173502D01*
X94890400Y-83156800D01*
X94955827Y-83206762D01*
G37*
G36*
X116413558Y-89049600D02*
G01*
X116399396Y-89189363D01*
X116362313Y-89176600D01*
X116348894Y-89130610D01*
X116362313Y-88922600D01*
X116397592Y-88905365D01*
X116413558Y-89049600D01*
G37*
G36*
X95347600Y-88161949D02*
G01*
X94992000Y-88236800D01*
X94695307Y-88297803D01*
X94542881Y-88319454D01*
X94503843Y-88299120D01*
X94534800Y-88236800D01*
X94547799Y-88222265D01*
X94711021Y-88164889D01*
X94972597Y-88148574D01*
X95347600Y-88161949D01*
G37*
G36*
X98682624Y-84855057D02*
G01*
X98816026Y-84914958D01*
X98820562Y-84920444D01*
X98766660Y-84966640D01*
X98570930Y-84985600D01*
X98568748Y-84985597D01*
X98330067Y-84957842D01*
X98197242Y-84891834D01*
X98194304Y-84865998D01*
X98293427Y-84827649D01*
X98482312Y-84824978D01*
X98682624Y-84855057D01*
G37*
G36*
X100834782Y-88366534D02*
G01*
X100884800Y-88538411D01*
X100859796Y-88659087D01*
X100738816Y-88682403D01*
X100675785Y-88637977D01*
X100648086Y-88482391D01*
X100727995Y-88362250D01*
X100834782Y-88366534D01*
G37*
G36*
X97741800Y-81853981D02*
G01*
X97876482Y-81919609D01*
X97880266Y-81929919D01*
X97800544Y-81979532D01*
X97587769Y-81995809D01*
X97547282Y-81994371D01*
X97349752Y-81964763D01*
X97294088Y-81912200D01*
X97338646Y-81876657D01*
X97524914Y-81839185D01*
X97741800Y-81853981D01*
G37*
G36*
X103729600Y-89354400D02*
G01*
X103773660Y-89441078D01*
X103829645Y-89684600D01*
X103814993Y-89778627D01*
X103729600Y-89862400D01*
X103721887Y-89861449D01*
X103655822Y-89756918D01*
X103629556Y-89532200D01*
X103633064Y-89409036D01*
X103662139Y-89295013D01*
X103729600Y-89354400D01*
G37*
G36*
X118055200Y-78940400D02*
G01*
X118004400Y-78991200D01*
X117953600Y-78940400D01*
X118004400Y-78889600D01*
X118055200Y-78940400D01*
G37*
G36*
X117681606Y-85166448D02*
G01*
X117463974Y-85240556D01*
X117139912Y-85247255D01*
X116809085Y-85188469D01*
X116563670Y-85071986D01*
X116507427Y-85005538D01*
X116490354Y-84934800D01*
X117445600Y-84934800D01*
X117496400Y-84985600D01*
X117547200Y-84934800D01*
X117496400Y-84884000D01*
X117445600Y-84934800D01*
X116490354Y-84934800D01*
X116454117Y-84784658D01*
X116507813Y-84557159D01*
X116632842Y-84440426D01*
X117463572Y-84440426D01*
X117547200Y-84477600D01*
X117600987Y-84470267D01*
X117614934Y-84409866D01*
X117600043Y-84397707D01*
X117479467Y-84409866D01*
X117463572Y-84440426D01*
X116632842Y-84440426D01*
X116654976Y-84419761D01*
X116752783Y-84372707D01*
X116836000Y-84261986D01*
X116860953Y-84231057D01*
X117032694Y-84193243D01*
X117318600Y-84192633D01*
X117801200Y-84223600D01*
X117816387Y-84409866D01*
X117834006Y-84625947D01*
X117839518Y-84715201D01*
X117816390Y-84934800D01*
X117809979Y-84995678D01*
X117681606Y-85166448D01*
G37*
G36*
X100275200Y-83055200D02*
G01*
X100267868Y-83108986D01*
X100207467Y-83122933D01*
X100195308Y-83108042D01*
X100207467Y-82987466D01*
X100238027Y-82971571D01*
X100275200Y-83055200D01*
G37*
G36*
X98649600Y-86154000D02*
G01*
X98598800Y-86204800D01*
X98548000Y-86154000D01*
X98598800Y-86103200D01*
X98649600Y-86154000D01*
G37*
G36*
X117806173Y-82367844D02*
G01*
X117805335Y-82368429D01*
X117542526Y-82455657D01*
X117222802Y-82435589D01*
X116910949Y-82330103D01*
X116671756Y-82161078D01*
X116570010Y-81950393D01*
X116592975Y-81877190D01*
X117512064Y-81877190D01*
X117517762Y-82039200D01*
X117556481Y-82158627D01*
X117609850Y-82242400D01*
X117632412Y-82204586D01*
X117648800Y-82039200D01*
X117631560Y-81921179D01*
X117556712Y-81836000D01*
X117512064Y-81877190D01*
X116592975Y-81877190D01*
X116628345Y-81764444D01*
X116751210Y-81632800D01*
X117496400Y-81632800D01*
X117517224Y-81663538D01*
X117598000Y-81734400D01*
X117612696Y-81729618D01*
X117699600Y-81632800D01*
X117707738Y-81578988D01*
X117598000Y-81531200D01*
X117520527Y-81546724D01*
X117496400Y-81632800D01*
X116751210Y-81632800D01*
X116820437Y-81558626D01*
X117077673Y-81413027D01*
X117328346Y-81381446D01*
X117466879Y-81401462D01*
X117732770Y-81421826D01*
X117774134Y-81423872D01*
X117900403Y-81462000D01*
X117943411Y-81578988D01*
X117947123Y-81589086D01*
X117940942Y-81861400D01*
X117931198Y-81966017D01*
X117916449Y-82039200D01*
X117878500Y-82227493D01*
X117806173Y-82367844D01*
G37*
G36*
X100173600Y-80312000D02*
G01*
X100222882Y-80398134D01*
X100273645Y-80540600D01*
X100271173Y-80558459D01*
X100173600Y-80616800D01*
X100110587Y-80566581D01*
X100073556Y-80388200D01*
X100074686Y-80333119D01*
X100099489Y-80232209D01*
X100173600Y-80312000D01*
G37*
G36*
X115334759Y-92377000D02*
G01*
X115324198Y-92540241D01*
X115294751Y-92855916D01*
X115250501Y-93027887D01*
X115174795Y-93099375D01*
X115050984Y-93113600D01*
X114959418Y-93108925D01*
X114877238Y-93066734D01*
X114833739Y-92945510D01*
X114816896Y-92703869D01*
X114815496Y-92448545D01*
X115019832Y-92448545D01*
X115027005Y-92719291D01*
X115051719Y-92782121D01*
X115093423Y-92687924D01*
X115142488Y-92415939D01*
X115173957Y-92138853D01*
X115180458Y-91908468D01*
X115158516Y-91814520D01*
X115114740Y-91879202D01*
X115055742Y-92124709D01*
X115054500Y-92131404D01*
X115019832Y-92448545D01*
X114815496Y-92448545D01*
X114814684Y-92300429D01*
X114816471Y-91487258D01*
X115089636Y-91552722D01*
X115278960Y-91600542D01*
X115371625Y-91629292D01*
X115372109Y-91631640D01*
X115369123Y-91752322D01*
X115361306Y-91908468D01*
X115355828Y-92017901D01*
X115334759Y-92377000D01*
G37*
G36*
X94585600Y-83004400D02*
G01*
X94534800Y-83055200D01*
X94484000Y-83004400D01*
X94534800Y-82953600D01*
X94585600Y-83004400D01*
G37*
G36*
X98534909Y-83059847D02*
G01*
X98448438Y-83205144D01*
X98318739Y-83339676D01*
X98280529Y-83328867D01*
X98365493Y-83161420D01*
X98454219Y-83045370D01*
X98533233Y-83006565D01*
X98534909Y-83059847D01*
G37*
G36*
X101208860Y-88451086D02*
G01*
X101291200Y-88538411D01*
X101269626Y-88580453D01*
X101138800Y-88578341D01*
X101065847Y-88545442D01*
X100986400Y-88479929D01*
X101003245Y-88461737D01*
X101138800Y-88440000D01*
X101208860Y-88451086D01*
G37*
G36*
X112162400Y-92859600D02*
G01*
X112111600Y-92910400D01*
X112060800Y-92859600D01*
X112111600Y-92808800D01*
X112162400Y-92859600D01*
G37*
G36*
X116915895Y-88816934D02*
G01*
X117017035Y-88932303D01*
X117017744Y-89008782D01*
X116893135Y-89033903D01*
X116807737Y-89001856D01*
X116729034Y-88897200D01*
X116787269Y-88807272D01*
X116915895Y-88816934D01*
G37*
G36*
X97024000Y-81378800D02*
G01*
X96973200Y-81429600D01*
X96922400Y-81378800D01*
X96973200Y-81328000D01*
X97024000Y-81378800D01*
G37*
G36*
X112721243Y-78093690D02*
G01*
X112584744Y-78132779D01*
X112399037Y-78112882D01*
X112289400Y-78046721D01*
X112268438Y-77971714D01*
X112280937Y-77924400D01*
X112568800Y-77924400D01*
X112619600Y-77975200D01*
X112670400Y-77924400D01*
X112619600Y-77873600D01*
X112568800Y-77924400D01*
X112280937Y-77924400D01*
X112308739Y-77819161D01*
X112518000Y-77772000D01*
X112677287Y-77808865D01*
X112769677Y-77924400D01*
X112779071Y-77936148D01*
X112721243Y-78093690D01*
G37*
G36*
X106801816Y-77903342D02*
G01*
X106851808Y-77916627D01*
X106821957Y-77939574D01*
X106625200Y-77949578D01*
X106517569Y-77948265D01*
X106371666Y-77932855D01*
X106395416Y-77905392D01*
X106537084Y-77886984D01*
X106801816Y-77903342D01*
G37*
G36*
X94253467Y-85321592D02*
G01*
X94270936Y-85326619D01*
X94285977Y-85357542D01*
X94128400Y-85372193D01*
X94104340Y-85372332D01*
X93945289Y-85358710D01*
X93948667Y-85325356D01*
X94032151Y-85306718D01*
X94253467Y-85321592D01*
G37*
G36*
X117393804Y-88495258D02*
G01*
X117588149Y-88661072D01*
X117648800Y-88968320D01*
X117641149Y-89117921D01*
X117583756Y-89208895D01*
X117425529Y-89239256D01*
X117115400Y-89234486D01*
X116582000Y-89216173D01*
X117064600Y-89178119D01*
X117348690Y-89142352D01*
X117505248Y-89074196D01*
X117547200Y-88954873D01*
X117524226Y-88818733D01*
X117346397Y-88623153D01*
X116988400Y-88515013D01*
X116942104Y-88508204D01*
X116788140Y-88481474D01*
X116819188Y-88467036D01*
X117044280Y-88455222D01*
X117047175Y-88455103D01*
X117393804Y-88495258D01*
G37*
G36*
X95703200Y-88287600D02*
G01*
X95652400Y-88338400D01*
X95601600Y-88287600D01*
X95652400Y-88236800D01*
X95703200Y-88287600D01*
G37*
G36*
X94585600Y-79651600D02*
G01*
X94534800Y-79702400D01*
X94484000Y-79651600D01*
X94534800Y-79600800D01*
X94585600Y-79651600D01*
G37*
G36*
X101178753Y-83083865D02*
G01*
X101009901Y-83109583D01*
X100915581Y-83082997D01*
X100673291Y-83055200D01*
X100599247Y-83046995D01*
X100503749Y-82952441D01*
X100498549Y-82902800D01*
X100986400Y-82902800D01*
X101037200Y-82953600D01*
X101088000Y-82902800D01*
X101037200Y-82852000D01*
X100986400Y-82902800D01*
X100498549Y-82902800D01*
X100478400Y-82710470D01*
X100478464Y-82696664D01*
X100529503Y-82423957D01*
X100546873Y-82409555D01*
X101051834Y-82409555D01*
X101058525Y-82547059D01*
X101107702Y-82690963D01*
X101165335Y-82740188D01*
X101189600Y-82603996D01*
X101182093Y-82541627D01*
X101097476Y-82400655D01*
X101051834Y-82409555D01*
X100546873Y-82409555D01*
X100699866Y-82282704D01*
X101025190Y-82242400D01*
X101264512Y-82289213D01*
X101446223Y-82457668D01*
X101461856Y-82603996D01*
X101472378Y-82702485D01*
X101362416Y-82902800D01*
X101323011Y-82974583D01*
X101178753Y-83083865D01*
G37*
G36*
X96946616Y-80748142D02*
G01*
X96996608Y-80761427D01*
X96966757Y-80784374D01*
X96770000Y-80794378D01*
X96662369Y-80793065D01*
X96516466Y-80777655D01*
X96540216Y-80750192D01*
X96681884Y-80731784D01*
X96946616Y-80748142D01*
G37*
G36*
X103012926Y-88631308D02*
G01*
X103142737Y-88670893D01*
X103399400Y-88688891D01*
X103542553Y-88697110D01*
X103628000Y-88758672D01*
X103620061Y-88796599D01*
X103540233Y-88837693D01*
X103341897Y-88831693D01*
X102985170Y-88779917D01*
X102900265Y-88764235D01*
X102716760Y-88702451D01*
X102725696Y-88635724D01*
X102806401Y-88606840D01*
X103012926Y-88631308D01*
G37*
G36*
X95708172Y-84281487D02*
G01*
X95855600Y-84376000D01*
X95828965Y-84445999D01*
X95652400Y-84477600D01*
X95485641Y-84450901D01*
X95449200Y-84376000D01*
X95481978Y-84338813D01*
X95652400Y-84274400D01*
X95708172Y-84281487D01*
G37*
G36*
X100925283Y-87033878D02*
G01*
X101166025Y-87082114D01*
X101207514Y-87094435D01*
X101346856Y-87198126D01*
X101352180Y-87410926D01*
X101321814Y-87612081D01*
X101299555Y-87805000D01*
X101228161Y-87889245D01*
X101031204Y-87932000D01*
X100869971Y-87905738D01*
X100834000Y-87830400D01*
X100870218Y-87790720D01*
X101043197Y-87728800D01*
X101138110Y-87677006D01*
X101189600Y-87477704D01*
X101184689Y-87399673D01*
X101097192Y-87236844D01*
X100859400Y-87131268D01*
X100773131Y-87103173D01*
X100689732Y-87050676D01*
X100753484Y-87025489D01*
X100925283Y-87033878D01*
G37*
G36*
X96238428Y-88477796D02*
G01*
X96322932Y-88703069D01*
X96339288Y-88980256D01*
X96274296Y-89222070D01*
X96219720Y-89309716D01*
X96159793Y-89320934D01*
X96099602Y-89151200D01*
X96049090Y-88938913D01*
X96016308Y-88632529D01*
X96050798Y-88439219D01*
X96149871Y-88399218D01*
X96238428Y-88477796D01*
G37*
G36*
X117740092Y-87726737D02*
G01*
X117726457Y-87929175D01*
X117648137Y-88020889D01*
X117476271Y-88060605D01*
X117256584Y-88081137D01*
X116831515Y-88041516D01*
X116522133Y-87894869D01*
X116363720Y-87654086D01*
X116360114Y-87426627D01*
X116463797Y-87271600D01*
X117344000Y-87271600D01*
X117394800Y-87322400D01*
X117445600Y-87271600D01*
X117394800Y-87220800D01*
X117344000Y-87271600D01*
X116463797Y-87271600D01*
X116510299Y-87202070D01*
X116810150Y-87066582D01*
X117234260Y-87038138D01*
X117699600Y-87068400D01*
X117712711Y-87271600D01*
X117730271Y-87543742D01*
X117740092Y-87726737D01*
G37*
G36*
X93682790Y-84758400D02*
G01*
X93721987Y-84944910D01*
X93706048Y-85216621D01*
X93703405Y-85232788D01*
X93647934Y-85504545D01*
X93605779Y-85574957D01*
X93578986Y-85445508D01*
X93569600Y-85117680D01*
X93572788Y-84970908D01*
X93604546Y-84758792D01*
X93668542Y-84739101D01*
X93682790Y-84758400D01*
G37*
G36*
X100226324Y-83916263D02*
G01*
X100236544Y-84126304D01*
X100239581Y-84528400D01*
X100237185Y-84854815D01*
X100226890Y-85095325D01*
X100208131Y-85137951D01*
X100180533Y-84985600D01*
X100179288Y-84975993D01*
X100138335Y-84724073D01*
X100100258Y-84656925D01*
X100055455Y-84757000D01*
X99996867Y-84884173D01*
X99853604Y-84965308D01*
X99573512Y-84985600D01*
X99473962Y-84982639D01*
X99247871Y-84947020D01*
X99157600Y-84884000D01*
X99167964Y-84861225D01*
X99309512Y-84804933D01*
X99564000Y-84782400D01*
X99596802Y-84782321D01*
X99842390Y-84764987D01*
X99947906Y-84692786D01*
X99970400Y-84530335D01*
X99926761Y-84339646D01*
X99741800Y-84229491D01*
X99583314Y-84195736D01*
X99310000Y-84137741D01*
X99269186Y-84120488D01*
X99353731Y-84097065D01*
X99589400Y-84082985D01*
X99714398Y-84080928D01*
X99949543Y-84096287D01*
X100055760Y-84161374D01*
X100087260Y-84299800D01*
X100097550Y-84351489D01*
X100129351Y-84290368D01*
X100171051Y-84071200D01*
X100177703Y-84028064D01*
X100207264Y-83887206D01*
X100226324Y-83916263D01*
G37*
G36*
X117015232Y-89714277D02*
G01*
X116989529Y-89860573D01*
X116915035Y-89917111D01*
X116760334Y-89841933D01*
X116712868Y-89801475D01*
X116658238Y-89717638D01*
X116777331Y-89675618D01*
X116875327Y-89664162D01*
X117015232Y-89714277D01*
G37*
G36*
X100275200Y-82801200D02*
G01*
X100224400Y-82852000D01*
X100173600Y-82801200D01*
X100224400Y-82750400D01*
X100275200Y-82801200D01*
G37*
G36*
X94598865Y-80289298D02*
G01*
X94687200Y-80332401D01*
X94684154Y-80343014D01*
X94566710Y-80393191D01*
X94331600Y-80413600D01*
X94285377Y-80413263D01*
X94065457Y-80400163D01*
X93976000Y-80373915D01*
X93979148Y-80368276D01*
X94096767Y-80330079D01*
X94331600Y-80292717D01*
X94381336Y-80287707D01*
X94598865Y-80289298D01*
G37*
G36*
X99462400Y-87271600D02*
G01*
X99411600Y-87322400D01*
X99360800Y-87271600D01*
X99411600Y-87220800D01*
X99462400Y-87271600D01*
G37*
G36*
X95398400Y-78270488D02*
G01*
X95356501Y-78315189D01*
X95193690Y-78309043D01*
X95183683Y-78306474D01*
X95044302Y-78302818D01*
X95052161Y-78420155D01*
X95068406Y-78480094D01*
X95014495Y-78562883D01*
X94799671Y-78584800D01*
X94626236Y-78574005D01*
X94499293Y-78516097D01*
X94564705Y-78420283D01*
X94821414Y-78300410D01*
X95113004Y-78208692D01*
X95329526Y-78188178D01*
X95398400Y-78270488D01*
G37*
G36*
X100038134Y-86645066D02*
G01*
X100054029Y-86675626D01*
X99970400Y-86712800D01*
X99916614Y-86705467D01*
X99902667Y-86645066D01*
X99917558Y-86632907D01*
X100038134Y-86645066D01*
G37*
G36*
X95834540Y-83530210D02*
G01*
X96056048Y-83568048D01*
X96202734Y-83628593D01*
X96204239Y-83635148D01*
X96101977Y-83656278D01*
X95872534Y-83664800D01*
X95811226Y-83663449D01*
X95589615Y-83630007D01*
X95500000Y-83565740D01*
X95504899Y-83552872D01*
X95622670Y-83522633D01*
X95834540Y-83530210D01*
G37*
G36*
X94097343Y-85605672D02*
G01*
X94179200Y-85696800D01*
X94138330Y-85756947D01*
X93970004Y-85798400D01*
X93854709Y-85776768D01*
X93823600Y-85696800D01*
X93859818Y-85657120D01*
X94032797Y-85595200D01*
X94097343Y-85605672D01*
G37*
G36*
X99834699Y-79474433D02*
G01*
X99867517Y-79522817D01*
X99994776Y-79534934D01*
X100043514Y-79514836D01*
X100029878Y-79586759D01*
X99951068Y-79652054D01*
X99827543Y-79618805D01*
X99775222Y-79467803D01*
X99787655Y-79406798D01*
X99834699Y-79474433D01*
G37*
G36*
X94093151Y-86735704D02*
G01*
X94179200Y-86814400D01*
X94176057Y-86848424D01*
X94084649Y-86908939D01*
X93874400Y-86814400D01*
X93838643Y-86790159D01*
X93802143Y-86730397D01*
X93950600Y-86714355D01*
X94093151Y-86735704D01*
G37*
G36*
X99885541Y-82756495D02*
G01*
X99970400Y-82813044D01*
X99970293Y-82814070D01*
X99876381Y-82840893D01*
X99659604Y-82852000D01*
X99641714Y-82851853D01*
X99451249Y-82824446D01*
X99403179Y-82764025D01*
X99502104Y-82726330D01*
X99696616Y-82724753D01*
X99885541Y-82756495D01*
G37*
G36*
X96512368Y-78179180D02*
G01*
X96731551Y-78212574D01*
X96820800Y-78280000D01*
X96787572Y-78336910D01*
X96628471Y-78381600D01*
X96516214Y-78405500D01*
X96377659Y-78534000D01*
X96311040Y-78608275D01*
X96146842Y-78677342D01*
X95981661Y-78690327D01*
X95906400Y-78628920D01*
X95956423Y-78440110D01*
X96159054Y-78250863D01*
X96468775Y-78178400D01*
X96512368Y-78179180D01*
G37*
G36*
X117953600Y-78584800D02*
G01*
X117946268Y-78638586D01*
X117885867Y-78652533D01*
X117873708Y-78637642D01*
X117885867Y-78517066D01*
X117916427Y-78501171D01*
X117953600Y-78584800D01*
G37*
G36*
X112873600Y-92961200D02*
G01*
X112822800Y-93012000D01*
X112772000Y-92961200D01*
X112822800Y-92910400D01*
X112873600Y-92961200D01*
G37*
G36*
X101182122Y-79298052D02*
G01*
X101397563Y-79331163D01*
X101443600Y-79397600D01*
X101320390Y-79467264D01*
X101088000Y-79499200D01*
X100870041Y-79471387D01*
X100732400Y-79397600D01*
X100726538Y-79374435D01*
X100827486Y-79317150D01*
X101088000Y-79296000D01*
X101182122Y-79298052D01*
G37*
G36*
X98032499Y-89874860D02*
G01*
X97922551Y-90096843D01*
X97668222Y-90202590D01*
X97252600Y-90201399D01*
X97011554Y-90186432D01*
X96860531Y-90219261D01*
X96820800Y-90320516D01*
X96805412Y-90397237D01*
X96719200Y-90421200D01*
X96655828Y-90356524D01*
X96629326Y-90140643D01*
X96744600Y-89857921D01*
X96762829Y-89827782D01*
X96804123Y-89710000D01*
X97024000Y-89710000D01*
X97030394Y-89766099D01*
X97112900Y-89905350D01*
X97172246Y-89877693D01*
X97201800Y-89710000D01*
X97178950Y-89557038D01*
X97112900Y-89514649D01*
X97079883Y-89545153D01*
X97024000Y-89710000D01*
X96804123Y-89710000D01*
X96818874Y-89667926D01*
X96731584Y-89565859D01*
X96639360Y-89474531D01*
X96674304Y-89364034D01*
X96864451Y-89283780D01*
X97182397Y-89252800D01*
X97256703Y-89251748D01*
X97537736Y-89214111D01*
X97636981Y-89125800D01*
X97643764Y-89083275D01*
X97705378Y-89077317D01*
X97806196Y-89191315D01*
X97915830Y-89376812D01*
X98003893Y-89585353D01*
X98028470Y-89710000D01*
X98040000Y-89768480D01*
X98032499Y-89874860D01*
G37*
G36*
X95601600Y-80362800D02*
G01*
X95550800Y-80413600D01*
X95500000Y-80362800D01*
X95550800Y-80312000D01*
X95601600Y-80362800D01*
G37*
G36*
X99497384Y-84398812D02*
G01*
X99621643Y-84493610D01*
X99595105Y-84615828D01*
X99554302Y-84654432D01*
X99478153Y-84673652D01*
X99318310Y-84619129D01*
X99185960Y-84533377D01*
X99183809Y-84425740D01*
X99354804Y-84376000D01*
X99497384Y-84398812D01*
G37*
G36*
X101049022Y-85830289D02*
G01*
X101247037Y-85905508D01*
X101362398Y-86088686D01*
X101380226Y-86359985D01*
X101270880Y-86590880D01*
X101194004Y-86651348D01*
X100957310Y-86707172D01*
X100600057Y-86647365D01*
X100475708Y-86598010D01*
X100396850Y-86472076D01*
X100396857Y-86216952D01*
X100435259Y-85974369D01*
X100537573Y-85859952D01*
X100764437Y-85816867D01*
X100772684Y-85816115D01*
X101049022Y-85830289D01*
G37*
G36*
X117878467Y-79294350D02*
G01*
X117953664Y-79372200D01*
X117946449Y-79400635D01*
X117794561Y-79474556D01*
X117445600Y-79499200D01*
X117253412Y-79493429D01*
X117006657Y-79453043D01*
X116956451Y-79390795D01*
X117102788Y-79326608D01*
X117445664Y-79280405D01*
X117638506Y-79271826D01*
X117878467Y-79294350D01*
G37*
G36*
X96153503Y-85739851D02*
G01*
X96162523Y-85751321D01*
X96319764Y-86075800D01*
X96363947Y-86447491D01*
X96304462Y-86807426D01*
X96150700Y-87096641D01*
X95912048Y-87256168D01*
X95834853Y-87276624D01*
X95697219Y-87310614D01*
X95622870Y-87288936D01*
X95453517Y-87185720D01*
X95347082Y-87093860D01*
X95379090Y-87036363D01*
X95586987Y-86984962D01*
X95597193Y-86982930D01*
X95836187Y-86940937D01*
X95971730Y-86927119D01*
X96087262Y-86859374D01*
X96170005Y-86649537D01*
X96204974Y-86357050D01*
X96185271Y-86042461D01*
X96103996Y-85766320D01*
X96047186Y-85646020D01*
X96044437Y-85609395D01*
X96153503Y-85739851D01*
G37*
G36*
X101942944Y-88537087D02*
G01*
X102095534Y-88606692D01*
X102097830Y-88609479D01*
X102023668Y-88633386D01*
X101816134Y-88643200D01*
X101798237Y-88643040D01*
X101583051Y-88610851D01*
X101494400Y-88539664D01*
X101555185Y-88499519D01*
X101733373Y-88498078D01*
X101942944Y-88537087D01*
G37*
G36*
X99893016Y-82068942D02*
G01*
X99943008Y-82082227D01*
X99913157Y-82105174D01*
X99716400Y-82115178D01*
X99608769Y-82113865D01*
X99462866Y-82098455D01*
X99486616Y-82070992D01*
X99628284Y-82052584D01*
X99893016Y-82068942D01*
G37*
G36*
X95386578Y-89913200D02*
G01*
X95131966Y-89951339D01*
X94943792Y-89943735D01*
X94712698Y-89960546D01*
X94609839Y-90036407D01*
X94587156Y-90192600D01*
X94607474Y-90403429D01*
X94711610Y-90589772D01*
X94716873Y-90599189D01*
X94952875Y-90698435D01*
X95351041Y-90726000D01*
X95681772Y-90712522D01*
X95904350Y-90657714D01*
X96020196Y-90548200D01*
X96159266Y-90417595D01*
X96361668Y-90368323D01*
X96540560Y-90415497D01*
X96617600Y-90557853D01*
X96675380Y-90734660D01*
X96838265Y-90938853D01*
X96850695Y-90949660D01*
X96976245Y-91041457D01*
X96988705Y-91011930D01*
X96972282Y-90972294D01*
X97031288Y-90938410D01*
X97249969Y-90986530D01*
X97333608Y-91009252D01*
X97799652Y-91081206D01*
X98154417Y-91036637D01*
X98368379Y-90878399D01*
X98495353Y-90753941D01*
X98775640Y-90675199D01*
X98801711Y-90674925D01*
X98999957Y-90627887D01*
X99056000Y-90477996D01*
X99071950Y-90361388D01*
X99155520Y-90219285D01*
X99196602Y-90150078D01*
X99144889Y-89997819D01*
X99480351Y-89997819D01*
X99489323Y-90102350D01*
X99632751Y-90159178D01*
X99721784Y-90144152D01*
X99691000Y-90099912D01*
X99643506Y-90073515D01*
X99564000Y-89949537D01*
X99571767Y-89916427D01*
X99665600Y-89913200D01*
X99705456Y-89928475D01*
X99767200Y-89859929D01*
X99758448Y-89811638D01*
X99758354Y-89811600D01*
X100173600Y-89811600D01*
X100224400Y-89862400D01*
X100275200Y-89811600D01*
X100224400Y-89760800D01*
X100173600Y-89811600D01*
X99758354Y-89811600D01*
X99673994Y-89777363D01*
X99557399Y-89850910D01*
X99480351Y-89997819D01*
X99144889Y-89997819D01*
X99132664Y-89961825D01*
X99109201Y-89921220D01*
X99077456Y-89731151D01*
X99226466Y-89608590D01*
X99227491Y-89608400D01*
X100072000Y-89608400D01*
X100122800Y-89659200D01*
X100173600Y-89608400D01*
X100122800Y-89557600D01*
X100072000Y-89608400D01*
X99227491Y-89608400D01*
X99564000Y-89546050D01*
X99587662Y-89543957D01*
X99863912Y-89494677D01*
X100049776Y-89420812D01*
X100165684Y-89393946D01*
X100313650Y-89502204D01*
X100366921Y-89608400D01*
X100427717Y-89729598D01*
X100440699Y-89811600D01*
X100475169Y-90029329D01*
X100457053Y-90213762D01*
X100343813Y-90388465D01*
X100099080Y-90470295D01*
X99691000Y-90477456D01*
X99562265Y-90472222D01*
X99356179Y-90485499D01*
X99273501Y-90564411D01*
X99257645Y-90743726D01*
X99255699Y-90825482D01*
X99228974Y-90942785D01*
X99161569Y-90881342D01*
X99102242Y-90810401D01*
X99010080Y-90788853D01*
X99018650Y-90880614D01*
X99131556Y-91048332D01*
X99132030Y-91048868D01*
X99224222Y-91115466D01*
X99336850Y-91196827D01*
X99635729Y-91323438D01*
X99960213Y-91410347D01*
X100241849Y-91439203D01*
X100249025Y-91437200D01*
X100884800Y-91437200D01*
X100935600Y-91488000D01*
X100986400Y-91437200D01*
X100935600Y-91386400D01*
X100884800Y-91437200D01*
X100249025Y-91437200D01*
X100412184Y-91391656D01*
X100486173Y-91340311D01*
X100701921Y-91284800D01*
X100801375Y-91260127D01*
X100884800Y-91132400D01*
X100962238Y-91018532D01*
X101215000Y-90980000D01*
X101347520Y-90977490D01*
X101484394Y-90938191D01*
X101536762Y-90806841D01*
X101545200Y-90527879D01*
X101548470Y-90415203D01*
X101596000Y-90415203D01*
X101597988Y-90466500D01*
X101645981Y-90569109D01*
X101744062Y-90479020D01*
X101757868Y-90442386D01*
X101699258Y-90320624D01*
X101645988Y-90310560D01*
X101596000Y-90415203D01*
X101548470Y-90415203D01*
X101548719Y-90406627D01*
X101566738Y-90268800D01*
X102053200Y-90268800D01*
X102063200Y-90322875D01*
X102182740Y-90430513D01*
X102231314Y-90436749D01*
X102208140Y-90405113D01*
X102180602Y-90387915D01*
X102104000Y-90254337D01*
X102111767Y-90221227D01*
X102205600Y-90218000D01*
X102245456Y-90233275D01*
X102307200Y-90164729D01*
X102294959Y-90119239D01*
X102180200Y-90091000D01*
X102133320Y-90116245D01*
X102053200Y-90268800D01*
X101566738Y-90268800D01*
X101584630Y-90131949D01*
X101646800Y-89975351D01*
X101718498Y-89925379D01*
X101979968Y-89845472D01*
X102287232Y-89825991D01*
X102533514Y-89878588D01*
X102536940Y-89880341D01*
X102660024Y-89916893D01*
X102649644Y-89813950D01*
X102628926Y-89725698D01*
X102680504Y-89662492D01*
X102807602Y-89719265D01*
X102961839Y-89885006D01*
X103078972Y-90096115D01*
X103088706Y-90164729D01*
X103122796Y-90405036D01*
X103102433Y-90442386D01*
X102993343Y-90642484D01*
X102707412Y-90785574D01*
X102281800Y-90811423D01*
X102068939Y-90796263D01*
X101882694Y-90807958D01*
X101808196Y-90884812D01*
X101791179Y-91053610D01*
X101790967Y-91060499D01*
X101769978Y-91216698D01*
X101731913Y-91208600D01*
X101665008Y-91107877D01*
X101566110Y-91102525D01*
X101537692Y-91254058D01*
X101562383Y-91328396D01*
X101669073Y-91437200D01*
X101747878Y-91517566D01*
X101995672Y-91640400D01*
X102067333Y-91675923D01*
X102470342Y-91782728D01*
X102906502Y-91817245D01*
X102999593Y-91815818D01*
X103264059Y-91822158D01*
X103353143Y-91852168D01*
X103288658Y-91911212D01*
X103244268Y-91930555D01*
X102991773Y-91971480D01*
X102679058Y-91959616D01*
X102474531Y-91932363D01*
X102083707Y-91880635D01*
X101601146Y-91817003D01*
X101088000Y-91749540D01*
X100992231Y-91736942D01*
X100414598Y-91660236D01*
X100266690Y-91640400D01*
X101494400Y-91640400D01*
X101545200Y-91691200D01*
X101596000Y-91640400D01*
X101545200Y-91589600D01*
X101494400Y-91640400D01*
X100266690Y-91640400D01*
X99728982Y-91568288D01*
X99013133Y-91471560D01*
X98344800Y-91380509D01*
X98108893Y-91348570D01*
X97509108Y-91270372D01*
X96948412Y-91201162D01*
X96480833Y-91147486D01*
X96466027Y-91146026D01*
X97245172Y-91146026D01*
X97328800Y-91183200D01*
X97382587Y-91175867D01*
X97396534Y-91115466D01*
X97381643Y-91103307D01*
X97261067Y-91115466D01*
X97245172Y-91146026D01*
X96466027Y-91146026D01*
X96160400Y-91115888D01*
X95823693Y-91082573D01*
X95317188Y-91019194D01*
X94839600Y-90947268D01*
X94128400Y-90827600D01*
X94079921Y-90418765D01*
X94397100Y-90418765D01*
X94461856Y-90592095D01*
X94464592Y-90594780D01*
X94520161Y-90589772D01*
X94501831Y-90403503D01*
X94483333Y-90319895D01*
X94440503Y-90218103D01*
X94403319Y-90304991D01*
X94397100Y-90418765D01*
X94079921Y-90418765D01*
X94029212Y-89991126D01*
X94228087Y-89991126D01*
X94283989Y-90065600D01*
X94329230Y-90048431D01*
X94382400Y-89913200D01*
X94377987Y-89843764D01*
X94342471Y-89760800D01*
X94316173Y-89779518D01*
X94244059Y-89913200D01*
X94228087Y-89991126D01*
X94029212Y-89991126D01*
X94007924Y-89811600D01*
X93991962Y-90446600D01*
X93991726Y-90456059D01*
X93989100Y-90799931D01*
X94013315Y-90989561D01*
X94079954Y-91072585D01*
X94204600Y-91096642D01*
X94339582Y-91105904D01*
X94589046Y-91126951D01*
X94861489Y-91157708D01*
X95246000Y-91207671D01*
X95418061Y-91230254D01*
X95792090Y-91278685D01*
X96307373Y-91345002D01*
X96930042Y-91424856D01*
X97626229Y-91513900D01*
X97821388Y-91538800D01*
X98362066Y-91607784D01*
X98957359Y-91686108D01*
X99612795Y-91778969D01*
X100159220Y-91864034D01*
X100573423Y-91937425D01*
X100832191Y-91995266D01*
X100912312Y-92033681D01*
X100929353Y-92059533D01*
X100943721Y-92081331D01*
X101120802Y-92060395D01*
X101142241Y-92055457D01*
X101377911Y-92031729D01*
X101672419Y-92036204D01*
X101973361Y-92062648D01*
X102228335Y-92104827D01*
X102309054Y-92131466D01*
X102384936Y-92156509D01*
X102390763Y-92211459D01*
X102389343Y-92242084D01*
X102537996Y-92252871D01*
X102815200Y-92231999D01*
X103030905Y-92196926D01*
X103375616Y-92100389D01*
X103613459Y-91982830D01*
X103652913Y-91953212D01*
X103764248Y-91901015D01*
X103856111Y-91901015D01*
X103882000Y-91996000D01*
X103902874Y-92026075D01*
X103995593Y-92097600D01*
X104009490Y-92090984D01*
X103997447Y-92046800D01*
X104644000Y-92046800D01*
X104694800Y-92097600D01*
X104745600Y-92046800D01*
X104694800Y-91996000D01*
X104644000Y-92046800D01*
X103997447Y-92046800D01*
X103983600Y-91996000D01*
X103962727Y-91965924D01*
X103870008Y-91894400D01*
X103856111Y-91901015D01*
X103764248Y-91901015D01*
X103860187Y-91856036D01*
X104056644Y-91906304D01*
X104223533Y-91961619D01*
X104502341Y-91969080D01*
X104678365Y-91970582D01*
X104830608Y-92046800D01*
X104858996Y-92061012D01*
X104932203Y-92127322D01*
X105120898Y-92199200D01*
X105132785Y-92199720D01*
X105307130Y-92269921D01*
X105442886Y-92378109D01*
X105480056Y-92407731D01*
X105522536Y-92479709D01*
X105558400Y-92540476D01*
X105530949Y-92574465D01*
X105528671Y-92575395D01*
X105380600Y-92635858D01*
X105347436Y-92648755D01*
X105429707Y-92654477D01*
X105660000Y-92638733D01*
X105807355Y-92628477D01*
X105988409Y-92638006D01*
X105982742Y-92688214D01*
X105973431Y-92712811D01*
X106080186Y-92764938D01*
X106305700Y-92816129D01*
X106594271Y-92858921D01*
X106890198Y-92885848D01*
X107137781Y-92889444D01*
X107281318Y-92862246D01*
X107309683Y-92850500D01*
X107403923Y-92909566D01*
X107514924Y-92964465D01*
X107773208Y-93010321D01*
X108122852Y-93037199D01*
X108128915Y-93037429D01*
X108471210Y-93062428D01*
X108715284Y-93102870D01*
X108808652Y-93150115D01*
X108812098Y-93161659D01*
X108930072Y-93201559D01*
X109163597Y-93196104D01*
X109207358Y-93191497D01*
X109436829Y-93186472D01*
X109544597Y-93217878D01*
X109602989Y-93240376D01*
X109833380Y-93289215D01*
X110206881Y-93353674D01*
X110689689Y-93428023D01*
X111248000Y-93506534D01*
X111574635Y-93550648D01*
X112194324Y-93635173D01*
X112771149Y-93714839D01*
X113192916Y-93774000D01*
X113252259Y-93782324D01*
X113584800Y-93830306D01*
X114596675Y-93977654D01*
X115458299Y-94096570D01*
X116159654Y-94185851D01*
X116690742Y-94244300D01*
X117041564Y-94270716D01*
X117202122Y-94263903D01*
X117334087Y-94162194D01*
X117307728Y-94066606D01*
X117138341Y-94058081D01*
X116982546Y-94068822D01*
X116719398Y-94041790D01*
X116425364Y-93984925D01*
X116158568Y-93912029D01*
X115977135Y-93836902D01*
X115939188Y-93773346D01*
X115948765Y-93768003D01*
X116093075Y-93775129D01*
X116334730Y-93834686D01*
X116557094Y-93882195D01*
X116878778Y-93918335D01*
X117209554Y-93933531D01*
X117479394Y-93924810D01*
X117618269Y-93889197D01*
X117620316Y-93886014D01*
X117594378Y-93770664D01*
X117498844Y-93560516D01*
X117495246Y-93553587D01*
X117412150Y-93367600D01*
X117648800Y-93367600D01*
X117699600Y-93418400D01*
X117750400Y-93367600D01*
X117699600Y-93316800D01*
X117648800Y-93367600D01*
X117412150Y-93367600D01*
X117388999Y-93315782D01*
X117348060Y-93164400D01*
X117648800Y-93164400D01*
X117699600Y-93215200D01*
X117750400Y-93164400D01*
X117699600Y-93113600D01*
X117648800Y-93164400D01*
X117348060Y-93164400D01*
X117344626Y-93151700D01*
X117302107Y-93085736D01*
X117102961Y-92997383D01*
X116788131Y-92934409D01*
X116410221Y-92910400D01*
X116109846Y-92887133D01*
X115871415Y-92774715D01*
X115751414Y-92536969D01*
X115723559Y-92201048D01*
X115921600Y-92201048D01*
X115939763Y-92454630D01*
X116028592Y-92579450D01*
X116239100Y-92643700D01*
X116518894Y-92686577D01*
X116804338Y-92707200D01*
X116938912Y-92695194D01*
X117022141Y-92608223D01*
X117020238Y-92384077D01*
X116999562Y-92241480D01*
X116930023Y-92107272D01*
X116766143Y-92021068D01*
X116455000Y-91941425D01*
X115921600Y-91821896D01*
X115921600Y-92201048D01*
X115723559Y-92201048D01*
X115718400Y-92138829D01*
X115709967Y-91907453D01*
X115676434Y-91693542D01*
X115625478Y-91635036D01*
X115592594Y-91647988D01*
X115496796Y-91585185D01*
X115435460Y-91538234D01*
X115218158Y-91475193D01*
X114905169Y-91431716D01*
X114675707Y-91408561D01*
X114267008Y-91362065D01*
X113721212Y-91296975D01*
X113071509Y-91217313D01*
X112351090Y-91127102D01*
X111593148Y-91030363D01*
X110856740Y-90937121D01*
X110160147Y-90852092D01*
X109542903Y-90779912D01*
X109035530Y-90724054D01*
X108668548Y-90687992D01*
X108472478Y-90675200D01*
X108400142Y-90676857D01*
X107840591Y-90794724D01*
X107344573Y-91075845D01*
X107245251Y-91153391D01*
X107183841Y-91168442D01*
X107223592Y-91030800D01*
X107254045Y-90911033D01*
X107199882Y-90929200D01*
X107138076Y-91016331D01*
X107045111Y-91234000D01*
X107017395Y-91315411D01*
X107018231Y-91260157D01*
X107046693Y-91088683D01*
X107095326Y-90845120D01*
X107156675Y-90573600D01*
X107181832Y-90512216D01*
X108837117Y-90512216D01*
X108838690Y-90546899D01*
X108970467Y-90565578D01*
X109070335Y-90549309D01*
X109031850Y-90504195D01*
X108973098Y-90487962D01*
X108837117Y-90512216D01*
X107181832Y-90512216D01*
X107268036Y-90301879D01*
X107450100Y-90187769D01*
X107580489Y-90193402D01*
X107888848Y-90219832D01*
X108349729Y-90264394D01*
X108938277Y-90324327D01*
X109629633Y-90396873D01*
X110398942Y-90479272D01*
X111042561Y-90549309D01*
X111221347Y-90568764D01*
X112071990Y-90662590D01*
X112926014Y-90757990D01*
X113758565Y-90852205D01*
X114544783Y-90942475D01*
X115259813Y-91026041D01*
X115878798Y-91100144D01*
X116376882Y-91162023D01*
X116729206Y-91208919D01*
X116910915Y-91238074D01*
X116990570Y-91262154D01*
X117237240Y-91458420D01*
X117409027Y-91829454D01*
X117510510Y-92384010D01*
X117541481Y-92608223D01*
X117551310Y-92679377D01*
X117606790Y-92919763D01*
X117660085Y-93012000D01*
X117695463Y-92984001D01*
X117679146Y-92842933D01*
X117656838Y-92742405D01*
X117733135Y-92747329D01*
X117787666Y-92768963D01*
X117852000Y-92713196D01*
X117855905Y-92683705D01*
X117953600Y-92605600D01*
X118013028Y-92644629D01*
X118055200Y-92810818D01*
X118061767Y-92868836D01*
X118145673Y-93114345D01*
X118172228Y-93164400D01*
X118280028Y-93367600D01*
X118295274Y-93396338D01*
X118369065Y-93526904D01*
X118487285Y-93804561D01*
X118567237Y-94078664D01*
X118600081Y-94302755D01*
X118576980Y-94430372D01*
X118489093Y-94415056D01*
X118397056Y-94362136D01*
X118419345Y-94470829D01*
X118428170Y-94485197D01*
X118471105Y-94555101D01*
X118624098Y-94637600D01*
X118773789Y-94595365D01*
X119005200Y-94425120D01*
X119195424Y-94190798D01*
X119274400Y-93964874D01*
X119274572Y-93946956D01*
X119294110Y-93863607D01*
X119376000Y-93863607D01*
X119385136Y-93932233D01*
X119477600Y-94078800D01*
X119528386Y-94089645D01*
X119579200Y-93989192D01*
X119570065Y-93920566D01*
X119477600Y-93774000D01*
X119426815Y-93763154D01*
X119376000Y-93863607D01*
X119294110Y-93863607D01*
X119326424Y-93725751D01*
X119449578Y-93683279D01*
X119613210Y-93831660D01*
X119699692Y-93947443D01*
X119782968Y-93982196D01*
X119875557Y-93858759D01*
X119930950Y-93775477D01*
X119958971Y-93787083D01*
X119929783Y-93977200D01*
X119927658Y-93989192D01*
X119914652Y-94062586D01*
X119911166Y-94184984D01*
X119970562Y-94128634D01*
X119971183Y-94127640D01*
X120005665Y-93977888D01*
X120041799Y-93660236D01*
X120076884Y-93209280D01*
X120108221Y-92659614D01*
X120133109Y-92045834D01*
X120184667Y-90497477D01*
X120274189Y-87939175D01*
X120364862Y-85516703D01*
X120458313Y-83187282D01*
X120556166Y-80908131D01*
X120574409Y-80491074D01*
X120613300Y-79542057D01*
X120640110Y-78772956D01*
X120655024Y-78167232D01*
X120658227Y-77708346D01*
X120649904Y-77379760D01*
X120630242Y-77164935D01*
X120599424Y-77047331D01*
X120482127Y-76806800D01*
X120697490Y-77054591D01*
X120747897Y-77103151D01*
X121009392Y-77272097D01*
X121380266Y-77450395D01*
X121793588Y-77611104D01*
X122182428Y-77727286D01*
X122479856Y-77771999D01*
X122631385Y-77801646D01*
X122843360Y-77939576D01*
X122891006Y-78017294D01*
X122997262Y-78271356D01*
X123115240Y-78622216D01*
X123228713Y-79012320D01*
X123321457Y-79384112D01*
X123377243Y-79680036D01*
X123379847Y-79842537D01*
X123282597Y-79942521D01*
X123050324Y-80128023D01*
X122717951Y-80372339D01*
X122320336Y-80648940D01*
X121894947Y-80939460D01*
X121608284Y-81147759D01*
X121433736Y-81303596D01*
X121343187Y-81437745D01*
X121308523Y-81580984D01*
X121301628Y-81764088D01*
X121301545Y-81770885D01*
X121295322Y-82014079D01*
X121281614Y-82418581D01*
X121261909Y-82944571D01*
X121237698Y-83552233D01*
X121210468Y-84201746D01*
X121207232Y-84277973D01*
X121183834Y-84901411D01*
X121168084Y-85459491D01*
X121160573Y-85917813D01*
X121161894Y-86241979D01*
X121172640Y-86397590D01*
X121222182Y-86487261D01*
X121353679Y-86555606D01*
X121605560Y-86601928D01*
X122019229Y-86637986D01*
X122104558Y-86644169D01*
X122485093Y-86680174D01*
X122777831Y-86721156D01*
X122925203Y-86759398D01*
X122945676Y-86799348D01*
X122974251Y-87006983D01*
X122992107Y-87394029D01*
X122999360Y-87966369D01*
X122996125Y-88729883D01*
X122982517Y-89690456D01*
X122931885Y-92554800D01*
X122636050Y-92918357D01*
X122547145Y-93016500D01*
X122268372Y-93241540D01*
X121860328Y-93480908D01*
X121289908Y-93755181D01*
X120911184Y-93933300D01*
X120568760Y-94110853D01*
X120340826Y-94248835D01*
X120263556Y-94327090D01*
X120250259Y-94367007D01*
X120108207Y-94443413D01*
X119873447Y-94500646D01*
X119620100Y-94523689D01*
X119422289Y-94497527D01*
X119344230Y-94478606D01*
X119317906Y-94524197D01*
X119324783Y-94538438D01*
X119265353Y-94617152D01*
X119045489Y-94662587D01*
X118700325Y-94673353D01*
X118264993Y-94648057D01*
X117774628Y-94585309D01*
X117274145Y-94516799D01*
X116960969Y-94504270D01*
X116828846Y-94547576D01*
X116733356Y-94615281D01*
X116708677Y-94632779D01*
X116451590Y-94757882D01*
X116114215Y-94894894D01*
X115769900Y-95006203D01*
X115434489Y-95081514D01*
X115210400Y-95094060D01*
X114836613Y-95030360D01*
X113952071Y-94879447D01*
X113241674Y-94757920D01*
X112686279Y-94662469D01*
X112266740Y-94589784D01*
X111963911Y-94536553D01*
X111758648Y-94499466D01*
X111631803Y-94475211D01*
X111355206Y-94419485D01*
X111377960Y-94394946D01*
X111657655Y-94394946D01*
X111736070Y-94395917D01*
X111760904Y-94387409D01*
X111945578Y-94387078D01*
X112218670Y-94427800D01*
X112444237Y-94469358D01*
X112836237Y-94534749D01*
X113320291Y-94611157D01*
X113838800Y-94689287D01*
X113842292Y-94689800D01*
X114322162Y-94766171D01*
X114729455Y-94841838D01*
X115021223Y-94908088D01*
X115154520Y-94956208D01*
X115270186Y-95021474D01*
X115437008Y-95037535D01*
X115522974Y-94967800D01*
X115531127Y-94907841D01*
X115564725Y-94714203D01*
X115570248Y-94615281D01*
X115515502Y-94485386D01*
X115450856Y-94466445D01*
X115210451Y-94417600D01*
X115132878Y-94403730D01*
X117174411Y-94403730D01*
X117314367Y-94434400D01*
X117519754Y-94443503D01*
X117813900Y-94472085D01*
X117831046Y-94474246D01*
X117985644Y-94485197D01*
X117977757Y-94464395D01*
X117928858Y-94436385D01*
X117906833Y-94326274D01*
X117907194Y-94284742D01*
X117789810Y-94300429D01*
X117675810Y-94323355D01*
X117698632Y-94232767D01*
X117732486Y-94150753D01*
X117639099Y-94187244D01*
X117567626Y-94226014D01*
X117360091Y-94296919D01*
X117208060Y-94341356D01*
X117174411Y-94403730D01*
X115132878Y-94403730D01*
X114828691Y-94349342D01*
X114341056Y-94267932D01*
X113783025Y-94179632D01*
X113464608Y-94131188D01*
X112908400Y-94052203D01*
X112510132Y-94006890D01*
X112241124Y-93993234D01*
X112072696Y-94009225D01*
X111976171Y-94052849D01*
X111943930Y-94078604D01*
X111862904Y-94126302D01*
X111908400Y-94028000D01*
X111935695Y-93980188D01*
X111945380Y-93928214D01*
X111826303Y-94015040D01*
X111728648Y-94129324D01*
X111660539Y-94283467D01*
X111657655Y-94394946D01*
X111377960Y-94394946D01*
X111606403Y-94148581D01*
X111711418Y-94031302D01*
X111835503Y-93846984D01*
X111816241Y-93774000D01*
X111959200Y-93774000D01*
X112010000Y-93824800D01*
X112060800Y-93774000D01*
X112010000Y-93723200D01*
X111959200Y-93774000D01*
X111816241Y-93774000D01*
X111807439Y-93740648D01*
X111629000Y-93675136D01*
X111481811Y-93650150D01*
X111155431Y-93600644D01*
X110674381Y-93530129D01*
X110062207Y-93441888D01*
X109342454Y-93339207D01*
X108538668Y-93225369D01*
X107674393Y-93103661D01*
X106773176Y-92977366D01*
X105858562Y-92849769D01*
X104954096Y-92724155D01*
X104083324Y-92603809D01*
X103863427Y-92573591D01*
X104499766Y-92573591D01*
X104644000Y-92589557D01*
X104783764Y-92575395D01*
X104771000Y-92538312D01*
X104725011Y-92524893D01*
X104517000Y-92538312D01*
X104499766Y-92573591D01*
X103863427Y-92573591D01*
X103269790Y-92492014D01*
X102907675Y-92442616D01*
X103757117Y-92442616D01*
X103758690Y-92477299D01*
X103890467Y-92495978D01*
X103990335Y-92479709D01*
X103951850Y-92434595D01*
X103893098Y-92418362D01*
X103757117Y-92442616D01*
X102907675Y-92442616D01*
X102537042Y-92392056D01*
X102158965Y-92341016D01*
X103045917Y-92341016D01*
X103047490Y-92375699D01*
X103179267Y-92394378D01*
X103279135Y-92378109D01*
X103240650Y-92332995D01*
X103181898Y-92316762D01*
X103045917Y-92341016D01*
X102158965Y-92341016D01*
X101908623Y-92307220D01*
X101408079Y-92240790D01*
X101058957Y-92196050D01*
X100884800Y-92176286D01*
X100792315Y-92170979D01*
X100598106Y-92194318D01*
X100579023Y-92240782D01*
X100559173Y-92289116D01*
X100549719Y-92359678D01*
X100430066Y-92393958D01*
X100152773Y-92369802D01*
X100012966Y-92353463D01*
X99875495Y-92353185D01*
X99902264Y-92378109D01*
X99915248Y-92390198D01*
X99938941Y-92401624D01*
X99926852Y-92449713D01*
X99720946Y-92494800D01*
X99316532Y-92538043D01*
X99058536Y-92554481D01*
X98553320Y-92552197D01*
X97986265Y-92500904D01*
X97290965Y-92395944D01*
X97262853Y-92391142D01*
X96976360Y-92341016D01*
X98372317Y-92341016D01*
X98373890Y-92375699D01*
X98505667Y-92394378D01*
X98605535Y-92378109D01*
X98567050Y-92332995D01*
X98508298Y-92316762D01*
X98372317Y-92341016D01*
X96976360Y-92341016D01*
X96793391Y-92309003D01*
X96405741Y-92237686D01*
X96139448Y-92184693D01*
X96034058Y-92157523D01*
X96032164Y-92152357D01*
X96040168Y-92135889D01*
X96829267Y-92135889D01*
X96830908Y-92137096D01*
X96955827Y-92164188D01*
X97224915Y-92197883D01*
X97582800Y-92231180D01*
X97856636Y-92251372D01*
X98046981Y-92257951D01*
X98053799Y-92240782D01*
X97887600Y-92198746D01*
X97680918Y-92162026D01*
X101613972Y-92162026D01*
X101697600Y-92199200D01*
X101751387Y-92191867D01*
X101765334Y-92131466D01*
X101750443Y-92119307D01*
X101629867Y-92131466D01*
X101613972Y-92162026D01*
X97680918Y-92162026D01*
X97637324Y-92154281D01*
X97333705Y-92118869D01*
X97059691Y-92101735D01*
X96872480Y-92106276D01*
X96829267Y-92135889D01*
X96040168Y-92135889D01*
X96084629Y-92044407D01*
X96091372Y-92035005D01*
X96276409Y-92035005D01*
X96291686Y-92066811D01*
X96465200Y-92077793D01*
X96496751Y-92077123D01*
X96631699Y-92059533D01*
X96590267Y-92027192D01*
X96487162Y-92010858D01*
X96285467Y-92030956D01*
X96276409Y-92035005D01*
X96091372Y-92035005D01*
X96221361Y-91853759D01*
X96245487Y-91822139D01*
X96360508Y-91627964D01*
X96370181Y-91538800D01*
X96516000Y-91538800D01*
X96566800Y-91589600D01*
X96617600Y-91538800D01*
X96566800Y-91488000D01*
X96516000Y-91538800D01*
X96370181Y-91538800D01*
X96372852Y-91514184D01*
X96261169Y-91479897D01*
X95986846Y-91430026D01*
X95593345Y-91372566D01*
X95123107Y-91314306D01*
X94670469Y-91261061D01*
X94283892Y-91212387D01*
X94018197Y-91175252D01*
X93913932Y-91154998D01*
X93897749Y-91051519D01*
X93878084Y-90799371D01*
X93859384Y-90453865D01*
X93858990Y-90445235D01*
X93832729Y-90115098D01*
X93793661Y-89892652D01*
X93750091Y-89825635D01*
X93714010Y-89842362D01*
X93670160Y-89801304D01*
X93711876Y-89672818D01*
X93791963Y-89564215D01*
X93899311Y-89564215D01*
X93925200Y-89659200D01*
X93946074Y-89689275D01*
X94038793Y-89760800D01*
X94052690Y-89754184D01*
X94026800Y-89659200D01*
X94005927Y-89629124D01*
X93913208Y-89557600D01*
X93899311Y-89564215D01*
X93791963Y-89564215D01*
X93823600Y-89521314D01*
X93831776Y-89506800D01*
X94280800Y-89506800D01*
X94292263Y-89576908D01*
X94382400Y-89659200D01*
X94429139Y-89642006D01*
X94484000Y-89506800D01*
X94472538Y-89436691D01*
X94454568Y-89420285D01*
X94705807Y-89420285D01*
X94738436Y-89506800D01*
X94763307Y-89572746D01*
X94770758Y-89580072D01*
X94852418Y-89615419D01*
X94863697Y-89472356D01*
X94832498Y-89343263D01*
X94746951Y-89355609D01*
X94705807Y-89420285D01*
X94454568Y-89420285D01*
X94382400Y-89354400D01*
X94335662Y-89371593D01*
X94280800Y-89506800D01*
X93831776Y-89506800D01*
X93920783Y-89348799D01*
X93962164Y-89082257D01*
X93954056Y-88951985D01*
X93936259Y-88894518D01*
X93904298Y-89024200D01*
X93856095Y-89166711D01*
X93765734Y-89252800D01*
X93749974Y-89251667D01*
X93675808Y-89164830D01*
X93703614Y-88992682D01*
X93823600Y-88810114D01*
X93891950Y-88727048D01*
X93966807Y-88450526D01*
X93868613Y-88099387D01*
X93595000Y-87661738D01*
X93214000Y-87151578D01*
X93293836Y-83147589D01*
X93373671Y-79143600D01*
X93826568Y-78203800D01*
X94279466Y-77264000D01*
X94711933Y-77262505D01*
X94801284Y-77261549D01*
X95092328Y-77257485D01*
X95564414Y-77250429D01*
X96204563Y-77240589D01*
X96999796Y-77228171D01*
X97937134Y-77213381D01*
X99003598Y-77196426D01*
X100186208Y-77177513D01*
X101471987Y-77156848D01*
X102847954Y-77134637D01*
X104301132Y-77111088D01*
X105818540Y-77086407D01*
X107387200Y-77060800D01*
X107458393Y-77059635D01*
X109350718Y-77028667D01*
X111050476Y-77000836D01*
X112567905Y-76976022D01*
X113913248Y-76954101D01*
X115096744Y-76934952D01*
X116128633Y-76918452D01*
X117019157Y-76904479D01*
X117778555Y-76892911D01*
X118417068Y-76883626D01*
X118944936Y-76876501D01*
X119372400Y-76871414D01*
X119709700Y-76868244D01*
X119967077Y-76866867D01*
X120154772Y-76867162D01*
X120283023Y-76869006D01*
X120362073Y-76872277D01*
X120402161Y-76876853D01*
X120413527Y-76882612D01*
X120406413Y-76889431D01*
X120391058Y-76897189D01*
X120377704Y-76905763D01*
X120375034Y-76906609D01*
X120242866Y-76914575D01*
X119921241Y-76925378D01*
X119422244Y-76938779D01*
X118757961Y-76954539D01*
X117940477Y-76972421D01*
X116981877Y-76992185D01*
X115894246Y-77013593D01*
X114689670Y-77036407D01*
X113380234Y-77060387D01*
X111978023Y-77085296D01*
X110495122Y-77110895D01*
X108943617Y-77136944D01*
X107335593Y-77163207D01*
X107109894Y-77166845D01*
X105509671Y-77192830D01*
X103968040Y-77218186D01*
X102497048Y-77242701D01*
X101108745Y-77266160D01*
X99815180Y-77288349D01*
X98628400Y-77309054D01*
X97560455Y-77328060D01*
X96623394Y-77345154D01*
X95829264Y-77360121D01*
X95190114Y-77372748D01*
X94717993Y-77382820D01*
X94424950Y-77390123D01*
X94323034Y-77394443D01*
X94305318Y-77426101D01*
X94214132Y-77602445D01*
X94064713Y-77897014D01*
X93878006Y-78268662D01*
X93451591Y-79120925D01*
X93481044Y-80714311D01*
X93510497Y-82307698D01*
X93768649Y-82276936D01*
X94026800Y-82246175D01*
X93772800Y-82324951D01*
X93668968Y-82373087D01*
X93575515Y-82471097D01*
X93504239Y-82637119D01*
X93452094Y-82893677D01*
X93416036Y-83263297D01*
X93393019Y-83768504D01*
X93379999Y-84431823D01*
X93373931Y-85275779D01*
X93366400Y-87242358D01*
X93695139Y-87663379D01*
X93815643Y-87815867D01*
X94017220Y-88063099D01*
X94152339Y-88218657D01*
X94221003Y-88347125D01*
X94269764Y-88588834D01*
X94276749Y-88852338D01*
X94241178Y-89064254D01*
X94162267Y-89151200D01*
X94121364Y-89156550D01*
X94110844Y-89218310D01*
X94193898Y-89225371D01*
X94356378Y-89129626D01*
X94417789Y-89088019D01*
X94677517Y-88987696D01*
X95001850Y-88924349D01*
X95162247Y-88913977D01*
X95477241Y-88968367D01*
X95650327Y-89155504D01*
X95699969Y-89472356D01*
X95703200Y-89492981D01*
X95659484Y-89713483D01*
X95617695Y-89754184D01*
X95466762Y-89901189D01*
X95386578Y-89913200D01*
G37*
G36*
X97243706Y-84395051D02*
G01*
X97328800Y-84477600D01*
X97290697Y-84536652D01*
X97125600Y-84579200D01*
X97007495Y-84560148D01*
X96922400Y-84477600D01*
X96960504Y-84418547D01*
X97125600Y-84376000D01*
X97243706Y-84395051D01*
G37*
G36*
X101270880Y-85371680D02*
G01*
X101199947Y-85429493D01*
X100941865Y-85512108D01*
X100673293Y-85470221D01*
X100462262Y-85324759D01*
X100392292Y-85138000D01*
X101088000Y-85138000D01*
X101138800Y-85188800D01*
X101189600Y-85138000D01*
X101138800Y-85087200D01*
X101088000Y-85138000D01*
X100392292Y-85138000D01*
X100376800Y-85096649D01*
X100408876Y-84869438D01*
X100470516Y-84789015D01*
X101011311Y-84789015D01*
X101037200Y-84884000D01*
X101058074Y-84914075D01*
X101150793Y-84985600D01*
X101164690Y-84978984D01*
X101138800Y-84884000D01*
X101117927Y-84853924D01*
X101025208Y-84782400D01*
X101011311Y-84789015D01*
X100470516Y-84789015D01*
X100575693Y-84651790D01*
X100884800Y-84579200D01*
X101075582Y-84603159D01*
X101310074Y-84756679D01*
X101375820Y-84978984D01*
X101392800Y-85036400D01*
X101377894Y-85138000D01*
X101372671Y-85173603D01*
X101270880Y-85371680D01*
G37*
G36*
X98012667Y-80444792D02*
G01*
X98030136Y-80449819D01*
X98045177Y-80480742D01*
X97887600Y-80495393D01*
X97863540Y-80495532D01*
X97704489Y-80481910D01*
X97707867Y-80448556D01*
X97791351Y-80429918D01*
X98012667Y-80444792D01*
G37*
G36*
X100116268Y-86234581D02*
G01*
X100065600Y-86329398D01*
X99990022Y-86359888D01*
X99979141Y-86310916D01*
X100059393Y-86177706D01*
X100072774Y-86164579D01*
X100147201Y-86115884D01*
X100116268Y-86234581D01*
G37*
G36*
X97837784Y-79702562D02*
G01*
X98052957Y-79735231D01*
X98141600Y-79807475D01*
X98079079Y-79868407D01*
X97891442Y-79879050D01*
X97733486Y-79849582D01*
X97585567Y-79785327D01*
X97610812Y-79727510D01*
X97819867Y-79702400D01*
X97837784Y-79702562D01*
G37*
G36*
X93874400Y-79854800D02*
G01*
X93823600Y-79905600D01*
X93772800Y-79854800D01*
X93823600Y-79804000D01*
X93874400Y-79854800D01*
G37*
G36*
X117267800Y-89419611D02*
G01*
X117506815Y-89475248D01*
X117623042Y-89575281D01*
X117648800Y-89769045D01*
X117609145Y-89978508D01*
X117471000Y-90159061D01*
X117270263Y-90239807D01*
X116943548Y-90263459D01*
X116639284Y-90185829D01*
X116415961Y-90025336D01*
X116332068Y-89800399D01*
X116338640Y-89725521D01*
X116382269Y-89716817D01*
X116485140Y-89882888D01*
X116537178Y-89970584D01*
X116696765Y-90109974D01*
X116945440Y-90117979D01*
X117198851Y-90058679D01*
X117453288Y-89905627D01*
X117547200Y-89697559D01*
X117525308Y-89639813D01*
X117368873Y-89576926D01*
X117039200Y-89557600D01*
X116856211Y-89550743D01*
X116622577Y-89513957D01*
X116531200Y-89456000D01*
X116535208Y-89429507D01*
X116627962Y-89368293D01*
X116863367Y-89365429D01*
X117267800Y-89419611D01*
G37*
G36*
X102265604Y-88880846D02*
G01*
X102154800Y-88948000D01*
X102016646Y-88996341D01*
X101799200Y-89035318D01*
X101739197Y-89015153D01*
X101850000Y-88948000D01*
X101988155Y-88899658D01*
X102205600Y-88860681D01*
X102265604Y-88880846D01*
G37*
G36*
X99056000Y-78432400D02*
G01*
X99005200Y-78483200D01*
X98954400Y-78432400D01*
X99005200Y-78381600D01*
X99056000Y-78432400D01*
G37*
G36*
X96998600Y-79733964D02*
G01*
X97027427Y-79743462D01*
X97005643Y-79769835D01*
X96820800Y-79780428D01*
X96751867Y-79779445D01*
X96611380Y-79763413D01*
X96643000Y-79733964D01*
X96740920Y-79718163D01*
X96998600Y-79733964D01*
G37*
G36*
X94204600Y-86035912D02*
G01*
X94221835Y-86071191D01*
X94077600Y-86087157D01*
X93937837Y-86072995D01*
X93950600Y-86035912D01*
X93996590Y-86022493D01*
X94204600Y-86035912D01*
G37*
G36*
X94481661Y-80630461D02*
G01*
X94636400Y-80718400D01*
X94639096Y-80723235D01*
X94588925Y-80792945D01*
X94382400Y-80820000D01*
X94367381Y-80820094D01*
X94168507Y-80850002D01*
X94128400Y-80921600D01*
X94143253Y-80953513D01*
X94128400Y-81124800D01*
X94120004Y-81137984D01*
X94000315Y-81240453D01*
X93913849Y-81185792D01*
X93884476Y-81017108D01*
X93936071Y-80777509D01*
X94028000Y-80685666D01*
X94245560Y-80622360D01*
X94481661Y-80630461D01*
G37*
G36*
X97143597Y-87426363D02*
G01*
X97178733Y-87521826D01*
X97183987Y-87547496D01*
X97317592Y-87597477D01*
X97571228Y-87637844D01*
X97888325Y-87664661D01*
X98212314Y-87673995D01*
X98486625Y-87661911D01*
X98654690Y-87624476D01*
X98740796Y-87588391D01*
X98992457Y-87537803D01*
X99261763Y-87530492D01*
X99476387Y-87565177D01*
X99564000Y-87640577D01*
X99562981Y-87651361D01*
X99450513Y-87713945D01*
X99157620Y-87701048D01*
X99069381Y-87691520D01*
X98821664Y-87692803D01*
X98694424Y-87738470D01*
X98666994Y-87765638D01*
X98450982Y-87819449D01*
X98045588Y-87819126D01*
X97455800Y-87764564D01*
X97429317Y-87761333D01*
X97118457Y-87707390D01*
X96964105Y-87632008D01*
X96922400Y-87514636D01*
X96947390Y-87404658D01*
X97074217Y-87387034D01*
X97143597Y-87426363D01*
G37*
G36*
X94403698Y-83167220D02*
G01*
X94519737Y-83219360D01*
X94513439Y-83360000D01*
X94454533Y-83513414D01*
X94348544Y-83541922D01*
X94128400Y-83461600D01*
X93925200Y-83374281D01*
X94128400Y-83360000D01*
X94331600Y-83345718D01*
X94128400Y-83258400D01*
X94032215Y-83210717D01*
X94046774Y-83176465D01*
X94245889Y-83163940D01*
X94403698Y-83167220D01*
G37*
G36*
X93685708Y-82687154D02*
G01*
X93729035Y-82885008D01*
X93759765Y-83260578D01*
X93762829Y-83413424D01*
X93737910Y-83672182D01*
X93673139Y-83766400D01*
X93630060Y-83727855D01*
X93588000Y-83518625D01*
X93581919Y-83150324D01*
X93601272Y-82849402D01*
X93639785Y-82673219D01*
X93685708Y-82687154D01*
G37*
G36*
X94382400Y-81480400D02*
G01*
X94331600Y-81531200D01*
X94280800Y-81480400D01*
X94331600Y-81429600D01*
X94382400Y-81480400D01*
G37*
G36*
X96032216Y-84710542D02*
G01*
X96082208Y-84723827D01*
X96052357Y-84746774D01*
X95855600Y-84756778D01*
X95747969Y-84755465D01*
X95602066Y-84740055D01*
X95625816Y-84712592D01*
X95767484Y-84694184D01*
X96032216Y-84710542D01*
G37*
G36*
X94458600Y-82578764D02*
G01*
X94487427Y-82588262D01*
X94465643Y-82614635D01*
X94280800Y-82625228D01*
X94211867Y-82624245D01*
X94071380Y-82608213D01*
X94103000Y-82578764D01*
X94200920Y-82562963D01*
X94458600Y-82578764D01*
G37*
G36*
X99435604Y-78207093D02*
G01*
X99506350Y-78225132D01*
X99438924Y-78243337D01*
X99208400Y-78250940D01*
X99019836Y-78247614D01*
X98886720Y-78232276D01*
X98927604Y-78208480D01*
X99135133Y-78190379D01*
X99435604Y-78207093D01*
G37*
G36*
X97498134Y-81057066D02*
G01*
X97514029Y-81087626D01*
X97430400Y-81124800D01*
X97376614Y-81117467D01*
X97362667Y-81057066D01*
X97377558Y-81044907D01*
X97498134Y-81057066D01*
G37*
G36*
X119708610Y-93489824D02*
G01*
X119782400Y-93627596D01*
X119777036Y-93684574D01*
X119724021Y-93708531D01*
X119642034Y-93565523D01*
X119624230Y-93486272D01*
X119681964Y-93469919D01*
X119708610Y-93489824D01*
G37*
G36*
X100072000Y-82598000D02*
G01*
X100021200Y-82648800D01*
X99970400Y-82598000D01*
X100021200Y-82547200D01*
X100072000Y-82598000D01*
G37*
G36*
X96719200Y-80464400D02*
G01*
X96668400Y-80515200D01*
X96617600Y-80464400D01*
X96668400Y-80413600D01*
X96719200Y-80464400D01*
G37*
G36*
X95879067Y-79733592D02*
G01*
X95896536Y-79738619D01*
X95911577Y-79769542D01*
X95754000Y-79784193D01*
X95729940Y-79784332D01*
X95570889Y-79770710D01*
X95574267Y-79737356D01*
X95657751Y-79718718D01*
X95879067Y-79733592D01*
G37*
G36*
X96196823Y-82953120D02*
G01*
X96114257Y-83148098D01*
X96020796Y-83280417D01*
X95898083Y-83360000D01*
X95893472Y-83359734D01*
X95880409Y-83284485D01*
X95977857Y-83115950D01*
X96035819Y-83041820D01*
X96164685Y-82916282D01*
X96196823Y-82953120D01*
G37*
G36*
X98141600Y-81328000D02*
G01*
X98134268Y-81381786D01*
X98073867Y-81395733D01*
X98061708Y-81380842D01*
X98073867Y-81260266D01*
X98104427Y-81244371D01*
X98141600Y-81328000D01*
G37*
G36*
X99661279Y-83055895D02*
G01*
X99881026Y-83082713D01*
X99970400Y-83136398D01*
X99966909Y-83147347D01*
X99848729Y-83183222D01*
X99614800Y-83176082D01*
X99567561Y-83170216D01*
X99348332Y-83131497D01*
X99259200Y-83094884D01*
X99262213Y-83089725D01*
X99379599Y-83065183D01*
X99614800Y-83055200D01*
X99661279Y-83055895D01*
G37*
G36*
X101062271Y-89030705D02*
G01*
X101134333Y-89141617D01*
X101163959Y-89341138D01*
X101134154Y-89546741D01*
X101079727Y-89645230D01*
X101020791Y-89589981D01*
X100970881Y-89333685D01*
X100971528Y-89139010D01*
X101027515Y-89028885D01*
X101062271Y-89030705D01*
G37*
G36*
X94204459Y-80020864D02*
G01*
X94280800Y-80108800D01*
X94217738Y-80175621D01*
X94026800Y-80210400D01*
X94019274Y-80210429D01*
X93823563Y-80261253D01*
X93761015Y-80439000D01*
X93757915Y-80490596D01*
X93738915Y-80583925D01*
X93701825Y-80484919D01*
X93694808Y-80371780D01*
X93776851Y-80154719D01*
X93845951Y-80093115D01*
X94031483Y-80018190D01*
X94204459Y-80020864D01*
G37*
G36*
X97246180Y-85090104D02*
G01*
X97305548Y-85202058D01*
X97351921Y-85410028D01*
X97370167Y-85622555D01*
X97345156Y-85748178D01*
X97256108Y-85801269D01*
X97176596Y-85713663D01*
X97155793Y-85442800D01*
X97157693Y-85396626D01*
X97187010Y-85176672D01*
X97235805Y-85087200D01*
X97246180Y-85090104D01*
G37*
G36*
X97454685Y-83261352D02*
G01*
X97532000Y-83360000D01*
X97529048Y-83384284D01*
X97430400Y-83461600D01*
X97406116Y-83458647D01*
X97328800Y-83360000D01*
X97331753Y-83335715D01*
X97430400Y-83258400D01*
X97454685Y-83261352D01*
G37*
G36*
X96504427Y-81525805D02*
G01*
X97061355Y-81531200D01*
X97272909Y-81530893D01*
X97741407Y-81525374D01*
X98052373Y-81509412D01*
X98239434Y-81478461D01*
X98336222Y-81427972D01*
X98376365Y-81353400D01*
X98384232Y-81324582D01*
X98417357Y-81266691D01*
X98434615Y-81404200D01*
X98434384Y-81488526D01*
X98396168Y-81569010D01*
X98276750Y-81612166D01*
X98035469Y-81629570D01*
X97631665Y-81632800D01*
X96816929Y-81632800D01*
X96872002Y-81912200D01*
X96900386Y-82065950D01*
X96893385Y-82104306D01*
X96826411Y-81963000D01*
X96732050Y-81822873D01*
X96562173Y-81752176D01*
X96255900Y-81734400D01*
X95890427Y-81771526D01*
X95525915Y-81939022D01*
X95324214Y-82075347D01*
X95226518Y-82092400D01*
X95269770Y-81989247D01*
X95462878Y-81787317D01*
X95528362Y-81725560D01*
X95639960Y-81584687D01*
X95601600Y-81540145D01*
X95455639Y-81547493D01*
X95256295Y-81507894D01*
X95227582Y-81480400D01*
X95398400Y-81480400D01*
X95449200Y-81531200D01*
X95500000Y-81480400D01*
X95449200Y-81429600D01*
X95398400Y-81480400D01*
X95227582Y-81480400D01*
X95119892Y-81377280D01*
X95033385Y-81127677D01*
X94983730Y-80731108D01*
X94957884Y-80159600D01*
X94941200Y-79550000D01*
X96617600Y-79546315D01*
X98294000Y-79542631D01*
X94992000Y-79605713D01*
X94992000Y-80156060D01*
X95000091Y-80375682D01*
X95036974Y-80640161D01*
X95093600Y-80769200D01*
X95163224Y-80892165D01*
X95195200Y-81124408D01*
X95195458Y-81173038D01*
X95218893Y-81335827D01*
X95322806Y-81384623D01*
X95566597Y-81356555D01*
X95681533Y-81340282D01*
X95855736Y-81342901D01*
X95865401Y-81413743D01*
X95859727Y-81429827D01*
X95922772Y-81477000D01*
X95945375Y-81480400D01*
X96131286Y-81508365D01*
X96504427Y-81525805D01*
G37*
G36*
X101415314Y-80576193D02*
G01*
X101292323Y-80689810D01*
X101040313Y-80718400D01*
X100727611Y-80654575D01*
X100559758Y-80466945D01*
X100558974Y-80170569D01*
X100595041Y-80072755D01*
X101153434Y-80072755D01*
X101160125Y-80210259D01*
X101209302Y-80354163D01*
X101266935Y-80403388D01*
X101291200Y-80267196D01*
X101283693Y-80204827D01*
X101199076Y-80063855D01*
X101153434Y-80072755D01*
X100595041Y-80072755D01*
X100616361Y-80014936D01*
X100792472Y-79853659D01*
X101106554Y-79805555D01*
X101124492Y-79805757D01*
X101362705Y-79894329D01*
X101476105Y-80125256D01*
X101465754Y-80267196D01*
X101450839Y-80471732D01*
X101415314Y-80576193D01*
G37*
G36*
X97836800Y-80111988D02*
G01*
X97819632Y-80157229D01*
X97684400Y-80210400D01*
X97614965Y-80205986D01*
X97532000Y-80170470D01*
X97550719Y-80144172D01*
X97684400Y-80072058D01*
X97762327Y-80056086D01*
X97836800Y-80111988D01*
G37*
G36*
X97836800Y-83309200D02*
G01*
X97786000Y-83360000D01*
X97735200Y-83309200D01*
X97786000Y-83258400D01*
X97836800Y-83309200D01*
G37*
G36*
X94026800Y-79430430D02*
G01*
X94239078Y-79476505D01*
X94333333Y-79600800D01*
X94375008Y-79692819D01*
X94556881Y-79745675D01*
X94685127Y-79759808D01*
X94726953Y-79821875D01*
X94691759Y-79862147D01*
X94496630Y-79888668D01*
X94179200Y-79753200D01*
X94041937Y-79670196D01*
X94004130Y-79613964D01*
X94128400Y-79592379D01*
X94180550Y-79586272D01*
X94201423Y-79553622D01*
X94026800Y-79494610D01*
X93722000Y-79412461D01*
X94026800Y-79430430D01*
G37*
G36*
X98581008Y-88714465D02*
G01*
X98674042Y-88917112D01*
X98716675Y-89173330D01*
X98686768Y-89404088D01*
X98669193Y-89445392D01*
X98568390Y-89554397D01*
X98482640Y-89486138D01*
X98446400Y-89261109D01*
X98430686Y-89022966D01*
X98384730Y-88803909D01*
X98370388Y-88708620D01*
X98473630Y-88643200D01*
X98581008Y-88714465D01*
G37*
G36*
X106193400Y-78111112D02*
G01*
X106210635Y-78146391D01*
X106066400Y-78162357D01*
X105926637Y-78148195D01*
X105939400Y-78111112D01*
X105985390Y-78097693D01*
X106193400Y-78111112D01*
G37*
G36*
X99919600Y-88667241D02*
G01*
X99614800Y-88744800D01*
X99608780Y-88746333D01*
X99389930Y-88803688D01*
X99284600Y-88834379D01*
X99278474Y-88834271D01*
X99259200Y-88744800D01*
X99260206Y-88736899D01*
X99364930Y-88674302D01*
X99589400Y-88655220D01*
X99919600Y-88667241D01*
G37*
G36*
X98649600Y-86987619D02*
G01*
X98649088Y-86995265D01*
X98565376Y-87138752D01*
X98381899Y-87315025D01*
X98156025Y-87467982D01*
X97947360Y-87513802D01*
X97735200Y-87424000D01*
X97685229Y-87381816D01*
X97729893Y-87337711D01*
X97958039Y-87323955D01*
X97966851Y-87323897D01*
X98286398Y-87269918D01*
X98491439Y-87096593D01*
X98602604Y-86971808D01*
X98649600Y-86987619D01*
G37*
G36*
X102435474Y-88557124D02*
G01*
X102459600Y-88643200D01*
X102438777Y-88673938D01*
X102358000Y-88744800D01*
X102343305Y-88740018D01*
X102256400Y-88643200D01*
X102248263Y-88589388D01*
X102358000Y-88541600D01*
X102435474Y-88557124D01*
G37*
G36*
X100139734Y-88677066D02*
G01*
X100155629Y-88707626D01*
X100072000Y-88744800D01*
X100018214Y-88737467D01*
X100004267Y-88677066D01*
X100019158Y-88664907D01*
X100139734Y-88677066D01*
G37*
G36*
X117927512Y-80820153D02*
G01*
X117885867Y-80955466D01*
X117752078Y-81005564D01*
X117483439Y-81020574D01*
X117170007Y-80992565D01*
X116893415Y-80924114D01*
X116887536Y-80921857D01*
X116688376Y-80781361D01*
X116632800Y-80534023D01*
X116637524Y-80464400D01*
X117547200Y-80464400D01*
X117548078Y-80511067D01*
X117581646Y-80730685D01*
X117648800Y-80820000D01*
X117662134Y-80816928D01*
X117724882Y-80699440D01*
X117750400Y-80464400D01*
X117749523Y-80417732D01*
X117715955Y-80198114D01*
X117648800Y-80108800D01*
X117635467Y-80111871D01*
X117572719Y-80229359D01*
X117547200Y-80464400D01*
X116637524Y-80464400D01*
X116637801Y-80460325D01*
X116768452Y-80209669D01*
X117074121Y-80058087D01*
X117551981Y-80007200D01*
X117953600Y-80007200D01*
X117953600Y-80447466D01*
X117953270Y-80464400D01*
X117951388Y-80561128D01*
X117927512Y-80820153D01*
G37*
G36*
X101392800Y-84071200D02*
G01*
X101246032Y-84202684D01*
X100979611Y-84273770D01*
X100696177Y-84252135D01*
X100486466Y-84131718D01*
X100440458Y-84051353D01*
X100422139Y-83802345D01*
X100496244Y-83605443D01*
X101042134Y-83605443D01*
X101049234Y-83710323D01*
X101082029Y-83784176D01*
X101156951Y-83864709D01*
X101189600Y-83772396D01*
X101185990Y-83744800D01*
X101089164Y-83614719D01*
X101042134Y-83605443D01*
X100496244Y-83605443D01*
X100515000Y-83555606D01*
X100691701Y-83407594D01*
X100816178Y-83381281D01*
X101107325Y-83420590D01*
X101330459Y-83577056D01*
X101423579Y-83772396D01*
X101440607Y-83808115D01*
X101392800Y-84071200D01*
G37*
G36*
X101404018Y-78607604D02*
G01*
X101545200Y-78686400D01*
X101568948Y-78746042D01*
X101487993Y-78772583D01*
X101240400Y-78686400D01*
X101145101Y-78644204D01*
X101104138Y-78603807D01*
X101259804Y-78591940D01*
X101404018Y-78607604D01*
G37*
G36*
X111083294Y-77787590D02*
G01*
X111113415Y-77838851D01*
X111095271Y-77893902D01*
X111159722Y-78042051D01*
X111218604Y-78142212D01*
X111133441Y-78171259D01*
X111126302Y-78170831D01*
X110955764Y-78136743D01*
X110788925Y-78074574D01*
X110689347Y-78013411D01*
X110720597Y-77982340D01*
X110772631Y-77968792D01*
X110790800Y-77873600D01*
X110802997Y-77808568D01*
X110954138Y-77772000D01*
X111083294Y-77787590D01*
G37*
G36*
X100072000Y-83461600D02*
G01*
X100064668Y-83515386D01*
X100004267Y-83529333D01*
X99992108Y-83514442D01*
X100004267Y-83393866D01*
X100034827Y-83377971D01*
X100072000Y-83461600D01*
G37*
G36*
X115481334Y-93757066D02*
G01*
X115497229Y-93787626D01*
X115413600Y-93824800D01*
X115359814Y-93817467D01*
X115345867Y-93757066D01*
X115360758Y-93744907D01*
X115481334Y-93757066D01*
G37*
G36*
X101474271Y-81617603D02*
G01*
X101372480Y-81815680D01*
X101345526Y-81838985D01*
X101106699Y-81925351D01*
X100820366Y-81917583D01*
X100600320Y-81815680D01*
X100528253Y-81704273D01*
X100481291Y-81461433D01*
X100503014Y-81328000D01*
X101088000Y-81328000D01*
X101092135Y-81355847D01*
X101195597Y-81429600D01*
X101232345Y-81421622D01*
X101240400Y-81328000D01*
X101219547Y-81297594D01*
X101132804Y-81226400D01*
X101122665Y-81229041D01*
X101088000Y-81328000D01*
X100503014Y-81328000D01*
X100519858Y-81224536D01*
X100639110Y-81084870D01*
X100870663Y-81024778D01*
X101189370Y-81050839D01*
X101411189Y-81209144D01*
X101447649Y-81328000D01*
X101494400Y-81480400D01*
X101474271Y-81617603D01*
G37*
G36*
X99919600Y-81698899D02*
G01*
X99462400Y-81719880D01*
X99349591Y-81728979D01*
X99030575Y-81792646D01*
X98807982Y-81890031D01*
X98592401Y-81987772D01*
X98299982Y-82027516D01*
X98230686Y-82024787D01*
X98091825Y-82013536D01*
X98133321Y-81990423D01*
X98364876Y-81942775D01*
X98406298Y-81934163D01*
X98693063Y-81847388D01*
X98890767Y-81745050D01*
X98919159Y-81725819D01*
X99152451Y-81662781D01*
X99480292Y-81659641D01*
X99919600Y-81698899D01*
G37*
G36*
X116226400Y-86052400D02*
G01*
X116175600Y-86103200D01*
X116124800Y-86052400D01*
X116175600Y-86001600D01*
X116226400Y-86052400D01*
G37*
G36*
X98548000Y-82547200D02*
G01*
X98540668Y-82600986D01*
X98480267Y-82614933D01*
X98468108Y-82600042D01*
X98480267Y-82479466D01*
X98510827Y-82463571D01*
X98548000Y-82547200D01*
G37*
G36*
X97322375Y-84072550D02*
G01*
X97543986Y-84105992D01*
X97633600Y-84170260D01*
X97632987Y-84176618D01*
X97532785Y-84223941D01*
X97303400Y-84206466D01*
X97097489Y-84163024D01*
X96950312Y-84112512D01*
X97004759Y-84081653D01*
X97261067Y-84071200D01*
X97322375Y-84072550D01*
G37*
G36*
X100275200Y-83512400D02*
G01*
X100224400Y-83563200D01*
X100173600Y-83512400D01*
X100224400Y-83461600D01*
X100275200Y-83512400D01*
G37*
G36*
X94082998Y-86314515D02*
G01*
X94230000Y-86408000D01*
X94224081Y-86470488D01*
X94083597Y-86509600D01*
X93959751Y-86489750D01*
X93874400Y-86408000D01*
X93889492Y-86363206D01*
X94020804Y-86306400D01*
X94082998Y-86314515D01*
G37*
G36*
X98830037Y-86498610D02*
G01*
X98934927Y-86603580D01*
X98928449Y-86661248D01*
X98802000Y-86712800D01*
X98718118Y-86696222D01*
X98669074Y-86603580D01*
X98682871Y-86573457D01*
X98802000Y-86494360D01*
X98830037Y-86498610D01*
G37*
G36*
X95422685Y-80010152D02*
G01*
X95500000Y-80108800D01*
X95497048Y-80133084D01*
X95398400Y-80210400D01*
X95374116Y-80207447D01*
X95296800Y-80108800D01*
X95299753Y-80084515D01*
X95398400Y-80007200D01*
X95422685Y-80010152D01*
G37*
G36*
X114499200Y-93164400D02*
G01*
X114448400Y-93215200D01*
X114397600Y-93164400D01*
X114448400Y-93113600D01*
X114499200Y-93164400D01*
G37*
G36*
X99519197Y-82547200D02*
G01*
X99368670Y-82508614D01*
X99314382Y-82404412D01*
X99324524Y-82394800D01*
X99462400Y-82394800D01*
X99513200Y-82445600D01*
X99564000Y-82394800D01*
X99513200Y-82344000D01*
X99462400Y-82394800D01*
X99324524Y-82394800D01*
X99420494Y-82303846D01*
X99545710Y-82259733D01*
X99646456Y-82266234D01*
X99665600Y-82394800D01*
X99648662Y-82465740D01*
X99519197Y-82547200D01*
G37*
G36*
X94204600Y-82886312D02*
G01*
X94221835Y-82921591D01*
X94077600Y-82937557D01*
X93937837Y-82923395D01*
X93950600Y-82886312D01*
X93996590Y-82872893D01*
X94204600Y-82886312D01*
G37*
G36*
X116156041Y-81463466D02*
G01*
X116152358Y-81575574D01*
X116149365Y-81666666D01*
X116131549Y-82208899D01*
X116110340Y-82902800D01*
X116106153Y-83039775D01*
X116081819Y-83893869D01*
X116060089Y-84721862D01*
X116047995Y-85222657D01*
X116033113Y-85939654D01*
X116026356Y-86485827D01*
X116027719Y-86763600D01*
X116028298Y-86881606D01*
X116039516Y-87147419D01*
X116060582Y-87303696D01*
X116092072Y-87370866D01*
X116134560Y-87369359D01*
X116170064Y-87348519D01*
X116225293Y-87334817D01*
X116142316Y-87449808D01*
X116137102Y-87456614D01*
X116063531Y-87668945D01*
X116017714Y-88068774D01*
X115998821Y-88663111D01*
X115991926Y-89001791D01*
X115974283Y-89310567D01*
X115949147Y-89471133D01*
X115919276Y-89456000D01*
X115885768Y-89234536D01*
X115897671Y-88922600D01*
X115914941Y-88786864D01*
X115867255Y-88668518D01*
X115678365Y-88643200D01*
X115554620Y-88648877D01*
X115452684Y-88714524D01*
X115475533Y-88905385D01*
X115499957Y-89012066D01*
X115488565Y-89114888D01*
X115369695Y-89138988D01*
X115096469Y-89109626D01*
X114775654Y-89073931D01*
X114338805Y-89033641D01*
X113889600Y-88998572D01*
X113817849Y-88993454D01*
X113353817Y-88956639D01*
X112733352Y-88902278D01*
X111947336Y-88829513D01*
X110986651Y-88737487D01*
X109842179Y-88625343D01*
X108504800Y-88492223D01*
X108450139Y-88486759D01*
X107864306Y-88429005D01*
X107141853Y-88358882D01*
X106341862Y-88282068D01*
X105523417Y-88204237D01*
X104745600Y-88131068D01*
X104405544Y-88098593D01*
X103776187Y-88034582D01*
X103230888Y-87974012D01*
X102799242Y-87920440D01*
X102510840Y-87877424D01*
X102395276Y-87848522D01*
X102387633Y-87799795D01*
X102379975Y-87569838D01*
X102377643Y-87171148D01*
X102379724Y-86763600D01*
X103628000Y-86763600D01*
X103678800Y-86814400D01*
X103729600Y-86763600D01*
X103678800Y-86712800D01*
X103628000Y-86763600D01*
X102379724Y-86763600D01*
X102380432Y-86624830D01*
X102388136Y-85951991D01*
X102400551Y-85173735D01*
X102417470Y-84311170D01*
X102438689Y-83385400D01*
X102450521Y-82902800D01*
X114499200Y-82902800D01*
X114550000Y-82953600D01*
X114600800Y-82902800D01*
X114550000Y-82852000D01*
X114499200Y-82902800D01*
X102450521Y-82902800D01*
X102480080Y-81697226D01*
X114212372Y-81697226D01*
X114296000Y-81734400D01*
X114349787Y-81727067D01*
X114363734Y-81666666D01*
X114348843Y-81654507D01*
X114228267Y-81666666D01*
X114212372Y-81697226D01*
X102480080Y-81697226D01*
X102483266Y-81567276D01*
X111006181Y-81567276D01*
X111007864Y-81583214D01*
X111180529Y-81594109D01*
X111502000Y-81597970D01*
X111669773Y-81596869D01*
X111911622Y-81589100D01*
X111988107Y-81575574D01*
X111880315Y-81558276D01*
X111822679Y-81553684D01*
X111428207Y-81542502D01*
X111067515Y-81558947D01*
X111006181Y-81567276D01*
X102483266Y-81567276D01*
X102485062Y-81494026D01*
X107811572Y-81494026D01*
X107895200Y-81531200D01*
X107948987Y-81523867D01*
X107962934Y-81463466D01*
X107948043Y-81451307D01*
X107827467Y-81463466D01*
X107811572Y-81494026D01*
X102485062Y-81494026D01*
X102497517Y-80986026D01*
X114517172Y-80986026D01*
X114600800Y-81023200D01*
X114654587Y-81015867D01*
X114668534Y-80955466D01*
X114653643Y-80943307D01*
X114533067Y-80955466D01*
X114517172Y-80986026D01*
X102497517Y-80986026D01*
X102537709Y-79346800D01*
X103526400Y-79346800D01*
X103577200Y-79397600D01*
X103628000Y-79346800D01*
X113381600Y-79346800D01*
X113432400Y-79397600D01*
X113483200Y-79346800D01*
X113432400Y-79296000D01*
X113381600Y-79346800D01*
X103628000Y-79346800D01*
X103577200Y-79296000D01*
X103526400Y-79346800D01*
X102537709Y-79346800D01*
X102546428Y-78991199D01*
X109401482Y-78991200D01*
X116256536Y-78991200D01*
X116241317Y-79346800D01*
X116192397Y-80489800D01*
X116179361Y-80814077D01*
X116174275Y-80955466D01*
X116156465Y-81450561D01*
X116156041Y-81463466D01*
G37*
G36*
X97545265Y-84759698D02*
G01*
X97633600Y-84802801D01*
X97630554Y-84813414D01*
X97513110Y-84863591D01*
X97278000Y-84884000D01*
X97231777Y-84883663D01*
X97011857Y-84870563D01*
X96922400Y-84844315D01*
X96925548Y-84838676D01*
X97043167Y-84800479D01*
X97278000Y-84763117D01*
X97327736Y-84758107D01*
X97545265Y-84759698D01*
G37*
G36*
X97089825Y-83267447D02*
G01*
X97049430Y-83386845D01*
X96930687Y-83600592D01*
X96917277Y-83623108D01*
X96778421Y-84005281D01*
X96722482Y-84468905D01*
X96752522Y-84926454D01*
X96871600Y-85290400D01*
X96967672Y-85499557D01*
X97012865Y-85696800D01*
X97001309Y-85724169D01*
X96931679Y-85651665D01*
X96820800Y-85442800D01*
X96682493Y-85014015D01*
X96626185Y-84490413D01*
X96671901Y-83989832D01*
X96819687Y-83588600D01*
X96856307Y-83530110D01*
X96994945Y-83336517D01*
X97081594Y-83258400D01*
X97089825Y-83267447D01*
G37*
G36*
X104539333Y-90125728D02*
G01*
X104563829Y-90202156D01*
X104464850Y-90339852D01*
X104223831Y-90570421D01*
X104061649Y-90710653D01*
X103789942Y-90897435D01*
X103629744Y-90919980D01*
X103577200Y-90779535D01*
X103641668Y-90636154D01*
X103830059Y-90440850D01*
X104078706Y-90255456D01*
X104322779Y-90127518D01*
X104497450Y-90104586D01*
X104539333Y-90125728D01*
G37*
G36*
X97832479Y-80719095D02*
G01*
X98052226Y-80745913D01*
X98141600Y-80799598D01*
X98138109Y-80810547D01*
X98019929Y-80846422D01*
X97786000Y-80839282D01*
X97738761Y-80833416D01*
X97519532Y-80794697D01*
X97430400Y-80758084D01*
X97433413Y-80752925D01*
X97550799Y-80728383D01*
X97786000Y-80718400D01*
X97832479Y-80719095D01*
G37*
G36*
X99477559Y-85421830D02*
G01*
X99564000Y-85555270D01*
X99539128Y-85647437D01*
X99403291Y-85656870D01*
X99319558Y-85628713D01*
X99149291Y-85595200D01*
X99127218Y-85592308D01*
X99056000Y-85493600D01*
X99119063Y-85426778D01*
X99310000Y-85392000D01*
X99477559Y-85421830D01*
G37*
G36*
X109811122Y-77967680D02*
G01*
X110072863Y-77981415D01*
X110198128Y-78009060D01*
X110199795Y-78018523D01*
X110089845Y-78048218D01*
X109832173Y-78068984D01*
X109470001Y-78076800D01*
X109363230Y-78076409D01*
X109019915Y-78068933D01*
X108789461Y-78053907D01*
X108717031Y-78033902D01*
X108722762Y-78029649D01*
X108868726Y-77998840D01*
X109142886Y-77977502D01*
X109479074Y-77966745D01*
X109811122Y-77967680D01*
G37*
G36*
X100077414Y-86921280D02*
G01*
X100163985Y-87194732D01*
X100138045Y-87538747D01*
X99995800Y-87821933D01*
X99906501Y-87891399D01*
X99685576Y-87982109D01*
X99439686Y-88028486D01*
X99239980Y-88019992D01*
X99157600Y-87946089D01*
X99228557Y-87900190D01*
X99422407Y-87909199D01*
X99658671Y-87898141D01*
X99810435Y-87746221D01*
X99810420Y-87474800D01*
X99756679Y-87271600D01*
X99926175Y-87474800D01*
X99990315Y-87549292D01*
X100056868Y-87594246D01*
X100068983Y-87496229D01*
X100040005Y-87226080D01*
X100024587Y-87077324D01*
X100027505Y-86903543D01*
X100077414Y-86921280D01*
G37*
G36*
X128163775Y-102163689D02*
G01*
X128578332Y-102167980D01*
X128840328Y-102183315D01*
X128984481Y-102216304D01*
X129045511Y-102273558D01*
X129058139Y-102361688D01*
X129042782Y-102432939D01*
X128873707Y-102643712D01*
X128516667Y-102906186D01*
X128250952Y-103081755D01*
X128051463Y-103224922D01*
X127975194Y-103295736D01*
X128045337Y-103361793D01*
X128240436Y-103502503D01*
X128516667Y-103685287D01*
X128684549Y-103798299D01*
X128965006Y-104039568D01*
X129058139Y-104229785D01*
X129057494Y-104257622D01*
X129034955Y-104336552D01*
X128954413Y-104386436D01*
X128781148Y-104413882D01*
X128480441Y-104425502D01*
X128017571Y-104427907D01*
X127748089Y-104427610D01*
X127378107Y-104422548D01*
X127153019Y-104405329D01*
X127038960Y-104368520D01*
X127002063Y-104304687D01*
X127008463Y-104206395D01*
X127013745Y-104174529D01*
X127072555Y-104050955D01*
X127221731Y-103986471D01*
X127514492Y-103954594D01*
X127989061Y-103924304D01*
X127581121Y-103628793D01*
X127510888Y-103576677D01*
X127307070Y-103385693D01*
X127270238Y-103226334D01*
X127406484Y-103065827D01*
X127721899Y-102871401D01*
X128024418Y-102706173D01*
X127532170Y-102656381D01*
X127455299Y-102648155D01*
X127189191Y-102601228D01*
X127057493Y-102522471D01*
X127008463Y-102385077D01*
X127001707Y-102327702D01*
X127014282Y-102248789D01*
X127088290Y-102200353D01*
X127257596Y-102174959D01*
X127556068Y-102165175D01*
X128017571Y-102163566D01*
X128163775Y-102163689D01*
G37*
G36*
X127013326Y-106104672D02*
G01*
X127073984Y-105622809D01*
X127201801Y-105238017D01*
X127410249Y-104983085D01*
X127717140Y-104825642D01*
X127838407Y-104790093D01*
X128110313Y-104770223D01*
X128413318Y-104862538D01*
X128563160Y-104940785D01*
X128841404Y-105226847D01*
X129004770Y-105658446D01*
X129058139Y-106246063D01*
X129058139Y-106790697D01*
X126964241Y-106790697D01*
X126999461Y-106298449D01*
X127482946Y-106298449D01*
X128577777Y-106298449D01*
X128547222Y-105932356D01*
X128540218Y-105864951D01*
X128454781Y-105594460D01*
X128257275Y-105421352D01*
X128112959Y-105349841D01*
X127944937Y-105336741D01*
X127740414Y-105445141D01*
X127701724Y-105471694D01*
X127530288Y-105667734D01*
X127482946Y-105956145D01*
X127482946Y-106298449D01*
X126999461Y-106298449D01*
X127013326Y-106104672D01*
G37*
G36*
X128318786Y-107283257D02*
G01*
X128678504Y-107288640D01*
X128897217Y-107307167D01*
X129010006Y-107346990D01*
X129051953Y-107416260D01*
X129058139Y-107523127D01*
X129038786Y-107666725D01*
X128934408Y-107755034D01*
X128688953Y-107793863D01*
X128638649Y-107798217D01*
X128420357Y-107839295D01*
X128325105Y-107949864D01*
X128289212Y-108193604D01*
X128258657Y-108562791D01*
X128658398Y-108562791D01*
X128753361Y-108563371D01*
X128960047Y-108585306D01*
X129042958Y-108669758D01*
X129058139Y-108858139D01*
X129058139Y-109153488D01*
X128090052Y-109153488D01*
X127825969Y-109150886D01*
X127448095Y-109136869D01*
X127174779Y-109113440D01*
X127052178Y-109083702D01*
X127017743Y-109008590D01*
X127011157Y-108812966D01*
X127049352Y-108704089D01*
X127184504Y-108620989D01*
X127463922Y-108581469D01*
X127641980Y-108566956D01*
X127812404Y-108524311D01*
X127867425Y-108414775D01*
X127857721Y-108187671D01*
X127846140Y-108066685D01*
X127798583Y-107897656D01*
X127672627Y-107824108D01*
X127409108Y-107794145D01*
X127365155Y-107790813D01*
X127121522Y-107755078D01*
X127014503Y-107677461D01*
X126990698Y-107523409D01*
X126992038Y-107454748D01*
X127015207Y-107371137D01*
X127094947Y-107320312D01*
X127266342Y-107294113D01*
X127564471Y-107284377D01*
X128024418Y-107282946D01*
X128318786Y-107283257D01*
G37*
G36*
X132503876Y-104329457D02*
G01*
X131716279Y-104329457D01*
X131716279Y-103443411D01*
X132503876Y-103443411D01*
X132503876Y-104329457D01*
G37*
G36*
X132503876Y-106790697D02*
G01*
X131716279Y-106790697D01*
X131716279Y-105904651D01*
X132503876Y-105904651D01*
X132503876Y-106790697D01*
G37*
G36*
X130827790Y-110631475D02*
G01*
X130773488Y-110884644D01*
X130629686Y-111025983D01*
X130598457Y-111037306D01*
X130394730Y-111066028D01*
X130020762Y-111087520D01*
X129471246Y-111101886D01*
X128740872Y-111109233D01*
X127824330Y-111109664D01*
X126716313Y-111103284D01*
X126692187Y-111103088D01*
X126552099Y-111101949D01*
X125625287Y-111093853D01*
X124871145Y-111085444D01*
X124268766Y-111075509D01*
X123797240Y-111062834D01*
X123435657Y-111046208D01*
X123163109Y-111024418D01*
X122958685Y-110996251D01*
X122801478Y-110960494D01*
X122670577Y-110915934D01*
X122545074Y-110861359D01*
X122270676Y-110711237D01*
X121784033Y-110325483D01*
X121388126Y-109855485D01*
X121135105Y-109356887D01*
X121046265Y-109106558D01*
X120988291Y-109014772D01*
X120944119Y-108944838D01*
X120781156Y-108872211D01*
X120492137Y-108835807D01*
X119992268Y-108716425D01*
X119514252Y-108421609D01*
X119139331Y-107965540D01*
X118880954Y-107366288D01*
X119705426Y-107366288D01*
X119960302Y-107669190D01*
X120070786Y-107789344D01*
X120297882Y-107934671D01*
X120601734Y-107972093D01*
X120988291Y-107972093D01*
X120962169Y-105141666D01*
X120962140Y-105138504D01*
X121775030Y-105138504D01*
X121775400Y-105566769D01*
X121777367Y-106431419D01*
X121781669Y-107129188D01*
X121789280Y-107681070D01*
X121801173Y-108108056D01*
X121818321Y-108431138D01*
X121841699Y-108671307D01*
X121872279Y-108849557D01*
X121911036Y-108986878D01*
X121958942Y-109104263D01*
X122094344Y-109356574D01*
X122466148Y-109783936D01*
X122977057Y-110084061D01*
X122996978Y-110092065D01*
X123132863Y-110132851D01*
X123320400Y-110165438D01*
X123580336Y-110190677D01*
X123933420Y-110209418D01*
X124400399Y-110222514D01*
X125002022Y-110230815D01*
X125759035Y-110235171D01*
X126692187Y-110236434D01*
X130042636Y-110236434D01*
X130042636Y-109193088D01*
X131179457Y-109193088D01*
X131234293Y-109204738D01*
X131451838Y-109212618D01*
X131814729Y-109215515D01*
X132168367Y-109212791D01*
X132390728Y-109205048D01*
X132450924Y-109193498D01*
X132331589Y-109179357D01*
X132191963Y-109171720D01*
X131730166Y-109164780D01*
X131297868Y-109179357D01*
X131179457Y-109193088D01*
X130042636Y-109193088D01*
X130042636Y-101966666D01*
X130830232Y-101966666D01*
X130830232Y-108267442D01*
X133586822Y-108267442D01*
X133586822Y-101966666D01*
X130830232Y-101966666D01*
X130042636Y-101966666D01*
X130042636Y-101021771D01*
X131179457Y-101021771D01*
X131234293Y-101033420D01*
X131451838Y-101041300D01*
X131814729Y-101044197D01*
X132168367Y-101041473D01*
X132390728Y-101033730D01*
X132450924Y-101022181D01*
X132331589Y-101008039D01*
X132191963Y-101000402D01*
X131730166Y-100993462D01*
X131297868Y-101008039D01*
X131179457Y-101021771D01*
X130042636Y-101021771D01*
X130042636Y-99997674D01*
X126670736Y-99999836D01*
X126553790Y-99999920D01*
X125660874Y-100001465D01*
X124940564Y-100005253D01*
X124371119Y-100012345D01*
X123930795Y-100023803D01*
X123597852Y-100040689D01*
X123350547Y-100064065D01*
X123167138Y-100094992D01*
X123025882Y-100134532D01*
X122905039Y-100183748D01*
X122652728Y-100319151D01*
X122225366Y-100690954D01*
X121925241Y-101201863D01*
X121903078Y-101261578D01*
X121866265Y-101407571D01*
X121836925Y-101610258D01*
X121814295Y-101889667D01*
X121797609Y-102265825D01*
X121786104Y-102758760D01*
X121779015Y-103388500D01*
X121775579Y-104175072D01*
X121775030Y-105138504D01*
X120962140Y-105138504D01*
X120936046Y-102311240D01*
X120614842Y-102280297D01*
X120493608Y-102275737D01*
X120250231Y-102341173D01*
X119999532Y-102543461D01*
X119705426Y-102837567D01*
X119705426Y-107366288D01*
X118880954Y-107366288D01*
X118876856Y-107356783D01*
X118870077Y-107336945D01*
X118806488Y-107258689D01*
X118665133Y-107212333D01*
X118406365Y-107190171D01*
X117990540Y-107184496D01*
X117978312Y-107184493D01*
X117558360Y-107177367D01*
X117292314Y-107151397D01*
X117138482Y-107098904D01*
X117055172Y-107012209D01*
X116974480Y-106823754D01*
X116998150Y-106591956D01*
X117201949Y-106428018D01*
X117587913Y-106330622D01*
X118158081Y-106298449D01*
X118929715Y-106298449D01*
X118899160Y-105929263D01*
X118868604Y-105560077D01*
X117992800Y-105510853D01*
X117603457Y-105483267D01*
X117291958Y-105440564D01*
X117106539Y-105378803D01*
X117008807Y-105289341D01*
X116953420Y-105157688D01*
X117008807Y-104944767D01*
X117086495Y-104867218D01*
X117255708Y-104801704D01*
X117545013Y-104756598D01*
X117992800Y-104723256D01*
X118868604Y-104674031D01*
X118899160Y-104304845D01*
X118929715Y-103935659D01*
X118147082Y-103935659D01*
X117891311Y-103932734D01*
X117539608Y-103908059D01*
X117304834Y-103850396D01*
X117135571Y-103750325D01*
X117029053Y-103655463D01*
X116960498Y-103510962D01*
X117022332Y-103311191D01*
X117075845Y-103208825D01*
X117163467Y-103123370D01*
X117315216Y-103073519D01*
X117575341Y-103046337D01*
X117988091Y-103028889D01*
X118838211Y-103000387D01*
X118968684Y-102620102D01*
X119228136Y-102125928D01*
X119620430Y-101729301D01*
X120102306Y-101469306D01*
X120633584Y-101375969D01*
X120705288Y-101375190D01*
X120896314Y-101343899D01*
X121006810Y-101227385D01*
X121098356Y-100972145D01*
X121129161Y-100883151D01*
X121357477Y-100467836D01*
X121702675Y-100042882D01*
X122113333Y-99664798D01*
X122538025Y-99390095D01*
X122597849Y-99360946D01*
X122718843Y-99307360D01*
X122848782Y-99264023D01*
X123008549Y-99229640D01*
X123219029Y-99202915D01*
X123501104Y-99182553D01*
X123875656Y-99167258D01*
X124363571Y-99155733D01*
X124985729Y-99146683D01*
X125763016Y-99138812D01*
X126716313Y-99130824D01*
X127111306Y-99127921D01*
X128154224Y-99123824D01*
X129007455Y-99126573D01*
X129676307Y-99136272D01*
X130166091Y-99153028D01*
X130482114Y-99176944D01*
X130629686Y-99208125D01*
X130683788Y-99242395D01*
X130797626Y-99409700D01*
X130830232Y-99705789D01*
X130830232Y-100096124D01*
X132048798Y-100096124D01*
X132182778Y-100096192D01*
X132680205Y-100101288D01*
X133023473Y-100123441D01*
X133247592Y-100175092D01*
X133387570Y-100268681D01*
X133478418Y-100416651D01*
X133555143Y-100631444D01*
X133662144Y-100832290D01*
X133937548Y-101013849D01*
X134009745Y-101036392D01*
X134130923Y-101076716D01*
X134228965Y-101128080D01*
X134306170Y-101209071D01*
X134364834Y-101338273D01*
X134407257Y-101534272D01*
X134435735Y-101815656D01*
X134452567Y-102201009D01*
X134460050Y-102708917D01*
X134460483Y-103357967D01*
X134456162Y-104166744D01*
X134449387Y-105153834D01*
X134423643Y-109004163D01*
X134043662Y-109201887D01*
X133748628Y-109413809D01*
X133501430Y-109744186D01*
X133339180Y-110088759D01*
X131814729Y-110122243D01*
X130830232Y-110143867D01*
X130830232Y-110531260D01*
X130827790Y-110631475D01*
G37*
G36*
X129040066Y-101449806D02*
G01*
X129037127Y-101475061D01*
X129013126Y-101595035D01*
X128949863Y-101669472D01*
X128807953Y-101711339D01*
X128548013Y-101733604D01*
X128130660Y-101749233D01*
X127956741Y-101753866D01*
X127570400Y-101756270D01*
X127274256Y-101747173D01*
X127121551Y-101727711D01*
X127036734Y-101635340D01*
X126990698Y-101428283D01*
X126990698Y-101179070D01*
X129071218Y-101179070D01*
X129040066Y-101449806D01*
G37*
G36*
X86898163Y-104929893D02*
G01*
X86923953Y-104932417D01*
X86951602Y-104940586D01*
X86984686Y-104957642D01*
X87026781Y-104986824D01*
X87081463Y-105031371D01*
X87152309Y-105094524D01*
X87242895Y-105179523D01*
X87356796Y-105289607D01*
X87497590Y-105428017D01*
X87668852Y-105597993D01*
X87874158Y-105802774D01*
X88117085Y-106045601D01*
X88199212Y-106127737D01*
X88429654Y-106358417D01*
X88623062Y-106552631D01*
X88782675Y-106713945D01*
X88911733Y-106845921D01*
X89013475Y-106952125D01*
X89091140Y-107036120D01*
X89147969Y-107101471D01*
X89187201Y-107151743D01*
X89212076Y-107190499D01*
X89225833Y-107221303D01*
X89231711Y-107247721D01*
X89232950Y-107273316D01*
X89208624Y-107384646D01*
X89139621Y-107485713D01*
X89039923Y-107556681D01*
X88923577Y-107583467D01*
X88912127Y-107583299D01*
X88882847Y-107580038D01*
X88851406Y-107569677D01*
X88813470Y-107548414D01*
X88764706Y-107512446D01*
X88700780Y-107457971D01*
X88617360Y-107381188D01*
X88510112Y-107278293D01*
X88374701Y-107145485D01*
X88206796Y-106978961D01*
X88002061Y-106774919D01*
X87191618Y-105966372D01*
X87191618Y-113509161D01*
X87092468Y-113608312D01*
X87041970Y-113654385D01*
X86967998Y-113696225D01*
X86881792Y-113707462D01*
X86871733Y-113707307D01*
X86848044Y-113704693D01*
X86821922Y-113696518D01*
X86790135Y-113679806D01*
X86749453Y-113651581D01*
X86696644Y-113608866D01*
X86628479Y-113548684D01*
X86541727Y-113468059D01*
X86433156Y-113364015D01*
X86299535Y-113233574D01*
X86137634Y-113073761D01*
X85944223Y-112881598D01*
X85716069Y-112654110D01*
X85449943Y-112388320D01*
X84129621Y-111069177D01*
X84129621Y-116571159D01*
X84030470Y-116670310D01*
X83984537Y-116712578D01*
X83908949Y-116757228D01*
X83823421Y-116769460D01*
X83774055Y-116766092D01*
X83697036Y-116737662D01*
X83616372Y-116670310D01*
X83517221Y-116571159D01*
X83517221Y-110231366D01*
X83616372Y-110132215D01*
X83666869Y-110086143D01*
X83740842Y-110044302D01*
X83827048Y-110033065D01*
X83837107Y-110033221D01*
X83860796Y-110035835D01*
X83886918Y-110044009D01*
X83918705Y-110060721D01*
X83959387Y-110088946D01*
X84012195Y-110131661D01*
X84080360Y-110191843D01*
X84167113Y-110272468D01*
X84275684Y-110376512D01*
X84409305Y-110506953D01*
X84571205Y-110666766D01*
X84764617Y-110858929D01*
X84992771Y-111086417D01*
X85258897Y-111352208D01*
X86579219Y-112671350D01*
X86579219Y-105966372D01*
X85768776Y-106774919D01*
X85686440Y-106857040D01*
X85496197Y-107046391D01*
X85341138Y-107199667D01*
X85216929Y-107320672D01*
X85119237Y-107413206D01*
X85043728Y-107481073D01*
X84986069Y-107528074D01*
X84941926Y-107558012D01*
X84906966Y-107574688D01*
X84876855Y-107581906D01*
X84847261Y-107583467D01*
X84736210Y-107559079D01*
X84635396Y-107489903D01*
X84564606Y-107389954D01*
X84537887Y-107273316D01*
X84537977Y-107264995D01*
X84540349Y-107239524D01*
X84548396Y-107212090D01*
X84565360Y-107179128D01*
X84594478Y-107137073D01*
X84638991Y-107082362D01*
X84702137Y-107011430D01*
X84787158Y-106920713D01*
X84897292Y-106806647D01*
X85035779Y-106665667D01*
X85205858Y-106494209D01*
X85410770Y-106288708D01*
X85653752Y-106045601D01*
X85775053Y-105924317D01*
X85999510Y-105700121D01*
X86188061Y-105512419D01*
X86344280Y-105357969D01*
X86471744Y-105233534D01*
X86574029Y-105135871D01*
X86654712Y-105061743D01*
X86717368Y-105007907D01*
X86765574Y-104971126D01*
X86802906Y-104948157D01*
X86832940Y-104935763D01*
X86859252Y-104930702D01*
X86885419Y-104929736D01*
X86898163Y-104929893D01*
G37*
G36*
X96278461Y-117690975D02*
G01*
X96179311Y-117790126D01*
X81636725Y-117790126D01*
X79500394Y-115653796D01*
X77364064Y-113517465D01*
X77364064Y-99841171D01*
X77976464Y-99841171D01*
X77976464Y-113284799D01*
X81446728Y-116754695D01*
X81446728Y-103500803D01*
X82059127Y-103500803D01*
X82059127Y-117177726D01*
X95765212Y-117177726D01*
X95765212Y-103500803D01*
X82059127Y-103500803D01*
X81446728Y-103500803D01*
X81446728Y-103311067D01*
X77976464Y-99841171D01*
X77364064Y-99841171D01*
X77364064Y-99388978D01*
X78404709Y-99388978D01*
X81869575Y-102882566D01*
X95336967Y-102888404D01*
X91872101Y-99394816D01*
X78404709Y-99388978D01*
X77364064Y-99388978D01*
X77364064Y-98974879D01*
X77562365Y-98776578D01*
X92104145Y-98776578D01*
X93689139Y-100358610D01*
X93896945Y-100566219D01*
X94167669Y-100837224D01*
X94435515Y-101105917D01*
X94695673Y-101367448D01*
X94943335Y-101616962D01*
X95173692Y-101849608D01*
X95381933Y-102060534D01*
X95563249Y-102244888D01*
X95712832Y-102397816D01*
X95825872Y-102514466D01*
X96185419Y-102888404D01*
X96377612Y-103088290D01*
X96377612Y-117591825D01*
X96278461Y-117690975D01*
G37*
G36*
X94079446Y-104933104D02*
G01*
X94156465Y-104961533D01*
X94237129Y-105028886D01*
X94336280Y-105128036D01*
X94336280Y-111467830D01*
X94237129Y-111566980D01*
X94186632Y-111613053D01*
X94112659Y-111654893D01*
X94026453Y-111666130D01*
X94016394Y-111665975D01*
X93992705Y-111663361D01*
X93966583Y-111655186D01*
X93934796Y-111638475D01*
X93894114Y-111610250D01*
X93841306Y-111567534D01*
X93773141Y-111507353D01*
X93686388Y-111426728D01*
X93577817Y-111322683D01*
X93444196Y-111192242D01*
X93282296Y-111032429D01*
X93088884Y-110840267D01*
X92860731Y-110612778D01*
X92594604Y-110346988D01*
X91274282Y-109027845D01*
X91274282Y-115732824D01*
X92084725Y-114924276D01*
X92167061Y-114842156D01*
X92357304Y-114652805D01*
X92512363Y-114499528D01*
X92636572Y-114378524D01*
X92734264Y-114285989D01*
X92809773Y-114218123D01*
X92867432Y-114171122D01*
X92911575Y-114141184D01*
X92946535Y-114124507D01*
X92976646Y-114117290D01*
X93006240Y-114115729D01*
X93117291Y-114140116D01*
X93218105Y-114209292D01*
X93288895Y-114309241D01*
X93315614Y-114425879D01*
X93315524Y-114434201D01*
X93313153Y-114459671D01*
X93305105Y-114487106D01*
X93288141Y-114520068D01*
X93259023Y-114562122D01*
X93214511Y-114616833D01*
X93151364Y-114687765D01*
X93066343Y-114778482D01*
X92956209Y-114892549D01*
X92817722Y-115033529D01*
X92647643Y-115204987D01*
X92442732Y-115410487D01*
X92199749Y-115653595D01*
X92078448Y-115774879D01*
X91853991Y-115999074D01*
X91665440Y-116186777D01*
X91509221Y-116341226D01*
X91381757Y-116465662D01*
X91279472Y-116563324D01*
X91198789Y-116637453D01*
X91136133Y-116691288D01*
X91087927Y-116728070D01*
X91050595Y-116751038D01*
X91020561Y-116763432D01*
X90994249Y-116768493D01*
X90968082Y-116769460D01*
X90955339Y-116769303D01*
X90929548Y-116766779D01*
X90901899Y-116758609D01*
X90868816Y-116741553D01*
X90826720Y-116712372D01*
X90772038Y-116667824D01*
X90701192Y-116604671D01*
X90610606Y-116519672D01*
X90496705Y-116409588D01*
X90355911Y-116271178D01*
X90184649Y-116101202D01*
X89979343Y-115896421D01*
X89736416Y-115653595D01*
X89654289Y-115571459D01*
X89423847Y-115340779D01*
X89230439Y-115146564D01*
X89070826Y-114985251D01*
X88941768Y-114853274D01*
X88840026Y-114747071D01*
X88762361Y-114663075D01*
X88705532Y-114597724D01*
X88666300Y-114547453D01*
X88641425Y-114508697D01*
X88627669Y-114477892D01*
X88621790Y-114451475D01*
X88620551Y-114425879D01*
X88644877Y-114314550D01*
X88713880Y-114213482D01*
X88813578Y-114142514D01*
X88929924Y-114115729D01*
X88941374Y-114115897D01*
X88970654Y-114119158D01*
X89002096Y-114129519D01*
X89040031Y-114150782D01*
X89088795Y-114186750D01*
X89152721Y-114241224D01*
X89236141Y-114318008D01*
X89343389Y-114420903D01*
X89478800Y-114553711D01*
X89646706Y-114720235D01*
X89851440Y-114924276D01*
X90661883Y-115732824D01*
X90661883Y-108190034D01*
X90761033Y-108090884D01*
X90811531Y-108044811D01*
X90885504Y-108002971D01*
X90971710Y-107991733D01*
X90981768Y-107991889D01*
X91005457Y-107994503D01*
X91031579Y-108002677D01*
X91063366Y-108019389D01*
X91104048Y-108047614D01*
X91156857Y-108090329D01*
X91225022Y-108150511D01*
X91311774Y-108231136D01*
X91420345Y-108335181D01*
X91553966Y-108465621D01*
X91715867Y-108625435D01*
X91909278Y-108817597D01*
X92137432Y-109045085D01*
X92403558Y-109310876D01*
X93723880Y-110630018D01*
X93723880Y-105128036D01*
X93823031Y-105028886D01*
X93868964Y-104986617D01*
X93944552Y-104941968D01*
X94030080Y-104929736D01*
X94079446Y-104933104D01*
G37*
%TD*%
M02*
