M48
; DRILL file {KiCad (6.0.7)} date Sun Nov 13 02:02:33 2022
; FORMAT={-:-/ absolute / inch / decimal}
; #@! TF.CreationDate,2022-11-13T02:02:33+01:00
; #@! TF.GenerationSoftware,Kicad,Pcbnew,(6.0.7)
; #@! TF.FileFunction,Plated,1,4,PTH
FMAT,2
INCH
; #@! TA.AperFunction,Plated,PTH,ComponentDrill
T1C0.0079
; #@! TA.AperFunction,Plated,PTH,ViaDrill
T2C0.0118
; #@! TA.AperFunction,Plated,PTH,ComponentDrill
T3C0.0354
%
G90
G05
T1
X3.5394Y-3.9094
X3.5394Y-3.9488
X3.5394Y-3.9882
X3.5394Y-4.0276
X3.5394Y-4.0669
X3.5394Y-4.1063
X3.5394Y-4.1457
X3.5394Y-4.185
X3.5787Y-3.9094
X3.5787Y-3.9488
X3.5787Y-3.9882
X3.5787Y-4.0276
X3.5787Y-4.0669
X3.5787Y-4.1063
X3.5787Y-4.1457
X3.5787Y-4.185
X3.6181Y-3.9094
X3.6181Y-3.9488
X3.6181Y-3.9882
X3.6181Y-4.0276
X3.6181Y-4.0669
X3.6181Y-4.1063
X3.6181Y-4.1457
X3.6181Y-4.185
X3.6575Y-3.9094
X3.6575Y-3.9488
X3.6575Y-3.9882
X3.6575Y-4.0276
X3.6575Y-4.0669
X3.6575Y-4.1063
X3.6575Y-4.1457
X3.6575Y-4.185
X3.6969Y-3.9094
X3.6969Y-3.9488
X3.6969Y-3.9882
X3.6969Y-4.0276
X3.6969Y-4.0669
X3.6969Y-4.1063
X3.6969Y-4.1457
X3.6969Y-4.185
X3.7362Y-3.9094
X3.7362Y-3.9488
X3.7362Y-3.9882
X3.7362Y-4.0276
X3.7362Y-4.0669
X3.7362Y-4.1063
X3.7362Y-4.1457
X3.7362Y-4.185
X3.7756Y-3.9094
X3.7756Y-3.9488
X3.7756Y-3.9882
X3.7756Y-4.0276
X3.7756Y-4.0669
X3.7756Y-4.1063
X3.7756Y-4.1457
X3.7756Y-4.185
X3.815Y-3.9094
X3.815Y-3.9488
X3.815Y-3.9882
X3.815Y-4.0276
X3.815Y-4.0669
X3.815Y-4.1063
X3.815Y-4.1457
X3.815Y-4.185
T2
X3.2003Y-3.6885
X3.2067Y-3.6516
X3.2319Y-3.7182
X3.2382Y-3.689
X3.2488Y-3.7399
X3.2605Y-3.7739
X3.2756Y-3.8268
X3.3189Y-3.8799
X3.3223Y-4.0403
X3.3347Y-3.8169
X3.342Y-3.9828
X3.3654Y-4.0283
X3.4094Y-3.5768
X3.4094Y-4.4606
X3.4252Y-4.3799
X3.4272Y-4.435
X3.4391Y-3.6084
X3.4444Y-3.5724
X3.4647Y-3.6439
X3.4685Y-3.8268
X3.4731Y-3.605
X3.4941Y-4.4705
X3.5027Y-3.6366
X3.5236Y-4.4803
X3.5237Y-3.6544
X3.5507Y-3.66
X3.5579Y-4.3504
X3.5807Y-4.3937
X3.5867Y-3.479
X3.587Y-3.4492
X3.6076Y-4.3842
X3.6191Y-4.4562
X3.6215Y-3.4758
X3.6285Y-3.5207
X3.6327Y-4.3661
X3.6496Y-3.4665
X3.6549Y-3.5098
X3.6555Y-4.3862
X3.6597Y-3.5507
X3.6728Y-4.4566
X3.6772Y-4.3661
X3.6988Y-4.3878
X3.6992Y-3.5309
X3.7088Y-3.5598
X3.7224Y-4.3661
X3.7283Y-4.4582
X3.7317Y-3.5207
X3.748Y-4.3878
X3.7533Y-3.5453
X3.7772Y-3.5227
X3.7777Y-4.4568
X3.7988Y-3.5435
X3.815Y-3.6772
X3.8179Y-4.378
X3.8208Y-3.5217
X3.8326Y-4.4626
X3.838Y-3.6491
X3.8406Y-3.6988
X3.8425Y-3.5445
X3.8642Y-3.5217
X3.8729Y-3.6977
X3.8858Y-3.5463
X3.8858Y-4.4606
X3.8878Y-4.376
X3.9114Y-4.3957
X3.9154Y-4.3681
X3.9331Y-3.8189
X3.937Y-4.4626
X3.9469Y-4.3661
X3.9488Y-4.2972
X3.9566Y-4.3404
X3.9769Y-3.9587
X3.9902Y-4.4626
X3.9994Y-3.9429
X4.0197Y-4.2028
X4.0266Y-3.9385
X4.0276Y-3.7776
X4.0295Y-3.8563
X4.0394Y-4.4626
X4.0464Y-3.9577
X4.0479Y-4.0177
X4.0591Y-4.3602
X4.0625Y-4.1206
X4.0735Y-4.0279
X4.0866Y-3.6398
X4.0866Y-3.8898
X4.101Y-4.03
X4.1262Y-4.0411
X4.1378Y-4.0866
X4.1594Y-4.3957
X4.166Y-3.9563
X4.1693Y-4.1161
X4.1693Y-4.1437
X4.1718Y-3.8766
X4.1772Y-3.9036
X4.1772Y-3.9311
X4.1949Y-3.6398
X4.2264Y-3.6417
X4.2598Y-4.5965
X4.2688Y-4.385
X4.3361Y-4.2888
X4.3406Y-4.2034
X4.3425Y-3.9823
X4.3425Y-4.1004
X4.3425Y-4.1594
X4.3445Y-4.0413
X4.3661Y-4.4311
X4.4173Y-3.8602
X4.4193Y-4.435
X4.4291Y-4.5689
X4.4311Y-4.1988
X4.4429Y-4.6004
X4.4508Y-4.2224
X4.4724Y-3.0236
X4.4744Y-4.5689
X4.4764Y-3.311
X4.4862Y-3.1575
X4.5039Y-3.0236
X4.5276Y-3.1102
X4.5276Y-3.1496
X4.6575Y-3.0748
X4.6575Y-3.1772
T3
G00X4.9452Y-3.8546
M15
G01X5.016Y-3.8546
M16
G05
G00X4.9452Y-4.4254
M15
G01X5.016Y-4.4254
M16
G05
G00X5.1995Y-3.8546
M15
G01X5.231Y-3.8546
M16
G05
G00X5.1995Y-4.4254
M15
G01X5.231Y-4.4254
M16
G05
T0
M30
