%TF.GenerationSoftware,KiCad,Pcbnew,(6.0.7)*%
%TF.CreationDate,2022-11-13T02:02:31+01:00*%
%TF.ProjectId,TTL_to_HDMI,54544c5f-746f-45f4-9844-4d492e6b6963,rev?*%
%TF.SameCoordinates,Original*%
%TF.FileFunction,Soldermask,Top*%
%TF.FilePolarity,Negative*%
%FSLAX46Y46*%
G04 Gerber Fmt 4.6, Leading zero omitted, Abs format (unit mm)*
G04 Created by KiCad (PCBNEW (6.0.7)) date 2022-11-13 02:02:31*
%MOMM*%
%LPD*%
G01*
G04 APERTURE LIST*
G04 Aperture macros list*
%AMRoundRect*
0 Rectangle with rounded corners*
0 $1 Rounding radius*
0 $2 $3 $4 $5 $6 $7 $8 $9 X,Y pos of 4 corners*
0 Add a 4 corners polygon primitive as box body*
4,1,4,$2,$3,$4,$5,$6,$7,$8,$9,$2,$3,0*
0 Add four circle primitives for the rounded corners*
1,1,$1+$1,$2,$3*
1,1,$1+$1,$4,$5*
1,1,$1+$1,$6,$7*
1,1,$1+$1,$8,$9*
0 Add four rect primitives between the rounded corners*
20,1,$1+$1,$2,$3,$4,$5,0*
20,1,$1+$1,$4,$5,$6,$7,0*
20,1,$1+$1,$6,$7,$8,$9,0*
20,1,$1+$1,$8,$9,$2,$3,0*%
G04 Aperture macros list end*
%ADD10RoundRect,0.225000X-0.225000X-0.250000X0.225000X-0.250000X0.225000X0.250000X-0.225000X0.250000X0*%
%ADD11RoundRect,0.225000X0.225000X0.250000X-0.225000X0.250000X-0.225000X-0.250000X0.225000X-0.250000X0*%
%ADD12RoundRect,0.200000X0.200000X0.275000X-0.200000X0.275000X-0.200000X-0.275000X0.200000X-0.275000X0*%
%ADD13RoundRect,0.200000X-0.275000X0.200000X-0.275000X-0.200000X0.275000X-0.200000X0.275000X0.200000X0*%
%ADD14R,1.300000X0.300000*%
%ADD15R,2.200000X1.800000*%
%ADD16RoundRect,0.200000X-0.200000X-0.275000X0.200000X-0.275000X0.200000X0.275000X-0.200000X0.275000X0*%
%ADD17RoundRect,0.200000X0.275000X-0.200000X0.275000X0.200000X-0.275000X0.200000X-0.275000X-0.200000X0*%
%ADD18R,0.300000X1.300000*%
%ADD19R,1.800000X2.200000*%
%ADD20R,4.400000X4.400000*%
%ADD21R,0.300000X1.500000*%
%ADD22R,1.500000X0.300000*%
%ADD23R,2.600000X0.300000*%
%ADD24O,3.300000X1.500000*%
%ADD25O,2.300000X1.500000*%
%ADD26RoundRect,0.225000X0.250000X-0.225000X0.250000X0.225000X-0.250000X0.225000X-0.250000X-0.225000X0*%
%ADD27R,2.000000X1.200000*%
%ADD28RoundRect,0.250000X0.250000X0.475000X-0.250000X0.475000X-0.250000X-0.475000X0.250000X-0.475000X0*%
%ADD29RoundRect,0.150000X0.512500X0.150000X-0.512500X0.150000X-0.512500X-0.150000X0.512500X-0.150000X0*%
G04 APERTURE END LIST*
D10*
%TO.C,C6*%
X87925000Y-112600000D03*
X89475000Y-112600000D03*
%TD*%
D11*
%TO.C,C11*%
X109225000Y-110700000D03*
X107675000Y-110700000D03*
%TD*%
D12*
%TO.C,R22*%
X102825000Y-109350000D03*
X101175000Y-109350000D03*
%TD*%
D13*
%TO.C,R2*%
X95300000Y-114125000D03*
X95300000Y-115775000D03*
%TD*%
%TO.C,R14*%
X92600000Y-112475000D03*
X92600000Y-114125000D03*
%TD*%
D14*
%TO.C,J3*%
X111434000Y-109656000D03*
X111434000Y-109156000D03*
X111434000Y-108656000D03*
X111434000Y-108156000D03*
X111434000Y-107656000D03*
X111434000Y-107156000D03*
X111434000Y-106656000D03*
X111434000Y-106156000D03*
X111434000Y-105656000D03*
X111434000Y-105156000D03*
X111434000Y-104656000D03*
X111434000Y-104156000D03*
X111434000Y-103656000D03*
X111434000Y-103156000D03*
X111434000Y-102656000D03*
X111434000Y-102156000D03*
X111434000Y-101656000D03*
X111434000Y-101156000D03*
X111434000Y-100656000D03*
D15*
X114684000Y-98756000D03*
X114684000Y-111556000D03*
%TD*%
D13*
%TO.C,R7*%
X96650000Y-112475000D03*
X96650000Y-114125000D03*
%TD*%
D16*
%TO.C,R42*%
X109325000Y-85200000D03*
X110975000Y-85200000D03*
%TD*%
D17*
%TO.C,R36*%
X113650000Y-115175000D03*
X113650000Y-113525000D03*
%TD*%
D16*
%TO.C,R30*%
X106800000Y-102850000D03*
X108450000Y-102850000D03*
%TD*%
D13*
%TO.C,R6*%
X98000000Y-114125000D03*
X98000000Y-115775000D03*
%TD*%
%TO.C,R4*%
X103800000Y-96275000D03*
X103800000Y-97925000D03*
%TD*%
D11*
%TO.C,C9*%
X112875000Y-79250000D03*
X111325000Y-79250000D03*
%TD*%
D17*
%TO.C,R26*%
X108200000Y-115175000D03*
X108200000Y-113525000D03*
%TD*%
D10*
%TO.C,C4*%
X87925000Y-111250000D03*
X89475000Y-111250000D03*
%TD*%
D18*
%TO.C,U2*%
X79500000Y-85000000D03*
X80000000Y-85000000D03*
X80500000Y-85000000D03*
X81000000Y-85000000D03*
X81500000Y-85000000D03*
X82000000Y-85000000D03*
X82500000Y-85000000D03*
X83000000Y-85000000D03*
X83500000Y-85000000D03*
X84000000Y-85000000D03*
X84500000Y-85000000D03*
X85000000Y-85000000D03*
X85500000Y-85000000D03*
X86000000Y-85000000D03*
X86500000Y-85000000D03*
X87000000Y-85000000D03*
X87500000Y-85000000D03*
X88000000Y-85000000D03*
X88500000Y-85000000D03*
X89000000Y-85000000D03*
X89500000Y-85000000D03*
X90000000Y-85000000D03*
X90500000Y-85000000D03*
X91000000Y-85000000D03*
X91500000Y-85000000D03*
X92000000Y-85000000D03*
X92500000Y-85000000D03*
X93000000Y-85000000D03*
X93500000Y-85000000D03*
X94000000Y-85000000D03*
X94500000Y-85000000D03*
X95000000Y-85000000D03*
X95500000Y-85000000D03*
X96000000Y-85000000D03*
X96500000Y-85000000D03*
X97000000Y-85000000D03*
X97500000Y-85000000D03*
X98000000Y-85000000D03*
X98500000Y-85000000D03*
X99000000Y-85000000D03*
X99500000Y-85000000D03*
X100000000Y-85000000D03*
X100500000Y-85000000D03*
X101000000Y-85000000D03*
X101500000Y-85000000D03*
X102000000Y-85000000D03*
X102500000Y-85000000D03*
X103000000Y-85000000D03*
X103500000Y-85000000D03*
X104000000Y-85000000D03*
D19*
X77600000Y-88250000D03*
X105900000Y-88250000D03*
%TD*%
D17*
%TO.C,R11*%
X106550000Y-94975000D03*
X106550000Y-93325000D03*
%TD*%
D16*
%TO.C,R31*%
X106775000Y-104200000D03*
X108425000Y-104200000D03*
%TD*%
D13*
%TO.C,R16*%
X91250000Y-112475000D03*
X91250000Y-114125000D03*
%TD*%
D17*
%TO.C,R25*%
X86600000Y-115775000D03*
X86600000Y-114125000D03*
%TD*%
D13*
%TO.C,R40*%
X109550000Y-113525000D03*
X109550000Y-115175000D03*
%TD*%
D11*
%TO.C,C10*%
X109225000Y-112050000D03*
X107675000Y-112050000D03*
%TD*%
D17*
%TO.C,R37*%
X110900000Y-115175000D03*
X110900000Y-113525000D03*
%TD*%
D13*
%TO.C,R9*%
X99350000Y-112525000D03*
X99350000Y-114175000D03*
%TD*%
D16*
%TO.C,R32*%
X106750000Y-105550000D03*
X108400000Y-105550000D03*
%TD*%
D17*
%TO.C,R35*%
X112250000Y-115175000D03*
X112250000Y-113525000D03*
%TD*%
%TO.C,R38*%
X105500000Y-115175000D03*
X105500000Y-113525000D03*
%TD*%
D20*
%TO.C,U3*%
X93400000Y-102800000D03*
D21*
X89650000Y-108500000D03*
X90150000Y-108500000D03*
X90650000Y-108500000D03*
X91150000Y-108500000D03*
X91650000Y-108500000D03*
X92150000Y-108500000D03*
X92650000Y-108500000D03*
X93150000Y-108500000D03*
X93650000Y-108500000D03*
X94150000Y-108500000D03*
X94650000Y-108500000D03*
X95150000Y-108500000D03*
X95650000Y-108500000D03*
X96150000Y-108500000D03*
X96650000Y-108500000D03*
X97150000Y-108500000D03*
D22*
X99100000Y-106550000D03*
X99100000Y-106050000D03*
X99100000Y-105550000D03*
X99100000Y-105050000D03*
X99100000Y-104550000D03*
X99100000Y-104050000D03*
X99100000Y-103550000D03*
X99100000Y-103050000D03*
X99100000Y-102550000D03*
X99100000Y-102050000D03*
X99100000Y-101550000D03*
X99100000Y-101050000D03*
X99100000Y-100550000D03*
X99100000Y-100050000D03*
X99100000Y-99550000D03*
X99100000Y-99050000D03*
D21*
X97150000Y-97100000D03*
X96650000Y-97100000D03*
X96150000Y-97100000D03*
X95650000Y-97100000D03*
X95150000Y-97100000D03*
X94650000Y-97100000D03*
X94150000Y-97100000D03*
X93650000Y-97100000D03*
X93150000Y-97100000D03*
X92650000Y-97100000D03*
X92150000Y-97100000D03*
X91650000Y-97100000D03*
X91150000Y-97100000D03*
X90650000Y-97100000D03*
X90150000Y-97100000D03*
X89650000Y-97100000D03*
D22*
X87700000Y-99050000D03*
X87700000Y-99550000D03*
X87700000Y-100050000D03*
X87700000Y-100550000D03*
X87700000Y-101050000D03*
X87700000Y-101550000D03*
X87700000Y-102050000D03*
X87700000Y-102550000D03*
X87700000Y-103050000D03*
X87700000Y-103550000D03*
X87700000Y-104050000D03*
X87700000Y-104550000D03*
X87700000Y-105050000D03*
X87700000Y-105550000D03*
X87700000Y-106050000D03*
X87700000Y-106550000D03*
%TD*%
D18*
%TO.C,U1*%
X104000000Y-79050000D03*
X103500000Y-79050000D03*
X103000000Y-79050000D03*
X102500000Y-79050000D03*
X102000000Y-79050000D03*
X101500000Y-79050000D03*
X101000000Y-79050000D03*
X100500000Y-79050000D03*
X100000000Y-79050000D03*
X99500000Y-79050000D03*
X99000000Y-79050000D03*
X98500000Y-79050000D03*
X98000000Y-79050000D03*
X97500000Y-79050000D03*
X97000000Y-79050000D03*
X96500000Y-79050000D03*
X96000000Y-79050000D03*
X95500000Y-79050000D03*
X95000000Y-79050000D03*
X94500000Y-79050000D03*
X94000000Y-79050000D03*
X93500000Y-79050000D03*
X93000000Y-79050000D03*
X92500000Y-79050000D03*
X92000000Y-79050000D03*
X91500000Y-79050000D03*
X91000000Y-79050000D03*
X90500000Y-79050000D03*
X90000000Y-79050000D03*
X89500000Y-79050000D03*
X89000000Y-79050000D03*
X88500000Y-79050000D03*
X88000000Y-79050000D03*
X87500000Y-79050000D03*
X87000000Y-79050000D03*
X86500000Y-79050000D03*
X86000000Y-79050000D03*
X85500000Y-79050000D03*
X85000000Y-79050000D03*
X84500000Y-79050000D03*
X84000000Y-79050000D03*
X83500000Y-79050000D03*
X83000000Y-79050000D03*
X82500000Y-79050000D03*
X82000000Y-79050000D03*
X81500000Y-79050000D03*
X81000000Y-79050000D03*
X80500000Y-79050000D03*
X80000000Y-79050000D03*
X79500000Y-79050000D03*
D19*
X77600000Y-75800000D03*
X105900000Y-75800000D03*
%TD*%
D16*
%TO.C,R33*%
X106750000Y-106900000D03*
X108400000Y-106900000D03*
%TD*%
D13*
%TO.C,R21*%
X100700000Y-114175000D03*
X100700000Y-115825000D03*
%TD*%
%TO.C,R12*%
X93950000Y-112475000D03*
X93950000Y-114125000D03*
%TD*%
D23*
%TO.C,J1*%
X125747000Y-100656000D03*
X125747000Y-101156000D03*
X125747000Y-101656000D03*
X125747000Y-102156000D03*
X125747000Y-102656000D03*
X125747000Y-103156000D03*
X125747000Y-103656000D03*
X125747000Y-104156000D03*
X125747000Y-104656000D03*
X125747000Y-105156000D03*
X125747000Y-105656000D03*
X125747000Y-106156000D03*
X125747000Y-106656000D03*
X125747000Y-107156000D03*
X125747000Y-107656000D03*
X125747000Y-108156000D03*
X125747000Y-108656000D03*
X125747000Y-109156000D03*
X125747000Y-109656000D03*
D24*
X126507000Y-97906000D03*
X126507000Y-112406000D03*
D25*
X132467000Y-97906000D03*
X132467000Y-112406000D03*
%TD*%
D10*
%TO.C,C8*%
X104075000Y-110750000D03*
X105625000Y-110750000D03*
%TD*%
D14*
%TO.C,J2*%
X120783000Y-100656000D03*
X120783000Y-101156000D03*
X120783000Y-101656000D03*
X120783000Y-102156000D03*
X120783000Y-102656000D03*
X120783000Y-103156000D03*
X120783000Y-103656000D03*
X120783000Y-104156000D03*
X120783000Y-104656000D03*
X120783000Y-105156000D03*
X120783000Y-105656000D03*
X120783000Y-106156000D03*
X120783000Y-106656000D03*
X120783000Y-107156000D03*
X120783000Y-107656000D03*
X120783000Y-108156000D03*
X120783000Y-108656000D03*
X120783000Y-109156000D03*
X120783000Y-109656000D03*
D15*
X117533000Y-111556000D03*
X117533000Y-98756000D03*
%TD*%
D11*
%TO.C,C1*%
X101425000Y-95950000D03*
X99875000Y-95950000D03*
%TD*%
D26*
%TO.C,C5*%
X101350000Y-107775000D03*
X101350000Y-106225000D03*
%TD*%
D17*
%TO.C,R39*%
X106850000Y-115175000D03*
X106850000Y-113525000D03*
%TD*%
D13*
%TO.C,R15*%
X92600000Y-114125000D03*
X92600000Y-115775000D03*
%TD*%
D27*
%TO.C,L1*%
X116600000Y-81050000D03*
X116600000Y-77850000D03*
%TD*%
D28*
%TO.C,D1*%
X111450000Y-116850000D03*
X109550000Y-116850000D03*
%TD*%
D10*
%TO.C,C12*%
X112875000Y-77850000D03*
X114425000Y-77850000D03*
%TD*%
D13*
%TO.C,R20*%
X100700000Y-112525000D03*
X100700000Y-114175000D03*
%TD*%
%TO.C,R17*%
X91250000Y-114125000D03*
X91250000Y-115775000D03*
%TD*%
%TO.C,R19*%
X102050000Y-114175000D03*
X102050000Y-115825000D03*
%TD*%
%TO.C,R18*%
X102050000Y-112525000D03*
X102050000Y-114175000D03*
%TD*%
D11*
%TO.C,C2*%
X101425000Y-97950000D03*
X99875000Y-97950000D03*
%TD*%
D13*
%TO.C,R13*%
X93950000Y-114125000D03*
X93950000Y-115775000D03*
%TD*%
%TO.C,R3*%
X103800000Y-93325000D03*
X103800000Y-94975000D03*
%TD*%
D16*
%TO.C,R28*%
X106850000Y-100150000D03*
X108500000Y-100150000D03*
%TD*%
%TO.C,R29*%
X106850000Y-101500000D03*
X108500000Y-101500000D03*
%TD*%
D11*
%TO.C,C7*%
X97875000Y-111150000D03*
X96325000Y-111150000D03*
%TD*%
D29*
%TO.C,U4*%
X114287500Y-83300000D03*
X114287500Y-82350000D03*
X114287500Y-81400000D03*
X112012500Y-81400000D03*
X112012500Y-82350000D03*
X112012500Y-83300000D03*
%TD*%
D13*
%TO.C,R24*%
X87950000Y-114125000D03*
X87950000Y-115775000D03*
%TD*%
D16*
%TO.C,R41*%
X112275000Y-85200000D03*
X113925000Y-85200000D03*
%TD*%
D13*
%TO.C,R8*%
X96650000Y-114125000D03*
X96650000Y-115775000D03*
%TD*%
D16*
%TO.C,R34*%
X106725000Y-108250000D03*
X108375000Y-108250000D03*
%TD*%
D13*
%TO.C,R5*%
X98000000Y-112475000D03*
X98000000Y-114125000D03*
%TD*%
%TO.C,R10*%
X99350000Y-114175000D03*
X99350000Y-115825000D03*
%TD*%
D11*
%TO.C,C3*%
X104175000Y-103800000D03*
X102625000Y-103800000D03*
%TD*%
D13*
%TO.C,R1*%
X95300000Y-112475000D03*
X95300000Y-114125000D03*
%TD*%
D16*
%TO.C,R27*%
X106850000Y-98800000D03*
X108500000Y-98800000D03*
%TD*%
G36*
X112194945Y-73901798D02*
G01*
X112220004Y-73920004D01*
X113879996Y-75579996D01*
X113907773Y-75634513D01*
X113898202Y-75694945D01*
X113879996Y-75720004D01*
X113520004Y-76079996D01*
X113465487Y-76107773D01*
X113405055Y-76098202D01*
X113379996Y-76079996D01*
X111720004Y-74420004D01*
X111692227Y-74365487D01*
X111701798Y-74305055D01*
X111720004Y-74279996D01*
X112079996Y-73920004D01*
X112134513Y-73892227D01*
X112194945Y-73901798D01*
G37*
G36*
X109644945Y-73851798D02*
G01*
X109670004Y-73870004D01*
X111329996Y-75529996D01*
X111357773Y-75584513D01*
X111348202Y-75644945D01*
X111329996Y-75670004D01*
X110970004Y-76029996D01*
X110915487Y-76057773D01*
X110855055Y-76048202D01*
X110829996Y-76029996D01*
X109170004Y-74370004D01*
X109142227Y-74315487D01*
X109151798Y-74255055D01*
X109170004Y-74229996D01*
X109529996Y-73870004D01*
X109584513Y-73842227D01*
X109644945Y-73851798D01*
G37*
G36*
X114694945Y-73901798D02*
G01*
X114720004Y-73920004D01*
X116379996Y-75579996D01*
X116407773Y-75634513D01*
X116398202Y-75694945D01*
X116379996Y-75720004D01*
X116020004Y-76079996D01*
X115965487Y-76107773D01*
X115905055Y-76098202D01*
X115879996Y-76079996D01*
X114220004Y-74420004D01*
X114192227Y-74365487D01*
X114201798Y-74305055D01*
X114220004Y-74279996D01*
X114579996Y-73920004D01*
X114634513Y-73892227D01*
X114694945Y-73901798D01*
G37*
M02*
