%TF.GenerationSoftware,KiCad,Pcbnew,(6.0.7)*%
%TF.CreationDate,2022-11-13T02:02:31+01:00*%
%TF.ProjectId,TTL_to_HDMI,54544c5f-746f-45f4-9844-4d492e6b6963,rev?*%
%TF.SameCoordinates,Original*%
%TF.FileFunction,Legend,Top*%
%TF.FilePolarity,Positive*%
%FSLAX46Y46*%
G04 Gerber Fmt 4.6, Leading zero omitted, Abs format (unit mm)*
G04 Created by KiCad (PCBNEW (6.0.7)) date 2022-11-13 02:02:31*
%MOMM*%
%LPD*%
G01*
G04 APERTURE LIST*
%ADD10C,0.150000*%
%ADD11C,0.100000*%
%ADD12C,0.300000*%
%ADD13C,0.120000*%
G04 APERTURE END LIST*
D10*
X94500000Y-82000000D02*
X94500000Y-82400000D01*
X96000000Y-112700000D02*
X96000000Y-112100000D01*
X90500000Y-82000000D02*
X90500000Y-81600000D01*
X86000000Y-82500000D02*
X86000000Y-84100000D01*
X98500000Y-82000000D02*
X98500000Y-81600000D01*
X93200000Y-82000000D02*
X94500000Y-82000000D01*
X94500000Y-82000000D02*
X94500000Y-81600000D01*
X87000000Y-81600000D02*
X87000000Y-82400000D01*
X116000000Y-97000000D02*
X116000000Y-112800000D01*
X96000000Y-112100000D02*
X95700000Y-111800000D01*
X89200000Y-82000000D02*
X90500000Y-82000000D01*
X86000000Y-80100000D02*
X86000000Y-81500000D01*
X95000000Y-82400000D02*
X95000000Y-82000000D01*
X91000000Y-82400000D02*
X91000000Y-82000000D01*
X97200000Y-82000000D02*
X98500000Y-82000000D01*
D11*
X120000000Y-100200000D02*
X120000000Y-110000000D01*
D10*
X90500000Y-82000000D02*
X90500000Y-82400000D01*
X88200000Y-82000000D02*
X87000000Y-82000000D01*
X96200000Y-82000000D02*
X95000000Y-82000000D01*
X95000000Y-81600000D02*
X95000000Y-82400000D01*
X87000000Y-82400000D02*
X87000000Y-82000000D01*
X98500000Y-82000000D02*
X98500000Y-82400000D01*
X95300000Y-111800000D02*
X95700000Y-111800000D01*
X96600000Y-113300000D02*
X96000000Y-112700000D01*
X92200000Y-82000000D02*
X91000000Y-82000000D01*
X91000000Y-81600000D02*
X91000000Y-82400000D01*
X86357142Y-81690476D02*
X86404761Y-81738095D01*
X86452380Y-81880952D01*
X86452380Y-81976190D01*
X86404761Y-82119047D01*
X86309523Y-82214285D01*
X86214285Y-82261904D01*
X86023809Y-82309523D01*
X85880952Y-82309523D01*
X85690476Y-82261904D01*
X85595238Y-82214285D01*
X85500000Y-82119047D01*
X85452380Y-81976190D01*
X85452380Y-81880952D01*
X85500000Y-81738095D01*
X85547619Y-81690476D01*
X103352380Y-82190476D02*
X103352380Y-82666666D01*
X103828571Y-82714285D01*
X103780952Y-82666666D01*
X103733333Y-82571428D01*
X103733333Y-82333333D01*
X103780952Y-82238095D01*
X103828571Y-82190476D01*
X103923809Y-82142857D01*
X104161904Y-82142857D01*
X104257142Y-82190476D01*
X104304761Y-82238095D01*
X104352380Y-82333333D01*
X104352380Y-82571428D01*
X104304761Y-82666666D01*
X104257142Y-82714285D01*
X103352380Y-81857142D02*
X104352380Y-81523809D01*
X103352380Y-81190476D01*
X96771428Y-82028571D02*
X96914285Y-82076190D01*
X96961904Y-82123809D01*
X97009523Y-82219047D01*
X97009523Y-82361904D01*
X96961904Y-82457142D01*
X96914285Y-82504761D01*
X96819047Y-82552380D01*
X96438095Y-82552380D01*
X96438095Y-81552380D01*
X96771428Y-81552380D01*
X96866666Y-81600000D01*
X96914285Y-81647619D01*
X96961904Y-81742857D01*
X96961904Y-81838095D01*
X96914285Y-81933333D01*
X96866666Y-81980952D01*
X96771428Y-82028571D01*
X96438095Y-82028571D01*
X114538095Y-72600000D02*
X114442857Y-72552380D01*
X114300000Y-72552380D01*
X114157142Y-72600000D01*
X114061904Y-72695238D01*
X114014285Y-72790476D01*
X113966666Y-72980952D01*
X113966666Y-73123809D01*
X114014285Y-73314285D01*
X114061904Y-73409523D01*
X114157142Y-73504761D01*
X114300000Y-73552380D01*
X114395238Y-73552380D01*
X114538095Y-73504761D01*
X114585714Y-73457142D01*
X114585714Y-73123809D01*
X114395238Y-73123809D01*
X115014285Y-73552380D02*
X115014285Y-72552380D01*
X115585714Y-73552380D01*
X115585714Y-72552380D01*
X116061904Y-73552380D02*
X116061904Y-72552380D01*
X116300000Y-72552380D01*
X116442857Y-72600000D01*
X116538095Y-72695238D01*
X116585714Y-72790476D01*
X116633333Y-72980952D01*
X116633333Y-73123809D01*
X116585714Y-73314285D01*
X116538095Y-73409523D01*
X116442857Y-73504761D01*
X116300000Y-73552380D01*
X116061904Y-73552380D01*
X89009523Y-82552380D02*
X88676190Y-82076190D01*
X88438095Y-82552380D02*
X88438095Y-81552380D01*
X88819047Y-81552380D01*
X88914285Y-81600000D01*
X88961904Y-81647619D01*
X89009523Y-81742857D01*
X89009523Y-81885714D01*
X88961904Y-81980952D01*
X88914285Y-82028571D01*
X88819047Y-82076190D01*
X88438095Y-82076190D01*
D12*
X81086396Y-111361274D02*
X81099929Y-111135803D01*
X81150437Y-111048322D01*
X81269939Y-110942353D01*
X81476923Y-110886891D01*
X81633400Y-110918912D01*
X81720882Y-110969420D01*
X81826851Y-111088922D01*
X81974747Y-111640880D01*
X80525858Y-112029108D01*
X80396449Y-111546145D01*
X80428469Y-111389669D01*
X80478977Y-111302187D01*
X80598479Y-111196218D01*
X80736469Y-111159244D01*
X80892945Y-111191265D01*
X80980427Y-111241772D01*
X81086396Y-111361274D01*
X81215805Y-111844237D01*
X81586519Y-110191991D02*
X80620593Y-110450810D01*
X80896572Y-110376862D02*
X80740095Y-110344841D01*
X80652613Y-110294333D01*
X80546644Y-110174831D01*
X80509670Y-110036842D01*
X80213877Y-108932926D02*
X81179803Y-108674107D01*
X80380261Y-109553879D02*
X81139202Y-109350521D01*
X81258705Y-109244552D01*
X81290725Y-109088076D01*
X81235264Y-108881091D01*
X81129295Y-108761589D01*
X81041813Y-108711082D01*
X80084468Y-108449964D02*
X79936571Y-107898006D01*
X79546043Y-108372389D02*
X80787948Y-108039622D01*
X80907450Y-107933653D01*
X80939471Y-107777176D01*
X80902497Y-107639187D01*
X79844136Y-107553032D02*
X79640778Y-106794091D01*
X80810061Y-107294213D01*
X80606704Y-106535272D01*
X80241916Y-105449843D02*
X80347885Y-105569346D01*
X80421833Y-105845325D01*
X80389812Y-106001801D01*
X80270310Y-106107770D01*
X79718352Y-106255667D01*
X79561876Y-106223646D01*
X79455907Y-106104144D01*
X79381959Y-105828165D01*
X79413979Y-105671688D01*
X79533482Y-105565720D01*
X79671471Y-105528745D01*
X79994331Y-106181718D01*
X80070578Y-104534425D02*
X80038558Y-104690902D01*
X79919056Y-104796871D01*
X78677151Y-105129638D01*
X78339430Y-103593267D02*
X78307409Y-103749744D01*
X78362871Y-103956728D01*
X78487327Y-104145225D01*
X78662290Y-104246240D01*
X78818767Y-104278261D01*
X79113232Y-104273307D01*
X79320217Y-104217846D01*
X79577708Y-104074903D01*
X79697211Y-103968934D01*
X79798226Y-103793971D01*
X79811759Y-103568499D01*
X79774785Y-103430510D01*
X79650329Y-103242013D01*
X79562848Y-103191505D01*
X79079885Y-103320915D01*
X79153833Y-103596894D01*
X79478992Y-102326595D02*
X79446971Y-102483071D01*
X79327469Y-102589040D01*
X78085565Y-102921807D01*
X79164712Y-101153685D02*
X78405770Y-101357043D01*
X78286268Y-101463012D01*
X78254247Y-101619488D01*
X78328195Y-101895467D01*
X78434164Y-102014969D01*
X79095717Y-101172172D02*
X79201686Y-101291674D01*
X79294121Y-101636648D01*
X79262101Y-101793124D01*
X79142598Y-101899093D01*
X79004609Y-101936067D01*
X78848133Y-101904047D01*
X78742164Y-101784544D01*
X78649728Y-101439571D01*
X78543759Y-101320069D01*
X78929333Y-100551220D02*
X78961354Y-100394743D01*
X78887406Y-100118764D01*
X78781437Y-99999262D01*
X78624960Y-99967241D01*
X78555966Y-99985729D01*
X78436463Y-100091697D01*
X78404443Y-100248174D01*
X78459904Y-100455158D01*
X78427883Y-100611634D01*
X78308381Y-100717603D01*
X78239386Y-100736090D01*
X78082910Y-100704070D01*
X77976941Y-100584568D01*
X77921480Y-100377583D01*
X77953500Y-100221107D01*
X78615053Y-99378310D02*
X78647074Y-99221833D01*
X78573125Y-98945854D01*
X78467157Y-98826352D01*
X78310680Y-98794332D01*
X78241685Y-98812819D01*
X78122183Y-98918787D01*
X78090162Y-99075264D01*
X78145624Y-99282248D01*
X78113603Y-99438725D01*
X77994101Y-99544693D01*
X77925106Y-99563180D01*
X77768630Y-99531160D01*
X77662661Y-99411658D01*
X77607200Y-99204673D01*
X77639220Y-99048197D01*
D10*
X109009523Y-72552380D02*
X108533333Y-72552380D01*
X108485714Y-73028571D01*
X108533333Y-72980952D01*
X108628571Y-72933333D01*
X108866666Y-72933333D01*
X108961904Y-72980952D01*
X109009523Y-73028571D01*
X109057142Y-73123809D01*
X109057142Y-73361904D01*
X109009523Y-73457142D01*
X108961904Y-73504761D01*
X108866666Y-73552380D01*
X108628571Y-73552380D01*
X108533333Y-73504761D01*
X108485714Y-73457142D01*
X109342857Y-72552380D02*
X109676190Y-73552380D01*
X110009523Y-72552380D01*
X100552380Y-83138095D02*
X100552380Y-82519047D01*
X100933333Y-82852380D01*
X100933333Y-82709523D01*
X100980952Y-82614285D01*
X101028571Y-82566666D01*
X101123809Y-82519047D01*
X101361904Y-82519047D01*
X101457142Y-82566666D01*
X101504761Y-82614285D01*
X101552380Y-82709523D01*
X101552380Y-82995238D01*
X101504761Y-83090476D01*
X101457142Y-83138095D01*
X100552380Y-82233333D02*
X101552380Y-81900000D01*
X100552380Y-81566666D01*
X100552380Y-81328571D02*
X100552380Y-80709523D01*
X100933333Y-81042857D01*
X100933333Y-80900000D01*
X100980952Y-80804761D01*
X101028571Y-80757142D01*
X101123809Y-80709523D01*
X101361904Y-80709523D01*
X101457142Y-80757142D01*
X101504761Y-80804761D01*
X101552380Y-80900000D01*
X101552380Y-81185714D01*
X101504761Y-81280952D01*
X101457142Y-81328571D01*
X92961904Y-81600000D02*
X92866666Y-81552380D01*
X92723809Y-81552380D01*
X92580952Y-81600000D01*
X92485714Y-81695238D01*
X92438095Y-81790476D01*
X92390476Y-81980952D01*
X92390476Y-82123809D01*
X92438095Y-82314285D01*
X92485714Y-82409523D01*
X92580952Y-82504761D01*
X92723809Y-82552380D01*
X92819047Y-82552380D01*
X92961904Y-82504761D01*
X93009523Y-82457142D01*
X93009523Y-82123809D01*
X92819047Y-82123809D01*
X83933570Y-112634342D02*
X82967644Y-112893162D01*
X82906021Y-112663179D01*
X82915043Y-112512865D01*
X82982386Y-112396223D01*
X83062055Y-112325577D01*
X83233716Y-112230281D01*
X83371705Y-112193307D01*
X83568016Y-112190005D01*
X83672333Y-112211352D01*
X83788976Y-112278695D01*
X83871946Y-112404360D01*
X83933570Y-112634342D01*
X83674751Y-111668417D02*
X83030800Y-111840963D01*
X82708825Y-111927236D02*
X82767146Y-111960907D01*
X82800818Y-111902586D01*
X82742497Y-111868915D01*
X82708825Y-111927236D01*
X82800818Y-111902586D01*
X83517832Y-111266773D02*
X83539179Y-111162456D01*
X83489880Y-110978470D01*
X83419234Y-110898801D01*
X83314917Y-110877454D01*
X83268920Y-110889779D01*
X83189252Y-110960425D01*
X83167905Y-111064743D01*
X83204879Y-111202732D01*
X83183532Y-111307050D01*
X83103864Y-111377696D01*
X83057867Y-111390020D01*
X82953550Y-111368673D01*
X82882904Y-111289005D01*
X82845930Y-111151016D01*
X82867277Y-111046698D01*
X82698033Y-110599058D02*
X83663959Y-110340239D01*
X82744030Y-110586733D02*
X82673384Y-110507065D01*
X82624085Y-110323079D01*
X82645432Y-110218762D01*
X82679104Y-110160440D01*
X82758772Y-110089795D01*
X83034751Y-110015846D01*
X83139068Y-110037193D01*
X83197389Y-110070865D01*
X83268035Y-110150533D01*
X83317334Y-110334519D01*
X83295987Y-110438837D01*
X83070840Y-109414590D02*
X83049493Y-109518907D01*
X82969825Y-109589553D01*
X82141888Y-109811398D01*
X82861320Y-108632650D02*
X82355359Y-108768222D01*
X82275690Y-108838868D01*
X82254343Y-108943185D01*
X82303642Y-109127171D01*
X82374288Y-109206839D01*
X82815323Y-108644975D02*
X82885969Y-108724643D01*
X82947593Y-108954625D01*
X82926246Y-109058943D01*
X82846577Y-109129589D01*
X82754585Y-109154238D01*
X82650267Y-109132891D01*
X82579621Y-109053223D01*
X82517997Y-108823240D01*
X82447351Y-108743572D01*
X82118771Y-108437224D02*
X82701098Y-108034696D01*
X81995524Y-107977259D02*
X82701098Y-108034696D01*
X82955730Y-108065065D01*
X83014051Y-108098737D01*
X83084697Y-108178405D01*
X82277223Y-107556686D02*
X82153976Y-107096722D01*
X82577851Y-107574731D02*
X81525652Y-107511575D01*
X82405305Y-106930780D01*
X82319032Y-106608805D02*
X81353106Y-106867624D01*
X81721078Y-106769027D02*
X81650432Y-106689358D01*
X81601133Y-106505372D01*
X81622480Y-106401055D01*
X81656152Y-106342734D01*
X81735820Y-106272088D01*
X82011799Y-106198139D01*
X82116117Y-106219486D01*
X82174438Y-106253158D01*
X82245084Y-106332826D01*
X82294383Y-106516812D01*
X82273036Y-106621130D01*
X82051191Y-105793193D02*
X82072538Y-105688876D01*
X82023239Y-105504890D01*
X81952593Y-105425222D01*
X81848275Y-105403875D01*
X81802279Y-105416199D01*
X81722611Y-105486845D01*
X81701264Y-105591163D01*
X81738238Y-105729152D01*
X81716891Y-105833470D01*
X81637223Y-105904116D01*
X81591226Y-105916441D01*
X81486908Y-105895094D01*
X81416263Y-105815425D01*
X81379288Y-105677436D01*
X81400635Y-105573118D01*
X81718423Y-104551289D02*
X81789069Y-104630957D01*
X81838368Y-104814943D01*
X81817021Y-104919261D01*
X81783349Y-104977582D01*
X81703681Y-105048228D01*
X81427702Y-105122176D01*
X81323385Y-105100829D01*
X81265064Y-105067157D01*
X81194418Y-104987489D01*
X81145119Y-104803503D01*
X81166466Y-104699185D01*
X81653497Y-104124996D02*
X80687572Y-104383815D01*
X81542575Y-103711028D02*
X81036614Y-103846600D01*
X80956946Y-103917246D01*
X80935599Y-104021563D01*
X80972573Y-104159553D01*
X81043219Y-104239221D01*
X81101540Y-104272893D01*
X80775377Y-103423609D02*
X81419328Y-103251063D01*
X80867370Y-103398960D02*
X80809049Y-103365288D01*
X80738403Y-103285620D01*
X80701429Y-103147630D01*
X80722776Y-103043313D01*
X80802444Y-102972667D01*
X81308405Y-102837095D01*
X81148184Y-102239141D02*
X81126837Y-102343458D01*
X81093165Y-102401780D01*
X81013497Y-102472425D01*
X80737518Y-102546374D01*
X80633201Y-102525027D01*
X80574879Y-102491355D01*
X80504234Y-102411687D01*
X80467259Y-102273697D01*
X80488606Y-102169380D01*
X80522278Y-102111059D01*
X80601946Y-102040413D01*
X80877925Y-101966464D01*
X80982243Y-101987811D01*
X81040564Y-102021483D01*
X81111210Y-102101151D01*
X81148184Y-102239141D01*
X80950989Y-101503197D02*
X80307038Y-101675743D01*
X80491024Y-101626444D02*
X80386706Y-101605097D01*
X80328385Y-101571426D01*
X80257739Y-101491757D01*
X80233090Y-101399764D01*
X80633848Y-100503600D02*
X80704494Y-100583268D01*
X80753793Y-100767254D01*
X80732446Y-100871571D01*
X80698774Y-100929893D01*
X80619106Y-101000539D01*
X80343127Y-101074487D01*
X80238810Y-101053140D01*
X80180489Y-101019468D01*
X80109843Y-100939800D01*
X80060544Y-100755814D01*
X80081891Y-100651496D01*
X80568922Y-100077307D02*
X79602997Y-100336126D01*
X80458000Y-99663339D02*
X79952039Y-99798910D01*
X79872371Y-99869556D01*
X79851024Y-99973874D01*
X79887998Y-100111863D01*
X79958644Y-100191532D01*
X80016965Y-100225203D01*
X80297779Y-99065384D02*
X80276432Y-99169702D01*
X80196763Y-99240348D01*
X79368827Y-99462193D01*
X80054587Y-98341766D02*
X80125233Y-98421434D01*
X80174531Y-98605420D01*
X80153184Y-98709737D01*
X80073516Y-98780383D01*
X79705544Y-98878981D01*
X79601227Y-98857634D01*
X79530581Y-98777966D01*
X79481282Y-98593980D01*
X79502629Y-98489662D01*
X79582297Y-98419016D01*
X79674290Y-98394367D01*
X79889530Y-98829682D01*
X79977336Y-97869476D02*
X79333385Y-98042022D01*
X79517371Y-97992723D02*
X79413054Y-97971376D01*
X79354733Y-97937705D01*
X79284087Y-97858036D01*
X79259437Y-97766044D01*
X110961904Y-72552380D02*
X111580952Y-72552380D01*
X111247619Y-72933333D01*
X111390476Y-72933333D01*
X111485714Y-72980952D01*
X111533333Y-73028571D01*
X111580952Y-73123809D01*
X111580952Y-73361904D01*
X111533333Y-73457142D01*
X111485714Y-73504761D01*
X111390476Y-73552380D01*
X111104761Y-73552380D01*
X111009523Y-73504761D01*
X110961904Y-73457142D01*
X111866666Y-72552380D02*
X112200000Y-73552380D01*
X112533333Y-72552380D01*
X112771428Y-72552380D02*
X113390476Y-72552380D01*
X113057142Y-72933333D01*
X113200000Y-72933333D01*
X113295238Y-72980952D01*
X113342857Y-73028571D01*
X113390476Y-73123809D01*
X113390476Y-73361904D01*
X113342857Y-73457142D01*
X113295238Y-73504761D01*
X113200000Y-73552380D01*
X112914285Y-73552380D01*
X112819047Y-73504761D01*
X112771428Y-73457142D01*
D11*
%TO.C,C6*%
X86500000Y-112814285D02*
X86471428Y-112842857D01*
X86385714Y-112871428D01*
X86328571Y-112871428D01*
X86242857Y-112842857D01*
X86185714Y-112785714D01*
X86157142Y-112728571D01*
X86128571Y-112614285D01*
X86128571Y-112528571D01*
X86157142Y-112414285D01*
X86185714Y-112357142D01*
X86242857Y-112300000D01*
X86328571Y-112271428D01*
X86385714Y-112271428D01*
X86471428Y-112300000D01*
X86500000Y-112328571D01*
X87014285Y-112271428D02*
X86900000Y-112271428D01*
X86842857Y-112300000D01*
X86814285Y-112328571D01*
X86757142Y-112414285D01*
X86728571Y-112528571D01*
X86728571Y-112757142D01*
X86757142Y-112814285D01*
X86785714Y-112842857D01*
X86842857Y-112871428D01*
X86957142Y-112871428D01*
X87014285Y-112842857D01*
X87042857Y-112814285D01*
X87071428Y-112757142D01*
X87071428Y-112614285D01*
X87042857Y-112557142D01*
X87014285Y-112528571D01*
X86957142Y-112500000D01*
X86842857Y-112500000D01*
X86785714Y-112528571D01*
X86757142Y-112557142D01*
X86728571Y-112614285D01*
%TO.C,C11*%
X108014285Y-109814285D02*
X107985714Y-109842857D01*
X107900000Y-109871428D01*
X107842857Y-109871428D01*
X107757142Y-109842857D01*
X107700000Y-109785714D01*
X107671428Y-109728571D01*
X107642857Y-109614285D01*
X107642857Y-109528571D01*
X107671428Y-109414285D01*
X107700000Y-109357142D01*
X107757142Y-109300000D01*
X107842857Y-109271428D01*
X107900000Y-109271428D01*
X107985714Y-109300000D01*
X108014285Y-109328571D01*
X108585714Y-109871428D02*
X108242857Y-109871428D01*
X108414285Y-109871428D02*
X108414285Y-109271428D01*
X108357142Y-109357142D01*
X108300000Y-109414285D01*
X108242857Y-109442857D01*
X109157142Y-109871428D02*
X108814285Y-109871428D01*
X108985714Y-109871428D02*
X108985714Y-109271428D01*
X108928571Y-109357142D01*
X108871428Y-109414285D01*
X108814285Y-109442857D01*
%TO.C,R22*%
X99414285Y-109671428D02*
X99214285Y-109385714D01*
X99071428Y-109671428D02*
X99071428Y-109071428D01*
X99300000Y-109071428D01*
X99357142Y-109100000D01*
X99385714Y-109128571D01*
X99414285Y-109185714D01*
X99414285Y-109271428D01*
X99385714Y-109328571D01*
X99357142Y-109357142D01*
X99300000Y-109385714D01*
X99071428Y-109385714D01*
X99642857Y-109128571D02*
X99671428Y-109100000D01*
X99728571Y-109071428D01*
X99871428Y-109071428D01*
X99928571Y-109100000D01*
X99957142Y-109128571D01*
X99985714Y-109185714D01*
X99985714Y-109242857D01*
X99957142Y-109328571D01*
X99614285Y-109671428D01*
X99985714Y-109671428D01*
X100214285Y-109128571D02*
X100242857Y-109100000D01*
X100300000Y-109071428D01*
X100442857Y-109071428D01*
X100500000Y-109100000D01*
X100528571Y-109128571D01*
X100557142Y-109185714D01*
X100557142Y-109242857D01*
X100528571Y-109328571D01*
X100185714Y-109671428D01*
X100557142Y-109671428D01*
%TO.C,R2*%
X95621428Y-117300000D02*
X95335714Y-117500000D01*
X95621428Y-117642857D02*
X95021428Y-117642857D01*
X95021428Y-117414285D01*
X95050000Y-117357142D01*
X95078571Y-117328571D01*
X95135714Y-117300000D01*
X95221428Y-117300000D01*
X95278571Y-117328571D01*
X95307142Y-117357142D01*
X95335714Y-117414285D01*
X95335714Y-117642857D01*
X95078571Y-117071428D02*
X95050000Y-117042857D01*
X95021428Y-116985714D01*
X95021428Y-116842857D01*
X95050000Y-116785714D01*
X95078571Y-116757142D01*
X95135714Y-116728571D01*
X95192857Y-116728571D01*
X95278571Y-116757142D01*
X95621428Y-117100000D01*
X95621428Y-116728571D01*
%TO.C,R14*%
X92871428Y-111185714D02*
X92585714Y-111385714D01*
X92871428Y-111528571D02*
X92271428Y-111528571D01*
X92271428Y-111300000D01*
X92300000Y-111242857D01*
X92328571Y-111214285D01*
X92385714Y-111185714D01*
X92471428Y-111185714D01*
X92528571Y-111214285D01*
X92557142Y-111242857D01*
X92585714Y-111300000D01*
X92585714Y-111528571D01*
X92871428Y-110614285D02*
X92871428Y-110957142D01*
X92871428Y-110785714D02*
X92271428Y-110785714D01*
X92357142Y-110842857D01*
X92414285Y-110900000D01*
X92442857Y-110957142D01*
X92471428Y-110100000D02*
X92871428Y-110100000D01*
X92242857Y-110242857D02*
X92671428Y-110385714D01*
X92671428Y-110014285D01*
%TO.C,J3*%
X110700000Y-97871428D02*
X110700000Y-98300000D01*
X110671428Y-98385714D01*
X110614285Y-98442857D01*
X110528571Y-98471428D01*
X110471428Y-98471428D01*
X110928571Y-97871428D02*
X111300000Y-97871428D01*
X111100000Y-98100000D01*
X111185714Y-98100000D01*
X111242857Y-98128571D01*
X111271428Y-98157142D01*
X111300000Y-98214285D01*
X111300000Y-98357142D01*
X111271428Y-98414285D01*
X111242857Y-98442857D01*
X111185714Y-98471428D01*
X111014285Y-98471428D01*
X110957142Y-98442857D01*
X110928571Y-98414285D01*
%TO.C,R7*%
X95771428Y-111300000D02*
X95485714Y-111500000D01*
X95771428Y-111642857D02*
X95171428Y-111642857D01*
X95171428Y-111414285D01*
X95200000Y-111357142D01*
X95228571Y-111328571D01*
X95285714Y-111300000D01*
X95371428Y-111300000D01*
X95428571Y-111328571D01*
X95457142Y-111357142D01*
X95485714Y-111414285D01*
X95485714Y-111642857D01*
X95171428Y-111100000D02*
X95171428Y-110700000D01*
X95771428Y-110957142D01*
%TO.C,R42*%
X109764285Y-86571428D02*
X109564285Y-86285714D01*
X109421428Y-86571428D02*
X109421428Y-85971428D01*
X109650000Y-85971428D01*
X109707142Y-86000000D01*
X109735714Y-86028571D01*
X109764285Y-86085714D01*
X109764285Y-86171428D01*
X109735714Y-86228571D01*
X109707142Y-86257142D01*
X109650000Y-86285714D01*
X109421428Y-86285714D01*
X110278571Y-86171428D02*
X110278571Y-86571428D01*
X110135714Y-85942857D02*
X109992857Y-86371428D01*
X110364285Y-86371428D01*
X110564285Y-86028571D02*
X110592857Y-86000000D01*
X110650000Y-85971428D01*
X110792857Y-85971428D01*
X110850000Y-86000000D01*
X110878571Y-86028571D01*
X110907142Y-86085714D01*
X110907142Y-86142857D01*
X110878571Y-86228571D01*
X110535714Y-86571428D01*
X110907142Y-86571428D01*
%TO.C,R36*%
X114171428Y-116885714D02*
X113885714Y-117085714D01*
X114171428Y-117228571D02*
X113571428Y-117228571D01*
X113571428Y-117000000D01*
X113600000Y-116942857D01*
X113628571Y-116914285D01*
X113685714Y-116885714D01*
X113771428Y-116885714D01*
X113828571Y-116914285D01*
X113857142Y-116942857D01*
X113885714Y-117000000D01*
X113885714Y-117228571D01*
X113571428Y-116685714D02*
X113571428Y-116314285D01*
X113800000Y-116514285D01*
X113800000Y-116428571D01*
X113828571Y-116371428D01*
X113857142Y-116342857D01*
X113914285Y-116314285D01*
X114057142Y-116314285D01*
X114114285Y-116342857D01*
X114142857Y-116371428D01*
X114171428Y-116428571D01*
X114171428Y-116600000D01*
X114142857Y-116657142D01*
X114114285Y-116685714D01*
X113571428Y-115800000D02*
X113571428Y-115914285D01*
X113600000Y-115971428D01*
X113628571Y-116000000D01*
X113714285Y-116057142D01*
X113828571Y-116085714D01*
X114057142Y-116085714D01*
X114114285Y-116057142D01*
X114142857Y-116028571D01*
X114171428Y-115971428D01*
X114171428Y-115857142D01*
X114142857Y-115800000D01*
X114114285Y-115771428D01*
X114057142Y-115742857D01*
X113914285Y-115742857D01*
X113857142Y-115771428D01*
X113828571Y-115800000D01*
X113800000Y-115857142D01*
X113800000Y-115971428D01*
X113828571Y-116028571D01*
X113857142Y-116057142D01*
X113914285Y-116085714D01*
%TO.C,R30*%
X105189285Y-103071428D02*
X104989285Y-102785714D01*
X104846428Y-103071428D02*
X104846428Y-102471428D01*
X105075000Y-102471428D01*
X105132142Y-102500000D01*
X105160714Y-102528571D01*
X105189285Y-102585714D01*
X105189285Y-102671428D01*
X105160714Y-102728571D01*
X105132142Y-102757142D01*
X105075000Y-102785714D01*
X104846428Y-102785714D01*
X105389285Y-102471428D02*
X105760714Y-102471428D01*
X105560714Y-102700000D01*
X105646428Y-102700000D01*
X105703571Y-102728571D01*
X105732142Y-102757142D01*
X105760714Y-102814285D01*
X105760714Y-102957142D01*
X105732142Y-103014285D01*
X105703571Y-103042857D01*
X105646428Y-103071428D01*
X105475000Y-103071428D01*
X105417857Y-103042857D01*
X105389285Y-103014285D01*
X106132142Y-102471428D02*
X106189285Y-102471428D01*
X106246428Y-102500000D01*
X106275000Y-102528571D01*
X106303571Y-102585714D01*
X106332142Y-102700000D01*
X106332142Y-102842857D01*
X106303571Y-102957142D01*
X106275000Y-103014285D01*
X106246428Y-103042857D01*
X106189285Y-103071428D01*
X106132142Y-103071428D01*
X106075000Y-103042857D01*
X106046428Y-103014285D01*
X106017857Y-102957142D01*
X105989285Y-102842857D01*
X105989285Y-102700000D01*
X106017857Y-102585714D01*
X106046428Y-102528571D01*
X106075000Y-102500000D01*
X106132142Y-102471428D01*
%TO.C,R6*%
X98271428Y-117300000D02*
X97985714Y-117500000D01*
X98271428Y-117642857D02*
X97671428Y-117642857D01*
X97671428Y-117414285D01*
X97700000Y-117357142D01*
X97728571Y-117328571D01*
X97785714Y-117300000D01*
X97871428Y-117300000D01*
X97928571Y-117328571D01*
X97957142Y-117357142D01*
X97985714Y-117414285D01*
X97985714Y-117642857D01*
X97671428Y-116785714D02*
X97671428Y-116900000D01*
X97700000Y-116957142D01*
X97728571Y-116985714D01*
X97814285Y-117042857D01*
X97928571Y-117071428D01*
X98157142Y-117071428D01*
X98214285Y-117042857D01*
X98242857Y-117014285D01*
X98271428Y-116957142D01*
X98271428Y-116842857D01*
X98242857Y-116785714D01*
X98214285Y-116757142D01*
X98157142Y-116728571D01*
X98014285Y-116728571D01*
X97957142Y-116757142D01*
X97928571Y-116785714D01*
X97900000Y-116842857D01*
X97900000Y-116957142D01*
X97928571Y-117014285D01*
X97957142Y-117042857D01*
X98014285Y-117071428D01*
%TO.C,R4*%
X102971428Y-97100000D02*
X102685714Y-97300000D01*
X102971428Y-97442857D02*
X102371428Y-97442857D01*
X102371428Y-97214285D01*
X102400000Y-97157142D01*
X102428571Y-97128571D01*
X102485714Y-97100000D01*
X102571428Y-97100000D01*
X102628571Y-97128571D01*
X102657142Y-97157142D01*
X102685714Y-97214285D01*
X102685714Y-97442857D01*
X102571428Y-96585714D02*
X102971428Y-96585714D01*
X102342857Y-96728571D02*
X102771428Y-96871428D01*
X102771428Y-96500000D01*
%TO.C,C9*%
X111400000Y-78314285D02*
X111371428Y-78342857D01*
X111285714Y-78371428D01*
X111228571Y-78371428D01*
X111142857Y-78342857D01*
X111085714Y-78285714D01*
X111057142Y-78228571D01*
X111028571Y-78114285D01*
X111028571Y-78028571D01*
X111057142Y-77914285D01*
X111085714Y-77857142D01*
X111142857Y-77800000D01*
X111228571Y-77771428D01*
X111285714Y-77771428D01*
X111371428Y-77800000D01*
X111400000Y-77828571D01*
X111685714Y-78371428D02*
X111800000Y-78371428D01*
X111857142Y-78342857D01*
X111885714Y-78314285D01*
X111942857Y-78228571D01*
X111971428Y-78114285D01*
X111971428Y-77885714D01*
X111942857Y-77828571D01*
X111914285Y-77800000D01*
X111857142Y-77771428D01*
X111742857Y-77771428D01*
X111685714Y-77800000D01*
X111657142Y-77828571D01*
X111628571Y-77885714D01*
X111628571Y-78028571D01*
X111657142Y-78085714D01*
X111685714Y-78114285D01*
X111742857Y-78142857D01*
X111857142Y-78142857D01*
X111914285Y-78114285D01*
X111942857Y-78085714D01*
X111971428Y-78028571D01*
%TO.C,R26*%
X108071428Y-116885714D02*
X107785714Y-117085714D01*
X108071428Y-117228571D02*
X107471428Y-117228571D01*
X107471428Y-117000000D01*
X107500000Y-116942857D01*
X107528571Y-116914285D01*
X107585714Y-116885714D01*
X107671428Y-116885714D01*
X107728571Y-116914285D01*
X107757142Y-116942857D01*
X107785714Y-117000000D01*
X107785714Y-117228571D01*
X107528571Y-116657142D02*
X107500000Y-116628571D01*
X107471428Y-116571428D01*
X107471428Y-116428571D01*
X107500000Y-116371428D01*
X107528571Y-116342857D01*
X107585714Y-116314285D01*
X107642857Y-116314285D01*
X107728571Y-116342857D01*
X108071428Y-116685714D01*
X108071428Y-116314285D01*
X107471428Y-115800000D02*
X107471428Y-115914285D01*
X107500000Y-115971428D01*
X107528571Y-116000000D01*
X107614285Y-116057142D01*
X107728571Y-116085714D01*
X107957142Y-116085714D01*
X108014285Y-116057142D01*
X108042857Y-116028571D01*
X108071428Y-115971428D01*
X108071428Y-115857142D01*
X108042857Y-115800000D01*
X108014285Y-115771428D01*
X107957142Y-115742857D01*
X107814285Y-115742857D01*
X107757142Y-115771428D01*
X107728571Y-115800000D01*
X107700000Y-115857142D01*
X107700000Y-115971428D01*
X107728571Y-116028571D01*
X107757142Y-116057142D01*
X107814285Y-116085714D01*
%TO.C,C4*%
X86500000Y-111414285D02*
X86471428Y-111442857D01*
X86385714Y-111471428D01*
X86328571Y-111471428D01*
X86242857Y-111442857D01*
X86185714Y-111385714D01*
X86157142Y-111328571D01*
X86128571Y-111214285D01*
X86128571Y-111128571D01*
X86157142Y-111014285D01*
X86185714Y-110957142D01*
X86242857Y-110900000D01*
X86328571Y-110871428D01*
X86385714Y-110871428D01*
X86471428Y-110900000D01*
X86500000Y-110928571D01*
X87014285Y-111071428D02*
X87014285Y-111471428D01*
X86871428Y-110842857D02*
X86728571Y-111271428D01*
X87100000Y-111271428D01*
%TO.C,U2*%
X77642857Y-84471428D02*
X77642857Y-84957142D01*
X77671428Y-85014285D01*
X77700000Y-85042857D01*
X77757142Y-85071428D01*
X77871428Y-85071428D01*
X77928571Y-85042857D01*
X77957142Y-85014285D01*
X77985714Y-84957142D01*
X77985714Y-84471428D01*
X78242857Y-84528571D02*
X78271428Y-84500000D01*
X78328571Y-84471428D01*
X78471428Y-84471428D01*
X78528571Y-84500000D01*
X78557142Y-84528571D01*
X78585714Y-84585714D01*
X78585714Y-84642857D01*
X78557142Y-84728571D01*
X78214285Y-85071428D01*
X78585714Y-85071428D01*
%TO.C,R11*%
X105771428Y-94535714D02*
X105485714Y-94735714D01*
X105771428Y-94878571D02*
X105171428Y-94878571D01*
X105171428Y-94650000D01*
X105200000Y-94592857D01*
X105228571Y-94564285D01*
X105285714Y-94535714D01*
X105371428Y-94535714D01*
X105428571Y-94564285D01*
X105457142Y-94592857D01*
X105485714Y-94650000D01*
X105485714Y-94878571D01*
X105771428Y-93964285D02*
X105771428Y-94307142D01*
X105771428Y-94135714D02*
X105171428Y-94135714D01*
X105257142Y-94192857D01*
X105314285Y-94250000D01*
X105342857Y-94307142D01*
X105771428Y-93392857D02*
X105771428Y-93735714D01*
X105771428Y-93564285D02*
X105171428Y-93564285D01*
X105257142Y-93621428D01*
X105314285Y-93678571D01*
X105342857Y-93735714D01*
%TO.C,R31*%
X105164285Y-104421428D02*
X104964285Y-104135714D01*
X104821428Y-104421428D02*
X104821428Y-103821428D01*
X105050000Y-103821428D01*
X105107142Y-103850000D01*
X105135714Y-103878571D01*
X105164285Y-103935714D01*
X105164285Y-104021428D01*
X105135714Y-104078571D01*
X105107142Y-104107142D01*
X105050000Y-104135714D01*
X104821428Y-104135714D01*
X105364285Y-103821428D02*
X105735714Y-103821428D01*
X105535714Y-104050000D01*
X105621428Y-104050000D01*
X105678571Y-104078571D01*
X105707142Y-104107142D01*
X105735714Y-104164285D01*
X105735714Y-104307142D01*
X105707142Y-104364285D01*
X105678571Y-104392857D01*
X105621428Y-104421428D01*
X105450000Y-104421428D01*
X105392857Y-104392857D01*
X105364285Y-104364285D01*
X106307142Y-104421428D02*
X105964285Y-104421428D01*
X106135714Y-104421428D02*
X106135714Y-103821428D01*
X106078571Y-103907142D01*
X106021428Y-103964285D01*
X105964285Y-103992857D01*
%TO.C,R16*%
X91571428Y-111185714D02*
X91285714Y-111385714D01*
X91571428Y-111528571D02*
X90971428Y-111528571D01*
X90971428Y-111300000D01*
X91000000Y-111242857D01*
X91028571Y-111214285D01*
X91085714Y-111185714D01*
X91171428Y-111185714D01*
X91228571Y-111214285D01*
X91257142Y-111242857D01*
X91285714Y-111300000D01*
X91285714Y-111528571D01*
X91571428Y-110614285D02*
X91571428Y-110957142D01*
X91571428Y-110785714D02*
X90971428Y-110785714D01*
X91057142Y-110842857D01*
X91114285Y-110900000D01*
X91142857Y-110957142D01*
X90971428Y-110100000D02*
X90971428Y-110214285D01*
X91000000Y-110271428D01*
X91028571Y-110300000D01*
X91114285Y-110357142D01*
X91228571Y-110385714D01*
X91457142Y-110385714D01*
X91514285Y-110357142D01*
X91542857Y-110328571D01*
X91571428Y-110271428D01*
X91571428Y-110157142D01*
X91542857Y-110100000D01*
X91514285Y-110071428D01*
X91457142Y-110042857D01*
X91314285Y-110042857D01*
X91257142Y-110071428D01*
X91228571Y-110100000D01*
X91200000Y-110157142D01*
X91200000Y-110271428D01*
X91228571Y-110328571D01*
X91257142Y-110357142D01*
X91314285Y-110385714D01*
%TO.C,R25*%
X86871428Y-117685714D02*
X86585714Y-117885714D01*
X86871428Y-118028571D02*
X86271428Y-118028571D01*
X86271428Y-117800000D01*
X86300000Y-117742857D01*
X86328571Y-117714285D01*
X86385714Y-117685714D01*
X86471428Y-117685714D01*
X86528571Y-117714285D01*
X86557142Y-117742857D01*
X86585714Y-117800000D01*
X86585714Y-118028571D01*
X86328571Y-117457142D02*
X86300000Y-117428571D01*
X86271428Y-117371428D01*
X86271428Y-117228571D01*
X86300000Y-117171428D01*
X86328571Y-117142857D01*
X86385714Y-117114285D01*
X86442857Y-117114285D01*
X86528571Y-117142857D01*
X86871428Y-117485714D01*
X86871428Y-117114285D01*
X86271428Y-116571428D02*
X86271428Y-116857142D01*
X86557142Y-116885714D01*
X86528571Y-116857142D01*
X86500000Y-116800000D01*
X86500000Y-116657142D01*
X86528571Y-116600000D01*
X86557142Y-116571428D01*
X86614285Y-116542857D01*
X86757142Y-116542857D01*
X86814285Y-116571428D01*
X86842857Y-116600000D01*
X86871428Y-116657142D01*
X86871428Y-116800000D01*
X86842857Y-116857142D01*
X86814285Y-116885714D01*
%TO.C,R40*%
X110371428Y-112685714D02*
X110085714Y-112885714D01*
X110371428Y-113028571D02*
X109771428Y-113028571D01*
X109771428Y-112800000D01*
X109800000Y-112742857D01*
X109828571Y-112714285D01*
X109885714Y-112685714D01*
X109971428Y-112685714D01*
X110028571Y-112714285D01*
X110057142Y-112742857D01*
X110085714Y-112800000D01*
X110085714Y-113028571D01*
X109971428Y-112171428D02*
X110371428Y-112171428D01*
X109742857Y-112314285D02*
X110171428Y-112457142D01*
X110171428Y-112085714D01*
X109771428Y-111742857D02*
X109771428Y-111685714D01*
X109800000Y-111628571D01*
X109828571Y-111600000D01*
X109885714Y-111571428D01*
X110000000Y-111542857D01*
X110142857Y-111542857D01*
X110257142Y-111571428D01*
X110314285Y-111600000D01*
X110342857Y-111628571D01*
X110371428Y-111685714D01*
X110371428Y-111742857D01*
X110342857Y-111800000D01*
X110314285Y-111828571D01*
X110257142Y-111857142D01*
X110142857Y-111885714D01*
X110000000Y-111885714D01*
X109885714Y-111857142D01*
X109828571Y-111828571D01*
X109800000Y-111800000D01*
X109771428Y-111742857D01*
%TO.C,C10*%
X105914285Y-112314285D02*
X105885714Y-112342857D01*
X105800000Y-112371428D01*
X105742857Y-112371428D01*
X105657142Y-112342857D01*
X105600000Y-112285714D01*
X105571428Y-112228571D01*
X105542857Y-112114285D01*
X105542857Y-112028571D01*
X105571428Y-111914285D01*
X105600000Y-111857142D01*
X105657142Y-111800000D01*
X105742857Y-111771428D01*
X105800000Y-111771428D01*
X105885714Y-111800000D01*
X105914285Y-111828571D01*
X106485714Y-112371428D02*
X106142857Y-112371428D01*
X106314285Y-112371428D02*
X106314285Y-111771428D01*
X106257142Y-111857142D01*
X106200000Y-111914285D01*
X106142857Y-111942857D01*
X106857142Y-111771428D02*
X106914285Y-111771428D01*
X106971428Y-111800000D01*
X107000000Y-111828571D01*
X107028571Y-111885714D01*
X107057142Y-112000000D01*
X107057142Y-112142857D01*
X107028571Y-112257142D01*
X107000000Y-112314285D01*
X106971428Y-112342857D01*
X106914285Y-112371428D01*
X106857142Y-112371428D01*
X106800000Y-112342857D01*
X106771428Y-112314285D01*
X106742857Y-112257142D01*
X106714285Y-112142857D01*
X106714285Y-112000000D01*
X106742857Y-111885714D01*
X106771428Y-111828571D01*
X106800000Y-111800000D01*
X106857142Y-111771428D01*
%TO.C,R37*%
X111471428Y-112685714D02*
X111185714Y-112885714D01*
X111471428Y-113028571D02*
X110871428Y-113028571D01*
X110871428Y-112800000D01*
X110900000Y-112742857D01*
X110928571Y-112714285D01*
X110985714Y-112685714D01*
X111071428Y-112685714D01*
X111128571Y-112714285D01*
X111157142Y-112742857D01*
X111185714Y-112800000D01*
X111185714Y-113028571D01*
X110871428Y-112485714D02*
X110871428Y-112114285D01*
X111100000Y-112314285D01*
X111100000Y-112228571D01*
X111128571Y-112171428D01*
X111157142Y-112142857D01*
X111214285Y-112114285D01*
X111357142Y-112114285D01*
X111414285Y-112142857D01*
X111442857Y-112171428D01*
X111471428Y-112228571D01*
X111471428Y-112400000D01*
X111442857Y-112457142D01*
X111414285Y-112485714D01*
X110871428Y-111914285D02*
X110871428Y-111514285D01*
X111471428Y-111771428D01*
%TO.C,R9*%
X99971428Y-111700000D02*
X99685714Y-111900000D01*
X99971428Y-112042857D02*
X99371428Y-112042857D01*
X99371428Y-111814285D01*
X99400000Y-111757142D01*
X99428571Y-111728571D01*
X99485714Y-111700000D01*
X99571428Y-111700000D01*
X99628571Y-111728571D01*
X99657142Y-111757142D01*
X99685714Y-111814285D01*
X99685714Y-112042857D01*
X99971428Y-111414285D02*
X99971428Y-111300000D01*
X99942857Y-111242857D01*
X99914285Y-111214285D01*
X99828571Y-111157142D01*
X99714285Y-111128571D01*
X99485714Y-111128571D01*
X99428571Y-111157142D01*
X99400000Y-111185714D01*
X99371428Y-111242857D01*
X99371428Y-111357142D01*
X99400000Y-111414285D01*
X99428571Y-111442857D01*
X99485714Y-111471428D01*
X99628571Y-111471428D01*
X99685714Y-111442857D01*
X99714285Y-111414285D01*
X99742857Y-111357142D01*
X99742857Y-111242857D01*
X99714285Y-111185714D01*
X99685714Y-111157142D01*
X99628571Y-111128571D01*
%TO.C,R32*%
X105139285Y-105771428D02*
X104939285Y-105485714D01*
X104796428Y-105771428D02*
X104796428Y-105171428D01*
X105025000Y-105171428D01*
X105082142Y-105200000D01*
X105110714Y-105228571D01*
X105139285Y-105285714D01*
X105139285Y-105371428D01*
X105110714Y-105428571D01*
X105082142Y-105457142D01*
X105025000Y-105485714D01*
X104796428Y-105485714D01*
X105339285Y-105171428D02*
X105710714Y-105171428D01*
X105510714Y-105400000D01*
X105596428Y-105400000D01*
X105653571Y-105428571D01*
X105682142Y-105457142D01*
X105710714Y-105514285D01*
X105710714Y-105657142D01*
X105682142Y-105714285D01*
X105653571Y-105742857D01*
X105596428Y-105771428D01*
X105425000Y-105771428D01*
X105367857Y-105742857D01*
X105339285Y-105714285D01*
X105939285Y-105228571D02*
X105967857Y-105200000D01*
X106025000Y-105171428D01*
X106167857Y-105171428D01*
X106225000Y-105200000D01*
X106253571Y-105228571D01*
X106282142Y-105285714D01*
X106282142Y-105342857D01*
X106253571Y-105428571D01*
X105910714Y-105771428D01*
X106282142Y-105771428D01*
%TO.C,R35*%
X112971428Y-116985714D02*
X112685714Y-117185714D01*
X112971428Y-117328571D02*
X112371428Y-117328571D01*
X112371428Y-117100000D01*
X112400000Y-117042857D01*
X112428571Y-117014285D01*
X112485714Y-116985714D01*
X112571428Y-116985714D01*
X112628571Y-117014285D01*
X112657142Y-117042857D01*
X112685714Y-117100000D01*
X112685714Y-117328571D01*
X112371428Y-116785714D02*
X112371428Y-116414285D01*
X112600000Y-116614285D01*
X112600000Y-116528571D01*
X112628571Y-116471428D01*
X112657142Y-116442857D01*
X112714285Y-116414285D01*
X112857142Y-116414285D01*
X112914285Y-116442857D01*
X112942857Y-116471428D01*
X112971428Y-116528571D01*
X112971428Y-116700000D01*
X112942857Y-116757142D01*
X112914285Y-116785714D01*
X112371428Y-115871428D02*
X112371428Y-116157142D01*
X112657142Y-116185714D01*
X112628571Y-116157142D01*
X112600000Y-116100000D01*
X112600000Y-115957142D01*
X112628571Y-115900000D01*
X112657142Y-115871428D01*
X112714285Y-115842857D01*
X112857142Y-115842857D01*
X112914285Y-115871428D01*
X112942857Y-115900000D01*
X112971428Y-115957142D01*
X112971428Y-116100000D01*
X112942857Y-116157142D01*
X112914285Y-116185714D01*
%TO.C,R38*%
X105571428Y-116985714D02*
X105285714Y-117185714D01*
X105571428Y-117328571D02*
X104971428Y-117328571D01*
X104971428Y-117100000D01*
X105000000Y-117042857D01*
X105028571Y-117014285D01*
X105085714Y-116985714D01*
X105171428Y-116985714D01*
X105228571Y-117014285D01*
X105257142Y-117042857D01*
X105285714Y-117100000D01*
X105285714Y-117328571D01*
X104971428Y-116785714D02*
X104971428Y-116414285D01*
X105200000Y-116614285D01*
X105200000Y-116528571D01*
X105228571Y-116471428D01*
X105257142Y-116442857D01*
X105314285Y-116414285D01*
X105457142Y-116414285D01*
X105514285Y-116442857D01*
X105542857Y-116471428D01*
X105571428Y-116528571D01*
X105571428Y-116700000D01*
X105542857Y-116757142D01*
X105514285Y-116785714D01*
X105228571Y-116071428D02*
X105200000Y-116128571D01*
X105171428Y-116157142D01*
X105114285Y-116185714D01*
X105085714Y-116185714D01*
X105028571Y-116157142D01*
X105000000Y-116128571D01*
X104971428Y-116071428D01*
X104971428Y-115957142D01*
X105000000Y-115900000D01*
X105028571Y-115871428D01*
X105085714Y-115842857D01*
X105114285Y-115842857D01*
X105171428Y-115871428D01*
X105200000Y-115900000D01*
X105228571Y-115957142D01*
X105228571Y-116071428D01*
X105257142Y-116128571D01*
X105285714Y-116157142D01*
X105342857Y-116185714D01*
X105457142Y-116185714D01*
X105514285Y-116157142D01*
X105542857Y-116128571D01*
X105571428Y-116071428D01*
X105571428Y-115957142D01*
X105542857Y-115900000D01*
X105514285Y-115871428D01*
X105457142Y-115842857D01*
X105342857Y-115842857D01*
X105285714Y-115871428D01*
X105257142Y-115900000D01*
X105228571Y-115957142D01*
%TO.C,U3*%
X88271428Y-109457142D02*
X88757142Y-109457142D01*
X88814285Y-109428571D01*
X88842857Y-109400000D01*
X88871428Y-109342857D01*
X88871428Y-109228571D01*
X88842857Y-109171428D01*
X88814285Y-109142857D01*
X88757142Y-109114285D01*
X88271428Y-109114285D01*
X88271428Y-108885714D02*
X88271428Y-108514285D01*
X88500000Y-108714285D01*
X88500000Y-108628571D01*
X88528571Y-108571428D01*
X88557142Y-108542857D01*
X88614285Y-108514285D01*
X88757142Y-108514285D01*
X88814285Y-108542857D01*
X88842857Y-108571428D01*
X88871428Y-108628571D01*
X88871428Y-108800000D01*
X88842857Y-108857142D01*
X88814285Y-108885714D01*
%TO.C,U1*%
X104942857Y-78871428D02*
X104942857Y-79357142D01*
X104971428Y-79414285D01*
X105000000Y-79442857D01*
X105057142Y-79471428D01*
X105171428Y-79471428D01*
X105228571Y-79442857D01*
X105257142Y-79414285D01*
X105285714Y-79357142D01*
X105285714Y-78871428D01*
X105885714Y-79471428D02*
X105542857Y-79471428D01*
X105714285Y-79471428D02*
X105714285Y-78871428D01*
X105657142Y-78957142D01*
X105600000Y-79014285D01*
X105542857Y-79042857D01*
%TO.C,R33*%
X105139285Y-107121428D02*
X104939285Y-106835714D01*
X104796428Y-107121428D02*
X104796428Y-106521428D01*
X105025000Y-106521428D01*
X105082142Y-106550000D01*
X105110714Y-106578571D01*
X105139285Y-106635714D01*
X105139285Y-106721428D01*
X105110714Y-106778571D01*
X105082142Y-106807142D01*
X105025000Y-106835714D01*
X104796428Y-106835714D01*
X105339285Y-106521428D02*
X105710714Y-106521428D01*
X105510714Y-106750000D01*
X105596428Y-106750000D01*
X105653571Y-106778571D01*
X105682142Y-106807142D01*
X105710714Y-106864285D01*
X105710714Y-107007142D01*
X105682142Y-107064285D01*
X105653571Y-107092857D01*
X105596428Y-107121428D01*
X105425000Y-107121428D01*
X105367857Y-107092857D01*
X105339285Y-107064285D01*
X105910714Y-106521428D02*
X106282142Y-106521428D01*
X106082142Y-106750000D01*
X106167857Y-106750000D01*
X106225000Y-106778571D01*
X106253571Y-106807142D01*
X106282142Y-106864285D01*
X106282142Y-107007142D01*
X106253571Y-107064285D01*
X106225000Y-107092857D01*
X106167857Y-107121428D01*
X105996428Y-107121428D01*
X105939285Y-107092857D01*
X105910714Y-107064285D01*
%TO.C,R21*%
X101071428Y-117585714D02*
X100785714Y-117785714D01*
X101071428Y-117928571D02*
X100471428Y-117928571D01*
X100471428Y-117700000D01*
X100500000Y-117642857D01*
X100528571Y-117614285D01*
X100585714Y-117585714D01*
X100671428Y-117585714D01*
X100728571Y-117614285D01*
X100757142Y-117642857D01*
X100785714Y-117700000D01*
X100785714Y-117928571D01*
X100528571Y-117357142D02*
X100500000Y-117328571D01*
X100471428Y-117271428D01*
X100471428Y-117128571D01*
X100500000Y-117071428D01*
X100528571Y-117042857D01*
X100585714Y-117014285D01*
X100642857Y-117014285D01*
X100728571Y-117042857D01*
X101071428Y-117385714D01*
X101071428Y-117014285D01*
X101071428Y-116442857D02*
X101071428Y-116785714D01*
X101071428Y-116614285D02*
X100471428Y-116614285D01*
X100557142Y-116671428D01*
X100614285Y-116728571D01*
X100642857Y-116785714D01*
%TO.C,R12*%
X94171428Y-111285714D02*
X93885714Y-111485714D01*
X94171428Y-111628571D02*
X93571428Y-111628571D01*
X93571428Y-111400000D01*
X93600000Y-111342857D01*
X93628571Y-111314285D01*
X93685714Y-111285714D01*
X93771428Y-111285714D01*
X93828571Y-111314285D01*
X93857142Y-111342857D01*
X93885714Y-111400000D01*
X93885714Y-111628571D01*
X94171428Y-110714285D02*
X94171428Y-111057142D01*
X94171428Y-110885714D02*
X93571428Y-110885714D01*
X93657142Y-110942857D01*
X93714285Y-111000000D01*
X93742857Y-111057142D01*
X93628571Y-110485714D02*
X93600000Y-110457142D01*
X93571428Y-110400000D01*
X93571428Y-110257142D01*
X93600000Y-110200000D01*
X93628571Y-110171428D01*
X93685714Y-110142857D01*
X93742857Y-110142857D01*
X93828571Y-110171428D01*
X94171428Y-110514285D01*
X94171428Y-110142857D01*
%TO.C,J1*%
X123400000Y-97771428D02*
X123400000Y-98200000D01*
X123371428Y-98285714D01*
X123314285Y-98342857D01*
X123228571Y-98371428D01*
X123171428Y-98371428D01*
X124000000Y-98371428D02*
X123657142Y-98371428D01*
X123828571Y-98371428D02*
X123828571Y-97771428D01*
X123771428Y-97857142D01*
X123714285Y-97914285D01*
X123657142Y-97942857D01*
%TO.C,C8*%
X103700000Y-108614285D02*
X103671428Y-108642857D01*
X103585714Y-108671428D01*
X103528571Y-108671428D01*
X103442857Y-108642857D01*
X103385714Y-108585714D01*
X103357142Y-108528571D01*
X103328571Y-108414285D01*
X103328571Y-108328571D01*
X103357142Y-108214285D01*
X103385714Y-108157142D01*
X103442857Y-108100000D01*
X103528571Y-108071428D01*
X103585714Y-108071428D01*
X103671428Y-108100000D01*
X103700000Y-108128571D01*
X104042857Y-108328571D02*
X103985714Y-108300000D01*
X103957142Y-108271428D01*
X103928571Y-108214285D01*
X103928571Y-108185714D01*
X103957142Y-108128571D01*
X103985714Y-108100000D01*
X104042857Y-108071428D01*
X104157142Y-108071428D01*
X104214285Y-108100000D01*
X104242857Y-108128571D01*
X104271428Y-108185714D01*
X104271428Y-108214285D01*
X104242857Y-108271428D01*
X104214285Y-108300000D01*
X104157142Y-108328571D01*
X104042857Y-108328571D01*
X103985714Y-108357142D01*
X103957142Y-108385714D01*
X103928571Y-108442857D01*
X103928571Y-108557142D01*
X103957142Y-108614285D01*
X103985714Y-108642857D01*
X104042857Y-108671428D01*
X104157142Y-108671428D01*
X104214285Y-108642857D01*
X104242857Y-108614285D01*
X104271428Y-108557142D01*
X104271428Y-108442857D01*
X104242857Y-108385714D01*
X104214285Y-108357142D01*
X104157142Y-108328571D01*
%TO.C,J2*%
X121100000Y-97871428D02*
X121100000Y-98300000D01*
X121071428Y-98385714D01*
X121014285Y-98442857D01*
X120928571Y-98471428D01*
X120871428Y-98471428D01*
X121357142Y-97928571D02*
X121385714Y-97900000D01*
X121442857Y-97871428D01*
X121585714Y-97871428D01*
X121642857Y-97900000D01*
X121671428Y-97928571D01*
X121700000Y-97985714D01*
X121700000Y-98042857D01*
X121671428Y-98128571D01*
X121328571Y-98471428D01*
X121700000Y-98471428D01*
%TO.C,C1*%
X100500000Y-95114285D02*
X100471428Y-95142857D01*
X100385714Y-95171428D01*
X100328571Y-95171428D01*
X100242857Y-95142857D01*
X100185714Y-95085714D01*
X100157142Y-95028571D01*
X100128571Y-94914285D01*
X100128571Y-94828571D01*
X100157142Y-94714285D01*
X100185714Y-94657142D01*
X100242857Y-94600000D01*
X100328571Y-94571428D01*
X100385714Y-94571428D01*
X100471428Y-94600000D01*
X100500000Y-94628571D01*
X101071428Y-95171428D02*
X100728571Y-95171428D01*
X100900000Y-95171428D02*
X100900000Y-94571428D01*
X100842857Y-94657142D01*
X100785714Y-94714285D01*
X100728571Y-94742857D01*
%TO.C,C5*%
X102614285Y-107600000D02*
X102642857Y-107628571D01*
X102671428Y-107714285D01*
X102671428Y-107771428D01*
X102642857Y-107857142D01*
X102585714Y-107914285D01*
X102528571Y-107942857D01*
X102414285Y-107971428D01*
X102328571Y-107971428D01*
X102214285Y-107942857D01*
X102157142Y-107914285D01*
X102100000Y-107857142D01*
X102071428Y-107771428D01*
X102071428Y-107714285D01*
X102100000Y-107628571D01*
X102128571Y-107600000D01*
X102071428Y-107057142D02*
X102071428Y-107342857D01*
X102357142Y-107371428D01*
X102328571Y-107342857D01*
X102300000Y-107285714D01*
X102300000Y-107142857D01*
X102328571Y-107085714D01*
X102357142Y-107057142D01*
X102414285Y-107028571D01*
X102557142Y-107028571D01*
X102614285Y-107057142D01*
X102642857Y-107085714D01*
X102671428Y-107142857D01*
X102671428Y-107285714D01*
X102642857Y-107342857D01*
X102614285Y-107371428D01*
%TO.C,R39*%
X106771428Y-116885714D02*
X106485714Y-117085714D01*
X106771428Y-117228571D02*
X106171428Y-117228571D01*
X106171428Y-117000000D01*
X106200000Y-116942857D01*
X106228571Y-116914285D01*
X106285714Y-116885714D01*
X106371428Y-116885714D01*
X106428571Y-116914285D01*
X106457142Y-116942857D01*
X106485714Y-117000000D01*
X106485714Y-117228571D01*
X106171428Y-116685714D02*
X106171428Y-116314285D01*
X106400000Y-116514285D01*
X106400000Y-116428571D01*
X106428571Y-116371428D01*
X106457142Y-116342857D01*
X106514285Y-116314285D01*
X106657142Y-116314285D01*
X106714285Y-116342857D01*
X106742857Y-116371428D01*
X106771428Y-116428571D01*
X106771428Y-116600000D01*
X106742857Y-116657142D01*
X106714285Y-116685714D01*
X106771428Y-116028571D02*
X106771428Y-115914285D01*
X106742857Y-115857142D01*
X106714285Y-115828571D01*
X106628571Y-115771428D01*
X106514285Y-115742857D01*
X106285714Y-115742857D01*
X106228571Y-115771428D01*
X106200000Y-115800000D01*
X106171428Y-115857142D01*
X106171428Y-115971428D01*
X106200000Y-116028571D01*
X106228571Y-116057142D01*
X106285714Y-116085714D01*
X106428571Y-116085714D01*
X106485714Y-116057142D01*
X106514285Y-116028571D01*
X106542857Y-115971428D01*
X106542857Y-115857142D01*
X106514285Y-115800000D01*
X106485714Y-115771428D01*
X106428571Y-115742857D01*
%TO.C,R15*%
X92871428Y-117585714D02*
X92585714Y-117785714D01*
X92871428Y-117928571D02*
X92271428Y-117928571D01*
X92271428Y-117700000D01*
X92300000Y-117642857D01*
X92328571Y-117614285D01*
X92385714Y-117585714D01*
X92471428Y-117585714D01*
X92528571Y-117614285D01*
X92557142Y-117642857D01*
X92585714Y-117700000D01*
X92585714Y-117928571D01*
X92871428Y-117014285D02*
X92871428Y-117357142D01*
X92871428Y-117185714D02*
X92271428Y-117185714D01*
X92357142Y-117242857D01*
X92414285Y-117300000D01*
X92442857Y-117357142D01*
X92271428Y-116471428D02*
X92271428Y-116757142D01*
X92557142Y-116785714D01*
X92528571Y-116757142D01*
X92500000Y-116700000D01*
X92500000Y-116557142D01*
X92528571Y-116500000D01*
X92557142Y-116471428D01*
X92614285Y-116442857D01*
X92757142Y-116442857D01*
X92814285Y-116471428D01*
X92842857Y-116500000D01*
X92871428Y-116557142D01*
X92871428Y-116700000D01*
X92842857Y-116757142D01*
X92814285Y-116785714D01*
%TO.C,L1*%
X118771428Y-79550000D02*
X118771428Y-79835714D01*
X118171428Y-79835714D01*
X118771428Y-79035714D02*
X118771428Y-79378571D01*
X118771428Y-79207142D02*
X118171428Y-79207142D01*
X118257142Y-79264285D01*
X118314285Y-79321428D01*
X118342857Y-79378571D01*
%TO.C,D1*%
X110057142Y-118571428D02*
X110057142Y-117971428D01*
X110200000Y-117971428D01*
X110285714Y-118000000D01*
X110342857Y-118057142D01*
X110371428Y-118114285D01*
X110400000Y-118228571D01*
X110400000Y-118314285D01*
X110371428Y-118428571D01*
X110342857Y-118485714D01*
X110285714Y-118542857D01*
X110200000Y-118571428D01*
X110057142Y-118571428D01*
X110971428Y-118571428D02*
X110628571Y-118571428D01*
X110800000Y-118571428D02*
X110800000Y-117971428D01*
X110742857Y-118057142D01*
X110685714Y-118114285D01*
X110628571Y-118142857D01*
%TO.C,C12*%
X113264285Y-76914285D02*
X113235714Y-76942857D01*
X113150000Y-76971428D01*
X113092857Y-76971428D01*
X113007142Y-76942857D01*
X112950000Y-76885714D01*
X112921428Y-76828571D01*
X112892857Y-76714285D01*
X112892857Y-76628571D01*
X112921428Y-76514285D01*
X112950000Y-76457142D01*
X113007142Y-76400000D01*
X113092857Y-76371428D01*
X113150000Y-76371428D01*
X113235714Y-76400000D01*
X113264285Y-76428571D01*
X113835714Y-76971428D02*
X113492857Y-76971428D01*
X113664285Y-76971428D02*
X113664285Y-76371428D01*
X113607142Y-76457142D01*
X113550000Y-76514285D01*
X113492857Y-76542857D01*
X114064285Y-76428571D02*
X114092857Y-76400000D01*
X114150000Y-76371428D01*
X114292857Y-76371428D01*
X114350000Y-76400000D01*
X114378571Y-76428571D01*
X114407142Y-76485714D01*
X114407142Y-76542857D01*
X114378571Y-76628571D01*
X114035714Y-76971428D01*
X114407142Y-76971428D01*
%TO.C,R20*%
X100971428Y-111685714D02*
X100685714Y-111885714D01*
X100971428Y-112028571D02*
X100371428Y-112028571D01*
X100371428Y-111800000D01*
X100400000Y-111742857D01*
X100428571Y-111714285D01*
X100485714Y-111685714D01*
X100571428Y-111685714D01*
X100628571Y-111714285D01*
X100657142Y-111742857D01*
X100685714Y-111800000D01*
X100685714Y-112028571D01*
X100428571Y-111457142D02*
X100400000Y-111428571D01*
X100371428Y-111371428D01*
X100371428Y-111228571D01*
X100400000Y-111171428D01*
X100428571Y-111142857D01*
X100485714Y-111114285D01*
X100542857Y-111114285D01*
X100628571Y-111142857D01*
X100971428Y-111485714D01*
X100971428Y-111114285D01*
X100371428Y-110742857D02*
X100371428Y-110685714D01*
X100400000Y-110628571D01*
X100428571Y-110600000D01*
X100485714Y-110571428D01*
X100600000Y-110542857D01*
X100742857Y-110542857D01*
X100857142Y-110571428D01*
X100914285Y-110600000D01*
X100942857Y-110628571D01*
X100971428Y-110685714D01*
X100971428Y-110742857D01*
X100942857Y-110800000D01*
X100914285Y-110828571D01*
X100857142Y-110857142D01*
X100742857Y-110885714D01*
X100600000Y-110885714D01*
X100485714Y-110857142D01*
X100428571Y-110828571D01*
X100400000Y-110800000D01*
X100371428Y-110742857D01*
%TO.C,R17*%
X91571428Y-117585714D02*
X91285714Y-117785714D01*
X91571428Y-117928571D02*
X90971428Y-117928571D01*
X90971428Y-117700000D01*
X91000000Y-117642857D01*
X91028571Y-117614285D01*
X91085714Y-117585714D01*
X91171428Y-117585714D01*
X91228571Y-117614285D01*
X91257142Y-117642857D01*
X91285714Y-117700000D01*
X91285714Y-117928571D01*
X91571428Y-117014285D02*
X91571428Y-117357142D01*
X91571428Y-117185714D02*
X90971428Y-117185714D01*
X91057142Y-117242857D01*
X91114285Y-117300000D01*
X91142857Y-117357142D01*
X90971428Y-116814285D02*
X90971428Y-116414285D01*
X91571428Y-116671428D01*
%TO.C,R19*%
X102371428Y-117585714D02*
X102085714Y-117785714D01*
X102371428Y-117928571D02*
X101771428Y-117928571D01*
X101771428Y-117700000D01*
X101800000Y-117642857D01*
X101828571Y-117614285D01*
X101885714Y-117585714D01*
X101971428Y-117585714D01*
X102028571Y-117614285D01*
X102057142Y-117642857D01*
X102085714Y-117700000D01*
X102085714Y-117928571D01*
X102371428Y-117014285D02*
X102371428Y-117357142D01*
X102371428Y-117185714D02*
X101771428Y-117185714D01*
X101857142Y-117242857D01*
X101914285Y-117300000D01*
X101942857Y-117357142D01*
X102371428Y-116728571D02*
X102371428Y-116614285D01*
X102342857Y-116557142D01*
X102314285Y-116528571D01*
X102228571Y-116471428D01*
X102114285Y-116442857D01*
X101885714Y-116442857D01*
X101828571Y-116471428D01*
X101800000Y-116500000D01*
X101771428Y-116557142D01*
X101771428Y-116671428D01*
X101800000Y-116728571D01*
X101828571Y-116757142D01*
X101885714Y-116785714D01*
X102028571Y-116785714D01*
X102085714Y-116757142D01*
X102114285Y-116728571D01*
X102142857Y-116671428D01*
X102142857Y-116557142D01*
X102114285Y-116500000D01*
X102085714Y-116471428D01*
X102028571Y-116442857D01*
%TO.C,R18*%
X102321428Y-111685714D02*
X102035714Y-111885714D01*
X102321428Y-112028571D02*
X101721428Y-112028571D01*
X101721428Y-111800000D01*
X101750000Y-111742857D01*
X101778571Y-111714285D01*
X101835714Y-111685714D01*
X101921428Y-111685714D01*
X101978571Y-111714285D01*
X102007142Y-111742857D01*
X102035714Y-111800000D01*
X102035714Y-112028571D01*
X102321428Y-111114285D02*
X102321428Y-111457142D01*
X102321428Y-111285714D02*
X101721428Y-111285714D01*
X101807142Y-111342857D01*
X101864285Y-111400000D01*
X101892857Y-111457142D01*
X101978571Y-110771428D02*
X101950000Y-110828571D01*
X101921428Y-110857142D01*
X101864285Y-110885714D01*
X101835714Y-110885714D01*
X101778571Y-110857142D01*
X101750000Y-110828571D01*
X101721428Y-110771428D01*
X101721428Y-110657142D01*
X101750000Y-110600000D01*
X101778571Y-110571428D01*
X101835714Y-110542857D01*
X101864285Y-110542857D01*
X101921428Y-110571428D01*
X101950000Y-110600000D01*
X101978571Y-110657142D01*
X101978571Y-110771428D01*
X102007142Y-110828571D01*
X102035714Y-110857142D01*
X102092857Y-110885714D01*
X102207142Y-110885714D01*
X102264285Y-110857142D01*
X102292857Y-110828571D01*
X102321428Y-110771428D01*
X102321428Y-110657142D01*
X102292857Y-110600000D01*
X102264285Y-110571428D01*
X102207142Y-110542857D01*
X102092857Y-110542857D01*
X102035714Y-110571428D01*
X102007142Y-110600000D01*
X101978571Y-110657142D01*
%TO.C,C2*%
X100700000Y-99314285D02*
X100671428Y-99342857D01*
X100585714Y-99371428D01*
X100528571Y-99371428D01*
X100442857Y-99342857D01*
X100385714Y-99285714D01*
X100357142Y-99228571D01*
X100328571Y-99114285D01*
X100328571Y-99028571D01*
X100357142Y-98914285D01*
X100385714Y-98857142D01*
X100442857Y-98800000D01*
X100528571Y-98771428D01*
X100585714Y-98771428D01*
X100671428Y-98800000D01*
X100700000Y-98828571D01*
X100928571Y-98828571D02*
X100957142Y-98800000D01*
X101014285Y-98771428D01*
X101157142Y-98771428D01*
X101214285Y-98800000D01*
X101242857Y-98828571D01*
X101271428Y-98885714D01*
X101271428Y-98942857D01*
X101242857Y-99028571D01*
X100900000Y-99371428D01*
X101271428Y-99371428D01*
%TO.C,R13*%
X94271428Y-117585714D02*
X93985714Y-117785714D01*
X94271428Y-117928571D02*
X93671428Y-117928571D01*
X93671428Y-117700000D01*
X93700000Y-117642857D01*
X93728571Y-117614285D01*
X93785714Y-117585714D01*
X93871428Y-117585714D01*
X93928571Y-117614285D01*
X93957142Y-117642857D01*
X93985714Y-117700000D01*
X93985714Y-117928571D01*
X94271428Y-117014285D02*
X94271428Y-117357142D01*
X94271428Y-117185714D02*
X93671428Y-117185714D01*
X93757142Y-117242857D01*
X93814285Y-117300000D01*
X93842857Y-117357142D01*
X93671428Y-116814285D02*
X93671428Y-116442857D01*
X93900000Y-116642857D01*
X93900000Y-116557142D01*
X93928571Y-116500000D01*
X93957142Y-116471428D01*
X94014285Y-116442857D01*
X94157142Y-116442857D01*
X94214285Y-116471428D01*
X94242857Y-116500000D01*
X94271428Y-116557142D01*
X94271428Y-116728571D01*
X94242857Y-116785714D01*
X94214285Y-116814285D01*
%TO.C,R3*%
X102871428Y-94300000D02*
X102585714Y-94500000D01*
X102871428Y-94642857D02*
X102271428Y-94642857D01*
X102271428Y-94414285D01*
X102300000Y-94357142D01*
X102328571Y-94328571D01*
X102385714Y-94300000D01*
X102471428Y-94300000D01*
X102528571Y-94328571D01*
X102557142Y-94357142D01*
X102585714Y-94414285D01*
X102585714Y-94642857D01*
X102271428Y-94100000D02*
X102271428Y-93728571D01*
X102500000Y-93928571D01*
X102500000Y-93842857D01*
X102528571Y-93785714D01*
X102557142Y-93757142D01*
X102614285Y-93728571D01*
X102757142Y-93728571D01*
X102814285Y-93757142D01*
X102842857Y-93785714D01*
X102871428Y-93842857D01*
X102871428Y-94014285D01*
X102842857Y-94071428D01*
X102814285Y-94100000D01*
%TO.C,R28*%
X105239285Y-100421428D02*
X105039285Y-100135714D01*
X104896428Y-100421428D02*
X104896428Y-99821428D01*
X105125000Y-99821428D01*
X105182142Y-99850000D01*
X105210714Y-99878571D01*
X105239285Y-99935714D01*
X105239285Y-100021428D01*
X105210714Y-100078571D01*
X105182142Y-100107142D01*
X105125000Y-100135714D01*
X104896428Y-100135714D01*
X105467857Y-99878571D02*
X105496428Y-99850000D01*
X105553571Y-99821428D01*
X105696428Y-99821428D01*
X105753571Y-99850000D01*
X105782142Y-99878571D01*
X105810714Y-99935714D01*
X105810714Y-99992857D01*
X105782142Y-100078571D01*
X105439285Y-100421428D01*
X105810714Y-100421428D01*
X106153571Y-100078571D02*
X106096428Y-100050000D01*
X106067857Y-100021428D01*
X106039285Y-99964285D01*
X106039285Y-99935714D01*
X106067857Y-99878571D01*
X106096428Y-99850000D01*
X106153571Y-99821428D01*
X106267857Y-99821428D01*
X106325000Y-99850000D01*
X106353571Y-99878571D01*
X106382142Y-99935714D01*
X106382142Y-99964285D01*
X106353571Y-100021428D01*
X106325000Y-100050000D01*
X106267857Y-100078571D01*
X106153571Y-100078571D01*
X106096428Y-100107142D01*
X106067857Y-100135714D01*
X106039285Y-100192857D01*
X106039285Y-100307142D01*
X106067857Y-100364285D01*
X106096428Y-100392857D01*
X106153571Y-100421428D01*
X106267857Y-100421428D01*
X106325000Y-100392857D01*
X106353571Y-100364285D01*
X106382142Y-100307142D01*
X106382142Y-100192857D01*
X106353571Y-100135714D01*
X106325000Y-100107142D01*
X106267857Y-100078571D01*
%TO.C,R29*%
X105239285Y-101721428D02*
X105039285Y-101435714D01*
X104896428Y-101721428D02*
X104896428Y-101121428D01*
X105125000Y-101121428D01*
X105182142Y-101150000D01*
X105210714Y-101178571D01*
X105239285Y-101235714D01*
X105239285Y-101321428D01*
X105210714Y-101378571D01*
X105182142Y-101407142D01*
X105125000Y-101435714D01*
X104896428Y-101435714D01*
X105467857Y-101178571D02*
X105496428Y-101150000D01*
X105553571Y-101121428D01*
X105696428Y-101121428D01*
X105753571Y-101150000D01*
X105782142Y-101178571D01*
X105810714Y-101235714D01*
X105810714Y-101292857D01*
X105782142Y-101378571D01*
X105439285Y-101721428D01*
X105810714Y-101721428D01*
X106096428Y-101721428D02*
X106210714Y-101721428D01*
X106267857Y-101692857D01*
X106296428Y-101664285D01*
X106353571Y-101578571D01*
X106382142Y-101464285D01*
X106382142Y-101235714D01*
X106353571Y-101178571D01*
X106325000Y-101150000D01*
X106267857Y-101121428D01*
X106153571Y-101121428D01*
X106096428Y-101150000D01*
X106067857Y-101178571D01*
X106039285Y-101235714D01*
X106039285Y-101378571D01*
X106067857Y-101435714D01*
X106096428Y-101464285D01*
X106153571Y-101492857D01*
X106267857Y-101492857D01*
X106325000Y-101464285D01*
X106353571Y-101435714D01*
X106382142Y-101378571D01*
%TO.C,C7*%
X96900000Y-110314285D02*
X96871428Y-110342857D01*
X96785714Y-110371428D01*
X96728571Y-110371428D01*
X96642857Y-110342857D01*
X96585714Y-110285714D01*
X96557142Y-110228571D01*
X96528571Y-110114285D01*
X96528571Y-110028571D01*
X96557142Y-109914285D01*
X96585714Y-109857142D01*
X96642857Y-109800000D01*
X96728571Y-109771428D01*
X96785714Y-109771428D01*
X96871428Y-109800000D01*
X96900000Y-109828571D01*
X97100000Y-109771428D02*
X97500000Y-109771428D01*
X97242857Y-110371428D01*
%TO.C,U4*%
X115342857Y-83471428D02*
X115342857Y-83957142D01*
X115371428Y-84014285D01*
X115400000Y-84042857D01*
X115457142Y-84071428D01*
X115571428Y-84071428D01*
X115628571Y-84042857D01*
X115657142Y-84014285D01*
X115685714Y-83957142D01*
X115685714Y-83471428D01*
X116228571Y-83671428D02*
X116228571Y-84071428D01*
X116085714Y-83442857D02*
X115942857Y-83871428D01*
X116314285Y-83871428D01*
%TO.C,R24*%
X88171428Y-117685714D02*
X87885714Y-117885714D01*
X88171428Y-118028571D02*
X87571428Y-118028571D01*
X87571428Y-117800000D01*
X87600000Y-117742857D01*
X87628571Y-117714285D01*
X87685714Y-117685714D01*
X87771428Y-117685714D01*
X87828571Y-117714285D01*
X87857142Y-117742857D01*
X87885714Y-117800000D01*
X87885714Y-118028571D01*
X87628571Y-117457142D02*
X87600000Y-117428571D01*
X87571428Y-117371428D01*
X87571428Y-117228571D01*
X87600000Y-117171428D01*
X87628571Y-117142857D01*
X87685714Y-117114285D01*
X87742857Y-117114285D01*
X87828571Y-117142857D01*
X88171428Y-117485714D01*
X88171428Y-117114285D01*
X87771428Y-116600000D02*
X88171428Y-116600000D01*
X87542857Y-116742857D02*
X87971428Y-116885714D01*
X87971428Y-116514285D01*
%TO.C,R41*%
X112714285Y-86671428D02*
X112514285Y-86385714D01*
X112371428Y-86671428D02*
X112371428Y-86071428D01*
X112600000Y-86071428D01*
X112657142Y-86100000D01*
X112685714Y-86128571D01*
X112714285Y-86185714D01*
X112714285Y-86271428D01*
X112685714Y-86328571D01*
X112657142Y-86357142D01*
X112600000Y-86385714D01*
X112371428Y-86385714D01*
X113228571Y-86271428D02*
X113228571Y-86671428D01*
X113085714Y-86042857D02*
X112942857Y-86471428D01*
X113314285Y-86471428D01*
X113857142Y-86671428D02*
X113514285Y-86671428D01*
X113685714Y-86671428D02*
X113685714Y-86071428D01*
X113628571Y-86157142D01*
X113571428Y-86214285D01*
X113514285Y-86242857D01*
%TO.C,R8*%
X96971428Y-117300000D02*
X96685714Y-117500000D01*
X96971428Y-117642857D02*
X96371428Y-117642857D01*
X96371428Y-117414285D01*
X96400000Y-117357142D01*
X96428571Y-117328571D01*
X96485714Y-117300000D01*
X96571428Y-117300000D01*
X96628571Y-117328571D01*
X96657142Y-117357142D01*
X96685714Y-117414285D01*
X96685714Y-117642857D01*
X96628571Y-116957142D02*
X96600000Y-117014285D01*
X96571428Y-117042857D01*
X96514285Y-117071428D01*
X96485714Y-117071428D01*
X96428571Y-117042857D01*
X96400000Y-117014285D01*
X96371428Y-116957142D01*
X96371428Y-116842857D01*
X96400000Y-116785714D01*
X96428571Y-116757142D01*
X96485714Y-116728571D01*
X96514285Y-116728571D01*
X96571428Y-116757142D01*
X96600000Y-116785714D01*
X96628571Y-116842857D01*
X96628571Y-116957142D01*
X96657142Y-117014285D01*
X96685714Y-117042857D01*
X96742857Y-117071428D01*
X96857142Y-117071428D01*
X96914285Y-117042857D01*
X96942857Y-117014285D01*
X96971428Y-116957142D01*
X96971428Y-116842857D01*
X96942857Y-116785714D01*
X96914285Y-116757142D01*
X96857142Y-116728571D01*
X96742857Y-116728571D01*
X96685714Y-116757142D01*
X96657142Y-116785714D01*
X96628571Y-116842857D01*
%TO.C,R34*%
X105114285Y-108471428D02*
X104914285Y-108185714D01*
X104771428Y-108471428D02*
X104771428Y-107871428D01*
X105000000Y-107871428D01*
X105057142Y-107900000D01*
X105085714Y-107928571D01*
X105114285Y-107985714D01*
X105114285Y-108071428D01*
X105085714Y-108128571D01*
X105057142Y-108157142D01*
X105000000Y-108185714D01*
X104771428Y-108185714D01*
X105314285Y-107871428D02*
X105685714Y-107871428D01*
X105485714Y-108100000D01*
X105571428Y-108100000D01*
X105628571Y-108128571D01*
X105657142Y-108157142D01*
X105685714Y-108214285D01*
X105685714Y-108357142D01*
X105657142Y-108414285D01*
X105628571Y-108442857D01*
X105571428Y-108471428D01*
X105400000Y-108471428D01*
X105342857Y-108442857D01*
X105314285Y-108414285D01*
X106200000Y-108071428D02*
X106200000Y-108471428D01*
X106057142Y-107842857D02*
X105914285Y-108271428D01*
X106285714Y-108271428D01*
%TO.C,R5*%
X99071428Y-111700000D02*
X98785714Y-111900000D01*
X99071428Y-112042857D02*
X98471428Y-112042857D01*
X98471428Y-111814285D01*
X98500000Y-111757142D01*
X98528571Y-111728571D01*
X98585714Y-111700000D01*
X98671428Y-111700000D01*
X98728571Y-111728571D01*
X98757142Y-111757142D01*
X98785714Y-111814285D01*
X98785714Y-112042857D01*
X98471428Y-111157142D02*
X98471428Y-111442857D01*
X98757142Y-111471428D01*
X98728571Y-111442857D01*
X98700000Y-111385714D01*
X98700000Y-111242857D01*
X98728571Y-111185714D01*
X98757142Y-111157142D01*
X98814285Y-111128571D01*
X98957142Y-111128571D01*
X99014285Y-111157142D01*
X99042857Y-111185714D01*
X99071428Y-111242857D01*
X99071428Y-111385714D01*
X99042857Y-111442857D01*
X99014285Y-111471428D01*
%TO.C,R10*%
X99671428Y-117585714D02*
X99385714Y-117785714D01*
X99671428Y-117928571D02*
X99071428Y-117928571D01*
X99071428Y-117700000D01*
X99100000Y-117642857D01*
X99128571Y-117614285D01*
X99185714Y-117585714D01*
X99271428Y-117585714D01*
X99328571Y-117614285D01*
X99357142Y-117642857D01*
X99385714Y-117700000D01*
X99385714Y-117928571D01*
X99671428Y-117014285D02*
X99671428Y-117357142D01*
X99671428Y-117185714D02*
X99071428Y-117185714D01*
X99157142Y-117242857D01*
X99214285Y-117300000D01*
X99242857Y-117357142D01*
X99071428Y-116642857D02*
X99071428Y-116585714D01*
X99100000Y-116528571D01*
X99128571Y-116500000D01*
X99185714Y-116471428D01*
X99300000Y-116442857D01*
X99442857Y-116442857D01*
X99557142Y-116471428D01*
X99614285Y-116500000D01*
X99642857Y-116528571D01*
X99671428Y-116585714D01*
X99671428Y-116642857D01*
X99642857Y-116700000D01*
X99614285Y-116728571D01*
X99557142Y-116757142D01*
X99442857Y-116785714D01*
X99300000Y-116785714D01*
X99185714Y-116757142D01*
X99128571Y-116728571D01*
X99100000Y-116700000D01*
X99071428Y-116642857D01*
%TO.C,C3*%
X103159420Y-103014285D02*
X103130848Y-103042857D01*
X103045134Y-103071428D01*
X102987991Y-103071428D01*
X102902277Y-103042857D01*
X102845134Y-102985714D01*
X102816562Y-102928571D01*
X102787991Y-102814285D01*
X102787991Y-102728571D01*
X102816562Y-102614285D01*
X102845134Y-102557142D01*
X102902277Y-102500000D01*
X102987991Y-102471428D01*
X103045134Y-102471428D01*
X103130848Y-102500000D01*
X103159420Y-102528571D01*
X103359420Y-102471428D02*
X103730848Y-102471428D01*
X103530848Y-102700000D01*
X103616562Y-102700000D01*
X103673705Y-102728571D01*
X103702277Y-102757142D01*
X103730848Y-102814285D01*
X103730848Y-102957142D01*
X103702277Y-103014285D01*
X103673705Y-103042857D01*
X103616562Y-103071428D01*
X103445134Y-103071428D01*
X103387991Y-103042857D01*
X103359420Y-103014285D01*
%TO.C,R1*%
X94971428Y-111300000D02*
X94685714Y-111500000D01*
X94971428Y-111642857D02*
X94371428Y-111642857D01*
X94371428Y-111414285D01*
X94400000Y-111357142D01*
X94428571Y-111328571D01*
X94485714Y-111300000D01*
X94571428Y-111300000D01*
X94628571Y-111328571D01*
X94657142Y-111357142D01*
X94685714Y-111414285D01*
X94685714Y-111642857D01*
X94971428Y-110728571D02*
X94971428Y-111071428D01*
X94971428Y-110900000D02*
X94371428Y-110900000D01*
X94457142Y-110957142D01*
X94514285Y-111014285D01*
X94542857Y-111071428D01*
%TO.C,R27*%
X105239285Y-99021428D02*
X105039285Y-98735714D01*
X104896428Y-99021428D02*
X104896428Y-98421428D01*
X105125000Y-98421428D01*
X105182142Y-98450000D01*
X105210714Y-98478571D01*
X105239285Y-98535714D01*
X105239285Y-98621428D01*
X105210714Y-98678571D01*
X105182142Y-98707142D01*
X105125000Y-98735714D01*
X104896428Y-98735714D01*
X105467857Y-98478571D02*
X105496428Y-98450000D01*
X105553571Y-98421428D01*
X105696428Y-98421428D01*
X105753571Y-98450000D01*
X105782142Y-98478571D01*
X105810714Y-98535714D01*
X105810714Y-98592857D01*
X105782142Y-98678571D01*
X105439285Y-99021428D01*
X105810714Y-99021428D01*
X106010714Y-98421428D02*
X106410714Y-98421428D01*
X106153571Y-99021428D01*
D13*
%TO.C,C6*%
X88559420Y-112090000D02*
X88840580Y-112090000D01*
X88559420Y-113110000D02*
X88840580Y-113110000D01*
%TO.C,C11*%
X108590580Y-110190000D02*
X108309420Y-110190000D01*
X108590580Y-111210000D02*
X108309420Y-111210000D01*
%TO.C,R22*%
X102237258Y-108827500D02*
X101762742Y-108827500D01*
X102237258Y-109872500D02*
X101762742Y-109872500D01*
%TO.C,R2*%
X94777500Y-114712742D02*
X94777500Y-115187258D01*
X95822500Y-114712742D02*
X95822500Y-115187258D01*
%TO.C,R14*%
X92077500Y-113062742D02*
X92077500Y-113537258D01*
X93122500Y-113062742D02*
X93122500Y-113537258D01*
%TO.C,J3*%
X117784000Y-111556000D02*
X117784000Y-98756000D01*
X111984000Y-111556000D02*
X113324000Y-111556000D01*
X111984000Y-100246000D02*
X111984000Y-98756000D01*
X111984000Y-98756000D02*
X113324000Y-98756000D01*
X117784000Y-98756000D02*
X116044000Y-98756000D01*
X111984000Y-110066000D02*
X111984000Y-111556000D01*
X111984000Y-110066000D02*
X110784000Y-110066000D01*
X116044000Y-111556000D02*
X117784000Y-111556000D01*
%TO.C,R7*%
X96127500Y-113062742D02*
X96127500Y-113537258D01*
X97172500Y-113062742D02*
X97172500Y-113537258D01*
%TO.C,R42*%
X109912742Y-85722500D02*
X110387258Y-85722500D01*
X109912742Y-84677500D02*
X110387258Y-84677500D01*
%TO.C,R36*%
X114172500Y-114587258D02*
X114172500Y-114112742D01*
X113127500Y-114587258D02*
X113127500Y-114112742D01*
%TO.C,G\u002A\u002A\u002A*%
G36*
X83320643Y-107084692D02*
G01*
X83255831Y-106842735D01*
X83199160Y-106630668D01*
X83150178Y-106446287D01*
X83108434Y-106287388D01*
X83073475Y-106151768D01*
X83044851Y-106037223D01*
X83022109Y-105941548D01*
X83004796Y-105862540D01*
X82992462Y-105797995D01*
X82984656Y-105745709D01*
X82980924Y-105703479D01*
X82980880Y-105689484D01*
X83151139Y-105689484D01*
X83151212Y-105728168D01*
X83160565Y-105795084D01*
X83178615Y-105886741D01*
X83198763Y-105974849D01*
X83255955Y-106213198D01*
X83676097Y-106100622D01*
X83618140Y-105884324D01*
X83589500Y-105782353D01*
X83565035Y-105707247D01*
X83542614Y-105653251D01*
X83520112Y-105614608D01*
X83516675Y-105609882D01*
X83461544Y-105558594D01*
X83428314Y-105548032D01*
X83719758Y-105548032D01*
X83724242Y-105590490D01*
X83735136Y-105648847D01*
X83753278Y-105729036D01*
X83771442Y-105804202D01*
X83833739Y-106058382D01*
X84317942Y-105928640D01*
X84254360Y-105691347D01*
X84228591Y-105596910D01*
X84208307Y-105528432D01*
X84191008Y-105479622D01*
X84174197Y-105444188D01*
X84155371Y-105415840D01*
X84135489Y-105392134D01*
X84069103Y-105339740D01*
X83993573Y-105314890D01*
X83915710Y-105316003D01*
X83842321Y-105341497D01*
X83780213Y-105389791D01*
X83736196Y-105459305D01*
X83726676Y-105487078D01*
X83720849Y-105515539D01*
X83719758Y-105548032D01*
X83428314Y-105548032D01*
X83394020Y-105537132D01*
X83311778Y-105544811D01*
X83303376Y-105546961D01*
X83230388Y-105579769D01*
X83177147Y-105630817D01*
X83151139Y-105689484D01*
X82980880Y-105689484D01*
X82980816Y-105669101D01*
X82983879Y-105640370D01*
X82989662Y-105615083D01*
X82997713Y-105591036D01*
X83007580Y-105566025D01*
X83008733Y-105563178D01*
X83056825Y-105484935D01*
X83126226Y-105424756D01*
X83209977Y-105384394D01*
X83301123Y-105365604D01*
X83392707Y-105370136D01*
X83477773Y-105399745D01*
X83525826Y-105432876D01*
X83575726Y-105476290D01*
X83591157Y-105403874D01*
X83628074Y-105305803D01*
X83690608Y-105224487D01*
X83773544Y-105164292D01*
X83871673Y-105129582D01*
X83926391Y-105123079D01*
X84045308Y-105131541D01*
X84146887Y-105168125D01*
X84232169Y-105233457D01*
X84302199Y-105328160D01*
X84318016Y-105357627D01*
X84335174Y-105399285D01*
X84358376Y-105466423D01*
X84385496Y-105552315D01*
X84414407Y-105650237D01*
X84442068Y-105750042D01*
X84525698Y-106062152D01*
X83881034Y-106234889D01*
X83322239Y-106384618D01*
X83838184Y-108310151D01*
X83819195Y-108315239D01*
X83661677Y-108357446D01*
X83320643Y-107084692D01*
G37*
G36*
X84116313Y-107368289D02*
G01*
X84028278Y-107356915D01*
X83943568Y-107325835D01*
X83900883Y-107303291D01*
X83827578Y-107255097D01*
X83775678Y-107204419D01*
X83747574Y-107164377D01*
X83691509Y-107045467D01*
X83667014Y-106926843D01*
X83670322Y-106858748D01*
X83831911Y-106858748D01*
X83835719Y-106946680D01*
X83864892Y-107032729D01*
X83913513Y-107103154D01*
X83967108Y-107149350D01*
X84029067Y-107183774D01*
X84088761Y-107201601D01*
X84128153Y-107200565D01*
X84138324Y-107195783D01*
X84143770Y-107185027D01*
X84143779Y-107163792D01*
X84137636Y-107127573D01*
X84124629Y-107071867D01*
X84104045Y-106992170D01*
X84082164Y-106910054D01*
X84006456Y-106627508D01*
X83965139Y-106649818D01*
X83897374Y-106703701D01*
X83852714Y-106775549D01*
X83831911Y-106858748D01*
X83670322Y-106858748D01*
X83672591Y-106812029D01*
X83706743Y-106704547D01*
X83767972Y-106607923D01*
X83854781Y-106525682D01*
X83965674Y-106461348D01*
X84060448Y-106427857D01*
X84120555Y-106411484D01*
X84322418Y-107164849D01*
X84372045Y-107141461D01*
X84459002Y-107085132D01*
X84521352Y-107013217D01*
X84558820Y-106931111D01*
X84571126Y-106844210D01*
X84557993Y-106757909D01*
X84519146Y-106677606D01*
X84454302Y-106608693D01*
X84401230Y-106574218D01*
X84355169Y-106548020D01*
X84330576Y-106525198D01*
X84319109Y-106494469D01*
X84313686Y-106455791D01*
X84312117Y-106409685D01*
X84318025Y-106379934D01*
X84323311Y-106374636D01*
X84364148Y-106375944D01*
X84421512Y-106391733D01*
X84484380Y-106417910D01*
X84541733Y-106450381D01*
X84557232Y-106461518D01*
X84629490Y-106536426D01*
X84686302Y-106633718D01*
X84724179Y-106744783D01*
X84739630Y-106861007D01*
X84738599Y-106909196D01*
X84716825Y-107027957D01*
X84669130Y-107128102D01*
X84594548Y-107210653D01*
X84492106Y-107276633D01*
X84360838Y-107327062D01*
X84335207Y-107334264D01*
X84215886Y-107360544D01*
X84171935Y-107363963D01*
X84116313Y-107368289D01*
G37*
G36*
X83609895Y-102644329D02*
G01*
X83537922Y-102663614D01*
X83516104Y-102668821D01*
X83494998Y-102670912D01*
X83470818Y-102668424D01*
X83439781Y-102659896D01*
X83398100Y-102643865D01*
X83341993Y-102618872D01*
X83267672Y-102583454D01*
X83171355Y-102536149D01*
X83049256Y-102475497D01*
X83043955Y-102472858D01*
X82934271Y-102418389D01*
X82833884Y-102368778D01*
X82746751Y-102325960D01*
X82676830Y-102291871D01*
X82628076Y-102268448D01*
X82604449Y-102257629D01*
X82603259Y-102257195D01*
X82600160Y-102270279D01*
X82607668Y-102314220D01*
X82625654Y-102388433D01*
X82653982Y-102492337D01*
X82666853Y-102537472D01*
X82749151Y-102823369D01*
X82586091Y-102867061D01*
X82371114Y-102064755D01*
X82439482Y-102047125D01*
X82464580Y-102041901D01*
X82489569Y-102041140D01*
X82519250Y-102046518D01*
X82558426Y-102059711D01*
X82611900Y-102082395D01*
X82684472Y-102116244D01*
X82780947Y-102162933D01*
X82804683Y-102174522D01*
X82908413Y-102225364D01*
X83013534Y-102277173D01*
X83111991Y-102325958D01*
X83195721Y-102367728D01*
X83250862Y-102395532D01*
X83400208Y-102471517D01*
X83210154Y-101805538D01*
X83373420Y-101761791D01*
X83609895Y-102644329D01*
G37*
G36*
X84934154Y-107586533D02*
G01*
X84579553Y-107681548D01*
X84447750Y-107717528D01*
X84344553Y-107747733D01*
X84266226Y-107774010D01*
X84209037Y-107798203D01*
X84169251Y-107822159D01*
X84143136Y-107847723D01*
X84126957Y-107876739D01*
X84117190Y-107910091D01*
X84115588Y-107988793D01*
X84140464Y-108067426D01*
X84186486Y-108137618D01*
X84248317Y-108191003D01*
X84313317Y-108217811D01*
X84339780Y-108222143D01*
X84368427Y-108223008D01*
X84404197Y-108219495D01*
X84452037Y-108210689D01*
X84516888Y-108195674D01*
X84603693Y-108173536D01*
X84717397Y-108143360D01*
X85058841Y-108051870D01*
X85106136Y-108228378D01*
X83726170Y-108598138D01*
X83678875Y-108421631D01*
X83931471Y-108353425D01*
X84032453Y-108325392D01*
X84102552Y-108304085D01*
X84143306Y-108288968D01*
X84156254Y-108279502D01*
X84151961Y-108276479D01*
X84122294Y-108260232D01*
X84081286Y-108228149D01*
X84055163Y-108204050D01*
X84016603Y-108161611D01*
X83990457Y-108118328D01*
X83969660Y-108061077D01*
X83960371Y-108028038D01*
X83941624Y-107914265D01*
X83951308Y-107817402D01*
X83989812Y-107736535D01*
X84057529Y-107670756D01*
X84131085Y-107629240D01*
X84175028Y-107612378D01*
X84244553Y-107589285D01*
X84333060Y-107561993D01*
X84433949Y-107532528D01*
X84540619Y-107502917D01*
X84553928Y-107499334D01*
X84886859Y-107410026D01*
X84934154Y-107586533D01*
G37*
G36*
X83837770Y-103494772D02*
G01*
X83753577Y-103517523D01*
X83669382Y-103540274D01*
X83734968Y-103568431D01*
X83813093Y-103618721D01*
X83878748Y-103693016D01*
X83926857Y-103782935D01*
X83952345Y-103880090D01*
X83954942Y-103931785D01*
X83940255Y-104022124D01*
X83904937Y-104102080D01*
X83863264Y-104152540D01*
X83843796Y-104167793D01*
X83819201Y-104182233D01*
X83785326Y-104197311D01*
X83738021Y-104214477D01*
X83673134Y-104235179D01*
X83586514Y-104260868D01*
X83474011Y-104292995D01*
X83407443Y-104311731D01*
X83003560Y-104425078D01*
X82960968Y-104266121D01*
X83324475Y-104162550D01*
X83450233Y-104126405D01*
X83547884Y-104097060D01*
X83621364Y-104072524D01*
X83674603Y-104050807D01*
X83711537Y-104029919D01*
X83736099Y-104007867D01*
X83752223Y-103982662D01*
X83763842Y-103952312D01*
X83768201Y-103937971D01*
X83775140Y-103859364D01*
X83754214Y-103780939D01*
X83709954Y-103710244D01*
X83646896Y-103654830D01*
X83580266Y-103624923D01*
X83555914Y-103619547D01*
X83529192Y-103617639D01*
X83495245Y-103620007D01*
X83449224Y-103627457D01*
X83386277Y-103640800D01*
X83301552Y-103660839D01*
X83190196Y-103688386D01*
X83172793Y-103692740D01*
X82830310Y-103778498D01*
X82788169Y-103621229D01*
X83799075Y-103350358D01*
X83837770Y-103494772D01*
G37*
G36*
X83120967Y-104967339D02*
G01*
X83114224Y-104992661D01*
X83099928Y-105038677D01*
X83083398Y-105071819D01*
X83074791Y-105099543D01*
X83078565Y-105145576D01*
X83093429Y-105209764D01*
X83122999Y-105320122D01*
X82962538Y-105363117D01*
X82932864Y-105254981D01*
X82914397Y-105194067D01*
X82895983Y-105154911D01*
X82871040Y-105126718D01*
X82840818Y-105104013D01*
X82801343Y-105072420D01*
X82776656Y-105037105D01*
X82758048Y-104984725D01*
X82754473Y-104971716D01*
X82741870Y-104913011D01*
X82742899Y-104869075D01*
X82758430Y-104823997D01*
X82763102Y-104813971D01*
X82795701Y-104745692D01*
X82631644Y-104130811D01*
X82467586Y-103515932D01*
X82399816Y-103466306D01*
X82355585Y-103437055D01*
X82320623Y-103426429D01*
X82279159Y-103431218D01*
X82256026Y-103437051D01*
X82209523Y-103447551D01*
X82178235Y-103444870D01*
X82148206Y-103424976D01*
X82119327Y-103397524D01*
X82084326Y-103361765D01*
X82061223Y-103335865D01*
X82056189Y-103328451D01*
X82069724Y-103320075D01*
X82107729Y-103306401D01*
X82162439Y-103290174D01*
X82171391Y-103287747D01*
X82289051Y-103256220D01*
X82322928Y-103179358D01*
X82356806Y-103102496D01*
X82116001Y-102203797D01*
X82024636Y-102154239D01*
X81965403Y-102115626D01*
X81914937Y-102071386D01*
X81894214Y-102046355D01*
X81870563Y-102013524D01*
X81849245Y-101998197D01*
X81818897Y-101996965D01*
X81768157Y-102006415D01*
X81764051Y-102007282D01*
X81672945Y-102026536D01*
X81630379Y-101867676D01*
X81805650Y-101820712D01*
X81805732Y-101754143D01*
X81821947Y-101655531D01*
X81869615Y-101553450D01*
X81887207Y-101526460D01*
X81921284Y-101477104D01*
X81639124Y-100429285D01*
X81576752Y-100386453D01*
X81571757Y-100382456D01*
X81813932Y-100382456D01*
X81816826Y-100410287D01*
X81824387Y-100451467D01*
X81837316Y-100509139D01*
X81856315Y-100586448D01*
X81882087Y-100686538D01*
X81915333Y-100812554D01*
X81954050Y-100957542D01*
X82108307Y-101533238D01*
X82069423Y-101543657D01*
X82029661Y-101567968D01*
X81989615Y-101614082D01*
X81956989Y-101671552D01*
X81941849Y-101716620D01*
X81934642Y-101755110D01*
X81932824Y-101776862D01*
X81932893Y-101777165D01*
X81948890Y-101774892D01*
X81993627Y-101764772D01*
X82063779Y-101747649D01*
X82156019Y-101724368D01*
X82267019Y-101695774D01*
X82393455Y-101662712D01*
X82531999Y-101626026D01*
X82609193Y-101605404D01*
X83283129Y-101424823D01*
X83326125Y-101585285D01*
X82660212Y-101763716D01*
X82489233Y-101809500D01*
X82348065Y-101847557D01*
X82234482Y-101878958D01*
X82146255Y-101904777D01*
X82081159Y-101926084D01*
X82036966Y-101943953D01*
X82011450Y-101959456D01*
X82002383Y-101973666D01*
X82007539Y-101987654D01*
X82024690Y-102002495D01*
X82051611Y-102019257D01*
X82086075Y-102039017D01*
X82087196Y-102039665D01*
X82154030Y-102069956D01*
X82204486Y-102074871D01*
X82208188Y-102074014D01*
X82250192Y-102062759D01*
X82384961Y-102565725D01*
X82422701Y-102706232D01*
X82453088Y-102818065D01*
X82477268Y-102904668D01*
X82496389Y-102969486D01*
X82511597Y-103015963D01*
X82524039Y-103047545D01*
X82534861Y-103067675D01*
X82545209Y-103079799D01*
X82556231Y-103087360D01*
X82559095Y-103088874D01*
X82596162Y-103114720D01*
X82616007Y-103136484D01*
X82622929Y-103144320D01*
X82634324Y-103148790D01*
X82653936Y-103149163D01*
X82685508Y-103144710D01*
X82732786Y-103134699D01*
X82799512Y-103118401D01*
X82889433Y-103095086D01*
X83006292Y-103064023D01*
X83056548Y-103050570D01*
X83191999Y-103014138D01*
X83298558Y-102984599D01*
X83379418Y-102960236D01*
X83437777Y-102939332D01*
X83476831Y-102920170D01*
X83499776Y-102901035D01*
X83509806Y-102880208D01*
X83510120Y-102855973D01*
X83503913Y-102826612D01*
X83500119Y-102812297D01*
X83491745Y-102773040D01*
X83498500Y-102750380D01*
X83526765Y-102732328D01*
X83547779Y-102722701D01*
X83593330Y-102706417D01*
X83624170Y-102709431D01*
X83646283Y-102735922D01*
X83665653Y-102790064D01*
X83670815Y-102808585D01*
X83682837Y-102891367D01*
X83674880Y-102967422D01*
X83648446Y-103027620D01*
X83631656Y-103046461D01*
X83610094Y-103059156D01*
X83568644Y-103075719D01*
X83504876Y-103096908D01*
X83416364Y-103123479D01*
X83300677Y-103156189D01*
X83155387Y-103195798D01*
X83136730Y-103200813D01*
X83003047Y-103236816D01*
X82898028Y-103265499D01*
X82818215Y-103288033D01*
X82760150Y-103305588D01*
X82720373Y-103319330D01*
X82695427Y-103330431D01*
X82681855Y-103340059D01*
X82676197Y-103349383D01*
X82675067Y-103356897D01*
X82665007Y-103395936D01*
X82649584Y-103426584D01*
X82643801Y-103437154D01*
X82640287Y-103450247D01*
X82639727Y-103469019D01*
X82642803Y-103496628D01*
X82650199Y-103536231D01*
X82662598Y-103590984D01*
X82680682Y-103664044D01*
X82705136Y-103758569D01*
X82736641Y-103877716D01*
X82775882Y-104024640D01*
X82792074Y-104085093D01*
X82834976Y-104244697D01*
X82870411Y-104375109D01*
X82899299Y-104479286D01*
X82922556Y-104560186D01*
X82941099Y-104620766D01*
X82955846Y-104663982D01*
X82967716Y-104692792D01*
X82977626Y-104710154D01*
X82986494Y-104719024D01*
X82989279Y-104720561D01*
X83022671Y-104743006D01*
X83055554Y-104773701D01*
X83087199Y-104799165D01*
X83114257Y-104806507D01*
X83114771Y-104806381D01*
X83125518Y-104796389D01*
X83126517Y-104770722D01*
X83118961Y-104731654D01*
X83276474Y-104731654D01*
X83299622Y-104778406D01*
X83330569Y-104806432D01*
X83358415Y-104829769D01*
X83360960Y-104841779D01*
X83349920Y-104846562D01*
X83334466Y-104862212D01*
X83337256Y-104899600D01*
X83339735Y-104909485D01*
X83354783Y-104965646D01*
X84028720Y-104785065D01*
X83998624Y-104672743D01*
X83749179Y-104739581D01*
X83654564Y-104764758D01*
X83586325Y-104781963D01*
X83538762Y-104791890D01*
X83506174Y-104795230D01*
X83482863Y-104792677D01*
X83463130Y-104784926D01*
X83447522Y-104776274D01*
X83408979Y-104746719D01*
X83393599Y-104710582D01*
X83392123Y-104696727D01*
X83384482Y-104660377D01*
X83360594Y-104642366D01*
X83337174Y-104635997D01*
X83301057Y-104630430D01*
X83285129Y-104640208D01*
X83277879Y-104669693D01*
X83276474Y-104731654D01*
X83118961Y-104731654D01*
X83117364Y-104723398D01*
X83106181Y-104679697D01*
X83073935Y-104559351D01*
X84068795Y-104292779D01*
X84098892Y-104405102D01*
X84115603Y-104463933D01*
X84128611Y-104496720D01*
X84141680Y-104509790D01*
X84158576Y-104509473D01*
X84160668Y-104508936D01*
X84187818Y-104486642D01*
X84203635Y-104448875D01*
X84217930Y-104402859D01*
X84234461Y-104369717D01*
X84236636Y-104363468D01*
X84237020Y-104351957D01*
X84235209Y-104333600D01*
X84230798Y-104306814D01*
X84223382Y-104270016D01*
X84212556Y-104221624D01*
X84197916Y-104160054D01*
X84179057Y-104083723D01*
X84155574Y-103991048D01*
X84127062Y-103880445D01*
X84093117Y-103750334D01*
X84053334Y-103599128D01*
X84007309Y-103425246D01*
X83954637Y-103227107D01*
X83894911Y-103003124D01*
X83827730Y-102751716D01*
X83752687Y-102471299D01*
X83674614Y-102179834D01*
X83591759Y-101870719D01*
X83517014Y-101592137D01*
X83449938Y-101342513D01*
X83390091Y-101120274D01*
X83337032Y-100923847D01*
X83290318Y-100751657D01*
X83249510Y-100602133D01*
X83214166Y-100473701D01*
X83183846Y-100364787D01*
X83158107Y-100273819D01*
X83136510Y-100199222D01*
X83118613Y-100139423D01*
X83103976Y-100092850D01*
X83092157Y-100057929D01*
X83082714Y-100033086D01*
X83075207Y-100016748D01*
X83069196Y-100007343D01*
X83064514Y-100003417D01*
X83031122Y-99980970D01*
X82998239Y-99950276D01*
X82961882Y-99923764D01*
X82930998Y-99919746D01*
X82915179Y-99927344D01*
X82909376Y-99943871D01*
X82913495Y-99976688D01*
X82927440Y-100033162D01*
X82929415Y-100040557D01*
X82959512Y-100152880D01*
X82799051Y-100195876D01*
X81964652Y-100419452D01*
X81936705Y-100315152D01*
X81915294Y-100251755D01*
X81894048Y-100219352D01*
X81874180Y-100218507D01*
X81856901Y-100249779D01*
X81850158Y-100275102D01*
X81835862Y-100321119D01*
X81819332Y-100354260D01*
X81815001Y-100364828D01*
X81813932Y-100382456D01*
X81571757Y-100382456D01*
X81537277Y-100354862D01*
X81512590Y-100319546D01*
X81493982Y-100267165D01*
X81490407Y-100254156D01*
X81477804Y-100195452D01*
X81478833Y-100151515D01*
X81494363Y-100106438D01*
X81499035Y-100096411D01*
X81516548Y-100052877D01*
X81521490Y-100013459D01*
X81514386Y-99964313D01*
X81505415Y-99927669D01*
X81479195Y-99827206D01*
X81639656Y-99784211D01*
X81667077Y-99886546D01*
X81688039Y-99952290D01*
X81709048Y-99990196D01*
X81725213Y-100003001D01*
X81758605Y-100025447D01*
X81791488Y-100056142D01*
X81823133Y-100081605D01*
X81850191Y-100088949D01*
X81850705Y-100088823D01*
X81861452Y-100078830D01*
X81862451Y-100053163D01*
X81853297Y-100005838D01*
X81853180Y-100005381D01*
X82014959Y-100005381D01*
X82021518Y-100042485D01*
X82045851Y-100072364D01*
X82066503Y-100088874D01*
X82094349Y-100112211D01*
X82096894Y-100124220D01*
X82085854Y-100129004D01*
X82070400Y-100144654D01*
X82073190Y-100182041D01*
X82075669Y-100191926D01*
X82090717Y-100248088D01*
X82764654Y-100067507D01*
X82734558Y-99955184D01*
X82500354Y-100017939D01*
X82406966Y-100042512D01*
X82339439Y-100058768D01*
X82291710Y-100067600D01*
X82257719Y-100069899D01*
X82231404Y-100066558D01*
X82211786Y-100060417D01*
X82154891Y-100027700D01*
X82129189Y-99983653D01*
X82130518Y-99942765D01*
X82132727Y-99909892D01*
X82113553Y-99892275D01*
X82105106Y-99888731D01*
X82064894Y-99879459D01*
X82040273Y-99893403D01*
X82025091Y-99935034D01*
X82022316Y-99948832D01*
X82014959Y-100005381D01*
X81853180Y-100005381D01*
X81842115Y-99962137D01*
X81809868Y-99841792D01*
X82804728Y-99575220D01*
X82834825Y-99687542D01*
X82851536Y-99746374D01*
X82864544Y-99779160D01*
X82877614Y-99792231D01*
X82894510Y-99791914D01*
X82896601Y-99791377D01*
X82923752Y-99769084D01*
X82939569Y-99731316D01*
X82953864Y-99685299D01*
X82970394Y-99652158D01*
X82979403Y-99619234D01*
X82972915Y-99564284D01*
X82964663Y-99530260D01*
X82939392Y-99435948D01*
X83099853Y-99392952D01*
X83125228Y-99485043D01*
X83144094Y-99542860D01*
X83166553Y-99580713D01*
X83201004Y-99611510D01*
X83212975Y-99619964D01*
X83252450Y-99651557D01*
X83277137Y-99686872D01*
X83295745Y-99739252D01*
X83299319Y-99752262D01*
X83311922Y-99810966D01*
X83310894Y-99854902D01*
X83295363Y-99899980D01*
X83290692Y-99910007D01*
X83258091Y-99978286D01*
X84414668Y-104294692D01*
X84477041Y-104337524D01*
X84516516Y-104369116D01*
X84541203Y-104404431D01*
X84559811Y-104456811D01*
X84563385Y-104469821D01*
X84575988Y-104528525D01*
X84574960Y-104572462D01*
X84559429Y-104617539D01*
X84554758Y-104627566D01*
X84522157Y-104695846D01*
X85028826Y-106589469D01*
X85105664Y-106876729D01*
X85174320Y-107133658D01*
X85235239Y-107362010D01*
X85288861Y-107563540D01*
X85335630Y-107740004D01*
X85375989Y-107893154D01*
X85410379Y-108024747D01*
X85439243Y-108136537D01*
X85463026Y-108230278D01*
X85482167Y-108307725D01*
X85497110Y-108370631D01*
X85508298Y-108420753D01*
X85516173Y-108459844D01*
X85521177Y-108489661D01*
X85523754Y-108511956D01*
X85524346Y-108528485D01*
X85523394Y-108541002D01*
X85522428Y-108546548D01*
X85515866Y-108575092D01*
X85506921Y-108599171D01*
X85492404Y-108620182D01*
X85469128Y-108639518D01*
X85433903Y-108658576D01*
X85383542Y-108678751D01*
X85314855Y-108701438D01*
X85224656Y-108728033D01*
X85109754Y-108759930D01*
X84966963Y-108798527D01*
X84914425Y-108812636D01*
X84388978Y-108953683D01*
X84423375Y-109082052D01*
X84262913Y-109125047D01*
X84228517Y-108996678D01*
X83974828Y-109064654D01*
X83914150Y-109004758D01*
X83879149Y-108968998D01*
X83856046Y-108943099D01*
X83851012Y-108935685D01*
X83864943Y-108927914D01*
X83904535Y-108914071D01*
X83963256Y-108896292D01*
X84017037Y-108881362D01*
X84185521Y-108836217D01*
X84138227Y-108659710D01*
X84298688Y-108616715D01*
X84345983Y-108793221D01*
X84834243Y-108662393D01*
X84974663Y-108624572D01*
X85086284Y-108593958D01*
X85172479Y-108569465D01*
X85236623Y-108550011D01*
X85282089Y-108534510D01*
X85312254Y-108521878D01*
X85330490Y-108511034D01*
X85340171Y-108500891D01*
X85340962Y-108499593D01*
X85343163Y-108492340D01*
X85343503Y-108479788D01*
X85341547Y-108460226D01*
X85336862Y-108431940D01*
X85329013Y-108393219D01*
X85317564Y-108342352D01*
X85302083Y-108277626D01*
X85282136Y-108197330D01*
X85257288Y-108099752D01*
X85227103Y-107983180D01*
X85191148Y-107845903D01*
X85148991Y-107686209D01*
X85100193Y-107502386D01*
X85044324Y-107292722D01*
X84980948Y-107055505D01*
X84909629Y-106789025D01*
X84859358Y-106601358D01*
X84782645Y-106315189D01*
X84713997Y-106059433D01*
X84652936Y-105832394D01*
X84598982Y-105632380D01*
X84551658Y-105457695D01*
X84510486Y-105306646D01*
X84474986Y-105177536D01*
X84444683Y-105068673D01*
X84419096Y-104978361D01*
X84397747Y-104904906D01*
X84380157Y-104846614D01*
X84365851Y-104801791D01*
X84354347Y-104768741D01*
X84345169Y-104745770D01*
X84337837Y-104731184D01*
X84331874Y-104723288D01*
X84328580Y-104720975D01*
X84295188Y-104698530D01*
X84262305Y-104667836D01*
X84225948Y-104641322D01*
X84195064Y-104637305D01*
X84179245Y-104644904D01*
X84173442Y-104661430D01*
X84177562Y-104694248D01*
X84191506Y-104750720D01*
X84193481Y-104758116D01*
X84223578Y-104870439D01*
X84063117Y-104913434D01*
X83228718Y-105137010D01*
X83200771Y-105032711D01*
X83179360Y-104969313D01*
X83158114Y-104936911D01*
X83149650Y-104936550D01*
X83138246Y-104936065D01*
X83120967Y-104967339D01*
G37*
G36*
X82508284Y-101367040D02*
G01*
X82420248Y-101355666D01*
X82335539Y-101324586D01*
X82292853Y-101302043D01*
X82219548Y-101253848D01*
X82167648Y-101203170D01*
X82139544Y-101163128D01*
X82083479Y-101044219D01*
X82058985Y-100925594D01*
X82062292Y-100857500D01*
X82223881Y-100857500D01*
X82227689Y-100945431D01*
X82256862Y-101031480D01*
X82305483Y-101101905D01*
X82359078Y-101148101D01*
X82421037Y-101182525D01*
X82480731Y-101200352D01*
X82520123Y-101199316D01*
X82530294Y-101194534D01*
X82535741Y-101183779D01*
X82535749Y-101162543D01*
X82529607Y-101126325D01*
X82516599Y-101070618D01*
X82496015Y-100990921D01*
X82474134Y-100908806D01*
X82398426Y-100626259D01*
X82357110Y-100648569D01*
X82289344Y-100702452D01*
X82244684Y-100774300D01*
X82223881Y-100857500D01*
X82062292Y-100857500D01*
X82064561Y-100810780D01*
X82098713Y-100703298D01*
X82159942Y-100606676D01*
X82246752Y-100524434D01*
X82357644Y-100460099D01*
X82452419Y-100426610D01*
X82512525Y-100410235D01*
X82714388Y-101163600D01*
X82764015Y-101140212D01*
X82850972Y-101083883D01*
X82913323Y-101011968D01*
X82950790Y-100929863D01*
X82963096Y-100842961D01*
X82949964Y-100756662D01*
X82911116Y-100676357D01*
X82846273Y-100607445D01*
X82793200Y-100572970D01*
X82747139Y-100546771D01*
X82722547Y-100523950D01*
X82711079Y-100493220D01*
X82705656Y-100454542D01*
X82704088Y-100408438D01*
X82709996Y-100378685D01*
X82715282Y-100373388D01*
X82756119Y-100374695D01*
X82813482Y-100390485D01*
X82876350Y-100416661D01*
X82933703Y-100449132D01*
X82949202Y-100460269D01*
X83021461Y-100535177D01*
X83078273Y-100632470D01*
X83116149Y-100743534D01*
X83131601Y-100859759D01*
X83130570Y-100907947D01*
X83108795Y-101026708D01*
X83061100Y-101126853D01*
X82986518Y-101209406D01*
X82884076Y-101275385D01*
X82752808Y-101325814D01*
X82727177Y-101333016D01*
X82607856Y-101359295D01*
X82563905Y-101362714D01*
X82508284Y-101367040D01*
G37*
%TO.C,R30*%
X107387742Y-102327500D02*
X107862258Y-102327500D01*
X107387742Y-103372500D02*
X107862258Y-103372500D01*
%TO.C,R6*%
X98522500Y-114712742D02*
X98522500Y-115187258D01*
X97477500Y-114712742D02*
X97477500Y-115187258D01*
%TO.C,R4*%
X104322500Y-96862742D02*
X104322500Y-97337258D01*
X103277500Y-96862742D02*
X103277500Y-97337258D01*
%TO.C,C9*%
X112240580Y-78740000D02*
X111959420Y-78740000D01*
X112240580Y-79760000D02*
X111959420Y-79760000D01*
%TO.C,R26*%
X108722500Y-114587258D02*
X108722500Y-114112742D01*
X107677500Y-114587258D02*
X107677500Y-114112742D01*
%TO.C,C4*%
X88559420Y-110740000D02*
X88840580Y-110740000D01*
X88559420Y-111760000D02*
X88840580Y-111760000D01*
%TO.C,U2*%
X79090000Y-85550000D02*
X77600000Y-85550000D01*
X77600000Y-89610000D02*
X77600000Y-91350000D01*
X79090000Y-85550000D02*
X79090000Y-84350000D01*
X104410000Y-85550000D02*
X105900000Y-85550000D01*
X77600000Y-91350000D02*
X105900000Y-91350000D01*
X77600000Y-85550000D02*
X77600000Y-86890000D01*
X105900000Y-85550000D02*
X105900000Y-86890000D01*
X105900000Y-91350000D02*
X105900000Y-89610000D01*
%TO.C,R11*%
X107072500Y-94387258D02*
X107072500Y-93912742D01*
X106027500Y-94387258D02*
X106027500Y-93912742D01*
%TO.C,R31*%
X107362742Y-103677500D02*
X107837258Y-103677500D01*
X107362742Y-104722500D02*
X107837258Y-104722500D01*
%TO.C,R16*%
X90727500Y-113062742D02*
X90727500Y-113537258D01*
X91772500Y-113062742D02*
X91772500Y-113537258D01*
%TO.C,R25*%
X87122500Y-115187258D02*
X87122500Y-114712742D01*
X86077500Y-115187258D02*
X86077500Y-114712742D01*
%TO.C,R40*%
X110072500Y-114112742D02*
X110072500Y-114587258D01*
X109027500Y-114112742D02*
X109027500Y-114587258D01*
%TO.C,C10*%
X108590580Y-111540000D02*
X108309420Y-111540000D01*
X108590580Y-112560000D02*
X108309420Y-112560000D01*
%TO.C,R37*%
X110377500Y-114587258D02*
X110377500Y-114112742D01*
X111422500Y-114587258D02*
X111422500Y-114112742D01*
%TO.C,R9*%
X99872500Y-113112742D02*
X99872500Y-113587258D01*
X98827500Y-113112742D02*
X98827500Y-113587258D01*
%TO.C,R32*%
X107337742Y-106072500D02*
X107812258Y-106072500D01*
X107337742Y-105027500D02*
X107812258Y-105027500D01*
%TO.C,R35*%
X112772500Y-114587258D02*
X112772500Y-114112742D01*
X111727500Y-114587258D02*
X111727500Y-114112742D01*
%TO.C,R38*%
X104977500Y-114587258D02*
X104977500Y-114112742D01*
X106022500Y-114587258D02*
X106022500Y-114112742D01*
%TO.C,U3*%
X98575000Y-107975000D02*
X97525000Y-107975000D01*
X89175000Y-107975000D02*
X89175000Y-109250000D01*
X98575000Y-97625000D02*
X98575000Y-98675000D01*
X98575000Y-97625000D02*
X97525000Y-97625000D01*
X88225000Y-107975000D02*
X88225000Y-106925000D01*
X88225000Y-97625000D02*
X89275000Y-97625000D01*
X88225000Y-107975000D02*
X89175000Y-107975000D01*
X88225000Y-97625000D02*
X88225000Y-98675000D01*
X98575000Y-107975000D02*
X98575000Y-106925000D01*
%TO.C,U1*%
X104410000Y-78500000D02*
X104410000Y-79700000D01*
X105900000Y-74440000D02*
X105900000Y-72700000D01*
X104410000Y-78500000D02*
X105900000Y-78500000D01*
X79090000Y-78500000D02*
X77600000Y-78500000D01*
X77600000Y-72700000D02*
X77600000Y-74440000D01*
X77600000Y-78500000D02*
X77600000Y-77160000D01*
X105900000Y-72700000D02*
X77600000Y-72700000D01*
X105900000Y-78500000D02*
X105900000Y-77160000D01*
%TO.C,R33*%
X107337742Y-106377500D02*
X107812258Y-106377500D01*
X107337742Y-107422500D02*
X107812258Y-107422500D01*
%TO.C,R21*%
X101222500Y-114762742D02*
X101222500Y-115237258D01*
X100177500Y-114762742D02*
X100177500Y-115237258D01*
%TO.C,R12*%
X93427500Y-113062742D02*
X93427500Y-113537258D01*
X94472500Y-113062742D02*
X94472500Y-113537258D01*
%TO.C,J1*%
X124797000Y-111856000D02*
X124797000Y-110056000D01*
X124047000Y-100256000D02*
X124797000Y-100256000D01*
X128347000Y-112766000D02*
X131147000Y-112766000D01*
X133847000Y-112766000D02*
X135947000Y-112766000D01*
X128347000Y-97546000D02*
X131147000Y-97546000D01*
X133847000Y-97546000D02*
X135947000Y-97546000D01*
X124797000Y-100256000D02*
X124797000Y-98456000D01*
%TO.C,C8*%
X104709420Y-111260000D02*
X104990580Y-111260000D01*
X104709420Y-110240000D02*
X104990580Y-110240000D01*
%TO.C,J2*%
X114433000Y-111556000D02*
X116173000Y-111556000D01*
X120233000Y-100246000D02*
X121433000Y-100246000D01*
X116173000Y-98756000D02*
X114433000Y-98756000D01*
X120233000Y-110066000D02*
X120233000Y-111556000D01*
X120233000Y-98756000D02*
X118893000Y-98756000D01*
X120233000Y-100246000D02*
X120233000Y-98756000D01*
X114433000Y-98756000D02*
X114433000Y-111556000D01*
X120233000Y-111556000D02*
X118893000Y-111556000D01*
%TO.C,C1*%
X100790580Y-95440000D02*
X100509420Y-95440000D01*
X100790580Y-96460000D02*
X100509420Y-96460000D01*
%TO.C,C5*%
X101860000Y-107140580D02*
X101860000Y-106859420D01*
X100840000Y-107140580D02*
X100840000Y-106859420D01*
%TO.C,R39*%
X107372500Y-114587258D02*
X107372500Y-114112742D01*
X106327500Y-114587258D02*
X106327500Y-114112742D01*
%TO.C,R15*%
X93122500Y-114712742D02*
X93122500Y-115187258D01*
X92077500Y-114712742D02*
X92077500Y-115187258D01*
%TO.C,L1*%
X117960000Y-77850000D02*
X117960000Y-81050000D01*
X115240000Y-81050000D02*
X115240000Y-77850000D01*
%TO.C,D1*%
X110761252Y-117585000D02*
X110238748Y-117585000D01*
X110761252Y-116115000D02*
X110238748Y-116115000D01*
%TO.C,C12*%
X113509420Y-77340000D02*
X113790580Y-77340000D01*
X113509420Y-78360000D02*
X113790580Y-78360000D01*
%TO.C,R20*%
X100177500Y-113112742D02*
X100177500Y-113587258D01*
X101222500Y-113112742D02*
X101222500Y-113587258D01*
%TO.C,R17*%
X91772500Y-114712742D02*
X91772500Y-115187258D01*
X90727500Y-114712742D02*
X90727500Y-115187258D01*
%TO.C,R19*%
X101527500Y-114762742D02*
X101527500Y-115237258D01*
X102572500Y-114762742D02*
X102572500Y-115237258D01*
%TO.C,R18*%
X101527500Y-113112742D02*
X101527500Y-113587258D01*
X102572500Y-113112742D02*
X102572500Y-113587258D01*
%TO.C,C2*%
X100790580Y-98460000D02*
X100509420Y-98460000D01*
X100790580Y-97440000D02*
X100509420Y-97440000D01*
%TO.C,R13*%
X94472500Y-114712742D02*
X94472500Y-115187258D01*
X93427500Y-114712742D02*
X93427500Y-115187258D01*
%TO.C,R3*%
X103277500Y-93912742D02*
X103277500Y-94387258D01*
X104322500Y-93912742D02*
X104322500Y-94387258D01*
%TO.C,R28*%
X107437742Y-99627500D02*
X107912258Y-99627500D01*
X107437742Y-100672500D02*
X107912258Y-100672500D01*
%TO.C,R29*%
X107437742Y-100977500D02*
X107912258Y-100977500D01*
X107437742Y-102022500D02*
X107912258Y-102022500D01*
%TO.C,C7*%
X97240580Y-111660000D02*
X96959420Y-111660000D01*
X97240580Y-110640000D02*
X96959420Y-110640000D01*
D10*
%TO.C,SM3*%
X79687500Y-114650500D02*
X80195500Y-115158500D01*
X80957500Y-114142500D02*
X77401500Y-114142500D01*
X79687500Y-116682500D02*
X79687500Y-114650500D01*
X80957500Y-117698500D02*
X81973500Y-116682500D01*
X81973500Y-113126500D02*
X78417500Y-113126500D01*
X77401500Y-116555500D02*
X77401500Y-117698500D01*
X81973500Y-116682500D02*
X81973500Y-113126500D01*
X80957500Y-117698500D02*
X80957500Y-114142500D01*
X77401500Y-114142500D02*
X77401500Y-116555500D01*
X80449500Y-117444500D02*
X80449500Y-115920500D01*
X80957500Y-114142500D02*
X81973500Y-113126500D01*
X78671500Y-115412500D02*
X78671500Y-117444500D01*
X77401500Y-117698500D02*
X80957500Y-117698500D01*
X80449500Y-115920500D02*
X79687500Y-116682500D01*
X78417500Y-113126500D02*
X77401500Y-114142500D01*
X81973500Y-113126500D02*
X80957500Y-114142500D01*
X78671500Y-117444500D02*
X78163500Y-116936500D01*
X79687500Y-114650500D02*
X79179500Y-115158500D01*
X77909500Y-116174500D02*
X78671500Y-115412500D01*
X78671500Y-117444500D02*
X79179500Y-116936500D01*
X77909500Y-114650500D02*
X77909500Y-116174500D01*
D13*
%TO.C,U4*%
X113150000Y-80790000D02*
X113950000Y-80790000D01*
X113150000Y-80790000D02*
X112350000Y-80790000D01*
X113150000Y-83910000D02*
X114950000Y-83910000D01*
X113150000Y-83910000D02*
X112350000Y-83910000D01*
%TO.C,R24*%
X87427500Y-114712742D02*
X87427500Y-115187258D01*
X88472500Y-114712742D02*
X88472500Y-115187258D01*
%TO.C,R41*%
X112862742Y-85722500D02*
X113337258Y-85722500D01*
X112862742Y-84677500D02*
X113337258Y-84677500D01*
%TO.C,R8*%
X96127500Y-114712742D02*
X96127500Y-115187258D01*
X97172500Y-114712742D02*
X97172500Y-115187258D01*
%TO.C,R34*%
X107312742Y-108772500D02*
X107787258Y-108772500D01*
X107312742Y-107727500D02*
X107787258Y-107727500D01*
%TO.C,R5*%
X98522500Y-113062742D02*
X98522500Y-113537258D01*
X97477500Y-113062742D02*
X97477500Y-113537258D01*
%TO.C,R10*%
X98827500Y-114762742D02*
X98827500Y-115237258D01*
X99872500Y-114762742D02*
X99872500Y-115237258D01*
%TO.C,C3*%
X103540580Y-104310000D02*
X103259420Y-104310000D01*
X103540580Y-103290000D02*
X103259420Y-103290000D01*
%TO.C,R1*%
X94777500Y-113062742D02*
X94777500Y-113537258D01*
X95822500Y-113062742D02*
X95822500Y-113537258D01*
%TO.C,R27*%
X107437742Y-99322500D02*
X107912258Y-99322500D01*
X107437742Y-98277500D02*
X107912258Y-98277500D01*
%TD*%
M02*
