%TF.GenerationSoftware,KiCad,Pcbnew,(6.0.7)*%
%TF.CreationDate,2022-11-13T02:02:31+01:00*%
%TF.ProjectId,TTL_to_HDMI,54544c5f-746f-45f4-9844-4d492e6b6963,rev?*%
%TF.SameCoordinates,Original*%
%TF.FileFunction,Copper,L4,Bot*%
%TF.FilePolarity,Positive*%
%FSLAX46Y46*%
G04 Gerber Fmt 4.6, Leading zero omitted, Abs format (unit mm)*
G04 Created by KiCad (PCBNEW (6.0.7)) date 2022-11-13 02:02:31*
%MOMM*%
%LPD*%
G01*
G04 APERTURE LIST*
%TA.AperFunction,ComponentPad*%
%ADD10C,0.500000*%
%TD*%
%TA.AperFunction,SMDPad,CuDef*%
%ADD11R,8.000000X8.000000*%
%TD*%
%TA.AperFunction,ComponentPad*%
%ADD12O,3.300000X1.500000*%
%TD*%
%TA.AperFunction,ComponentPad*%
%ADD13O,2.300000X1.500000*%
%TD*%
%TA.AperFunction,ViaPad*%
%ADD14C,0.500000*%
%TD*%
%TA.AperFunction,Conductor*%
%ADD15C,0.200000*%
%TD*%
G04 APERTURE END LIST*
D10*
%TO.P,U3,65,EP*%
%TO.N,GND*%
X94900000Y-106300000D03*
X92900000Y-100300000D03*
X89900000Y-103300000D03*
X94900000Y-103300000D03*
X95900000Y-101300000D03*
X90900000Y-100300000D03*
X91900000Y-106300000D03*
X92900000Y-102300000D03*
X95900000Y-104300000D03*
X92900000Y-105300000D03*
X91900000Y-103300000D03*
X91900000Y-99300000D03*
X93900000Y-103300000D03*
X91900000Y-100300000D03*
X89900000Y-106300000D03*
X92900000Y-103300000D03*
X96900000Y-99300000D03*
X95900000Y-102300000D03*
X95900000Y-105300000D03*
X96900000Y-105300000D03*
X91900000Y-105300000D03*
X92900000Y-101300000D03*
X92900000Y-99300000D03*
X93900000Y-106300000D03*
X93900000Y-104300000D03*
X92900000Y-106300000D03*
X95900000Y-100300000D03*
X89900000Y-105300000D03*
X96900000Y-103300000D03*
X93900000Y-105300000D03*
X93900000Y-100300000D03*
X89900000Y-101300000D03*
X90900000Y-103300000D03*
X91900000Y-101300000D03*
X90900000Y-105300000D03*
X94900000Y-102300000D03*
X89900000Y-104300000D03*
X95900000Y-106300000D03*
X94900000Y-100300000D03*
X95900000Y-99300000D03*
X96900000Y-104300000D03*
X91900000Y-102300000D03*
X93900000Y-99300000D03*
X89900000Y-99300000D03*
X96900000Y-102300000D03*
X93900000Y-102300000D03*
X96900000Y-100300000D03*
X94900000Y-99300000D03*
X90900000Y-106300000D03*
X89900000Y-102300000D03*
X90900000Y-104300000D03*
X94900000Y-105300000D03*
X90900000Y-102300000D03*
X93900000Y-101300000D03*
X94900000Y-104300000D03*
X96900000Y-101300000D03*
X90900000Y-101300000D03*
X90900000Y-99300000D03*
X91900000Y-104300000D03*
X89900000Y-100300000D03*
X96900000Y-106300000D03*
X95900000Y-103300000D03*
D11*
X93400000Y-102800000D03*
D10*
X92900000Y-104300000D03*
X94900000Y-101300000D03*
%TD*%
D12*
%TO.P,J1,SH,SH*%
%TO.N,GND*%
X126507000Y-97906000D03*
X126507000Y-112406000D03*
D13*
X132467000Y-97906000D03*
X132467000Y-112406000D03*
%TD*%
D14*
%TO.N,GND*%
X112500000Y-116050000D03*
X87050000Y-112650000D03*
X113650000Y-116050000D03*
X83200500Y-97200000D03*
X110250000Y-106765186D03*
X112850000Y-116850000D03*
X101012387Y-100550500D03*
X100300000Y-109150000D03*
X118300000Y-78100000D03*
X98750000Y-111150000D03*
X84300000Y-98550000D03*
X103800000Y-98800000D03*
X102350000Y-97950000D03*
X110300000Y-104150000D03*
X88100000Y-97200000D03*
X97486444Y-92686444D03*
X103100000Y-110750000D03*
X115000000Y-79000000D03*
X110136444Y-108936444D03*
X110300000Y-105650000D03*
X110350000Y-102650000D03*
X118300000Y-80700000D03*
X105100000Y-103800000D03*
X102817746Y-102049500D03*
X102777505Y-100525377D03*
X108426696Y-111378643D03*
X105963607Y-98464421D03*
X84385694Y-102622590D03*
X94203740Y-90419149D03*
X102300000Y-95950000D03*
X110300000Y-101150000D03*
X104805060Y-102645074D03*
X115000000Y-80000000D03*
X86600000Y-113300000D03*
X105815905Y-100489214D03*
X85480073Y-102319927D03*
X87000000Y-111250000D03*
%TO.N,+5V*%
X108200000Y-116750000D03*
X112200000Y-98050000D03*
%TO.N,B5*%
X82816949Y-95856803D03*
X97599000Y-90029092D03*
%TO.N,B4*%
X82519377Y-94994026D03*
X97049500Y-89450000D03*
%TO.N,B3*%
X96489984Y-90005193D03*
X82091021Y-94441021D03*
%TO.N,B2*%
X82250000Y-93699500D03*
X95940484Y-89475767D03*
%TO.N,B1*%
X81288556Y-93688556D03*
X95333591Y-90050000D03*
%TO.N,B0*%
X81450000Y-92750000D03*
X94784091Y-89426856D03*
%TO.N,G5*%
X88968302Y-92368670D03*
X92834183Y-89149500D03*
%TO.N,G4*%
X92163391Y-89426477D03*
X88004617Y-92554536D03*
%TO.N,G3*%
X88215742Y-91566300D03*
X92700000Y-88050000D03*
%TO.N,G2*%
X87352112Y-91652112D03*
X91986444Y-88286444D03*
%TO.N,G1*%
X91103083Y-88366169D03*
X87488556Y-90738556D03*
%TO.N,G0*%
X86600000Y-90850000D03*
X91109229Y-87608729D03*
%TO.N,/13*%
X110900000Y-112550000D03*
X112550000Y-106650000D03*
%TO.N,SCL*%
X102600000Y-113350000D03*
X100497872Y-110245888D03*
%TO.N,SDA*%
X100250000Y-110900000D03*
X101350000Y-113350000D03*
%TO.N,EDGE*%
X95952515Y-113203521D03*
X93950000Y-111450000D03*
%TO.N,MSEN*%
X95200000Y-111450000D03*
X98700000Y-113300000D03*
%TO.N,nPD*%
X97347485Y-113349500D03*
X94550000Y-110900000D03*
%TO.N,nRST*%
X100000000Y-113350000D03*
X99450000Y-110950000D03*
%TO.N,CTL1*%
X94699577Y-113237095D03*
X93400000Y-110900000D03*
%TO.N,CTL2*%
X93288005Y-113196619D03*
X92849500Y-111409083D03*
%TO.N,CTL3*%
X92270653Y-110900000D03*
X91925592Y-113187177D03*
%TO.N,/14*%
X113050000Y-107250000D03*
X112250000Y-112650000D03*
%TO.N,+3V3*%
X107350000Y-92500000D03*
X103800000Y-92450000D03*
X96975500Y-111200000D03*
X103186444Y-104663556D03*
X88750000Y-113550000D03*
X114400000Y-76800000D03*
X102100500Y-106750000D03*
X106550000Y-92450000D03*
X113700000Y-84100000D03*
X113600000Y-76800000D03*
X113949500Y-80200000D03*
X89500000Y-113800000D03*
X99350000Y-111650000D03*
X105650000Y-111650000D03*
X99900000Y-97000000D03*
%TO.N,/TX0+*%
X106100000Y-99150497D03*
X103467619Y-102308278D03*
%TO.N,/TX0-*%
X106100000Y-99850000D03*
X104164983Y-102362930D03*
%TO.N,/TX2+*%
X102276045Y-100037686D03*
X105900000Y-104550000D03*
%TO.N,/TX2-*%
X105900000Y-105250000D03*
X101585537Y-100149500D03*
%TO.N,Net-(U1-Pad9)*%
X98371399Y-93921399D03*
X90371153Y-110500500D03*
%TO.N,Net-(U1-Pad11)*%
X90949500Y-111599500D03*
X96900000Y-93400000D03*
%TO.N,Net-(U1-Pad10)*%
X91634074Y-111358194D03*
X97550000Y-93950000D03*
%TO.N,G7*%
X93959911Y-89685349D03*
X90186585Y-92963697D03*
%TO.N,G6*%
X92956166Y-90188631D03*
X89501767Y-92821129D03*
%TO.N,B7*%
X98698500Y-90075654D03*
X84700500Y-96950000D03*
%TO.N,B6*%
X98150000Y-89450000D03*
X84887916Y-101162084D03*
%TD*%
D15*
%TO.N,+5V*%
X110400000Y-116750000D02*
X113600000Y-113550000D01*
X113600000Y-113550000D02*
X113600000Y-99450000D01*
X108200000Y-116750000D02*
X110400000Y-116750000D01*
X113600000Y-99450000D02*
X112200000Y-98050000D01*
%TO.N,B5*%
X88793505Y-95850000D02*
X88993505Y-96050000D01*
X88993505Y-96050000D02*
X92218628Y-96050000D01*
X97599000Y-90669628D02*
X97599000Y-90029092D01*
X82816949Y-95856803D02*
X82823752Y-95850000D01*
X92218628Y-96050000D02*
X96136444Y-92132184D01*
X96136444Y-92132184D02*
X96136444Y-92127254D01*
X96136444Y-92127254D02*
X96927254Y-91336444D01*
X82823752Y-95850000D02*
X88793505Y-95850000D01*
X96932184Y-91336444D02*
X97599000Y-90669628D01*
X96927254Y-91336444D02*
X96932184Y-91336444D01*
%TO.N,B4*%
X96766498Y-90936444D02*
X97049500Y-90653442D01*
X83187256Y-95450000D02*
X88959191Y-95450000D01*
X96761568Y-90936444D02*
X96766498Y-90936444D01*
X95736444Y-91966498D02*
X95736444Y-91961568D01*
X92052942Y-95650000D02*
X95736444Y-91966498D01*
X97049500Y-90653442D02*
X97049500Y-89450000D01*
X82731282Y-94994026D02*
X83187256Y-95450000D01*
X95736444Y-91961568D02*
X96761568Y-90936444D01*
X82519377Y-94994026D02*
X82731282Y-94994026D01*
X89159191Y-95650000D02*
X92052942Y-95650000D01*
X88959191Y-95450000D02*
X89159191Y-95650000D01*
%TO.N,B3*%
X82743963Y-94441021D02*
X83352942Y-95050000D01*
X95336444Y-91800812D02*
X95336444Y-91795882D01*
X83352942Y-95050000D02*
X89124877Y-95050000D01*
X89324877Y-95250000D02*
X91887256Y-95250000D01*
X89124877Y-95050000D02*
X89324877Y-95250000D01*
X82091021Y-94441021D02*
X82743963Y-94441021D01*
X91887256Y-95250000D02*
X95336444Y-91800812D01*
X96489984Y-90642342D02*
X96489984Y-90005193D01*
X95336444Y-91795882D02*
X96489984Y-90642342D01*
%TO.N,B2*%
X95940484Y-90626156D02*
X95940484Y-89475767D01*
X89290563Y-94650000D02*
X89490563Y-94850000D01*
X94936444Y-91635126D02*
X94936444Y-91630196D01*
X82568128Y-93699500D02*
X83518628Y-94650000D01*
X91721570Y-94850000D02*
X94936444Y-91635126D01*
X82250000Y-93699500D02*
X82568128Y-93699500D01*
X83518628Y-94650000D02*
X89290563Y-94650000D01*
X89490563Y-94850000D02*
X91721570Y-94850000D01*
X94936444Y-91630196D02*
X95940484Y-90626156D01*
%TO.N,B1*%
X82584314Y-93150000D02*
X83684314Y-94250000D01*
X89456248Y-94250000D02*
X89556248Y-94350000D01*
X81288556Y-93688556D02*
X81827113Y-93150000D01*
X81827113Y-93150000D02*
X82584314Y-93150000D01*
X91655884Y-94350000D02*
X94536444Y-91469440D01*
X94536444Y-91469440D02*
X94536444Y-91464510D01*
X83684314Y-94250000D02*
X89456248Y-94250000D01*
X95333591Y-90667363D02*
X95333591Y-90050000D01*
X89556248Y-94350000D02*
X91655884Y-94350000D01*
X94536444Y-91464510D02*
X95333591Y-90667363D01*
%TO.N,B0*%
X94136444Y-91298824D02*
X94784091Y-90651177D01*
X94136444Y-91303754D02*
X94136444Y-91298824D01*
X91490198Y-93950000D02*
X94136444Y-91303754D01*
X82750000Y-92750000D02*
X83850000Y-93850000D01*
X94784091Y-90651177D02*
X94784091Y-89426856D01*
X83850000Y-93850000D02*
X89621934Y-93850000D01*
X81450000Y-92750000D02*
X82750000Y-92750000D01*
X89621934Y-93850000D02*
X89721934Y-93950000D01*
X89721934Y-93950000D02*
X91490198Y-93950000D01*
%TO.N,G5*%
X88968302Y-92368670D02*
X89236972Y-92100000D01*
X89236972Y-92100000D02*
X89419863Y-92100000D01*
X91967651Y-89976477D02*
X92391209Y-89976477D01*
X91827959Y-90116169D02*
X91967651Y-89976477D01*
X89419863Y-92100000D02*
X91403695Y-90116169D01*
X92391209Y-89976477D02*
X92834183Y-89533503D01*
X92834183Y-89533503D02*
X92834183Y-89149500D01*
X91403695Y-90116169D02*
X91827959Y-90116169D01*
%TO.N,G4*%
X88859860Y-91700000D02*
X89254177Y-91700000D01*
X88004617Y-92554536D02*
X88004617Y-92495383D01*
X89254177Y-91700000D02*
X91238009Y-89716169D01*
X88443560Y-92116300D02*
X88859860Y-91700000D01*
X91662273Y-89716169D02*
X91951965Y-89426477D01*
X88383700Y-92116300D02*
X88443560Y-92116300D01*
X91951965Y-89426477D02*
X92163391Y-89426477D01*
X88004617Y-92495383D02*
X88383700Y-92116300D01*
X91238009Y-89716169D02*
X91662273Y-89716169D01*
%TO.N,G3*%
X92173523Y-88876477D02*
X92700000Y-88350000D01*
X92700000Y-88350000D02*
X92700000Y-88050000D01*
X88482042Y-91300000D02*
X89088492Y-91300000D01*
X88215742Y-91566300D02*
X88482042Y-91300000D01*
X91072323Y-89316169D02*
X91496587Y-89316169D01*
X91936279Y-88876477D02*
X92173523Y-88876477D01*
X91496587Y-89316169D02*
X91936279Y-88876477D01*
X89088492Y-91300000D02*
X91072323Y-89316169D01*
%TO.N,G2*%
X87352112Y-91652112D02*
X87352818Y-91652112D01*
X88922806Y-90900000D02*
X90906637Y-88916169D01*
X88104930Y-90900000D02*
X88922806Y-90900000D01*
X91330901Y-88916169D02*
X91960626Y-88286444D01*
X90906637Y-88916169D02*
X91330901Y-88916169D01*
X91960626Y-88286444D02*
X91986444Y-88286444D01*
X87352818Y-91652112D02*
X88104930Y-90900000D01*
%TO.N,G1*%
X87488556Y-90738556D02*
X87877112Y-90350000D01*
X90890951Y-88366169D02*
X91103083Y-88366169D01*
X88907120Y-90350000D02*
X90890951Y-88366169D01*
X87877112Y-90350000D02*
X88907120Y-90350000D01*
%TO.N,G0*%
X91082705Y-87608729D02*
X91109229Y-87608729D01*
X88741434Y-89950000D02*
X91082705Y-87608729D01*
X87500000Y-89950000D02*
X88741434Y-89950000D01*
X86600000Y-90850000D02*
X87500000Y-89950000D01*
%TO.N,/13*%
X110900000Y-112550000D02*
X110900000Y-111500000D01*
X111850000Y-107350000D02*
X112550000Y-106650000D01*
X111850000Y-110550000D02*
X111850000Y-107350000D01*
X110900000Y-111500000D02*
X111850000Y-110550000D01*
%TO.N,SCL*%
X100497872Y-110245888D02*
X102600000Y-112348016D01*
X102600000Y-112348016D02*
X102600000Y-113350000D01*
%TO.N,SDA*%
X100250000Y-110900000D02*
X101350000Y-112000000D01*
X101350000Y-112000000D02*
X101350000Y-113350000D01*
%TO.N,EDGE*%
X93950000Y-111543504D02*
X93950000Y-111450000D01*
X95610017Y-113203521D02*
X93950000Y-111543504D01*
X95952515Y-113203521D02*
X95610017Y-113203521D01*
%TO.N,MSEN*%
X97350000Y-111900000D02*
X95650000Y-111900000D01*
X98700000Y-113300000D02*
X98700000Y-113250000D01*
X98700000Y-113250000D02*
X97350000Y-111900000D01*
X95650000Y-111900000D02*
X95200000Y-111450000D01*
%TO.N,nPD*%
X97347485Y-113349500D02*
X97347485Y-112897485D01*
X97347485Y-112897485D02*
X96800000Y-112350000D01*
X94550000Y-111577818D02*
X94550000Y-110900000D01*
X96800000Y-112350000D02*
X95322182Y-112350000D01*
X95322182Y-112350000D02*
X94550000Y-111577818D01*
%TO.N,nRST*%
X99450000Y-110950000D02*
X100000000Y-111500000D01*
X100000000Y-111500000D02*
X100000000Y-113350000D01*
%TO.N,CTL1*%
X93722182Y-112000000D02*
X93400000Y-111677818D01*
X93400000Y-111677818D02*
X93400000Y-110900000D01*
X94699577Y-113237095D02*
X94699577Y-112949577D01*
X93750000Y-112000000D02*
X93722182Y-112000000D01*
X94699577Y-112949577D02*
X93750000Y-112000000D01*
%TO.N,CTL2*%
X93288005Y-113196619D02*
X93288005Y-112131509D01*
X93288005Y-112131509D02*
X92849500Y-111693004D01*
X92849500Y-111693004D02*
X92849500Y-111409083D01*
%TO.N,CTL3*%
X92300000Y-110929347D02*
X92270653Y-110900000D01*
X92300000Y-111600000D02*
X92300000Y-110929347D01*
X91925592Y-113187177D02*
X91925592Y-111974408D01*
X91925592Y-111974408D02*
X92300000Y-111600000D01*
%TO.N,/14*%
X112250000Y-108050000D02*
X113050000Y-107250000D01*
X112250000Y-112650000D02*
X112250000Y-108050000D01*
%TO.N,+3V3*%
X113700000Y-84100000D02*
X113949500Y-83850500D01*
X113949500Y-83850500D02*
X113949500Y-80200000D01*
%TO.N,/TX0+*%
X105950497Y-99300000D02*
X106100000Y-99150497D01*
X103467619Y-102308278D02*
X103467619Y-100532381D01*
X103467619Y-100532381D02*
X104700000Y-99300000D01*
X104700000Y-99300000D02*
X105950497Y-99300000D01*
%TO.N,/TX0-*%
X104164983Y-102362930D02*
X104164983Y-102337165D01*
X105950000Y-99700000D02*
X106100000Y-99850000D01*
X104000000Y-102172182D02*
X104000000Y-100565686D01*
X104164983Y-102337165D02*
X104000000Y-102172182D01*
X104000000Y-100565686D02*
X104865686Y-99700000D01*
X104865686Y-99700000D02*
X105950000Y-99700000D01*
%TO.N,/TX2+*%
X102100000Y-102234314D02*
X104565686Y-104700000D01*
X102276045Y-100037686D02*
X102276045Y-100236810D01*
X105750000Y-104700000D02*
X105900000Y-104550000D01*
X102276045Y-100236810D02*
X102100000Y-100412855D01*
X102100000Y-100412855D02*
X102100000Y-102234314D01*
X104565686Y-104700000D02*
X105750000Y-104700000D01*
%TO.N,/TX2-*%
X105750000Y-105100000D02*
X105900000Y-105250000D01*
X101700000Y-100263963D02*
X101700000Y-102400000D01*
X101585537Y-100149500D02*
X101700000Y-100263963D01*
X101700000Y-102400000D02*
X104400000Y-105100000D01*
X104400000Y-105100000D02*
X105750000Y-105100000D01*
%TO.N,Net-(U1-Pad9)*%
X86950000Y-99400000D02*
X87800500Y-98549500D01*
X93381370Y-98050000D02*
X96931370Y-94500000D01*
X97792798Y-94500000D02*
X98371399Y-93921399D01*
X86950000Y-107818628D02*
X86950000Y-99400000D01*
X90371153Y-110500500D02*
X89631872Y-110500500D01*
X89159190Y-98050000D02*
X93381370Y-98050000D01*
X88659690Y-98549500D02*
X89159190Y-98050000D01*
X89631872Y-110500500D02*
X86950000Y-107818628D01*
X87800500Y-98549500D02*
X88659690Y-98549500D01*
X96931370Y-94500000D02*
X97792798Y-94500000D01*
%TO.N,Net-(U1-Pad11)*%
X89599500Y-111599500D02*
X86150000Y-108149998D01*
X88328318Y-97749500D02*
X88827820Y-97250000D01*
X86150000Y-99068629D02*
X87469129Y-97749500D01*
X88827820Y-97250000D02*
X93050000Y-97250000D01*
X93050000Y-97250000D02*
X96900000Y-93400000D01*
X87469129Y-97749500D02*
X88328318Y-97749500D01*
X86150000Y-108149998D02*
X86150000Y-99068629D01*
X90949500Y-111599500D02*
X89599500Y-111599500D01*
%TO.N,Net-(U1-Pad10)*%
X91325880Y-111050000D02*
X89615686Y-111050000D01*
X88494004Y-98149500D02*
X88993505Y-97650000D01*
X93215685Y-97650000D02*
X96915685Y-93950000D01*
X89615686Y-111050000D02*
X86550000Y-107984313D01*
X91634074Y-111358194D02*
X91325880Y-111050000D01*
X88993505Y-97650000D02*
X93215685Y-97650000D01*
X86550000Y-107984313D02*
X86550000Y-99234314D01*
X87634814Y-98149500D02*
X88494004Y-98149500D01*
X96915685Y-93950000D02*
X97550000Y-93950000D01*
X86550000Y-99234314D02*
X87634814Y-98149500D01*
%TO.N,G7*%
X92159330Y-90916169D02*
X92299023Y-90776477D01*
X93506166Y-90139094D02*
X93959911Y-89685349D01*
X91735067Y-90916169D02*
X92159330Y-90916169D01*
X92299023Y-90776477D02*
X93146138Y-90776477D01*
X93506166Y-90416449D02*
X93506166Y-90139094D01*
X90546279Y-92604003D02*
X90546279Y-92104957D01*
X90546279Y-92104957D02*
X91735067Y-90916169D01*
X93146138Y-90776477D02*
X93506166Y-90416449D01*
X90186585Y-92963697D02*
X90546279Y-92604003D01*
%TO.N,G6*%
X92768320Y-90376477D02*
X92956166Y-90188631D01*
X89501767Y-92583782D02*
X91569381Y-90516169D01*
X89501767Y-92821129D02*
X89501767Y-92583782D01*
X91569381Y-90516169D02*
X91993645Y-90516169D01*
X92133337Y-90376477D02*
X92768320Y-90376477D01*
X91993645Y-90516169D02*
X92133337Y-90376477D01*
%TO.N,B7*%
X85000500Y-96650000D02*
X88462135Y-96650000D01*
X88662135Y-96850000D02*
X92550000Y-96850000D01*
X92550000Y-96850000D02*
X96936444Y-92463556D01*
X88462135Y-96650000D02*
X88662135Y-96850000D01*
X96936444Y-92463556D02*
X96936444Y-92458626D01*
X84700500Y-96950000D02*
X85000500Y-96650000D01*
X97258626Y-92136444D02*
X97263556Y-92136444D01*
X97263556Y-92136444D02*
X98698500Y-90701500D01*
X96936444Y-92458626D02*
X97258626Y-92136444D01*
X98698500Y-90701500D02*
X98698500Y-90075654D01*
%TO.N,B6*%
X84887916Y-98265234D02*
X84887916Y-101162084D01*
X84150500Y-96599500D02*
X84150500Y-97527818D01*
X98149000Y-90685314D02*
X97097870Y-91736444D01*
X88627820Y-96250000D02*
X84500000Y-96250000D01*
X98149000Y-89451000D02*
X98149000Y-90685314D01*
X97097870Y-91736444D02*
X97092940Y-91736444D01*
X98150000Y-89450000D02*
X98149000Y-89451000D01*
X97092940Y-91736444D02*
X96536444Y-92292940D01*
X96536444Y-92297870D02*
X92384314Y-96450000D01*
X96536444Y-92292940D02*
X96536444Y-92297870D01*
X88827821Y-96450000D02*
X88627820Y-96250000D01*
X84500000Y-96250000D02*
X84150500Y-96599500D01*
X92384314Y-96450000D02*
X88827821Y-96450000D01*
X84150500Y-97527818D02*
X84887916Y-98265234D01*
%TD*%
%TA.AperFunction,Conductor*%
%TO.N,+3V3*%
G36*
X117141640Y-72200502D02*
G01*
X123701194Y-72246502D01*
X123759251Y-72265817D01*
X123794867Y-72315568D01*
X123799500Y-72345500D01*
X123799500Y-94700500D01*
X123780593Y-94758691D01*
X123731093Y-94794655D01*
X123700500Y-94799500D01*
X117234281Y-94799500D01*
X117211926Y-94796943D01*
X117210226Y-94796549D01*
X117200718Y-94794345D01*
X117200000Y-94794344D01*
X117194542Y-94795589D01*
X117189272Y-94796179D01*
X117183130Y-94797116D01*
X117015490Y-94810309D01*
X117015485Y-94810310D01*
X117011620Y-94810614D01*
X116932970Y-94829496D01*
X116831655Y-94853819D01*
X116831652Y-94853820D01*
X116827878Y-94854726D01*
X116824288Y-94856213D01*
X116656890Y-94925551D01*
X116656884Y-94925554D01*
X116653299Y-94927039D01*
X116649988Y-94929068D01*
X116649984Y-94929070D01*
X116568459Y-94979029D01*
X116492182Y-95025772D01*
X116348494Y-95148494D01*
X116225772Y-95292182D01*
X116223742Y-95295495D01*
X116131715Y-95445669D01*
X116127039Y-95453299D01*
X116125554Y-95456884D01*
X116125551Y-95456890D01*
X116056213Y-95624288D01*
X116054726Y-95627878D01*
X116053820Y-95631652D01*
X116053819Y-95631655D01*
X116033245Y-95717352D01*
X116010614Y-95811620D01*
X116010310Y-95815485D01*
X116010309Y-95815490D01*
X116002920Y-95909376D01*
X115999149Y-95957299D01*
X115997156Y-95982618D01*
X115996849Y-95984617D01*
X115996846Y-95986557D01*
X115996582Y-95989907D01*
X115994344Y-95999641D01*
X115996515Y-96009234D01*
X115996801Y-96012866D01*
X115996798Y-96014526D01*
X115997075Y-96016351D01*
X116010274Y-96184054D01*
X116010614Y-96188380D01*
X116013404Y-96200002D01*
X116052003Y-96360778D01*
X116054726Y-96372122D01*
X116056213Y-96375712D01*
X116125551Y-96543110D01*
X116125554Y-96543116D01*
X116127039Y-96546701D01*
X116129068Y-96550012D01*
X116129070Y-96550016D01*
X116192610Y-96653702D01*
X116225772Y-96707818D01*
X116348494Y-96851506D01*
X116492182Y-96974228D01*
X116495495Y-96976258D01*
X116649984Y-97070930D01*
X116649988Y-97070932D01*
X116653299Y-97072961D01*
X116656884Y-97074446D01*
X116656890Y-97074449D01*
X116778297Y-97124737D01*
X116827878Y-97145274D01*
X116831652Y-97146180D01*
X116831655Y-97146181D01*
X117007846Y-97188480D01*
X117011620Y-97189386D01*
X117015485Y-97189690D01*
X117015490Y-97189691D01*
X117182113Y-97202805D01*
X117188248Y-97203752D01*
X117188248Y-97203748D01*
X117193820Y-97204389D01*
X117199282Y-97205655D01*
X117200000Y-97205656D01*
X117205452Y-97204412D01*
X117205455Y-97204412D01*
X117211734Y-97202980D01*
X117233752Y-97200500D01*
X124749215Y-97200500D01*
X124807406Y-97219407D01*
X124843370Y-97268907D01*
X124843370Y-97330093D01*
X124827441Y-97360177D01*
X124796773Y-97399714D01*
X124711519Y-97572974D01*
X124695483Y-97634539D01*
X124668352Y-97738696D01*
X124662845Y-97759837D01*
X124662582Y-97764849D01*
X124662582Y-97764851D01*
X124659910Y-97815837D01*
X124652739Y-97952671D01*
X124681614Y-98143599D01*
X124748290Y-98324821D01*
X124750930Y-98329079D01*
X124750931Y-98329081D01*
X124834846Y-98464421D01*
X124850045Y-98488934D01*
X124982721Y-98629235D01*
X124986826Y-98632109D01*
X124986829Y-98632112D01*
X125090827Y-98704931D01*
X125140898Y-98739991D01*
X125145494Y-98741980D01*
X125145496Y-98741981D01*
X125233935Y-98780252D01*
X125318115Y-98816680D01*
X125449458Y-98844119D01*
X125503408Y-98855390D01*
X125503410Y-98855390D01*
X125507133Y-98856168D01*
X125513468Y-98856500D01*
X127455259Y-98856500D01*
X127457747Y-98856247D01*
X127457752Y-98856247D01*
X127594123Y-98842395D01*
X127594127Y-98842394D01*
X127599110Y-98841888D01*
X127744870Y-98796210D01*
X127778590Y-98785643D01*
X127778591Y-98785643D01*
X127783373Y-98784144D01*
X127952261Y-98690528D01*
X128065736Y-98593268D01*
X128095065Y-98568130D01*
X128095067Y-98568128D01*
X128098875Y-98564864D01*
X128148343Y-98501091D01*
X128214156Y-98416246D01*
X128214159Y-98416241D01*
X128217227Y-98412286D01*
X128302481Y-98239026D01*
X128330283Y-98132291D01*
X128349890Y-98057021D01*
X128349891Y-98057017D01*
X128351155Y-98052163D01*
X128351425Y-98047022D01*
X128356369Y-97952671D01*
X131112739Y-97952671D01*
X131141614Y-98143599D01*
X131208290Y-98324821D01*
X131210930Y-98329079D01*
X131210931Y-98329081D01*
X131294846Y-98464421D01*
X131310045Y-98488934D01*
X131442721Y-98629235D01*
X131446826Y-98632109D01*
X131446829Y-98632112D01*
X131550827Y-98704931D01*
X131600898Y-98739991D01*
X131605494Y-98741980D01*
X131605496Y-98741981D01*
X131693935Y-98780252D01*
X131778115Y-98816680D01*
X131909458Y-98844119D01*
X131963408Y-98855390D01*
X131963410Y-98855390D01*
X131967133Y-98856168D01*
X131973468Y-98856500D01*
X132915259Y-98856500D01*
X132917747Y-98856247D01*
X132917752Y-98856247D01*
X133054123Y-98842395D01*
X133054127Y-98842394D01*
X133059110Y-98841888D01*
X133204870Y-98796210D01*
X133238590Y-98785643D01*
X133238591Y-98785643D01*
X133243373Y-98784144D01*
X133412261Y-98690528D01*
X133525736Y-98593268D01*
X133555065Y-98568130D01*
X133555067Y-98568128D01*
X133558875Y-98564864D01*
X133608343Y-98501091D01*
X133674156Y-98416246D01*
X133674159Y-98416241D01*
X133677227Y-98412286D01*
X133762481Y-98239026D01*
X133790283Y-98132291D01*
X133809890Y-98057021D01*
X133809891Y-98057017D01*
X133811155Y-98052163D01*
X133811425Y-98047022D01*
X133816708Y-97946210D01*
X133821261Y-97859329D01*
X133792386Y-97668401D01*
X133725710Y-97487179D01*
X133710482Y-97462618D01*
X133626599Y-97327330D01*
X133626598Y-97327329D01*
X133623955Y-97323066D01*
X133491279Y-97182765D01*
X133487174Y-97179891D01*
X133487171Y-97179888D01*
X133337208Y-97074884D01*
X133333102Y-97072009D01*
X133328506Y-97070020D01*
X133328504Y-97070019D01*
X133160481Y-96997309D01*
X133160482Y-96997309D01*
X133155885Y-96995320D01*
X132992620Y-96961212D01*
X132970592Y-96956610D01*
X132970590Y-96956610D01*
X132966867Y-96955832D01*
X132960532Y-96955500D01*
X132018741Y-96955500D01*
X132016253Y-96955753D01*
X132016248Y-96955753D01*
X131879877Y-96969605D01*
X131879873Y-96969606D01*
X131874890Y-96970112D01*
X131731869Y-97014932D01*
X131719184Y-97018907D01*
X131690627Y-97027856D01*
X131521739Y-97121472D01*
X131517930Y-97124737D01*
X131402409Y-97223751D01*
X131375125Y-97247136D01*
X131372048Y-97251103D01*
X131259844Y-97395754D01*
X131259843Y-97395756D01*
X131256773Y-97399714D01*
X131171519Y-97572974D01*
X131155483Y-97634539D01*
X131128352Y-97738696D01*
X131122845Y-97759837D01*
X131122582Y-97764849D01*
X131122582Y-97764851D01*
X131119910Y-97815837D01*
X131112739Y-97952671D01*
X128356369Y-97952671D01*
X128356708Y-97946210D01*
X128361261Y-97859329D01*
X128332386Y-97668401D01*
X128265710Y-97487179D01*
X128250482Y-97462618D01*
X128181690Y-97351669D01*
X128167095Y-97292250D01*
X128190213Y-97235600D01*
X128242214Y-97203358D01*
X128265829Y-97200500D01*
X129965719Y-97200500D01*
X129988074Y-97203057D01*
X129999282Y-97205655D01*
X130000000Y-97205656D01*
X130005458Y-97204411D01*
X130010728Y-97203821D01*
X130016870Y-97202884D01*
X130184510Y-97189691D01*
X130184515Y-97189690D01*
X130188380Y-97189386D01*
X130279210Y-97167580D01*
X130368345Y-97146181D01*
X130368348Y-97146180D01*
X130372122Y-97145274D01*
X130421703Y-97124737D01*
X130543110Y-97074449D01*
X130543116Y-97074446D01*
X130546701Y-97072961D01*
X130550012Y-97070932D01*
X130550016Y-97070930D01*
X130704505Y-96976258D01*
X130707818Y-96974228D01*
X130851506Y-96851506D01*
X130974228Y-96707818D01*
X131007390Y-96653702D01*
X131070930Y-96550016D01*
X131070932Y-96550012D01*
X131072961Y-96546701D01*
X131074446Y-96543116D01*
X131074449Y-96543110D01*
X131143787Y-96375712D01*
X131145274Y-96372122D01*
X131147998Y-96360778D01*
X131188480Y-96192154D01*
X131188480Y-96192153D01*
X131189386Y-96188380D01*
X131189727Y-96184054D01*
X131202805Y-96017887D01*
X131203752Y-96011752D01*
X131203748Y-96011752D01*
X131204389Y-96006180D01*
X131205655Y-96000718D01*
X131205656Y-96000000D01*
X131203354Y-95989907D01*
X131202980Y-95988266D01*
X131200500Y-95966248D01*
X131200500Y-93299500D01*
X131219407Y-93241309D01*
X131268907Y-93205345D01*
X131299500Y-93200500D01*
X134700500Y-93200500D01*
X134758691Y-93219407D01*
X134794655Y-93268907D01*
X134799500Y-93299500D01*
X134799500Y-117100500D01*
X134780593Y-117158691D01*
X134731093Y-117194655D01*
X134700500Y-117199500D01*
X131299500Y-117199500D01*
X131241309Y-117180593D01*
X131205345Y-117131093D01*
X131200500Y-117100500D01*
X131200500Y-114434281D01*
X131203057Y-114411926D01*
X131204388Y-114406183D01*
X131205655Y-114400718D01*
X131205656Y-114400000D01*
X131204411Y-114394542D01*
X131203821Y-114389272D01*
X131202884Y-114383130D01*
X131189691Y-114215490D01*
X131189690Y-114215485D01*
X131189386Y-114211620D01*
X131145274Y-114027878D01*
X131143787Y-114024288D01*
X131074449Y-113856890D01*
X131074446Y-113856884D01*
X131072961Y-113853299D01*
X131054368Y-113822957D01*
X130991002Y-113719554D01*
X130974228Y-113692182D01*
X130895924Y-113600500D01*
X130854035Y-113551455D01*
X130851506Y-113548494D01*
X130832341Y-113532125D01*
X130738156Y-113451683D01*
X130707818Y-113425772D01*
X130640503Y-113384521D01*
X130550016Y-113329070D01*
X130550012Y-113329068D01*
X130546701Y-113327039D01*
X130543116Y-113325554D01*
X130543110Y-113325551D01*
X130375712Y-113256213D01*
X130372122Y-113254726D01*
X130368348Y-113253820D01*
X130368345Y-113253819D01*
X130192154Y-113211520D01*
X130192153Y-113211520D01*
X130188380Y-113210614D01*
X130184515Y-113210310D01*
X130184510Y-113210309D01*
X130017887Y-113197195D01*
X130011752Y-113196248D01*
X130011752Y-113196252D01*
X130006180Y-113195611D01*
X130000718Y-113194345D01*
X130000000Y-113194344D01*
X129994548Y-113195588D01*
X129994545Y-113195588D01*
X129988266Y-113197020D01*
X129966248Y-113199500D01*
X128196525Y-113199500D01*
X128138334Y-113180593D01*
X128102370Y-113131093D01*
X128102370Y-113069907D01*
X128118300Y-113039822D01*
X128181528Y-112958309D01*
X128217227Y-112912286D01*
X128302481Y-112739026D01*
X128339515Y-112596851D01*
X128349890Y-112557021D01*
X128349891Y-112557017D01*
X128351155Y-112552163D01*
X128353002Y-112516932D01*
X128356369Y-112452671D01*
X131112739Y-112452671D01*
X131141614Y-112643599D01*
X131208290Y-112824821D01*
X131210930Y-112829079D01*
X131210931Y-112829081D01*
X131301307Y-112974841D01*
X131310045Y-112988934D01*
X131442721Y-113129235D01*
X131446826Y-113132109D01*
X131446829Y-113132112D01*
X131590014Y-113232370D01*
X131600898Y-113239991D01*
X131605494Y-113241980D01*
X131605496Y-113241981D01*
X131639949Y-113256890D01*
X131778115Y-113316680D01*
X131896170Y-113341343D01*
X131963408Y-113355390D01*
X131963410Y-113355390D01*
X131967133Y-113356168D01*
X131973468Y-113356500D01*
X132915259Y-113356500D01*
X132917747Y-113356247D01*
X132917752Y-113356247D01*
X133054123Y-113342395D01*
X133054127Y-113342394D01*
X133059110Y-113341888D01*
X133232766Y-113287468D01*
X133238590Y-113285643D01*
X133238591Y-113285643D01*
X133243373Y-113284144D01*
X133412261Y-113190528D01*
X133505051Y-113110997D01*
X133555065Y-113068130D01*
X133555067Y-113068128D01*
X133558875Y-113064864D01*
X133585624Y-113030380D01*
X133674156Y-112916246D01*
X133674159Y-112916241D01*
X133677227Y-112912286D01*
X133762481Y-112739026D01*
X133799515Y-112596851D01*
X133809890Y-112557021D01*
X133809891Y-112557017D01*
X133811155Y-112552163D01*
X133813002Y-112516932D01*
X133818242Y-112416932D01*
X133821261Y-112359329D01*
X133792386Y-112168401D01*
X133725710Y-111987179D01*
X133714030Y-111968340D01*
X133626599Y-111827330D01*
X133626598Y-111827329D01*
X133623955Y-111823066D01*
X133491279Y-111682765D01*
X133487174Y-111679891D01*
X133487171Y-111679888D01*
X133337208Y-111574884D01*
X133333102Y-111572009D01*
X133328506Y-111570020D01*
X133328504Y-111570019D01*
X133160481Y-111497309D01*
X133160482Y-111497309D01*
X133155885Y-111495320D01*
X133009177Y-111464671D01*
X132970592Y-111456610D01*
X132970590Y-111456610D01*
X132966867Y-111455832D01*
X132960532Y-111455500D01*
X132018741Y-111455500D01*
X132016253Y-111455753D01*
X132016248Y-111455753D01*
X131879877Y-111469605D01*
X131879873Y-111469606D01*
X131874890Y-111470112D01*
X131734883Y-111513987D01*
X131704952Y-111523367D01*
X131690627Y-111527856D01*
X131521739Y-111621472D01*
X131503233Y-111637334D01*
X131385930Y-111737875D01*
X131375125Y-111747136D01*
X131372048Y-111751103D01*
X131259844Y-111895754D01*
X131259841Y-111895759D01*
X131256773Y-111899714D01*
X131171519Y-112072974D01*
X131154806Y-112137138D01*
X131126203Y-112246947D01*
X131122845Y-112259837D01*
X131122582Y-112264849D01*
X131122582Y-112264851D01*
X131119148Y-112330380D01*
X131112739Y-112452671D01*
X128356369Y-112452671D01*
X128358242Y-112416932D01*
X128361261Y-112359329D01*
X128332386Y-112168401D01*
X128265710Y-111987179D01*
X128254030Y-111968340D01*
X128166599Y-111827330D01*
X128166598Y-111827329D01*
X128163955Y-111823066D01*
X128031279Y-111682765D01*
X128027174Y-111679891D01*
X128027171Y-111679888D01*
X127877208Y-111574884D01*
X127873102Y-111572009D01*
X127868506Y-111570020D01*
X127868504Y-111570019D01*
X127700481Y-111497309D01*
X127700482Y-111497309D01*
X127695885Y-111495320D01*
X127549177Y-111464671D01*
X127510592Y-111456610D01*
X127510590Y-111456610D01*
X127506867Y-111455832D01*
X127500532Y-111455500D01*
X125558741Y-111455500D01*
X125556253Y-111455753D01*
X125556248Y-111455753D01*
X125419877Y-111469605D01*
X125419873Y-111469606D01*
X125414890Y-111470112D01*
X125274883Y-111513987D01*
X125244952Y-111523367D01*
X125230627Y-111527856D01*
X125061739Y-111621472D01*
X125043233Y-111637334D01*
X124925930Y-111737875D01*
X124915125Y-111747136D01*
X124912048Y-111751103D01*
X124799844Y-111895754D01*
X124799841Y-111895759D01*
X124796773Y-111899714D01*
X124711519Y-112072974D01*
X124694806Y-112137138D01*
X124666203Y-112246947D01*
X124662845Y-112259837D01*
X124662582Y-112264849D01*
X124662582Y-112264851D01*
X124659148Y-112330380D01*
X124652739Y-112452671D01*
X124681614Y-112643599D01*
X124748290Y-112824821D01*
X124750930Y-112829079D01*
X124750931Y-112829081D01*
X124841307Y-112974841D01*
X124850045Y-112988934D01*
X124853488Y-112992575D01*
X124853495Y-112992584D01*
X124891222Y-113032479D01*
X124917467Y-113087750D01*
X124906211Y-113147891D01*
X124861755Y-113189930D01*
X124819291Y-113199500D01*
X117168241Y-113199500D01*
X117110050Y-113180593D01*
X117084740Y-113153684D01*
X117071558Y-113132988D01*
X117071555Y-113132984D01*
X117069506Y-113129767D01*
X116999434Y-113050122D01*
X116935729Y-112977714D01*
X116935727Y-112977712D01*
X116933201Y-112974841D01*
X116855091Y-112909735D01*
X116777632Y-112845172D01*
X116777629Y-112845170D01*
X116774691Y-112842721D01*
X116653908Y-112770249D01*
X116601023Y-112738517D01*
X116601020Y-112738516D01*
X116597746Y-112736551D01*
X116406579Y-112658858D01*
X116341879Y-112643599D01*
X116209457Y-112612368D01*
X116209453Y-112612367D01*
X116205737Y-112611491D01*
X116016481Y-112596850D01*
X116011766Y-112596125D01*
X116011751Y-112596253D01*
X116006185Y-112595612D01*
X116000718Y-112594345D01*
X116000000Y-112594344D01*
X115994550Y-112595587D01*
X115989299Y-112596175D01*
X115983132Y-112597116D01*
X115948069Y-112599875D01*
X115815490Y-112610309D01*
X115815485Y-112610310D01*
X115811620Y-112610614D01*
X115727921Y-112630708D01*
X115631655Y-112653819D01*
X115631652Y-112653820D01*
X115627878Y-112654726D01*
X115624288Y-112656213D01*
X115456890Y-112725551D01*
X115456884Y-112725554D01*
X115453299Y-112727039D01*
X115449988Y-112729068D01*
X115449984Y-112729070D01*
X115368756Y-112778847D01*
X115292182Y-112825772D01*
X115148494Y-112948494D01*
X115025772Y-113092182D01*
X115005298Y-113125592D01*
X114933975Y-113241981D01*
X114927039Y-113253299D01*
X114925554Y-113256884D01*
X114925551Y-113256890D01*
X114881023Y-113364391D01*
X114854726Y-113427878D01*
X114853820Y-113431652D01*
X114853819Y-113431655D01*
X114811520Y-113607846D01*
X114810614Y-113611620D01*
X114810310Y-113615485D01*
X114810309Y-113615490D01*
X114804720Y-113686502D01*
X114798660Y-113763511D01*
X114797156Y-113782618D01*
X114796849Y-113784618D01*
X114796846Y-113786557D01*
X114796582Y-113789907D01*
X114794344Y-113799641D01*
X114796804Y-113810512D01*
X114797059Y-113811638D01*
X114799500Y-113833488D01*
X114799500Y-118700500D01*
X114780593Y-118758691D01*
X114731093Y-118794655D01*
X114700500Y-118799500D01*
X76299500Y-118799500D01*
X76241309Y-118780593D01*
X76205345Y-118731093D01*
X76200500Y-118700500D01*
X76200500Y-116744440D01*
X107744901Y-116744440D01*
X107761633Y-116872394D01*
X107764471Y-116878845D01*
X107764472Y-116878847D01*
X107809604Y-116981418D01*
X107813605Y-116990510D01*
X107839430Y-117021232D01*
X107892100Y-117083892D01*
X107892103Y-117083894D01*
X107896639Y-117089291D01*
X108004060Y-117160796D01*
X108010788Y-117162898D01*
X108010790Y-117162899D01*
X108065647Y-117180037D01*
X108127233Y-117199278D01*
X108191744Y-117200461D01*
X108249202Y-117201514D01*
X108249204Y-117201514D01*
X108256255Y-117201643D01*
X108263058Y-117199788D01*
X108263060Y-117199788D01*
X108321364Y-117183892D01*
X108380755Y-117167700D01*
X108490724Y-117100179D01*
X108499476Y-117090510D01*
X108506217Y-117083063D01*
X108559285Y-117052610D01*
X108579614Y-117050500D01*
X110346492Y-117050500D01*
X110350617Y-117050803D01*
X110355342Y-117052425D01*
X110404761Y-117050570D01*
X110408474Y-117050500D01*
X110427948Y-117050500D01*
X110432378Y-117049675D01*
X110437571Y-117049339D01*
X110453602Y-117048737D01*
X110458075Y-117048569D01*
X110467208Y-117048226D01*
X110475602Y-117044620D01*
X110475605Y-117044619D01*
X110477783Y-117043683D01*
X110498734Y-117037317D01*
X110510053Y-117035209D01*
X110532729Y-117021232D01*
X110545596Y-117014548D01*
X110563642Y-117006795D01*
X110563643Y-117006794D01*
X110570063Y-117004036D01*
X110574949Y-117000022D01*
X110579313Y-116995658D01*
X110597368Y-116981387D01*
X110605348Y-116976468D01*
X110623018Y-116953231D01*
X110631810Y-116943161D01*
X111530531Y-116044440D01*
X112044901Y-116044440D01*
X112045816Y-116051437D01*
X112045816Y-116051438D01*
X112047082Y-116061120D01*
X112061633Y-116172394D01*
X112064471Y-116178845D01*
X112064472Y-116178847D01*
X112071458Y-116194724D01*
X112113605Y-116290510D01*
X112136860Y-116318175D01*
X112192100Y-116383892D01*
X112192103Y-116383894D01*
X112196639Y-116389291D01*
X112304060Y-116460796D01*
X112310790Y-116462898D01*
X112310797Y-116462902D01*
X112397144Y-116489879D01*
X112447049Y-116525279D01*
X112466615Y-116583251D01*
X112457236Y-116626448D01*
X112414754Y-116716932D01*
X112394901Y-116844440D01*
X112395816Y-116851437D01*
X112395816Y-116851438D01*
X112397082Y-116861120D01*
X112411633Y-116972394D01*
X112414471Y-116978845D01*
X112414472Y-116978847D01*
X112460328Y-117083063D01*
X112463605Y-117090510D01*
X112497719Y-117131093D01*
X112542100Y-117183892D01*
X112542103Y-117183894D01*
X112546639Y-117189291D01*
X112654060Y-117260796D01*
X112660788Y-117262898D01*
X112660790Y-117262899D01*
X112715647Y-117280037D01*
X112777233Y-117299278D01*
X112841744Y-117300460D01*
X112899202Y-117301514D01*
X112899204Y-117301514D01*
X112906255Y-117301643D01*
X112913058Y-117299788D01*
X112913060Y-117299788D01*
X112954828Y-117288400D01*
X113030755Y-117267700D01*
X113140724Y-117200179D01*
X113155466Y-117183892D01*
X113222590Y-117109735D01*
X113222590Y-117109734D01*
X113227322Y-117104507D01*
X113283588Y-116988375D01*
X113302015Y-116878847D01*
X113304363Y-116864891D01*
X113304363Y-116864886D01*
X113304997Y-116861120D01*
X113305133Y-116850000D01*
X113286839Y-116722259D01*
X113233428Y-116604788D01*
X113149193Y-116507028D01*
X113143276Y-116503193D01*
X113143274Y-116503191D01*
X113046824Y-116440677D01*
X113040906Y-116436841D01*
X113034151Y-116434821D01*
X113034147Y-116434819D01*
X112953472Y-116410692D01*
X112903138Y-116375904D01*
X112882865Y-116318175D01*
X112892744Y-116272677D01*
X112930512Y-116194724D01*
X112930512Y-116194723D01*
X112933588Y-116188375D01*
X112954997Y-116061120D01*
X112955133Y-116050000D01*
X112954337Y-116044440D01*
X113194901Y-116044440D01*
X113195816Y-116051437D01*
X113195816Y-116051438D01*
X113197082Y-116061120D01*
X113211633Y-116172394D01*
X113214471Y-116178845D01*
X113214472Y-116178847D01*
X113221458Y-116194724D01*
X113263605Y-116290510D01*
X113286860Y-116318175D01*
X113342100Y-116383892D01*
X113342103Y-116383894D01*
X113346639Y-116389291D01*
X113454060Y-116460796D01*
X113460788Y-116462898D01*
X113460790Y-116462899D01*
X113515647Y-116480037D01*
X113577233Y-116499278D01*
X113641744Y-116500460D01*
X113699202Y-116501514D01*
X113699204Y-116501514D01*
X113706255Y-116501643D01*
X113713058Y-116499788D01*
X113713060Y-116499788D01*
X113754828Y-116488400D01*
X113830755Y-116467700D01*
X113940724Y-116400179D01*
X113999884Y-116334820D01*
X114022590Y-116309735D01*
X114022590Y-116309734D01*
X114027322Y-116304507D01*
X114083588Y-116188375D01*
X114104997Y-116061120D01*
X114105133Y-116050000D01*
X114086839Y-115922259D01*
X114033428Y-115804788D01*
X113949193Y-115707028D01*
X113943276Y-115703193D01*
X113943274Y-115703191D01*
X113846824Y-115640677D01*
X113840906Y-115636841D01*
X113834150Y-115634821D01*
X113834149Y-115634820D01*
X113791335Y-115622016D01*
X113717273Y-115599866D01*
X113640644Y-115599398D01*
X113595282Y-115599121D01*
X113588231Y-115599078D01*
X113581454Y-115601015D01*
X113581453Y-115601015D01*
X113470935Y-115632601D01*
X113470933Y-115632602D01*
X113464155Y-115634539D01*
X113355019Y-115703399D01*
X113269596Y-115800122D01*
X113214754Y-115916932D01*
X113194901Y-116044440D01*
X112954337Y-116044440D01*
X112936839Y-115922259D01*
X112883428Y-115804788D01*
X112799193Y-115707028D01*
X112793276Y-115703193D01*
X112793274Y-115703191D01*
X112696824Y-115640677D01*
X112690906Y-115636841D01*
X112684150Y-115634821D01*
X112684149Y-115634820D01*
X112641335Y-115622016D01*
X112567273Y-115599866D01*
X112490644Y-115599398D01*
X112445282Y-115599121D01*
X112438231Y-115599078D01*
X112431454Y-115601015D01*
X112431453Y-115601015D01*
X112320935Y-115632601D01*
X112320933Y-115632602D01*
X112314155Y-115634539D01*
X112205019Y-115703399D01*
X112119596Y-115800122D01*
X112064754Y-115916932D01*
X112044901Y-116044440D01*
X111530531Y-116044440D01*
X113774656Y-113800316D01*
X113777781Y-113797619D01*
X113782269Y-113795425D01*
X113815880Y-113759192D01*
X113818456Y-113756516D01*
X113832248Y-113742724D01*
X113834793Y-113739013D01*
X113838234Y-113735094D01*
X113852185Y-113720055D01*
X113852185Y-113720054D01*
X113858401Y-113713354D01*
X113861787Y-113704866D01*
X113861789Y-113704863D01*
X113862667Y-113702662D01*
X113872981Y-113683346D01*
X113874322Y-113681391D01*
X113874323Y-113681389D01*
X113879492Y-113673854D01*
X113882458Y-113661358D01*
X113885641Y-113647942D01*
X113890014Y-113634116D01*
X113897294Y-113615868D01*
X113897294Y-113615866D01*
X113899883Y-113609378D01*
X113900500Y-113603085D01*
X113900500Y-113596916D01*
X113903175Y-113574057D01*
X113903230Y-113573827D01*
X113903230Y-113573825D01*
X113905340Y-113564934D01*
X113901404Y-113536012D01*
X113900500Y-113522663D01*
X113900500Y-99503508D01*
X113900803Y-99499383D01*
X113902425Y-99494658D01*
X113900570Y-99445239D01*
X113900500Y-99441526D01*
X113900500Y-99422052D01*
X113899675Y-99417622D01*
X113899338Y-99412417D01*
X113898569Y-99391925D01*
X113898226Y-99382792D01*
X113894620Y-99374398D01*
X113894619Y-99374395D01*
X113893683Y-99372217D01*
X113887317Y-99351266D01*
X113885209Y-99339947D01*
X113871232Y-99317271D01*
X113864548Y-99304404D01*
X113856795Y-99286358D01*
X113856794Y-99286357D01*
X113854036Y-99279937D01*
X113850022Y-99275051D01*
X113845658Y-99270687D01*
X113831387Y-99252632D01*
X113831264Y-99252433D01*
X113826468Y-99244652D01*
X113803231Y-99226982D01*
X113793161Y-99218190D01*
X112683282Y-98108311D01*
X112655505Y-98053794D01*
X112655128Y-98050416D01*
X112655133Y-98050000D01*
X112636839Y-97922259D01*
X112583428Y-97804788D01*
X112521715Y-97733166D01*
X112503798Y-97712372D01*
X112503797Y-97712371D01*
X112499193Y-97707028D01*
X112493276Y-97703193D01*
X112493274Y-97703191D01*
X112410094Y-97649278D01*
X112390906Y-97636841D01*
X112384150Y-97634821D01*
X112384149Y-97634820D01*
X112341335Y-97622016D01*
X112267273Y-97599866D01*
X112190644Y-97599398D01*
X112145282Y-97599121D01*
X112138231Y-97599078D01*
X112131454Y-97601015D01*
X112131453Y-97601015D01*
X112020935Y-97632601D01*
X112020933Y-97632602D01*
X112014155Y-97634539D01*
X111905019Y-97703399D01*
X111819596Y-97800122D01*
X111764754Y-97916932D01*
X111744901Y-98044440D01*
X111761633Y-98172394D01*
X111764471Y-98178845D01*
X111764472Y-98178847D01*
X111810693Y-98283892D01*
X111813605Y-98290510D01*
X111842572Y-98324970D01*
X111892100Y-98383892D01*
X111892103Y-98383894D01*
X111896639Y-98389291D01*
X112004060Y-98460796D01*
X112010788Y-98462898D01*
X112010790Y-98462899D01*
X112094124Y-98488934D01*
X112127233Y-98499278D01*
X112161452Y-98499905D01*
X112186178Y-98500359D01*
X112244013Y-98520330D01*
X112254367Y-98529338D01*
X113270504Y-99545475D01*
X113298281Y-99599992D01*
X113299500Y-99615479D01*
X113299500Y-106721424D01*
X113280593Y-106779615D01*
X113231093Y-106815579D01*
X113172133Y-106816273D01*
X113117273Y-106799866D01*
X113100083Y-106799761D01*
X113098116Y-106799749D01*
X113040042Y-106780487D01*
X113004381Y-106730768D01*
X113001093Y-106684327D01*
X113004362Y-106664894D01*
X113004997Y-106661120D01*
X113005133Y-106650000D01*
X112986839Y-106522259D01*
X112933428Y-106404788D01*
X112849193Y-106307028D01*
X112843276Y-106303193D01*
X112843274Y-106303191D01*
X112746824Y-106240677D01*
X112740906Y-106236841D01*
X112734150Y-106234821D01*
X112734149Y-106234820D01*
X112691335Y-106222016D01*
X112617273Y-106199866D01*
X112540644Y-106199398D01*
X112495282Y-106199121D01*
X112488231Y-106199078D01*
X112481454Y-106201015D01*
X112481453Y-106201015D01*
X112370935Y-106232601D01*
X112370933Y-106232602D01*
X112364155Y-106234539D01*
X112255019Y-106303399D01*
X112169596Y-106400122D01*
X112114754Y-106516932D01*
X112094901Y-106644440D01*
X112094246Y-106644338D01*
X112076348Y-106697214D01*
X112066976Y-106708053D01*
X111675349Y-107099680D01*
X111672220Y-107102380D01*
X111667731Y-107104575D01*
X111661513Y-107111278D01*
X111634107Y-107140822D01*
X111631531Y-107143498D01*
X111617752Y-107157277D01*
X111615207Y-107160987D01*
X111611771Y-107164900D01*
X111591599Y-107186646D01*
X111588212Y-107195134D01*
X111588212Y-107195135D01*
X111587334Y-107197336D01*
X111577020Y-107216652D01*
X111575679Y-107218607D01*
X111575678Y-107218610D01*
X111570508Y-107226146D01*
X111568398Y-107235038D01*
X111564359Y-107252058D01*
X111559986Y-107265884D01*
X111555950Y-107276001D01*
X111550117Y-107290622D01*
X111549500Y-107296915D01*
X111549500Y-107303084D01*
X111546825Y-107325943D01*
X111544660Y-107335066D01*
X111548596Y-107363987D01*
X111549500Y-107377337D01*
X111549500Y-110384521D01*
X111530593Y-110442712D01*
X111520504Y-110454525D01*
X110725349Y-111249680D01*
X110722220Y-111252380D01*
X110717731Y-111254575D01*
X110711513Y-111261278D01*
X110684107Y-111290822D01*
X110681531Y-111293498D01*
X110667752Y-111307277D01*
X110665207Y-111310987D01*
X110661771Y-111314900D01*
X110641599Y-111336646D01*
X110638212Y-111345134D01*
X110638212Y-111345135D01*
X110637334Y-111347336D01*
X110627020Y-111366652D01*
X110625679Y-111368607D01*
X110625678Y-111368610D01*
X110620508Y-111376146D01*
X110615818Y-111395909D01*
X110614359Y-111402058D01*
X110609986Y-111415884D01*
X110604619Y-111429338D01*
X110600117Y-111440622D01*
X110599500Y-111446915D01*
X110599500Y-111453084D01*
X110596825Y-111475943D01*
X110594660Y-111485066D01*
X110598017Y-111509735D01*
X110598596Y-111513987D01*
X110599500Y-111527337D01*
X110599500Y-112172189D01*
X110580593Y-112230380D01*
X110574704Y-112237724D01*
X110519596Y-112300122D01*
X110464754Y-112416932D01*
X110444901Y-112544440D01*
X110445816Y-112551437D01*
X110445816Y-112551438D01*
X110447082Y-112561120D01*
X110461633Y-112672394D01*
X110464471Y-112678845D01*
X110464472Y-112678847D01*
X110508473Y-112778847D01*
X110513605Y-112790510D01*
X110543246Y-112825772D01*
X110592100Y-112883892D01*
X110592103Y-112883894D01*
X110596639Y-112889291D01*
X110704060Y-112960796D01*
X110710788Y-112962898D01*
X110710790Y-112962899D01*
X110749015Y-112974841D01*
X110827233Y-112999278D01*
X110891744Y-113000460D01*
X110949202Y-113001514D01*
X110949204Y-113001514D01*
X110956255Y-113001643D01*
X110963058Y-112999788D01*
X110963060Y-112999788D01*
X111004828Y-112988400D01*
X111080755Y-112967700D01*
X111190724Y-112900179D01*
X111197042Y-112893199D01*
X111272590Y-112809735D01*
X111272590Y-112809734D01*
X111277322Y-112804507D01*
X111333588Y-112688375D01*
X111349083Y-112596275D01*
X111354363Y-112564891D01*
X111354363Y-112564886D01*
X111354997Y-112561120D01*
X111355133Y-112550000D01*
X111336839Y-112422259D01*
X111292448Y-112324627D01*
X111286349Y-112311212D01*
X111286348Y-112311211D01*
X111283428Y-112304788D01*
X111224501Y-112236399D01*
X111200840Y-112179975D01*
X111200500Y-112171777D01*
X111200500Y-111665479D01*
X111219407Y-111607288D01*
X111229496Y-111595475D01*
X111780496Y-111044475D01*
X111835013Y-111016698D01*
X111895445Y-111026269D01*
X111938710Y-111069534D01*
X111949500Y-111114479D01*
X111949500Y-112272189D01*
X111930593Y-112330380D01*
X111924704Y-112337724D01*
X111869596Y-112400122D01*
X111814754Y-112516932D01*
X111794901Y-112644440D01*
X111795816Y-112651437D01*
X111795816Y-112651438D01*
X111798556Y-112672394D01*
X111811633Y-112772394D01*
X111814471Y-112778845D01*
X111814472Y-112778847D01*
X111854709Y-112870292D01*
X111863605Y-112890510D01*
X111898494Y-112932015D01*
X111942100Y-112983892D01*
X111942103Y-112983894D01*
X111946639Y-112989291D01*
X112054060Y-113060796D01*
X112060788Y-113062898D01*
X112060790Y-113062899D01*
X112102283Y-113075862D01*
X112177233Y-113099278D01*
X112241744Y-113100460D01*
X112299202Y-113101514D01*
X112299204Y-113101514D01*
X112306255Y-113101643D01*
X112313058Y-113099788D01*
X112313060Y-113099788D01*
X112357213Y-113087750D01*
X112430755Y-113067700D01*
X112540724Y-113000179D01*
X112550579Y-112989291D01*
X112622590Y-112909735D01*
X112622590Y-112909734D01*
X112627322Y-112904507D01*
X112673418Y-112809366D01*
X112680512Y-112794724D01*
X112680512Y-112794723D01*
X112683588Y-112788375D01*
X112701582Y-112681418D01*
X112704363Y-112664891D01*
X112704363Y-112664886D01*
X112704997Y-112661120D01*
X112705133Y-112650000D01*
X112686839Y-112522259D01*
X112633428Y-112404788D01*
X112574501Y-112336399D01*
X112550840Y-112279975D01*
X112550500Y-112271777D01*
X112550500Y-108215479D01*
X112569407Y-108157288D01*
X112579496Y-108145475D01*
X112995071Y-107729900D01*
X113049588Y-107702123D01*
X113066887Y-107700921D01*
X113082467Y-107701207D01*
X113099202Y-107701514D01*
X113099204Y-107701514D01*
X113106255Y-107701643D01*
X113113058Y-107699788D01*
X113113060Y-107699788D01*
X113174460Y-107683048D01*
X113235575Y-107685984D01*
X113283292Y-107724281D01*
X113299500Y-107778562D01*
X113299500Y-113384521D01*
X113280593Y-113442712D01*
X113270504Y-113454525D01*
X110304525Y-116420504D01*
X110250008Y-116448281D01*
X110234521Y-116449500D01*
X108581167Y-116449500D01*
X108522976Y-116430593D01*
X108506168Y-116415123D01*
X108499193Y-116407028D01*
X108493276Y-116403193D01*
X108493274Y-116403191D01*
X108396824Y-116340677D01*
X108390906Y-116336841D01*
X108384150Y-116334821D01*
X108384149Y-116334820D01*
X108341335Y-116322016D01*
X108267273Y-116299866D01*
X108190644Y-116299398D01*
X108145282Y-116299121D01*
X108138231Y-116299078D01*
X108131454Y-116301015D01*
X108131453Y-116301015D01*
X108020935Y-116332601D01*
X108020933Y-116332602D01*
X108014155Y-116334539D01*
X107905019Y-116403399D01*
X107819596Y-116500122D01*
X107764754Y-116616932D01*
X107744901Y-116744440D01*
X76200500Y-116744440D01*
X76200500Y-113294440D01*
X86144901Y-113294440D01*
X86145816Y-113301437D01*
X86145816Y-113301438D01*
X86146880Y-113309571D01*
X86161633Y-113422394D01*
X86164471Y-113428845D01*
X86164472Y-113428847D01*
X86210764Y-113534054D01*
X86213605Y-113540510D01*
X86241611Y-113573827D01*
X86292100Y-113633892D01*
X86292103Y-113633894D01*
X86296639Y-113639291D01*
X86404060Y-113710796D01*
X86410788Y-113712898D01*
X86410790Y-113712899D01*
X86465646Y-113730037D01*
X86527233Y-113749278D01*
X86591744Y-113750460D01*
X86649202Y-113751514D01*
X86649204Y-113751514D01*
X86656255Y-113751643D01*
X86663058Y-113749788D01*
X86663060Y-113749788D01*
X86716955Y-113735094D01*
X86780755Y-113717700D01*
X86890724Y-113650179D01*
X86896332Y-113643983D01*
X86972590Y-113559735D01*
X86972590Y-113559734D01*
X86977322Y-113554507D01*
X87020493Y-113465403D01*
X87030512Y-113444724D01*
X87030512Y-113444723D01*
X87033588Y-113438375D01*
X87046332Y-113362625D01*
X87054363Y-113314891D01*
X87054363Y-113314886D01*
X87054997Y-113311120D01*
X87055133Y-113300000D01*
X87054337Y-113294440D01*
X87042110Y-113209060D01*
X87052577Y-113148777D01*
X87096479Y-113106159D01*
X87114067Y-113099513D01*
X87230755Y-113067700D01*
X87340724Y-113000179D01*
X87350579Y-112989291D01*
X87422590Y-112909735D01*
X87422590Y-112909734D01*
X87427322Y-112904507D01*
X87473418Y-112809366D01*
X87480512Y-112794724D01*
X87480512Y-112794723D01*
X87483588Y-112788375D01*
X87501582Y-112681418D01*
X87504363Y-112664891D01*
X87504363Y-112664886D01*
X87504997Y-112661120D01*
X87505133Y-112650000D01*
X87486839Y-112522259D01*
X87433428Y-112404788D01*
X87349193Y-112307028D01*
X87343276Y-112303193D01*
X87343274Y-112303191D01*
X87268890Y-112254979D01*
X87240906Y-112236841D01*
X87234150Y-112234821D01*
X87234149Y-112234820D01*
X87168839Y-112215288D01*
X87117273Y-112199866D01*
X87040644Y-112199398D01*
X86995282Y-112199121D01*
X86988231Y-112199078D01*
X86981454Y-112201015D01*
X86981453Y-112201015D01*
X86870935Y-112232601D01*
X86870933Y-112232602D01*
X86864155Y-112234539D01*
X86755019Y-112303399D01*
X86669596Y-112400122D01*
X86614754Y-112516932D01*
X86594901Y-112644440D01*
X86595816Y-112651437D01*
X86595816Y-112651439D01*
X86607594Y-112741509D01*
X86596392Y-112801660D01*
X86551973Y-112843738D01*
X86536635Y-112849534D01*
X86420935Y-112882601D01*
X86420933Y-112882602D01*
X86414155Y-112884539D01*
X86305019Y-112953399D01*
X86219596Y-113050122D01*
X86164754Y-113166932D01*
X86144901Y-113294440D01*
X76200500Y-113294440D01*
X76200500Y-111244440D01*
X86544901Y-111244440D01*
X86545816Y-111251437D01*
X86545816Y-111251438D01*
X86546659Y-111257886D01*
X86561633Y-111372394D01*
X86564471Y-111378845D01*
X86564472Y-111378847D01*
X86607794Y-111477303D01*
X86613605Y-111490510D01*
X86641224Y-111523367D01*
X86692100Y-111583892D01*
X86692103Y-111583894D01*
X86696639Y-111589291D01*
X86804060Y-111660796D01*
X86810788Y-111662898D01*
X86810790Y-111662899D01*
X86865170Y-111679888D01*
X86927233Y-111699278D01*
X86991744Y-111700460D01*
X87049202Y-111701514D01*
X87049204Y-111701514D01*
X87056255Y-111701643D01*
X87063058Y-111699788D01*
X87063060Y-111699788D01*
X87104828Y-111688400D01*
X87180755Y-111667700D01*
X87290724Y-111600179D01*
X87305466Y-111583892D01*
X87372590Y-111509735D01*
X87372590Y-111509734D01*
X87377322Y-111504507D01*
X87428243Y-111399407D01*
X87430512Y-111394724D01*
X87430512Y-111394723D01*
X87433588Y-111388375D01*
X87446632Y-111310843D01*
X87454363Y-111264891D01*
X87454363Y-111264886D01*
X87454997Y-111261120D01*
X87455133Y-111250000D01*
X87436839Y-111122259D01*
X87401473Y-111044475D01*
X87386349Y-111011212D01*
X87386348Y-111011211D01*
X87383428Y-111004788D01*
X87326821Y-110939092D01*
X87303798Y-110912372D01*
X87303797Y-110912371D01*
X87299193Y-110907028D01*
X87293276Y-110903193D01*
X87293274Y-110903191D01*
X87196824Y-110840677D01*
X87190906Y-110836841D01*
X87184150Y-110834821D01*
X87184149Y-110834820D01*
X87116723Y-110814655D01*
X87067273Y-110799866D01*
X86990644Y-110799398D01*
X86945282Y-110799121D01*
X86938231Y-110799078D01*
X86931454Y-110801015D01*
X86931453Y-110801015D01*
X86820935Y-110832601D01*
X86820933Y-110832602D01*
X86814155Y-110834539D01*
X86705019Y-110903399D01*
X86619596Y-111000122D01*
X86564754Y-111116932D01*
X86544901Y-111244440D01*
X76200500Y-111244440D01*
X76200500Y-102617030D01*
X83930595Y-102617030D01*
X83931510Y-102624027D01*
X83931510Y-102624028D01*
X83932528Y-102631810D01*
X83947327Y-102744984D01*
X83950165Y-102751435D01*
X83950166Y-102751437D01*
X83988162Y-102837790D01*
X83999299Y-102863100D01*
X84034105Y-102904507D01*
X84077794Y-102956482D01*
X84077797Y-102956484D01*
X84082333Y-102961881D01*
X84189754Y-103033386D01*
X84196482Y-103035488D01*
X84196484Y-103035489D01*
X84249212Y-103051962D01*
X84312927Y-103071868D01*
X84377438Y-103073051D01*
X84434896Y-103074104D01*
X84434898Y-103074104D01*
X84441949Y-103074233D01*
X84448752Y-103072378D01*
X84448754Y-103072378D01*
X84491235Y-103060796D01*
X84566449Y-103040290D01*
X84676418Y-102972769D01*
X84738206Y-102904507D01*
X84758284Y-102882325D01*
X84758284Y-102882324D01*
X84763016Y-102877097D01*
X84806002Y-102788375D01*
X84816206Y-102767314D01*
X84816206Y-102767313D01*
X84819282Y-102760965D01*
X84830290Y-102695531D01*
X84840057Y-102637481D01*
X84840057Y-102637476D01*
X84840691Y-102633710D01*
X84840827Y-102622590D01*
X84822533Y-102494849D01*
X84790042Y-102423389D01*
X84772043Y-102383802D01*
X84772042Y-102383801D01*
X84769122Y-102377378D01*
X84705199Y-102303191D01*
X84689492Y-102284962D01*
X84689491Y-102284961D01*
X84684887Y-102279618D01*
X84678970Y-102275783D01*
X84678968Y-102275781D01*
X84608171Y-102229894D01*
X84576600Y-102209431D01*
X84569844Y-102207411D01*
X84569843Y-102207410D01*
X84527029Y-102194606D01*
X84452967Y-102172456D01*
X84376338Y-102171988D01*
X84330976Y-102171711D01*
X84323925Y-102171668D01*
X84317148Y-102173605D01*
X84317147Y-102173605D01*
X84206629Y-102205191D01*
X84206627Y-102205192D01*
X84199849Y-102207129D01*
X84193885Y-102210892D01*
X84156407Y-102234539D01*
X84090713Y-102275989D01*
X84005290Y-102372712D01*
X83950448Y-102489522D01*
X83930595Y-102617030D01*
X76200500Y-102617030D01*
X76200500Y-97194440D01*
X82745401Y-97194440D01*
X82746316Y-97201437D01*
X82746316Y-97201438D01*
X82746868Y-97205656D01*
X82762133Y-97322394D01*
X82764971Y-97328845D01*
X82764972Y-97328847D01*
X82810563Y-97432461D01*
X82814105Y-97440510D01*
X82849956Y-97483160D01*
X82892600Y-97533892D01*
X82892603Y-97533894D01*
X82897139Y-97539291D01*
X83004560Y-97610796D01*
X83011288Y-97612898D01*
X83011290Y-97612899D01*
X83055014Y-97626559D01*
X83127733Y-97649278D01*
X83192244Y-97650461D01*
X83249702Y-97651514D01*
X83249704Y-97651514D01*
X83256755Y-97651643D01*
X83263558Y-97649788D01*
X83263560Y-97649788D01*
X83305689Y-97638302D01*
X83381255Y-97617700D01*
X83491224Y-97550179D01*
X83515796Y-97523032D01*
X83573090Y-97459735D01*
X83573090Y-97459734D01*
X83577822Y-97454507D01*
X83634088Y-97338375D01*
X83653372Y-97223751D01*
X83662777Y-97205723D01*
X83653000Y-97181615D01*
X83647925Y-97146181D01*
X83637339Y-97072259D01*
X83591577Y-96971611D01*
X83586849Y-96961212D01*
X83586848Y-96961211D01*
X83583928Y-96954788D01*
X83499693Y-96857028D01*
X83493776Y-96853193D01*
X83493774Y-96853191D01*
X83397324Y-96790677D01*
X83391406Y-96786841D01*
X83384650Y-96784821D01*
X83384649Y-96784820D01*
X83341835Y-96772016D01*
X83267773Y-96749866D01*
X83191144Y-96749398D01*
X83145782Y-96749121D01*
X83138731Y-96749078D01*
X83131954Y-96751015D01*
X83131953Y-96751015D01*
X83021435Y-96782601D01*
X83021433Y-96782602D01*
X83014655Y-96784539D01*
X83008691Y-96788302D01*
X82990943Y-96799500D01*
X82905519Y-96853399D01*
X82820096Y-96950122D01*
X82765254Y-97066932D01*
X82745401Y-97194440D01*
X76200500Y-97194440D01*
X76200500Y-93682996D01*
X80833457Y-93682996D01*
X80850189Y-93810950D01*
X80853027Y-93817401D01*
X80853028Y-93817403D01*
X80897120Y-93917609D01*
X80902161Y-93929066D01*
X80943678Y-93978456D01*
X80980656Y-94022448D01*
X80980659Y-94022450D01*
X80985195Y-94027847D01*
X81092616Y-94099352D01*
X81099344Y-94101454D01*
X81099346Y-94101455D01*
X81149744Y-94117200D01*
X81215789Y-94137834D01*
X81280300Y-94139017D01*
X81337758Y-94140070D01*
X81337760Y-94140070D01*
X81344811Y-94140199D01*
X81351614Y-94138344D01*
X81351616Y-94138344D01*
X81393384Y-94126956D01*
X81469311Y-94106256D01*
X81579280Y-94038735D01*
X81589135Y-94027847D01*
X81661146Y-93948291D01*
X81661146Y-93948290D01*
X81665878Y-93943063D01*
X81668952Y-93936719D01*
X81668955Y-93936714D01*
X81676785Y-93920553D01*
X81719173Y-93876429D01*
X81779401Y-93865648D01*
X81834464Y-93892327D01*
X81856494Y-93923848D01*
X81863033Y-93938709D01*
X81863606Y-93940012D01*
X81863380Y-93940112D01*
X81877108Y-93995598D01*
X81854086Y-94052287D01*
X81831190Y-94072242D01*
X81796040Y-94094420D01*
X81710617Y-94191143D01*
X81655775Y-94307953D01*
X81635922Y-94435461D01*
X81652654Y-94563415D01*
X81704626Y-94681531D01*
X81746143Y-94730922D01*
X81783121Y-94774913D01*
X81783124Y-94774915D01*
X81787660Y-94780312D01*
X81895081Y-94851817D01*
X81901811Y-94853920D01*
X81901812Y-94853920D01*
X81995924Y-94883323D01*
X82045829Y-94918724D01*
X82065394Y-94979029D01*
X82065364Y-94981492D01*
X82064278Y-94988466D01*
X82081010Y-95116420D01*
X82083848Y-95122871D01*
X82083849Y-95122873D01*
X82124765Y-95215862D01*
X82132982Y-95234536D01*
X82174499Y-95283927D01*
X82211477Y-95327918D01*
X82211480Y-95327920D01*
X82216016Y-95333317D01*
X82323437Y-95404822D01*
X82330164Y-95406924D01*
X82330169Y-95406926D01*
X82406187Y-95430675D01*
X82456092Y-95466075D01*
X82475659Y-95524048D01*
X82457413Y-95582449D01*
X82450869Y-95590705D01*
X82442982Y-95599636D01*
X82436545Y-95606925D01*
X82381703Y-95723735D01*
X82361850Y-95851243D01*
X82378582Y-95979197D01*
X82381420Y-95985648D01*
X82381421Y-95985650D01*
X82423560Y-96081418D01*
X82430554Y-96097313D01*
X82472071Y-96146704D01*
X82509049Y-96190695D01*
X82509052Y-96190697D01*
X82513588Y-96196094D01*
X82621009Y-96267599D01*
X82627737Y-96269701D01*
X82627739Y-96269702D01*
X82682596Y-96286840D01*
X82744182Y-96306081D01*
X82808693Y-96307264D01*
X82866151Y-96308317D01*
X82866153Y-96308317D01*
X82873204Y-96308446D01*
X82880007Y-96306591D01*
X82880009Y-96306591D01*
X82921777Y-96295203D01*
X82997704Y-96274503D01*
X83107673Y-96206982D01*
X83113991Y-96200002D01*
X83129324Y-96183063D01*
X83182392Y-96152610D01*
X83202721Y-96150500D01*
X83935522Y-96150500D01*
X83993713Y-96169407D01*
X84029677Y-96218907D01*
X84029677Y-96280093D01*
X84005528Y-96319501D01*
X83975846Y-96349183D01*
X83972722Y-96351880D01*
X83968231Y-96354075D01*
X83962013Y-96360778D01*
X83934607Y-96390322D01*
X83932031Y-96392998D01*
X83918252Y-96406777D01*
X83915707Y-96410487D01*
X83912271Y-96414400D01*
X83892099Y-96436146D01*
X83888712Y-96444634D01*
X83888712Y-96444635D01*
X83887834Y-96446836D01*
X83877520Y-96466152D01*
X83876179Y-96468107D01*
X83876178Y-96468110D01*
X83871008Y-96475646D01*
X83868898Y-96484538D01*
X83864859Y-96501558D01*
X83860486Y-96515384D01*
X83853206Y-96533632D01*
X83850617Y-96540122D01*
X83850000Y-96546415D01*
X83850000Y-96552584D01*
X83847325Y-96575443D01*
X83845160Y-96584566D01*
X83849096Y-96613487D01*
X83850000Y-96626837D01*
X83850000Y-97167580D01*
X83840100Y-97198050D01*
X83850000Y-97240176D01*
X83850000Y-97474310D01*
X83849697Y-97478435D01*
X83848075Y-97483160D01*
X83848778Y-97501888D01*
X83849930Y-97532579D01*
X83850000Y-97536292D01*
X83850000Y-97555766D01*
X83850825Y-97560196D01*
X83851161Y-97565389D01*
X83852274Y-97595026D01*
X83855880Y-97603420D01*
X83855881Y-97603423D01*
X83856817Y-97605601D01*
X83863183Y-97626552D01*
X83865291Y-97637871D01*
X83870088Y-97645653D01*
X83879268Y-97660546D01*
X83885951Y-97673413D01*
X83896464Y-97697881D01*
X83900478Y-97702767D01*
X83904842Y-97707131D01*
X83919113Y-97725186D01*
X83924032Y-97733166D01*
X83947269Y-97750836D01*
X83957339Y-97759628D01*
X84164811Y-97967100D01*
X84192588Y-98021617D01*
X84183017Y-98082049D01*
X84139752Y-98125314D01*
X84122017Y-98132291D01*
X84120941Y-98132599D01*
X84120938Y-98132601D01*
X84114155Y-98134539D01*
X84005019Y-98203399D01*
X83919596Y-98300122D01*
X83864754Y-98416932D01*
X83844901Y-98544440D01*
X83845816Y-98551437D01*
X83845816Y-98551438D01*
X83847053Y-98560897D01*
X83861633Y-98672394D01*
X83864471Y-98678845D01*
X83864472Y-98678847D01*
X83910764Y-98784054D01*
X83913605Y-98790510D01*
X83941087Y-98823204D01*
X83992100Y-98883892D01*
X83992103Y-98883894D01*
X83996639Y-98889291D01*
X84104060Y-98960796D01*
X84110788Y-98962898D01*
X84110790Y-98962899D01*
X84142197Y-98972711D01*
X84227233Y-98999278D01*
X84291744Y-99000460D01*
X84349202Y-99001514D01*
X84349204Y-99001514D01*
X84356255Y-99001643D01*
X84363058Y-98999788D01*
X84363060Y-98999788D01*
X84462376Y-98972711D01*
X84523491Y-98975647D01*
X84571208Y-99013944D01*
X84587416Y-99068225D01*
X84587416Y-100784273D01*
X84568509Y-100842464D01*
X84562620Y-100849808D01*
X84507512Y-100912206D01*
X84452670Y-101029016D01*
X84432817Y-101156524D01*
X84433732Y-101163521D01*
X84433732Y-101163522D01*
X84434998Y-101173204D01*
X84449549Y-101284478D01*
X84452387Y-101290929D01*
X84452388Y-101290931D01*
X84498680Y-101396138D01*
X84501521Y-101402594D01*
X84543038Y-101451985D01*
X84580016Y-101495976D01*
X84580019Y-101495978D01*
X84584555Y-101501375D01*
X84691976Y-101572880D01*
X84698704Y-101574982D01*
X84698706Y-101574983D01*
X84753562Y-101592121D01*
X84815149Y-101611362D01*
X84879660Y-101612545D01*
X84937118Y-101613598D01*
X84937120Y-101613598D01*
X84944171Y-101613727D01*
X84950974Y-101611872D01*
X84950976Y-101611872D01*
X84995298Y-101599788D01*
X85068671Y-101579784D01*
X85178640Y-101512263D01*
X85265238Y-101416591D01*
X85321504Y-101300459D01*
X85342913Y-101173204D01*
X85343049Y-101162084D01*
X85324755Y-101034343D01*
X85296660Y-100972552D01*
X85274265Y-100923296D01*
X85274264Y-100923295D01*
X85271344Y-100916872D01*
X85212417Y-100848483D01*
X85188756Y-100792059D01*
X85188416Y-100783861D01*
X85188416Y-98318747D01*
X85188719Y-98314618D01*
X85190342Y-98309892D01*
X85188486Y-98260457D01*
X85188416Y-98256743D01*
X85188416Y-98237286D01*
X85187591Y-98232856D01*
X85187255Y-98227670D01*
X85186485Y-98207159D01*
X85186485Y-98207158D01*
X85186142Y-98198026D01*
X85182536Y-98189632D01*
X85182535Y-98189629D01*
X85181599Y-98187451D01*
X85175233Y-98166500D01*
X85173125Y-98155181D01*
X85159148Y-98132505D01*
X85152464Y-98119638D01*
X85144709Y-98101587D01*
X85144708Y-98101585D01*
X85141952Y-98095171D01*
X85137939Y-98090285D01*
X85133573Y-98085919D01*
X85119301Y-98067863D01*
X85119180Y-98067666D01*
X85119179Y-98067665D01*
X85114384Y-98059886D01*
X85103275Y-98051438D01*
X85091160Y-98042226D01*
X85081080Y-98033426D01*
X84617039Y-97569385D01*
X84589262Y-97514868D01*
X84598833Y-97454436D01*
X84642098Y-97411171D01*
X84688856Y-97400398D01*
X84725687Y-97401074D01*
X84749702Y-97401514D01*
X84749704Y-97401514D01*
X84756755Y-97401643D01*
X84763558Y-97399788D01*
X84763560Y-97399788D01*
X84819590Y-97384512D01*
X84881255Y-97367700D01*
X84991224Y-97300179D01*
X85019530Y-97268907D01*
X85073090Y-97209735D01*
X85073090Y-97209734D01*
X85077822Y-97204507D01*
X85116471Y-97124737D01*
X85131012Y-97094724D01*
X85131012Y-97094723D01*
X85134088Y-97088375D01*
X85135259Y-97081417D01*
X85143392Y-97033075D01*
X85171692Y-96978827D01*
X85226473Y-96951575D01*
X85241020Y-96950500D01*
X87567606Y-96950500D01*
X87625797Y-96969407D01*
X87661761Y-97018907D01*
X87662175Y-97066530D01*
X87664754Y-97066932D01*
X87644901Y-97194440D01*
X87645816Y-97201437D01*
X87645816Y-97201438D01*
X87646368Y-97205656D01*
X87661633Y-97322394D01*
X87662869Y-97325204D01*
X87660382Y-97384512D01*
X87622375Y-97432461D01*
X87567592Y-97449000D01*
X87522637Y-97449000D01*
X87518512Y-97448697D01*
X87513787Y-97447075D01*
X87464368Y-97448930D01*
X87460655Y-97449000D01*
X87441181Y-97449000D01*
X87436751Y-97449825D01*
X87431558Y-97450161D01*
X87415527Y-97450763D01*
X87411054Y-97450931D01*
X87401921Y-97451274D01*
X87393527Y-97454880D01*
X87393524Y-97454881D01*
X87391346Y-97455817D01*
X87370395Y-97462183D01*
X87359076Y-97464291D01*
X87351293Y-97469088D01*
X87351294Y-97469088D01*
X87336401Y-97478268D01*
X87323533Y-97484952D01*
X87305487Y-97492705D01*
X87305486Y-97492706D01*
X87299066Y-97495464D01*
X87294180Y-97499478D01*
X87289816Y-97503842D01*
X87271761Y-97518113D01*
X87263781Y-97523032D01*
X87246111Y-97546269D01*
X87237319Y-97556339D01*
X85975349Y-98818309D01*
X85972220Y-98821009D01*
X85967731Y-98823204D01*
X85961513Y-98829907D01*
X85934107Y-98859451D01*
X85931531Y-98862127D01*
X85917752Y-98875906D01*
X85915207Y-98879616D01*
X85911771Y-98883529D01*
X85891599Y-98905275D01*
X85888212Y-98913763D01*
X85888212Y-98913764D01*
X85887334Y-98915965D01*
X85877020Y-98935281D01*
X85875679Y-98937236D01*
X85875678Y-98937239D01*
X85870508Y-98944775D01*
X85868398Y-98953667D01*
X85864359Y-98970687D01*
X85859986Y-98984513D01*
X85853152Y-99001643D01*
X85850117Y-99009251D01*
X85849500Y-99015544D01*
X85849500Y-99021713D01*
X85846825Y-99044572D01*
X85844660Y-99053695D01*
X85848596Y-99082616D01*
X85849500Y-99095966D01*
X85849500Y-101840333D01*
X85830593Y-101898524D01*
X85781093Y-101934488D01*
X85719907Y-101934488D01*
X85696655Y-101923409D01*
X85676901Y-101910606D01*
X85676899Y-101910605D01*
X85670979Y-101906768D01*
X85664223Y-101904748D01*
X85664222Y-101904747D01*
X85621408Y-101891943D01*
X85547346Y-101869793D01*
X85470717Y-101869325D01*
X85425355Y-101869048D01*
X85418304Y-101869005D01*
X85411527Y-101870942D01*
X85411526Y-101870942D01*
X85301008Y-101902528D01*
X85301006Y-101902529D01*
X85294228Y-101904466D01*
X85185092Y-101973326D01*
X85099669Y-102070049D01*
X85044827Y-102186859D01*
X85024974Y-102314367D01*
X85041706Y-102442321D01*
X85044544Y-102448772D01*
X85044545Y-102448774D01*
X85087148Y-102545596D01*
X85093678Y-102560437D01*
X85124722Y-102597368D01*
X85172173Y-102653819D01*
X85172176Y-102653821D01*
X85176712Y-102659218D01*
X85284133Y-102730723D01*
X85290861Y-102732825D01*
X85290863Y-102732826D01*
X85345719Y-102749964D01*
X85407306Y-102769205D01*
X85471817Y-102770388D01*
X85529275Y-102771441D01*
X85529277Y-102771441D01*
X85536328Y-102771570D01*
X85543131Y-102769715D01*
X85543133Y-102769715D01*
X85584901Y-102758327D01*
X85660828Y-102737627D01*
X85698700Y-102714374D01*
X85758181Y-102700038D01*
X85814729Y-102723404D01*
X85846744Y-102775545D01*
X85849500Y-102798740D01*
X85849500Y-108096490D01*
X85849197Y-108100615D01*
X85847575Y-108105340D01*
X85847918Y-108114474D01*
X85849430Y-108154759D01*
X85849500Y-108158472D01*
X85849500Y-108177946D01*
X85850325Y-108182376D01*
X85850661Y-108187569D01*
X85851774Y-108217206D01*
X85855380Y-108225600D01*
X85855381Y-108225603D01*
X85856317Y-108227781D01*
X85862683Y-108248732D01*
X85864791Y-108260051D01*
X85869588Y-108267833D01*
X85878768Y-108282726D01*
X85885451Y-108295593D01*
X85895964Y-108320061D01*
X85899978Y-108324947D01*
X85904342Y-108329311D01*
X85918613Y-108347366D01*
X85923532Y-108355346D01*
X85946769Y-108373016D01*
X85956839Y-108381808D01*
X86522594Y-108947564D01*
X89349184Y-111774156D01*
X89351881Y-111777281D01*
X89354075Y-111781769D01*
X89360777Y-111787986D01*
X89390308Y-111815380D01*
X89392984Y-111817956D01*
X89406776Y-111831748D01*
X89410487Y-111834293D01*
X89414406Y-111837734D01*
X89436146Y-111857901D01*
X89444634Y-111861287D01*
X89444637Y-111861289D01*
X89446838Y-111862167D01*
X89466154Y-111872481D01*
X89468109Y-111873822D01*
X89468111Y-111873823D01*
X89475646Y-111878992D01*
X89484534Y-111881101D01*
X89484536Y-111881102D01*
X89501558Y-111885141D01*
X89515384Y-111889514D01*
X89533632Y-111896794D01*
X89533634Y-111896794D01*
X89540122Y-111899383D01*
X89546415Y-111900000D01*
X89552584Y-111900000D01*
X89575443Y-111902675D01*
X89575673Y-111902730D01*
X89575675Y-111902730D01*
X89584566Y-111904840D01*
X89613488Y-111900904D01*
X89626837Y-111900000D01*
X90567420Y-111900000D01*
X90625611Y-111918907D01*
X90636238Y-111928809D01*
X90636343Y-111928691D01*
X90641600Y-111933391D01*
X90646139Y-111938791D01*
X90753560Y-112010296D01*
X90760288Y-112012398D01*
X90760290Y-112012399D01*
X90815146Y-112029537D01*
X90876733Y-112048778D01*
X90941244Y-112049961D01*
X90998702Y-112051014D01*
X90998704Y-112051014D01*
X91005755Y-112051143D01*
X91012558Y-112049288D01*
X91012560Y-112049288D01*
X91054328Y-112037900D01*
X91130255Y-112017200D01*
X91240224Y-111949679D01*
X91259115Y-111928809D01*
X91322090Y-111859235D01*
X91322090Y-111859234D01*
X91326822Y-111854007D01*
X91332748Y-111841777D01*
X91340037Y-111826732D01*
X91382424Y-111782607D01*
X91442652Y-111771825D01*
X91458654Y-111775401D01*
X91557798Y-111806376D01*
X91607702Y-111841777D01*
X91627269Y-111899749D01*
X91625527Y-111915012D01*
X91625709Y-111915030D01*
X91625329Y-111918907D01*
X91625092Y-111921323D01*
X91625092Y-111927492D01*
X91622417Y-111950351D01*
X91620252Y-111959474D01*
X91624188Y-111988395D01*
X91625092Y-112001745D01*
X91625092Y-112809366D01*
X91606185Y-112867557D01*
X91600296Y-112874901D01*
X91592212Y-112884054D01*
X91545188Y-112937299D01*
X91490346Y-113054109D01*
X91470493Y-113181617D01*
X91471408Y-113188614D01*
X91471408Y-113188615D01*
X91472235Y-113194939D01*
X91487225Y-113309571D01*
X91490063Y-113316022D01*
X91490064Y-113316024D01*
X91523498Y-113392008D01*
X91539197Y-113427687D01*
X91574991Y-113470269D01*
X91617692Y-113521069D01*
X91617695Y-113521071D01*
X91622231Y-113526468D01*
X91729652Y-113597973D01*
X91736380Y-113600075D01*
X91736382Y-113600076D01*
X91769457Y-113610409D01*
X91852825Y-113636455D01*
X91917336Y-113637637D01*
X91974794Y-113638691D01*
X91974796Y-113638691D01*
X91981847Y-113638820D01*
X91988650Y-113636965D01*
X91988652Y-113636965D01*
X92039598Y-113623075D01*
X92106347Y-113604877D01*
X92216316Y-113537356D01*
X92226171Y-113526468D01*
X92298182Y-113446912D01*
X92298182Y-113446911D01*
X92302914Y-113441684D01*
X92340120Y-113364891D01*
X92356104Y-113331901D01*
X92356104Y-113331900D01*
X92359180Y-113325552D01*
X92370188Y-113260118D01*
X92379955Y-113202068D01*
X92379955Y-113202063D01*
X92380589Y-113198297D01*
X92380638Y-113194345D01*
X92380659Y-113192565D01*
X92380725Y-113187177D01*
X92362431Y-113059436D01*
X92322575Y-112971777D01*
X92311941Y-112948389D01*
X92311940Y-112948388D01*
X92309020Y-112941965D01*
X92250093Y-112873576D01*
X92226432Y-112817152D01*
X92226092Y-112808954D01*
X92226092Y-112139887D01*
X92244999Y-112081696D01*
X92255088Y-112069883D01*
X92458304Y-111866667D01*
X92512821Y-111838890D01*
X92573253Y-111848461D01*
X92599161Y-111868270D01*
X92599478Y-111867953D01*
X92603842Y-111872317D01*
X92618113Y-111890372D01*
X92623032Y-111898352D01*
X92646269Y-111916022D01*
X92656339Y-111924814D01*
X92958509Y-112226984D01*
X92986286Y-112281501D01*
X92987505Y-112296988D01*
X92987505Y-112818808D01*
X92968598Y-112876999D01*
X92962709Y-112884343D01*
X92907601Y-112946741D01*
X92852759Y-113063551D01*
X92832906Y-113191059D01*
X92833821Y-113198056D01*
X92833821Y-113198057D01*
X92836986Y-113222259D01*
X92849638Y-113319013D01*
X92852476Y-113325464D01*
X92852477Y-113325466D01*
X92895960Y-113424288D01*
X92901610Y-113437129D01*
X92938839Y-113481418D01*
X92980105Y-113530511D01*
X92980108Y-113530513D01*
X92984644Y-113535910D01*
X93092065Y-113607415D01*
X93098793Y-113609517D01*
X93098795Y-113609518D01*
X93124447Y-113617532D01*
X93215238Y-113645897D01*
X93279749Y-113647080D01*
X93337207Y-113648133D01*
X93337209Y-113648133D01*
X93344260Y-113648262D01*
X93351063Y-113646407D01*
X93351065Y-113646407D01*
X93396968Y-113633892D01*
X93468760Y-113614319D01*
X93578729Y-113546798D01*
X93585047Y-113539818D01*
X93660595Y-113456354D01*
X93660595Y-113456353D01*
X93665327Y-113451126D01*
X93710786Y-113357299D01*
X93718517Y-113341343D01*
X93718517Y-113341342D01*
X93721593Y-113334994D01*
X93736080Y-113248883D01*
X93742368Y-113211510D01*
X93742368Y-113211505D01*
X93743002Y-113207739D01*
X93743138Y-113196619D01*
X93724844Y-113068878D01*
X93680695Y-112971777D01*
X93674354Y-112957831D01*
X93674353Y-112957830D01*
X93671433Y-112951407D01*
X93612506Y-112883018D01*
X93588845Y-112826594D01*
X93588505Y-112818396D01*
X93588505Y-112502484D01*
X93607412Y-112444293D01*
X93656912Y-112408329D01*
X93718098Y-112408329D01*
X93757509Y-112432480D01*
X94267806Y-112942777D01*
X94295583Y-112997294D01*
X94287417Y-113054855D01*
X94281185Y-113068130D01*
X94264331Y-113104027D01*
X94244478Y-113231535D01*
X94245393Y-113238532D01*
X94245393Y-113238533D01*
X94246890Y-113249984D01*
X94261210Y-113359489D01*
X94264048Y-113365940D01*
X94264049Y-113365942D01*
X94307813Y-113465403D01*
X94313182Y-113477605D01*
X94341140Y-113510865D01*
X94391677Y-113570987D01*
X94391680Y-113570989D01*
X94396216Y-113576386D01*
X94503637Y-113647891D01*
X94510365Y-113649993D01*
X94510367Y-113649994D01*
X94546742Y-113661358D01*
X94626810Y-113686373D01*
X94691321Y-113687556D01*
X94748779Y-113688609D01*
X94748781Y-113688609D01*
X94755832Y-113688738D01*
X94762635Y-113686883D01*
X94762637Y-113686883D01*
X94810425Y-113673854D01*
X94880332Y-113654795D01*
X94974597Y-113596916D01*
X94984288Y-113590966D01*
X94990301Y-113587274D01*
X95000156Y-113576386D01*
X95072167Y-113496830D01*
X95072167Y-113496829D01*
X95076899Y-113491602D01*
X95133165Y-113375470D01*
X95134335Y-113368513D01*
X95136479Y-113361796D01*
X95139076Y-113362625D01*
X95161836Y-113318987D01*
X95216614Y-113291729D01*
X95276952Y-113301875D01*
X95301174Y-113319649D01*
X95359697Y-113378172D01*
X95362397Y-113381301D01*
X95364592Y-113385790D01*
X95371295Y-113392008D01*
X95400839Y-113419414D01*
X95403515Y-113421990D01*
X95417294Y-113435769D01*
X95421004Y-113438314D01*
X95424917Y-113441750D01*
X95428185Y-113444781D01*
X95446663Y-113461922D01*
X95455149Y-113465308D01*
X95455151Y-113465309D01*
X95457354Y-113466188D01*
X95476665Y-113476499D01*
X95478624Y-113477843D01*
X95478627Y-113477844D01*
X95486163Y-113483014D01*
X95495055Y-113485124D01*
X95495057Y-113485125D01*
X95512083Y-113489165D01*
X95525902Y-113493535D01*
X95550639Y-113503404D01*
X95556932Y-113504021D01*
X95563102Y-113504021D01*
X95585958Y-113506696D01*
X95595083Y-113508861D01*
X95595084Y-113508861D01*
X95594200Y-113512586D01*
X95635483Y-113529008D01*
X95639289Y-113532789D01*
X95639358Y-113532712D01*
X95644614Y-113537411D01*
X95649154Y-113542812D01*
X95738130Y-113602039D01*
X95749692Y-113609735D01*
X95756575Y-113614317D01*
X95763303Y-113616419D01*
X95763305Y-113616420D01*
X95818162Y-113633558D01*
X95879748Y-113652799D01*
X95944259Y-113653981D01*
X96001717Y-113655035D01*
X96001719Y-113655035D01*
X96008770Y-113655164D01*
X96015573Y-113653309D01*
X96015575Y-113653309D01*
X96068718Y-113638820D01*
X96133270Y-113621221D01*
X96243239Y-113553700D01*
X96248252Y-113548162D01*
X96325105Y-113463256D01*
X96325105Y-113463255D01*
X96329837Y-113458028D01*
X96376060Y-113362625D01*
X96383027Y-113348245D01*
X96383027Y-113348244D01*
X96386103Y-113341896D01*
X96401864Y-113248215D01*
X96406878Y-113218412D01*
X96406878Y-113218407D01*
X96407512Y-113214641D01*
X96407648Y-113203521D01*
X96389354Y-113075780D01*
X96358557Y-113008045D01*
X96338864Y-112964733D01*
X96338863Y-112964732D01*
X96335943Y-112958309D01*
X96265882Y-112876999D01*
X96256313Y-112865893D01*
X96256312Y-112865892D01*
X96251708Y-112860549D01*
X96208550Y-112832576D01*
X96170003Y-112785060D01*
X96166747Y-112723961D01*
X96200025Y-112672618D01*
X96262396Y-112650500D01*
X96634521Y-112650500D01*
X96692712Y-112669407D01*
X96704525Y-112679496D01*
X96975183Y-112950154D01*
X97002960Y-113004671D01*
X96993389Y-113065103D01*
X96979384Y-113085691D01*
X96973652Y-113092182D01*
X96967081Y-113099622D01*
X96912239Y-113216432D01*
X96892386Y-113343940D01*
X96893301Y-113350937D01*
X96893301Y-113350938D01*
X96894721Y-113361796D01*
X96909118Y-113471894D01*
X96911956Y-113478345D01*
X96911957Y-113478347D01*
X96955095Y-113576386D01*
X96961090Y-113590010D01*
X97000560Y-113636965D01*
X97039585Y-113683392D01*
X97039588Y-113683394D01*
X97044124Y-113688791D01*
X97151545Y-113760296D01*
X97158273Y-113762398D01*
X97158275Y-113762399D01*
X97213132Y-113779537D01*
X97274718Y-113798778D01*
X97339229Y-113799961D01*
X97396687Y-113801014D01*
X97396689Y-113801014D01*
X97403740Y-113801143D01*
X97410543Y-113799288D01*
X97410545Y-113799288D01*
X97464352Y-113784618D01*
X97528240Y-113767200D01*
X97638209Y-113699679D01*
X97642944Y-113694448D01*
X97720075Y-113609235D01*
X97720075Y-113609234D01*
X97724807Y-113604007D01*
X97764218Y-113522663D01*
X97777997Y-113494224D01*
X97777997Y-113494223D01*
X97781073Y-113487875D01*
X97792591Y-113419414D01*
X97801848Y-113364391D01*
X97801848Y-113364386D01*
X97802482Y-113360620D01*
X97802533Y-113356500D01*
X97802571Y-113353325D01*
X97802618Y-113349500D01*
X97784324Y-113221759D01*
X97741196Y-113126904D01*
X97733834Y-113110712D01*
X97733833Y-113110711D01*
X97730913Y-113104288D01*
X97671986Y-113035899D01*
X97648325Y-112979475D01*
X97647985Y-112971277D01*
X97647985Y-112950998D01*
X97648288Y-112946869D01*
X97649911Y-112942143D01*
X97648055Y-112892708D01*
X97647985Y-112888994D01*
X97647985Y-112869537D01*
X97647903Y-112869099D01*
X97661113Y-112810610D01*
X97707099Y-112770249D01*
X97768025Y-112764626D01*
X97816219Y-112791191D01*
X98219394Y-113194367D01*
X98247171Y-113248883D01*
X98247212Y-113279597D01*
X98244901Y-113294440D01*
X98245816Y-113301437D01*
X98245816Y-113301438D01*
X98246880Y-113309571D01*
X98261633Y-113422394D01*
X98264471Y-113428845D01*
X98264472Y-113428847D01*
X98310764Y-113534054D01*
X98313605Y-113540510D01*
X98341611Y-113573827D01*
X98392100Y-113633892D01*
X98392103Y-113633894D01*
X98396639Y-113639291D01*
X98504060Y-113710796D01*
X98510788Y-113712898D01*
X98510790Y-113712899D01*
X98565646Y-113730037D01*
X98627233Y-113749278D01*
X98691744Y-113750460D01*
X98749202Y-113751514D01*
X98749204Y-113751514D01*
X98756255Y-113751643D01*
X98763058Y-113749788D01*
X98763060Y-113749788D01*
X98816955Y-113735094D01*
X98880755Y-113717700D01*
X98990724Y-113650179D01*
X98996332Y-113643983D01*
X99072590Y-113559735D01*
X99072590Y-113559734D01*
X99077322Y-113554507D01*
X99120493Y-113465403D01*
X99130512Y-113444724D01*
X99130512Y-113444723D01*
X99133588Y-113438375D01*
X99146332Y-113362625D01*
X99154363Y-113314891D01*
X99154363Y-113314886D01*
X99154997Y-113311120D01*
X99155133Y-113300000D01*
X99136839Y-113172259D01*
X99083428Y-113054788D01*
X99018965Y-112979975D01*
X99003798Y-112962372D01*
X99003797Y-112962371D01*
X98999193Y-112957028D01*
X98993276Y-112953193D01*
X98993274Y-112953191D01*
X98896824Y-112890677D01*
X98890906Y-112886841D01*
X98884150Y-112884821D01*
X98884149Y-112884820D01*
X98820862Y-112865893D01*
X98767273Y-112849866D01*
X98760216Y-112849823D01*
X98753245Y-112848781D01*
X98753659Y-112846011D01*
X98707175Y-112830606D01*
X98695831Y-112820860D01*
X97600320Y-111725349D01*
X97597620Y-111722220D01*
X97595425Y-111717731D01*
X97575533Y-111699278D01*
X97559178Y-111684107D01*
X97556502Y-111681531D01*
X97542723Y-111667752D01*
X97539013Y-111665207D01*
X97535100Y-111661771D01*
X97520055Y-111647815D01*
X97513354Y-111641599D01*
X97502664Y-111637334D01*
X97483348Y-111627020D01*
X97481393Y-111625679D01*
X97481390Y-111625678D01*
X97473854Y-111620508D01*
X97447941Y-111614359D01*
X97434116Y-111609986D01*
X97415868Y-111602706D01*
X97415866Y-111602706D01*
X97409378Y-111600117D01*
X97403085Y-111599500D01*
X97396916Y-111599500D01*
X97374057Y-111596825D01*
X97373827Y-111596770D01*
X97373825Y-111596770D01*
X97364934Y-111594660D01*
X97336013Y-111598596D01*
X97322663Y-111599500D01*
X95815479Y-111599500D01*
X95757288Y-111580593D01*
X95745475Y-111570504D01*
X95683282Y-111508311D01*
X95655505Y-111453794D01*
X95655128Y-111450416D01*
X95655133Y-111450000D01*
X95636839Y-111322259D01*
X95583428Y-111204788D01*
X95531429Y-111144440D01*
X98294901Y-111144440D01*
X98311633Y-111272394D01*
X98314471Y-111278845D01*
X98314472Y-111278847D01*
X98358383Y-111378643D01*
X98363605Y-111390510D01*
X98396243Y-111429338D01*
X98442100Y-111483892D01*
X98442103Y-111483894D01*
X98446639Y-111489291D01*
X98554060Y-111560796D01*
X98560788Y-111562898D01*
X98560790Y-111562899D01*
X98615646Y-111580037D01*
X98677233Y-111599278D01*
X98741744Y-111600461D01*
X98799202Y-111601514D01*
X98799204Y-111601514D01*
X98806255Y-111601643D01*
X98813058Y-111599788D01*
X98813060Y-111599788D01*
X98871364Y-111583892D01*
X98930755Y-111567700D01*
X99040724Y-111500179D01*
X99055466Y-111483892D01*
X99122592Y-111409733D01*
X99122593Y-111409732D01*
X99127322Y-111404507D01*
X99130394Y-111398166D01*
X99132432Y-111395145D01*
X99180647Y-111357477D01*
X99241795Y-111355343D01*
X99251249Y-111358925D01*
X99254060Y-111360796D01*
X99260785Y-111362897D01*
X99260787Y-111362898D01*
X99334547Y-111385942D01*
X99377233Y-111399278D01*
X99411452Y-111399905D01*
X99436178Y-111400359D01*
X99494013Y-111420330D01*
X99504367Y-111429338D01*
X99670504Y-111595475D01*
X99698281Y-111649992D01*
X99699500Y-111665479D01*
X99699500Y-112972189D01*
X99680593Y-113030380D01*
X99674704Y-113037724D01*
X99619596Y-113100122D01*
X99564754Y-113216932D01*
X99544901Y-113344440D01*
X99545816Y-113351437D01*
X99545816Y-113351438D01*
X99547279Y-113362625D01*
X99561633Y-113472394D01*
X99564471Y-113478845D01*
X99564472Y-113478847D01*
X99607390Y-113576386D01*
X99613605Y-113590510D01*
X99654105Y-113638691D01*
X99692100Y-113683892D01*
X99692103Y-113683894D01*
X99696639Y-113689291D01*
X99804060Y-113760796D01*
X99810788Y-113762898D01*
X99810790Y-113762899D01*
X99865646Y-113780037D01*
X99927233Y-113799278D01*
X99991744Y-113800460D01*
X100049202Y-113801514D01*
X100049204Y-113801514D01*
X100056255Y-113801643D01*
X100063058Y-113799788D01*
X100063060Y-113799788D01*
X100118701Y-113784618D01*
X100180755Y-113767700D01*
X100290724Y-113700179D01*
X100295459Y-113694948D01*
X100372590Y-113609735D01*
X100372590Y-113609734D01*
X100377322Y-113604507D01*
X100413173Y-113530511D01*
X100430512Y-113494724D01*
X100430512Y-113494723D01*
X100433588Y-113488375D01*
X100445865Y-113415403D01*
X100454363Y-113364891D01*
X100454363Y-113364886D01*
X100454997Y-113361120D01*
X100455133Y-113350000D01*
X100436839Y-113222259D01*
X100394785Y-113129767D01*
X100386349Y-113111212D01*
X100386348Y-113111211D01*
X100383428Y-113104788D01*
X100324501Y-113036399D01*
X100300840Y-112979975D01*
X100300500Y-112971777D01*
X100300500Y-111614479D01*
X100319407Y-111556288D01*
X100368907Y-111520324D01*
X100430093Y-111520324D01*
X100469504Y-111544475D01*
X101020504Y-112095475D01*
X101048281Y-112149992D01*
X101049500Y-112165479D01*
X101049500Y-112972189D01*
X101030593Y-113030380D01*
X101024704Y-113037724D01*
X100969596Y-113100122D01*
X100914754Y-113216932D01*
X100894901Y-113344440D01*
X100895816Y-113351437D01*
X100895816Y-113351438D01*
X100897279Y-113362625D01*
X100911633Y-113472394D01*
X100914471Y-113478845D01*
X100914472Y-113478847D01*
X100957390Y-113576386D01*
X100963605Y-113590510D01*
X101004105Y-113638691D01*
X101042100Y-113683892D01*
X101042103Y-113683894D01*
X101046639Y-113689291D01*
X101154060Y-113760796D01*
X101160788Y-113762898D01*
X101160790Y-113762899D01*
X101215646Y-113780037D01*
X101277233Y-113799278D01*
X101341744Y-113800460D01*
X101399202Y-113801514D01*
X101399204Y-113801514D01*
X101406255Y-113801643D01*
X101413058Y-113799788D01*
X101413060Y-113799788D01*
X101468701Y-113784618D01*
X101530755Y-113767700D01*
X101640724Y-113700179D01*
X101645459Y-113694948D01*
X101722590Y-113609735D01*
X101722590Y-113609734D01*
X101727322Y-113604507D01*
X101763173Y-113530511D01*
X101780512Y-113494724D01*
X101780512Y-113494723D01*
X101783588Y-113488375D01*
X101795865Y-113415403D01*
X101804363Y-113364891D01*
X101804363Y-113364886D01*
X101804997Y-113361120D01*
X101805133Y-113350000D01*
X101786839Y-113222259D01*
X101744785Y-113129767D01*
X101736349Y-113111212D01*
X101736348Y-113111211D01*
X101733428Y-113104788D01*
X101674501Y-113036399D01*
X101650840Y-112979975D01*
X101650500Y-112971777D01*
X101650500Y-112062495D01*
X101669407Y-112004304D01*
X101718907Y-111968340D01*
X101780093Y-111968340D01*
X101819504Y-111992491D01*
X102270504Y-112443491D01*
X102298281Y-112498008D01*
X102299500Y-112513495D01*
X102299500Y-112972189D01*
X102280593Y-113030380D01*
X102274704Y-113037724D01*
X102219596Y-113100122D01*
X102164754Y-113216932D01*
X102144901Y-113344440D01*
X102145816Y-113351437D01*
X102145816Y-113351438D01*
X102147279Y-113362625D01*
X102161633Y-113472394D01*
X102164471Y-113478845D01*
X102164472Y-113478847D01*
X102207390Y-113576386D01*
X102213605Y-113590510D01*
X102254105Y-113638691D01*
X102292100Y-113683892D01*
X102292103Y-113683894D01*
X102296639Y-113689291D01*
X102404060Y-113760796D01*
X102410788Y-113762898D01*
X102410790Y-113762899D01*
X102465646Y-113780037D01*
X102527233Y-113799278D01*
X102591744Y-113800460D01*
X102649202Y-113801514D01*
X102649204Y-113801514D01*
X102656255Y-113801643D01*
X102663058Y-113799788D01*
X102663060Y-113799788D01*
X102718701Y-113784618D01*
X102780755Y-113767700D01*
X102890724Y-113700179D01*
X102895459Y-113694948D01*
X102972590Y-113609735D01*
X102972590Y-113609734D01*
X102977322Y-113604507D01*
X103013173Y-113530511D01*
X103030512Y-113494724D01*
X103030512Y-113494723D01*
X103033588Y-113488375D01*
X103045865Y-113415403D01*
X103054363Y-113364891D01*
X103054363Y-113364886D01*
X103054997Y-113361120D01*
X103055133Y-113350000D01*
X103036839Y-113222259D01*
X102994785Y-113129767D01*
X102986349Y-113111212D01*
X102986348Y-113111211D01*
X102983428Y-113104788D01*
X102924501Y-113036399D01*
X102900840Y-112979975D01*
X102900500Y-112971777D01*
X102900500Y-112401524D01*
X102900803Y-112397399D01*
X102902425Y-112392674D01*
X102900570Y-112343255D01*
X102900500Y-112339542D01*
X102900500Y-112320068D01*
X102899675Y-112315638D01*
X102899338Y-112310433D01*
X102899273Y-112308684D01*
X102898226Y-112280808D01*
X102894620Y-112272414D01*
X102894619Y-112272411D01*
X102893683Y-112270233D01*
X102887317Y-112249282D01*
X102885209Y-112237963D01*
X102871232Y-112215287D01*
X102864548Y-112202420D01*
X102864320Y-112201888D01*
X102854036Y-112177953D01*
X102850022Y-112173067D01*
X102845658Y-112168703D01*
X102831387Y-112150648D01*
X102831264Y-112150449D01*
X102826468Y-112142668D01*
X102803231Y-112124998D01*
X102793161Y-112116206D01*
X102050038Y-111373083D01*
X107971597Y-111373083D01*
X107972512Y-111380080D01*
X107972512Y-111380081D01*
X107973597Y-111388375D01*
X107988329Y-111501037D01*
X107991167Y-111507488D01*
X107991168Y-111507490D01*
X108035080Y-111607288D01*
X108040301Y-111619153D01*
X108059169Y-111641599D01*
X108118796Y-111712535D01*
X108118799Y-111712537D01*
X108123335Y-111717934D01*
X108230756Y-111789439D01*
X108237484Y-111791541D01*
X108237486Y-111791542D01*
X108274344Y-111803057D01*
X108353929Y-111827921D01*
X108418440Y-111829103D01*
X108475898Y-111830157D01*
X108475900Y-111830157D01*
X108482951Y-111830286D01*
X108489754Y-111828431D01*
X108489756Y-111828431D01*
X108537625Y-111815380D01*
X108607451Y-111796343D01*
X108717420Y-111728822D01*
X108744162Y-111699278D01*
X108799286Y-111638378D01*
X108799286Y-111638377D01*
X108804018Y-111633150D01*
X108855033Y-111527856D01*
X108857208Y-111523367D01*
X108857208Y-111523366D01*
X108860284Y-111517018D01*
X108873137Y-111440622D01*
X108881059Y-111393534D01*
X108881059Y-111393529D01*
X108881693Y-111389763D01*
X108881829Y-111378643D01*
X108863535Y-111250902D01*
X108840295Y-111199788D01*
X108813045Y-111139855D01*
X108813044Y-111139854D01*
X108810124Y-111133431D01*
X108725889Y-111035671D01*
X108719972Y-111031836D01*
X108719970Y-111031834D01*
X108640328Y-110980214D01*
X108617602Y-110965484D01*
X108610846Y-110963464D01*
X108610845Y-110963463D01*
X108529355Y-110939092D01*
X108493969Y-110928509D01*
X108417340Y-110928041D01*
X108371978Y-110927764D01*
X108364927Y-110927721D01*
X108358150Y-110929658D01*
X108358149Y-110929658D01*
X108247631Y-110961244D01*
X108247629Y-110961245D01*
X108240851Y-110963182D01*
X108131715Y-111032042D01*
X108046292Y-111128765D01*
X107991450Y-111245575D01*
X107971597Y-111373083D01*
X102050038Y-111373083D01*
X101421395Y-110744440D01*
X102644901Y-110744440D01*
X102645816Y-110751437D01*
X102645816Y-110751438D01*
X102647082Y-110761120D01*
X102661633Y-110872394D01*
X102664471Y-110878845D01*
X102664472Y-110878847D01*
X102710764Y-110984054D01*
X102713605Y-110990510D01*
X102748516Y-111032042D01*
X102792100Y-111083892D01*
X102792103Y-111083894D01*
X102796639Y-111089291D01*
X102904060Y-111160796D01*
X102910788Y-111162898D01*
X102910790Y-111162899D01*
X102965646Y-111180037D01*
X103027233Y-111199278D01*
X103091744Y-111200460D01*
X103149202Y-111201514D01*
X103149204Y-111201514D01*
X103156255Y-111201643D01*
X103163058Y-111199788D01*
X103163060Y-111199788D01*
X103204828Y-111188400D01*
X103280755Y-111167700D01*
X103390724Y-111100179D01*
X103405466Y-111083892D01*
X103472590Y-111009735D01*
X103472590Y-111009734D01*
X103477322Y-111004507D01*
X103524051Y-110908060D01*
X103530512Y-110894724D01*
X103530512Y-110894723D01*
X103533588Y-110888375D01*
X103548285Y-110801015D01*
X103554363Y-110764891D01*
X103554363Y-110764886D01*
X103554997Y-110761120D01*
X103555133Y-110750000D01*
X103536839Y-110622259D01*
X103488250Y-110515394D01*
X103486349Y-110511212D01*
X103486348Y-110511211D01*
X103483428Y-110504788D01*
X103429940Y-110442712D01*
X103403798Y-110412372D01*
X103403797Y-110412371D01*
X103399193Y-110407028D01*
X103393276Y-110403193D01*
X103393274Y-110403191D01*
X103296824Y-110340677D01*
X103290906Y-110336841D01*
X103284150Y-110334821D01*
X103284149Y-110334820D01*
X103241335Y-110322016D01*
X103167273Y-110299866D01*
X103090644Y-110299398D01*
X103045282Y-110299121D01*
X103038231Y-110299078D01*
X103031454Y-110301015D01*
X103031453Y-110301015D01*
X102920935Y-110332601D01*
X102920933Y-110332602D01*
X102914155Y-110334539D01*
X102805019Y-110403399D01*
X102719596Y-110500122D01*
X102664754Y-110616932D01*
X102644901Y-110744440D01*
X101421395Y-110744440D01*
X100981154Y-110304199D01*
X100953377Y-110249682D01*
X100953000Y-110246304D01*
X100953005Y-110245888D01*
X100934711Y-110118147D01*
X100903554Y-110049621D01*
X100884221Y-110007100D01*
X100884220Y-110007099D01*
X100881300Y-110000676D01*
X100797065Y-109902916D01*
X100791148Y-109899081D01*
X100791146Y-109899079D01*
X100694696Y-109836565D01*
X100688778Y-109832729D01*
X100682022Y-109830709D01*
X100682021Y-109830708D01*
X100639207Y-109817904D01*
X100565145Y-109795754D01*
X100488516Y-109795286D01*
X100443154Y-109795009D01*
X100436103Y-109794966D01*
X100429326Y-109796903D01*
X100429325Y-109796903D01*
X100318807Y-109828489D01*
X100318805Y-109828490D01*
X100312027Y-109830427D01*
X100202891Y-109899287D01*
X100117468Y-109996010D01*
X100062626Y-110112820D01*
X100042773Y-110240328D01*
X100059505Y-110368282D01*
X100062343Y-110374733D01*
X100062344Y-110374735D01*
X100066198Y-110383493D01*
X100072328Y-110444371D01*
X100041504Y-110497225D01*
X100028410Y-110507092D01*
X99978946Y-110538302D01*
X99955019Y-110553399D01*
X99907655Y-110607028D01*
X99902571Y-110612785D01*
X99849879Y-110643885D01*
X99788970Y-110638073D01*
X99759594Y-110616456D01*
X99759112Y-110617008D01*
X99753797Y-110612371D01*
X99749193Y-110607028D01*
X99743276Y-110603193D01*
X99743274Y-110603191D01*
X99666131Y-110553191D01*
X99640906Y-110536841D01*
X99634150Y-110534821D01*
X99634149Y-110534820D01*
X99569194Y-110515394D01*
X99517273Y-110499866D01*
X99440644Y-110499398D01*
X99395282Y-110499121D01*
X99388231Y-110499078D01*
X99381454Y-110501015D01*
X99381453Y-110501015D01*
X99270935Y-110532601D01*
X99270933Y-110532602D01*
X99264155Y-110534539D01*
X99258191Y-110538302D01*
X99234264Y-110553399D01*
X99155019Y-110603399D01*
X99069596Y-110700122D01*
X99067536Y-110704511D01*
X99020573Y-110742135D01*
X98959456Y-110745017D01*
X98945873Y-110740060D01*
X98940906Y-110736841D01*
X98934153Y-110734821D01*
X98934150Y-110734820D01*
X98864896Y-110714109D01*
X98817273Y-110699866D01*
X98740644Y-110699398D01*
X98695282Y-110699121D01*
X98688231Y-110699078D01*
X98681454Y-110701015D01*
X98681453Y-110701015D01*
X98570935Y-110732601D01*
X98570933Y-110732602D01*
X98564155Y-110734539D01*
X98455019Y-110803399D01*
X98369596Y-110900122D01*
X98314754Y-111016932D01*
X98294901Y-111144440D01*
X95531429Y-111144440D01*
X95517337Y-111128085D01*
X95503798Y-111112372D01*
X95503797Y-111112371D01*
X95499193Y-111107028D01*
X95493276Y-111103193D01*
X95493274Y-111103191D01*
X95402684Y-111044475D01*
X95390906Y-111036841D01*
X95384150Y-111034821D01*
X95384149Y-111034820D01*
X95323554Y-111016698D01*
X95267273Y-110999866D01*
X95190644Y-110999398D01*
X95145282Y-110999121D01*
X95138231Y-110999078D01*
X95131450Y-111001016D01*
X95131270Y-111001067D01*
X95131115Y-111001061D01*
X95124460Y-111001973D01*
X95124302Y-111000817D01*
X95070124Y-110998876D01*
X95021944Y-110961162D01*
X95005953Y-110907605D01*
X95005335Y-110907645D01*
X95005159Y-110904947D01*
X95005076Y-110904668D01*
X95005086Y-110903826D01*
X95005133Y-110900000D01*
X94986839Y-110772259D01*
X94933428Y-110654788D01*
X94849193Y-110557028D01*
X94843276Y-110553193D01*
X94843274Y-110553191D01*
X94762774Y-110501015D01*
X94740906Y-110486841D01*
X94734150Y-110484821D01*
X94734149Y-110484820D01*
X94691335Y-110472016D01*
X94617273Y-110449866D01*
X94540644Y-110449398D01*
X94495282Y-110449121D01*
X94488231Y-110449078D01*
X94481454Y-110451015D01*
X94481453Y-110451015D01*
X94370935Y-110482601D01*
X94370933Y-110482602D01*
X94364155Y-110484539D01*
X94255019Y-110553399D01*
X94169596Y-110650122D01*
X94114754Y-110766932D01*
X94094901Y-110894440D01*
X94095816Y-110901439D01*
X94095810Y-110901948D01*
X94076193Y-110959904D01*
X94026257Y-110995260D01*
X93996212Y-110999737D01*
X93953473Y-110999476D01*
X93895399Y-110980214D01*
X93859738Y-110930495D01*
X93855287Y-110906911D01*
X93855086Y-110903826D01*
X93855133Y-110900000D01*
X93836839Y-110772259D01*
X93783428Y-110654788D01*
X93699193Y-110557028D01*
X93693276Y-110553193D01*
X93693274Y-110553191D01*
X93612774Y-110501015D01*
X93590906Y-110486841D01*
X93584150Y-110484821D01*
X93584149Y-110484820D01*
X93541335Y-110472016D01*
X93467273Y-110449866D01*
X93390644Y-110449398D01*
X93345282Y-110449121D01*
X93338231Y-110449078D01*
X93331454Y-110451015D01*
X93331453Y-110451015D01*
X93220935Y-110482601D01*
X93220933Y-110482602D01*
X93214155Y-110484539D01*
X93105019Y-110553399D01*
X93019596Y-110650122D01*
X92964754Y-110766932D01*
X92961441Y-110788212D01*
X92947963Y-110874771D01*
X92920328Y-110929360D01*
X92865885Y-110957280D01*
X92849538Y-110958538D01*
X92819371Y-110958354D01*
X92761297Y-110939092D01*
X92725636Y-110889374D01*
X92721975Y-110873390D01*
X92707492Y-110772259D01*
X92654081Y-110654788D01*
X92569846Y-110557028D01*
X92563929Y-110553193D01*
X92563927Y-110553191D01*
X92483427Y-110501015D01*
X92461559Y-110486841D01*
X92454803Y-110484821D01*
X92454802Y-110484820D01*
X92411988Y-110472016D01*
X92337926Y-110449866D01*
X92261297Y-110449398D01*
X92215935Y-110449121D01*
X92208884Y-110449078D01*
X92202107Y-110451015D01*
X92202106Y-110451015D01*
X92091588Y-110482601D01*
X92091586Y-110482602D01*
X92084808Y-110484539D01*
X91975672Y-110553399D01*
X91890249Y-110650122D01*
X91835407Y-110766932D01*
X91826993Y-110820971D01*
X91825869Y-110828192D01*
X91798235Y-110882782D01*
X91743792Y-110910702D01*
X91713415Y-110910875D01*
X91708108Y-110910082D01*
X91701347Y-110908060D01*
X91682418Y-110907944D01*
X91648996Y-110907740D01*
X91590922Y-110888477D01*
X91579597Y-110878746D01*
X91576200Y-110875349D01*
X91573500Y-110872220D01*
X91571305Y-110867731D01*
X91535058Y-110834107D01*
X91532382Y-110831531D01*
X91518603Y-110817752D01*
X91514893Y-110815207D01*
X91510980Y-110811771D01*
X91495935Y-110797815D01*
X91489234Y-110791599D01*
X91478544Y-110787334D01*
X91459228Y-110777020D01*
X91457273Y-110775679D01*
X91457270Y-110775678D01*
X91449734Y-110770508D01*
X91423821Y-110764359D01*
X91409996Y-110759986D01*
X91391748Y-110752706D01*
X91391746Y-110752706D01*
X91385258Y-110750117D01*
X91378965Y-110749500D01*
X91372796Y-110749500D01*
X91349937Y-110746825D01*
X91349707Y-110746770D01*
X91349705Y-110746770D01*
X91340814Y-110744660D01*
X91311893Y-110748596D01*
X91298543Y-110749500D01*
X90903177Y-110749500D01*
X90844986Y-110730593D01*
X90809022Y-110681093D01*
X90805549Y-110634076D01*
X90825515Y-110515394D01*
X90826150Y-110511620D01*
X90826206Y-110507092D01*
X90826220Y-110505888D01*
X90826286Y-110500500D01*
X90807992Y-110372759D01*
X90775372Y-110301015D01*
X90757502Y-110261712D01*
X90757501Y-110261711D01*
X90754581Y-110255288D01*
X90670346Y-110157528D01*
X90664429Y-110153693D01*
X90664427Y-110153691D01*
X90567977Y-110091177D01*
X90562059Y-110087341D01*
X90555303Y-110085321D01*
X90555302Y-110085320D01*
X90512488Y-110072516D01*
X90438426Y-110050366D01*
X90361797Y-110049898D01*
X90316435Y-110049621D01*
X90309384Y-110049578D01*
X90302607Y-110051515D01*
X90302606Y-110051515D01*
X90192088Y-110083101D01*
X90192086Y-110083102D01*
X90185308Y-110085039D01*
X90076172Y-110153899D01*
X90071504Y-110159185D01*
X90071500Y-110159188D01*
X90065011Y-110166535D01*
X90012319Y-110197635D01*
X89990808Y-110200000D01*
X89797352Y-110200000D01*
X89739161Y-110181093D01*
X89727348Y-110171004D01*
X88700784Y-109144440D01*
X99844901Y-109144440D01*
X99845816Y-109151437D01*
X99845816Y-109151438D01*
X99847082Y-109161120D01*
X99861633Y-109272394D01*
X99864471Y-109278845D01*
X99864472Y-109278847D01*
X99898419Y-109355998D01*
X99913605Y-109390510D01*
X99955122Y-109439900D01*
X99992100Y-109483892D01*
X99992103Y-109483894D01*
X99996639Y-109489291D01*
X100104060Y-109560796D01*
X100110788Y-109562898D01*
X100110790Y-109562899D01*
X100165646Y-109580037D01*
X100227233Y-109599278D01*
X100291744Y-109600461D01*
X100349202Y-109601514D01*
X100349204Y-109601514D01*
X100356255Y-109601643D01*
X100363058Y-109599788D01*
X100363060Y-109599788D01*
X100404828Y-109588400D01*
X100480755Y-109567700D01*
X100590724Y-109500179D01*
X100677322Y-109404507D01*
X100733588Y-109288375D01*
X100749099Y-109196179D01*
X100754363Y-109164891D01*
X100754363Y-109164886D01*
X100754997Y-109161120D01*
X100755133Y-109150000D01*
X100736839Y-109022259D01*
X100695293Y-108930884D01*
X109681345Y-108930884D01*
X109682260Y-108937881D01*
X109682260Y-108937882D01*
X109683526Y-108947564D01*
X109698077Y-109058838D01*
X109700915Y-109065289D01*
X109700916Y-109065291D01*
X109743082Y-109161120D01*
X109750049Y-109176954D01*
X109791566Y-109226344D01*
X109828544Y-109270336D01*
X109828547Y-109270338D01*
X109833083Y-109275735D01*
X109940504Y-109347240D01*
X109947232Y-109349342D01*
X109947234Y-109349343D01*
X110002091Y-109366481D01*
X110063677Y-109385722D01*
X110128188Y-109386905D01*
X110185646Y-109387958D01*
X110185648Y-109387958D01*
X110192699Y-109388087D01*
X110199502Y-109386232D01*
X110199504Y-109386232D01*
X110241272Y-109374844D01*
X110317199Y-109354144D01*
X110427168Y-109286623D01*
X110433486Y-109279643D01*
X110509034Y-109196179D01*
X110509034Y-109196178D01*
X110513766Y-109190951D01*
X110570032Y-109074819D01*
X110591441Y-108947564D01*
X110591577Y-108936444D01*
X110573283Y-108808703D01*
X110523459Y-108699121D01*
X110522793Y-108697656D01*
X110522792Y-108697655D01*
X110519872Y-108691232D01*
X110435637Y-108593472D01*
X110429720Y-108589637D01*
X110429718Y-108589635D01*
X110333268Y-108527121D01*
X110327350Y-108523285D01*
X110320594Y-108521265D01*
X110320593Y-108521264D01*
X110277779Y-108508460D01*
X110203717Y-108486310D01*
X110127088Y-108485842D01*
X110081726Y-108485565D01*
X110074675Y-108485522D01*
X110067898Y-108487459D01*
X110067897Y-108487459D01*
X109957379Y-108519045D01*
X109957377Y-108519046D01*
X109950599Y-108520983D01*
X109841463Y-108589843D01*
X109756040Y-108686566D01*
X109701198Y-108803376D01*
X109681345Y-108930884D01*
X100695293Y-108930884D01*
X100683428Y-108904788D01*
X100599193Y-108807028D01*
X100593276Y-108803193D01*
X100593274Y-108803191D01*
X100496824Y-108740677D01*
X100490906Y-108736841D01*
X100484150Y-108734821D01*
X100484149Y-108734820D01*
X100441335Y-108722016D01*
X100367273Y-108699866D01*
X100290644Y-108699398D01*
X100245282Y-108699121D01*
X100238231Y-108699078D01*
X100231454Y-108701015D01*
X100231453Y-108701015D01*
X100120935Y-108732601D01*
X100120933Y-108732602D01*
X100114155Y-108734539D01*
X100005019Y-108803399D01*
X99919596Y-108900122D01*
X99864754Y-109016932D01*
X99844901Y-109144440D01*
X88700784Y-109144440D01*
X87279496Y-107723153D01*
X87251719Y-107668636D01*
X87250500Y-107653149D01*
X87250500Y-106819748D01*
X89199500Y-106819748D01*
X89211133Y-106878231D01*
X89255448Y-106944552D01*
X89321769Y-106988867D01*
X89331332Y-106990769D01*
X89331334Y-106990770D01*
X89354005Y-106995279D01*
X89380252Y-107000500D01*
X97419748Y-107000500D01*
X97445995Y-106995279D01*
X97468666Y-106990770D01*
X97468668Y-106990769D01*
X97478231Y-106988867D01*
X97544552Y-106944552D01*
X97588867Y-106878231D01*
X97600500Y-106819748D01*
X97600500Y-106759626D01*
X109794901Y-106759626D01*
X109795816Y-106766623D01*
X109795816Y-106766624D01*
X109797082Y-106776306D01*
X109811633Y-106887580D01*
X109814471Y-106894031D01*
X109814472Y-106894033D01*
X109856200Y-106988867D01*
X109863605Y-107005696D01*
X109905122Y-107055087D01*
X109942100Y-107099078D01*
X109942103Y-107099080D01*
X109946639Y-107104477D01*
X110054060Y-107175982D01*
X110060788Y-107178084D01*
X110060790Y-107178085D01*
X110088193Y-107186646D01*
X110177233Y-107214464D01*
X110241744Y-107215647D01*
X110299202Y-107216700D01*
X110299204Y-107216700D01*
X110306255Y-107216829D01*
X110313058Y-107214974D01*
X110313060Y-107214974D01*
X110354828Y-107203586D01*
X110430755Y-107182886D01*
X110540724Y-107115365D01*
X110627322Y-107019693D01*
X110683588Y-106903561D01*
X110696887Y-106824512D01*
X110704363Y-106780077D01*
X110704363Y-106780072D01*
X110704997Y-106776306D01*
X110705133Y-106765186D01*
X110686839Y-106637445D01*
X110668464Y-106597032D01*
X110636349Y-106526398D01*
X110636348Y-106526397D01*
X110633428Y-106519974D01*
X110549193Y-106422214D01*
X110543276Y-106418379D01*
X110543274Y-106418377D01*
X110446824Y-106355863D01*
X110440906Y-106352027D01*
X110434150Y-106350007D01*
X110434149Y-106350006D01*
X110391335Y-106337202D01*
X110317273Y-106315052D01*
X110240644Y-106314584D01*
X110195282Y-106314307D01*
X110188231Y-106314264D01*
X110181454Y-106316201D01*
X110181453Y-106316201D01*
X110070935Y-106347787D01*
X110070933Y-106347788D01*
X110064155Y-106349725D01*
X109955019Y-106418585D01*
X109869596Y-106515308D01*
X109814754Y-106632118D01*
X109794901Y-106759626D01*
X97600500Y-106759626D01*
X97600500Y-100544940D01*
X100557288Y-100544940D01*
X100574020Y-100672894D01*
X100576858Y-100679345D01*
X100576859Y-100679347D01*
X100623151Y-100784554D01*
X100625992Y-100791010D01*
X100657510Y-100828505D01*
X100704487Y-100884392D01*
X100704490Y-100884394D01*
X100709026Y-100889791D01*
X100816447Y-100961296D01*
X100823175Y-100963398D01*
X100823177Y-100963399D01*
X100866363Y-100976891D01*
X100939620Y-100999778D01*
X101004131Y-101000960D01*
X101061589Y-101002014D01*
X101061591Y-101002014D01*
X101068642Y-101002143D01*
X101075445Y-101000288D01*
X101075447Y-101000288D01*
X101117215Y-100988900D01*
X101193142Y-100968200D01*
X101248699Y-100934088D01*
X101308181Y-100919752D01*
X101364730Y-100943118D01*
X101396744Y-100995259D01*
X101399500Y-101018454D01*
X101399500Y-102346492D01*
X101399197Y-102350617D01*
X101397575Y-102355342D01*
X101398227Y-102372712D01*
X101399430Y-102404761D01*
X101399500Y-102408474D01*
X101399500Y-102427948D01*
X101400325Y-102432378D01*
X101400661Y-102437571D01*
X101401774Y-102467208D01*
X101405380Y-102475602D01*
X101405381Y-102475605D01*
X101406317Y-102477783D01*
X101412683Y-102498734D01*
X101414791Y-102510053D01*
X101419588Y-102517835D01*
X101428768Y-102532728D01*
X101435451Y-102545595D01*
X101445964Y-102570063D01*
X101449978Y-102574949D01*
X101454342Y-102579313D01*
X101468613Y-102597368D01*
X101473532Y-102605348D01*
X101496769Y-102623018D01*
X101506839Y-102631810D01*
X104149680Y-105274651D01*
X104152380Y-105277780D01*
X104154575Y-105282269D01*
X104161278Y-105288487D01*
X104190822Y-105315893D01*
X104193498Y-105318469D01*
X104207277Y-105332248D01*
X104210987Y-105334793D01*
X104214900Y-105338229D01*
X104236646Y-105358401D01*
X104245132Y-105361787D01*
X104245134Y-105361788D01*
X104247337Y-105362667D01*
X104266648Y-105372978D01*
X104268607Y-105374322D01*
X104268610Y-105374323D01*
X104276146Y-105379493D01*
X104285038Y-105381603D01*
X104285040Y-105381604D01*
X104302066Y-105385644D01*
X104315885Y-105390014D01*
X104340622Y-105399883D01*
X104346915Y-105400500D01*
X104353085Y-105400500D01*
X104375941Y-105403175D01*
X104385066Y-105405340D01*
X104413988Y-105401404D01*
X104427337Y-105400500D01*
X105409401Y-105400500D01*
X105467592Y-105419407D01*
X105500017Y-105459629D01*
X105513605Y-105490510D01*
X105555122Y-105539901D01*
X105592100Y-105583892D01*
X105592103Y-105583894D01*
X105596639Y-105589291D01*
X105704060Y-105660796D01*
X105710788Y-105662898D01*
X105710790Y-105662899D01*
X105765646Y-105680037D01*
X105827233Y-105699278D01*
X105891744Y-105700461D01*
X105949202Y-105701514D01*
X105949204Y-105701514D01*
X105956255Y-105701643D01*
X105963058Y-105699788D01*
X105963060Y-105699788D01*
X106004828Y-105688400D01*
X106080755Y-105667700D01*
X106118638Y-105644440D01*
X109844901Y-105644440D01*
X109845816Y-105651437D01*
X109845816Y-105651438D01*
X109847040Y-105660796D01*
X109861633Y-105772394D01*
X109864471Y-105778845D01*
X109864472Y-105778847D01*
X109871458Y-105794724D01*
X109913605Y-105890510D01*
X109955122Y-105939900D01*
X109992100Y-105983892D01*
X109992103Y-105983894D01*
X109996639Y-105989291D01*
X110104060Y-106060796D01*
X110110788Y-106062898D01*
X110110790Y-106062899D01*
X110165646Y-106080037D01*
X110227233Y-106099278D01*
X110291744Y-106100460D01*
X110349202Y-106101514D01*
X110349204Y-106101514D01*
X110356255Y-106101643D01*
X110363058Y-106099788D01*
X110363060Y-106099788D01*
X110404828Y-106088400D01*
X110480755Y-106067700D01*
X110590724Y-106000179D01*
X110677322Y-105904507D01*
X110733588Y-105788375D01*
X110748556Y-105699407D01*
X110754363Y-105664891D01*
X110754363Y-105664886D01*
X110754997Y-105661120D01*
X110755133Y-105650000D01*
X110736839Y-105522259D01*
X110683428Y-105404788D01*
X110599193Y-105307028D01*
X110593276Y-105303193D01*
X110593274Y-105303191D01*
X110522469Y-105257299D01*
X110490906Y-105236841D01*
X110484150Y-105234821D01*
X110484149Y-105234820D01*
X110441335Y-105222016D01*
X110367273Y-105199866D01*
X110290644Y-105199398D01*
X110245282Y-105199121D01*
X110238231Y-105199078D01*
X110231454Y-105201015D01*
X110231453Y-105201015D01*
X110120935Y-105232601D01*
X110120933Y-105232602D01*
X110114155Y-105234539D01*
X110005019Y-105303399D01*
X109919596Y-105400122D01*
X109864754Y-105516932D01*
X109844901Y-105644440D01*
X106118638Y-105644440D01*
X106190724Y-105600179D01*
X106261254Y-105522259D01*
X106272590Y-105509735D01*
X106272590Y-105509734D01*
X106277322Y-105504507D01*
X106318553Y-105419407D01*
X106330512Y-105394724D01*
X106330512Y-105394723D01*
X106333588Y-105388375D01*
X106345349Y-105318469D01*
X106354363Y-105264891D01*
X106354363Y-105264886D01*
X106354997Y-105261120D01*
X106355133Y-105250000D01*
X106336839Y-105122259D01*
X106283428Y-105004788D01*
X106249112Y-104964963D01*
X106225451Y-104908539D01*
X106239474Y-104848982D01*
X106250714Y-104833903D01*
X106272590Y-104809735D01*
X106272590Y-104809734D01*
X106277322Y-104804507D01*
X106333588Y-104688375D01*
X106348556Y-104599407D01*
X106354363Y-104564891D01*
X106354363Y-104564886D01*
X106354997Y-104561120D01*
X106355133Y-104550000D01*
X106336839Y-104422259D01*
X106283428Y-104304788D01*
X106208389Y-104217700D01*
X106203798Y-104212372D01*
X106203797Y-104212371D01*
X106199193Y-104207028D01*
X106193276Y-104203193D01*
X106193274Y-104203191D01*
X106117177Y-104153869D01*
X106102630Y-104144440D01*
X109844901Y-104144440D01*
X109845816Y-104151437D01*
X109845816Y-104151438D01*
X109847082Y-104161120D01*
X109861633Y-104272394D01*
X109864471Y-104278845D01*
X109864472Y-104278847D01*
X109903985Y-104368647D01*
X109913605Y-104390510D01*
X109955122Y-104439900D01*
X109992100Y-104483892D01*
X109992103Y-104483894D01*
X109996639Y-104489291D01*
X110104060Y-104560796D01*
X110110788Y-104562898D01*
X110110790Y-104562899D01*
X110165647Y-104580037D01*
X110227233Y-104599278D01*
X110291744Y-104600461D01*
X110349202Y-104601514D01*
X110349204Y-104601514D01*
X110356255Y-104601643D01*
X110363058Y-104599788D01*
X110363060Y-104599788D01*
X110404828Y-104588400D01*
X110480755Y-104567700D01*
X110590724Y-104500179D01*
X110677322Y-104404507D01*
X110721453Y-104313422D01*
X110730512Y-104294724D01*
X110730512Y-104294723D01*
X110733588Y-104288375D01*
X110747919Y-104203191D01*
X110754363Y-104164891D01*
X110754363Y-104164886D01*
X110754997Y-104161120D01*
X110755133Y-104150000D01*
X110736839Y-104022259D01*
X110691433Y-103922394D01*
X110686349Y-103911212D01*
X110686348Y-103911211D01*
X110683428Y-103904788D01*
X110599193Y-103807028D01*
X110593276Y-103803193D01*
X110593274Y-103803191D01*
X110496824Y-103740677D01*
X110490906Y-103736841D01*
X110484150Y-103734821D01*
X110484149Y-103734820D01*
X110441335Y-103722016D01*
X110367273Y-103699866D01*
X110290644Y-103699398D01*
X110245282Y-103699121D01*
X110238231Y-103699078D01*
X110231454Y-103701015D01*
X110231453Y-103701015D01*
X110120935Y-103732601D01*
X110120933Y-103732602D01*
X110114155Y-103734539D01*
X110005019Y-103803399D01*
X109919596Y-103900122D01*
X109864754Y-104016932D01*
X109844901Y-104144440D01*
X106102630Y-104144440D01*
X106090906Y-104136841D01*
X106084150Y-104134821D01*
X106084149Y-104134820D01*
X106041335Y-104122016D01*
X105967273Y-104099866D01*
X105890644Y-104099398D01*
X105845282Y-104099121D01*
X105838231Y-104099078D01*
X105831454Y-104101015D01*
X105831453Y-104101015D01*
X105720935Y-104132601D01*
X105720933Y-104132602D01*
X105714155Y-104134539D01*
X105605019Y-104203399D01*
X105603503Y-104200996D01*
X105558330Y-104219607D01*
X105547207Y-104216914D01*
X105549343Y-104249965D01*
X105527613Y-104291045D01*
X105519596Y-104300122D01*
X105513352Y-104313422D01*
X105499665Y-104342574D01*
X105457820Y-104387213D01*
X105410050Y-104399500D01*
X105335106Y-104399500D01*
X105276915Y-104380593D01*
X105240951Y-104331093D01*
X105240951Y-104269907D01*
X105276915Y-104220407D01*
X105283305Y-104216134D01*
X105289433Y-104212372D01*
X105322642Y-104191981D01*
X105384715Y-104153869D01*
X105384717Y-104153867D01*
X105390724Y-104150179D01*
X105392226Y-104148519D01*
X105447026Y-104126714D01*
X105456959Y-104129246D01*
X105454529Y-104097604D01*
X105468676Y-104065537D01*
X105472589Y-104059735D01*
X105477322Y-104054507D01*
X105487232Y-104034054D01*
X105530512Y-103944724D01*
X105530512Y-103944723D01*
X105533588Y-103938375D01*
X105554997Y-103811120D01*
X105555133Y-103800000D01*
X105536839Y-103672259D01*
X105483428Y-103554788D01*
X105399193Y-103457028D01*
X105393276Y-103453193D01*
X105393274Y-103453191D01*
X105296824Y-103390677D01*
X105290906Y-103386841D01*
X105284150Y-103384821D01*
X105284149Y-103384820D01*
X105241335Y-103372016D01*
X105167273Y-103349866D01*
X105090644Y-103349398D01*
X105045282Y-103349121D01*
X105038231Y-103349078D01*
X105031454Y-103351015D01*
X105031453Y-103351015D01*
X104920935Y-103382601D01*
X104920933Y-103382602D01*
X104914155Y-103384539D01*
X104805019Y-103453399D01*
X104719596Y-103550122D01*
X104664754Y-103666932D01*
X104644901Y-103794440D01*
X104645816Y-103801437D01*
X104645816Y-103801438D01*
X104646764Y-103808684D01*
X104661633Y-103922394D01*
X104664471Y-103928845D01*
X104664472Y-103928847D01*
X104703230Y-104016932D01*
X104713605Y-104040510D01*
X104755122Y-104089901D01*
X104792100Y-104133892D01*
X104792103Y-104133894D01*
X104796639Y-104139291D01*
X104904060Y-104210796D01*
X104908063Y-104212047D01*
X104951494Y-104253261D01*
X104962644Y-104313422D01*
X104936303Y-104368647D01*
X104882532Y-104397842D01*
X104864491Y-104399500D01*
X104731166Y-104399500D01*
X104672975Y-104380593D01*
X104661162Y-104370504D01*
X103951207Y-103660549D01*
X103175176Y-102884519D01*
X103147399Y-102830002D01*
X103156970Y-102769570D01*
X103200235Y-102726305D01*
X103260667Y-102716734D01*
X103274702Y-102720019D01*
X103388120Y-102755453D01*
X103388122Y-102755453D01*
X103394852Y-102757556D01*
X103459363Y-102758738D01*
X103516821Y-102759792D01*
X103516823Y-102759792D01*
X103523874Y-102759921D01*
X103530677Y-102758066D01*
X103530679Y-102758066D01*
X103572447Y-102746678D01*
X103648374Y-102725978D01*
X103667273Y-102714374D01*
X103729505Y-102676164D01*
X103788988Y-102661828D01*
X103845536Y-102685194D01*
X103857077Y-102696816D01*
X103857083Y-102696822D01*
X103861622Y-102702221D01*
X103969043Y-102773726D01*
X103975771Y-102775828D01*
X103975773Y-102775829D01*
X104000164Y-102783449D01*
X104092216Y-102812208D01*
X104156727Y-102813391D01*
X104214185Y-102814444D01*
X104214187Y-102814444D01*
X104221238Y-102814573D01*
X104287319Y-102796557D01*
X104348433Y-102799492D01*
X104396151Y-102837790D01*
X104403975Y-102852199D01*
X104414931Y-102877097D01*
X104418665Y-102885584D01*
X104438966Y-102909735D01*
X104497160Y-102978966D01*
X104497163Y-102978968D01*
X104501699Y-102984365D01*
X104609120Y-103055870D01*
X104615848Y-103057972D01*
X104615850Y-103057973D01*
X104653595Y-103069765D01*
X104732293Y-103094352D01*
X104796804Y-103095534D01*
X104854262Y-103096588D01*
X104854264Y-103096588D01*
X104861315Y-103096717D01*
X104868118Y-103094862D01*
X104868120Y-103094862D01*
X104943784Y-103074233D01*
X104985815Y-103062774D01*
X105095784Y-102995253D01*
X105105639Y-102984365D01*
X105177650Y-102904809D01*
X105177650Y-102904808D01*
X105182382Y-102899581D01*
X105238648Y-102783449D01*
X105255178Y-102685194D01*
X105259423Y-102659965D01*
X105259423Y-102659960D01*
X105260057Y-102656194D01*
X105260193Y-102645074D01*
X105260102Y-102644440D01*
X109894901Y-102644440D01*
X109911633Y-102772394D01*
X109914471Y-102778845D01*
X109914472Y-102778847D01*
X109960764Y-102884054D01*
X109963605Y-102890510D01*
X110005122Y-102939900D01*
X110042100Y-102983892D01*
X110042103Y-102983894D01*
X110046639Y-102989291D01*
X110154060Y-103060796D01*
X110160788Y-103062898D01*
X110160790Y-103062899D01*
X110196656Y-103074104D01*
X110277233Y-103099278D01*
X110341744Y-103100461D01*
X110399202Y-103101514D01*
X110399204Y-103101514D01*
X110406255Y-103101643D01*
X110413058Y-103099788D01*
X110413060Y-103099788D01*
X110454828Y-103088400D01*
X110530755Y-103067700D01*
X110640724Y-103000179D01*
X110659925Y-102978966D01*
X110722590Y-102909735D01*
X110722590Y-102909734D01*
X110727322Y-102904507D01*
X110783588Y-102788375D01*
X110802466Y-102676164D01*
X110804363Y-102664891D01*
X110804363Y-102664886D01*
X110804997Y-102661120D01*
X110805133Y-102650000D01*
X110786839Y-102522259D01*
X110743958Y-102427948D01*
X110736349Y-102411212D01*
X110736348Y-102411211D01*
X110733428Y-102404788D01*
X110680395Y-102343240D01*
X110653798Y-102312372D01*
X110653797Y-102312371D01*
X110649193Y-102307028D01*
X110643276Y-102303193D01*
X110643274Y-102303191D01*
X110546824Y-102240677D01*
X110540906Y-102236841D01*
X110534150Y-102234821D01*
X110534149Y-102234820D01*
X110491335Y-102222016D01*
X110417273Y-102199866D01*
X110340644Y-102199398D01*
X110295282Y-102199121D01*
X110288231Y-102199078D01*
X110281454Y-102201015D01*
X110281453Y-102201015D01*
X110170935Y-102232601D01*
X110170933Y-102232602D01*
X110164155Y-102234539D01*
X110055019Y-102303399D01*
X109969596Y-102400122D01*
X109914754Y-102516932D01*
X109894901Y-102644440D01*
X105260102Y-102644440D01*
X105241899Y-102517333D01*
X105192404Y-102408474D01*
X105191409Y-102406286D01*
X105191408Y-102406285D01*
X105188488Y-102399862D01*
X105113102Y-102312372D01*
X105108858Y-102307446D01*
X105108857Y-102307445D01*
X105104253Y-102302102D01*
X105098336Y-102298267D01*
X105098334Y-102298265D01*
X105001884Y-102235751D01*
X104995966Y-102231915D01*
X104989210Y-102229895D01*
X104989209Y-102229894D01*
X104933613Y-102213267D01*
X104872333Y-102194940D01*
X104795704Y-102194472D01*
X104750342Y-102194195D01*
X104743291Y-102194152D01*
X104736515Y-102196089D01*
X104736512Y-102196089D01*
X104683598Y-102211212D01*
X104622451Y-102209023D01*
X104574270Y-102171311D01*
X104566271Y-102156999D01*
X104551332Y-102124142D01*
X104551331Y-102124141D01*
X104548411Y-102117718D01*
X104464176Y-102019958D01*
X104458259Y-102016123D01*
X104458257Y-102016121D01*
X104361809Y-101953608D01*
X104355889Y-101949771D01*
X104355676Y-101949707D01*
X104313082Y-101910266D01*
X104300500Y-101861966D01*
X104300500Y-101144440D01*
X109844901Y-101144440D01*
X109845816Y-101151437D01*
X109845816Y-101151438D01*
X109846713Y-101158294D01*
X109861633Y-101272394D01*
X109864471Y-101278845D01*
X109864472Y-101278847D01*
X109876775Y-101306808D01*
X109913605Y-101390510D01*
X109939923Y-101421819D01*
X109992100Y-101483892D01*
X109992103Y-101483894D01*
X109996639Y-101489291D01*
X110104060Y-101560796D01*
X110110788Y-101562898D01*
X110110790Y-101562899D01*
X110153029Y-101576095D01*
X110227233Y-101599278D01*
X110291744Y-101600460D01*
X110349202Y-101601514D01*
X110349204Y-101601514D01*
X110356255Y-101601643D01*
X110363058Y-101599788D01*
X110363060Y-101599788D01*
X110404828Y-101588400D01*
X110480755Y-101567700D01*
X110590724Y-101500179D01*
X110677322Y-101404507D01*
X110733588Y-101288375D01*
X110753607Y-101169383D01*
X110754363Y-101164891D01*
X110754363Y-101164886D01*
X110754997Y-101161120D01*
X110755133Y-101150000D01*
X110736839Y-101022259D01*
X110712260Y-100968200D01*
X110686349Y-100911212D01*
X110686348Y-100911211D01*
X110683428Y-100904788D01*
X110611863Y-100821732D01*
X110603798Y-100812372D01*
X110603797Y-100812371D01*
X110599193Y-100807028D01*
X110593276Y-100803193D01*
X110593274Y-100803191D01*
X110522813Y-100757522D01*
X110490906Y-100736841D01*
X110484150Y-100734821D01*
X110484149Y-100734820D01*
X110441335Y-100722016D01*
X110367273Y-100699866D01*
X110290644Y-100699398D01*
X110245282Y-100699121D01*
X110238231Y-100699078D01*
X110231454Y-100701015D01*
X110231453Y-100701015D01*
X110120935Y-100732601D01*
X110120933Y-100732602D01*
X110114155Y-100734539D01*
X110005019Y-100803399D01*
X109919596Y-100900122D01*
X109864754Y-101016932D01*
X109844901Y-101144440D01*
X104300500Y-101144440D01*
X104300500Y-100731165D01*
X104319407Y-100672974D01*
X104329496Y-100661161D01*
X104961161Y-100029496D01*
X105015678Y-100001719D01*
X105031165Y-100000500D01*
X105426918Y-100000500D01*
X105485109Y-100019407D01*
X105521073Y-100068907D01*
X105521073Y-100130093D01*
X105501123Y-100165033D01*
X105435501Y-100239336D01*
X105380659Y-100356146D01*
X105360806Y-100483654D01*
X105361721Y-100490651D01*
X105361721Y-100490652D01*
X105362987Y-100500334D01*
X105377538Y-100611608D01*
X105380376Y-100618059D01*
X105380377Y-100618061D01*
X105417262Y-100701888D01*
X105429510Y-100729724D01*
X105469298Y-100777058D01*
X105508005Y-100823106D01*
X105508008Y-100823108D01*
X105512544Y-100828505D01*
X105619965Y-100900010D01*
X105626693Y-100902112D01*
X105626695Y-100902113D01*
X105672615Y-100916459D01*
X105743138Y-100938492D01*
X105807649Y-100939674D01*
X105865107Y-100940728D01*
X105865109Y-100940728D01*
X105872160Y-100940857D01*
X105878963Y-100939002D01*
X105878965Y-100939002D01*
X105949571Y-100919752D01*
X105996660Y-100906914D01*
X106106629Y-100839393D01*
X106131087Y-100812372D01*
X106188495Y-100748949D01*
X106188495Y-100748948D01*
X106193227Y-100743721D01*
X106249493Y-100627589D01*
X106270902Y-100500334D01*
X106271038Y-100489214D01*
X106252744Y-100361473D01*
X106254352Y-100361243D01*
X106255918Y-100308519D01*
X106297322Y-100257528D01*
X106384711Y-100203871D01*
X106390724Y-100200179D01*
X106454163Y-100130093D01*
X106472590Y-100109735D01*
X106472590Y-100109734D01*
X106477322Y-100104507D01*
X106527123Y-100001719D01*
X106530512Y-99994724D01*
X106530512Y-99994723D01*
X106533588Y-99988375D01*
X106554997Y-99861120D01*
X106555133Y-99850000D01*
X106536839Y-99722259D01*
X106483428Y-99604788D01*
X106467898Y-99586764D01*
X106449332Y-99565217D01*
X106425671Y-99508791D01*
X106439695Y-99449235D01*
X106450933Y-99434158D01*
X106472590Y-99410232D01*
X106472590Y-99410231D01*
X106477322Y-99405004D01*
X106533588Y-99288872D01*
X106546182Y-99214011D01*
X106554363Y-99165388D01*
X106554363Y-99165383D01*
X106554997Y-99161617D01*
X106555133Y-99150497D01*
X106536839Y-99022756D01*
X106513165Y-98970687D01*
X106486349Y-98911709D01*
X106486348Y-98911708D01*
X106483428Y-98905285D01*
X106418483Y-98829912D01*
X106403798Y-98812869D01*
X106403797Y-98812868D01*
X106399193Y-98807525D01*
X106393274Y-98803689D01*
X106387959Y-98799052D01*
X106389326Y-98797486D01*
X106357011Y-98757654D01*
X106353755Y-98696555D01*
X106360310Y-98678928D01*
X106394118Y-98609148D01*
X106394119Y-98609145D01*
X106397195Y-98602796D01*
X106408203Y-98537362D01*
X106417970Y-98479312D01*
X106417970Y-98479307D01*
X106418604Y-98475541D01*
X106418740Y-98464421D01*
X106400446Y-98336680D01*
X106364101Y-98256743D01*
X106349956Y-98225633D01*
X106349955Y-98225632D01*
X106347035Y-98219209D01*
X106277610Y-98138637D01*
X106267405Y-98126793D01*
X106267404Y-98126792D01*
X106262800Y-98121449D01*
X106256883Y-98117614D01*
X106256881Y-98117612D01*
X106160431Y-98055098D01*
X106154513Y-98051262D01*
X106147757Y-98049242D01*
X106147756Y-98049241D01*
X106055389Y-98021617D01*
X106030880Y-98014287D01*
X105954251Y-98013819D01*
X105908889Y-98013542D01*
X105901838Y-98013499D01*
X105895061Y-98015436D01*
X105895060Y-98015436D01*
X105784542Y-98047022D01*
X105784540Y-98047023D01*
X105777762Y-98048960D01*
X105668626Y-98117820D01*
X105583203Y-98214543D01*
X105528361Y-98331353D01*
X105508508Y-98458861D01*
X105509423Y-98465858D01*
X105509423Y-98465859D01*
X105512917Y-98492578D01*
X105525240Y-98586815D01*
X105528078Y-98593266D01*
X105528079Y-98593268D01*
X105573526Y-98696555D01*
X105577212Y-98704931D01*
X105612909Y-98747398D01*
X105655707Y-98798313D01*
X105655710Y-98798315D01*
X105660246Y-98803712D01*
X105669091Y-98809600D01*
X105669117Y-98809617D01*
X105670970Y-98811959D01*
X105671376Y-98812322D01*
X105671313Y-98812393D01*
X105707081Y-98857601D01*
X105709590Y-98918735D01*
X105703875Y-98934102D01*
X105699898Y-98942573D01*
X105658053Y-98987212D01*
X105610283Y-98999500D01*
X104753508Y-98999500D01*
X104749383Y-98999197D01*
X104744658Y-98997575D01*
X104695852Y-98999407D01*
X104695239Y-98999430D01*
X104691526Y-98999500D01*
X104672052Y-98999500D01*
X104667622Y-99000325D01*
X104662429Y-99000661D01*
X104646398Y-99001263D01*
X104641925Y-99001431D01*
X104632792Y-99001774D01*
X104624398Y-99005380D01*
X104624395Y-99005381D01*
X104622217Y-99006317D01*
X104601266Y-99012683D01*
X104589947Y-99014791D01*
X104577025Y-99022756D01*
X104567272Y-99028768D01*
X104554404Y-99035452D01*
X104536358Y-99043205D01*
X104536357Y-99043206D01*
X104529937Y-99045964D01*
X104525051Y-99049978D01*
X104520687Y-99054342D01*
X104502632Y-99068613D01*
X104494652Y-99073532D01*
X104476982Y-99096769D01*
X104468190Y-99106839D01*
X103298321Y-100276708D01*
X103243804Y-100304485D01*
X103183372Y-100294914D01*
X103153318Y-100271327D01*
X103081303Y-100187749D01*
X103081302Y-100187748D01*
X103076698Y-100182405D01*
X103070781Y-100178570D01*
X103070779Y-100178568D01*
X102974329Y-100116054D01*
X102968411Y-100112218D01*
X102961655Y-100110198D01*
X102961654Y-100110197D01*
X102918840Y-100097393D01*
X102844778Y-100075243D01*
X102834854Y-100075182D01*
X102821762Y-100075102D01*
X102763689Y-100055839D01*
X102728029Y-100006119D01*
X102724369Y-99990139D01*
X102713884Y-99916929D01*
X102712884Y-99909945D01*
X102659473Y-99792474D01*
X102580989Y-99701388D01*
X102579843Y-99700058D01*
X102579842Y-99700057D01*
X102575238Y-99694714D01*
X102569321Y-99690879D01*
X102569319Y-99690877D01*
X102472869Y-99628363D01*
X102466951Y-99624527D01*
X102460195Y-99622507D01*
X102460194Y-99622506D01*
X102400950Y-99604788D01*
X102343318Y-99587552D01*
X102266689Y-99587084D01*
X102221327Y-99586807D01*
X102214276Y-99586764D01*
X102207499Y-99588701D01*
X102207498Y-99588701D01*
X102096980Y-99620287D01*
X102096978Y-99620288D01*
X102090200Y-99622225D01*
X101981064Y-99691085D01*
X101976399Y-99696367D01*
X101976392Y-99696373D01*
X101937621Y-99740273D01*
X101884929Y-99771373D01*
X101824020Y-99765561D01*
X101809579Y-99757818D01*
X101776443Y-99736341D01*
X101769687Y-99734321D01*
X101769686Y-99734320D01*
X101707884Y-99715837D01*
X101652810Y-99699366D01*
X101576181Y-99698898D01*
X101530819Y-99698621D01*
X101523768Y-99698578D01*
X101516991Y-99700515D01*
X101516990Y-99700515D01*
X101406472Y-99732101D01*
X101406470Y-99732102D01*
X101399692Y-99734039D01*
X101290556Y-99802899D01*
X101205133Y-99899622D01*
X101150291Y-100016432D01*
X101149206Y-100023403D01*
X101147146Y-100030140D01*
X101112053Y-100080261D01*
X101051867Y-100100196D01*
X100957670Y-100099621D01*
X100950618Y-100099578D01*
X100943841Y-100101515D01*
X100943840Y-100101515D01*
X100833322Y-100133101D01*
X100833320Y-100133102D01*
X100826542Y-100135039D01*
X100717406Y-100203899D01*
X100631983Y-100300622D01*
X100577141Y-100417432D01*
X100557288Y-100544940D01*
X97600500Y-100544940D01*
X97600500Y-98794440D01*
X103344901Y-98794440D01*
X103345816Y-98801437D01*
X103345816Y-98801438D01*
X103350167Y-98834709D01*
X103361633Y-98922394D01*
X103364471Y-98928845D01*
X103364472Y-98928847D01*
X103410764Y-99034054D01*
X103413605Y-99040510D01*
X103448999Y-99082616D01*
X103492100Y-99133892D01*
X103492103Y-99133894D01*
X103496639Y-99139291D01*
X103604060Y-99210796D01*
X103610788Y-99212898D01*
X103610790Y-99212899D01*
X103655897Y-99226991D01*
X103727233Y-99249278D01*
X103791744Y-99250461D01*
X103849202Y-99251514D01*
X103849204Y-99251514D01*
X103856255Y-99251643D01*
X103863058Y-99249788D01*
X103863060Y-99249788D01*
X103904828Y-99238400D01*
X103980755Y-99217700D01*
X104090724Y-99150179D01*
X104105466Y-99133892D01*
X104172590Y-99059735D01*
X104172590Y-99059734D01*
X104177322Y-99054507D01*
X104222725Y-98960796D01*
X104230512Y-98944724D01*
X104230512Y-98944723D01*
X104233588Y-98938375D01*
X104246416Y-98862127D01*
X104254363Y-98814891D01*
X104254363Y-98814886D01*
X104254997Y-98811120D01*
X104255133Y-98800000D01*
X104236839Y-98672259D01*
X104215621Y-98625592D01*
X104186349Y-98561212D01*
X104186348Y-98561211D01*
X104183428Y-98554788D01*
X104115145Y-98475541D01*
X104103798Y-98462372D01*
X104103797Y-98462371D01*
X104099193Y-98457028D01*
X104093276Y-98453193D01*
X104093274Y-98453191D01*
X104010094Y-98399278D01*
X103990906Y-98386841D01*
X103984150Y-98384821D01*
X103984149Y-98384820D01*
X103941335Y-98372016D01*
X103867273Y-98349866D01*
X103790644Y-98349398D01*
X103745282Y-98349121D01*
X103738231Y-98349078D01*
X103731454Y-98351015D01*
X103731453Y-98351015D01*
X103620935Y-98382601D01*
X103620933Y-98382602D01*
X103614155Y-98384539D01*
X103505019Y-98453399D01*
X103419596Y-98550122D01*
X103364754Y-98666932D01*
X103344901Y-98794440D01*
X97600500Y-98794440D01*
X97600500Y-98780252D01*
X97595028Y-98752741D01*
X97590770Y-98731334D01*
X97590769Y-98731332D01*
X97588867Y-98721769D01*
X97544552Y-98655448D01*
X97478231Y-98611133D01*
X97468668Y-98609231D01*
X97468666Y-98609230D01*
X97445995Y-98604721D01*
X97419748Y-98599500D01*
X89380252Y-98599500D01*
X89354005Y-98604721D01*
X89331334Y-98609230D01*
X89331332Y-98609231D01*
X89321769Y-98611133D01*
X89263558Y-98650029D01*
X89257226Y-98654260D01*
X89255197Y-98654832D01*
X89254260Y-98657226D01*
X89211133Y-98721769D01*
X89209231Y-98731332D01*
X89209230Y-98731334D01*
X89204972Y-98752741D01*
X89199500Y-98780252D01*
X89199500Y-106819748D01*
X87250500Y-106819748D01*
X87250500Y-99565479D01*
X87269407Y-99507288D01*
X87279496Y-99495475D01*
X87895975Y-98878996D01*
X87950492Y-98851219D01*
X87965979Y-98850000D01*
X88606182Y-98850000D01*
X88610307Y-98850303D01*
X88615032Y-98851925D01*
X88664451Y-98850070D01*
X88668164Y-98850000D01*
X88687638Y-98850000D01*
X88692068Y-98849175D01*
X88697261Y-98848839D01*
X88713292Y-98848237D01*
X88717765Y-98848069D01*
X88726898Y-98847726D01*
X88735292Y-98844120D01*
X88735295Y-98844119D01*
X88737473Y-98843183D01*
X88758424Y-98836817D01*
X88769743Y-98834709D01*
X88792419Y-98820732D01*
X88805286Y-98814048D01*
X88809304Y-98812322D01*
X88812101Y-98811120D01*
X88823332Y-98806295D01*
X88823333Y-98806294D01*
X88829753Y-98803536D01*
X88834639Y-98799522D01*
X88839003Y-98795158D01*
X88857058Y-98780887D01*
X88865038Y-98775968D01*
X88882708Y-98752731D01*
X88891500Y-98742661D01*
X89101941Y-98532220D01*
X89118112Y-98523981D01*
X89132220Y-98501941D01*
X89254665Y-98379496D01*
X89309182Y-98351719D01*
X89324669Y-98350500D01*
X93327862Y-98350500D01*
X93331987Y-98350803D01*
X93336712Y-98352425D01*
X93386131Y-98350570D01*
X93389844Y-98350500D01*
X93409318Y-98350500D01*
X93413748Y-98349675D01*
X93418941Y-98349339D01*
X93434972Y-98348737D01*
X93439445Y-98348569D01*
X93448578Y-98348226D01*
X93456972Y-98344620D01*
X93456975Y-98344619D01*
X93459153Y-98343683D01*
X93480104Y-98337317D01*
X93491423Y-98335209D01*
X93514099Y-98321232D01*
X93526966Y-98314548D01*
X93545012Y-98306795D01*
X93545013Y-98306794D01*
X93551433Y-98304036D01*
X93556319Y-98300022D01*
X93560683Y-98295658D01*
X93578738Y-98281387D01*
X93586718Y-98276468D01*
X93604388Y-98253231D01*
X93613180Y-98243161D01*
X93911901Y-97944440D01*
X101894901Y-97944440D01*
X101895816Y-97951437D01*
X101895816Y-97951438D01*
X101896626Y-97957631D01*
X101911633Y-98072394D01*
X101914471Y-98078845D01*
X101914472Y-98078847D01*
X101957805Y-98177329D01*
X101963605Y-98190510D01*
X101993129Y-98225633D01*
X102042100Y-98283892D01*
X102042103Y-98283894D01*
X102046639Y-98289291D01*
X102154060Y-98360796D01*
X102160788Y-98362898D01*
X102160790Y-98362899D01*
X102213915Y-98379496D01*
X102277233Y-98399278D01*
X102341744Y-98400461D01*
X102399202Y-98401514D01*
X102399204Y-98401514D01*
X102406255Y-98401643D01*
X102413058Y-98399788D01*
X102413060Y-98399788D01*
X102476099Y-98382601D01*
X102530755Y-98367700D01*
X102640724Y-98300179D01*
X102645459Y-98294948D01*
X102722590Y-98209735D01*
X102722590Y-98209734D01*
X102727322Y-98204507D01*
X102783588Y-98088375D01*
X102804997Y-97961120D01*
X102805133Y-97950000D01*
X102786839Y-97822259D01*
X102742793Y-97725385D01*
X102736349Y-97711212D01*
X102736348Y-97711211D01*
X102733428Y-97704788D01*
X102649193Y-97607028D01*
X102643276Y-97603193D01*
X102643274Y-97603191D01*
X102546824Y-97540677D01*
X102540906Y-97536841D01*
X102534150Y-97534821D01*
X102534149Y-97534820D01*
X102491335Y-97522016D01*
X102417273Y-97499866D01*
X102340644Y-97499398D01*
X102295282Y-97499121D01*
X102288231Y-97499078D01*
X102281454Y-97501015D01*
X102281453Y-97501015D01*
X102170935Y-97532601D01*
X102170933Y-97532602D01*
X102164155Y-97534539D01*
X102055019Y-97603399D01*
X101969596Y-97700122D01*
X101914754Y-97816932D01*
X101894901Y-97944440D01*
X93911901Y-97944440D01*
X95911901Y-95944440D01*
X101844901Y-95944440D01*
X101845816Y-95951437D01*
X101845816Y-95951438D01*
X101847082Y-95961120D01*
X101861633Y-96072394D01*
X101864471Y-96078845D01*
X101864472Y-96078847D01*
X101910328Y-96183063D01*
X101913605Y-96190510D01*
X101930555Y-96210674D01*
X101992100Y-96283892D01*
X101992103Y-96283894D01*
X101996639Y-96289291D01*
X102104060Y-96360796D01*
X102110788Y-96362898D01*
X102110790Y-96362899D01*
X102140312Y-96372122D01*
X102227233Y-96399278D01*
X102291744Y-96400460D01*
X102349202Y-96401514D01*
X102349204Y-96401514D01*
X102356255Y-96401643D01*
X102363058Y-96399788D01*
X102363060Y-96399788D01*
X102404828Y-96388400D01*
X102480755Y-96367700D01*
X102590724Y-96300179D01*
X102617304Y-96270814D01*
X102672590Y-96209735D01*
X102672590Y-96209734D01*
X102677322Y-96204507D01*
X102733588Y-96088375D01*
X102746687Y-96010513D01*
X102754363Y-95964891D01*
X102754363Y-95964886D01*
X102754997Y-95961120D01*
X102755133Y-95950000D01*
X102736839Y-95822259D01*
X102683428Y-95704788D01*
X102620413Y-95631655D01*
X102603798Y-95612372D01*
X102603797Y-95612371D01*
X102599193Y-95607028D01*
X102593276Y-95603193D01*
X102593274Y-95603191D01*
X102496824Y-95540677D01*
X102490906Y-95536841D01*
X102484150Y-95534821D01*
X102484149Y-95534820D01*
X102401833Y-95510202D01*
X102367273Y-95499866D01*
X102290644Y-95499398D01*
X102245282Y-95499121D01*
X102238231Y-95499078D01*
X102231454Y-95501015D01*
X102231453Y-95501015D01*
X102120935Y-95532601D01*
X102120933Y-95532602D01*
X102114155Y-95534539D01*
X102005019Y-95603399D01*
X101919596Y-95700122D01*
X101864754Y-95816932D01*
X101844901Y-95944440D01*
X95911901Y-95944440D01*
X97026845Y-94829496D01*
X97081362Y-94801719D01*
X97096849Y-94800500D01*
X97739290Y-94800500D01*
X97743415Y-94800803D01*
X97748140Y-94802425D01*
X97797559Y-94800570D01*
X97801272Y-94800500D01*
X97820746Y-94800500D01*
X97825176Y-94799675D01*
X97830369Y-94799339D01*
X97846400Y-94798737D01*
X97850873Y-94798569D01*
X97860006Y-94798226D01*
X97868400Y-94794620D01*
X97868403Y-94794619D01*
X97870581Y-94793683D01*
X97891532Y-94787317D01*
X97902851Y-94785209D01*
X97925527Y-94771232D01*
X97938394Y-94764548D01*
X97956440Y-94756795D01*
X97956441Y-94756794D01*
X97962861Y-94754036D01*
X97967747Y-94750022D01*
X97972111Y-94745658D01*
X97990166Y-94731387D01*
X97998146Y-94726468D01*
X98015816Y-94703231D01*
X98024608Y-94693161D01*
X98316470Y-94401299D01*
X98370987Y-94373522D01*
X98388286Y-94372320D01*
X98403866Y-94372606D01*
X98420601Y-94372913D01*
X98420603Y-94372913D01*
X98427654Y-94373042D01*
X98434457Y-94371187D01*
X98434459Y-94371187D01*
X98476227Y-94359799D01*
X98552154Y-94339099D01*
X98662123Y-94271578D01*
X98666858Y-94266347D01*
X98743989Y-94181134D01*
X98743989Y-94181133D01*
X98748721Y-94175906D01*
X98804987Y-94059774D01*
X98825119Y-93940112D01*
X98825762Y-93936290D01*
X98825762Y-93936285D01*
X98826396Y-93932519D01*
X98826532Y-93921399D01*
X98808238Y-93793658D01*
X98754827Y-93676187D01*
X98681585Y-93591185D01*
X98675197Y-93583771D01*
X98675196Y-93583770D01*
X98670592Y-93578427D01*
X98664675Y-93574592D01*
X98664673Y-93574590D01*
X98568223Y-93512076D01*
X98562305Y-93508240D01*
X98555549Y-93506220D01*
X98555548Y-93506219D01*
X98512734Y-93493415D01*
X98438672Y-93471265D01*
X98362043Y-93470797D01*
X98316681Y-93470520D01*
X98309630Y-93470477D01*
X98302853Y-93472414D01*
X98302852Y-93472414D01*
X98192334Y-93504000D01*
X98192332Y-93504001D01*
X98185554Y-93505938D01*
X98076418Y-93574798D01*
X98040619Y-93615333D01*
X98022471Y-93635881D01*
X97969779Y-93666981D01*
X97908870Y-93661169D01*
X97873268Y-93634969D01*
X97849193Y-93607028D01*
X97843276Y-93603193D01*
X97843274Y-93603191D01*
X97759042Y-93548596D01*
X97740906Y-93536841D01*
X97734150Y-93534821D01*
X97734149Y-93534820D01*
X97650158Y-93509701D01*
X97617273Y-93499866D01*
X97540644Y-93499398D01*
X97495282Y-93499121D01*
X97488231Y-93499078D01*
X97481450Y-93501016D01*
X97481270Y-93501067D01*
X97481115Y-93501061D01*
X97474460Y-93501973D01*
X97474302Y-93500817D01*
X97420124Y-93498876D01*
X97371944Y-93461162D01*
X97355953Y-93407605D01*
X97355335Y-93407645D01*
X97355159Y-93404947D01*
X97355076Y-93404668D01*
X97355086Y-93403826D01*
X97355133Y-93400000D01*
X97336839Y-93272259D01*
X97333919Y-93265837D01*
X97333028Y-93262790D01*
X97334842Y-93201631D01*
X97372258Y-93153219D01*
X97429862Y-93136019D01*
X97535646Y-93137958D01*
X97535648Y-93137958D01*
X97542699Y-93138087D01*
X97549502Y-93136232D01*
X97549504Y-93136232D01*
X97591272Y-93124844D01*
X97667199Y-93104144D01*
X97777168Y-93036623D01*
X97806404Y-93004324D01*
X97859034Y-92946179D01*
X97859034Y-92946178D01*
X97863766Y-92940951D01*
X97908109Y-92849428D01*
X97916956Y-92831168D01*
X97916956Y-92831167D01*
X97920032Y-92824819D01*
X97932377Y-92751438D01*
X97940807Y-92701335D01*
X97940807Y-92701330D01*
X97941441Y-92697564D01*
X97941577Y-92686444D01*
X97923283Y-92558703D01*
X97901944Y-92511771D01*
X97872793Y-92447656D01*
X97872792Y-92447655D01*
X97869872Y-92441232D01*
X97785637Y-92343472D01*
X97779720Y-92339637D01*
X97779718Y-92339635D01*
X97703788Y-92290421D01*
X97665241Y-92242905D01*
X97661985Y-92181806D01*
X97687630Y-92137341D01*
X98873156Y-90951816D01*
X98876281Y-90949119D01*
X98880769Y-90946925D01*
X98914380Y-90910692D01*
X98916956Y-90908016D01*
X98930748Y-90894224D01*
X98933293Y-90890513D01*
X98936734Y-90886594D01*
X98950685Y-90871555D01*
X98950685Y-90871554D01*
X98956901Y-90864854D01*
X98960287Y-90856366D01*
X98960289Y-90856363D01*
X98961167Y-90854162D01*
X98971481Y-90834846D01*
X98972822Y-90832891D01*
X98972823Y-90832889D01*
X98977992Y-90825354D01*
X98984141Y-90799441D01*
X98988514Y-90785616D01*
X98995794Y-90767368D01*
X98995794Y-90767366D01*
X98998383Y-90760878D01*
X98999000Y-90754585D01*
X98999000Y-90748416D01*
X99001675Y-90725557D01*
X99001730Y-90725327D01*
X99001730Y-90725325D01*
X99003840Y-90716434D01*
X98999904Y-90687512D01*
X98999000Y-90674163D01*
X98999000Y-90453184D01*
X99017907Y-90394993D01*
X99024602Y-90386748D01*
X99071090Y-90335389D01*
X99071090Y-90335388D01*
X99075822Y-90330161D01*
X99132088Y-90214029D01*
X99153497Y-90086774D01*
X99153633Y-90075654D01*
X99135339Y-89947913D01*
X99088847Y-89845659D01*
X99084849Y-89836866D01*
X99084848Y-89836865D01*
X99081928Y-89830442D01*
X99014426Y-89752102D01*
X99002298Y-89738026D01*
X99002297Y-89738025D01*
X98997693Y-89732682D01*
X98991776Y-89728847D01*
X98991774Y-89728845D01*
X98914509Y-89678766D01*
X98889406Y-89662495D01*
X98882650Y-89660475D01*
X98882649Y-89660474D01*
X98797454Y-89634995D01*
X98765773Y-89625520D01*
X98693854Y-89625081D01*
X98635780Y-89605819D01*
X98600119Y-89556100D01*
X98596831Y-89509658D01*
X98604363Y-89464891D01*
X98604363Y-89464886D01*
X98604997Y-89461120D01*
X98605133Y-89450000D01*
X98586839Y-89322259D01*
X98548182Y-89237237D01*
X98536349Y-89211212D01*
X98536348Y-89211211D01*
X98533428Y-89204788D01*
X98449193Y-89107028D01*
X98443276Y-89103193D01*
X98443274Y-89103191D01*
X98346824Y-89040677D01*
X98340906Y-89036841D01*
X98334150Y-89034821D01*
X98334149Y-89034820D01*
X98269003Y-89015337D01*
X98217273Y-88999866D01*
X98140644Y-88999398D01*
X98095282Y-88999121D01*
X98088231Y-88999078D01*
X98081454Y-89001015D01*
X98081453Y-89001015D01*
X97970935Y-89032601D01*
X97970933Y-89032602D01*
X97964155Y-89034539D01*
X97855019Y-89103399D01*
X97769596Y-89200122D01*
X97714754Y-89316932D01*
X97698505Y-89421296D01*
X97697290Y-89429098D01*
X97669656Y-89483688D01*
X97615212Y-89511608D01*
X97554755Y-89502195D01*
X97511378Y-89459044D01*
X97501469Y-89427903D01*
X97488352Y-89336316D01*
X97486339Y-89322259D01*
X97447682Y-89237237D01*
X97435849Y-89211212D01*
X97435848Y-89211211D01*
X97432928Y-89204788D01*
X97348693Y-89107028D01*
X97342776Y-89103193D01*
X97342774Y-89103191D01*
X97246324Y-89040677D01*
X97240406Y-89036841D01*
X97233650Y-89034821D01*
X97233649Y-89034820D01*
X97168503Y-89015337D01*
X97116773Y-88999866D01*
X97040144Y-88999398D01*
X96994782Y-88999121D01*
X96987731Y-88999078D01*
X96980954Y-89001015D01*
X96980953Y-89001015D01*
X96870435Y-89032601D01*
X96870433Y-89032602D01*
X96863655Y-89034539D01*
X96754519Y-89103399D01*
X96669096Y-89200122D01*
X96614254Y-89316932D01*
X96594401Y-89444440D01*
X96595316Y-89451436D01*
X96595249Y-89456896D01*
X96575631Y-89514851D01*
X96525694Y-89550207D01*
X96495637Y-89554683D01*
X96493832Y-89554672D01*
X96492127Y-89554661D01*
X96434056Y-89535389D01*
X96398403Y-89485665D01*
X96394748Y-89469698D01*
X96378323Y-89355010D01*
X96377323Y-89348026D01*
X96346811Y-89280918D01*
X96326833Y-89236979D01*
X96326832Y-89236978D01*
X96323912Y-89230555D01*
X96266902Y-89164391D01*
X96244282Y-89138139D01*
X96244281Y-89138138D01*
X96239677Y-89132795D01*
X96233760Y-89128960D01*
X96233758Y-89128958D01*
X96158616Y-89080255D01*
X96131390Y-89062608D01*
X96124634Y-89060588D01*
X96124633Y-89060587D01*
X96038475Y-89034820D01*
X96007757Y-89025633D01*
X95931128Y-89025165D01*
X95885766Y-89024888D01*
X95878715Y-89024845D01*
X95871938Y-89026782D01*
X95871937Y-89026782D01*
X95761419Y-89058368D01*
X95761417Y-89058369D01*
X95754639Y-89060306D01*
X95645503Y-89129166D01*
X95560080Y-89225889D01*
X95505238Y-89342699D01*
X95485385Y-89470207D01*
X95486300Y-89477205D01*
X95486300Y-89477208D01*
X95487706Y-89487960D01*
X95476503Y-89548111D01*
X95432084Y-89590189D01*
X95388937Y-89599793D01*
X95328368Y-89599423D01*
X95270294Y-89580161D01*
X95234633Y-89530442D01*
X95231345Y-89484000D01*
X95231398Y-89483688D01*
X95234839Y-89463233D01*
X95238454Y-89441747D01*
X95238454Y-89441742D01*
X95239088Y-89437976D01*
X95239224Y-89426856D01*
X95220930Y-89299115D01*
X95178042Y-89204788D01*
X95170440Y-89188068D01*
X95170439Y-89188067D01*
X95167519Y-89181644D01*
X95083284Y-89083884D01*
X95077367Y-89080049D01*
X95077365Y-89080047D01*
X95004163Y-89032601D01*
X94974997Y-89013697D01*
X94968241Y-89011677D01*
X94968240Y-89011676D01*
X94925426Y-88998872D01*
X94851364Y-88976722D01*
X94774735Y-88976254D01*
X94729373Y-88975977D01*
X94722322Y-88975934D01*
X94715545Y-88977871D01*
X94715544Y-88977871D01*
X94605026Y-89009457D01*
X94605024Y-89009458D01*
X94598246Y-89011395D01*
X94489110Y-89080255D01*
X94403687Y-89176978D01*
X94400692Y-89183358D01*
X94400687Y-89183365D01*
X94358646Y-89272909D01*
X94316801Y-89317548D01*
X94256709Y-89329065D01*
X94215186Y-89313911D01*
X94156735Y-89276026D01*
X94150817Y-89272190D01*
X94144061Y-89270170D01*
X94144060Y-89270169D01*
X94101246Y-89257365D01*
X94027184Y-89235215D01*
X93950555Y-89234747D01*
X93905193Y-89234470D01*
X93898142Y-89234427D01*
X93891365Y-89236364D01*
X93891364Y-89236364D01*
X93780846Y-89267950D01*
X93780844Y-89267951D01*
X93774066Y-89269888D01*
X93664930Y-89338748D01*
X93579507Y-89435471D01*
X93524665Y-89552281D01*
X93504812Y-89679789D01*
X93504157Y-89679687D01*
X93486259Y-89732563D01*
X93476887Y-89743402D01*
X93383745Y-89836544D01*
X93329228Y-89864321D01*
X93268796Y-89854750D01*
X93255379Y-89845682D01*
X93255359Y-89845659D01*
X93255005Y-89845430D01*
X93254982Y-89845414D01*
X93185206Y-89800189D01*
X93149934Y-89777327D01*
X93111388Y-89729812D01*
X93108132Y-89668713D01*
X93110508Y-89661975D01*
X93113676Y-89657357D01*
X93119827Y-89631437D01*
X93124197Y-89617618D01*
X93134066Y-89592881D01*
X93134683Y-89586588D01*
X93134683Y-89580418D01*
X93137358Y-89557559D01*
X93137413Y-89557329D01*
X93139523Y-89548437D01*
X93138291Y-89539383D01*
X93138291Y-89539379D01*
X93138056Y-89537656D01*
X93138493Y-89535239D01*
X93138737Y-89530251D01*
X93139389Y-89530283D01*
X93148941Y-89477447D01*
X93162754Y-89457866D01*
X93163268Y-89457299D01*
X93211505Y-89404007D01*
X93256785Y-89310549D01*
X93264695Y-89294224D01*
X93264695Y-89294223D01*
X93267771Y-89287875D01*
X93284562Y-89188068D01*
X93288546Y-89164391D01*
X93288546Y-89164386D01*
X93289180Y-89160620D01*
X93289316Y-89149500D01*
X93271022Y-89021759D01*
X93217611Y-88904288D01*
X93133376Y-88806528D01*
X93127459Y-88802693D01*
X93127457Y-88802691D01*
X93031007Y-88740177D01*
X93025089Y-88736341D01*
X92963531Y-88717931D01*
X92913198Y-88683144D01*
X92892924Y-88625414D01*
X92910456Y-88566794D01*
X92921893Y-88553078D01*
X92932248Y-88542723D01*
X92934793Y-88539013D01*
X92938229Y-88535100D01*
X92952187Y-88520053D01*
X92958401Y-88513354D01*
X92961788Y-88504866D01*
X92962667Y-88502663D01*
X92972978Y-88483352D01*
X92974322Y-88481393D01*
X92974323Y-88481390D01*
X92979493Y-88473854D01*
X92985644Y-88447934D01*
X92990014Y-88434115D01*
X92999883Y-88409378D01*
X93000144Y-88406716D01*
X93021786Y-88365862D01*
X93072590Y-88309735D01*
X93072590Y-88309734D01*
X93077322Y-88304507D01*
X93133588Y-88188375D01*
X93150581Y-88087368D01*
X93154363Y-88064891D01*
X93154363Y-88064886D01*
X93154997Y-88061120D01*
X93155133Y-88050000D01*
X93136839Y-87922259D01*
X93097741Y-87836267D01*
X93086349Y-87811212D01*
X93086348Y-87811211D01*
X93083428Y-87804788D01*
X92999193Y-87707028D01*
X92993276Y-87703193D01*
X92993274Y-87703191D01*
X92896824Y-87640677D01*
X92890906Y-87636841D01*
X92884150Y-87634821D01*
X92884149Y-87634820D01*
X92834090Y-87619849D01*
X92767273Y-87599866D01*
X92690644Y-87599398D01*
X92645282Y-87599121D01*
X92638231Y-87599078D01*
X92631454Y-87601015D01*
X92631453Y-87601015D01*
X92520935Y-87632601D01*
X92520933Y-87632602D01*
X92514155Y-87634539D01*
X92405019Y-87703399D01*
X92319596Y-87800122D01*
X92308132Y-87824540D01*
X92307405Y-87826088D01*
X92265559Y-87870727D01*
X92205468Y-87882244D01*
X92179865Y-87874915D01*
X92177350Y-87873285D01*
X92170599Y-87871266D01*
X92170597Y-87871265D01*
X92107719Y-87852461D01*
X92053717Y-87836310D01*
X91977088Y-87835842D01*
X91931726Y-87835565D01*
X91924675Y-87835522D01*
X91917898Y-87837459D01*
X91917897Y-87837459D01*
X91807379Y-87869045D01*
X91807377Y-87869046D01*
X91800599Y-87870983D01*
X91691463Y-87939843D01*
X91606040Y-88036566D01*
X91603044Y-88042948D01*
X91599170Y-88048845D01*
X91598083Y-88048131D01*
X91561296Y-88087368D01*
X91501204Y-88098882D01*
X91445821Y-88072876D01*
X91438531Y-88065273D01*
X91429835Y-88055180D01*
X91406176Y-87998754D01*
X91420202Y-87939198D01*
X91431438Y-87924124D01*
X91481819Y-87868464D01*
X91481819Y-87868463D01*
X91486551Y-87863236D01*
X91542817Y-87747104D01*
X91561363Y-87636869D01*
X91563592Y-87623620D01*
X91563592Y-87623615D01*
X91564226Y-87619849D01*
X91564362Y-87608729D01*
X91546068Y-87480988D01*
X91492657Y-87363517D01*
X91408422Y-87265757D01*
X91402505Y-87261922D01*
X91402503Y-87261920D01*
X91306053Y-87199406D01*
X91300135Y-87195570D01*
X91293379Y-87193550D01*
X91293378Y-87193549D01*
X91250564Y-87180745D01*
X91176502Y-87158595D01*
X91099873Y-87158127D01*
X91054511Y-87157850D01*
X91047460Y-87157807D01*
X91040683Y-87159744D01*
X91040682Y-87159744D01*
X90930164Y-87191330D01*
X90930162Y-87191331D01*
X90923384Y-87193268D01*
X90814248Y-87262128D01*
X90728825Y-87358851D01*
X90673983Y-87475661D01*
X90672898Y-87482631D01*
X90657411Y-87582096D01*
X90629594Y-87636869D01*
X88645959Y-89620504D01*
X88591442Y-89648281D01*
X88575955Y-89649500D01*
X87553508Y-89649500D01*
X87549383Y-89649197D01*
X87544658Y-89647575D01*
X87495238Y-89649430D01*
X87491525Y-89649500D01*
X87472052Y-89649500D01*
X87467622Y-89650325D01*
X87462429Y-89650661D01*
X87443298Y-89651379D01*
X87441926Y-89651431D01*
X87432791Y-89651774D01*
X87424394Y-89655382D01*
X87424393Y-89655382D01*
X87422212Y-89656319D01*
X87401263Y-89662683D01*
X87398936Y-89663116D01*
X87398931Y-89663118D01*
X87389947Y-89664791D01*
X87382169Y-89669586D01*
X87382165Y-89669587D01*
X87367275Y-89678766D01*
X87354411Y-89685449D01*
X87329937Y-89695964D01*
X87325051Y-89699978D01*
X87320687Y-89704342D01*
X87302632Y-89718613D01*
X87294652Y-89723532D01*
X87276982Y-89746769D01*
X87268190Y-89756839D01*
X86654665Y-90370364D01*
X86600148Y-90398141D01*
X86584061Y-90399358D01*
X86547501Y-90399135D01*
X86545282Y-90399121D01*
X86538231Y-90399078D01*
X86531455Y-90401015D01*
X86531452Y-90401015D01*
X86420935Y-90432601D01*
X86420933Y-90432602D01*
X86414155Y-90434539D01*
X86305019Y-90503399D01*
X86219596Y-90600122D01*
X86164754Y-90716932D01*
X86144901Y-90844440D01*
X86161633Y-90972394D01*
X86164471Y-90978845D01*
X86164472Y-90978847D01*
X86208346Y-91078559D01*
X86213605Y-91090510D01*
X86249435Y-91133135D01*
X86292100Y-91183892D01*
X86292103Y-91183894D01*
X86296639Y-91189291D01*
X86404060Y-91260796D01*
X86410788Y-91262898D01*
X86410790Y-91262899D01*
X86465647Y-91280037D01*
X86527233Y-91299278D01*
X86591744Y-91300461D01*
X86649202Y-91301514D01*
X86649204Y-91301514D01*
X86656255Y-91301643D01*
X86663058Y-91299788D01*
X86663060Y-91299788D01*
X86704828Y-91288400D01*
X86780755Y-91267700D01*
X86890724Y-91200179D01*
X86891691Y-91201753D01*
X86912697Y-91193394D01*
X86913279Y-91184513D01*
X86931834Y-91154761D01*
X86932852Y-91153637D01*
X86977322Y-91104507D01*
X86987232Y-91084054D01*
X86994925Y-91068175D01*
X87037312Y-91024050D01*
X87097540Y-91013268D01*
X87152603Y-91039945D01*
X87159799Y-91047635D01*
X87185195Y-91077847D01*
X87186488Y-91078708D01*
X87215998Y-91129406D01*
X87209818Y-91190278D01*
X87169078Y-91235848D01*
X87166267Y-91236651D01*
X87128000Y-91260796D01*
X87058059Y-91304925D01*
X87040431Y-91309402D01*
X87020627Y-91346844D01*
X86971708Y-91402234D01*
X86916866Y-91519044D01*
X86897013Y-91646552D01*
X86913745Y-91774506D01*
X86916583Y-91780957D01*
X86916584Y-91780959D01*
X86951911Y-91861246D01*
X86965717Y-91892622D01*
X86998398Y-91931501D01*
X87044212Y-91986004D01*
X87044215Y-91986006D01*
X87048751Y-91991403D01*
X87156172Y-92062908D01*
X87162900Y-92065010D01*
X87162902Y-92065011D01*
X87217759Y-92082149D01*
X87279345Y-92101390D01*
X87343856Y-92102572D01*
X87401314Y-92103626D01*
X87401316Y-92103626D01*
X87408367Y-92103755D01*
X87415170Y-92101900D01*
X87415172Y-92101900D01*
X87456940Y-92090512D01*
X87532867Y-92069812D01*
X87642836Y-92002291D01*
X87647571Y-91997060D01*
X87724702Y-91911847D01*
X87724702Y-91911846D01*
X87729434Y-91906619D01*
X87732508Y-91900274D01*
X87736454Y-91894424D01*
X87738942Y-91896102D01*
X87772408Y-91861246D01*
X87832633Y-91850447D01*
X87887704Y-91877109D01*
X87894922Y-91884821D01*
X87907842Y-91900192D01*
X87907845Y-91900194D01*
X87912381Y-91905591D01*
X87918251Y-91909499D01*
X87918254Y-91909501D01*
X87951304Y-91931501D01*
X87989267Y-91979485D01*
X87991776Y-92040619D01*
X87957871Y-92091552D01*
X87923653Y-92109100D01*
X87860766Y-92127073D01*
X87825552Y-92137137D01*
X87825550Y-92137138D01*
X87818772Y-92139075D01*
X87709636Y-92207935D01*
X87624213Y-92304658D01*
X87569371Y-92421468D01*
X87549518Y-92548976D01*
X87550433Y-92555973D01*
X87550433Y-92555974D01*
X87552667Y-92573058D01*
X87566250Y-92676930D01*
X87569088Y-92683381D01*
X87569089Y-92683383D01*
X87611860Y-92780588D01*
X87618222Y-92795046D01*
X87637582Y-92818077D01*
X87696717Y-92888428D01*
X87696720Y-92888430D01*
X87701256Y-92893827D01*
X87808677Y-92965332D01*
X87815405Y-92967434D01*
X87815407Y-92967435D01*
X87868602Y-92984054D01*
X87931850Y-93003814D01*
X87996361Y-93004997D01*
X88053819Y-93006050D01*
X88053821Y-93006050D01*
X88060872Y-93006179D01*
X88067675Y-93004324D01*
X88067677Y-93004324D01*
X88109445Y-92992936D01*
X88185372Y-92972236D01*
X88295341Y-92904715D01*
X88325229Y-92871695D01*
X88377207Y-92814271D01*
X88377207Y-92814270D01*
X88381939Y-92809043D01*
X88438205Y-92692911D01*
X88439375Y-92685954D01*
X88441519Y-92679237D01*
X88444510Y-92680191D01*
X88466676Y-92637722D01*
X88521463Y-92610481D01*
X88581798Y-92620646D01*
X88611770Y-92644706D01*
X88664941Y-92707961D01*
X88772362Y-92779466D01*
X88779090Y-92781568D01*
X88779092Y-92781569D01*
X88822230Y-92795046D01*
X88895535Y-92817948D01*
X88962054Y-92819167D01*
X89019887Y-92839137D01*
X89054938Y-92889288D01*
X89058403Y-92905312D01*
X89059123Y-92910815D01*
X89063400Y-92943523D01*
X89066238Y-92949974D01*
X89066239Y-92949976D01*
X89112531Y-93055183D01*
X89115372Y-93061639D01*
X89151101Y-93104144D01*
X89193867Y-93155021D01*
X89193870Y-93155023D01*
X89198406Y-93160420D01*
X89305827Y-93231925D01*
X89312555Y-93234027D01*
X89312557Y-93234028D01*
X89365048Y-93250427D01*
X89429000Y-93270407D01*
X89493511Y-93271590D01*
X89550969Y-93272643D01*
X89550971Y-93272643D01*
X89558022Y-93272772D01*
X89564825Y-93270917D01*
X89564827Y-93270917D01*
X89606595Y-93259529D01*
X89682522Y-93238829D01*
X89706635Y-93224024D01*
X89766116Y-93209688D01*
X89822664Y-93233053D01*
X89834218Y-93244688D01*
X89878685Y-93297589D01*
X89878688Y-93297591D01*
X89883224Y-93302988D01*
X89990645Y-93374493D01*
X89997373Y-93376595D01*
X89997375Y-93376596D01*
X90052232Y-93393734D01*
X90113818Y-93412975D01*
X90178329Y-93414158D01*
X90235787Y-93415211D01*
X90235789Y-93415211D01*
X90242840Y-93415340D01*
X90249643Y-93413485D01*
X90249645Y-93413485D01*
X90319499Y-93394440D01*
X90367340Y-93381397D01*
X90477309Y-93313876D01*
X90514222Y-93273095D01*
X90559175Y-93223432D01*
X90559175Y-93223431D01*
X90563907Y-93218204D01*
X90620173Y-93102072D01*
X90636306Y-93006179D01*
X90640948Y-92978588D01*
X90640948Y-92978583D01*
X90641582Y-92974817D01*
X90641629Y-92970998D01*
X90641971Y-92967181D01*
X90643666Y-92967333D01*
X90661233Y-92915481D01*
X90670588Y-92904665D01*
X90720930Y-92854323D01*
X90724059Y-92851623D01*
X90728548Y-92849428D01*
X90762172Y-92813181D01*
X90764748Y-92810505D01*
X90778527Y-92796726D01*
X90781072Y-92793016D01*
X90784508Y-92789103D01*
X90798464Y-92774058D01*
X90804680Y-92767357D01*
X90808945Y-92756667D01*
X90819259Y-92737351D01*
X90820600Y-92735396D01*
X90820601Y-92735393D01*
X90825771Y-92727857D01*
X90831920Y-92701944D01*
X90836293Y-92688119D01*
X90843573Y-92669871D01*
X90843573Y-92669869D01*
X90846162Y-92663381D01*
X90846779Y-92657088D01*
X90846779Y-92650919D01*
X90849454Y-92628060D01*
X90849509Y-92627830D01*
X90849509Y-92627828D01*
X90851619Y-92618937D01*
X90847683Y-92590015D01*
X90846779Y-92576666D01*
X90846779Y-92270436D01*
X90865686Y-92212245D01*
X90875775Y-92200432D01*
X91830542Y-91245665D01*
X91885059Y-91217888D01*
X91900546Y-91216669D01*
X92105821Y-91216669D01*
X92109946Y-91216972D01*
X92114671Y-91218594D01*
X92164090Y-91216739D01*
X92167803Y-91216669D01*
X92187278Y-91216669D01*
X92191709Y-91215844D01*
X92196899Y-91215508D01*
X92212300Y-91214930D01*
X92217405Y-91214738D01*
X92217406Y-91214738D01*
X92226537Y-91214395D01*
X92234931Y-91210789D01*
X92234934Y-91210788D01*
X92237110Y-91209853D01*
X92258064Y-91203486D01*
X92260401Y-91203051D01*
X92260402Y-91203051D01*
X92269383Y-91201378D01*
X92277159Y-91196585D01*
X92277166Y-91196582D01*
X92292061Y-91187400D01*
X92304922Y-91180718D01*
X92329392Y-91170205D01*
X92334278Y-91166192D01*
X92338643Y-91161827D01*
X92356698Y-91147556D01*
X92364678Y-91142637D01*
X92382340Y-91119411D01*
X92391139Y-91109332D01*
X92394498Y-91105973D01*
X92449015Y-91078196D01*
X92464502Y-91076977D01*
X93092630Y-91076977D01*
X93096755Y-91077280D01*
X93101480Y-91078902D01*
X93150899Y-91077047D01*
X93154612Y-91076977D01*
X93174086Y-91076977D01*
X93178516Y-91076152D01*
X93183709Y-91075816D01*
X93199740Y-91075214D01*
X93204213Y-91075046D01*
X93213346Y-91074703D01*
X93221740Y-91071097D01*
X93221743Y-91071096D01*
X93223921Y-91070160D01*
X93244872Y-91063794D01*
X93256191Y-91061686D01*
X93278867Y-91047709D01*
X93291734Y-91041025D01*
X93309780Y-91033272D01*
X93309781Y-91033271D01*
X93316201Y-91030513D01*
X93321087Y-91026499D01*
X93325451Y-91022135D01*
X93343506Y-91007864D01*
X93351486Y-91002945D01*
X93369156Y-90979708D01*
X93377948Y-90969638D01*
X93680817Y-90666769D01*
X93683948Y-90664067D01*
X93688435Y-90661874D01*
X93693781Y-90656111D01*
X93751059Y-90636857D01*
X93809438Y-90655174D01*
X93827845Y-90672150D01*
X93895840Y-90753041D01*
X93895843Y-90753043D01*
X93900379Y-90758440D01*
X93961976Y-90799442D01*
X94007800Y-90829945D01*
X94006546Y-90831830D01*
X94043321Y-90866725D01*
X94054475Y-90926885D01*
X94026325Y-90983972D01*
X93961793Y-91048504D01*
X93958664Y-91051204D01*
X93954175Y-91053399D01*
X93947957Y-91060102D01*
X93920551Y-91089646D01*
X93917975Y-91092322D01*
X93904196Y-91106101D01*
X93901651Y-91109811D01*
X93898215Y-91113724D01*
X93878043Y-91135470D01*
X93877746Y-91136215D01*
X93872690Y-91142537D01*
X91394723Y-93620504D01*
X91340206Y-93648281D01*
X91324719Y-93649500D01*
X89887413Y-93649500D01*
X89829222Y-93630593D01*
X89820827Y-93623423D01*
X89817875Y-93620970D01*
X89814657Y-93617752D01*
X89810947Y-93615207D01*
X89807034Y-93611771D01*
X89791989Y-93597815D01*
X89785288Y-93591599D01*
X89774598Y-93587334D01*
X89755282Y-93577020D01*
X89753327Y-93575679D01*
X89753324Y-93575678D01*
X89745788Y-93570508D01*
X89719875Y-93564359D01*
X89706050Y-93559986D01*
X89687802Y-93552706D01*
X89687800Y-93552706D01*
X89681312Y-93550117D01*
X89675019Y-93549500D01*
X89668850Y-93549500D01*
X89645991Y-93546825D01*
X89645761Y-93546770D01*
X89645759Y-93546770D01*
X89636868Y-93544660D01*
X89607947Y-93548596D01*
X89594597Y-93549500D01*
X84015479Y-93549500D01*
X83957288Y-93530593D01*
X83945475Y-93520504D01*
X83000320Y-92575349D01*
X82997620Y-92572220D01*
X82995425Y-92567731D01*
X82959178Y-92534107D01*
X82956502Y-92531531D01*
X82942723Y-92517752D01*
X82939013Y-92515207D01*
X82935100Y-92511771D01*
X82920055Y-92497815D01*
X82913354Y-92491599D01*
X82902664Y-92487334D01*
X82883348Y-92477020D01*
X82881393Y-92475679D01*
X82881390Y-92475678D01*
X82873854Y-92470508D01*
X82847941Y-92464359D01*
X82834116Y-92459986D01*
X82815868Y-92452706D01*
X82815866Y-92452706D01*
X82809378Y-92450117D01*
X82803085Y-92449500D01*
X82796916Y-92449500D01*
X82774057Y-92446825D01*
X82773827Y-92446770D01*
X82773825Y-92446770D01*
X82764934Y-92444660D01*
X82736013Y-92448596D01*
X82722663Y-92449500D01*
X81831167Y-92449500D01*
X81772976Y-92430593D01*
X81756168Y-92415123D01*
X81755665Y-92414539D01*
X81749193Y-92407028D01*
X81743276Y-92403193D01*
X81743274Y-92403191D01*
X81659381Y-92348816D01*
X81640906Y-92336841D01*
X81634150Y-92334821D01*
X81634149Y-92334820D01*
X81554635Y-92311040D01*
X81517273Y-92299866D01*
X81436704Y-92299374D01*
X81395282Y-92299121D01*
X81388231Y-92299078D01*
X81381454Y-92301015D01*
X81381453Y-92301015D01*
X81270935Y-92332601D01*
X81270933Y-92332602D01*
X81264155Y-92334539D01*
X81155019Y-92403399D01*
X81069596Y-92500122D01*
X81014754Y-92616932D01*
X80994901Y-92744440D01*
X81011633Y-92872394D01*
X81014471Y-92878845D01*
X81014472Y-92878847D01*
X81057757Y-92977219D01*
X81063605Y-92990510D01*
X81093215Y-93025735D01*
X81142100Y-93083892D01*
X81142103Y-93083894D01*
X81146639Y-93089291D01*
X81152510Y-93093199D01*
X81157769Y-93097901D01*
X81155888Y-93100005D01*
X81186233Y-93138360D01*
X81188742Y-93199493D01*
X81154839Y-93250427D01*
X81120619Y-93267976D01*
X81109495Y-93271156D01*
X81102711Y-93273095D01*
X80993575Y-93341955D01*
X80908152Y-93438678D01*
X80853310Y-93555488D01*
X80833457Y-93682996D01*
X76200500Y-93682996D01*
X76200500Y-84300000D01*
X113200000Y-84300000D01*
X113400000Y-84500000D01*
X114100000Y-84500000D01*
X114300000Y-84300000D01*
X114300000Y-80694440D01*
X117844901Y-80694440D01*
X117845816Y-80701437D01*
X117845816Y-80701438D01*
X117847082Y-80711120D01*
X117861633Y-80822394D01*
X117864471Y-80828845D01*
X117864472Y-80828847D01*
X117871458Y-80844724D01*
X117913605Y-80940510D01*
X117955122Y-80989900D01*
X117992100Y-81033892D01*
X117992103Y-81033894D01*
X117996639Y-81039291D01*
X118104060Y-81110796D01*
X118110788Y-81112898D01*
X118110790Y-81112899D01*
X118165647Y-81130037D01*
X118227233Y-81149278D01*
X118291744Y-81150461D01*
X118349202Y-81151514D01*
X118349204Y-81151514D01*
X118356255Y-81151643D01*
X118363058Y-81149788D01*
X118363060Y-81149788D01*
X118404828Y-81138400D01*
X118480755Y-81117700D01*
X118590724Y-81050179D01*
X118677322Y-80954507D01*
X118733588Y-80838375D01*
X118754997Y-80711120D01*
X118755133Y-80700000D01*
X118736839Y-80572259D01*
X118683428Y-80454788D01*
X118599193Y-80357028D01*
X118593276Y-80353193D01*
X118593274Y-80353191D01*
X118496824Y-80290677D01*
X118490906Y-80286841D01*
X118484150Y-80284821D01*
X118484149Y-80284820D01*
X118441335Y-80272016D01*
X118367273Y-80249866D01*
X118290644Y-80249398D01*
X118245282Y-80249121D01*
X118238231Y-80249078D01*
X118231454Y-80251015D01*
X118231453Y-80251015D01*
X118120935Y-80282601D01*
X118120933Y-80282602D01*
X118114155Y-80284539D01*
X118005019Y-80353399D01*
X117919596Y-80450122D01*
X117864754Y-80566932D01*
X117844901Y-80694440D01*
X114300000Y-80694440D01*
X114300000Y-80541008D01*
X114318907Y-80482817D01*
X114328996Y-80471004D01*
X114500000Y-80300000D01*
X114500000Y-80298453D01*
X114533784Y-80264669D01*
X114594216Y-80255097D01*
X114648733Y-80282874D01*
X114654513Y-80289176D01*
X114692100Y-80333892D01*
X114692103Y-80333894D01*
X114696639Y-80339291D01*
X114804060Y-80410796D01*
X114810788Y-80412898D01*
X114810790Y-80412899D01*
X114865647Y-80430037D01*
X114927233Y-80449278D01*
X114991744Y-80450460D01*
X115049202Y-80451514D01*
X115049204Y-80451514D01*
X115056255Y-80451643D01*
X115063058Y-80449788D01*
X115063060Y-80449788D01*
X115104828Y-80438400D01*
X115180755Y-80417700D01*
X115290724Y-80350179D01*
X115349884Y-80284820D01*
X115372590Y-80259735D01*
X115372590Y-80259734D01*
X115377322Y-80254507D01*
X115433588Y-80138375D01*
X115454997Y-80011120D01*
X115455133Y-80000000D01*
X115436839Y-79872259D01*
X115383428Y-79754788D01*
X115299193Y-79657028D01*
X115293276Y-79653193D01*
X115293274Y-79653191D01*
X115242520Y-79620295D01*
X115190906Y-79586841D01*
X115191171Y-79586432D01*
X115149795Y-79548119D01*
X115137910Y-79488099D01*
X115163574Y-79432556D01*
X115184413Y-79415454D01*
X115284711Y-79353871D01*
X115290724Y-79350179D01*
X115377322Y-79254507D01*
X115433588Y-79138375D01*
X115454997Y-79011120D01*
X115455133Y-79000000D01*
X115436839Y-78872259D01*
X115383428Y-78754788D01*
X115299193Y-78657028D01*
X115293276Y-78653193D01*
X115293274Y-78653191D01*
X115196824Y-78590677D01*
X115190906Y-78586841D01*
X115184150Y-78584821D01*
X115184149Y-78584820D01*
X115141335Y-78572016D01*
X115067273Y-78549866D01*
X114990644Y-78549398D01*
X114945282Y-78549121D01*
X114938231Y-78549078D01*
X114931454Y-78551015D01*
X114931453Y-78551015D01*
X114820935Y-78582601D01*
X114820933Y-78582602D01*
X114814155Y-78584539D01*
X114705019Y-78653399D01*
X114619596Y-78750122D01*
X114564754Y-78866932D01*
X114544901Y-78994440D01*
X114545816Y-79001437D01*
X114545816Y-79001438D01*
X114547082Y-79011120D01*
X114561633Y-79122394D01*
X114564471Y-79128845D01*
X114564472Y-79128847D01*
X114571458Y-79144724D01*
X114613605Y-79240510D01*
X114655122Y-79289901D01*
X114692100Y-79333892D01*
X114692103Y-79333894D01*
X114696639Y-79339291D01*
X114764953Y-79384764D01*
X114798190Y-79406889D01*
X114798192Y-79406890D01*
X114804060Y-79410796D01*
X114807178Y-79411770D01*
X114850301Y-79452695D01*
X114861450Y-79512856D01*
X114835107Y-79568080D01*
X114813446Y-79583415D01*
X114814155Y-79584539D01*
X114705019Y-79653399D01*
X114619596Y-79750122D01*
X114616599Y-79756506D01*
X114616598Y-79756507D01*
X114593420Y-79805873D01*
X114551575Y-79850511D01*
X114491483Y-79862028D01*
X114433802Y-79833802D01*
X114300000Y-79700000D01*
X113600000Y-79700000D01*
X113400000Y-79900000D01*
X113400000Y-80300000D01*
X113571004Y-80471004D01*
X113598781Y-80525521D01*
X113600000Y-80541008D01*
X113600000Y-83358992D01*
X113581093Y-83417183D01*
X113571004Y-83428996D01*
X113200000Y-83800000D01*
X113200000Y-84300000D01*
X76200500Y-84300000D01*
X76200500Y-78094440D01*
X117844901Y-78094440D01*
X117845816Y-78101437D01*
X117845816Y-78101438D01*
X117847082Y-78111120D01*
X117861633Y-78222394D01*
X117864471Y-78228845D01*
X117864472Y-78228847D01*
X117871458Y-78244724D01*
X117913605Y-78340510D01*
X117955122Y-78389900D01*
X117992100Y-78433892D01*
X117992103Y-78433894D01*
X117996639Y-78439291D01*
X118104060Y-78510796D01*
X118110788Y-78512898D01*
X118110790Y-78512899D01*
X118165646Y-78530037D01*
X118227233Y-78549278D01*
X118291744Y-78550460D01*
X118349202Y-78551514D01*
X118349204Y-78551514D01*
X118356255Y-78551643D01*
X118363058Y-78549788D01*
X118363060Y-78549788D01*
X118404828Y-78538400D01*
X118480755Y-78517700D01*
X118590724Y-78450179D01*
X118677322Y-78354507D01*
X118733588Y-78238375D01*
X118754997Y-78111120D01*
X118755133Y-78100000D01*
X118736839Y-77972259D01*
X118683428Y-77854788D01*
X118599193Y-77757028D01*
X118593276Y-77753193D01*
X118593274Y-77753191D01*
X118496824Y-77690677D01*
X118490906Y-77686841D01*
X118484150Y-77684821D01*
X118484149Y-77684820D01*
X118441335Y-77672016D01*
X118367273Y-77649866D01*
X118290644Y-77649398D01*
X118245282Y-77649121D01*
X118238231Y-77649078D01*
X118231454Y-77651015D01*
X118231453Y-77651015D01*
X118120935Y-77682601D01*
X118120933Y-77682602D01*
X118114155Y-77684539D01*
X118005019Y-77753399D01*
X117919596Y-77850122D01*
X117864754Y-77966932D01*
X117844901Y-78094440D01*
X76200500Y-78094440D01*
X76200500Y-72299500D01*
X76219407Y-72241309D01*
X76268907Y-72205345D01*
X76299500Y-72200500D01*
X117140946Y-72200500D01*
X117141640Y-72200502D01*
G37*
%TD.AperFunction*%
%TD*%
M02*
