%TF.GenerationSoftware,KiCad,Pcbnew,(6.0.7)*%
%TF.CreationDate,2022-11-13T02:02:31+01:00*%
%TF.ProjectId,TTL_to_HDMI,54544c5f-746f-45f4-9844-4d492e6b6963,rev?*%
%TF.SameCoordinates,Original*%
%TF.FileFunction,Profile,NP*%
%FSLAX46Y46*%
G04 Gerber Fmt 4.6, Leading zero omitted, Abs format (unit mm)*
G04 Created by KiCad (PCBNEW (6.0.7)) date 2022-11-13 02:02:31*
%MOMM*%
%LPD*%
G01*
G04 APERTURE LIST*
%TA.AperFunction,Profile*%
%ADD10C,0.100000*%
%TD*%
G04 APERTURE END LIST*
D10*
X135000000Y-93000000D02*
X135000000Y-114400000D01*
X116000000Y-112800000D02*
G75*
G03*
X115000000Y-113800000I0J-1000000D01*
G01*
X130000000Y-97000000D02*
G75*
G03*
X131000000Y-96000000I0J1000000D01*
G01*
X115000000Y-113800000D02*
X115000000Y-119000000D01*
X131000000Y-114400000D02*
G75*
G03*
X130000000Y-113400000I-1000000J0D01*
G01*
X76000000Y-72000000D02*
X124000000Y-72000000D01*
X131000000Y-93000000D02*
X135000000Y-93000000D01*
X116999984Y-113400008D02*
G75*
G03*
X116000000Y-112800000I-999984J-533292D01*
G01*
X117200000Y-95000000D02*
G75*
G03*
X116200000Y-96000000I0J-1000000D01*
G01*
X76000000Y-119000000D02*
X76000000Y-72000000D01*
X130000000Y-113400000D02*
X117000000Y-113400000D01*
X124000000Y-72000000D02*
X124000000Y-94000000D01*
X131000000Y-114400000D02*
X131000000Y-117400000D01*
X131000000Y-117400000D02*
X135000000Y-117400000D01*
X135000000Y-117400000D02*
X135000000Y-114400000D01*
X116200000Y-96000000D02*
G75*
G03*
X117200000Y-97000000I1000000J0D01*
G01*
X117200000Y-95000000D02*
X124000000Y-95000000D01*
X117200000Y-97000000D02*
X130000000Y-97000000D01*
X131000000Y-96000000D02*
X131000000Y-93000000D01*
X124000000Y-94000000D02*
X124000000Y-95000000D01*
X115000000Y-119000000D02*
X76000000Y-119000000D01*
M02*
