%TF.GenerationSoftware,KiCad,Pcbnew,(6.0.7)*%
%TF.CreationDate,2022-10-26T00:08:39+02:00*%
%TF.ProjectId,TTL_to_HDMI,54544c5f-746f-45f4-9844-4d492e6b6963,rev?*%
%TF.SameCoordinates,Original*%
%TF.FileFunction,Legend,Top*%
%TF.FilePolarity,Positive*%
%FSLAX46Y46*%
G04 Gerber Fmt 4.6, Leading zero omitted, Abs format (unit mm)*
G04 Created by KiCad (PCBNEW (6.0.7)) date 2022-10-26 00:08:39*
%MOMM*%
%LPD*%
G01*
G04 APERTURE LIST*
%ADD10C,0.150000*%
%ADD11C,0.100000*%
%ADD12C,0.120000*%
G04 APERTURE END LIST*
D10*
X87100000Y-81300000D02*
X87100000Y-81900000D01*
X82100000Y-81300000D02*
X82100000Y-81900000D01*
X99750000Y-115300000D02*
X102500000Y-115300000D01*
X87800000Y-81300000D02*
X87100000Y-81300000D01*
X90100000Y-81300000D02*
X90100000Y-80700000D01*
D11*
X112200000Y-100200000D02*
X112200000Y-110000000D01*
D10*
X116000000Y-97000000D02*
X117000000Y-97000000D01*
X116000000Y-97000000D02*
X116000000Y-112800000D01*
X87100000Y-81300000D02*
X87100000Y-80700000D01*
X82100000Y-81300000D02*
X82100000Y-80700000D01*
D11*
X120000000Y-100200000D02*
X120000000Y-110000000D01*
D10*
X79100000Y-81300000D02*
X79100000Y-81900000D01*
X83100000Y-81300000D02*
X83100000Y-81900000D01*
X85400000Y-81300000D02*
X86100000Y-81300000D01*
X79100000Y-81300000D02*
X79100000Y-80700000D01*
X102800000Y-113625000D02*
X104225000Y-113625000D01*
X79800000Y-81300000D02*
X79100000Y-81300000D01*
X102500000Y-115300000D02*
X102500000Y-113925000D01*
X83800000Y-81300000D02*
X83100000Y-81300000D01*
X102500000Y-113925000D02*
X102800000Y-113625000D01*
X86100000Y-81300000D02*
X86100000Y-81900000D01*
X81400000Y-81300000D02*
X82100000Y-81300000D01*
X86100000Y-81300000D02*
X86100000Y-80700000D01*
X90100000Y-81300000D02*
X90100000Y-81900000D01*
X104225000Y-113625000D02*
X104525000Y-113325000D01*
X83100000Y-81300000D02*
X83100000Y-80700000D01*
X89400000Y-81300000D02*
X90100000Y-81300000D01*
X91661904Y-80752380D02*
X92280952Y-80752380D01*
X91947619Y-81133333D01*
X92090476Y-81133333D01*
X92185714Y-81180952D01*
X92233333Y-81228571D01*
X92280952Y-81323809D01*
X92280952Y-81561904D01*
X92233333Y-81657142D01*
X92185714Y-81704761D01*
X92090476Y-81752380D01*
X91804761Y-81752380D01*
X91709523Y-81704761D01*
X91661904Y-81657142D01*
X92566666Y-80752380D02*
X92900000Y-81752380D01*
X93233333Y-80752380D01*
X93471428Y-80752380D02*
X94090476Y-80752380D01*
X93757142Y-81133333D01*
X93900000Y-81133333D01*
X93995238Y-81180952D01*
X94042857Y-81228571D01*
X94090476Y-81323809D01*
X94090476Y-81561904D01*
X94042857Y-81657142D01*
X93995238Y-81704761D01*
X93900000Y-81752380D01*
X93614285Y-81752380D01*
X93519047Y-81704761D01*
X93471428Y-81657142D01*
X84861904Y-80800000D02*
X84766666Y-80752380D01*
X84623809Y-80752380D01*
X84480952Y-80800000D01*
X84385714Y-80895238D01*
X84338095Y-80990476D01*
X84290476Y-81180952D01*
X84290476Y-81323809D01*
X84338095Y-81514285D01*
X84385714Y-81609523D01*
X84480952Y-81704761D01*
X84623809Y-81752380D01*
X84719047Y-81752380D01*
X84861904Y-81704761D01*
X84909523Y-81657142D01*
X84909523Y-81323809D01*
X84719047Y-81323809D01*
X77242857Y-117952380D02*
X76909523Y-117476190D01*
X76671428Y-117952380D02*
X76671428Y-116952380D01*
X77052380Y-116952380D01*
X77147619Y-117000000D01*
X77195238Y-117047619D01*
X77242857Y-117142857D01*
X77242857Y-117285714D01*
X77195238Y-117380952D01*
X77147619Y-117428571D01*
X77052380Y-117476190D01*
X76671428Y-117476190D01*
X77671428Y-117952380D02*
X77671428Y-117285714D01*
X77671428Y-116952380D02*
X77623809Y-117000000D01*
X77671428Y-117047619D01*
X77719047Y-117000000D01*
X77671428Y-116952380D01*
X77671428Y-117047619D01*
X78576190Y-117285714D02*
X78576190Y-118095238D01*
X78528571Y-118190476D01*
X78480952Y-118238095D01*
X78385714Y-118285714D01*
X78242857Y-118285714D01*
X78147619Y-118238095D01*
X78576190Y-117904761D02*
X78480952Y-117952380D01*
X78290476Y-117952380D01*
X78195238Y-117904761D01*
X78147619Y-117857142D01*
X78100000Y-117761904D01*
X78100000Y-117476190D01*
X78147619Y-117380952D01*
X78195238Y-117333333D01*
X78290476Y-117285714D01*
X78480952Y-117285714D01*
X78576190Y-117333333D01*
X79195238Y-117952380D02*
X79100000Y-117904761D01*
X79052380Y-117857142D01*
X79004761Y-117761904D01*
X79004761Y-117476190D01*
X79052380Y-117380952D01*
X79100000Y-117333333D01*
X79195238Y-117285714D01*
X79338095Y-117285714D01*
X79433333Y-117333333D01*
X79480952Y-117380952D01*
X79528571Y-117476190D01*
X79528571Y-117761904D01*
X79480952Y-117857142D01*
X79433333Y-117904761D01*
X79338095Y-117952380D01*
X79195238Y-117952380D01*
X80100000Y-117952380D02*
X80004761Y-117904761D01*
X79957142Y-117809523D01*
X79957142Y-116952380D01*
X81242857Y-117952380D02*
X81242857Y-116952380D01*
X81480952Y-116952380D01*
X81623809Y-117000000D01*
X81719047Y-117095238D01*
X81766666Y-117190476D01*
X81814285Y-117380952D01*
X81814285Y-117523809D01*
X81766666Y-117714285D01*
X81719047Y-117809523D01*
X81623809Y-117904761D01*
X81480952Y-117952380D01*
X81242857Y-117952380D01*
X82195238Y-117904761D02*
X82338095Y-117952380D01*
X82576190Y-117952380D01*
X82671428Y-117904761D01*
X82719047Y-117857142D01*
X82766666Y-117761904D01*
X82766666Y-117666666D01*
X82719047Y-117571428D01*
X82671428Y-117523809D01*
X82576190Y-117476190D01*
X82385714Y-117428571D01*
X82290476Y-117380952D01*
X82242857Y-117333333D01*
X82195238Y-117238095D01*
X82195238Y-117142857D01*
X82242857Y-117047619D01*
X82290476Y-117000000D01*
X82385714Y-116952380D01*
X82623809Y-116952380D01*
X82766666Y-117000000D01*
X83719047Y-117952380D02*
X83147619Y-117952380D01*
X83433333Y-117952380D02*
X83433333Y-116952380D01*
X83338095Y-117095238D01*
X83242857Y-117190476D01*
X83147619Y-117238095D01*
X84338095Y-116952380D02*
X84433333Y-116952380D01*
X84528571Y-117000000D01*
X84576190Y-117047619D01*
X84623809Y-117142857D01*
X84671428Y-117333333D01*
X84671428Y-117571428D01*
X84623809Y-117761904D01*
X84576190Y-117857142D01*
X84528571Y-117904761D01*
X84433333Y-117952380D01*
X84338095Y-117952380D01*
X84242857Y-117904761D01*
X84195238Y-117857142D01*
X84147619Y-117761904D01*
X84100000Y-117571428D01*
X84100000Y-117333333D01*
X84147619Y-117142857D01*
X84195238Y-117047619D01*
X84242857Y-117000000D01*
X84338095Y-116952380D01*
X85576190Y-116952380D02*
X85100000Y-116952380D01*
X85052380Y-117428571D01*
X85100000Y-117380952D01*
X85195238Y-117333333D01*
X85433333Y-117333333D01*
X85528571Y-117380952D01*
X85576190Y-117428571D01*
X85623809Y-117523809D01*
X85623809Y-117761904D01*
X85576190Y-117857142D01*
X85528571Y-117904761D01*
X85433333Y-117952380D01*
X85195238Y-117952380D01*
X85100000Y-117904761D01*
X85052380Y-117857142D01*
X86480952Y-117285714D02*
X86480952Y-117952380D01*
X86242857Y-116904761D02*
X86004761Y-117619047D01*
X86623809Y-117619047D01*
X86909523Y-116952380D02*
X87576190Y-116952380D01*
X86909523Y-117952380D01*
X87576190Y-117952380D01*
X88719047Y-117952380D02*
X88719047Y-116952380D01*
X88719047Y-117428571D02*
X89290476Y-117428571D01*
X89290476Y-117952380D02*
X89290476Y-116952380D01*
X89766666Y-117952380D02*
X89766666Y-116952380D01*
X90004761Y-116952380D01*
X90147619Y-117000000D01*
X90242857Y-117095238D01*
X90290476Y-117190476D01*
X90338095Y-117380952D01*
X90338095Y-117523809D01*
X90290476Y-117714285D01*
X90242857Y-117809523D01*
X90147619Y-117904761D01*
X90004761Y-117952380D01*
X89766666Y-117952380D01*
X90766666Y-117952380D02*
X90766666Y-116952380D01*
X91099999Y-117666666D01*
X91433333Y-116952380D01*
X91433333Y-117952380D01*
X91909523Y-117952380D02*
X91909523Y-116952380D01*
X93338095Y-116952380D02*
X93528571Y-116952380D01*
X93623809Y-117000000D01*
X93719047Y-117095238D01*
X93766666Y-117285714D01*
X93766666Y-117619047D01*
X93719047Y-117809523D01*
X93623809Y-117904761D01*
X93528571Y-117952380D01*
X93338095Y-117952380D01*
X93242857Y-117904761D01*
X93147619Y-117809523D01*
X93099999Y-117619047D01*
X93099999Y-117285714D01*
X93147619Y-117095238D01*
X93242857Y-117000000D01*
X93338095Y-116952380D01*
X94195238Y-116952380D02*
X94195238Y-117761904D01*
X94242857Y-117857142D01*
X94290476Y-117904761D01*
X94385714Y-117952380D01*
X94576190Y-117952380D01*
X94671428Y-117904761D01*
X94719047Y-117857142D01*
X94766666Y-117761904D01*
X94766666Y-116952380D01*
X95099999Y-116952380D02*
X95671428Y-116952380D01*
X95385714Y-117952380D02*
X95385714Y-116952380D01*
X96623809Y-116952380D02*
X96957142Y-117952380D01*
X97290476Y-116952380D01*
X97814285Y-116952380D02*
X97909523Y-116952380D01*
X98004761Y-117000000D01*
X98052380Y-117047619D01*
X98099999Y-117142857D01*
X98147619Y-117333333D01*
X98147619Y-117571428D01*
X98099999Y-117761904D01*
X98052380Y-117857142D01*
X98004761Y-117904761D01*
X97909523Y-117952380D01*
X97814285Y-117952380D01*
X97719047Y-117904761D01*
X97671428Y-117857142D01*
X97623809Y-117761904D01*
X97576190Y-117571428D01*
X97576190Y-117333333D01*
X97623809Y-117142857D01*
X97671428Y-117047619D01*
X97719047Y-117000000D01*
X97814285Y-116952380D01*
X98576190Y-117857142D02*
X98623809Y-117904761D01*
X98576190Y-117952380D01*
X98528571Y-117904761D01*
X98576190Y-117857142D01*
X98576190Y-117952380D01*
X99576190Y-117952380D02*
X99004761Y-117952380D01*
X99290476Y-117952380D02*
X99290476Y-116952380D01*
X99195238Y-117095238D01*
X99099999Y-117190476D01*
X99004761Y-117238095D01*
X95809523Y-80752380D02*
X95333333Y-80752380D01*
X95285714Y-81228571D01*
X95333333Y-81180952D01*
X95428571Y-81133333D01*
X95666666Y-81133333D01*
X95761904Y-81180952D01*
X95809523Y-81228571D01*
X95857142Y-81323809D01*
X95857142Y-81561904D01*
X95809523Y-81657142D01*
X95761904Y-81704761D01*
X95666666Y-81752380D01*
X95428571Y-81752380D01*
X95333333Y-81704761D01*
X95285714Y-81657142D01*
X96142857Y-80752380D02*
X96476190Y-81752380D01*
X96809523Y-80752380D01*
X99052380Y-79852380D02*
X98719047Y-79376190D01*
X98480952Y-79852380D02*
X98480952Y-78852380D01*
X98861904Y-78852380D01*
X98957142Y-78900000D01*
X99004761Y-78947619D01*
X99052380Y-79042857D01*
X99052380Y-79185714D01*
X99004761Y-79280952D01*
X98957142Y-79328571D01*
X98861904Y-79376190D01*
X98480952Y-79376190D01*
X99433333Y-79804761D02*
X99576190Y-79852380D01*
X99814285Y-79852380D01*
X99909523Y-79804761D01*
X99957142Y-79757142D01*
X100004761Y-79661904D01*
X100004761Y-79566666D01*
X99957142Y-79471428D01*
X99909523Y-79423809D01*
X99814285Y-79376190D01*
X99623809Y-79328571D01*
X99528571Y-79280952D01*
X99480952Y-79233333D01*
X99433333Y-79138095D01*
X99433333Y-79042857D01*
X99480952Y-78947619D01*
X99528571Y-78900000D01*
X99623809Y-78852380D01*
X99861904Y-78852380D01*
X100004761Y-78900000D01*
X100290476Y-78852380D02*
X100861904Y-78852380D01*
X100576190Y-79852380D02*
X100576190Y-78852380D01*
X81009523Y-81752380D02*
X80676190Y-81276190D01*
X80438095Y-81752380D02*
X80438095Y-80752380D01*
X80819047Y-80752380D01*
X80914285Y-80800000D01*
X80961904Y-80847619D01*
X81009523Y-80942857D01*
X81009523Y-81085714D01*
X80961904Y-81180952D01*
X80914285Y-81228571D01*
X80819047Y-81276190D01*
X80438095Y-81276190D01*
X121040355Y-73141370D02*
X121579103Y-73680118D01*
X121040355Y-73680118D02*
X121579103Y-73141370D01*
X122690270Y-73915820D02*
X122353553Y-73579103D01*
X121983164Y-73882148D01*
X122050507Y-73882148D01*
X122151522Y-73915820D01*
X122319881Y-74084179D01*
X122353553Y-74185194D01*
X122353553Y-74252538D01*
X122319881Y-74353553D01*
X122151522Y-74521912D01*
X122050507Y-74555583D01*
X121983164Y-74555583D01*
X121882148Y-74521912D01*
X121713790Y-74353553D01*
X121680118Y-74252538D01*
X121680118Y-74185194D01*
X122925973Y-74151522D02*
X122454568Y-75094331D01*
X123397377Y-74622927D01*
X120814805Y-77907698D02*
X120781133Y-77806683D01*
X120680118Y-77705668D01*
X120545431Y-77638324D01*
X120410744Y-77638324D01*
X120309729Y-77671996D01*
X120141370Y-77773011D01*
X120040355Y-77874026D01*
X119939339Y-78042385D01*
X119905668Y-78143400D01*
X119905668Y-78278087D01*
X119973011Y-78412774D01*
X120040355Y-78480118D01*
X120175042Y-78547461D01*
X120242385Y-78547461D01*
X120478087Y-78311759D01*
X120343400Y-78177072D01*
X120478087Y-78917851D02*
X121185194Y-78210744D01*
X120882148Y-79321912D01*
X121589255Y-78614805D01*
X121218866Y-79658629D02*
X121925973Y-78951522D01*
X122094331Y-79119881D01*
X122161675Y-79254568D01*
X122161675Y-79389255D01*
X122128003Y-79490270D01*
X122026988Y-79658629D01*
X121925973Y-79759644D01*
X121757614Y-79860660D01*
X121656599Y-79894331D01*
X121521912Y-79894331D01*
X121387225Y-79826988D01*
X121218866Y-79658629D01*
X88671428Y-81228571D02*
X88814285Y-81276190D01*
X88861904Y-81323809D01*
X88909523Y-81419047D01*
X88909523Y-81561904D01*
X88861904Y-81657142D01*
X88814285Y-81704761D01*
X88719047Y-81752380D01*
X88338095Y-81752380D01*
X88338095Y-80752380D01*
X88671428Y-80752380D01*
X88766666Y-80800000D01*
X88814285Y-80847619D01*
X88861904Y-80942857D01*
X88861904Y-81038095D01*
X88814285Y-81133333D01*
X88766666Y-81180952D01*
X88671428Y-81228571D01*
X88338095Y-81228571D01*
X101733333Y-72500000D02*
X101657142Y-72452380D01*
X101542857Y-72452380D01*
X101428571Y-72500000D01*
X101352380Y-72595238D01*
X101314285Y-72690476D01*
X101276190Y-72880952D01*
X101276190Y-73023809D01*
X101314285Y-73214285D01*
X101352380Y-73309523D01*
X101428571Y-73404761D01*
X101542857Y-73452380D01*
X101619047Y-73452380D01*
X101733333Y-73404761D01*
X101771428Y-73357142D01*
X101771428Y-73023809D01*
X101619047Y-73023809D01*
X102114285Y-73452380D02*
X102114285Y-72452380D01*
X102571428Y-73452380D01*
X102571428Y-72452380D01*
X102952380Y-73452380D02*
X102952380Y-72452380D01*
X103142857Y-72452380D01*
X103257142Y-72500000D01*
X103333333Y-72595238D01*
X103371428Y-72690476D01*
X103409523Y-72880952D01*
X103409523Y-73023809D01*
X103371428Y-73214285D01*
X103333333Y-73309523D01*
X103257142Y-73404761D01*
X103142857Y-73452380D01*
X102952380Y-73452380D01*
X104819047Y-73452380D02*
X104552380Y-72976190D01*
X104361904Y-73452380D02*
X104361904Y-72452380D01*
X104666666Y-72452380D01*
X104742857Y-72500000D01*
X104780952Y-72547619D01*
X104819047Y-72642857D01*
X104819047Y-72785714D01*
X104780952Y-72880952D01*
X104742857Y-72928571D01*
X104666666Y-72976190D01*
X104361904Y-72976190D01*
X105085714Y-72452380D02*
X105619047Y-73452380D01*
X105619047Y-72452380D02*
X105085714Y-73452380D01*
X106419047Y-72452380D02*
X106876190Y-72452380D01*
X106647619Y-73452380D02*
X106647619Y-72452380D01*
X107066666Y-72452380D02*
X107600000Y-73452380D01*
X107600000Y-72452380D02*
X107066666Y-73452380D01*
X108971428Y-73452380D02*
X108704761Y-72976190D01*
X108514285Y-73452380D02*
X108514285Y-72452380D01*
X108819047Y-72452380D01*
X108895238Y-72500000D01*
X108933333Y-72547619D01*
X108971428Y-72642857D01*
X108971428Y-72785714D01*
X108933333Y-72880952D01*
X108895238Y-72928571D01*
X108819047Y-72976190D01*
X108514285Y-72976190D01*
X109276190Y-73404761D02*
X109390476Y-73452380D01*
X109580952Y-73452380D01*
X109657142Y-73404761D01*
X109695238Y-73357142D01*
X109733333Y-73261904D01*
X109733333Y-73166666D01*
X109695238Y-73071428D01*
X109657142Y-73023809D01*
X109580952Y-72976190D01*
X109428571Y-72928571D01*
X109352380Y-72880952D01*
X109314285Y-72833333D01*
X109276190Y-72738095D01*
X109276190Y-72642857D01*
X109314285Y-72547619D01*
X109352380Y-72500000D01*
X109428571Y-72452380D01*
X109619047Y-72452380D01*
X109733333Y-72500000D01*
X109961904Y-72452380D02*
X110419047Y-72452380D01*
X110190476Y-73452380D02*
X110190476Y-72452380D01*
X111295238Y-73452380D02*
X111295238Y-72452380D01*
X111485714Y-72452380D01*
X111600000Y-72500000D01*
X111676190Y-72595238D01*
X111714285Y-72690476D01*
X111752380Y-72880952D01*
X111752380Y-73023809D01*
X111714285Y-73214285D01*
X111676190Y-73309523D01*
X111600000Y-73404761D01*
X111485714Y-73452380D01*
X111295238Y-73452380D01*
X112095238Y-73452380D02*
X112095238Y-72452380D01*
X112628571Y-72452380D02*
X112780952Y-72452380D01*
X112857142Y-72500000D01*
X112933333Y-72595238D01*
X112971428Y-72785714D01*
X112971428Y-73119047D01*
X112933333Y-73309523D01*
X112857142Y-73404761D01*
X112780952Y-73452380D01*
X112628571Y-73452380D01*
X112552380Y-73404761D01*
X112476190Y-73309523D01*
X112438095Y-73119047D01*
X112438095Y-72785714D01*
X112476190Y-72595238D01*
X112552380Y-72500000D01*
X112628571Y-72452380D01*
X114380952Y-73357142D02*
X114342857Y-73404761D01*
X114228571Y-73452380D01*
X114152380Y-73452380D01*
X114038095Y-73404761D01*
X113961904Y-73309523D01*
X113923809Y-73214285D01*
X113885714Y-73023809D01*
X113885714Y-72880952D01*
X113923809Y-72690476D01*
X113961904Y-72595238D01*
X114038095Y-72500000D01*
X114152380Y-72452380D01*
X114228571Y-72452380D01*
X114342857Y-72500000D01*
X114380952Y-72547619D01*
X115104761Y-73452380D02*
X114723809Y-73452380D01*
X114723809Y-72452380D01*
X115371428Y-73452380D02*
X115371428Y-72452380D01*
X115828571Y-73452380D02*
X115485714Y-72880952D01*
X115828571Y-72452380D02*
X115371428Y-73023809D01*
X116666666Y-72452380D02*
X116933333Y-73452380D01*
X117200000Y-72452380D01*
X117923809Y-73357142D02*
X117885714Y-73404761D01*
X117771428Y-73452380D01*
X117695238Y-73452380D01*
X117580952Y-73404761D01*
X117504761Y-73309523D01*
X117466666Y-73214285D01*
X117428571Y-73023809D01*
X117428571Y-72880952D01*
X117466666Y-72690476D01*
X117504761Y-72595238D01*
X117580952Y-72500000D01*
X117695238Y-72452380D01*
X117771428Y-72452380D01*
X117885714Y-72500000D01*
X117923809Y-72547619D01*
X118723809Y-73357142D02*
X118685714Y-73404761D01*
X118571428Y-73452380D01*
X118495238Y-73452380D01*
X118380952Y-73404761D01*
X118304761Y-73309523D01*
X118266666Y-73214285D01*
X118228571Y-73023809D01*
X118228571Y-72880952D01*
X118266666Y-72690476D01*
X118304761Y-72595238D01*
X118380952Y-72500000D01*
X118495238Y-72452380D01*
X118571428Y-72452380D01*
X118685714Y-72500000D01*
X118723809Y-72547619D01*
X76904761Y-81657142D02*
X76857142Y-81704761D01*
X76714285Y-81752380D01*
X76619047Y-81752380D01*
X76476190Y-81704761D01*
X76380952Y-81609523D01*
X76333333Y-81514285D01*
X76285714Y-81323809D01*
X76285714Y-81180952D01*
X76333333Y-80990476D01*
X76380952Y-80895238D01*
X76476190Y-80800000D01*
X76619047Y-80752380D01*
X76714285Y-80752380D01*
X76857142Y-80800000D01*
X76904761Y-80847619D01*
X77809523Y-81752380D02*
X77333333Y-81752380D01*
X77333333Y-80752380D01*
X78142857Y-81752380D02*
X78142857Y-80752380D01*
X78714285Y-81752380D02*
X78285714Y-81180952D01*
X78714285Y-80752380D02*
X78142857Y-81323809D01*
%TO.C,R3*%
X90683333Y-115927380D02*
X90350000Y-115451190D01*
X90111904Y-115927380D02*
X90111904Y-114927380D01*
X90492857Y-114927380D01*
X90588095Y-114975000D01*
X90635714Y-115022619D01*
X90683333Y-115117857D01*
X90683333Y-115260714D01*
X90635714Y-115355952D01*
X90588095Y-115403571D01*
X90492857Y-115451190D01*
X90111904Y-115451190D01*
X91016666Y-114927380D02*
X91635714Y-114927380D01*
X91302380Y-115308333D01*
X91445238Y-115308333D01*
X91540476Y-115355952D01*
X91588095Y-115403571D01*
X91635714Y-115498809D01*
X91635714Y-115736904D01*
X91588095Y-115832142D01*
X91540476Y-115879761D01*
X91445238Y-115927380D01*
X91159523Y-115927380D01*
X91064285Y-115879761D01*
X91016666Y-115832142D01*
%TO.C,D1*%
X123652380Y-94738095D02*
X122652380Y-94738095D01*
X122652380Y-94500000D01*
X122700000Y-94357142D01*
X122795238Y-94261904D01*
X122890476Y-94214285D01*
X123080952Y-94166666D01*
X123223809Y-94166666D01*
X123414285Y-94214285D01*
X123509523Y-94261904D01*
X123604761Y-94357142D01*
X123652380Y-94500000D01*
X123652380Y-94738095D01*
X123652380Y-93214285D02*
X123652380Y-93785714D01*
X123652380Y-93500000D02*
X122652380Y-93500000D01*
X122795238Y-93595238D01*
X122890476Y-93690476D01*
X122938095Y-93785714D01*
%TO.C,C14*%
X107157142Y-103807142D02*
X107109523Y-103854761D01*
X106966666Y-103902380D01*
X106871428Y-103902380D01*
X106728571Y-103854761D01*
X106633333Y-103759523D01*
X106585714Y-103664285D01*
X106538095Y-103473809D01*
X106538095Y-103330952D01*
X106585714Y-103140476D01*
X106633333Y-103045238D01*
X106728571Y-102950000D01*
X106871428Y-102902380D01*
X106966666Y-102902380D01*
X107109523Y-102950000D01*
X107157142Y-102997619D01*
X108109523Y-103902380D02*
X107538095Y-103902380D01*
X107823809Y-103902380D02*
X107823809Y-102902380D01*
X107728571Y-103045238D01*
X107633333Y-103140476D01*
X107538095Y-103188095D01*
X108966666Y-103235714D02*
X108966666Y-103902380D01*
X108728571Y-102854761D02*
X108490476Y-103569047D01*
X109109523Y-103569047D01*
%TO.C,J6*%
X110666666Y-97452380D02*
X110666666Y-98166666D01*
X110619047Y-98309523D01*
X110523809Y-98404761D01*
X110380952Y-98452380D01*
X110285714Y-98452380D01*
X111571428Y-97452380D02*
X111380952Y-97452380D01*
X111285714Y-97500000D01*
X111238095Y-97547619D01*
X111142857Y-97690476D01*
X111095238Y-97880952D01*
X111095238Y-98261904D01*
X111142857Y-98357142D01*
X111190476Y-98404761D01*
X111285714Y-98452380D01*
X111476190Y-98452380D01*
X111571428Y-98404761D01*
X111619047Y-98357142D01*
X111666666Y-98261904D01*
X111666666Y-98023809D01*
X111619047Y-97928571D01*
X111571428Y-97880952D01*
X111476190Y-97833333D01*
X111285714Y-97833333D01*
X111190476Y-97880952D01*
X111142857Y-97928571D01*
X111095238Y-98023809D01*
%TO.C,R22*%
X98307142Y-107102380D02*
X97973809Y-106626190D01*
X97735714Y-107102380D02*
X97735714Y-106102380D01*
X98116666Y-106102380D01*
X98211904Y-106150000D01*
X98259523Y-106197619D01*
X98307142Y-106292857D01*
X98307142Y-106435714D01*
X98259523Y-106530952D01*
X98211904Y-106578571D01*
X98116666Y-106626190D01*
X97735714Y-106626190D01*
X98688095Y-106197619D02*
X98735714Y-106150000D01*
X98830952Y-106102380D01*
X99069047Y-106102380D01*
X99164285Y-106150000D01*
X99211904Y-106197619D01*
X99259523Y-106292857D01*
X99259523Y-106388095D01*
X99211904Y-106530952D01*
X98640476Y-107102380D01*
X99259523Y-107102380D01*
X99640476Y-106197619D02*
X99688095Y-106150000D01*
X99783333Y-106102380D01*
X100021428Y-106102380D01*
X100116666Y-106150000D01*
X100164285Y-106197619D01*
X100211904Y-106292857D01*
X100211904Y-106388095D01*
X100164285Y-106530952D01*
X99592857Y-107102380D01*
X100211904Y-107102380D01*
%TO.C,*%
%TO.C,C15*%
X107157142Y-107057142D02*
X107109523Y-107104761D01*
X106966666Y-107152380D01*
X106871428Y-107152380D01*
X106728571Y-107104761D01*
X106633333Y-107009523D01*
X106585714Y-106914285D01*
X106538095Y-106723809D01*
X106538095Y-106580952D01*
X106585714Y-106390476D01*
X106633333Y-106295238D01*
X106728571Y-106200000D01*
X106871428Y-106152380D01*
X106966666Y-106152380D01*
X107109523Y-106200000D01*
X107157142Y-106247619D01*
X108109523Y-107152380D02*
X107538095Y-107152380D01*
X107823809Y-107152380D02*
X107823809Y-106152380D01*
X107728571Y-106295238D01*
X107633333Y-106390476D01*
X107538095Y-106438095D01*
X109014285Y-106152380D02*
X108538095Y-106152380D01*
X108490476Y-106628571D01*
X108538095Y-106580952D01*
X108633333Y-106533333D01*
X108871428Y-106533333D01*
X108966666Y-106580952D01*
X109014285Y-106628571D01*
X109061904Y-106723809D01*
X109061904Y-106961904D01*
X109014285Y-107057142D01*
X108966666Y-107104761D01*
X108871428Y-107152380D01*
X108633333Y-107152380D01*
X108538095Y-107104761D01*
X108490476Y-107057142D01*
%TO.C,R12*%
X75757142Y-95052380D02*
X75423809Y-94576190D01*
X75185714Y-95052380D02*
X75185714Y-94052380D01*
X75566666Y-94052380D01*
X75661904Y-94100000D01*
X75709523Y-94147619D01*
X75757142Y-94242857D01*
X75757142Y-94385714D01*
X75709523Y-94480952D01*
X75661904Y-94528571D01*
X75566666Y-94576190D01*
X75185714Y-94576190D01*
X76709523Y-95052380D02*
X76138095Y-95052380D01*
X76423809Y-95052380D02*
X76423809Y-94052380D01*
X76328571Y-94195238D01*
X76233333Y-94290476D01*
X76138095Y-94338095D01*
X77090476Y-94147619D02*
X77138095Y-94100000D01*
X77233333Y-94052380D01*
X77471428Y-94052380D01*
X77566666Y-94100000D01*
X77614285Y-94147619D01*
X77661904Y-94242857D01*
X77661904Y-94338095D01*
X77614285Y-94480952D01*
X77042857Y-95052380D01*
X77661904Y-95052380D01*
%TO.C,R19*%
X98232142Y-102327380D02*
X97898809Y-101851190D01*
X97660714Y-102327380D02*
X97660714Y-101327380D01*
X98041666Y-101327380D01*
X98136904Y-101375000D01*
X98184523Y-101422619D01*
X98232142Y-101517857D01*
X98232142Y-101660714D01*
X98184523Y-101755952D01*
X98136904Y-101803571D01*
X98041666Y-101851190D01*
X97660714Y-101851190D01*
X99184523Y-102327380D02*
X98613095Y-102327380D01*
X98898809Y-102327380D02*
X98898809Y-101327380D01*
X98803571Y-101470238D01*
X98708333Y-101565476D01*
X98613095Y-101613095D01*
X99660714Y-102327380D02*
X99851190Y-102327380D01*
X99946428Y-102279761D01*
X99994047Y-102232142D01*
X100089285Y-102089285D01*
X100136904Y-101898809D01*
X100136904Y-101517857D01*
X100089285Y-101422619D01*
X100041666Y-101375000D01*
X99946428Y-101327380D01*
X99755952Y-101327380D01*
X99660714Y-101375000D01*
X99613095Y-101422619D01*
X99565476Y-101517857D01*
X99565476Y-101755952D01*
X99613095Y-101851190D01*
X99660714Y-101898809D01*
X99755952Y-101946428D01*
X99946428Y-101946428D01*
X100041666Y-101898809D01*
X100089285Y-101851190D01*
X100136904Y-101755952D01*
%TO.C,R18*%
X98257142Y-100652380D02*
X97923809Y-100176190D01*
X97685714Y-100652380D02*
X97685714Y-99652380D01*
X98066666Y-99652380D01*
X98161904Y-99700000D01*
X98209523Y-99747619D01*
X98257142Y-99842857D01*
X98257142Y-99985714D01*
X98209523Y-100080952D01*
X98161904Y-100128571D01*
X98066666Y-100176190D01*
X97685714Y-100176190D01*
X99209523Y-100652380D02*
X98638095Y-100652380D01*
X98923809Y-100652380D02*
X98923809Y-99652380D01*
X98828571Y-99795238D01*
X98733333Y-99890476D01*
X98638095Y-99938095D01*
X99780952Y-100080952D02*
X99685714Y-100033333D01*
X99638095Y-99985714D01*
X99590476Y-99890476D01*
X99590476Y-99842857D01*
X99638095Y-99747619D01*
X99685714Y-99700000D01*
X99780952Y-99652380D01*
X99971428Y-99652380D01*
X100066666Y-99700000D01*
X100114285Y-99747619D01*
X100161904Y-99842857D01*
X100161904Y-99890476D01*
X100114285Y-99985714D01*
X100066666Y-100033333D01*
X99971428Y-100080952D01*
X99780952Y-100080952D01*
X99685714Y-100128571D01*
X99638095Y-100176190D01*
X99590476Y-100271428D01*
X99590476Y-100461904D01*
X99638095Y-100557142D01*
X99685714Y-100604761D01*
X99780952Y-100652380D01*
X99971428Y-100652380D01*
X100066666Y-100604761D01*
X100114285Y-100557142D01*
X100161904Y-100461904D01*
X100161904Y-100271428D01*
X100114285Y-100176190D01*
X100066666Y-100128571D01*
X99971428Y-100080952D01*
%TO.C,R28*%
X104632142Y-116152380D02*
X104298809Y-115676190D01*
X104060714Y-116152380D02*
X104060714Y-115152380D01*
X104441666Y-115152380D01*
X104536904Y-115200000D01*
X104584523Y-115247619D01*
X104632142Y-115342857D01*
X104632142Y-115485714D01*
X104584523Y-115580952D01*
X104536904Y-115628571D01*
X104441666Y-115676190D01*
X104060714Y-115676190D01*
X105013095Y-115247619D02*
X105060714Y-115200000D01*
X105155952Y-115152380D01*
X105394047Y-115152380D01*
X105489285Y-115200000D01*
X105536904Y-115247619D01*
X105584523Y-115342857D01*
X105584523Y-115438095D01*
X105536904Y-115580952D01*
X104965476Y-116152380D01*
X105584523Y-116152380D01*
X106155952Y-115580952D02*
X106060714Y-115533333D01*
X106013095Y-115485714D01*
X105965476Y-115390476D01*
X105965476Y-115342857D01*
X106013095Y-115247619D01*
X106060714Y-115200000D01*
X106155952Y-115152380D01*
X106346428Y-115152380D01*
X106441666Y-115200000D01*
X106489285Y-115247619D01*
X106536904Y-115342857D01*
X106536904Y-115390476D01*
X106489285Y-115485714D01*
X106441666Y-115533333D01*
X106346428Y-115580952D01*
X106155952Y-115580952D01*
X106060714Y-115628571D01*
X106013095Y-115676190D01*
X105965476Y-115771428D01*
X105965476Y-115961904D01*
X106013095Y-116057142D01*
X106060714Y-116104761D01*
X106155952Y-116152380D01*
X106346428Y-116152380D01*
X106441666Y-116104761D01*
X106489285Y-116057142D01*
X106536904Y-115961904D01*
X106536904Y-115771428D01*
X106489285Y-115676190D01*
X106441666Y-115628571D01*
X106346428Y-115580952D01*
%TO.C,R6*%
X73758333Y-111927380D02*
X73425000Y-111451190D01*
X73186904Y-111927380D02*
X73186904Y-110927380D01*
X73567857Y-110927380D01*
X73663095Y-110975000D01*
X73710714Y-111022619D01*
X73758333Y-111117857D01*
X73758333Y-111260714D01*
X73710714Y-111355952D01*
X73663095Y-111403571D01*
X73567857Y-111451190D01*
X73186904Y-111451190D01*
X74615476Y-110927380D02*
X74425000Y-110927380D01*
X74329761Y-110975000D01*
X74282142Y-111022619D01*
X74186904Y-111165476D01*
X74139285Y-111355952D01*
X74139285Y-111736904D01*
X74186904Y-111832142D01*
X74234523Y-111879761D01*
X74329761Y-111927380D01*
X74520238Y-111927380D01*
X74615476Y-111879761D01*
X74663095Y-111832142D01*
X74710714Y-111736904D01*
X74710714Y-111498809D01*
X74663095Y-111403571D01*
X74615476Y-111355952D01*
X74520238Y-111308333D01*
X74329761Y-111308333D01*
X74234523Y-111355952D01*
X74186904Y-111403571D01*
X74139285Y-111498809D01*
%TO.C,C18*%
X107857142Y-110457142D02*
X107809523Y-110504761D01*
X107666666Y-110552380D01*
X107571428Y-110552380D01*
X107428571Y-110504761D01*
X107333333Y-110409523D01*
X107285714Y-110314285D01*
X107238095Y-110123809D01*
X107238095Y-109980952D01*
X107285714Y-109790476D01*
X107333333Y-109695238D01*
X107428571Y-109600000D01*
X107571428Y-109552380D01*
X107666666Y-109552380D01*
X107809523Y-109600000D01*
X107857142Y-109647619D01*
X108809523Y-110552380D02*
X108238095Y-110552380D01*
X108523809Y-110552380D02*
X108523809Y-109552380D01*
X108428571Y-109695238D01*
X108333333Y-109790476D01*
X108238095Y-109838095D01*
X109380952Y-109980952D02*
X109285714Y-109933333D01*
X109238095Y-109885714D01*
X109190476Y-109790476D01*
X109190476Y-109742857D01*
X109238095Y-109647619D01*
X109285714Y-109600000D01*
X109380952Y-109552380D01*
X109571428Y-109552380D01*
X109666666Y-109600000D01*
X109714285Y-109647619D01*
X109761904Y-109742857D01*
X109761904Y-109790476D01*
X109714285Y-109885714D01*
X109666666Y-109933333D01*
X109571428Y-109980952D01*
X109380952Y-109980952D01*
X109285714Y-110028571D01*
X109238095Y-110076190D01*
X109190476Y-110171428D01*
X109190476Y-110361904D01*
X109238095Y-110457142D01*
X109285714Y-110504761D01*
X109380952Y-110552380D01*
X109571428Y-110552380D01*
X109666666Y-110504761D01*
X109714285Y-110457142D01*
X109761904Y-110361904D01*
X109761904Y-110171428D01*
X109714285Y-110076190D01*
X109666666Y-110028571D01*
X109571428Y-109980952D01*
%TO.C,C8*%
X86034687Y-114920389D02*
X86034687Y-114987732D01*
X85967343Y-115122419D01*
X85900000Y-115189763D01*
X85765312Y-115257106D01*
X85630625Y-115257106D01*
X85529610Y-115223435D01*
X85361251Y-115122419D01*
X85260236Y-115021404D01*
X85159221Y-114853045D01*
X85125549Y-114752030D01*
X85125549Y-114617343D01*
X85192893Y-114482656D01*
X85260236Y-114415312D01*
X85394923Y-114347969D01*
X85462267Y-114347969D01*
X86102030Y-114179610D02*
X86001015Y-114213282D01*
X85933671Y-114213282D01*
X85832656Y-114179610D01*
X85798984Y-114145938D01*
X85765312Y-114044923D01*
X85765312Y-113977580D01*
X85798984Y-113876564D01*
X85933671Y-113741877D01*
X86034687Y-113708206D01*
X86102030Y-113708206D01*
X86203045Y-113741877D01*
X86236717Y-113775549D01*
X86270389Y-113876564D01*
X86270389Y-113943908D01*
X86236717Y-114044923D01*
X86102030Y-114179610D01*
X86068358Y-114280625D01*
X86068358Y-114347969D01*
X86102030Y-114448984D01*
X86236717Y-114583671D01*
X86337732Y-114617343D01*
X86405076Y-114617343D01*
X86506091Y-114583671D01*
X86640778Y-114448984D01*
X86674450Y-114347969D01*
X86674450Y-114280625D01*
X86640778Y-114179610D01*
X86506091Y-114044923D01*
X86405076Y-114011251D01*
X86337732Y-114011251D01*
X86236717Y-114044923D01*
%TO.C,C2*%
X108933333Y-84257142D02*
X108885714Y-84304761D01*
X108742857Y-84352380D01*
X108647619Y-84352380D01*
X108504761Y-84304761D01*
X108409523Y-84209523D01*
X108361904Y-84114285D01*
X108314285Y-83923809D01*
X108314285Y-83780952D01*
X108361904Y-83590476D01*
X108409523Y-83495238D01*
X108504761Y-83400000D01*
X108647619Y-83352380D01*
X108742857Y-83352380D01*
X108885714Y-83400000D01*
X108933333Y-83447619D01*
X109314285Y-83447619D02*
X109361904Y-83400000D01*
X109457142Y-83352380D01*
X109695238Y-83352380D01*
X109790476Y-83400000D01*
X109838095Y-83447619D01*
X109885714Y-83542857D01*
X109885714Y-83638095D01*
X109838095Y-83780952D01*
X109266666Y-84352380D01*
X109885714Y-84352380D01*
%TO.C,R5*%
X73708333Y-115977380D02*
X73375000Y-115501190D01*
X73136904Y-115977380D02*
X73136904Y-114977380D01*
X73517857Y-114977380D01*
X73613095Y-115025000D01*
X73660714Y-115072619D01*
X73708333Y-115167857D01*
X73708333Y-115310714D01*
X73660714Y-115405952D01*
X73613095Y-115453571D01*
X73517857Y-115501190D01*
X73136904Y-115501190D01*
X74613095Y-114977380D02*
X74136904Y-114977380D01*
X74089285Y-115453571D01*
X74136904Y-115405952D01*
X74232142Y-115358333D01*
X74470238Y-115358333D01*
X74565476Y-115405952D01*
X74613095Y-115453571D01*
X74660714Y-115548809D01*
X74660714Y-115786904D01*
X74613095Y-115882142D01*
X74565476Y-115929761D01*
X74470238Y-115977380D01*
X74232142Y-115977380D01*
X74136904Y-115929761D01*
X74089285Y-115882142D01*
%TO.C,R33*%
X113152380Y-95442857D02*
X112676190Y-95776190D01*
X113152380Y-96014285D02*
X112152380Y-96014285D01*
X112152380Y-95633333D01*
X112200000Y-95538095D01*
X112247619Y-95490476D01*
X112342857Y-95442857D01*
X112485714Y-95442857D01*
X112580952Y-95490476D01*
X112628571Y-95538095D01*
X112676190Y-95633333D01*
X112676190Y-96014285D01*
X112152380Y-95109523D02*
X112152380Y-94490476D01*
X112533333Y-94823809D01*
X112533333Y-94680952D01*
X112580952Y-94585714D01*
X112628571Y-94538095D01*
X112723809Y-94490476D01*
X112961904Y-94490476D01*
X113057142Y-94538095D01*
X113104761Y-94585714D01*
X113152380Y-94680952D01*
X113152380Y-94966666D01*
X113104761Y-95061904D01*
X113057142Y-95109523D01*
X112152380Y-94157142D02*
X112152380Y-93538095D01*
X112533333Y-93871428D01*
X112533333Y-93728571D01*
X112580952Y-93633333D01*
X112628571Y-93585714D01*
X112723809Y-93538095D01*
X112961904Y-93538095D01*
X113057142Y-93585714D01*
X113104761Y-93633333D01*
X113152380Y-93728571D01*
X113152380Y-94014285D01*
X113104761Y-94109523D01*
X113057142Y-94157142D01*
%TO.C,U1*%
X109152380Y-92361904D02*
X109961904Y-92361904D01*
X110057142Y-92314285D01*
X110104761Y-92266666D01*
X110152380Y-92171428D01*
X110152380Y-91980952D01*
X110104761Y-91885714D01*
X110057142Y-91838095D01*
X109961904Y-91790476D01*
X109152380Y-91790476D01*
X110152380Y-90790476D02*
X110152380Y-91361904D01*
X110152380Y-91076190D02*
X109152380Y-91076190D01*
X109295238Y-91171428D01*
X109390476Y-91266666D01*
X109438095Y-91361904D01*
%TO.C,R4*%
X118033333Y-93177380D02*
X117700000Y-92701190D01*
X117461904Y-93177380D02*
X117461904Y-92177380D01*
X117842857Y-92177380D01*
X117938095Y-92225000D01*
X117985714Y-92272619D01*
X118033333Y-92367857D01*
X118033333Y-92510714D01*
X117985714Y-92605952D01*
X117938095Y-92653571D01*
X117842857Y-92701190D01*
X117461904Y-92701190D01*
X118890476Y-92510714D02*
X118890476Y-93177380D01*
X118652380Y-92129761D02*
X118414285Y-92844047D01*
X119033333Y-92844047D01*
%TO.C,C13*%
X107157142Y-100657142D02*
X107109523Y-100704761D01*
X106966666Y-100752380D01*
X106871428Y-100752380D01*
X106728571Y-100704761D01*
X106633333Y-100609523D01*
X106585714Y-100514285D01*
X106538095Y-100323809D01*
X106538095Y-100180952D01*
X106585714Y-99990476D01*
X106633333Y-99895238D01*
X106728571Y-99800000D01*
X106871428Y-99752380D01*
X106966666Y-99752380D01*
X107109523Y-99800000D01*
X107157142Y-99847619D01*
X108109523Y-100752380D02*
X107538095Y-100752380D01*
X107823809Y-100752380D02*
X107823809Y-99752380D01*
X107728571Y-99895238D01*
X107633333Y-99990476D01*
X107538095Y-100038095D01*
X108442857Y-99752380D02*
X109061904Y-99752380D01*
X108728571Y-100133333D01*
X108871428Y-100133333D01*
X108966666Y-100180952D01*
X109014285Y-100228571D01*
X109061904Y-100323809D01*
X109061904Y-100561904D01*
X109014285Y-100657142D01*
X108966666Y-100704761D01*
X108871428Y-100752380D01*
X108585714Y-100752380D01*
X108490476Y-100704761D01*
X108442857Y-100657142D01*
%TO.C,R14*%
X101857142Y-111652380D02*
X101523809Y-111176190D01*
X101285714Y-111652380D02*
X101285714Y-110652380D01*
X101666666Y-110652380D01*
X101761904Y-110700000D01*
X101809523Y-110747619D01*
X101857142Y-110842857D01*
X101857142Y-110985714D01*
X101809523Y-111080952D01*
X101761904Y-111128571D01*
X101666666Y-111176190D01*
X101285714Y-111176190D01*
X102809523Y-111652380D02*
X102238095Y-111652380D01*
X102523809Y-111652380D02*
X102523809Y-110652380D01*
X102428571Y-110795238D01*
X102333333Y-110890476D01*
X102238095Y-110938095D01*
X103666666Y-110985714D02*
X103666666Y-111652380D01*
X103428571Y-110604761D02*
X103190476Y-111319047D01*
X103809523Y-111319047D01*
%TO.C,R35*%
X100307142Y-115002380D02*
X99973809Y-114526190D01*
X99735714Y-115002380D02*
X99735714Y-114002380D01*
X100116666Y-114002380D01*
X100211904Y-114050000D01*
X100259523Y-114097619D01*
X100307142Y-114192857D01*
X100307142Y-114335714D01*
X100259523Y-114430952D01*
X100211904Y-114478571D01*
X100116666Y-114526190D01*
X99735714Y-114526190D01*
X100640476Y-114002380D02*
X101259523Y-114002380D01*
X100926190Y-114383333D01*
X101069047Y-114383333D01*
X101164285Y-114430952D01*
X101211904Y-114478571D01*
X101259523Y-114573809D01*
X101259523Y-114811904D01*
X101211904Y-114907142D01*
X101164285Y-114954761D01*
X101069047Y-115002380D01*
X100783333Y-115002380D01*
X100688095Y-114954761D01*
X100640476Y-114907142D01*
X102164285Y-114002380D02*
X101688095Y-114002380D01*
X101640476Y-114478571D01*
X101688095Y-114430952D01*
X101783333Y-114383333D01*
X102021428Y-114383333D01*
X102116666Y-114430952D01*
X102164285Y-114478571D01*
X102211904Y-114573809D01*
X102211904Y-114811904D01*
X102164285Y-114907142D01*
X102116666Y-114954761D01*
X102021428Y-115002380D01*
X101783333Y-115002380D01*
X101688095Y-114954761D01*
X101640476Y-114907142D01*
%TO.C,REF\u002A\u002A*%
X131666666Y-92252380D02*
X131333333Y-91776190D01*
X131095238Y-92252380D02*
X131095238Y-91252380D01*
X131476190Y-91252380D01*
X131571428Y-91300000D01*
X131619047Y-91347619D01*
X131666666Y-91442857D01*
X131666666Y-91585714D01*
X131619047Y-91680952D01*
X131571428Y-91728571D01*
X131476190Y-91776190D01*
X131095238Y-91776190D01*
X132095238Y-91728571D02*
X132428571Y-91728571D01*
X132571428Y-92252380D02*
X132095238Y-92252380D01*
X132095238Y-91252380D01*
X132571428Y-91252380D01*
X133333333Y-91728571D02*
X133000000Y-91728571D01*
X133000000Y-92252380D02*
X133000000Y-91252380D01*
X133476190Y-91252380D01*
X134000000Y-91252380D02*
X134000000Y-91490476D01*
X133761904Y-91395238D02*
X134000000Y-91490476D01*
X134238095Y-91395238D01*
X133857142Y-91680952D02*
X134000000Y-91490476D01*
X134142857Y-91680952D01*
X134761904Y-91252380D02*
X134761904Y-91490476D01*
X134523809Y-91395238D02*
X134761904Y-91490476D01*
X135000000Y-91395238D01*
X134619047Y-91680952D02*
X134761904Y-91490476D01*
X134904761Y-91680952D01*
%TO.C,J2*%
X74466666Y-82227380D02*
X74466666Y-82941666D01*
X74419047Y-83084523D01*
X74323809Y-83179761D01*
X74180952Y-83227380D01*
X74085714Y-83227380D01*
X74895238Y-82322619D02*
X74942857Y-82275000D01*
X75038095Y-82227380D01*
X75276190Y-82227380D01*
X75371428Y-82275000D01*
X75419047Y-82322619D01*
X75466666Y-82417857D01*
X75466666Y-82513095D01*
X75419047Y-82655952D01*
X74847619Y-83227380D01*
X75466666Y-83227380D01*
%TO.C,R31*%
X114557142Y-84252380D02*
X114223809Y-83776190D01*
X113985714Y-84252380D02*
X113985714Y-83252380D01*
X114366666Y-83252380D01*
X114461904Y-83300000D01*
X114509523Y-83347619D01*
X114557142Y-83442857D01*
X114557142Y-83585714D01*
X114509523Y-83680952D01*
X114461904Y-83728571D01*
X114366666Y-83776190D01*
X113985714Y-83776190D01*
X114890476Y-83252380D02*
X115509523Y-83252380D01*
X115176190Y-83633333D01*
X115319047Y-83633333D01*
X115414285Y-83680952D01*
X115461904Y-83728571D01*
X115509523Y-83823809D01*
X115509523Y-84061904D01*
X115461904Y-84157142D01*
X115414285Y-84204761D01*
X115319047Y-84252380D01*
X115033333Y-84252380D01*
X114938095Y-84204761D01*
X114890476Y-84157142D01*
X116461904Y-84252380D02*
X115890476Y-84252380D01*
X116176190Y-84252380D02*
X116176190Y-83252380D01*
X116080952Y-83395238D01*
X115985714Y-83490476D01*
X115890476Y-83538095D01*
%TO.C,SW2*%
X98566666Y-81004761D02*
X98709523Y-81052380D01*
X98947619Y-81052380D01*
X99042857Y-81004761D01*
X99090476Y-80957142D01*
X99138095Y-80861904D01*
X99138095Y-80766666D01*
X99090476Y-80671428D01*
X99042857Y-80623809D01*
X98947619Y-80576190D01*
X98757142Y-80528571D01*
X98661904Y-80480952D01*
X98614285Y-80433333D01*
X98566666Y-80338095D01*
X98566666Y-80242857D01*
X98614285Y-80147619D01*
X98661904Y-80100000D01*
X98757142Y-80052380D01*
X98995238Y-80052380D01*
X99138095Y-80100000D01*
X99471428Y-80052380D02*
X99709523Y-81052380D01*
X99900000Y-80338095D01*
X100090476Y-81052380D01*
X100328571Y-80052380D01*
X100661904Y-80147619D02*
X100709523Y-80100000D01*
X100804761Y-80052380D01*
X101042857Y-80052380D01*
X101138095Y-80100000D01*
X101185714Y-80147619D01*
X101233333Y-80242857D01*
X101233333Y-80338095D01*
X101185714Y-80480952D01*
X100614285Y-81052380D01*
X101233333Y-81052380D01*
%TO.C,R2*%
X90583333Y-111977380D02*
X90250000Y-111501190D01*
X90011904Y-111977380D02*
X90011904Y-110977380D01*
X90392857Y-110977380D01*
X90488095Y-111025000D01*
X90535714Y-111072619D01*
X90583333Y-111167857D01*
X90583333Y-111310714D01*
X90535714Y-111405952D01*
X90488095Y-111453571D01*
X90392857Y-111501190D01*
X90011904Y-111501190D01*
X90964285Y-111072619D02*
X91011904Y-111025000D01*
X91107142Y-110977380D01*
X91345238Y-110977380D01*
X91440476Y-111025000D01*
X91488095Y-111072619D01*
X91535714Y-111167857D01*
X91535714Y-111263095D01*
X91488095Y-111405952D01*
X90916666Y-111977380D01*
X91535714Y-111977380D01*
%TO.C,R46*%
X120957142Y-84252380D02*
X120623809Y-83776190D01*
X120385714Y-84252380D02*
X120385714Y-83252380D01*
X120766666Y-83252380D01*
X120861904Y-83300000D01*
X120909523Y-83347619D01*
X120957142Y-83442857D01*
X120957142Y-83585714D01*
X120909523Y-83680952D01*
X120861904Y-83728571D01*
X120766666Y-83776190D01*
X120385714Y-83776190D01*
X121814285Y-83585714D02*
X121814285Y-84252380D01*
X121576190Y-83204761D02*
X121338095Y-83919047D01*
X121957142Y-83919047D01*
X122766666Y-83252380D02*
X122576190Y-83252380D01*
X122480952Y-83300000D01*
X122433333Y-83347619D01*
X122338095Y-83490476D01*
X122290476Y-83680952D01*
X122290476Y-84061904D01*
X122338095Y-84157142D01*
X122385714Y-84204761D01*
X122480952Y-84252380D01*
X122671428Y-84252380D01*
X122766666Y-84204761D01*
X122814285Y-84157142D01*
X122861904Y-84061904D01*
X122861904Y-83823809D01*
X122814285Y-83728571D01*
X122766666Y-83680952D01*
X122671428Y-83633333D01*
X122480952Y-83633333D01*
X122385714Y-83680952D01*
X122338095Y-83728571D01*
X122290476Y-83823809D01*
%TO.C,R25*%
X111057142Y-93052380D02*
X110723809Y-92576190D01*
X110485714Y-93052380D02*
X110485714Y-92052380D01*
X110866666Y-92052380D01*
X110961904Y-92100000D01*
X111009523Y-92147619D01*
X111057142Y-92242857D01*
X111057142Y-92385714D01*
X111009523Y-92480952D01*
X110961904Y-92528571D01*
X110866666Y-92576190D01*
X110485714Y-92576190D01*
X111438095Y-92147619D02*
X111485714Y-92100000D01*
X111580952Y-92052380D01*
X111819047Y-92052380D01*
X111914285Y-92100000D01*
X111961904Y-92147619D01*
X112009523Y-92242857D01*
X112009523Y-92338095D01*
X111961904Y-92480952D01*
X111390476Y-93052380D01*
X112009523Y-93052380D01*
X112914285Y-92052380D02*
X112438095Y-92052380D01*
X112390476Y-92528571D01*
X112438095Y-92480952D01*
X112533333Y-92433333D01*
X112771428Y-92433333D01*
X112866666Y-92480952D01*
X112914285Y-92528571D01*
X112961904Y-92623809D01*
X112961904Y-92861904D01*
X112914285Y-92957142D01*
X112866666Y-93004761D01*
X112771428Y-93052380D01*
X112533333Y-93052380D01*
X112438095Y-93004761D01*
X112390476Y-92957142D01*
%TO.C,R34*%
X114557142Y-93152380D02*
X114223809Y-92676190D01*
X113985714Y-93152380D02*
X113985714Y-92152380D01*
X114366666Y-92152380D01*
X114461904Y-92200000D01*
X114509523Y-92247619D01*
X114557142Y-92342857D01*
X114557142Y-92485714D01*
X114509523Y-92580952D01*
X114461904Y-92628571D01*
X114366666Y-92676190D01*
X113985714Y-92676190D01*
X114890476Y-92152380D02*
X115509523Y-92152380D01*
X115176190Y-92533333D01*
X115319047Y-92533333D01*
X115414285Y-92580952D01*
X115461904Y-92628571D01*
X115509523Y-92723809D01*
X115509523Y-92961904D01*
X115461904Y-93057142D01*
X115414285Y-93104761D01*
X115319047Y-93152380D01*
X115033333Y-93152380D01*
X114938095Y-93104761D01*
X114890476Y-93057142D01*
X116366666Y-92485714D02*
X116366666Y-93152380D01*
X116128571Y-92104761D02*
X115890476Y-92819047D01*
X116509523Y-92819047D01*
%TO.C,R9*%
X109552380Y-87266666D02*
X109076190Y-87600000D01*
X109552380Y-87838095D02*
X108552380Y-87838095D01*
X108552380Y-87457142D01*
X108600000Y-87361904D01*
X108647619Y-87314285D01*
X108742857Y-87266666D01*
X108885714Y-87266666D01*
X108980952Y-87314285D01*
X109028571Y-87361904D01*
X109076190Y-87457142D01*
X109076190Y-87838095D01*
X109552380Y-86790476D02*
X109552380Y-86600000D01*
X109504761Y-86504761D01*
X109457142Y-86457142D01*
X109314285Y-86361904D01*
X109123809Y-86314285D01*
X108742857Y-86314285D01*
X108647619Y-86361904D01*
X108600000Y-86409523D01*
X108552380Y-86504761D01*
X108552380Y-86695238D01*
X108600000Y-86790476D01*
X108647619Y-86838095D01*
X108742857Y-86885714D01*
X108980952Y-86885714D01*
X109076190Y-86838095D01*
X109123809Y-86790476D01*
X109171428Y-86695238D01*
X109171428Y-86504761D01*
X109123809Y-86409523D01*
X109076190Y-86361904D01*
X108980952Y-86314285D01*
%TO.C,R13*%
X72782142Y-99227380D02*
X72448809Y-98751190D01*
X72210714Y-99227380D02*
X72210714Y-98227380D01*
X72591666Y-98227380D01*
X72686904Y-98275000D01*
X72734523Y-98322619D01*
X72782142Y-98417857D01*
X72782142Y-98560714D01*
X72734523Y-98655952D01*
X72686904Y-98703571D01*
X72591666Y-98751190D01*
X72210714Y-98751190D01*
X73734523Y-99227380D02*
X73163095Y-99227380D01*
X73448809Y-99227380D02*
X73448809Y-98227380D01*
X73353571Y-98370238D01*
X73258333Y-98465476D01*
X73163095Y-98513095D01*
X74067857Y-98227380D02*
X74686904Y-98227380D01*
X74353571Y-98608333D01*
X74496428Y-98608333D01*
X74591666Y-98655952D01*
X74639285Y-98703571D01*
X74686904Y-98798809D01*
X74686904Y-99036904D01*
X74639285Y-99132142D01*
X74591666Y-99179761D01*
X74496428Y-99227380D01*
X74210714Y-99227380D01*
X74115476Y-99179761D01*
X74067857Y-99132142D01*
%TO.C,C4*%
X104333333Y-89457142D02*
X104285714Y-89504761D01*
X104142857Y-89552380D01*
X104047619Y-89552380D01*
X103904761Y-89504761D01*
X103809523Y-89409523D01*
X103761904Y-89314285D01*
X103714285Y-89123809D01*
X103714285Y-88980952D01*
X103761904Y-88790476D01*
X103809523Y-88695238D01*
X103904761Y-88600000D01*
X104047619Y-88552380D01*
X104142857Y-88552380D01*
X104285714Y-88600000D01*
X104333333Y-88647619D01*
X105190476Y-88885714D02*
X105190476Y-89552380D01*
X104952380Y-88504761D02*
X104714285Y-89219047D01*
X105333333Y-89219047D01*
%TO.C,R20*%
X98232142Y-103927380D02*
X97898809Y-103451190D01*
X97660714Y-103927380D02*
X97660714Y-102927380D01*
X98041666Y-102927380D01*
X98136904Y-102975000D01*
X98184523Y-103022619D01*
X98232142Y-103117857D01*
X98232142Y-103260714D01*
X98184523Y-103355952D01*
X98136904Y-103403571D01*
X98041666Y-103451190D01*
X97660714Y-103451190D01*
X98613095Y-103022619D02*
X98660714Y-102975000D01*
X98755952Y-102927380D01*
X98994047Y-102927380D01*
X99089285Y-102975000D01*
X99136904Y-103022619D01*
X99184523Y-103117857D01*
X99184523Y-103213095D01*
X99136904Y-103355952D01*
X98565476Y-103927380D01*
X99184523Y-103927380D01*
X99803571Y-102927380D02*
X99898809Y-102927380D01*
X99994047Y-102975000D01*
X100041666Y-103022619D01*
X100089285Y-103117857D01*
X100136904Y-103308333D01*
X100136904Y-103546428D01*
X100089285Y-103736904D01*
X100041666Y-103832142D01*
X99994047Y-103879761D01*
X99898809Y-103927380D01*
X99803571Y-103927380D01*
X99708333Y-103879761D01*
X99660714Y-103832142D01*
X99613095Y-103736904D01*
X99565476Y-103546428D01*
X99565476Y-103308333D01*
X99613095Y-103117857D01*
X99660714Y-103022619D01*
X99708333Y-102975000D01*
X99803571Y-102927380D01*
%TO.C,R1*%
X102633333Y-85552380D02*
X102300000Y-85076190D01*
X102061904Y-85552380D02*
X102061904Y-84552380D01*
X102442857Y-84552380D01*
X102538095Y-84600000D01*
X102585714Y-84647619D01*
X102633333Y-84742857D01*
X102633333Y-84885714D01*
X102585714Y-84980952D01*
X102538095Y-85028571D01*
X102442857Y-85076190D01*
X102061904Y-85076190D01*
X103585714Y-85552380D02*
X103014285Y-85552380D01*
X103300000Y-85552380D02*
X103300000Y-84552380D01*
X103204761Y-84695238D01*
X103109523Y-84790476D01*
X103014285Y-84838095D01*
%TO.C,J4*%
X122666666Y-97452380D02*
X122666666Y-98166666D01*
X122619047Y-98309523D01*
X122523809Y-98404761D01*
X122380952Y-98452380D01*
X122285714Y-98452380D01*
X123571428Y-97785714D02*
X123571428Y-98452380D01*
X123333333Y-97404761D02*
X123095238Y-98119047D01*
X123714285Y-98119047D01*
%TO.C,C7*%
X81784687Y-94570389D02*
X81784687Y-94637732D01*
X81717343Y-94772419D01*
X81650000Y-94839763D01*
X81515312Y-94907106D01*
X81380625Y-94907106D01*
X81279610Y-94873435D01*
X81111251Y-94772419D01*
X81010236Y-94671404D01*
X80909221Y-94503045D01*
X80875549Y-94402030D01*
X80875549Y-94267343D01*
X80942893Y-94132656D01*
X81010236Y-94065312D01*
X81144923Y-93997969D01*
X81212267Y-93997969D01*
X81380625Y-93694923D02*
X81852030Y-93223519D01*
X82256091Y-94233671D01*
%TO.C,C9*%
X107233333Y-99157142D02*
X107185714Y-99204761D01*
X107042857Y-99252380D01*
X106947619Y-99252380D01*
X106804761Y-99204761D01*
X106709523Y-99109523D01*
X106661904Y-99014285D01*
X106614285Y-98823809D01*
X106614285Y-98680952D01*
X106661904Y-98490476D01*
X106709523Y-98395238D01*
X106804761Y-98300000D01*
X106947619Y-98252380D01*
X107042857Y-98252380D01*
X107185714Y-98300000D01*
X107233333Y-98347619D01*
X107709523Y-99252380D02*
X107900000Y-99252380D01*
X107995238Y-99204761D01*
X108042857Y-99157142D01*
X108138095Y-99014285D01*
X108185714Y-98823809D01*
X108185714Y-98442857D01*
X108138095Y-98347619D01*
X108090476Y-98300000D01*
X107995238Y-98252380D01*
X107804761Y-98252380D01*
X107709523Y-98300000D01*
X107661904Y-98347619D01*
X107614285Y-98442857D01*
X107614285Y-98680952D01*
X107661904Y-98776190D01*
X107709523Y-98823809D01*
X107804761Y-98871428D01*
X107995238Y-98871428D01*
X108090476Y-98823809D01*
X108138095Y-98776190D01*
X108185714Y-98680952D01*
%TO.C,R17*%
X98307142Y-99177380D02*
X97973809Y-98701190D01*
X97735714Y-99177380D02*
X97735714Y-98177380D01*
X98116666Y-98177380D01*
X98211904Y-98225000D01*
X98259523Y-98272619D01*
X98307142Y-98367857D01*
X98307142Y-98510714D01*
X98259523Y-98605952D01*
X98211904Y-98653571D01*
X98116666Y-98701190D01*
X97735714Y-98701190D01*
X99259523Y-99177380D02*
X98688095Y-99177380D01*
X98973809Y-99177380D02*
X98973809Y-98177380D01*
X98878571Y-98320238D01*
X98783333Y-98415476D01*
X98688095Y-98463095D01*
X99592857Y-98177380D02*
X100259523Y-98177380D01*
X99830952Y-99177380D01*
%TO.C,J5*%
X119666666Y-97452380D02*
X119666666Y-98166666D01*
X119619047Y-98309523D01*
X119523809Y-98404761D01*
X119380952Y-98452380D01*
X119285714Y-98452380D01*
X120619047Y-97452380D02*
X120142857Y-97452380D01*
X120095238Y-97928571D01*
X120142857Y-97880952D01*
X120238095Y-97833333D01*
X120476190Y-97833333D01*
X120571428Y-97880952D01*
X120619047Y-97928571D01*
X120666666Y-98023809D01*
X120666666Y-98261904D01*
X120619047Y-98357142D01*
X120571428Y-98404761D01*
X120476190Y-98452380D01*
X120238095Y-98452380D01*
X120142857Y-98404761D01*
X120095238Y-98357142D01*
%TO.C,C1*%
X104433333Y-86357142D02*
X104385714Y-86404761D01*
X104242857Y-86452380D01*
X104147619Y-86452380D01*
X104004761Y-86404761D01*
X103909523Y-86309523D01*
X103861904Y-86214285D01*
X103814285Y-86023809D01*
X103814285Y-85880952D01*
X103861904Y-85690476D01*
X103909523Y-85595238D01*
X104004761Y-85500000D01*
X104147619Y-85452380D01*
X104242857Y-85452380D01*
X104385714Y-85500000D01*
X104433333Y-85547619D01*
X105385714Y-86452380D02*
X104814285Y-86452380D01*
X105100000Y-86452380D02*
X105100000Y-85452380D01*
X105004761Y-85595238D01*
X104909523Y-85690476D01*
X104814285Y-85738095D01*
%TO.C,C6*%
X73345389Y-107740312D02*
X73412732Y-107740312D01*
X73547419Y-107807656D01*
X73614763Y-107875000D01*
X73682106Y-108009687D01*
X73682106Y-108144374D01*
X73648435Y-108245389D01*
X73547419Y-108413748D01*
X73446404Y-108514763D01*
X73278045Y-108615778D01*
X73177030Y-108649450D01*
X73042343Y-108649450D01*
X72907656Y-108582106D01*
X72840312Y-108514763D01*
X72772969Y-108380076D01*
X72772969Y-108312732D01*
X72099534Y-107773984D02*
X72234221Y-107908671D01*
X72335236Y-107942343D01*
X72402580Y-107942343D01*
X72570938Y-107908671D01*
X72739297Y-107807656D01*
X73008671Y-107538282D01*
X73042343Y-107437267D01*
X73042343Y-107369923D01*
X73008671Y-107268908D01*
X72873984Y-107134221D01*
X72772969Y-107100549D01*
X72705625Y-107100549D01*
X72604610Y-107134221D01*
X72436251Y-107302580D01*
X72402580Y-107403595D01*
X72402580Y-107470938D01*
X72436251Y-107571954D01*
X72570938Y-107706641D01*
X72671954Y-107740312D01*
X72739297Y-107740312D01*
X72840312Y-107706641D01*
%TO.C,J3*%
X99522380Y-75333333D02*
X100236666Y-75333333D01*
X100379523Y-75380952D01*
X100474761Y-75476190D01*
X100522380Y-75619047D01*
X100522380Y-75714285D01*
X99522380Y-74952380D02*
X99522380Y-74333333D01*
X99903333Y-74666666D01*
X99903333Y-74523809D01*
X99950952Y-74428571D01*
X99998571Y-74380952D01*
X100093809Y-74333333D01*
X100331904Y-74333333D01*
X100427142Y-74380952D01*
X100474761Y-74428571D01*
X100522380Y-74523809D01*
X100522380Y-74809523D01*
X100474761Y-74904761D01*
X100427142Y-74952380D01*
%TO.C,SW1*%
X118266666Y-81104761D02*
X118409523Y-81152380D01*
X118647619Y-81152380D01*
X118742857Y-81104761D01*
X118790476Y-81057142D01*
X118838095Y-80961904D01*
X118838095Y-80866666D01*
X118790476Y-80771428D01*
X118742857Y-80723809D01*
X118647619Y-80676190D01*
X118457142Y-80628571D01*
X118361904Y-80580952D01*
X118314285Y-80533333D01*
X118266666Y-80438095D01*
X118266666Y-80342857D01*
X118314285Y-80247619D01*
X118361904Y-80200000D01*
X118457142Y-80152380D01*
X118695238Y-80152380D01*
X118838095Y-80200000D01*
X119171428Y-80152380D02*
X119409523Y-81152380D01*
X119600000Y-80438095D01*
X119790476Y-81152380D01*
X120028571Y-80152380D01*
X120933333Y-81152380D02*
X120361904Y-81152380D01*
X120647619Y-81152380D02*
X120647619Y-80152380D01*
X120552380Y-80295238D01*
X120457142Y-80390476D01*
X120361904Y-80438095D01*
%TO.C,R23*%
X98282142Y-108627380D02*
X97948809Y-108151190D01*
X97710714Y-108627380D02*
X97710714Y-107627380D01*
X98091666Y-107627380D01*
X98186904Y-107675000D01*
X98234523Y-107722619D01*
X98282142Y-107817857D01*
X98282142Y-107960714D01*
X98234523Y-108055952D01*
X98186904Y-108103571D01*
X98091666Y-108151190D01*
X97710714Y-108151190D01*
X98663095Y-107722619D02*
X98710714Y-107675000D01*
X98805952Y-107627380D01*
X99044047Y-107627380D01*
X99139285Y-107675000D01*
X99186904Y-107722619D01*
X99234523Y-107817857D01*
X99234523Y-107913095D01*
X99186904Y-108055952D01*
X98615476Y-108627380D01*
X99234523Y-108627380D01*
X99567857Y-107627380D02*
X100186904Y-107627380D01*
X99853571Y-108008333D01*
X99996428Y-108008333D01*
X100091666Y-108055952D01*
X100139285Y-108103571D01*
X100186904Y-108198809D01*
X100186904Y-108436904D01*
X100139285Y-108532142D01*
X100091666Y-108579761D01*
X99996428Y-108627380D01*
X99710714Y-108627380D01*
X99615476Y-108579761D01*
X99567857Y-108532142D01*
%TO.C,J1*%
X97191666Y-79027380D02*
X97191666Y-79741666D01*
X97144047Y-79884523D01*
X97048809Y-79979761D01*
X96905952Y-80027380D01*
X96810714Y-80027380D01*
X98191666Y-80027380D02*
X97620238Y-80027380D01*
X97905952Y-80027380D02*
X97905952Y-79027380D01*
X97810714Y-79170238D01*
X97715476Y-79265476D01*
X97620238Y-79313095D01*
%TO.C,C17*%
X107757142Y-114357142D02*
X107709523Y-114404761D01*
X107566666Y-114452380D01*
X107471428Y-114452380D01*
X107328571Y-114404761D01*
X107233333Y-114309523D01*
X107185714Y-114214285D01*
X107138095Y-114023809D01*
X107138095Y-113880952D01*
X107185714Y-113690476D01*
X107233333Y-113595238D01*
X107328571Y-113500000D01*
X107471428Y-113452380D01*
X107566666Y-113452380D01*
X107709523Y-113500000D01*
X107757142Y-113547619D01*
X108709523Y-114452380D02*
X108138095Y-114452380D01*
X108423809Y-114452380D02*
X108423809Y-113452380D01*
X108328571Y-113595238D01*
X108233333Y-113690476D01*
X108138095Y-113738095D01*
X109042857Y-113452380D02*
X109709523Y-113452380D01*
X109280952Y-114452380D01*
%TO.C,C11*%
X107157142Y-105357142D02*
X107109523Y-105404761D01*
X106966666Y-105452380D01*
X106871428Y-105452380D01*
X106728571Y-105404761D01*
X106633333Y-105309523D01*
X106585714Y-105214285D01*
X106538095Y-105023809D01*
X106538095Y-104880952D01*
X106585714Y-104690476D01*
X106633333Y-104595238D01*
X106728571Y-104500000D01*
X106871428Y-104452380D01*
X106966666Y-104452380D01*
X107109523Y-104500000D01*
X107157142Y-104547619D01*
X108109523Y-105452380D02*
X107538095Y-105452380D01*
X107823809Y-105452380D02*
X107823809Y-104452380D01*
X107728571Y-104595238D01*
X107633333Y-104690476D01*
X107538095Y-104738095D01*
X109061904Y-105452380D02*
X108490476Y-105452380D01*
X108776190Y-105452380D02*
X108776190Y-104452380D01*
X108680952Y-104595238D01*
X108585714Y-104690476D01*
X108490476Y-104738095D01*
%TO.C,R29*%
X98832142Y-113202380D02*
X98498809Y-112726190D01*
X98260714Y-113202380D02*
X98260714Y-112202380D01*
X98641666Y-112202380D01*
X98736904Y-112250000D01*
X98784523Y-112297619D01*
X98832142Y-112392857D01*
X98832142Y-112535714D01*
X98784523Y-112630952D01*
X98736904Y-112678571D01*
X98641666Y-112726190D01*
X98260714Y-112726190D01*
X99213095Y-112297619D02*
X99260714Y-112250000D01*
X99355952Y-112202380D01*
X99594047Y-112202380D01*
X99689285Y-112250000D01*
X99736904Y-112297619D01*
X99784523Y-112392857D01*
X99784523Y-112488095D01*
X99736904Y-112630952D01*
X99165476Y-113202380D01*
X99784523Y-113202380D01*
X100260714Y-113202380D02*
X100451190Y-113202380D01*
X100546428Y-113154761D01*
X100594047Y-113107142D01*
X100689285Y-112964285D01*
X100736904Y-112773809D01*
X100736904Y-112392857D01*
X100689285Y-112297619D01*
X100641666Y-112250000D01*
X100546428Y-112202380D01*
X100355952Y-112202380D01*
X100260714Y-112250000D01*
X100213095Y-112297619D01*
X100165476Y-112392857D01*
X100165476Y-112630952D01*
X100213095Y-112726190D01*
X100260714Y-112773809D01*
X100355952Y-112821428D01*
X100546428Y-112821428D01*
X100641666Y-112773809D01*
X100689285Y-112726190D01*
X100736904Y-112630952D01*
%TO.C,C10*%
X107157142Y-102132142D02*
X107109523Y-102179761D01*
X106966666Y-102227380D01*
X106871428Y-102227380D01*
X106728571Y-102179761D01*
X106633333Y-102084523D01*
X106585714Y-101989285D01*
X106538095Y-101798809D01*
X106538095Y-101655952D01*
X106585714Y-101465476D01*
X106633333Y-101370238D01*
X106728571Y-101275000D01*
X106871428Y-101227380D01*
X106966666Y-101227380D01*
X107109523Y-101275000D01*
X107157142Y-101322619D01*
X108109523Y-102227380D02*
X107538095Y-102227380D01*
X107823809Y-102227380D02*
X107823809Y-101227380D01*
X107728571Y-101370238D01*
X107633333Y-101465476D01*
X107538095Y-101513095D01*
X108728571Y-101227380D02*
X108823809Y-101227380D01*
X108919047Y-101275000D01*
X108966666Y-101322619D01*
X109014285Y-101417857D01*
X109061904Y-101608333D01*
X109061904Y-101846428D01*
X109014285Y-102036904D01*
X108966666Y-102132142D01*
X108919047Y-102179761D01*
X108823809Y-102227380D01*
X108728571Y-102227380D01*
X108633333Y-102179761D01*
X108585714Y-102132142D01*
X108538095Y-102036904D01*
X108490476Y-101846428D01*
X108490476Y-101608333D01*
X108538095Y-101417857D01*
X108585714Y-101322619D01*
X108633333Y-101275000D01*
X108728571Y-101227380D01*
D11*
%TO.C,R45*%
X123161904Y-90314285D02*
X122780952Y-90580952D01*
X123161904Y-90771428D02*
X122361904Y-90771428D01*
X122361904Y-90466666D01*
X122400000Y-90390476D01*
X122438095Y-90352380D01*
X122514285Y-90314285D01*
X122628571Y-90314285D01*
X122704761Y-90352380D01*
X122742857Y-90390476D01*
X122780952Y-90466666D01*
X122780952Y-90771428D01*
X122628571Y-89628571D02*
X123161904Y-89628571D01*
X122323809Y-89819047D02*
X122895238Y-90009523D01*
X122895238Y-89514285D01*
X122361904Y-88828571D02*
X122361904Y-89209523D01*
X122742857Y-89247619D01*
X122704761Y-89209523D01*
X122666666Y-89133333D01*
X122666666Y-88942857D01*
X122704761Y-88866666D01*
X122742857Y-88828571D01*
X122819047Y-88790476D01*
X123009523Y-88790476D01*
X123085714Y-88828571D01*
X123123809Y-88866666D01*
X123161904Y-88942857D01*
X123161904Y-89133333D01*
X123123809Y-89209523D01*
X123085714Y-89247619D01*
D10*
%TO.C,R11*%
X75757142Y-96677380D02*
X75423809Y-96201190D01*
X75185714Y-96677380D02*
X75185714Y-95677380D01*
X75566666Y-95677380D01*
X75661904Y-95725000D01*
X75709523Y-95772619D01*
X75757142Y-95867857D01*
X75757142Y-96010714D01*
X75709523Y-96105952D01*
X75661904Y-96153571D01*
X75566666Y-96201190D01*
X75185714Y-96201190D01*
X76709523Y-96677380D02*
X76138095Y-96677380D01*
X76423809Y-96677380D02*
X76423809Y-95677380D01*
X76328571Y-95820238D01*
X76233333Y-95915476D01*
X76138095Y-95963095D01*
X77661904Y-96677380D02*
X77090476Y-96677380D01*
X77376190Y-96677380D02*
X77376190Y-95677380D01*
X77280952Y-95820238D01*
X77185714Y-95915476D01*
X77090476Y-95963095D01*
%TO.C,R7*%
X72908333Y-103127380D02*
X72575000Y-102651190D01*
X72336904Y-103127380D02*
X72336904Y-102127380D01*
X72717857Y-102127380D01*
X72813095Y-102175000D01*
X72860714Y-102222619D01*
X72908333Y-102317857D01*
X72908333Y-102460714D01*
X72860714Y-102555952D01*
X72813095Y-102603571D01*
X72717857Y-102651190D01*
X72336904Y-102651190D01*
X73241666Y-102127380D02*
X73908333Y-102127380D01*
X73479761Y-103127380D01*
%TO.C,C12*%
X107157142Y-108657142D02*
X107109523Y-108704761D01*
X106966666Y-108752380D01*
X106871428Y-108752380D01*
X106728571Y-108704761D01*
X106633333Y-108609523D01*
X106585714Y-108514285D01*
X106538095Y-108323809D01*
X106538095Y-108180952D01*
X106585714Y-107990476D01*
X106633333Y-107895238D01*
X106728571Y-107800000D01*
X106871428Y-107752380D01*
X106966666Y-107752380D01*
X107109523Y-107800000D01*
X107157142Y-107847619D01*
X108109523Y-108752380D02*
X107538095Y-108752380D01*
X107823809Y-108752380D02*
X107823809Y-107752380D01*
X107728571Y-107895238D01*
X107633333Y-107990476D01*
X107538095Y-108038095D01*
X108490476Y-107847619D02*
X108538095Y-107800000D01*
X108633333Y-107752380D01*
X108871428Y-107752380D01*
X108966666Y-107800000D01*
X109014285Y-107847619D01*
X109061904Y-107942857D01*
X109061904Y-108038095D01*
X109014285Y-108180952D01*
X108442857Y-108752380D01*
X109061904Y-108752380D01*
%TO.C,R21*%
X98232142Y-105477380D02*
X97898809Y-105001190D01*
X97660714Y-105477380D02*
X97660714Y-104477380D01*
X98041666Y-104477380D01*
X98136904Y-104525000D01*
X98184523Y-104572619D01*
X98232142Y-104667857D01*
X98232142Y-104810714D01*
X98184523Y-104905952D01*
X98136904Y-104953571D01*
X98041666Y-105001190D01*
X97660714Y-105001190D01*
X98613095Y-104572619D02*
X98660714Y-104525000D01*
X98755952Y-104477380D01*
X98994047Y-104477380D01*
X99089285Y-104525000D01*
X99136904Y-104572619D01*
X99184523Y-104667857D01*
X99184523Y-104763095D01*
X99136904Y-104905952D01*
X98565476Y-105477380D01*
X99184523Y-105477380D01*
X100136904Y-105477380D02*
X99565476Y-105477380D01*
X99851190Y-105477380D02*
X99851190Y-104477380D01*
X99755952Y-104620238D01*
X99660714Y-104715476D01*
X99565476Y-104763095D01*
%TO.C,C5*%
X80234687Y-93920389D02*
X80234687Y-93987732D01*
X80167343Y-94122419D01*
X80100000Y-94189763D01*
X79965312Y-94257106D01*
X79830625Y-94257106D01*
X79729610Y-94223435D01*
X79561251Y-94122419D01*
X79460236Y-94021404D01*
X79359221Y-93853045D01*
X79325549Y-93752030D01*
X79325549Y-93617343D01*
X79392893Y-93482656D01*
X79460236Y-93415312D01*
X79594923Y-93347969D01*
X79662267Y-93347969D01*
X80234687Y-92640862D02*
X79897969Y-92977580D01*
X80201015Y-93347969D01*
X80201015Y-93280625D01*
X80234687Y-93179610D01*
X80403045Y-93011251D01*
X80504061Y-92977580D01*
X80571404Y-92977580D01*
X80672419Y-93011251D01*
X80840778Y-93179610D01*
X80874450Y-93280625D01*
X80874450Y-93347969D01*
X80840778Y-93448984D01*
X80672419Y-93617343D01*
X80571404Y-93651015D01*
X80504061Y-93651015D01*
%TO.C,U2*%
X82626522Y-97625973D02*
X83198942Y-97053553D01*
X83232614Y-96952538D01*
X83232614Y-96885194D01*
X83198942Y-96784179D01*
X83064255Y-96649492D01*
X82963240Y-96615820D01*
X82895896Y-96615820D01*
X82794881Y-96649492D01*
X82222461Y-97221912D01*
X81986759Y-96851522D02*
X81919416Y-96851522D01*
X81818400Y-96817851D01*
X81650042Y-96649492D01*
X81616370Y-96548477D01*
X81616370Y-96481133D01*
X81650042Y-96380118D01*
X81717385Y-96312774D01*
X81852072Y-96245431D01*
X82660194Y-96245431D01*
X82222461Y-95807698D01*
D11*
%TO.C,R42*%
X121085714Y-92161904D02*
X120819047Y-91780952D01*
X120628571Y-92161904D02*
X120628571Y-91361904D01*
X120933333Y-91361904D01*
X121009523Y-91400000D01*
X121047619Y-91438095D01*
X121085714Y-91514285D01*
X121085714Y-91628571D01*
X121047619Y-91704761D01*
X121009523Y-91742857D01*
X120933333Y-91780952D01*
X120628571Y-91780952D01*
X121771428Y-91628571D02*
X121771428Y-92161904D01*
X121580952Y-91323809D02*
X121390476Y-91895238D01*
X121885714Y-91895238D01*
X122152380Y-91438095D02*
X122190476Y-91400000D01*
X122266666Y-91361904D01*
X122457142Y-91361904D01*
X122533333Y-91400000D01*
X122571428Y-91438095D01*
X122609523Y-91514285D01*
X122609523Y-91590476D01*
X122571428Y-91704761D01*
X122114285Y-92161904D01*
X122609523Y-92161904D01*
D10*
%TO.C,R24*%
X98282142Y-110177380D02*
X97948809Y-109701190D01*
X97710714Y-110177380D02*
X97710714Y-109177380D01*
X98091666Y-109177380D01*
X98186904Y-109225000D01*
X98234523Y-109272619D01*
X98282142Y-109367857D01*
X98282142Y-109510714D01*
X98234523Y-109605952D01*
X98186904Y-109653571D01*
X98091666Y-109701190D01*
X97710714Y-109701190D01*
X98663095Y-109272619D02*
X98710714Y-109225000D01*
X98805952Y-109177380D01*
X99044047Y-109177380D01*
X99139285Y-109225000D01*
X99186904Y-109272619D01*
X99234523Y-109367857D01*
X99234523Y-109463095D01*
X99186904Y-109605952D01*
X98615476Y-110177380D01*
X99234523Y-110177380D01*
X100091666Y-109510714D02*
X100091666Y-110177380D01*
X99853571Y-109129761D02*
X99615476Y-109844047D01*
X100234523Y-109844047D01*
%TO.C,R15*%
X111357142Y-84252380D02*
X111023809Y-83776190D01*
X110785714Y-84252380D02*
X110785714Y-83252380D01*
X111166666Y-83252380D01*
X111261904Y-83300000D01*
X111309523Y-83347619D01*
X111357142Y-83442857D01*
X111357142Y-83585714D01*
X111309523Y-83680952D01*
X111261904Y-83728571D01*
X111166666Y-83776190D01*
X110785714Y-83776190D01*
X112309523Y-84252380D02*
X111738095Y-84252380D01*
X112023809Y-84252380D02*
X112023809Y-83252380D01*
X111928571Y-83395238D01*
X111833333Y-83490476D01*
X111738095Y-83538095D01*
X113214285Y-83252380D02*
X112738095Y-83252380D01*
X112690476Y-83728571D01*
X112738095Y-83680952D01*
X112833333Y-83633333D01*
X113071428Y-83633333D01*
X113166666Y-83680952D01*
X113214285Y-83728571D01*
X113261904Y-83823809D01*
X113261904Y-84061904D01*
X113214285Y-84157142D01*
X113166666Y-84204761D01*
X113071428Y-84252380D01*
X112833333Y-84252380D01*
X112738095Y-84204761D01*
X112690476Y-84157142D01*
%TO.C,C3*%
X104333333Y-87957142D02*
X104285714Y-88004761D01*
X104142857Y-88052380D01*
X104047619Y-88052380D01*
X103904761Y-88004761D01*
X103809523Y-87909523D01*
X103761904Y-87814285D01*
X103714285Y-87623809D01*
X103714285Y-87480952D01*
X103761904Y-87290476D01*
X103809523Y-87195238D01*
X103904761Y-87100000D01*
X104047619Y-87052380D01*
X104142857Y-87052380D01*
X104285714Y-87100000D01*
X104333333Y-87147619D01*
X104666666Y-87052380D02*
X105285714Y-87052380D01*
X104952380Y-87433333D01*
X105095238Y-87433333D01*
X105190476Y-87480952D01*
X105238095Y-87528571D01*
X105285714Y-87623809D01*
X105285714Y-87861904D01*
X105238095Y-87957142D01*
X105190476Y-88004761D01*
X105095238Y-88052380D01*
X104809523Y-88052380D01*
X104714285Y-88004761D01*
X104666666Y-87957142D01*
D11*
%TO.C,R47*%
X123161904Y-87714285D02*
X122780952Y-87980952D01*
X123161904Y-88171428D02*
X122361904Y-88171428D01*
X122361904Y-87866666D01*
X122400000Y-87790476D01*
X122438095Y-87752380D01*
X122514285Y-87714285D01*
X122628571Y-87714285D01*
X122704761Y-87752380D01*
X122742857Y-87790476D01*
X122780952Y-87866666D01*
X122780952Y-88171428D01*
X122628571Y-87028571D02*
X123161904Y-87028571D01*
X122323809Y-87219047D02*
X122895238Y-87409523D01*
X122895238Y-86914285D01*
X122361904Y-86685714D02*
X122361904Y-86152380D01*
X123161904Y-86495238D01*
D10*
%TO.C,R40*%
X117657142Y-84252380D02*
X117323809Y-83776190D01*
X117085714Y-84252380D02*
X117085714Y-83252380D01*
X117466666Y-83252380D01*
X117561904Y-83300000D01*
X117609523Y-83347619D01*
X117657142Y-83442857D01*
X117657142Y-83585714D01*
X117609523Y-83680952D01*
X117561904Y-83728571D01*
X117466666Y-83776190D01*
X117085714Y-83776190D01*
X118514285Y-83585714D02*
X118514285Y-84252380D01*
X118276190Y-83204761D02*
X118038095Y-83919047D01*
X118657142Y-83919047D01*
X119228571Y-83252380D02*
X119323809Y-83252380D01*
X119419047Y-83300000D01*
X119466666Y-83347619D01*
X119514285Y-83442857D01*
X119561904Y-83633333D01*
X119561904Y-83871428D01*
X119514285Y-84061904D01*
X119466666Y-84157142D01*
X119419047Y-84204761D01*
X119323809Y-84252380D01*
X119228571Y-84252380D01*
X119133333Y-84204761D01*
X119085714Y-84157142D01*
X119038095Y-84061904D01*
X118990476Y-83871428D01*
X118990476Y-83633333D01*
X119038095Y-83442857D01*
X119085714Y-83347619D01*
X119133333Y-83300000D01*
X119228571Y-83252380D01*
D12*
%TO.C,R32*%
X114677500Y-87262742D02*
X114677500Y-87737258D01*
X115722500Y-87262742D02*
X115722500Y-87737258D01*
%TO.C,R3*%
X90512742Y-113677500D02*
X90987258Y-113677500D01*
X90512742Y-114722500D02*
X90987258Y-114722500D01*
%TO.C,D1*%
X121261252Y-94335000D02*
X120738748Y-94335000D01*
X121261252Y-92865000D02*
X120738748Y-92865000D01*
%TO.C,C14*%
X104984420Y-102940000D02*
X105265580Y-102940000D01*
X104984420Y-103960000D02*
X105265580Y-103960000D01*
%TO.C,R38*%
X117322500Y-87287742D02*
X117322500Y-87762258D01*
X116277500Y-87287742D02*
X116277500Y-87762258D01*
%TO.C,J6*%
X117784000Y-111556000D02*
X117784000Y-98756000D01*
X111984000Y-111556000D02*
X113324000Y-111556000D01*
X111984000Y-100246000D02*
X111984000Y-98756000D01*
X111984000Y-98756000D02*
X113324000Y-98756000D01*
X117784000Y-98756000D02*
X116044000Y-98756000D01*
X111984000Y-110066000D02*
X111984000Y-111556000D01*
X111984000Y-110066000D02*
X110784000Y-110066000D01*
X116044000Y-111556000D02*
X117784000Y-111556000D01*
%TO.C,R39*%
X117362742Y-90347500D02*
X117837258Y-90347500D01*
X117362742Y-89302500D02*
X117837258Y-89302500D01*
%TO.C,R22*%
X101337742Y-106127500D02*
X101812258Y-106127500D01*
X101337742Y-107172500D02*
X101812258Y-107172500D01*
%TO.C,C15*%
X104990420Y-106140000D02*
X105271580Y-106140000D01*
X104990420Y-107160000D02*
X105271580Y-107160000D01*
%TO.C,R12*%
X74012258Y-94077500D02*
X73537742Y-94077500D01*
X74012258Y-95122500D02*
X73537742Y-95122500D01*
%TO.C,R19*%
X101331742Y-102322500D02*
X101806258Y-102322500D01*
X101331742Y-101277500D02*
X101806258Y-101277500D01*
%TO.C,R18*%
X101337742Y-99702500D02*
X101812258Y-99702500D01*
X101337742Y-100747500D02*
X101812258Y-100747500D01*
%TO.C,R16*%
X112522500Y-87262742D02*
X112522500Y-87737258D01*
X111477500Y-87262742D02*
X111477500Y-87737258D01*
%TO.C,R28*%
X104912742Y-114897500D02*
X105387258Y-114897500D01*
X104912742Y-113852500D02*
X105387258Y-113852500D01*
%TO.C,R6*%
X73312742Y-112152500D02*
X73787258Y-112152500D01*
X73312742Y-113197500D02*
X73787258Y-113197500D01*
%TO.C,R26*%
X113077500Y-85612742D02*
X113077500Y-86087258D01*
X114122500Y-85612742D02*
X114122500Y-86087258D01*
%TO.C,C18*%
X108290580Y-111760000D02*
X108009420Y-111760000D01*
X108290580Y-110740000D02*
X108009420Y-110740000D01*
%TO.C,C8*%
X85261219Y-114160030D02*
X85460030Y-113961219D01*
X84539970Y-113438781D02*
X84738781Y-113239970D01*
%TO.C,C2*%
X107015580Y-84385000D02*
X106734420Y-84385000D01*
X107015580Y-83365000D02*
X106734420Y-83365000D01*
%TO.C,R27*%
X113077500Y-87262742D02*
X113077500Y-87737258D01*
X114122500Y-87262742D02*
X114122500Y-87737258D01*
%TO.C,R5*%
X73787258Y-113677500D02*
X73312742Y-113677500D01*
X73787258Y-114722500D02*
X73312742Y-114722500D01*
%TO.C,R33*%
X113452500Y-94362742D02*
X113452500Y-94837258D01*
X114497500Y-94362742D02*
X114497500Y-94837258D01*
%TO.C,R8*%
X109857500Y-85612742D02*
X109857500Y-86087258D01*
X110902500Y-85612742D02*
X110902500Y-86087258D01*
D10*
%TO.C,U1*%
X102050000Y-91725000D02*
X102050000Y-96375000D01*
X102050000Y-96375000D02*
X102075000Y-96375000D01*
X108875000Y-96375000D02*
X108775000Y-96375000D01*
X108875000Y-90650000D02*
X108875000Y-96375000D01*
X102050000Y-91725000D02*
X102075000Y-91725000D01*
D12*
%TO.C,R4*%
X117562742Y-93277500D02*
X118037258Y-93277500D01*
X117562742Y-94322500D02*
X118037258Y-94322500D01*
%TO.C,C13*%
X104984420Y-99715000D02*
X105265580Y-99715000D01*
X104984420Y-100735000D02*
X105265580Y-100735000D01*
%TO.C,R14*%
X104912742Y-111772500D02*
X105387258Y-111772500D01*
X104912742Y-110727500D02*
X105387258Y-110727500D01*
%TO.C,R35*%
X104912742Y-113297500D02*
X105387258Y-113297500D01*
X104912742Y-112252500D02*
X105387258Y-112252500D01*
%TO.C,J2*%
X76190000Y-83675000D02*
X76190000Y-82475000D01*
X98000000Y-89475000D02*
X98000000Y-87735000D01*
X74700000Y-89475000D02*
X98000000Y-89475000D01*
X76190000Y-83675000D02*
X74700000Y-83675000D01*
X74700000Y-83675000D02*
X74700000Y-85015000D01*
X96510000Y-83675000D02*
X98000000Y-83675000D01*
X98000000Y-83675000D02*
X98000000Y-85015000D01*
X74700000Y-87735000D02*
X74700000Y-89475000D01*
%TO.C,R31*%
X115722500Y-85612742D02*
X115722500Y-86087258D01*
X114677500Y-85612742D02*
X114677500Y-86087258D01*
%TO.C,SW2*%
X107878000Y-82956000D02*
X107878000Y-82986000D01*
X107878000Y-76526000D02*
X101418000Y-76526000D01*
X107878000Y-82986000D02*
X101418000Y-82986000D01*
X101418000Y-81056000D02*
X101418000Y-78456000D01*
X101418000Y-76526000D02*
X101418000Y-76556000D01*
X107878000Y-81056000D02*
X107878000Y-78456000D01*
X101418000Y-82986000D02*
X101418000Y-82956000D01*
X107878000Y-76526000D02*
X107878000Y-76556000D01*
%TO.C,R2*%
X90987258Y-113197500D02*
X90512742Y-113197500D01*
X90987258Y-112152500D02*
X90512742Y-112152500D01*
%TO.C,R46*%
X122122500Y-85637742D02*
X122122500Y-86112258D01*
X121077500Y-85637742D02*
X121077500Y-86112258D01*
%TO.C,R25*%
X112562742Y-90827500D02*
X113037258Y-90827500D01*
X112562742Y-91872500D02*
X113037258Y-91872500D01*
%TO.C,R34*%
X114977500Y-94362742D02*
X114977500Y-94837258D01*
X116022500Y-94362742D02*
X116022500Y-94837258D01*
%TO.C,R44*%
X119477500Y-87287742D02*
X119477500Y-87762258D01*
X120522500Y-87287742D02*
X120522500Y-87762258D01*
%TO.C,R9*%
X109857500Y-87262742D02*
X109857500Y-87737258D01*
X110902500Y-87262742D02*
X110902500Y-87737258D01*
%TO.C,R13*%
X73462742Y-100422500D02*
X73937258Y-100422500D01*
X73462742Y-99377500D02*
X73937258Y-99377500D01*
%TO.C,C4*%
X106659420Y-89535000D02*
X106940580Y-89535000D01*
X106659420Y-88515000D02*
X106940580Y-88515000D01*
%TO.C,R20*%
X101331742Y-103972500D02*
X101806258Y-103972500D01*
X101331742Y-102927500D02*
X101806258Y-102927500D01*
%TO.C,R30*%
X114162742Y-89277500D02*
X114637258Y-89277500D01*
X114162742Y-90322500D02*
X114637258Y-90322500D01*
%TO.C,R1*%
X103612742Y-83352500D02*
X104087258Y-83352500D01*
X103612742Y-84397500D02*
X104087258Y-84397500D01*
%TO.C,J4*%
X124797000Y-111856000D02*
X124797000Y-110056000D01*
X124047000Y-100256000D02*
X124797000Y-100256000D01*
X128347000Y-112766000D02*
X131147000Y-112766000D01*
X133847000Y-112766000D02*
X135947000Y-112766000D01*
X128347000Y-97546000D02*
X131147000Y-97546000D01*
X133847000Y-97546000D02*
X135947000Y-97546000D01*
X124797000Y-100256000D02*
X124797000Y-98456000D01*
%TO.C,C7*%
X80460030Y-95911219D02*
X80261219Y-96110030D01*
X79738781Y-95189970D02*
X79539970Y-95388781D01*
%TO.C,C9*%
X104984420Y-99260000D02*
X105265580Y-99260000D01*
X104984420Y-98240000D02*
X105265580Y-98240000D01*
D10*
%TO.C,SM3*%
X97556000Y-95000000D02*
X98572000Y-93984000D01*
X95016000Y-90428000D02*
X94000000Y-91444000D01*
X94508000Y-91952000D02*
X94508000Y-93476000D01*
X98572000Y-90428000D02*
X97556000Y-91444000D01*
X95270000Y-94746000D02*
X95778000Y-94238000D01*
X97556000Y-91444000D02*
X98572000Y-90428000D01*
X97556000Y-95000000D02*
X97556000Y-91444000D01*
X95270000Y-94746000D02*
X94762000Y-94238000D01*
X96286000Y-91952000D02*
X95778000Y-92460000D01*
X96286000Y-93984000D02*
X96286000Y-91952000D01*
X95270000Y-92714000D02*
X95270000Y-94746000D01*
X97048000Y-93222000D02*
X96286000Y-93984000D01*
X98572000Y-90428000D02*
X95016000Y-90428000D01*
X98572000Y-93984000D02*
X98572000Y-90428000D01*
X94508000Y-93476000D02*
X95270000Y-92714000D01*
X94000000Y-95000000D02*
X97556000Y-95000000D01*
X97048000Y-94746000D02*
X97048000Y-93222000D01*
X96286000Y-91952000D02*
X96794000Y-92460000D01*
X97556000Y-91444000D02*
X94000000Y-91444000D01*
X94000000Y-93857000D02*
X94000000Y-95000000D01*
X94000000Y-91444000D02*
X94000000Y-93857000D01*
D12*
%TO.C,R37*%
X117322500Y-85637742D02*
X117322500Y-86112258D01*
X116277500Y-85637742D02*
X116277500Y-86112258D01*
%TO.C,R17*%
X101337742Y-99272500D02*
X101812258Y-99272500D01*
X101337742Y-98227500D02*
X101812258Y-98227500D01*
%TO.C,J5*%
X114433000Y-111556000D02*
X116173000Y-111556000D01*
X120233000Y-100246000D02*
X121433000Y-100246000D01*
X116173000Y-98756000D02*
X114433000Y-98756000D01*
X120233000Y-110066000D02*
X120233000Y-111556000D01*
X120233000Y-98756000D02*
X118893000Y-98756000D01*
X120233000Y-100246000D02*
X120233000Y-98756000D01*
X114433000Y-98756000D02*
X114433000Y-111556000D01*
X120233000Y-111556000D02*
X118893000Y-111556000D01*
%TO.C,C1*%
X106659420Y-85465000D02*
X106940580Y-85465000D01*
X106659420Y-86485000D02*
X106940580Y-86485000D01*
%TO.C,C6*%
X74486219Y-107014970D02*
X74685030Y-107213781D01*
X73764970Y-107736219D02*
X73963781Y-107935030D01*
%TO.C,J3*%
X102400000Y-76330000D02*
X101070000Y-76330000D01*
X103670000Y-76330000D02*
X118970000Y-76330000D01*
X118970000Y-76330000D02*
X118970000Y-73670000D01*
X103670000Y-73670000D02*
X118970000Y-73670000D01*
X103670000Y-76330000D02*
X103670000Y-73670000D01*
X101070000Y-76330000D02*
X101070000Y-75000000D01*
%TO.C,SW1*%
X118038000Y-82956000D02*
X118038000Y-82986000D01*
X111578000Y-76526000D02*
X111578000Y-76556000D01*
X111578000Y-81056000D02*
X111578000Y-78456000D01*
X118038000Y-81056000D02*
X118038000Y-78456000D01*
X118038000Y-76526000D02*
X111578000Y-76526000D01*
X111578000Y-82986000D02*
X111578000Y-82956000D01*
X118038000Y-82986000D02*
X111578000Y-82986000D01*
X118038000Y-76526000D02*
X118038000Y-76556000D01*
%TO.C,R23*%
X101362742Y-107681500D02*
X101837258Y-107681500D01*
X101362742Y-108726500D02*
X101837258Y-108726500D01*
%TO.C,J1*%
X76190000Y-78775000D02*
X74700000Y-78775000D01*
X98000000Y-78775000D02*
X98000000Y-77435000D01*
X96510000Y-78775000D02*
X96510000Y-79975000D01*
X96510000Y-78775000D02*
X98000000Y-78775000D01*
X74700000Y-78775000D02*
X74700000Y-77435000D01*
X98000000Y-72975000D02*
X74700000Y-72975000D01*
X74700000Y-72975000D02*
X74700000Y-74715000D01*
X98000000Y-74715000D02*
X98000000Y-72975000D01*
%TO.C,C17*%
X108290580Y-113285000D02*
X108009420Y-113285000D01*
X108290580Y-112265000D02*
X108009420Y-112265000D01*
%TO.C,C11*%
X104984420Y-105510000D02*
X105265580Y-105510000D01*
X104984420Y-104490000D02*
X105265580Y-104490000D01*
%TO.C,R43*%
X119477500Y-85637742D02*
X119477500Y-86112258D01*
X120522500Y-85637742D02*
X120522500Y-86112258D01*
%TO.C,C16*%
X105015420Y-109290000D02*
X105296580Y-109290000D01*
X105015420Y-110310000D02*
X105296580Y-110310000D01*
%TO.C,R29*%
X101887742Y-112252500D02*
X102362258Y-112252500D01*
X101887742Y-113297500D02*
X102362258Y-113297500D01*
%TO.C,C10*%
X104984420Y-101290000D02*
X105265580Y-101290000D01*
X104984420Y-102310000D02*
X105265580Y-102310000D01*
%TO.C,R45*%
X120562742Y-90347500D02*
X121037258Y-90347500D01*
X120562742Y-89302500D02*
X121037258Y-89302500D01*
%TO.C,R11*%
X73537742Y-95627500D02*
X74012258Y-95627500D01*
X73537742Y-96672500D02*
X74012258Y-96672500D01*
%TO.C,R7*%
X73462742Y-101947500D02*
X73937258Y-101947500D01*
X73462742Y-100902500D02*
X73937258Y-100902500D01*
%TO.C,C12*%
X105015420Y-108714000D02*
X105296580Y-108714000D01*
X105015420Y-107694000D02*
X105296580Y-107694000D01*
%TO.C,R21*%
X101337742Y-105522500D02*
X101812258Y-105522500D01*
X101337742Y-104477500D02*
X101812258Y-104477500D01*
%TO.C,C5*%
X78960030Y-95261219D02*
X78761219Y-95460030D01*
X78238781Y-94539970D02*
X78039970Y-94738781D01*
%TO.C,U2*%
X83296000Y-97354445D02*
X84038462Y-98096907D01*
X90614555Y-104673000D02*
X89872093Y-105415462D01*
X83296000Y-111991555D02*
X84038462Y-111249093D01*
X83296000Y-111991555D02*
X82553538Y-111249093D01*
X75977445Y-104673000D02*
X76719907Y-103930538D01*
X90614555Y-104673000D02*
X89872093Y-103930538D01*
X83296000Y-97354445D02*
X82624249Y-98026196D01*
X75977445Y-104673000D02*
X76719907Y-105415462D01*
X82624249Y-98026196D02*
X81722687Y-97124635D01*
%TO.C,R41*%
X117877500Y-87287742D02*
X117877500Y-87762258D01*
X118922500Y-87287742D02*
X118922500Y-87762258D01*
%TO.C,R42*%
X118962742Y-90827500D02*
X119437258Y-90827500D01*
X118962742Y-91872500D02*
X119437258Y-91872500D01*
%TO.C,R10*%
X110962742Y-90322500D02*
X111437258Y-90322500D01*
X110962742Y-89277500D02*
X111437258Y-89277500D01*
%TO.C,G\u002A\u002A\u002A*%
G36*
X89584637Y-96415682D02*
G01*
X89636582Y-96341903D01*
X89669406Y-96306507D01*
X89734930Y-96248173D01*
X89797314Y-96211158D01*
X89843266Y-96194375D01*
X89972634Y-96170997D01*
X90093556Y-96178039D01*
X90203015Y-96213142D01*
X90297995Y-96273948D01*
X90375479Y-96358099D01*
X90432450Y-96463236D01*
X90465891Y-96587001D01*
X90473711Y-96687214D01*
X90473970Y-96749510D01*
X89694029Y-96749510D01*
X89703776Y-96803499D01*
X89735679Y-96902072D01*
X89789006Y-96980911D01*
X89858617Y-97038352D01*
X89939372Y-97072731D01*
X90026131Y-97082382D01*
X90113753Y-97065642D01*
X90197100Y-97020844D01*
X90244137Y-96978503D01*
X90281364Y-96940792D01*
X90309773Y-96922944D01*
X90342423Y-96919821D01*
X90381187Y-96924593D01*
X90426127Y-96935011D01*
X90453336Y-96948418D01*
X90457085Y-96954895D01*
X90445252Y-96994002D01*
X90415154Y-97045324D01*
X90373598Y-97099275D01*
X90327389Y-97146270D01*
X90312620Y-97158358D01*
X90221563Y-97208767D01*
X90112882Y-97238462D01*
X89995798Y-97246302D01*
X89879535Y-97231146D01*
X89833255Y-97217678D01*
X89724177Y-97165908D01*
X89639788Y-97093919D01*
X89579353Y-97000512D01*
X89542135Y-96884484D01*
X89527399Y-96744637D01*
X89527077Y-96718015D01*
X89532575Y-96595958D01*
X89540648Y-96552620D01*
X89709810Y-96552620D01*
X89711796Y-96563682D01*
X89720776Y-96571727D01*
X89741285Y-96577231D01*
X89777860Y-96580672D01*
X89835034Y-96582526D01*
X89917343Y-96583270D01*
X90002324Y-96583388D01*
X90294838Y-96583388D01*
X90283981Y-96537705D01*
X90249473Y-96458303D01*
X90191632Y-96396569D01*
X90116652Y-96354941D01*
X90030731Y-96335861D01*
X89940064Y-96341769D01*
X89859454Y-96370506D01*
X89800961Y-96410318D01*
X89751674Y-96461256D01*
X89719004Y-96514302D01*
X89709810Y-96552620D01*
X89540648Y-96552620D01*
X89550865Y-96497774D01*
X89584637Y-96415682D01*
G37*
G36*
X95124710Y-96255298D02*
G01*
X95123261Y-96280893D01*
X95117528Y-96305227D01*
X95104651Y-96332505D01*
X95081768Y-96366931D01*
X95046017Y-96412712D01*
X94994539Y-96474051D01*
X94924471Y-96555154D01*
X94907134Y-96575082D01*
X94831177Y-96662119D01*
X94753926Y-96750249D01*
X94681320Y-96832724D01*
X94619303Y-96902790D01*
X94578175Y-96948856D01*
X94466125Y-97073447D01*
X95158601Y-97062237D01*
X95158601Y-97231262D01*
X94244931Y-97231262D01*
X94244931Y-97156750D01*
X94245548Y-97134328D01*
X94248991Y-97113400D01*
X94257652Y-97090688D01*
X94273923Y-97062916D01*
X94300195Y-97026804D01*
X94338858Y-96979077D01*
X94392305Y-96916456D01*
X94462927Y-96835664D01*
X94553114Y-96733424D01*
X94557035Y-96728986D01*
X94638036Y-96637137D01*
X94711939Y-96553011D01*
X94775850Y-96479929D01*
X94826874Y-96421213D01*
X94862117Y-96380183D01*
X94878683Y-96360161D01*
X94879410Y-96359124D01*
X94867574Y-96352744D01*
X94823187Y-96348624D01*
X94746847Y-96346789D01*
X94639152Y-96347260D01*
X94592224Y-96348010D01*
X94294768Y-96353508D01*
X94294768Y-96184696D01*
X95125376Y-96184696D01*
X95124710Y-96255298D01*
G37*
G36*
X95797587Y-96415682D02*
G01*
X95849532Y-96341903D01*
X95882355Y-96306507D01*
X95947880Y-96248173D01*
X96010264Y-96211158D01*
X96056216Y-96194375D01*
X96185584Y-96170997D01*
X96306506Y-96178039D01*
X96415965Y-96213142D01*
X96510945Y-96273948D01*
X96588428Y-96358099D01*
X96645399Y-96463236D01*
X96678841Y-96587001D01*
X96686660Y-96687214D01*
X96686920Y-96749510D01*
X95906979Y-96749510D01*
X95916726Y-96803499D01*
X95948629Y-96902072D01*
X96001956Y-96980911D01*
X96071567Y-97038352D01*
X96152322Y-97072731D01*
X96239080Y-97082382D01*
X96326703Y-97065642D01*
X96410049Y-97020844D01*
X96457086Y-96978503D01*
X96494314Y-96940792D01*
X96522722Y-96922944D01*
X96555373Y-96919821D01*
X96594137Y-96924593D01*
X96639076Y-96935011D01*
X96666286Y-96948418D01*
X96670034Y-96954895D01*
X96658202Y-96994002D01*
X96628104Y-97045324D01*
X96586548Y-97099275D01*
X96540339Y-97146270D01*
X96525570Y-97158358D01*
X96434513Y-97208767D01*
X96325831Y-97238462D01*
X96208748Y-97246302D01*
X96092484Y-97231146D01*
X96046205Y-97217678D01*
X95937127Y-97165908D01*
X95852738Y-97093919D01*
X95792302Y-97000512D01*
X95755085Y-96884484D01*
X95740349Y-96744637D01*
X95740026Y-96718015D01*
X95745525Y-96595958D01*
X95753598Y-96552620D01*
X95922760Y-96552620D01*
X95924746Y-96563682D01*
X95933725Y-96571727D01*
X95954235Y-96577231D01*
X95990809Y-96580672D01*
X96047984Y-96582526D01*
X96130293Y-96583270D01*
X96215274Y-96583388D01*
X96507788Y-96583388D01*
X96496931Y-96537705D01*
X96462423Y-96458303D01*
X96404582Y-96396569D01*
X96329602Y-96354941D01*
X96243681Y-96335861D01*
X96153014Y-96341769D01*
X96072404Y-96370506D01*
X96013911Y-96410318D01*
X95964624Y-96461256D01*
X95931954Y-96514302D01*
X95922760Y-96552620D01*
X95753598Y-96552620D01*
X95763815Y-96497774D01*
X95797587Y-96415682D01*
G37*
G36*
X92043820Y-96217920D02*
G01*
X92110599Y-96213647D01*
X92147396Y-96201511D01*
X92149935Y-96193429D01*
X92284696Y-96193429D01*
X92291566Y-96206396D01*
X92316100Y-96214004D01*
X92364181Y-96217411D01*
X92409287Y-96217920D01*
X92533878Y-96217920D01*
X92533878Y-97247875D01*
X92417593Y-97247875D01*
X92356441Y-97248790D01*
X92321405Y-97252869D01*
X92305398Y-97262110D01*
X92301331Y-97278513D01*
X92301308Y-97280672D01*
X92315815Y-97312667D01*
X92348202Y-97337720D01*
X92388950Y-97363438D01*
X92416684Y-97387983D01*
X92422157Y-97391701D01*
X92433177Y-97395052D01*
X92451377Y-97398054D01*
X92478392Y-97400726D01*
X92515855Y-97403086D01*
X92565400Y-97405154D01*
X92628662Y-97406948D01*
X92707273Y-97408488D01*
X92802868Y-97409791D01*
X92917081Y-97410877D01*
X93051545Y-97411764D01*
X93207895Y-97412471D01*
X93387764Y-97413018D01*
X93592785Y-97413423D01*
X93824594Y-97413704D01*
X94084823Y-97413881D01*
X94375107Y-97413972D01*
X94676848Y-97413996D01*
X94996874Y-97413969D01*
X95285309Y-97413873D01*
X95543788Y-97413690D01*
X95773944Y-97413402D01*
X95977411Y-97412990D01*
X96155824Y-97412434D01*
X96310815Y-97411716D01*
X96444018Y-97410817D01*
X96557069Y-97409719D01*
X96651599Y-97408402D01*
X96729244Y-97406848D01*
X96791637Y-97405038D01*
X96840412Y-97402953D01*
X96877202Y-97400575D01*
X96903642Y-97397884D01*
X96921366Y-97394861D01*
X96932007Y-97391489D01*
X96937011Y-97387983D01*
X96967335Y-97361538D01*
X97005494Y-97337720D01*
X97040513Y-97309464D01*
X97052387Y-97280672D01*
X97049142Y-97263425D01*
X97034680Y-97253543D01*
X97001915Y-97249028D01*
X96943757Y-97247881D01*
X96936102Y-97247875D01*
X96819817Y-97247875D01*
X96819817Y-97081753D01*
X96952714Y-97081753D01*
X97068999Y-97081753D01*
X97068999Y-96839288D01*
X97069434Y-96742722D01*
X97071209Y-96673288D01*
X97075031Y-96624900D01*
X97081608Y-96591472D01*
X97091646Y-96566918D01*
X97102655Y-96549558D01*
X97148983Y-96503070D01*
X97198181Y-96489644D01*
X97237332Y-96501510D01*
X97268513Y-96512152D01*
X97290492Y-96498191D01*
X97296102Y-96490949D01*
X97315466Y-96454507D01*
X97308369Y-96427116D01*
X97272086Y-96401676D01*
X97259476Y-96395425D01*
X97206758Y-96373682D01*
X97169221Y-96370415D01*
X97134062Y-96386185D01*
X97112770Y-96401860D01*
X97083021Y-96422718D01*
X97070762Y-96422068D01*
X97068999Y-96410166D01*
X97057882Y-96391188D01*
X97021047Y-96384206D01*
X97010857Y-96384042D01*
X96952714Y-96384042D01*
X96952714Y-97081753D01*
X96819817Y-97081753D01*
X96819817Y-96217920D01*
X96927796Y-96217920D01*
X96994575Y-96213647D01*
X97031372Y-96201511D01*
X97037331Y-96182539D01*
X97011596Y-96157755D01*
X96988882Y-96144688D01*
X96948133Y-96118969D01*
X96920399Y-96094425D01*
X96911312Y-96087506D01*
X96894562Y-96081911D01*
X96866930Y-96077503D01*
X96825196Y-96074148D01*
X96766143Y-96071710D01*
X96686551Y-96070053D01*
X96583201Y-96069041D01*
X96452874Y-96068539D01*
X96302806Y-96068411D01*
X95706802Y-96068411D01*
X95706802Y-96028155D01*
X95693610Y-95983456D01*
X95659432Y-95932839D01*
X95612365Y-95886451D01*
X95572751Y-95860162D01*
X95537437Y-95843239D01*
X95516897Y-95835853D01*
X95516587Y-95835841D01*
X95514642Y-95851881D01*
X95512838Y-95897713D01*
X95511221Y-95969907D01*
X95509836Y-96065029D01*
X95508726Y-96179648D01*
X95507938Y-96310333D01*
X95507516Y-96453651D01*
X95507456Y-96533552D01*
X95507456Y-97231262D01*
X95341334Y-97231262D01*
X95341334Y-96541858D01*
X95341362Y-96364855D01*
X95341139Y-96218648D01*
X95340205Y-96100808D01*
X95338101Y-96008905D01*
X95334368Y-95940512D01*
X95328546Y-95893200D01*
X95320175Y-95864541D01*
X95308796Y-95852105D01*
X95293950Y-95853465D01*
X95275176Y-95866191D01*
X95252017Y-95887856D01*
X95224011Y-95916031D01*
X95223095Y-95916947D01*
X95176538Y-95973663D01*
X95158731Y-96021128D01*
X95158601Y-96024926D01*
X95158601Y-96068411D01*
X94637892Y-96068411D01*
X94492405Y-96068499D01*
X94376518Y-96068906D01*
X94286608Y-96069848D01*
X94219050Y-96071541D01*
X94170220Y-96074202D01*
X94136494Y-96078046D01*
X94114249Y-96083289D01*
X94099860Y-96090147D01*
X94089704Y-96098836D01*
X94087500Y-96101211D01*
X94052941Y-96130325D01*
X94026782Y-96143861D01*
X94017422Y-96148519D01*
X94010155Y-96158369D01*
X94004719Y-96177216D01*
X94000849Y-96208865D01*
X93998282Y-96257123D01*
X93996755Y-96325794D01*
X93996002Y-96418685D01*
X93995761Y-96539602D01*
X93995749Y-96591627D01*
X93995882Y-96731892D01*
X93996835Y-96842465D01*
X93999440Y-96926876D01*
X94004527Y-96988657D01*
X94012928Y-97031339D01*
X94025473Y-97058455D01*
X94042994Y-97073534D01*
X94066322Y-97080110D01*
X94096289Y-97081713D01*
X94111098Y-97081753D01*
X94151185Y-97083825D01*
X94171324Y-97096215D01*
X94181446Y-97128189D01*
X94185306Y-97150979D01*
X94189246Y-97199192D01*
X94178352Y-97228201D01*
X94147041Y-97242704D01*
X94089730Y-97247401D01*
X94070504Y-97247594D01*
X93987431Y-97237781D01*
X93916027Y-97210410D01*
X93864722Y-97169297D01*
X93850869Y-97148202D01*
X93844187Y-97124089D01*
X93838916Y-97079765D01*
X93834954Y-97012686D01*
X93832197Y-96920313D01*
X93830543Y-96800101D01*
X93829888Y-96649511D01*
X93829872Y-96630191D01*
X93829696Y-96491745D01*
X93829171Y-96382881D01*
X93828062Y-96299955D01*
X93826134Y-96239325D01*
X93823155Y-96197347D01*
X93818889Y-96170378D01*
X93813101Y-96154776D01*
X93805559Y-96146898D01*
X93798594Y-96143861D01*
X93763489Y-96124040D01*
X93737877Y-96101211D01*
X93729164Y-96092889D01*
X93717427Y-96086106D01*
X93699439Y-96080706D01*
X93671975Y-96076532D01*
X93631807Y-96073426D01*
X93575711Y-96071231D01*
X93500459Y-96069790D01*
X93402826Y-96068945D01*
X93279585Y-96068540D01*
X93127511Y-96068417D01*
X93064927Y-96068411D01*
X92899658Y-96068542D01*
X92764518Y-96069017D01*
X92656414Y-96069957D01*
X92572251Y-96071483D01*
X92508936Y-96073715D01*
X92463376Y-96076775D01*
X92432475Y-96080784D01*
X92413140Y-96085862D01*
X92402277Y-96092132D01*
X92400072Y-96094425D01*
X92369749Y-96120870D01*
X92331589Y-96144688D01*
X92298803Y-96168664D01*
X92284707Y-96192900D01*
X92284696Y-96193429D01*
X92149935Y-96193429D01*
X92153355Y-96182539D01*
X92127619Y-96157755D01*
X92104905Y-96144688D01*
X92064157Y-96118969D01*
X92036423Y-96094425D01*
X92011871Y-96078935D01*
X91966430Y-96070666D01*
X91900582Y-96068411D01*
X91786331Y-96068411D01*
X91786331Y-95902289D01*
X91898463Y-95901614D01*
X91962081Y-95899542D01*
X92004669Y-95891890D01*
X92038357Y-95875094D01*
X92068110Y-95851778D01*
X92108843Y-95821825D01*
X92149345Y-95807119D01*
X92204756Y-95802702D01*
X92218247Y-95802616D01*
X92278213Y-95805636D01*
X92320386Y-95818002D01*
X92359908Y-95844670D01*
X92368384Y-95851778D01*
X92425899Y-95900939D01*
X93062289Y-95901614D01*
X93698678Y-95902289D01*
X93764153Y-95849672D01*
X93803855Y-95814519D01*
X93823168Y-95783499D01*
X93829274Y-95742208D01*
X93829627Y-95718354D01*
X93831521Y-95670718D01*
X93842208Y-95641189D01*
X93869196Y-95617333D01*
X93903187Y-95596543D01*
X93946787Y-95571990D01*
X93977784Y-95556377D01*
X93986248Y-95553434D01*
X93990836Y-95568675D01*
X93994207Y-95608924D01*
X93995721Y-95665970D01*
X93995749Y-95675245D01*
X93995749Y-95797056D01*
X94061224Y-95849672D01*
X94126698Y-95902289D01*
X95057100Y-95902289D01*
X95128616Y-95826864D01*
X95181244Y-95779643D01*
X95237038Y-95742347D01*
X95266580Y-95728809D01*
X95304414Y-95714461D01*
X95324736Y-95697836D01*
X95333781Y-95668841D01*
X95337785Y-95617384D01*
X95338010Y-95613194D01*
X95342992Y-95520209D01*
X95507456Y-95520209D01*
X95507456Y-95701663D01*
X95571736Y-95718972D01*
X95662791Y-95760157D01*
X95749056Y-95832621D01*
X95770574Y-95856599D01*
X95809428Y-95902289D01*
X96894572Y-95900939D01*
X96952087Y-95851778D01*
X96992819Y-95821825D01*
X97033321Y-95807119D01*
X97088733Y-95802702D01*
X97102224Y-95802616D01*
X97162190Y-95805636D01*
X97204363Y-95818002D01*
X97243885Y-95844670D01*
X97252361Y-95851778D01*
X97289879Y-95879961D01*
X97326675Y-95894937D01*
X97375985Y-95900795D01*
X97413702Y-95901614D01*
X97517528Y-95902289D01*
X97517528Y-96068411D01*
X97411583Y-96068411D01*
X97342653Y-96071643D01*
X97300602Y-96082125D01*
X97284049Y-96094425D01*
X97253725Y-96120870D01*
X97215566Y-96144688D01*
X97182780Y-96168664D01*
X97168683Y-96192900D01*
X97168672Y-96193429D01*
X97175543Y-96206396D01*
X97200077Y-96214004D01*
X97248158Y-96217411D01*
X97293264Y-96217920D01*
X97417855Y-96217920D01*
X97417855Y-97247875D01*
X97301570Y-97247875D01*
X97240418Y-97248790D01*
X97205382Y-97252869D01*
X97189374Y-97262110D01*
X97185307Y-97278513D01*
X97185285Y-97280672D01*
X97199791Y-97312667D01*
X97232178Y-97337720D01*
X97272927Y-97363438D01*
X97300661Y-97387983D01*
X97330131Y-97405206D01*
X97384888Y-97413161D01*
X97419889Y-97413996D01*
X97517528Y-97413996D01*
X97517528Y-97580118D01*
X97422008Y-97580793D01*
X97361278Y-97584052D01*
X97318902Y-97595949D01*
X97280238Y-97621255D01*
X97268973Y-97630630D01*
X97228240Y-97660583D01*
X97187739Y-97675289D01*
X97132327Y-97679706D01*
X97118836Y-97679791D01*
X97058870Y-97676771D01*
X97016697Y-97664406D01*
X96977175Y-97637737D01*
X96968699Y-97630630D01*
X96911184Y-97581468D01*
X92442512Y-97581468D01*
X92384996Y-97630630D01*
X92344264Y-97660583D01*
X92303762Y-97675289D01*
X92248351Y-97679706D01*
X92234859Y-97679791D01*
X92174894Y-97676771D01*
X92132720Y-97664406D01*
X92093199Y-97637737D01*
X92084722Y-97630630D01*
X92027207Y-97581468D01*
X90066972Y-97580767D01*
X89769613Y-97580638D01*
X89503669Y-97580457D01*
X89267331Y-97580198D01*
X89058789Y-97579833D01*
X88876233Y-97579336D01*
X88717856Y-97578682D01*
X88581846Y-97577841D01*
X88466395Y-97576789D01*
X88369693Y-97575499D01*
X88289931Y-97573943D01*
X88225300Y-97572096D01*
X88173991Y-97569930D01*
X88134193Y-97567419D01*
X88104097Y-97564536D01*
X88081895Y-97561254D01*
X88065776Y-97557548D01*
X88053932Y-97553389D01*
X88048825Y-97551021D01*
X88022952Y-97537294D01*
X88002008Y-97522422D01*
X87985471Y-97502962D01*
X87972818Y-97475474D01*
X87963526Y-97436517D01*
X87957073Y-97382650D01*
X87952936Y-97310432D01*
X87950593Y-97216423D01*
X87949521Y-97097181D01*
X87949197Y-96949266D01*
X87949166Y-96894866D01*
X87948921Y-96350818D01*
X87816024Y-96350818D01*
X87816024Y-96184696D01*
X87948921Y-96184696D01*
X87948921Y-95922058D01*
X88022481Y-95878950D01*
X88066081Y-95854397D01*
X88097077Y-95838784D01*
X88105542Y-95835841D01*
X88109442Y-95851308D01*
X88112566Y-95893134D01*
X88114541Y-95954456D01*
X88115043Y-96010268D01*
X88115043Y-96184696D01*
X88297776Y-96184696D01*
X88297776Y-96350818D01*
X88115043Y-96350818D01*
X88115043Y-96856302D01*
X88115231Y-97001726D01*
X88115913Y-97117467D01*
X88117262Y-97207064D01*
X88119452Y-97274058D01*
X88122657Y-97321987D01*
X88127051Y-97354393D01*
X88132806Y-97374814D01*
X88140098Y-97386791D01*
X88141147Y-97387891D01*
X88147583Y-97391894D01*
X88159619Y-97395471D01*
X88179021Y-97398645D01*
X88207556Y-97401440D01*
X88246989Y-97403880D01*
X88299086Y-97405987D01*
X88365613Y-97407786D01*
X88448336Y-97409301D01*
X88549020Y-97410554D01*
X88669432Y-97411569D01*
X88811337Y-97412369D01*
X88976501Y-97412980D01*
X89166690Y-97413422D01*
X89383670Y-97413722D01*
X89629207Y-97413901D01*
X89905066Y-97413983D01*
X90099349Y-97413996D01*
X90395622Y-97413963D01*
X90660431Y-97413849D01*
X90895537Y-97413630D01*
X91102700Y-97413282D01*
X91283681Y-97412783D01*
X91440240Y-97412108D01*
X91574138Y-97411234D01*
X91687135Y-97410139D01*
X91780992Y-97408798D01*
X91857470Y-97407188D01*
X91918328Y-97405285D01*
X91965327Y-97403067D01*
X92000228Y-97400509D01*
X92024792Y-97397589D01*
X92040778Y-97394282D01*
X92049948Y-97390566D01*
X92053035Y-97387983D01*
X92083358Y-97361538D01*
X92121517Y-97337720D01*
X92156537Y-97309464D01*
X92168411Y-97280672D01*
X92165165Y-97263425D01*
X92150704Y-97253543D01*
X92117938Y-97249028D01*
X92059781Y-97247881D01*
X92052126Y-97247875D01*
X91935841Y-97247875D01*
X91935841Y-97081753D01*
X92068738Y-97081753D01*
X92185023Y-97081753D01*
X92185023Y-96823509D01*
X92185192Y-96725602D01*
X92186235Y-96655235D01*
X92188957Y-96606723D01*
X92194165Y-96574381D01*
X92202664Y-96552525D01*
X92215258Y-96535471D01*
X92227655Y-96522634D01*
X92266179Y-96493054D01*
X92305065Y-96487551D01*
X92318830Y-96489711D01*
X92355919Y-96491738D01*
X92379499Y-96473326D01*
X92391712Y-96452352D01*
X92406437Y-96418907D01*
X92401115Y-96400991D01*
X92374511Y-96386357D01*
X92315025Y-96368963D01*
X92263875Y-96379222D01*
X92228794Y-96401860D01*
X92199045Y-96422718D01*
X92186786Y-96422068D01*
X92185023Y-96410166D01*
X92173906Y-96391188D01*
X92137070Y-96384206D01*
X92126880Y-96384042D01*
X92068738Y-96384042D01*
X92068738Y-97081753D01*
X91935841Y-97081753D01*
X91935841Y-96217920D01*
X92043820Y-96217920D01*
G37*
G36*
X92852314Y-96562623D02*
G01*
X92854679Y-96693451D01*
X92857750Y-96795370D01*
X92862432Y-96872696D01*
X92869629Y-96929742D01*
X92880246Y-96970824D01*
X92895190Y-97000256D01*
X92915363Y-97022354D01*
X92941672Y-97041433D01*
X92954396Y-97049355D01*
X93028528Y-97076402D01*
X93109697Y-97076487D01*
X93189438Y-97052033D01*
X93259285Y-97005466D01*
X93305418Y-96948846D01*
X93316914Y-96926716D01*
X93325673Y-96901398D01*
X93332172Y-96867995D01*
X93336886Y-96821614D01*
X93340290Y-96757358D01*
X93342862Y-96670333D01*
X93345075Y-96555642D01*
X93345374Y-96537705D01*
X93351179Y-96184696D01*
X93513996Y-96184696D01*
X93513996Y-97231262D01*
X93364487Y-97231262D01*
X93364302Y-97144049D01*
X93364118Y-97056835D01*
X93319945Y-97112898D01*
X93251149Y-97175345D01*
X93162392Y-97219534D01*
X93063086Y-97242731D01*
X92962645Y-97242205D01*
X92912039Y-97231334D01*
X92828579Y-97193766D01*
X92760489Y-97138957D01*
X92722534Y-97085644D01*
X92712839Y-97062892D01*
X92705257Y-97035397D01*
X92699460Y-96998774D01*
X92695123Y-96948638D01*
X92691920Y-96880604D01*
X92689525Y-96790287D01*
X92687611Y-96673302D01*
X92686742Y-96604153D01*
X92681790Y-96184696D01*
X92846354Y-96184696D01*
X92852314Y-96562623D01*
G37*
G36*
X88713081Y-95985350D02*
G01*
X88713081Y-95802616D01*
X90030733Y-95802616D01*
X90281220Y-95802635D01*
X90500729Y-95802782D01*
X90691505Y-95803191D01*
X90855793Y-95803995D01*
X90995840Y-95805328D01*
X91113891Y-95807326D01*
X91212192Y-95810121D01*
X91292989Y-95813847D01*
X91358526Y-95818639D01*
X91411051Y-95824631D01*
X91452808Y-95831957D01*
X91486043Y-95840750D01*
X91513002Y-95851145D01*
X91535931Y-95863276D01*
X91557075Y-95877276D01*
X91578680Y-95893280D01*
X91581131Y-95895131D01*
X91644261Y-95961835D01*
X91684427Y-96044446D01*
X91701737Y-96135790D01*
X91696297Y-96228694D01*
X91668216Y-96315984D01*
X91617599Y-96390488D01*
X91573160Y-96428329D01*
X91518310Y-96465292D01*
X91584265Y-96498940D01*
X91669439Y-96559982D01*
X91731799Y-96641431D01*
X91768478Y-96737121D01*
X91776607Y-96840889D01*
X91768727Y-96895426D01*
X91729775Y-97008101D01*
X91668147Y-97096750D01*
X91582969Y-97162217D01*
X91473367Y-97205350D01*
X91440811Y-97213001D01*
X91396131Y-97218793D01*
X91325276Y-97223828D01*
X91235291Y-97227793D01*
X91133223Y-97230375D01*
X91029660Y-97231262D01*
X90706540Y-97231262D01*
X90706540Y-97065141D01*
X90889274Y-97065141D01*
X91134937Y-97065141D01*
X91232826Y-97064692D01*
X91304221Y-97062823D01*
X91355845Y-97058747D01*
X91394422Y-97051679D01*
X91426677Y-97040832D01*
X91454721Y-97027763D01*
X91522512Y-96977199D01*
X91566063Y-96910675D01*
X91585141Y-96835177D01*
X91579510Y-96757690D01*
X91548936Y-96685199D01*
X91493183Y-96624690D01*
X91468821Y-96608306D01*
X91442838Y-96595312D01*
X91411734Y-96585848D01*
X91369562Y-96579190D01*
X91310374Y-96574609D01*
X91228222Y-96571379D01*
X91150916Y-96569469D01*
X90889274Y-96563857D01*
X90889274Y-97065141D01*
X90706540Y-97065141D01*
X90706540Y-96400654D01*
X90889274Y-96400654D01*
X91113202Y-96400654D01*
X91219111Y-96399382D01*
X91297990Y-96395189D01*
X91355949Y-96387508D01*
X91399099Y-96375774D01*
X91404553Y-96373677D01*
X91468363Y-96333699D01*
X91506570Y-96274030D01*
X91520439Y-96192603D01*
X91520536Y-96183931D01*
X91507737Y-96104939D01*
X91472208Y-96040300D01*
X91422271Y-95999994D01*
X91384887Y-95990052D01*
X91317830Y-95981767D01*
X91224624Y-95975480D01*
X91134304Y-95972137D01*
X90889274Y-95965691D01*
X90889274Y-96400654D01*
X90706540Y-96400654D01*
X90706540Y-95985350D01*
X88713081Y-95985350D01*
G37*
G36*
X88647137Y-96064258D02*
G01*
X88648079Y-96169055D01*
X88650517Y-96242280D01*
X88654571Y-96285558D01*
X88660363Y-96300514D01*
X88664394Y-96297150D01*
X88687766Y-96272699D01*
X88729370Y-96241392D01*
X88759409Y-96222396D01*
X88810382Y-96196134D01*
X88858957Y-96182082D01*
X88919640Y-96176811D01*
X88953957Y-96176390D01*
X89068705Y-96187728D01*
X89159762Y-96222152D01*
X89227907Y-96280274D01*
X89273919Y-96362708D01*
X89294982Y-96444503D01*
X89299897Y-96491313D01*
X89304208Y-96564446D01*
X89307663Y-96657001D01*
X89310012Y-96762078D01*
X89311006Y-96872777D01*
X89311022Y-96886560D01*
X89311118Y-97231262D01*
X89128385Y-97231262D01*
X89128385Y-96864152D01*
X89127744Y-96727528D01*
X89125277Y-96620029D01*
X89120168Y-96537570D01*
X89111601Y-96476068D01*
X89098759Y-96431438D01*
X89080825Y-96399596D01*
X89056985Y-96376458D01*
X89027297Y-96358392D01*
X88951692Y-96336475D01*
X88869300Y-96340152D01*
X88789588Y-96366438D01*
X88722019Y-96412346D01*
X88679301Y-96468192D01*
X88668268Y-96492633D01*
X88660018Y-96520079D01*
X88654153Y-96555540D01*
X88650277Y-96604029D01*
X88647996Y-96670556D01*
X88646913Y-96760133D01*
X88646632Y-96877773D01*
X88646632Y-97231262D01*
X88463898Y-97231262D01*
X88463898Y-95802616D01*
X88646632Y-95802616D01*
X88647137Y-96064258D01*
G37*
%TO.C,R36*%
X115762742Y-91872500D02*
X116237258Y-91872500D01*
X115762742Y-90827500D02*
X116237258Y-90827500D01*
%TO.C,R24*%
X101362742Y-109277500D02*
X101837258Y-109277500D01*
X101362742Y-110322500D02*
X101837258Y-110322500D01*
%TO.C,R15*%
X111477500Y-85612742D02*
X111477500Y-86087258D01*
X112522500Y-85612742D02*
X112522500Y-86087258D01*
%TO.C,C3*%
X106659420Y-86990000D02*
X106940580Y-86990000D01*
X106659420Y-88010000D02*
X106940580Y-88010000D01*
%TO.C,R47*%
X121077500Y-87287742D02*
X121077500Y-87762258D01*
X122122500Y-87287742D02*
X122122500Y-87762258D01*
%TO.C,R40*%
X118922500Y-85637742D02*
X118922500Y-86112258D01*
X117877500Y-85637742D02*
X117877500Y-86112258D01*
%TD*%
M02*
