%TF.GenerationSoftware,KiCad,Pcbnew,(6.0.7)*%
%TF.CreationDate,2022-10-26T00:08:39+02:00*%
%TF.ProjectId,TTL_to_HDMI,54544c5f-746f-45f4-9844-4d492e6b6963,rev?*%
%TF.SameCoordinates,Original*%
%TF.FileFunction,Paste,Top*%
%TF.FilePolarity,Positive*%
%FSLAX46Y46*%
G04 Gerber Fmt 4.6, Leading zero omitted, Abs format (unit mm)*
G04 Created by KiCad (PCBNEW (6.0.7)) date 2022-10-26 00:08:39*
%MOMM*%
%LPD*%
G01*
G04 APERTURE LIST*
G04 Aperture macros list*
%AMRoundRect*
0 Rectangle with rounded corners*
0 $1 Rounding radius*
0 $2 $3 $4 $5 $6 $7 $8 $9 X,Y pos of 4 corners*
0 Add a 4 corners polygon primitive as box body*
4,1,4,$2,$3,$4,$5,$6,$7,$8,$9,$2,$3,0*
0 Add four circle primitives for the rounded corners*
1,1,$1+$1,$2,$3*
1,1,$1+$1,$4,$5*
1,1,$1+$1,$6,$7*
1,1,$1+$1,$8,$9*
0 Add four rect primitives between the rounded corners*
20,1,$1+$1,$2,$3,$4,$5,0*
20,1,$1+$1,$4,$5,$6,$7,0*
20,1,$1+$1,$6,$7,$8,$9,0*
20,1,$1+$1,$8,$9,$2,$3,0*%
%AMRotRect*
0 Rectangle, with rotation*
0 The origin of the aperture is its center*
0 $1 length*
0 $2 width*
0 $3 Rotation angle, in degrees counterclockwise*
0 Add horizontal line*
21,1,$1,$2,0,0,$3*%
G04 Aperture macros list end*
%ADD10RoundRect,0.200000X-0.275000X0.200000X-0.275000X-0.200000X0.275000X-0.200000X0.275000X0.200000X0*%
%ADD11RoundRect,0.200000X-0.200000X-0.275000X0.200000X-0.275000X0.200000X0.275000X-0.200000X0.275000X0*%
%ADD12RoundRect,0.250000X0.250000X0.475000X-0.250000X0.475000X-0.250000X-0.475000X0.250000X-0.475000X0*%
%ADD13RoundRect,0.225000X-0.225000X-0.250000X0.225000X-0.250000X0.225000X0.250000X-0.225000X0.250000X0*%
%ADD14R,1.300000X0.300000*%
%ADD15R,2.200000X1.800000*%
%ADD16RoundRect,0.200000X0.200000X0.275000X-0.200000X0.275000X-0.200000X-0.275000X0.200000X-0.275000X0*%
%ADD17RoundRect,0.225000X0.225000X0.250000X-0.225000X0.250000X-0.225000X-0.250000X0.225000X-0.250000X0*%
%ADD18RoundRect,0.225000X0.017678X-0.335876X0.335876X-0.017678X-0.017678X0.335876X-0.335876X0.017678X0*%
%ADD19R,0.400000X1.000000*%
%ADD20R,0.300000X1.300000*%
%ADD21R,1.800000X2.200000*%
%ADD22R,1.550000X1.300000*%
%ADD23R,2.600000X0.300000*%
%ADD24RoundRect,0.225000X-0.017678X0.335876X-0.335876X0.017678X0.017678X-0.335876X0.335876X-0.017678X0*%
%ADD25RoundRect,0.225000X-0.335876X-0.017678X-0.017678X-0.335876X0.335876X0.017678X0.017678X0.335876X0*%
%ADD26RotRect,1.750000X1.750000X135.000000*%
%ADD27RotRect,1.500000X0.300000X315.000000*%
%ADD28RotRect,1.500000X0.300000X45.000000*%
G04 APERTURE END LIST*
D10*
%TO.C,R32*%
X115200000Y-86675000D03*
X115200000Y-88325000D03*
%TD*%
D11*
%TO.C,R3*%
X89925000Y-114200000D03*
X91575000Y-114200000D03*
%TD*%
D12*
%TO.C,D1*%
X121950000Y-93600000D03*
X120050000Y-93600000D03*
%TD*%
D13*
%TO.C,C14*%
X104350000Y-103450000D03*
X105900000Y-103450000D03*
%TD*%
D10*
%TO.C,R38*%
X116800000Y-86700000D03*
X116800000Y-88350000D03*
%TD*%
D14*
%TO.C,J6*%
X111434000Y-109656000D03*
X111434000Y-109156000D03*
X111434000Y-108656000D03*
X111434000Y-108156000D03*
X111434000Y-107656000D03*
X111434000Y-107156000D03*
X111434000Y-106656000D03*
X111434000Y-106156000D03*
X111434000Y-105656000D03*
X111434000Y-105156000D03*
X111434000Y-104656000D03*
X111434000Y-104156000D03*
X111434000Y-103656000D03*
X111434000Y-103156000D03*
X111434000Y-102656000D03*
X111434000Y-102156000D03*
X111434000Y-101656000D03*
X111434000Y-101156000D03*
X111434000Y-100656000D03*
D15*
X114684000Y-98756000D03*
X114684000Y-111556000D03*
%TD*%
D11*
%TO.C,R39*%
X116775000Y-89825000D03*
X118425000Y-89825000D03*
%TD*%
%TO.C,R22*%
X100750000Y-106650000D03*
X102400000Y-106650000D03*
%TD*%
D13*
%TO.C,C15*%
X104356000Y-106650000D03*
X105906000Y-106650000D03*
%TD*%
D16*
%TO.C,R12*%
X74600000Y-94600000D03*
X72950000Y-94600000D03*
%TD*%
D11*
%TO.C,R19*%
X100744000Y-101800000D03*
X102394000Y-101800000D03*
%TD*%
%TO.C,R18*%
X100750000Y-100225000D03*
X102400000Y-100225000D03*
%TD*%
D10*
%TO.C,R16*%
X112000000Y-86675000D03*
X112000000Y-88325000D03*
%TD*%
D11*
%TO.C,R28*%
X104325000Y-114375000D03*
X105975000Y-114375000D03*
%TD*%
%TO.C,R6*%
X72725000Y-112675000D03*
X74375000Y-112675000D03*
%TD*%
D10*
%TO.C,R26*%
X113600000Y-85025000D03*
X113600000Y-86675000D03*
%TD*%
D17*
%TO.C,C18*%
X108925000Y-111250000D03*
X107375000Y-111250000D03*
%TD*%
D18*
%TO.C,C8*%
X84451992Y-114248008D03*
X85548008Y-113151992D03*
%TD*%
D17*
%TO.C,C2*%
X107650000Y-83875000D03*
X106100000Y-83875000D03*
%TD*%
D10*
%TO.C,R27*%
X113600000Y-86675000D03*
X113600000Y-88325000D03*
%TD*%
D16*
%TO.C,R5*%
X74375000Y-114200000D03*
X72725000Y-114200000D03*
%TD*%
D10*
%TO.C,R33*%
X113975000Y-93775000D03*
X113975000Y-95425000D03*
%TD*%
%TO.C,R8*%
X110380000Y-85025000D03*
X110380000Y-86675000D03*
%TD*%
D19*
%TO.C,U1*%
X108350000Y-91150000D03*
X107700000Y-91150000D03*
X107050000Y-91150000D03*
X106400000Y-91150000D03*
X105750000Y-91150000D03*
X105100000Y-91150000D03*
X104450000Y-91150000D03*
X103800000Y-91150000D03*
X103150000Y-91150000D03*
X102500000Y-91150000D03*
X102500000Y-96950000D03*
X103150000Y-96950000D03*
X103800000Y-96950000D03*
X104450000Y-96950000D03*
X105100000Y-96950000D03*
X105750000Y-96950000D03*
X106400000Y-96950000D03*
X107050000Y-96950000D03*
X107700000Y-96950000D03*
X108350000Y-96950000D03*
%TD*%
D11*
%TO.C,R4*%
X116975000Y-93800000D03*
X118625000Y-93800000D03*
%TD*%
D13*
%TO.C,C13*%
X104350000Y-100225000D03*
X105900000Y-100225000D03*
%TD*%
D11*
%TO.C,R14*%
X104325000Y-111250000D03*
X105975000Y-111250000D03*
%TD*%
%TO.C,R35*%
X104325000Y-112775000D03*
X105975000Y-112775000D03*
%TD*%
D20*
%TO.C,J2*%
X76600000Y-83125000D03*
X77100000Y-83125000D03*
X77600000Y-83125000D03*
X78100000Y-83125000D03*
X78600000Y-83125000D03*
X79100000Y-83125000D03*
X79600000Y-83125000D03*
X80100000Y-83125000D03*
X80600000Y-83125000D03*
X81100000Y-83125000D03*
X81600000Y-83125000D03*
X82100000Y-83125000D03*
X82600000Y-83125000D03*
X83100000Y-83125000D03*
X83600000Y-83125000D03*
X84100000Y-83125000D03*
X84600000Y-83125000D03*
X85100000Y-83125000D03*
X85600000Y-83125000D03*
X86100000Y-83125000D03*
X86600000Y-83125000D03*
X87100000Y-83125000D03*
X87600000Y-83125000D03*
X88100000Y-83125000D03*
X88600000Y-83125000D03*
X89100000Y-83125000D03*
X89600000Y-83125000D03*
X90100000Y-83125000D03*
X90600000Y-83125000D03*
X91100000Y-83125000D03*
X91600000Y-83125000D03*
X92100000Y-83125000D03*
X92600000Y-83125000D03*
X93100000Y-83125000D03*
X93600000Y-83125000D03*
X94100000Y-83125000D03*
X94600000Y-83125000D03*
X95100000Y-83125000D03*
X95600000Y-83125000D03*
X96100000Y-83125000D03*
D21*
X98000000Y-86375000D03*
X74700000Y-86375000D03*
%TD*%
D10*
%TO.C,R31*%
X115200000Y-85025000D03*
X115200000Y-86675000D03*
%TD*%
D22*
%TO.C,SW2*%
X100673000Y-82006000D03*
X108623000Y-82006000D03*
X100673000Y-77506000D03*
X108623000Y-77506000D03*
%TD*%
D16*
%TO.C,R2*%
X91575000Y-112675000D03*
X89925000Y-112675000D03*
%TD*%
D10*
%TO.C,R46*%
X121600000Y-85050000D03*
X121600000Y-86700000D03*
%TD*%
D11*
%TO.C,R25*%
X111975000Y-91350000D03*
X113625000Y-91350000D03*
%TD*%
D10*
%TO.C,R34*%
X115500000Y-93775000D03*
X115500000Y-95425000D03*
%TD*%
%TO.C,R44*%
X120000000Y-86700000D03*
X120000000Y-88350000D03*
%TD*%
%TO.C,R9*%
X110380000Y-86675000D03*
X110380000Y-88325000D03*
%TD*%
D11*
%TO.C,R13*%
X72875000Y-99900000D03*
X74525000Y-99900000D03*
%TD*%
D13*
%TO.C,C4*%
X106025000Y-89025000D03*
X107575000Y-89025000D03*
%TD*%
D11*
%TO.C,R20*%
X100744000Y-103450000D03*
X102394000Y-103450000D03*
%TD*%
%TO.C,R30*%
X113575000Y-89800000D03*
X115225000Y-89800000D03*
%TD*%
%TO.C,R1*%
X103025000Y-83875000D03*
X104675000Y-83875000D03*
%TD*%
D23*
%TO.C,J4*%
X125747000Y-100656000D03*
X125747000Y-101156000D03*
X125747000Y-101656000D03*
X125747000Y-102156000D03*
X125747000Y-102656000D03*
X125747000Y-103156000D03*
X125747000Y-103656000D03*
X125747000Y-104156000D03*
X125747000Y-104656000D03*
X125747000Y-105156000D03*
X125747000Y-105656000D03*
X125747000Y-106156000D03*
X125747000Y-106656000D03*
X125747000Y-107156000D03*
X125747000Y-107656000D03*
X125747000Y-108156000D03*
X125747000Y-108656000D03*
X125747000Y-109156000D03*
X125747000Y-109656000D03*
%TD*%
D24*
%TO.C,C7*%
X80548008Y-95101992D03*
X79451992Y-96198008D03*
%TD*%
D13*
%TO.C,C9*%
X104350000Y-98750000D03*
X105900000Y-98750000D03*
%TD*%
D10*
%TO.C,R37*%
X116800000Y-85050000D03*
X116800000Y-86700000D03*
%TD*%
D11*
%TO.C,R17*%
X100750000Y-98750000D03*
X102400000Y-98750000D03*
%TD*%
D14*
%TO.C,J5*%
X120783000Y-100656000D03*
X120783000Y-101156000D03*
X120783000Y-101656000D03*
X120783000Y-102156000D03*
X120783000Y-102656000D03*
X120783000Y-103156000D03*
X120783000Y-103656000D03*
X120783000Y-104156000D03*
X120783000Y-104656000D03*
X120783000Y-105156000D03*
X120783000Y-105656000D03*
X120783000Y-106156000D03*
X120783000Y-106656000D03*
X120783000Y-107156000D03*
X120783000Y-107656000D03*
X120783000Y-108156000D03*
X120783000Y-108656000D03*
X120783000Y-109156000D03*
X120783000Y-109656000D03*
D15*
X117533000Y-111556000D03*
X117533000Y-98756000D03*
%TD*%
D13*
%TO.C,C1*%
X106025000Y-85975000D03*
X107575000Y-85975000D03*
%TD*%
D25*
%TO.C,C6*%
X73676992Y-106926992D03*
X74773008Y-108023008D03*
%TD*%
D22*
%TO.C,SW1*%
X118783000Y-82006000D03*
X110833000Y-82006000D03*
X118783000Y-77506000D03*
X110833000Y-77506000D03*
%TD*%
D11*
%TO.C,R23*%
X100775000Y-108204000D03*
X102425000Y-108204000D03*
%TD*%
D20*
%TO.C,J1*%
X96100000Y-79325000D03*
X95600000Y-79325000D03*
X95100000Y-79325000D03*
X94600000Y-79325000D03*
X94100000Y-79325000D03*
X93600000Y-79325000D03*
X93100000Y-79325000D03*
X92600000Y-79325000D03*
X92100000Y-79325000D03*
X91600000Y-79325000D03*
X91100000Y-79325000D03*
X90600000Y-79325000D03*
X90100000Y-79325000D03*
X89600000Y-79325000D03*
X89100000Y-79325000D03*
X88600000Y-79325000D03*
X88100000Y-79325000D03*
X87600000Y-79325000D03*
X87100000Y-79325000D03*
X86600000Y-79325000D03*
X86100000Y-79325000D03*
X85600000Y-79325000D03*
X85100000Y-79325000D03*
X84600000Y-79325000D03*
X84100000Y-79325000D03*
X83600000Y-79325000D03*
X83100000Y-79325000D03*
X82600000Y-79325000D03*
X82100000Y-79325000D03*
X81600000Y-79325000D03*
X81100000Y-79325000D03*
X80600000Y-79325000D03*
X80100000Y-79325000D03*
X79600000Y-79325000D03*
X79100000Y-79325000D03*
X78600000Y-79325000D03*
X78100000Y-79325000D03*
X77600000Y-79325000D03*
X77100000Y-79325000D03*
X76600000Y-79325000D03*
D21*
X98000000Y-76075000D03*
X74700000Y-76075000D03*
%TD*%
D17*
%TO.C,C17*%
X108925000Y-112775000D03*
X107375000Y-112775000D03*
%TD*%
D13*
%TO.C,C11*%
X104350000Y-105000000D03*
X105900000Y-105000000D03*
%TD*%
D10*
%TO.C,R43*%
X120000000Y-85050000D03*
X120000000Y-86700000D03*
%TD*%
D13*
%TO.C,C16*%
X104381000Y-109800000D03*
X105931000Y-109800000D03*
%TD*%
D11*
%TO.C,R29*%
X101300000Y-112775000D03*
X102950000Y-112775000D03*
%TD*%
D13*
%TO.C,C10*%
X104350000Y-101800000D03*
X105900000Y-101800000D03*
%TD*%
D11*
%TO.C,R45*%
X119975000Y-89825000D03*
X121625000Y-89825000D03*
%TD*%
%TO.C,R11*%
X72950000Y-96150000D03*
X74600000Y-96150000D03*
%TD*%
%TO.C,R7*%
X72875000Y-101425000D03*
X74525000Y-101425000D03*
%TD*%
D13*
%TO.C,C12*%
X104381000Y-108204000D03*
X105931000Y-108204000D03*
%TD*%
D11*
%TO.C,R21*%
X100750000Y-105000000D03*
X102400000Y-105000000D03*
%TD*%
D24*
%TO.C,C5*%
X79048008Y-94451992D03*
X77951992Y-95548008D03*
%TD*%
D26*
%TO.C,U2*%
X84851635Y-104673000D03*
X83296000Y-106228635D03*
X83296000Y-103117365D03*
X81740365Y-104673000D03*
D27*
X81917142Y-97990841D03*
X81563588Y-98344394D03*
X81210035Y-98697948D03*
X80856482Y-99051501D03*
X80502928Y-99405054D03*
X80149375Y-99758608D03*
X79795821Y-100112161D03*
X79442268Y-100465715D03*
X79088715Y-100819268D03*
X78735161Y-101172821D03*
X78381608Y-101526375D03*
X78028054Y-101879928D03*
X77674501Y-102233482D03*
X77320948Y-102587035D03*
X76967394Y-102940588D03*
X76613841Y-103294142D03*
D28*
X76613841Y-106051858D03*
X76967394Y-106405412D03*
X77320948Y-106758965D03*
X77674501Y-107112518D03*
X78028054Y-107466072D03*
X78381608Y-107819625D03*
X78735161Y-108173179D03*
X79088715Y-108526732D03*
X79442268Y-108880285D03*
X79795821Y-109233839D03*
X80149375Y-109587392D03*
X80502928Y-109940946D03*
X80856482Y-110294499D03*
X81210035Y-110648052D03*
X81563588Y-111001606D03*
X81917142Y-111355159D03*
D27*
X84674858Y-111355159D03*
X85028412Y-111001606D03*
X85381965Y-110648052D03*
X85735518Y-110294499D03*
X86089072Y-109940946D03*
X86442625Y-109587392D03*
X86796179Y-109233839D03*
X87149732Y-108880285D03*
X87503285Y-108526732D03*
X87856839Y-108173179D03*
X88210392Y-107819625D03*
X88563946Y-107466072D03*
X88917499Y-107112518D03*
X89271052Y-106758965D03*
X89624606Y-106405412D03*
X89978159Y-106051858D03*
D28*
X89978159Y-103294142D03*
X89624606Y-102940588D03*
X89271052Y-102587035D03*
X88917499Y-102233482D03*
X88563946Y-101879928D03*
X88210392Y-101526375D03*
X87856839Y-101172821D03*
X87503285Y-100819268D03*
X87149732Y-100465715D03*
X86796179Y-100112161D03*
X86442625Y-99758608D03*
X86089072Y-99405054D03*
X85735518Y-99051501D03*
X85381965Y-98697948D03*
X85028412Y-98344394D03*
X84674858Y-97990841D03*
%TD*%
D10*
%TO.C,R41*%
X118400000Y-86700000D03*
X118400000Y-88350000D03*
%TD*%
D11*
%TO.C,R42*%
X118375000Y-91350000D03*
X120025000Y-91350000D03*
%TD*%
%TO.C,R10*%
X110375000Y-89800000D03*
X112025000Y-89800000D03*
%TD*%
%TO.C,R36*%
X115175000Y-91350000D03*
X116825000Y-91350000D03*
%TD*%
%TO.C,R24*%
X100775000Y-109800000D03*
X102425000Y-109800000D03*
%TD*%
D10*
%TO.C,R15*%
X112000000Y-85025000D03*
X112000000Y-86675000D03*
%TD*%
D13*
%TO.C,C3*%
X106025000Y-87500000D03*
X107575000Y-87500000D03*
%TD*%
D10*
%TO.C,R47*%
X121600000Y-86700000D03*
X121600000Y-88350000D03*
%TD*%
%TO.C,R40*%
X118400000Y-85050000D03*
X118400000Y-86700000D03*
%TD*%
M02*
