M48
; DRILL file {KiCad (6.0.7)} date Wed Oct 26 10:56:11 2022
; FORMAT={-:-/ absolute / inch / decimal}
; #@! TF.CreationDate,2022-10-26T10:56:11+02:00
; #@! TF.GenerationSoftware,Kicad,Pcbnew,(6.0.7)
; #@! TF.FileFunction,Plated,1,4,PTH
FMAT,2
INCH
; #@! TA.AperFunction,Plated,PTH,ViaDrill
T1C0.0118
; #@! TA.AperFunction,Plated,PTH,ComponentDrill
T2C0.0118
; #@! TA.AperFunction,Plated,PTH,ViaDrill
T3C0.0157
; #@! TA.AperFunction,Plated,PTH,ComponentDrill
T4C0.0354
; #@! TA.AperFunction,Plated,PTH,ComponentDrill
T5C0.0394
%
G90
G05
T1
X2.8346Y-3.9331
X2.8366Y-3.9931
X2.8622Y-4.3996
X2.8622Y-4.5335
X2.8711Y-3.8238
X2.873Y-3.686
X2.875Y-4.1841
X2.9055Y-3.9331
X2.9173Y-4.2795
X2.9281Y-4.0256
X2.9557Y-3.8907
X2.9557Y-4.3268
X2.9708Y-3.8671
X2.9764Y-4.0354
X2.9784Y-3.8238
X2.9812Y-4.2076
X2.9911Y-3.9528
X2.9957Y-3.8455
X3.0175Y-3.9449
X3.023Y-4.4475
X3.0266Y-4.3346
X3.0269Y-3.7615
X3.0274Y-3.9706
X3.046Y-3.9281
X3.0504Y-4.4441
X3.0536Y-3.3219
X3.0777Y-4.4471
X3.0797Y-3.8172
X3.0866Y-4.3543
X3.0866Y-4.4173
X3.0916Y-3.8454
X3.0968Y-3.3228
X3.1092Y-4.6017
X3.1277Y-4.5814
X3.1388Y-3.6949
X3.1437Y-4.3847
X3.1485Y-4.5633
X3.1614Y-3.8209
X3.1693Y-4.5452
X3.1732Y-3.3238
X3.1978Y-3.7195
X3.2057Y-4.4439
X3.253Y-3.3228
X3.2589Y-3.413
X3.2589Y-3.5551
X3.2796Y-3.577
X3.2806Y-3.3916
X3.2972Y-4.4724
X3.3022Y-3.4134
X3.3022Y-3.5551
X3.3228Y-3.5778
X3.3238Y-3.3927
X3.3321Y-3.3198
X3.3327Y-3.3583
X3.3462Y-3.5551
X3.3475Y-3.4131
X3.3488Y-3.7369
X3.3602Y-3.8144
X3.3685Y-3.3917
X3.369Y-3.5706
X3.376Y-3.7323
X3.3917Y-3.4114
X3.3917Y-3.5551
X3.3917Y-3.8415
X3.3957Y-4.4301
X3.4076Y-3.6907
X3.4094Y-3.3199
X3.4114Y-3.4321
X3.4183Y-3.5641
X3.4292Y-3.7126
X3.4341Y-3.4124
X3.4508Y-3.689
X3.4557Y-3.4332
X3.4725Y-3.7106
X3.4774Y-3.4134
X3.4885Y-3.3253
X3.4902Y-3.3839
X3.4941Y-3.687
X3.5Y-3.4332
X3.503Y-4.2874
X3.5039Y-4.4331
X3.506Y-3.8846
X3.506Y-3.9121
X3.5157Y-3.7096
X3.526Y-3.4154
X3.5371Y-3.9858
X3.5374Y-3.687
X3.5492Y-3.4332
X3.56Y-4.1585
X3.5623Y-3.6998
X3.5693Y-3.3209
X3.5768Y-3.4332
X3.5827Y-3.0768
X3.6063Y-3.0581
X3.6339Y-3.0778
X3.6407Y-4.435
X3.6417Y-4.4862
X3.7985Y-3.9065
X3.8193Y-3.9246
X3.8323Y-4.0272
X3.8402Y-3.9455
X3.8518Y-4.0466
X3.8583Y-3.9662
X3.8726Y-4.0675
X3.8921Y-4.087
X3.9144Y-3.2283
X3.9449Y-3.4961
X3.9636Y-3.0935
X3.9656Y-3.6388
X3.9882Y-3.6152
X3.9882Y-4.4764
X4.004Y-3.6407
X4.0226Y-3.3012
X4.0364Y-3.5472
X4.0551Y-3.7254
X4.0679Y-3.5413
X4.0728Y-4.503
X4.0856Y-3.75
X4.1073Y-3.5404
X4.1122Y-3.7037
X4.1437Y-3.4163
X4.1437Y-3.4764
X4.1437Y-3.3543
X4.1634Y-3.5492
X4.2008Y-3.6772
X4.2165Y-3.7608
X4.2192Y-3.5489
X4.2352Y-3.3474
X4.2421Y-3.7736
X4.2541Y-4.2787
X4.2746Y-3.3022
X4.2756Y-3.0925
X4.2756Y-3.5138
X4.2757Y-4.2571
X4.2884Y-3.4852
X4.2904Y-4.3406
X4.2934Y-4.236
X4.3206Y-3.2286
X4.3247Y-4.2297
X4.3378Y-3.9814
X4.3397Y-4.0404
X4.34Y-4.0994
X4.34Y-4.1585
X4.3465Y-3.312
X4.3524Y-3.4458
X4.3642Y-3.0955
X4.3674Y-4.35
X4.3848Y-3.7825
X4.4045Y-3.6348
X4.4154Y-3.4458
X4.42Y-3.84
X4.4416Y-3.82
X4.4681Y-3.6422
X4.4904Y-3.4448
X4.5138Y-3.7953
X4.5145Y-3.3003
X4.5413Y-3.2943
X4.5468Y-3.4458
X4.6093Y-3.4468
X4.6093Y-3.6575
X4.6744Y-3.4467
X4.6752Y-3.0945
X4.7274Y-3.2283
X4.7384Y-3.4467
X4.7993Y-3.4479
X4.8031Y-2.8661
X4.8346Y-3.6457
X4.8504Y-2.8661
X4.8504Y-2.9134
T2
X3.0845Y-4.121
X3.168Y-4.121
X3.1819Y-4.0235
X3.1819Y-4.2184
X3.2237Y-4.0653
X3.2237Y-4.1767
X3.2794Y-3.9261
X3.2794Y-4.0096
X3.2794Y-4.121
X3.2794Y-4.2323
X3.2794Y-4.3159
X3.335Y-4.0653
X3.335Y-4.1767
X3.3768Y-4.0235
X3.3768Y-4.2184
X3.3907Y-4.121
X3.4742Y-4.121
T3
X4.375Y-4.565
X4.8268Y-3.0079
T5
X4.0315Y-2.9528
X4.1315Y-2.9528
X4.2315Y-2.9528
X4.3315Y-2.9528
X4.4315Y-2.9528
X4.5315Y-2.9528
X4.6315Y-2.9528
T4
G00X4.9452Y-3.8546
M15
G01X5.016Y-3.8546
M16
G05
G00X4.9452Y-4.4254
M15
G01X5.016Y-4.4254
M16
G05
G00X5.1995Y-3.8546
M15
G01X5.231Y-3.8546
M16
G05
G00X5.1995Y-4.4254
M15
G01X5.231Y-4.4254
M16
G05
T0
M30
