M48
; DRILL file {KiCad (7.0.0)} date Wed Apr  5 00:45:11 2023
; FORMAT={-:-/ absolute / inch / decimal}
; #@! TF.CreationDate,2023-04-05T00:45:11+02:00
; #@! TF.GenerationSoftware,Kicad,Pcbnew,(7.0.0)
; #@! TF.FileFunction,Plated,1,2,PTH
FMAT,2
INCH
; #@! TA.AperFunction,Plated,PTH,ViaDrill
T1C0.0157
; #@! TA.AperFunction,Plated,PTH,ComponentDrill
T2C0.0394
%
G90
G05
T1
X3.0236Y-3.7047
X3.061Y-3.2382
X3.0787Y-3.0669
X3.0817Y-4.3307
X3.1299Y-4.9016
X3.1299Y-5.0039
X3.1299Y-4.0787
X3.1496Y-4.9528
X3.1594Y-2.9724
X3.1732Y-3.7283
X3.189Y-4.0866
X3.1998Y-5.0236
X3.2254Y-5.0987
X3.2323Y-3.6969
X3.2323Y-3.8661
X3.2323Y-3.9331
X3.2598Y-5.1535
X3.2677Y-5.2087
X3.2992Y-4.2126
X3.3031Y-3.4094
X3.3228Y-4.2598
X3.3268Y-4.378
X3.3307Y-4.3189
X3.3465Y-3.8661
X3.3465Y-3.9331
X3.3583Y-4.9213
X3.3583Y-4.9843
X3.3636Y-5.0538
X3.3819Y-3.5394
X3.3898Y-3.0551
X3.437Y-4.7559
X3.437Y-4.8189
X3.4449Y-5.0591
X3.4606Y-4.9921
X3.4646Y-5.126
X3.4646Y-5.3228
X3.4882Y-4.8701
X3.5112Y-5.2014
X3.5118Y-5.0394
X3.5118Y-5.1614
X3.5157Y-5.0984
X3.5197Y-4.2087
X3.5236Y-4.815
X3.5669Y-3.8543
X3.5945Y-3.9055
X3.5945Y-3.9646
X3.6299Y-3.5394
X3.6299Y-4.7992
X3.6575Y-4.2047
X3.6693Y-4.7126
X3.7126Y-5.0039
X3.7126Y-5.2441
X3.752Y-4.7835
X3.7559Y-4.7205
X3.7713Y-4.6759
X3.7835Y-4.8189
X3.8307Y-5.0906
X3.8386Y-4.4016
X3.8386Y-4.6772
X3.8427Y-4.7195
X3.8484Y-2.9724
X3.8504Y-4.8976
X3.8574Y-4.9528
X3.8583Y-3.9606
X3.8583Y-4.9921
X3.8622Y-4.626
X3.8661Y-4.3268
X3.8661Y-5.2756
X3.8737Y-4.7994
X3.8858Y-3.8543
X3.8937Y-4.2795
X3.8976Y-5.0472
X3.9055Y-4.9528
X3.9094Y-3.9016
X3.9094Y-3.9606
X3.9115Y-5.1187
X3.9488Y-5.1063
X3.9606Y-4.7195
X3.9646Y-4.2008
X3.9685Y-3.4016
X3.9724Y-3.7165
X3.9749Y-5.0534
X3.9764Y-3.8701
X4.0Y-5.378
X4.0276Y-3.9606
X4.0866Y-3.0354
X4.1063Y-5.0472
X4.1339Y-3.3228
X4.1496Y-4.7214
X4.1712Y-4.5016
X4.1929Y-3.2677
X4.2008Y-3.1339
X4.2008Y-3.8504
X4.2047Y-3.9016
X4.2047Y-3.9567
X4.2244Y-3.5984
X4.2402Y-5.4055
X4.3543Y-4.5945
X4.3622Y-5.3465
X4.5055Y-5.0079
X4.5512Y-4.5945
X4.5591Y-3.3268
X4.563Y-3.0394
X4.563Y-3.5906
X4.5669Y-3.9567
X4.5709Y-4.3268
X4.5709Y-5.3976
X4.6299Y-3.1378
X4.6363Y-4.9881
X4.6535Y-3.2165
X4.6693Y-3.2953
X4.6772Y-3.4961
X4.6811Y-3.3898
X4.685Y-5.003
X4.689Y-4.9528
X4.6969Y-3.5709
X4.7126Y-3.6575
X4.7244Y-5.1339
X4.7283Y-4.937
X4.8386Y-3.6811
X4.8386Y-3.8819
X4.8465Y-4.3425
X4.8465Y-4.4409
X4.8504Y-3.7835
X4.8543Y-4.2323
X4.8543Y-5.0276
X4.8583Y-2.874
X4.874Y-4.8937
X4.8937Y-5.0709
X4.8976Y-4.9567
X4.9016Y-4.9961
X4.9016Y-5.2008
X4.9055Y-4.8465
X5.5157Y-5.0827
X5.563Y-4.7205
X5.626Y-4.0472
X5.6299Y-4.5748
X5.6339Y-3.878
X5.6457Y-3.6811
X5.748Y-3.6457
X5.7677Y-3.5591
X5.7835Y-3.4764
X5.7913Y-3.3976
X5.815Y-3.311
X5.8268Y-3.2244
X5.8425Y-3.1378
X5.8465Y-2.8701
X5.8583Y-5.4094
X5.8819Y-3.0591
T2
X4.7871Y-2.9315
X4.7871Y-3.0315
X4.7871Y-3.1315
X4.7871Y-3.2315
X4.7871Y-3.3315
X4.7871Y-3.4315
X4.7871Y-3.5315
X4.7871Y-3.6315
X4.7871Y-3.7315
X4.7871Y-3.8315
X4.7871Y-3.9315
X4.7871Y-4.0315
X4.7871Y-4.1315
X4.7871Y-4.2315
X4.7871Y-4.3315
X4.7871Y-4.4315
X4.7871Y-4.5315
X4.7871Y-4.6315
X4.7871Y-4.7315
X4.7871Y-4.8315
X4.7871Y-4.9315
X4.7871Y-5.0315
X4.7871Y-5.1315
X4.7871Y-5.2315
X5.6854Y-2.9315
X5.6854Y-3.0315
X5.6854Y-3.1315
X5.6854Y-3.2315
X5.6854Y-3.3315
X5.6854Y-3.4315
X5.6854Y-3.5315
X5.6854Y-3.6315
X5.6854Y-3.7315
X5.6854Y-3.8315
X5.6854Y-3.9315
X5.6854Y-4.0315
X5.6854Y-4.1315
X5.6854Y-4.2315
X5.6854Y-4.3315
X5.6854Y-4.4315
X5.6854Y-4.5315
X5.6854Y-4.6315
X5.6854Y-4.7315
X5.6854Y-4.8315
X5.6854Y-4.9315
X5.6854Y-5.0315
X5.6854Y-5.1315
X5.6854Y-5.2315
T0
M30
