%TF.GenerationSoftware,KiCad,Pcbnew,(7.0.0)*%
%TF.CreationDate,2023-04-05T00:45:08+02:00*%
%TF.ProjectId,TTL_to_HDMI,54544c5f-746f-45f4-9844-4d492e6b6963,4.0*%
%TF.SameCoordinates,Original*%
%TF.FileFunction,Soldermask,Bot*%
%TF.FilePolarity,Negative*%
%FSLAX46Y46*%
G04 Gerber Fmt 4.6, Leading zero omitted, Abs format (unit mm)*
G04 Created by KiCad (PCBNEW (7.0.0)) date 2023-04-05 00:45:08*
%MOMM*%
%LPD*%
G01*
G04 APERTURE LIST*
%ADD10R,1.500000X1.500000*%
%ADD11C,1.500000*%
G04 APERTURE END LIST*
D10*
%TO.C,U5*%
X121591549Y-74459999D03*
D11*
X121591550Y-77000000D03*
X121591550Y-79540000D03*
X121591550Y-82080000D03*
X121591550Y-84620000D03*
X121591550Y-87160000D03*
X121591550Y-89700000D03*
X121591550Y-92240000D03*
X121591550Y-94780000D03*
X121591550Y-97320000D03*
X121591550Y-99860000D03*
X121591550Y-102400000D03*
X121591550Y-104940000D03*
X121591550Y-107480000D03*
X121591550Y-110020000D03*
X121591550Y-112560000D03*
X121591550Y-115100000D03*
X121591550Y-117640000D03*
X121591550Y-120180000D03*
X121591550Y-122720000D03*
X121591550Y-125260000D03*
X121591550Y-127800000D03*
X121591550Y-130340000D03*
X121591550Y-132880000D03*
X144408450Y-132880000D03*
X144408450Y-130340000D03*
X144408450Y-127800000D03*
X144408450Y-125260000D03*
X144408450Y-122720000D03*
X144408450Y-120180000D03*
X144408450Y-117640000D03*
X144408450Y-115100000D03*
X144408450Y-112560000D03*
X144408450Y-110020000D03*
X144408450Y-107480000D03*
X144408450Y-104940000D03*
X144408450Y-102400000D03*
X144408450Y-99860000D03*
X144408450Y-97320000D03*
X144408450Y-94780000D03*
X144408450Y-92240000D03*
X144408450Y-89700000D03*
X144408450Y-87160000D03*
X144408450Y-84620000D03*
X144408450Y-82080000D03*
X144408450Y-79540000D03*
X144408450Y-77000000D03*
D10*
X144408449Y-74459999D03*
%TD*%
M02*
