%TF.GenerationSoftware,KiCad,Pcbnew,(7.0.0)*%
%TF.CreationDate,2023-04-05T00:45:08+02:00*%
%TF.ProjectId,TTL_to_HDMI,54544c5f-746f-45f4-9844-4d492e6b6963,4.0*%
%TF.SameCoordinates,Original*%
%TF.FileFunction,Soldermask,Top*%
%TF.FilePolarity,Negative*%
%FSLAX46Y46*%
G04 Gerber Fmt 4.6, Leading zero omitted, Abs format (unit mm)*
G04 Created by KiCad (PCBNEW (7.0.0)) date 2023-04-05 00:45:08*
%MOMM*%
%LPD*%
G01*
G04 APERTURE LIST*
G04 Aperture macros list*
%AMRoundRect*
0 Rectangle with rounded corners*
0 $1 Rounding radius*
0 $2 $3 $4 $5 $6 $7 $8 $9 X,Y pos of 4 corners*
0 Add a 4 corners polygon primitive as box body*
4,1,4,$2,$3,$4,$5,$6,$7,$8,$9,$2,$3,0*
0 Add four circle primitives for the rounded corners*
1,1,$1+$1,$2,$3*
1,1,$1+$1,$4,$5*
1,1,$1+$1,$6,$7*
1,1,$1+$1,$8,$9*
0 Add four rect primitives between the rounded corners*
20,1,$1+$1,$2,$3,$4,$5,0*
20,1,$1+$1,$4,$5,$6,$7,0*
20,1,$1+$1,$6,$7,$8,$9,0*
20,1,$1+$1,$8,$9,$2,$3,0*%
G04 Aperture macros list end*
%ADD10RoundRect,0.200000X-0.200000X-0.275000X0.200000X-0.275000X0.200000X0.275000X-0.200000X0.275000X0*%
%ADD11RoundRect,0.200000X-0.275000X0.200000X-0.275000X-0.200000X0.275000X-0.200000X0.275000X0.200000X0*%
%ADD12R,1.300000X0.300000*%
%ADD13R,2.200000X1.800000*%
%ADD14RoundRect,0.100000X-0.100000X0.637500X-0.100000X-0.637500X0.100000X-0.637500X0.100000X0.637500X0*%
%ADD15R,0.300000X1.300000*%
%ADD16R,1.800000X2.200000*%
%ADD17RoundRect,0.200000X0.275000X-0.200000X0.275000X0.200000X-0.275000X0.200000X-0.275000X-0.200000X0*%
%ADD18RoundRect,0.225000X0.250000X-0.225000X0.250000X0.225000X-0.250000X0.225000X-0.250000X-0.225000X0*%
%ADD19RoundRect,0.150000X0.587500X0.150000X-0.587500X0.150000X-0.587500X-0.150000X0.587500X-0.150000X0*%
%ADD20R,1.500000X1.500000*%
%ADD21C,1.500000*%
%ADD22RoundRect,0.200000X0.200000X0.275000X-0.200000X0.275000X-0.200000X-0.275000X0.200000X-0.275000X0*%
G04 APERTURE END LIST*
D10*
%TO.C,R5*%
X90275000Y-135500000D03*
X91925000Y-135500000D03*
%TD*%
%TO.C,R10*%
X90275000Y-128000000D03*
X91925000Y-128000000D03*
%TD*%
D11*
%TO.C,R14*%
X95100000Y-133875000D03*
X95100000Y-135525000D03*
%TD*%
D12*
%TO.C,J1*%
X102249999Y-134699999D03*
X102249999Y-134199999D03*
X102249999Y-133699999D03*
X102249999Y-133199999D03*
X102249999Y-132699999D03*
X102249999Y-132199999D03*
X102249999Y-131699999D03*
X102249999Y-131199999D03*
X102249999Y-130699999D03*
X102249999Y-130199999D03*
X102249999Y-129699999D03*
X102249999Y-129199999D03*
X102249999Y-128699999D03*
X102249999Y-128199999D03*
X102249999Y-127699999D03*
X102249999Y-127199999D03*
X102249999Y-126699999D03*
X102249999Y-126199999D03*
X102249999Y-125699999D03*
X102249999Y-125199999D03*
X102249999Y-124699999D03*
X102249999Y-124199999D03*
X102249999Y-123699999D03*
X102249999Y-123199999D03*
X102249999Y-122699999D03*
X102249999Y-122199999D03*
X102249999Y-121699999D03*
X102249999Y-121199999D03*
X102249999Y-120699999D03*
X102249999Y-120199999D03*
X102249999Y-119699999D03*
X102249999Y-119199999D03*
D13*
X105499999Y-136599999D03*
X105499999Y-117299999D03*
%TD*%
D10*
%TO.C,R13*%
X90275000Y-124900000D03*
X91925000Y-124900000D03*
%TD*%
D14*
%TO.C,U6*%
X99900000Y-96275000D03*
X99250000Y-96275000D03*
X98600000Y-96275000D03*
X97950000Y-96275000D03*
X97300000Y-96275000D03*
X96650000Y-96275000D03*
X96000000Y-96275000D03*
X95350000Y-96275000D03*
X94700000Y-96275000D03*
X94050000Y-96275000D03*
X94050000Y-102000000D03*
X94700000Y-102000000D03*
X95350000Y-102000000D03*
X96000000Y-102000000D03*
X96650000Y-102000000D03*
X97300000Y-102000000D03*
X97950000Y-102000000D03*
X98600000Y-102000000D03*
X99250000Y-102000000D03*
X99900000Y-102000000D03*
%TD*%
D10*
%TO.C,R6*%
X90275000Y-134000000D03*
X91925000Y-134000000D03*
%TD*%
D15*
%TO.C,U2*%
X79499999Y-84999999D03*
X79999999Y-84999999D03*
X80499999Y-84999999D03*
X80999999Y-84999999D03*
X81499999Y-84999999D03*
X81999999Y-84999999D03*
X82499999Y-84999999D03*
X82999999Y-84999999D03*
X83499999Y-84999999D03*
X83999999Y-84999999D03*
X84499999Y-84999999D03*
X84999999Y-84999999D03*
X85499999Y-84999999D03*
X85999999Y-84999999D03*
X86499999Y-84999999D03*
X86999999Y-84999999D03*
X87499999Y-84999999D03*
X87999999Y-84999999D03*
X88499999Y-84999999D03*
X88999999Y-84999999D03*
X89499999Y-84999999D03*
X89999999Y-84999999D03*
X90499999Y-84999999D03*
X90999999Y-84999999D03*
X91499999Y-84999999D03*
X91999999Y-84999999D03*
X92499999Y-84999999D03*
X92999999Y-84999999D03*
X93499999Y-84999999D03*
X93999999Y-84999999D03*
X94499999Y-84999999D03*
X94999999Y-84999999D03*
X95499999Y-84999999D03*
X95999999Y-84999999D03*
X96499999Y-84999999D03*
X96999999Y-84999999D03*
X97499999Y-84999999D03*
X97999999Y-84999999D03*
X98499999Y-84999999D03*
X98999999Y-84999999D03*
X99499999Y-84999999D03*
X99999999Y-84999999D03*
X100499999Y-84999999D03*
X100999999Y-84999999D03*
X101499999Y-84999999D03*
X101999999Y-84999999D03*
X102499999Y-84999999D03*
X102999999Y-84999999D03*
X103499999Y-84999999D03*
X103999999Y-84999999D03*
D16*
X77599999Y-88249999D03*
X105899999Y-88249999D03*
%TD*%
D17*
%TO.C,R20*%
X95100000Y-126425000D03*
X95100000Y-124775000D03*
%TD*%
D11*
%TO.C,R18*%
X93500000Y-127775000D03*
X93500000Y-129425000D03*
%TD*%
D18*
%TO.C,C7*%
X91700000Y-105675000D03*
X91700000Y-104125000D03*
%TD*%
D12*
%TO.C,J2*%
X116149999Y-119199999D03*
X116149999Y-119699999D03*
X116149999Y-120199999D03*
X116149999Y-120699999D03*
X116149999Y-121199999D03*
X116149999Y-121699999D03*
X116149999Y-122199999D03*
X116149999Y-122699999D03*
X116149999Y-123199999D03*
X116149999Y-123699999D03*
X116149999Y-124199999D03*
X116149999Y-124699999D03*
X116149999Y-125199999D03*
X116149999Y-125699999D03*
X116149999Y-126199999D03*
X116149999Y-126699999D03*
X116149999Y-127199999D03*
X116149999Y-127699999D03*
X116149999Y-128199999D03*
X116149999Y-128699999D03*
X116149999Y-129199999D03*
X116149999Y-129699999D03*
X116149999Y-130199999D03*
X116149999Y-130699999D03*
X116149999Y-131199999D03*
X116149999Y-131699999D03*
X116149999Y-132199999D03*
X116149999Y-132699999D03*
X116149999Y-133199999D03*
X116149999Y-133699999D03*
X116149999Y-134199999D03*
X116149999Y-134699999D03*
D13*
X112899999Y-117299999D03*
X112899999Y-136599999D03*
%TD*%
D10*
%TO.C,R7*%
X90275000Y-132500000D03*
X91925000Y-132500000D03*
%TD*%
D15*
%TO.C,U1*%
X103999999Y-79049999D03*
X103499999Y-79049999D03*
X102999999Y-79049999D03*
X102499999Y-79049999D03*
X101999999Y-79049999D03*
X101499999Y-79049999D03*
X100999999Y-79049999D03*
X100499999Y-79049999D03*
X99999999Y-79049999D03*
X99499999Y-79049999D03*
X98999999Y-79049999D03*
X98499999Y-79049999D03*
X97999999Y-79049999D03*
X97499999Y-79049999D03*
X96999999Y-79049999D03*
X96499999Y-79049999D03*
X95999999Y-79049999D03*
X95499999Y-79049999D03*
X94999999Y-79049999D03*
X94499999Y-79049999D03*
X93999999Y-79049999D03*
X93499999Y-79049999D03*
X92999999Y-79049999D03*
X92499999Y-79049999D03*
X91999999Y-79049999D03*
X91499999Y-79049999D03*
X90999999Y-79049999D03*
X90499999Y-79049999D03*
X89999999Y-79049999D03*
X89499999Y-79049999D03*
X88999999Y-79049999D03*
X88499999Y-79049999D03*
X87999999Y-79049999D03*
X87499999Y-79049999D03*
X86999999Y-79049999D03*
X86499999Y-79049999D03*
X85999999Y-79049999D03*
X85499999Y-79049999D03*
X84999999Y-79049999D03*
X84499999Y-79049999D03*
X83999999Y-79049999D03*
X83499999Y-79049999D03*
X82999999Y-79049999D03*
X82499999Y-79049999D03*
X81999999Y-79049999D03*
X81499999Y-79049999D03*
X80999999Y-79049999D03*
X80499999Y-79049999D03*
X79999999Y-79049999D03*
X79499999Y-79049999D03*
D16*
X105899999Y-75799999D03*
X77599999Y-75799999D03*
%TD*%
D19*
%TO.C,Q2*%
X82937500Y-135150000D03*
X82937500Y-133250000D03*
X81062500Y-134200000D03*
%TD*%
D14*
%TO.C,U8*%
X83925000Y-96237500D03*
X83275000Y-96237500D03*
X82625000Y-96237500D03*
X81975000Y-96237500D03*
X81325000Y-96237500D03*
X80675000Y-96237500D03*
X80025000Y-96237500D03*
X79375000Y-96237500D03*
X78725000Y-96237500D03*
X78075000Y-96237500D03*
X78075000Y-101962500D03*
X78725000Y-101962500D03*
X79375000Y-101962500D03*
X80025000Y-101962500D03*
X80675000Y-101962500D03*
X81325000Y-101962500D03*
X81975000Y-101962500D03*
X82625000Y-101962500D03*
X83275000Y-101962500D03*
X83925000Y-101962500D03*
%TD*%
D17*
%TO.C,R17*%
X95100000Y-132525000D03*
X95100000Y-130875000D03*
%TD*%
%TO.C,R21*%
X93500000Y-126425000D03*
X93500000Y-124775000D03*
%TD*%
D10*
%TO.C,R11*%
X104975000Y-81200000D03*
X106625000Y-81200000D03*
%TD*%
D11*
%TO.C,R3*%
X107600000Y-92575000D03*
X107600000Y-94225000D03*
%TD*%
D14*
%TO.C,U7*%
X91925000Y-96237500D03*
X91275000Y-96237500D03*
X90625000Y-96237500D03*
X89975000Y-96237500D03*
X89325000Y-96237500D03*
X88675000Y-96237500D03*
X88025000Y-96237500D03*
X87375000Y-96237500D03*
X86725000Y-96237500D03*
X86075000Y-96237500D03*
X86075000Y-101962500D03*
X86725000Y-101962500D03*
X87375000Y-101962500D03*
X88025000Y-101962500D03*
X88675000Y-101962500D03*
X89325000Y-101962500D03*
X89975000Y-101962500D03*
X90625000Y-101962500D03*
X91275000Y-101962500D03*
X91925000Y-101962500D03*
%TD*%
D10*
%TO.C,R4*%
X103875000Y-83000000D03*
X105525000Y-83000000D03*
%TD*%
%TO.C,R8*%
X90275000Y-131000000D03*
X91925000Y-131000000D03*
%TD*%
D20*
%TO.C,U5*%
X121591549Y-74459999D03*
D21*
X121591550Y-77000000D03*
X121591550Y-79540000D03*
X121591550Y-82080000D03*
X121591550Y-84620000D03*
X121591550Y-87160000D03*
X121591550Y-89700000D03*
X121591550Y-92240000D03*
X121591550Y-94780000D03*
X121591550Y-97320000D03*
X121591550Y-99860000D03*
X121591550Y-102400000D03*
X121591550Y-104940000D03*
X121591550Y-107480000D03*
X121591550Y-110020000D03*
X121591550Y-112560000D03*
X121591550Y-115100000D03*
X121591550Y-117640000D03*
X121591550Y-120180000D03*
X121591550Y-122720000D03*
X121591550Y-125260000D03*
X121591550Y-127800000D03*
X121591550Y-130340000D03*
X121591550Y-132880000D03*
X144408450Y-132880000D03*
X144408450Y-130340000D03*
X144408450Y-127800000D03*
X144408450Y-125260000D03*
X144408450Y-122720000D03*
X144408450Y-120180000D03*
X144408450Y-117640000D03*
X144408450Y-115100000D03*
X144408450Y-112560000D03*
X144408450Y-110020000D03*
X144408450Y-107480000D03*
X144408450Y-104940000D03*
X144408450Y-102400000D03*
X144408450Y-99860000D03*
X144408450Y-97320000D03*
X144408450Y-94780000D03*
X144408450Y-92240000D03*
X144408450Y-89700000D03*
X144408450Y-87160000D03*
X144408450Y-84620000D03*
X144408450Y-82080000D03*
X144408450Y-79540000D03*
X144408450Y-77000000D03*
D20*
X144408449Y-74459999D03*
%TD*%
D10*
%TO.C,R1*%
X84675000Y-135200000D03*
X86325000Y-135200000D03*
%TD*%
D11*
%TO.C,R15*%
X93500000Y-133875000D03*
X93500000Y-135525000D03*
%TD*%
D18*
%TO.C,C8*%
X83700000Y-105650000D03*
X83700000Y-104100000D03*
%TD*%
D14*
%TO.C,U3*%
X107850000Y-96237500D03*
X107200000Y-96237500D03*
X106550000Y-96237500D03*
X105900000Y-96237500D03*
X105250000Y-96237500D03*
X104600000Y-96237500D03*
X103950000Y-96237500D03*
X103300000Y-96237500D03*
X102650000Y-96237500D03*
X102000000Y-96237500D03*
X102000000Y-101962500D03*
X102650000Y-101962500D03*
X103300000Y-101962500D03*
X103950000Y-101962500D03*
X104600000Y-101962500D03*
X105250000Y-101962500D03*
X105900000Y-101962500D03*
X106550000Y-101962500D03*
X107200000Y-101962500D03*
X107850000Y-101962500D03*
%TD*%
D18*
%TO.C,C3*%
X107700000Y-105675000D03*
X107700000Y-104125000D03*
%TD*%
D10*
%TO.C,R12*%
X90275000Y-126400000D03*
X91925000Y-126400000D03*
%TD*%
D11*
%TO.C,R19*%
X95100000Y-127775000D03*
X95100000Y-129425000D03*
%TD*%
D22*
%TO.C,R2*%
X86325000Y-133200000D03*
X84675000Y-133200000D03*
%TD*%
D17*
%TO.C,R16*%
X93500000Y-132525000D03*
X93500000Y-130875000D03*
%TD*%
D18*
%TO.C,C4*%
X99700000Y-105675000D03*
X99700000Y-104125000D03*
%TD*%
D10*
%TO.C,R9*%
X90275000Y-129500000D03*
X91925000Y-129500000D03*
%TD*%
M02*
