%TF.GenerationSoftware,KiCad,Pcbnew,(7.0.0)*%
%TF.CreationDate,2023-04-05T00:45:08+02:00*%
%TF.ProjectId,TTL_to_HDMI,54544c5f-746f-45f4-9844-4d492e6b6963,4.0*%
%TF.SameCoordinates,Original*%
%TF.FileFunction,Legend,Bot*%
%TF.FilePolarity,Positive*%
%FSLAX46Y46*%
G04 Gerber Fmt 4.6, Leading zero omitted, Abs format (unit mm)*
G04 Created by KiCad (PCBNEW (7.0.0)) date 2023-04-05 00:45:08*
%MOMM*%
%LPD*%
G01*
G04 APERTURE LIST*
G04 APERTURE END LIST*
%TO.C,G\u002A\u002A\u002A*%
G36*
X118831262Y-111858601D02*
G01*
X118662237Y-111858601D01*
X118673447Y-111166125D01*
X118548856Y-111278175D01*
X118502790Y-111319303D01*
X118432724Y-111381320D01*
X118350249Y-111453926D01*
X118262119Y-111531177D01*
X118175082Y-111607134D01*
X118155154Y-111624471D01*
X118074051Y-111694539D01*
X118012712Y-111746017D01*
X117966931Y-111781768D01*
X117932505Y-111804651D01*
X117905227Y-111817528D01*
X117880893Y-111823261D01*
X117855298Y-111824710D01*
X117784696Y-111825376D01*
X117784696Y-110994768D01*
X117953508Y-110994768D01*
X117948010Y-111292224D01*
X117947260Y-111339152D01*
X117946789Y-111446847D01*
X117948624Y-111523187D01*
X117952744Y-111567574D01*
X117959124Y-111579410D01*
X117960161Y-111578683D01*
X117980183Y-111562117D01*
X118021213Y-111526874D01*
X118079929Y-111475850D01*
X118153011Y-111411939D01*
X118237137Y-111338036D01*
X118328986Y-111257035D01*
X118333424Y-111253114D01*
X118435664Y-111162927D01*
X118516456Y-111092305D01*
X118579077Y-111038858D01*
X118626804Y-111000195D01*
X118662916Y-110973923D01*
X118690688Y-110957652D01*
X118713400Y-110948991D01*
X118734328Y-110945548D01*
X118756750Y-110944931D01*
X118831262Y-110944931D01*
X118831262Y-111858601D01*
G37*
G36*
X118204153Y-109386742D02*
G01*
X118273302Y-109387611D01*
X118390287Y-109389525D01*
X118480604Y-109391920D01*
X118548638Y-109395123D01*
X118598774Y-109399460D01*
X118635397Y-109405257D01*
X118662892Y-109412839D01*
X118685644Y-109422534D01*
X118738957Y-109460489D01*
X118793766Y-109528579D01*
X118831334Y-109612039D01*
X118842205Y-109662645D01*
X118842731Y-109763086D01*
X118819534Y-109862392D01*
X118775345Y-109951149D01*
X118712898Y-110019945D01*
X118656835Y-110064118D01*
X118744049Y-110064302D01*
X118831262Y-110064487D01*
X118831262Y-110213996D01*
X117784696Y-110213996D01*
X117784696Y-110051179D01*
X118137705Y-110045374D01*
X118155642Y-110045075D01*
X118270333Y-110042862D01*
X118357358Y-110040290D01*
X118421614Y-110036886D01*
X118467995Y-110032172D01*
X118501398Y-110025673D01*
X118526716Y-110016914D01*
X118548846Y-110005418D01*
X118605466Y-109959285D01*
X118652033Y-109889438D01*
X118676487Y-109809697D01*
X118676402Y-109728528D01*
X118649355Y-109654396D01*
X118641433Y-109641672D01*
X118622354Y-109615363D01*
X118600256Y-109595190D01*
X118570824Y-109580246D01*
X118529742Y-109569629D01*
X118472696Y-109562432D01*
X118395370Y-109557750D01*
X118293451Y-109554679D01*
X118162623Y-109552314D01*
X117784696Y-109546354D01*
X117784696Y-109381790D01*
X118204153Y-109386742D01*
G37*
G36*
X118831262Y-105346632D02*
G01*
X118477773Y-105346632D01*
X118360133Y-105346913D01*
X118270556Y-105347996D01*
X118204029Y-105350277D01*
X118155540Y-105354153D01*
X118120079Y-105360018D01*
X118092633Y-105368268D01*
X118068192Y-105379301D01*
X118012346Y-105422019D01*
X117966438Y-105489588D01*
X117940152Y-105569300D01*
X117936475Y-105651692D01*
X117958392Y-105727297D01*
X117976458Y-105756985D01*
X117999596Y-105780825D01*
X118031438Y-105798759D01*
X118076068Y-105811601D01*
X118137570Y-105820168D01*
X118220029Y-105825277D01*
X118327528Y-105827744D01*
X118464152Y-105828385D01*
X118831262Y-105828385D01*
X118831262Y-106011118D01*
X118486560Y-106011022D01*
X118472777Y-106011006D01*
X118362078Y-106010012D01*
X118257001Y-106007663D01*
X118164446Y-106004208D01*
X118091313Y-105999897D01*
X118044503Y-105994982D01*
X117962708Y-105973919D01*
X117880274Y-105927907D01*
X117822152Y-105859762D01*
X117787728Y-105768705D01*
X117776390Y-105653957D01*
X117776811Y-105619640D01*
X117782082Y-105558957D01*
X117796134Y-105510382D01*
X117822396Y-105459409D01*
X117841392Y-105429370D01*
X117872699Y-105387766D01*
X117897150Y-105364394D01*
X117900514Y-105360363D01*
X117885558Y-105354571D01*
X117842280Y-105350517D01*
X117769055Y-105348079D01*
X117664258Y-105347137D01*
X117402616Y-105346632D01*
X117402616Y-105163898D01*
X118831262Y-105163898D01*
X118831262Y-105346632D01*
G37*
G36*
X118152620Y-106240648D02*
G01*
X118195958Y-106232575D01*
X118318015Y-106227077D01*
X118344637Y-106227399D01*
X118484484Y-106242135D01*
X118600512Y-106279353D01*
X118693919Y-106339788D01*
X118765908Y-106424177D01*
X118817678Y-106533255D01*
X118831146Y-106579535D01*
X118846302Y-106695798D01*
X118838462Y-106812882D01*
X118808767Y-106921563D01*
X118758358Y-107012620D01*
X118746270Y-107027389D01*
X118699275Y-107073598D01*
X118645324Y-107115154D01*
X118594002Y-107145252D01*
X118554895Y-107157085D01*
X118548418Y-107153336D01*
X118535011Y-107126127D01*
X118524593Y-107081187D01*
X118519821Y-107042423D01*
X118522944Y-107009773D01*
X118540792Y-106981364D01*
X118578503Y-106944137D01*
X118620844Y-106897100D01*
X118665642Y-106813753D01*
X118682382Y-106726131D01*
X118672731Y-106639372D01*
X118638352Y-106558617D01*
X118580911Y-106489006D01*
X118502072Y-106435679D01*
X118403499Y-106403776D01*
X118349510Y-106394029D01*
X118349510Y-107173970D01*
X118287214Y-107173711D01*
X118187001Y-107165891D01*
X118063236Y-107132450D01*
X117958099Y-107075479D01*
X117873948Y-106997995D01*
X117813142Y-106903015D01*
X117778039Y-106793556D01*
X117774380Y-106730731D01*
X117935861Y-106730731D01*
X117954941Y-106816652D01*
X117996569Y-106891632D01*
X118058303Y-106949473D01*
X118137705Y-106983981D01*
X118183388Y-106994838D01*
X118183388Y-106702324D01*
X118183270Y-106617343D01*
X118182526Y-106535034D01*
X118180672Y-106477860D01*
X118177231Y-106441285D01*
X118171727Y-106420776D01*
X118163682Y-106411796D01*
X118152620Y-106409810D01*
X118114302Y-106419004D01*
X118061256Y-106451674D01*
X118010318Y-106500961D01*
X117970506Y-106559454D01*
X117941769Y-106640064D01*
X117935861Y-106730731D01*
X117774380Y-106730731D01*
X117770997Y-106672634D01*
X117794375Y-106543266D01*
X117811158Y-106497314D01*
X117848173Y-106434930D01*
X117906507Y-106369406D01*
X117941903Y-106336582D01*
X118015682Y-106284637D01*
X118097774Y-106250865D01*
X118152620Y-106240648D01*
G37*
G36*
X118152620Y-112453598D02*
G01*
X118195958Y-112445525D01*
X118318015Y-112440026D01*
X118344637Y-112440349D01*
X118484484Y-112455085D01*
X118600512Y-112492302D01*
X118693919Y-112552738D01*
X118765908Y-112637127D01*
X118817678Y-112746205D01*
X118831146Y-112792484D01*
X118846302Y-112908748D01*
X118838462Y-113025831D01*
X118808767Y-113134513D01*
X118758358Y-113225570D01*
X118746270Y-113240339D01*
X118699275Y-113286548D01*
X118645324Y-113328104D01*
X118594002Y-113358202D01*
X118554895Y-113370034D01*
X118548418Y-113366286D01*
X118535011Y-113339076D01*
X118524593Y-113294137D01*
X118519821Y-113255373D01*
X118522944Y-113222722D01*
X118540792Y-113194314D01*
X118578503Y-113157086D01*
X118620844Y-113110049D01*
X118665642Y-113026703D01*
X118682382Y-112939080D01*
X118672731Y-112852322D01*
X118638352Y-112771567D01*
X118580911Y-112701956D01*
X118502072Y-112648629D01*
X118403499Y-112616726D01*
X118349510Y-112606979D01*
X118349510Y-113386920D01*
X118287214Y-113386660D01*
X118187001Y-113378841D01*
X118063236Y-113345399D01*
X117958099Y-113288428D01*
X117873948Y-113210945D01*
X117813142Y-113115965D01*
X117778039Y-113006506D01*
X117774380Y-112943681D01*
X117935861Y-112943681D01*
X117954941Y-113029602D01*
X117996569Y-113104582D01*
X118058303Y-113162423D01*
X118137705Y-113196931D01*
X118183388Y-113207788D01*
X118183388Y-112915274D01*
X118183270Y-112830293D01*
X118182526Y-112747984D01*
X118180672Y-112690809D01*
X118177231Y-112654235D01*
X118171727Y-112633725D01*
X118163682Y-112624746D01*
X118152620Y-112622760D01*
X118114302Y-112631954D01*
X118061256Y-112664624D01*
X118010318Y-112713911D01*
X117970506Y-112772404D01*
X117941769Y-112853014D01*
X117935861Y-112943681D01*
X117774380Y-112943681D01*
X117770997Y-112885584D01*
X117794375Y-112756216D01*
X117811158Y-112710264D01*
X117848173Y-112647880D01*
X117906507Y-112582355D01*
X117941903Y-112549532D01*
X118015682Y-112497587D01*
X118097774Y-112463815D01*
X118152620Y-112453598D01*
G37*
G36*
X117565691Y-105413081D02*
G01*
X117585350Y-105413081D01*
X117585350Y-107406540D01*
X118163857Y-107406540D01*
X118831262Y-107406540D01*
X118831262Y-107729660D01*
X118830375Y-107833223D01*
X118827793Y-107935291D01*
X118823828Y-108025276D01*
X118818793Y-108096131D01*
X118813001Y-108140811D01*
X118805350Y-108173367D01*
X118762217Y-108282969D01*
X118696750Y-108368147D01*
X118608101Y-108429775D01*
X118495426Y-108468727D01*
X118440889Y-108476607D01*
X118337121Y-108468478D01*
X118241431Y-108431799D01*
X118159982Y-108369439D01*
X118098940Y-108284265D01*
X118065292Y-108218310D01*
X118028329Y-108273160D01*
X117990488Y-108317599D01*
X117915984Y-108368216D01*
X117828694Y-108396297D01*
X117735790Y-108401737D01*
X117644446Y-108384427D01*
X117561835Y-108344261D01*
X117495131Y-108281131D01*
X117493280Y-108278680D01*
X117477276Y-108257075D01*
X117463276Y-108235931D01*
X117451145Y-108213002D01*
X117440750Y-108186043D01*
X117431957Y-108152808D01*
X117424631Y-108111051D01*
X117418639Y-108058526D01*
X117413847Y-107992989D01*
X117410121Y-107912192D01*
X117407326Y-107813891D01*
X117405328Y-107695840D01*
X117404314Y-107589274D01*
X117565691Y-107589274D01*
X117572137Y-107834304D01*
X117575480Y-107924624D01*
X117581767Y-108017830D01*
X117590052Y-108084887D01*
X117599994Y-108122271D01*
X117640300Y-108172208D01*
X117704939Y-108207737D01*
X117783931Y-108220536D01*
X117792603Y-108220439D01*
X117874030Y-108206570D01*
X117933699Y-108168363D01*
X117973677Y-108104553D01*
X117975774Y-108099099D01*
X117987508Y-108055949D01*
X117995189Y-107997990D01*
X117999382Y-107919111D01*
X118000654Y-107813202D01*
X118000654Y-107589274D01*
X118163857Y-107589274D01*
X118169469Y-107850916D01*
X118171379Y-107928222D01*
X118174609Y-108010374D01*
X118179190Y-108069562D01*
X118185848Y-108111734D01*
X118195312Y-108142838D01*
X118208306Y-108168821D01*
X118224690Y-108193183D01*
X118285199Y-108248936D01*
X118357690Y-108279510D01*
X118435177Y-108285141D01*
X118510675Y-108266063D01*
X118577199Y-108222512D01*
X118627763Y-108154721D01*
X118640832Y-108126677D01*
X118651679Y-108094422D01*
X118658747Y-108055845D01*
X118662823Y-108004221D01*
X118664692Y-107932826D01*
X118665141Y-107834937D01*
X118665141Y-107589274D01*
X118163857Y-107589274D01*
X118000654Y-107589274D01*
X117565691Y-107589274D01*
X117404314Y-107589274D01*
X117403995Y-107555793D01*
X117403191Y-107391505D01*
X117402782Y-107200729D01*
X117402635Y-106981220D01*
X117402616Y-106730733D01*
X117402616Y-105413081D01*
X117565691Y-105413081D01*
G37*
G36*
X118681753Y-108635841D02*
G01*
X118847875Y-108635841D01*
X118847875Y-108752126D01*
X118847881Y-108759781D01*
X118849028Y-108817938D01*
X118853543Y-108850704D01*
X118863425Y-108865165D01*
X118880672Y-108868411D01*
X118909464Y-108856537D01*
X118937720Y-108821517D01*
X118961538Y-108783358D01*
X118987983Y-108753035D01*
X118990566Y-108749948D01*
X118994282Y-108740778D01*
X118997589Y-108724792D01*
X119000509Y-108700228D01*
X119003067Y-108665327D01*
X119005285Y-108618328D01*
X119007188Y-108557470D01*
X119008798Y-108480992D01*
X119010139Y-108387135D01*
X119011234Y-108274138D01*
X119012108Y-108140240D01*
X119012783Y-107983681D01*
X119013282Y-107802700D01*
X119013630Y-107595537D01*
X119013849Y-107360431D01*
X119013963Y-107095622D01*
X119013996Y-106799349D01*
X119013983Y-106605066D01*
X119013901Y-106329207D01*
X119013722Y-106083670D01*
X119013422Y-105866690D01*
X119012980Y-105676501D01*
X119012369Y-105511337D01*
X119011569Y-105369432D01*
X119010554Y-105249020D01*
X119009301Y-105148336D01*
X119007786Y-105065613D01*
X119005987Y-104999086D01*
X119003880Y-104946989D01*
X119001440Y-104907556D01*
X118998645Y-104879021D01*
X118995471Y-104859619D01*
X118991894Y-104847583D01*
X118987891Y-104841147D01*
X118986791Y-104840098D01*
X118974814Y-104832806D01*
X118954393Y-104827051D01*
X118921987Y-104822657D01*
X118874058Y-104819452D01*
X118807064Y-104817262D01*
X118717467Y-104815913D01*
X118601726Y-104815231D01*
X118456302Y-104815043D01*
X117950818Y-104815043D01*
X117950818Y-104997776D01*
X117784696Y-104997776D01*
X117784696Y-104815043D01*
X117610268Y-104815043D01*
X117554456Y-104814541D01*
X117493134Y-104812566D01*
X117451308Y-104809442D01*
X117435841Y-104805542D01*
X117438784Y-104797077D01*
X117454397Y-104766081D01*
X117478950Y-104722481D01*
X117522058Y-104648921D01*
X117784696Y-104648921D01*
X117784696Y-104516024D01*
X117950818Y-104516024D01*
X117950818Y-104648921D01*
X118494866Y-104649166D01*
X118549266Y-104649197D01*
X118697181Y-104649521D01*
X118816423Y-104650593D01*
X118910432Y-104652936D01*
X118982650Y-104657073D01*
X119036517Y-104663526D01*
X119075474Y-104672818D01*
X119102962Y-104685471D01*
X119122422Y-104702008D01*
X119137294Y-104722952D01*
X119151021Y-104748825D01*
X119153389Y-104753932D01*
X119157548Y-104765776D01*
X119161254Y-104781895D01*
X119164536Y-104804097D01*
X119167419Y-104834193D01*
X119169930Y-104873991D01*
X119172096Y-104925300D01*
X119173943Y-104989931D01*
X119175499Y-105069693D01*
X119176789Y-105166395D01*
X119177841Y-105281846D01*
X119178682Y-105417856D01*
X119179336Y-105576233D01*
X119179833Y-105758789D01*
X119180198Y-105967331D01*
X119180457Y-106203669D01*
X119180638Y-106469613D01*
X119180767Y-106766972D01*
X119181468Y-108727207D01*
X119230630Y-108784722D01*
X119237737Y-108793199D01*
X119264406Y-108832720D01*
X119276771Y-108874894D01*
X119279791Y-108934859D01*
X119279706Y-108948351D01*
X119275289Y-109003762D01*
X119260583Y-109044264D01*
X119230630Y-109084996D01*
X119181468Y-109142512D01*
X119181468Y-113611184D01*
X119230630Y-113668699D01*
X119237737Y-113677175D01*
X119264406Y-113716697D01*
X119276771Y-113758870D01*
X119279791Y-113818836D01*
X119279706Y-113832327D01*
X119275289Y-113887739D01*
X119260583Y-113928240D01*
X119230630Y-113968973D01*
X119221255Y-113980238D01*
X119195949Y-114018902D01*
X119184052Y-114061278D01*
X119180793Y-114122008D01*
X119180118Y-114217528D01*
X119013996Y-114217528D01*
X119013996Y-114119889D01*
X119013161Y-114084888D01*
X119005206Y-114030131D01*
X118987983Y-114000661D01*
X118963438Y-113972927D01*
X118937720Y-113932178D01*
X118912667Y-113899791D01*
X118880672Y-113885285D01*
X118878513Y-113885307D01*
X118862110Y-113889374D01*
X118852869Y-113905382D01*
X118848790Y-113940418D01*
X118847875Y-114001570D01*
X118847875Y-114117855D01*
X117817920Y-114117855D01*
X117817920Y-113993264D01*
X117817411Y-113948158D01*
X117814004Y-113900077D01*
X117806396Y-113875543D01*
X117794465Y-113869221D01*
X117970415Y-113869221D01*
X117973682Y-113906758D01*
X117995425Y-113959476D01*
X118001676Y-113972086D01*
X118027116Y-114008369D01*
X118054507Y-114015466D01*
X118090949Y-113996102D01*
X118098191Y-113990492D01*
X118112152Y-113968513D01*
X118101510Y-113937332D01*
X118089644Y-113898181D01*
X118103070Y-113848983D01*
X118149558Y-113802655D01*
X118166918Y-113791646D01*
X118191472Y-113781608D01*
X118224900Y-113775031D01*
X118273288Y-113771209D01*
X118342722Y-113769434D01*
X118439288Y-113768999D01*
X118681753Y-113768999D01*
X118681753Y-113652714D01*
X117984042Y-113652714D01*
X117984042Y-113710857D01*
X117984206Y-113721047D01*
X117991188Y-113757882D01*
X118010166Y-113768999D01*
X118022068Y-113770762D01*
X118022718Y-113783021D01*
X118001860Y-113812770D01*
X117986185Y-113834062D01*
X117970415Y-113869221D01*
X117794465Y-113869221D01*
X117793429Y-113868672D01*
X117792900Y-113868683D01*
X117768664Y-113882780D01*
X117744688Y-113915566D01*
X117720870Y-113953725D01*
X117694425Y-113984049D01*
X117682125Y-114000602D01*
X117671643Y-114042653D01*
X117668411Y-114111583D01*
X117668411Y-114217528D01*
X117502289Y-114217528D01*
X117501614Y-114113702D01*
X117500795Y-114075985D01*
X117494937Y-114026675D01*
X117479961Y-113989879D01*
X117451778Y-113952361D01*
X117444670Y-113943885D01*
X117418002Y-113904363D01*
X117405636Y-113862190D01*
X117402616Y-113802224D01*
X117402702Y-113788733D01*
X117407119Y-113733321D01*
X117421825Y-113692819D01*
X117451778Y-113652087D01*
X117500939Y-113594572D01*
X117502289Y-112509428D01*
X117456599Y-112470574D01*
X117432621Y-112449056D01*
X117360157Y-112362791D01*
X117318972Y-112271736D01*
X117304122Y-112216587D01*
X117435841Y-112216587D01*
X117435853Y-112216897D01*
X117443239Y-112237437D01*
X117460162Y-112272751D01*
X117486451Y-112312365D01*
X117532839Y-112359432D01*
X117583456Y-112393610D01*
X117628155Y-112406802D01*
X117668411Y-112406802D01*
X117668411Y-113002806D01*
X117668539Y-113152874D01*
X117669041Y-113283201D01*
X117670053Y-113386551D01*
X117671710Y-113466143D01*
X117674148Y-113525196D01*
X117677503Y-113566930D01*
X117681911Y-113594562D01*
X117687506Y-113611312D01*
X117694425Y-113620399D01*
X117718969Y-113648133D01*
X117744688Y-113688882D01*
X117757755Y-113711596D01*
X117782539Y-113737331D01*
X117801511Y-113731372D01*
X117813647Y-113694575D01*
X117817920Y-113627796D01*
X117817920Y-113519817D01*
X118681753Y-113519817D01*
X118847875Y-113519817D01*
X118847875Y-113636102D01*
X118847881Y-113643757D01*
X118849028Y-113701915D01*
X118853543Y-113734680D01*
X118863425Y-113749142D01*
X118880672Y-113752387D01*
X118909464Y-113740513D01*
X118937720Y-113705494D01*
X118961538Y-113667335D01*
X118987983Y-113637011D01*
X118991489Y-113632007D01*
X118994861Y-113621366D01*
X118997884Y-113603642D01*
X119000575Y-113577202D01*
X119002953Y-113540412D01*
X119005038Y-113491637D01*
X119006848Y-113429244D01*
X119008402Y-113351599D01*
X119009719Y-113257069D01*
X119010817Y-113144018D01*
X119011716Y-113010815D01*
X119012434Y-112855824D01*
X119012990Y-112677411D01*
X119013402Y-112473944D01*
X119013690Y-112243788D01*
X119013873Y-111985309D01*
X119013969Y-111696874D01*
X119013996Y-111376848D01*
X119013972Y-111075107D01*
X119013881Y-110784823D01*
X119013704Y-110524594D01*
X119013423Y-110292785D01*
X119013018Y-110087764D01*
X119012471Y-109907895D01*
X119011764Y-109751545D01*
X119010877Y-109617081D01*
X119009791Y-109502868D01*
X119008488Y-109407273D01*
X119006948Y-109328662D01*
X119005154Y-109265400D01*
X119003086Y-109215855D01*
X119000726Y-109178392D01*
X118998054Y-109151377D01*
X118995052Y-109133177D01*
X118991701Y-109122157D01*
X118987983Y-109116684D01*
X118963438Y-109088950D01*
X118937720Y-109048202D01*
X118912667Y-109015815D01*
X118880672Y-109001308D01*
X118878513Y-109001331D01*
X118862110Y-109005398D01*
X118852869Y-109021405D01*
X118848790Y-109056441D01*
X118847875Y-109117593D01*
X118847875Y-109233878D01*
X117817920Y-109233878D01*
X117817920Y-109109287D01*
X117817411Y-109064181D01*
X117814004Y-109016100D01*
X117813671Y-109015025D01*
X117968963Y-109015025D01*
X117986357Y-109074511D01*
X118000991Y-109101115D01*
X118018907Y-109106437D01*
X118052352Y-109091712D01*
X118073326Y-109079499D01*
X118091738Y-109055919D01*
X118089711Y-109018830D01*
X118087551Y-109005065D01*
X118093054Y-108966179D01*
X118122634Y-108927655D01*
X118135471Y-108915258D01*
X118152525Y-108902664D01*
X118174381Y-108894165D01*
X118206723Y-108888957D01*
X118255235Y-108886235D01*
X118325602Y-108885192D01*
X118423509Y-108885023D01*
X118681753Y-108885023D01*
X118681753Y-108768738D01*
X117984042Y-108768738D01*
X117984042Y-108826880D01*
X117984206Y-108837070D01*
X117991188Y-108873906D01*
X118010166Y-108885023D01*
X118022068Y-108886786D01*
X118022718Y-108899045D01*
X118001860Y-108928794D01*
X117979222Y-108963875D01*
X117968963Y-109015025D01*
X117813671Y-109015025D01*
X117806396Y-108991566D01*
X117793429Y-108984696D01*
X117792900Y-108984707D01*
X117768664Y-108998803D01*
X117744688Y-109031589D01*
X117720870Y-109069749D01*
X117694425Y-109100072D01*
X117692132Y-109102277D01*
X117685862Y-109113140D01*
X117680784Y-109132475D01*
X117676775Y-109163376D01*
X117673715Y-109208936D01*
X117671483Y-109272251D01*
X117669957Y-109356414D01*
X117669017Y-109464518D01*
X117668542Y-109599658D01*
X117668411Y-109764927D01*
X117668417Y-109827511D01*
X117668540Y-109979585D01*
X117668945Y-110102826D01*
X117669790Y-110200459D01*
X117671231Y-110275711D01*
X117673426Y-110331807D01*
X117676532Y-110371975D01*
X117680706Y-110399439D01*
X117686106Y-110417427D01*
X117692889Y-110429164D01*
X117701211Y-110437877D01*
X117724040Y-110463489D01*
X117743861Y-110498594D01*
X117746898Y-110505559D01*
X117754776Y-110513101D01*
X117770378Y-110518889D01*
X117797347Y-110523155D01*
X117839325Y-110526134D01*
X117899955Y-110528062D01*
X117982881Y-110529171D01*
X118091745Y-110529696D01*
X118230191Y-110529872D01*
X118249511Y-110529888D01*
X118400101Y-110530543D01*
X118520313Y-110532197D01*
X118612686Y-110534954D01*
X118679765Y-110538916D01*
X118724089Y-110544187D01*
X118748202Y-110550869D01*
X118769297Y-110564722D01*
X118810410Y-110616027D01*
X118837781Y-110687431D01*
X118847594Y-110770504D01*
X118847401Y-110789730D01*
X118842704Y-110847041D01*
X118828201Y-110878352D01*
X118799192Y-110889246D01*
X118750979Y-110885306D01*
X118728189Y-110881446D01*
X118696215Y-110871324D01*
X118683825Y-110851185D01*
X118681753Y-110811098D01*
X118681713Y-110796289D01*
X118680110Y-110766322D01*
X118673534Y-110742994D01*
X118658455Y-110725473D01*
X118631339Y-110712928D01*
X118588657Y-110704527D01*
X118526876Y-110699440D01*
X118442465Y-110696835D01*
X118331892Y-110695882D01*
X118191627Y-110695749D01*
X118139602Y-110695761D01*
X118018685Y-110696002D01*
X117925794Y-110696755D01*
X117857123Y-110698282D01*
X117808865Y-110700849D01*
X117777216Y-110704719D01*
X117758369Y-110710155D01*
X117748519Y-110717422D01*
X117743861Y-110726782D01*
X117730325Y-110752941D01*
X117701211Y-110787500D01*
X117698836Y-110789704D01*
X117690147Y-110799860D01*
X117683289Y-110814249D01*
X117678046Y-110836494D01*
X117674202Y-110870220D01*
X117671541Y-110919050D01*
X117669848Y-110986608D01*
X117668906Y-111076518D01*
X117668499Y-111192405D01*
X117668411Y-111337892D01*
X117668411Y-111858601D01*
X117624926Y-111858601D01*
X117621128Y-111858731D01*
X117573663Y-111876538D01*
X117516947Y-111923095D01*
X117516031Y-111924011D01*
X117487856Y-111952017D01*
X117466191Y-111975176D01*
X117453465Y-111993950D01*
X117452105Y-112008796D01*
X117464541Y-112020175D01*
X117493200Y-112028546D01*
X117540512Y-112034368D01*
X117608905Y-112038101D01*
X117700808Y-112040205D01*
X117818648Y-112041139D01*
X117964855Y-112041362D01*
X118141858Y-112041334D01*
X118831262Y-112041334D01*
X118831262Y-112207456D01*
X118133552Y-112207456D01*
X118053651Y-112207516D01*
X117910333Y-112207938D01*
X117779648Y-112208726D01*
X117665029Y-112209836D01*
X117569907Y-112211221D01*
X117497713Y-112212838D01*
X117451881Y-112214642D01*
X117435841Y-112216587D01*
X117304122Y-112216587D01*
X117301663Y-112207456D01*
X117120209Y-112207456D01*
X117120209Y-112042992D01*
X117213194Y-112038010D01*
X117217384Y-112037785D01*
X117268841Y-112033781D01*
X117297836Y-112024736D01*
X117314461Y-112004414D01*
X117328809Y-111966580D01*
X117342347Y-111937038D01*
X117379643Y-111881244D01*
X117426864Y-111828616D01*
X117502289Y-111757100D01*
X117502289Y-110826698D01*
X117449672Y-110761224D01*
X117397056Y-110695749D01*
X117275245Y-110695749D01*
X117265970Y-110695721D01*
X117208924Y-110694207D01*
X117168675Y-110690836D01*
X117153434Y-110686248D01*
X117156377Y-110677784D01*
X117171990Y-110646787D01*
X117196543Y-110603187D01*
X117217333Y-110569196D01*
X117241189Y-110542208D01*
X117270718Y-110531521D01*
X117318354Y-110529627D01*
X117342208Y-110529274D01*
X117383499Y-110523168D01*
X117414519Y-110503855D01*
X117449672Y-110464153D01*
X117502289Y-110398678D01*
X117501614Y-109762289D01*
X117500939Y-109125899D01*
X117451778Y-109068384D01*
X117444670Y-109059908D01*
X117418002Y-109020386D01*
X117405636Y-108978213D01*
X117402616Y-108918247D01*
X117402702Y-108904756D01*
X117407119Y-108849345D01*
X117421825Y-108808843D01*
X117451778Y-108768110D01*
X117475094Y-108738357D01*
X117491890Y-108704669D01*
X117499542Y-108662081D01*
X117501614Y-108598463D01*
X117502289Y-108486331D01*
X117668411Y-108486331D01*
X117668411Y-108600582D01*
X117670666Y-108666430D01*
X117678935Y-108711871D01*
X117694425Y-108736423D01*
X117718969Y-108764157D01*
X117744688Y-108804905D01*
X117757755Y-108827619D01*
X117782539Y-108853355D01*
X117793429Y-108849935D01*
X117801511Y-108847396D01*
X117813647Y-108810599D01*
X117817920Y-108743820D01*
X117817920Y-108635841D01*
X118681753Y-108635841D01*
G37*
G36*
X126091200Y-99495600D02*
G01*
X126040400Y-99546400D01*
X125989600Y-99495600D01*
X126040400Y-99444800D01*
X126091200Y-99495600D01*
G37*
G36*
X126497600Y-100816400D02*
G01*
X126446800Y-100867200D01*
X126396000Y-100816400D01*
X126446800Y-100765600D01*
X126497600Y-100816400D01*
G37*
G36*
X127615200Y-101121200D02*
G01*
X127564400Y-101172000D01*
X127513600Y-101121200D01*
X127564400Y-101070400D01*
X127615200Y-101121200D01*
G37*
G36*
X130358400Y-101222800D02*
G01*
X130307600Y-101273600D01*
X130256800Y-101222800D01*
X130307600Y-101172000D01*
X130358400Y-101222800D01*
G37*
G36*
X133203200Y-101324400D02*
G01*
X133152400Y-101375200D01*
X133101600Y-101324400D01*
X133152400Y-101273600D01*
X133203200Y-101324400D01*
G37*
G36*
X140315200Y-103051600D02*
G01*
X140264400Y-103102400D01*
X140213600Y-103051600D01*
X140264400Y-103000800D01*
X140315200Y-103051600D01*
G37*
G36*
X140213600Y-103864400D02*
G01*
X140162800Y-103915200D01*
X140112000Y-103864400D01*
X140162800Y-103813600D01*
X140213600Y-103864400D01*
G37*
G36*
X124973600Y-104474000D02*
G01*
X124922800Y-104524800D01*
X124872000Y-104474000D01*
X124922800Y-104423200D01*
X124973600Y-104474000D01*
G37*
G36*
X140112000Y-104677200D02*
G01*
X140061200Y-104728000D01*
X140010400Y-104677200D01*
X140061200Y-104626400D01*
X140112000Y-104677200D01*
G37*
G36*
X140010400Y-105388400D02*
G01*
X139959600Y-105439200D01*
X139908800Y-105388400D01*
X139959600Y-105337600D01*
X140010400Y-105388400D01*
G37*
G36*
X138384800Y-113516400D02*
G01*
X138334000Y-113567200D01*
X138283200Y-113516400D01*
X138334000Y-113465600D01*
X138384800Y-113516400D01*
G37*
G36*
X138689600Y-113922800D02*
G01*
X138638800Y-113973600D01*
X138588000Y-113922800D01*
X138638800Y-113872000D01*
X138689600Y-113922800D01*
G37*
G36*
X133000000Y-117275600D02*
G01*
X132949200Y-117326400D01*
X132898400Y-117275600D01*
X132949200Y-117224800D01*
X133000000Y-117275600D01*
G37*
G36*
X130663200Y-117275600D02*
G01*
X130612400Y-117326400D01*
X130561600Y-117275600D01*
X130612400Y-117224800D01*
X130663200Y-117275600D01*
G37*
G36*
X129952000Y-117275600D02*
G01*
X129901200Y-117326400D01*
X129850400Y-117275600D01*
X129901200Y-117224800D01*
X129952000Y-117275600D01*
G37*
G36*
X128936000Y-117275600D02*
G01*
X128885200Y-117326400D01*
X128834400Y-117275600D01*
X128885200Y-117224800D01*
X128936000Y-117275600D01*
G37*
G36*
X129748800Y-117478800D02*
G01*
X129698000Y-117529600D01*
X129647200Y-117478800D01*
X129698000Y-117428000D01*
X129748800Y-117478800D01*
G37*
G36*
X128834400Y-117478800D02*
G01*
X128783600Y-117529600D01*
X128732800Y-117478800D01*
X128783600Y-117428000D01*
X128834400Y-117478800D01*
G37*
G36*
X134422400Y-118088400D02*
G01*
X134371600Y-118139200D01*
X134320800Y-118088400D01*
X134371600Y-118037600D01*
X134422400Y-118088400D01*
G37*
G36*
X134422400Y-118291600D02*
G01*
X134371600Y-118342400D01*
X134320800Y-118291600D01*
X134371600Y-118240800D01*
X134422400Y-118291600D01*
G37*
G36*
X125583200Y-118494800D02*
G01*
X125532400Y-118545600D01*
X125481600Y-118494800D01*
X125532400Y-118444000D01*
X125583200Y-118494800D01*
G37*
G36*
X133304800Y-118901200D02*
G01*
X133254000Y-118952000D01*
X133203200Y-118901200D01*
X133254000Y-118850400D01*
X133304800Y-118901200D01*
G37*
G36*
X130460000Y-119714000D02*
G01*
X130409200Y-119764800D01*
X130358400Y-119714000D01*
X130409200Y-119663200D01*
X130460000Y-119714000D01*
G37*
G36*
X128326400Y-119815600D02*
G01*
X128275600Y-119866400D01*
X128224800Y-119815600D01*
X128275600Y-119764800D01*
X128326400Y-119815600D01*
G37*
G36*
X128529600Y-120526800D02*
G01*
X128478800Y-120577600D01*
X128428000Y-120526800D01*
X128478800Y-120476000D01*
X128529600Y-120526800D01*
G37*
G36*
X137876800Y-120628400D02*
G01*
X137826000Y-120679200D01*
X137775200Y-120628400D01*
X137826000Y-120577600D01*
X137876800Y-120628400D01*
G37*
G36*
X127615200Y-120831600D02*
G01*
X127564400Y-120882400D01*
X127513600Y-120831600D01*
X127564400Y-120780800D01*
X127615200Y-120831600D01*
G37*
G36*
X127310400Y-120933200D02*
G01*
X127259600Y-120984000D01*
X127208800Y-120933200D01*
X127259600Y-120882400D01*
X127310400Y-120933200D01*
G37*
G36*
X135438400Y-121847600D02*
G01*
X135387600Y-121898400D01*
X135336800Y-121847600D01*
X135387600Y-121796800D01*
X135438400Y-121847600D01*
G37*
G36*
X130358400Y-121847600D02*
G01*
X130307600Y-121898400D01*
X130256800Y-121847600D01*
X130307600Y-121796800D01*
X130358400Y-121847600D01*
G37*
G36*
X127513600Y-121949200D02*
G01*
X127462800Y-122000000D01*
X127412000Y-121949200D01*
X127462800Y-121898400D01*
X127513600Y-121949200D01*
G37*
G36*
X129240800Y-122558800D02*
G01*
X129190000Y-122609600D01*
X129139200Y-122558800D01*
X129190000Y-122508000D01*
X129240800Y-122558800D01*
G37*
G36*
X129444000Y-122863600D02*
G01*
X129393200Y-122914400D01*
X129342400Y-122863600D01*
X129393200Y-122812800D01*
X129444000Y-122863600D01*
G37*
G36*
X130155200Y-122965200D02*
G01*
X130104400Y-123016000D01*
X130053600Y-122965200D01*
X130104400Y-122914400D01*
X130155200Y-122965200D01*
G37*
G36*
X126802400Y-122965200D02*
G01*
X126751600Y-123016000D01*
X126700800Y-122965200D01*
X126751600Y-122914400D01*
X126802400Y-122965200D01*
G37*
G36*
X128631200Y-123168400D02*
G01*
X128580400Y-123219200D01*
X128529600Y-123168400D01*
X128580400Y-123117600D01*
X128631200Y-123168400D01*
G37*
G36*
X127005600Y-123676400D02*
G01*
X126954800Y-123727200D01*
X126904000Y-123676400D01*
X126954800Y-123625600D01*
X127005600Y-123676400D01*
G37*
G36*
X125738586Y-99553732D02*
G01*
X125752533Y-99614133D01*
X125737642Y-99626292D01*
X125617066Y-99614133D01*
X125601171Y-99583573D01*
X125684800Y-99546400D01*
X125738586Y-99553732D01*
G37*
G36*
X136289363Y-101100604D02*
G01*
X136276600Y-101137687D01*
X136230610Y-101151106D01*
X136022600Y-101137687D01*
X136005365Y-101102408D01*
X136149600Y-101086442D01*
X136289363Y-101100604D01*
G37*
G36*
X128989786Y-101179332D02*
G01*
X129003733Y-101239733D01*
X128988842Y-101251892D01*
X128868266Y-101239733D01*
X128852371Y-101209173D01*
X128936000Y-101172000D01*
X128989786Y-101179332D01*
G37*
G36*
X131780800Y-101273600D02*
G01*
X131773467Y-101327386D01*
X131713066Y-101341333D01*
X131700907Y-101326442D01*
X131713066Y-101205866D01*
X131743626Y-101189971D01*
X131780800Y-101273600D01*
G37*
G36*
X140924800Y-102086400D02*
G01*
X140917467Y-102140186D01*
X140857066Y-102154133D01*
X140844907Y-102139242D01*
X140857066Y-102018666D01*
X140887626Y-102002771D01*
X140924800Y-102086400D01*
G37*
G36*
X140408778Y-102535133D02*
G01*
X140401595Y-102638182D01*
X140355416Y-102668483D01*
X140335283Y-102632538D01*
X140347395Y-102473750D01*
X140383966Y-102426722D01*
X140408778Y-102535133D01*
G37*
G36*
X125262357Y-111433600D02*
G01*
X125248195Y-111573363D01*
X125211112Y-111560600D01*
X125197693Y-111514610D01*
X125211112Y-111306600D01*
X125246391Y-111289365D01*
X125262357Y-111433600D01*
G37*
G36*
X130208986Y-117232132D02*
G01*
X130222933Y-117292533D01*
X130208042Y-117304692D01*
X130087466Y-117292533D01*
X130071571Y-117261973D01*
X130155200Y-117224800D01*
X130208986Y-117232132D01*
G37*
G36*
X135844800Y-117428000D02*
G01*
X135837467Y-117481786D01*
X135777066Y-117495733D01*
X135764907Y-117480842D01*
X135777066Y-117360266D01*
X135807626Y-117344371D01*
X135844800Y-117428000D01*
G37*
G36*
X130615386Y-117435332D02*
G01*
X130629333Y-117495733D01*
X130614442Y-117507892D01*
X130493866Y-117495733D01*
X130477971Y-117465173D01*
X130561600Y-117428000D01*
X130615386Y-117435332D01*
G37*
G36*
X133812800Y-117529600D02*
G01*
X133805467Y-117583386D01*
X133745066Y-117597333D01*
X133732907Y-117582442D01*
X133745066Y-117461866D01*
X133775626Y-117445971D01*
X133812800Y-117529600D01*
G37*
G36*
X131722982Y-118662404D02*
G01*
X131753283Y-118708583D01*
X131717338Y-118728716D01*
X131558550Y-118716604D01*
X131511522Y-118680033D01*
X131619933Y-118655221D01*
X131722982Y-118662404D01*
G37*
G36*
X125583200Y-118748800D02*
G01*
X125575867Y-118802586D01*
X125515466Y-118816533D01*
X125503307Y-118801642D01*
X125515466Y-118681066D01*
X125546026Y-118665171D01*
X125583200Y-118748800D01*
G37*
G36*
X129700986Y-118959332D02*
G01*
X129714933Y-119019733D01*
X129700042Y-119031892D01*
X129579466Y-119019733D01*
X129563571Y-118989173D01*
X129647200Y-118952000D01*
X129700986Y-118959332D01*
G37*
G36*
X128481786Y-119365732D02*
G01*
X128495733Y-119426133D01*
X128480842Y-119438292D01*
X128360266Y-119426133D01*
X128344371Y-119395573D01*
X128428000Y-119358400D01*
X128481786Y-119365732D01*
G37*
G36*
X128224800Y-120069600D02*
G01*
X128217467Y-120123386D01*
X128157066Y-120137333D01*
X128144907Y-120122442D01*
X128157066Y-120001866D01*
X128187626Y-119985971D01*
X128224800Y-120069600D01*
G37*
G36*
X135540000Y-120171200D02*
G01*
X135532667Y-120224986D01*
X135472266Y-120238933D01*
X135460107Y-120224042D01*
X135472266Y-120103466D01*
X135502826Y-120087571D01*
X135540000Y-120171200D01*
G37*
G36*
X135633578Y-120518333D02*
G01*
X135626395Y-120621382D01*
X135580216Y-120651683D01*
X135560083Y-120615738D01*
X135572195Y-120456950D01*
X135608766Y-120409922D01*
X135633578Y-120518333D01*
G37*
G36*
X133246982Y-120796004D02*
G01*
X133277283Y-120842183D01*
X133241338Y-120862316D01*
X133082550Y-120850204D01*
X133035522Y-120813633D01*
X133143933Y-120788821D01*
X133246982Y-120796004D01*
G37*
G36*
X128513557Y-120882400D02*
G01*
X128499395Y-121022163D01*
X128462312Y-121009400D01*
X128448893Y-120963410D01*
X128462312Y-120755400D01*
X128497591Y-120738165D01*
X128513557Y-120882400D01*
G37*
G36*
X128208757Y-122000000D02*
G01*
X128194595Y-122139763D01*
X128157512Y-122127000D01*
X128144093Y-122081010D01*
X128157512Y-121873000D01*
X128192791Y-121855765D01*
X128208757Y-122000000D01*
G37*
G36*
X128123200Y-122812800D02*
G01*
X128115867Y-122866586D01*
X128055466Y-122880533D01*
X128043307Y-122865642D01*
X128055466Y-122745066D01*
X128086026Y-122729171D01*
X128123200Y-122812800D01*
G37*
G36*
X129435978Y-123261533D02*
G01*
X129428795Y-123364582D01*
X129382616Y-123394883D01*
X129362483Y-123358938D01*
X129374595Y-123200150D01*
X129411166Y-123153122D01*
X129435978Y-123261533D01*
G37*
G36*
X133187157Y-123422400D02*
G01*
X133172995Y-123562163D01*
X133135912Y-123549400D01*
X133122493Y-123503410D01*
X133135912Y-123295400D01*
X133171191Y-123278165D01*
X133187157Y-123422400D01*
G37*
G36*
X130037557Y-123422400D02*
G01*
X130023395Y-123562163D01*
X129986312Y-123549400D01*
X129972893Y-123503410D01*
X129986312Y-123295400D01*
X130021591Y-123278165D01*
X130037557Y-123422400D01*
G37*
G36*
X140784574Y-97722964D02*
G01*
X140808531Y-97775979D01*
X140665523Y-97857966D01*
X140586272Y-97875770D01*
X140569919Y-97818036D01*
X140589824Y-97791390D01*
X140727596Y-97717600D01*
X140784574Y-97722964D01*
G37*
G36*
X136133903Y-100606865D02*
G01*
X136101856Y-100692263D01*
X135997200Y-100770966D01*
X135907272Y-100712731D01*
X135916934Y-100584105D01*
X136032303Y-100482965D01*
X136108782Y-100482256D01*
X136133903Y-100606865D01*
G37*
G36*
X136061636Y-101739227D02*
G01*
X136138525Y-101805626D01*
X136062045Y-101861584D01*
X135967559Y-101874037D01*
X135855222Y-101821065D01*
X135871907Y-101720626D01*
X135912062Y-101701946D01*
X136061636Y-101739227D01*
G37*
G36*
X135759087Y-116640204D02*
G01*
X135782403Y-116761184D01*
X135737977Y-116824215D01*
X135582391Y-116851914D01*
X135462250Y-116772005D01*
X135466534Y-116665218D01*
X135638411Y-116615200D01*
X135759087Y-116640204D01*
G37*
G36*
X134528087Y-116770126D02*
G01*
X134589756Y-116834163D01*
X134509447Y-116929444D01*
X134435432Y-116960107D01*
X134335616Y-116910394D01*
X134323840Y-116861762D01*
X134373922Y-116743507D01*
X134528087Y-116770126D01*
G37*
G36*
X133334581Y-117383732D02*
G01*
X133429398Y-117434400D01*
X133459888Y-117509978D01*
X133410916Y-117520859D01*
X133277706Y-117440607D01*
X133264579Y-117427226D01*
X133215884Y-117352799D01*
X133334581Y-117383732D01*
G37*
G36*
X130305144Y-119051562D02*
G01*
X130439676Y-119181261D01*
X130428867Y-119219471D01*
X130261420Y-119134507D01*
X130145370Y-119045781D01*
X130106565Y-118966767D01*
X130159847Y-118965091D01*
X130305144Y-119051562D01*
G37*
G36*
X126158635Y-100072757D02*
G01*
X126169228Y-100257600D01*
X126168245Y-100326533D01*
X126152213Y-100467020D01*
X126122764Y-100435400D01*
X126106963Y-100337480D01*
X126122764Y-100079800D01*
X126132262Y-100050973D01*
X126158635Y-100072757D01*
G37*
G36*
X136960573Y-100510471D02*
G01*
X137017111Y-100584965D01*
X136941933Y-100739666D01*
X136901475Y-100787132D01*
X136817638Y-100841762D01*
X136775618Y-100722669D01*
X136764162Y-100624673D01*
X136814277Y-100484768D01*
X136960573Y-100510471D01*
G37*
G36*
X125258593Y-110773200D02*
G01*
X125258732Y-110797260D01*
X125245110Y-110956311D01*
X125211756Y-110952933D01*
X125193118Y-110869449D01*
X125207992Y-110648133D01*
X125213019Y-110630664D01*
X125243942Y-110615623D01*
X125258593Y-110773200D01*
G37*
G36*
X125039574Y-110678043D02*
G01*
X125049578Y-110874800D01*
X125048265Y-110982431D01*
X125032855Y-111128334D01*
X125005392Y-111104584D01*
X124986984Y-110962916D01*
X125003342Y-110698184D01*
X125016627Y-110648192D01*
X125039574Y-110678043D01*
G37*
G36*
X135773938Y-115061223D02*
G01*
X135844800Y-115142000D01*
X135840018Y-115156695D01*
X135743200Y-115243600D01*
X135689388Y-115251737D01*
X135641600Y-115142000D01*
X135657124Y-115064526D01*
X135743200Y-115040400D01*
X135773938Y-115061223D01*
G37*
G36*
X136048000Y-115345200D02*
G01*
X136096341Y-115483354D01*
X136135318Y-115700800D01*
X136115153Y-115760803D01*
X136048000Y-115650000D01*
X135999658Y-115511845D01*
X135960681Y-115294400D01*
X135980846Y-115234396D01*
X136048000Y-115345200D01*
G37*
G36*
X125872583Y-116012007D02*
G01*
X125786400Y-116259600D01*
X125744204Y-116354899D01*
X125703807Y-116395862D01*
X125691940Y-116240196D01*
X125707604Y-116095982D01*
X125786400Y-115954800D01*
X125846042Y-115931052D01*
X125872583Y-116012007D01*
G37*
G36*
X135680453Y-116230374D02*
G01*
X135678341Y-116361200D01*
X135645442Y-116434153D01*
X135579929Y-116513600D01*
X135561737Y-116496755D01*
X135540000Y-116361200D01*
X135551086Y-116291140D01*
X135638411Y-116208800D01*
X135680453Y-116230374D01*
G37*
G36*
X126294400Y-116558403D02*
G01*
X126281965Y-116634101D01*
X126192800Y-116716800D01*
X126168694Y-116714063D01*
X126091200Y-116621196D01*
X126095075Y-116592691D01*
X126192800Y-116462800D01*
X126245145Y-116453242D01*
X126294400Y-116558403D01*
G37*
G36*
X129205174Y-117586843D02*
G01*
X129215178Y-117783600D01*
X129213865Y-117891231D01*
X129198455Y-118037134D01*
X129170992Y-118013384D01*
X129152584Y-117871716D01*
X129168942Y-117606984D01*
X129182227Y-117556992D01*
X129205174Y-117586843D01*
G37*
G36*
X130932401Y-117614654D02*
G01*
X130940327Y-117834400D01*
X130937364Y-117983498D01*
X130921422Y-118111146D01*
X130896297Y-118063000D01*
X130879488Y-117901860D01*
X130896297Y-117605800D01*
X130912138Y-117554331D01*
X130932401Y-117614654D01*
G37*
G36*
X125343337Y-118061076D02*
G01*
X125350940Y-118291600D01*
X125347614Y-118480164D01*
X125332276Y-118613280D01*
X125308480Y-118572396D01*
X125290379Y-118364867D01*
X125307093Y-118064396D01*
X125325132Y-117993650D01*
X125343337Y-118061076D01*
G37*
G36*
X133761248Y-118571551D02*
G01*
X133812800Y-118698000D01*
X133796222Y-118781882D01*
X133703580Y-118830926D01*
X133673457Y-118817129D01*
X133594360Y-118698000D01*
X133598610Y-118669963D01*
X133703580Y-118565073D01*
X133761248Y-118571551D01*
G37*
G36*
X131338774Y-118806043D02*
G01*
X131348778Y-119002800D01*
X131347465Y-119110431D01*
X131332055Y-119256334D01*
X131304592Y-119232584D01*
X131286184Y-119090916D01*
X131302542Y-118826184D01*
X131315827Y-118776192D01*
X131338774Y-118806043D01*
G37*
G36*
X127595393Y-119612400D02*
G01*
X127595532Y-119636460D01*
X127581910Y-119795511D01*
X127548556Y-119792133D01*
X127529918Y-119708649D01*
X127544792Y-119487333D01*
X127549819Y-119469864D01*
X127580742Y-119454823D01*
X127595393Y-119612400D01*
G37*
G36*
X127257229Y-119680368D02*
G01*
X127310400Y-119815600D01*
X127305986Y-119885035D01*
X127270470Y-119968000D01*
X127244172Y-119949281D01*
X127172058Y-119815600D01*
X127156086Y-119737673D01*
X127211988Y-119663200D01*
X127257229Y-119680368D01*
G37*
G36*
X125344401Y-119545054D02*
G01*
X125352327Y-119764800D01*
X125349364Y-119913898D01*
X125333422Y-120041546D01*
X125308297Y-119993400D01*
X125291488Y-119832260D01*
X125308297Y-119536200D01*
X125324138Y-119484731D01*
X125344401Y-119545054D01*
G37*
G36*
X130484284Y-119970952D02*
G01*
X130561600Y-120069600D01*
X130558647Y-120093884D01*
X130460000Y-120171200D01*
X130435715Y-120168247D01*
X130358400Y-120069600D01*
X130361352Y-120045315D01*
X130460000Y-119968000D01*
X130484284Y-119970952D01*
G37*
G36*
X131636652Y-120209303D02*
G01*
X131679200Y-120374400D01*
X131660148Y-120492505D01*
X131577600Y-120577600D01*
X131518547Y-120539496D01*
X131476000Y-120374400D01*
X131495051Y-120256294D01*
X131577600Y-120171200D01*
X131636652Y-120209303D01*
G37*
G36*
X126869835Y-120494357D02*
G01*
X126880428Y-120679200D01*
X126879445Y-120748133D01*
X126863413Y-120888620D01*
X126833964Y-120857000D01*
X126818163Y-120759080D01*
X126833964Y-120501400D01*
X126843462Y-120472573D01*
X126869835Y-120494357D01*
G37*
G36*
X127884374Y-120533243D02*
G01*
X127894378Y-120730000D01*
X127893065Y-120837631D01*
X127877655Y-120983534D01*
X127850192Y-120959784D01*
X127831784Y-120818116D01*
X127848142Y-120553384D01*
X127861427Y-120503392D01*
X127884374Y-120533243D01*
G37*
G36*
X128204993Y-121034800D02*
G01*
X128205132Y-121058860D01*
X128191510Y-121217911D01*
X128158156Y-121214533D01*
X128139518Y-121131049D01*
X128154392Y-120909733D01*
X128159419Y-120892264D01*
X128190342Y-120877223D01*
X128204993Y-121034800D01*
G37*
G36*
X130382684Y-121088552D02*
G01*
X130460000Y-121187200D01*
X130457047Y-121211484D01*
X130358400Y-121288800D01*
X130334115Y-121285847D01*
X130256800Y-121187200D01*
X130259752Y-121162915D01*
X130358400Y-121085600D01*
X130382684Y-121088552D01*
G37*
G36*
X131199283Y-121509710D02*
G01*
X131183273Y-121717407D01*
X131149414Y-121897061D01*
X131119775Y-121942439D01*
X131090199Y-121810481D01*
X131086930Y-121641405D01*
X131145470Y-121477089D01*
X131156741Y-121467427D01*
X131199283Y-121509710D01*
G37*
G36*
X127885835Y-121510357D02*
G01*
X127896428Y-121695200D01*
X127895445Y-121764133D01*
X127879413Y-121904620D01*
X127849964Y-121873000D01*
X127834163Y-121775080D01*
X127849964Y-121517400D01*
X127859462Y-121488573D01*
X127885835Y-121510357D01*
G37*
G36*
X131846774Y-121447643D02*
G01*
X131856778Y-121644400D01*
X131855465Y-121752031D01*
X131840055Y-121897934D01*
X131812592Y-121874184D01*
X131794184Y-121732516D01*
X131810542Y-121467784D01*
X131823827Y-121417792D01*
X131846774Y-121447643D01*
G37*
G36*
X126884193Y-121746000D02*
G01*
X126884332Y-121770060D01*
X126870710Y-121929111D01*
X126837356Y-121925733D01*
X126818718Y-121842249D01*
X126833592Y-121620933D01*
X126838619Y-121603464D01*
X126869542Y-121588423D01*
X126884193Y-121746000D01*
G37*
G36*
X131545999Y-121671035D02*
G01*
X131577600Y-121847600D01*
X131550901Y-122014359D01*
X131476000Y-122050800D01*
X131438813Y-122018022D01*
X131374400Y-121847600D01*
X131381487Y-121791828D01*
X131476000Y-121644400D01*
X131545999Y-121671035D01*
G37*
G36*
X127233084Y-122002952D02*
G01*
X127310400Y-122101600D01*
X127307447Y-122125884D01*
X127208800Y-122203200D01*
X127184515Y-122200247D01*
X127107200Y-122101600D01*
X127110152Y-122077315D01*
X127208800Y-122000000D01*
X127233084Y-122002952D01*
G37*
G36*
X129714635Y-123034357D02*
G01*
X129725228Y-123219200D01*
X129724245Y-123288133D01*
X129708213Y-123428620D01*
X129678764Y-123397000D01*
X129662963Y-123299080D01*
X129678764Y-123041400D01*
X129688262Y-123012573D01*
X129714635Y-123034357D01*
G37*
G36*
X132472193Y-123371600D02*
G01*
X132472332Y-123395660D01*
X132458710Y-123554711D01*
X132425356Y-123551333D01*
X132406718Y-123467849D01*
X132421592Y-123246533D01*
X132426619Y-123229064D01*
X132457542Y-123214023D01*
X132472193Y-123371600D01*
G37*
G36*
X133570488Y-123275919D02*
G01*
X133609600Y-123416403D01*
X133589750Y-123540249D01*
X133508000Y-123625600D01*
X133463206Y-123610508D01*
X133406400Y-123479196D01*
X133414515Y-123417002D01*
X133508000Y-123270000D01*
X133570488Y-123275919D01*
G37*
G36*
X132856947Y-123361670D02*
G01*
X132898400Y-123529996D01*
X132876768Y-123645291D01*
X132796800Y-123676400D01*
X132757120Y-123640182D01*
X132695200Y-123467203D01*
X132705672Y-123402657D01*
X132796800Y-123320800D01*
X132856947Y-123361670D01*
G37*
G36*
X133948424Y-123323943D02*
G01*
X134008939Y-123415351D01*
X133914400Y-123625600D01*
X133890159Y-123661357D01*
X133830397Y-123697857D01*
X133814355Y-123549400D01*
X133835704Y-123406849D01*
X133914400Y-123320800D01*
X133948424Y-123323943D01*
G37*
G36*
X136646741Y-116365846D02*
G01*
X136745230Y-116420273D01*
X136689981Y-116479209D01*
X136433685Y-116529119D01*
X136239010Y-116528472D01*
X136128885Y-116472485D01*
X136130705Y-116437729D01*
X136241617Y-116365667D01*
X136441138Y-116336041D01*
X136646741Y-116365846D01*
G37*
G36*
X127658459Y-117228827D02*
G01*
X127716800Y-117326400D01*
X127666581Y-117389413D01*
X127488200Y-117426444D01*
X127433119Y-117425314D01*
X127332209Y-117400511D01*
X127412000Y-117326400D01*
X127498134Y-117277118D01*
X127640600Y-117226355D01*
X127658459Y-117228827D01*
G37*
G36*
X126686759Y-117470122D02*
G01*
X126752054Y-117548932D01*
X126718805Y-117672457D01*
X126567803Y-117724778D01*
X126506798Y-117712345D01*
X126574433Y-117665301D01*
X126622817Y-117632483D01*
X126634934Y-117505224D01*
X126614836Y-117456486D01*
X126686759Y-117470122D01*
G37*
G36*
X131715828Y-117904895D02*
G01*
X131754432Y-117945698D01*
X131773652Y-118021847D01*
X131719129Y-118181690D01*
X131633377Y-118314040D01*
X131525740Y-118316191D01*
X131476000Y-118145196D01*
X131498812Y-118002616D01*
X131593610Y-117878357D01*
X131715828Y-117904895D01*
G37*
G36*
X131709653Y-119055033D02*
G01*
X131777486Y-119153907D01*
X131719353Y-119400306D01*
X131675189Y-119476484D01*
X131576492Y-119510115D01*
X131547716Y-119474360D01*
X131538784Y-119313539D01*
X131595713Y-119136818D01*
X131691049Y-119053600D01*
X131709653Y-119055033D01*
G37*
G36*
X126968407Y-119420921D02*
G01*
X126979050Y-119608558D01*
X126949582Y-119766514D01*
X126885327Y-119914433D01*
X126827510Y-119889188D01*
X126802400Y-119680133D01*
X126802562Y-119662216D01*
X126835231Y-119447043D01*
X126907475Y-119358400D01*
X126968407Y-119420921D01*
G37*
G36*
X130248098Y-121385743D02*
G01*
X130380417Y-121479204D01*
X130460000Y-121601917D01*
X130459734Y-121606528D01*
X130384485Y-121619591D01*
X130215950Y-121522143D01*
X130141820Y-121464181D01*
X130016282Y-121335315D01*
X130053120Y-121303177D01*
X130248098Y-121385743D01*
G37*
G36*
X135336800Y-122508000D02*
G01*
X135397803Y-122804693D01*
X135419454Y-122957119D01*
X135399120Y-122996157D01*
X135336800Y-122965200D01*
X135322265Y-122952201D01*
X135264889Y-122788979D01*
X135248574Y-122527403D01*
X135261949Y-122152400D01*
X135336800Y-122508000D01*
G37*
G36*
X134258135Y-123033300D02*
G01*
X134307800Y-123177674D01*
X134227289Y-123473001D01*
X134179869Y-123572612D01*
X134138607Y-123550710D01*
X134099626Y-123346001D01*
X134096565Y-123324294D01*
X134096149Y-123089402D01*
X134185996Y-123016000D01*
X134258135Y-123033300D01*
G37*
G36*
X138003800Y-113147840D02*
G01*
X138131666Y-113275896D01*
X138173444Y-113410728D01*
X138063066Y-113465600D01*
X138022165Y-113460277D01*
X138011385Y-113398748D01*
X138026629Y-113329853D01*
X137952118Y-113170148D01*
X137905447Y-113109114D01*
X137883761Y-113060368D01*
X138003800Y-113147840D01*
G37*
G36*
X136878627Y-113685007D02*
G01*
X136962400Y-113770400D01*
X136961449Y-113778113D01*
X136856918Y-113844178D01*
X136632200Y-113870444D01*
X136509036Y-113866936D01*
X136395013Y-113837861D01*
X136454400Y-113770400D01*
X136541078Y-113726340D01*
X136784600Y-113670355D01*
X136878627Y-113685007D01*
G37*
G36*
X135733386Y-115476332D02*
G01*
X135743200Y-115683866D01*
X135743040Y-115701763D01*
X135710851Y-115916949D01*
X135639664Y-116005600D01*
X135599519Y-115944815D01*
X135598078Y-115766627D01*
X135637087Y-115557056D01*
X135706692Y-115404466D01*
X135709479Y-115402170D01*
X135733386Y-115476332D01*
G37*
G36*
X126567264Y-116179610D02*
G01*
X126599200Y-116412000D01*
X126571387Y-116629959D01*
X126497600Y-116767600D01*
X126474435Y-116773462D01*
X126417150Y-116672514D01*
X126396000Y-116412000D01*
X126398052Y-116317878D01*
X126431163Y-116102437D01*
X126497600Y-116056400D01*
X126567264Y-116179610D01*
G37*
G36*
X129914070Y-117529707D02*
G01*
X129940893Y-117623619D01*
X129952000Y-117840396D01*
X129951853Y-117858286D01*
X129924446Y-118048751D01*
X129864025Y-118096821D01*
X129826330Y-117997896D01*
X129824753Y-117803384D01*
X129856495Y-117614459D01*
X129913044Y-117529600D01*
X129914070Y-117529707D01*
G37*
G36*
X135844800Y-117885200D02*
G01*
X135846333Y-117891220D01*
X135903688Y-118110070D01*
X135934379Y-118215400D01*
X135934271Y-118221526D01*
X135844800Y-118240800D01*
X135836899Y-118239794D01*
X135774302Y-118135070D01*
X135755220Y-117910600D01*
X135767241Y-117580400D01*
X135844800Y-117885200D01*
G37*
G36*
X132747437Y-117960872D02*
G01*
X132756870Y-118096709D01*
X132728713Y-118180442D01*
X132695200Y-118350709D01*
X132692308Y-118372782D01*
X132593600Y-118444000D01*
X132526778Y-118380937D01*
X132492000Y-118190000D01*
X132521830Y-118022441D01*
X132655270Y-117936000D01*
X132747437Y-117960872D01*
G37*
G36*
X129079532Y-119699456D02*
G01*
X129095809Y-119912231D01*
X129094371Y-119952718D01*
X129064763Y-120150248D01*
X129012200Y-120205912D01*
X128976657Y-120161354D01*
X128939185Y-119975086D01*
X128953981Y-119758200D01*
X129019609Y-119623518D01*
X129029919Y-119619734D01*
X129079532Y-119699456D01*
G37*
G36*
X131276618Y-119867013D02*
G01*
X131323941Y-119967215D01*
X131306466Y-120196600D01*
X131263024Y-120402511D01*
X131212512Y-120549688D01*
X131181653Y-120495241D01*
X131171200Y-120238933D01*
X131172550Y-120177625D01*
X131205992Y-119956014D01*
X131270260Y-119866400D01*
X131276618Y-119867013D01*
G37*
G36*
X126500635Y-99553551D02*
G01*
X126574556Y-99705439D01*
X126599200Y-100054400D01*
X126593429Y-100246588D01*
X126553043Y-100493343D01*
X126490795Y-100543549D01*
X126426608Y-100397212D01*
X126380405Y-100054336D01*
X126371826Y-99861494D01*
X126394350Y-99621533D01*
X126472200Y-99546336D01*
X126500635Y-99553551D01*
G37*
G36*
X132066640Y-118733340D02*
G01*
X132085600Y-118929070D01*
X132085597Y-118931252D01*
X132057842Y-119169933D01*
X131991834Y-119302758D01*
X131965998Y-119305696D01*
X131927649Y-119206573D01*
X131924978Y-119017688D01*
X131955057Y-118817376D01*
X132014958Y-118683974D01*
X132020444Y-118679438D01*
X132066640Y-118733340D01*
G37*
G36*
X132848178Y-120154844D02*
G01*
X132901269Y-120243892D01*
X132813663Y-120323404D01*
X132542800Y-120344207D01*
X132496626Y-120342307D01*
X132276672Y-120312990D01*
X132187200Y-120264195D01*
X132190104Y-120253820D01*
X132302058Y-120194452D01*
X132510028Y-120148079D01*
X132722555Y-120129833D01*
X132848178Y-120154844D01*
G37*
G36*
X136322070Y-121225704D02*
G01*
X136409716Y-121280280D01*
X136420934Y-121340207D01*
X136251200Y-121400398D01*
X136038913Y-121450910D01*
X135732529Y-121483692D01*
X135539219Y-121449202D01*
X135499218Y-121350129D01*
X135577796Y-121261572D01*
X135803069Y-121177068D01*
X136080256Y-121160712D01*
X136322070Y-121225704D01*
G37*
G36*
X130756278Y-121398023D02*
G01*
X130764800Y-121627466D01*
X130763449Y-121688774D01*
X130730007Y-121910385D01*
X130665740Y-122000000D01*
X130652872Y-121995101D01*
X130622633Y-121877330D01*
X130630210Y-121665460D01*
X130668048Y-121443952D01*
X130728593Y-121297266D01*
X130735148Y-121295761D01*
X130756278Y-121398023D01*
G37*
G36*
X132316621Y-123793952D02*
G01*
X132332788Y-123796595D01*
X132604545Y-123852066D01*
X132674957Y-123894221D01*
X132545508Y-123921014D01*
X132217680Y-123930400D01*
X132070908Y-123927212D01*
X131858792Y-123895454D01*
X131839101Y-123831458D01*
X131858400Y-123817210D01*
X132044910Y-123778013D01*
X132316621Y-123793952D01*
G37*
G36*
X130772182Y-123762090D02*
G01*
X130866400Y-123826861D01*
X130827855Y-123869940D01*
X130618625Y-123912000D01*
X130250324Y-123918081D01*
X129949402Y-123898728D01*
X129773219Y-123860215D01*
X129787154Y-123814292D01*
X129985008Y-123770965D01*
X130360578Y-123740235D01*
X130513424Y-123737171D01*
X130772182Y-123762090D01*
G37*
G36*
X125131235Y-105434275D02*
G01*
X125141118Y-105444858D01*
X125222110Y-105631137D01*
X125233307Y-105865218D01*
X125181357Y-106065505D01*
X125072906Y-106150400D01*
X125008972Y-106137704D01*
X124932639Y-106019781D01*
X124912591Y-105744000D01*
X124913925Y-105659719D01*
X124939081Y-105415312D01*
X125006637Y-105347078D01*
X125131235Y-105434275D01*
G37*
G36*
X130247347Y-117533091D02*
G01*
X130283222Y-117651271D01*
X130276082Y-117885200D01*
X130270216Y-117932439D01*
X130231497Y-118151668D01*
X130194884Y-118240800D01*
X130189725Y-118237787D01*
X130165183Y-118120401D01*
X130155200Y-117885200D01*
X130155895Y-117838721D01*
X130182713Y-117618974D01*
X130236398Y-117529600D01*
X130247347Y-117533091D01*
G37*
G36*
X130281504Y-118455615D02*
G01*
X130358400Y-118576080D01*
X130358398Y-118576541D01*
X130264276Y-118673451D01*
X130002800Y-118708160D01*
X129956411Y-118707567D01*
X129736603Y-118684640D01*
X129647200Y-118638729D01*
X129654544Y-118619737D01*
X129781739Y-118543072D01*
X130002279Y-118475604D01*
X130231400Y-118445387D01*
X130281504Y-118455615D01*
G37*
G36*
X136504088Y-118813232D02*
G01*
X136545392Y-118830807D01*
X136654397Y-118931610D01*
X136586138Y-119017360D01*
X136361109Y-119053600D01*
X136122966Y-119069314D01*
X135903909Y-119115270D01*
X135808620Y-119129612D01*
X135743200Y-119026370D01*
X135814465Y-118918992D01*
X136017112Y-118825958D01*
X136273330Y-118783325D01*
X136504088Y-118813232D01*
G37*
G36*
X127910547Y-119361891D02*
G01*
X127946422Y-119480071D01*
X127939282Y-119714000D01*
X127933416Y-119761239D01*
X127894697Y-119980468D01*
X127858084Y-120069600D01*
X127852925Y-120066587D01*
X127828383Y-119949201D01*
X127818400Y-119714000D01*
X127819095Y-119667521D01*
X127845913Y-119447774D01*
X127899598Y-119358400D01*
X127910547Y-119361891D01*
G37*
G36*
X131913414Y-119869446D02*
G01*
X131963591Y-119986890D01*
X131984000Y-120222000D01*
X131983663Y-120268223D01*
X131970563Y-120488143D01*
X131944315Y-120577600D01*
X131938676Y-120574452D01*
X131900479Y-120456833D01*
X131863117Y-120222000D01*
X131858107Y-120172264D01*
X131859698Y-119954735D01*
X131902801Y-119866400D01*
X131913414Y-119869446D01*
G37*
G36*
X127443014Y-122815846D02*
G01*
X127493191Y-122933290D01*
X127513600Y-123168400D01*
X127513263Y-123214623D01*
X127500163Y-123434543D01*
X127473915Y-123524000D01*
X127468276Y-123520852D01*
X127430079Y-123403233D01*
X127392717Y-123168400D01*
X127387707Y-123118664D01*
X127389298Y-122901135D01*
X127432401Y-122812800D01*
X127443014Y-122815846D01*
G37*
G36*
X137439852Y-113035150D02*
G01*
X137670421Y-113276169D01*
X137810653Y-113438351D01*
X137997435Y-113710058D01*
X138019980Y-113870256D01*
X137879535Y-113922800D01*
X137736154Y-113858332D01*
X137540850Y-113669941D01*
X137355456Y-113421294D01*
X137227518Y-113177221D01*
X137204586Y-113002550D01*
X137225728Y-112960667D01*
X137302156Y-112936171D01*
X137439852Y-113035150D01*
G37*
G36*
X135896599Y-113879939D02*
G01*
X135937693Y-113959767D01*
X135931693Y-114158103D01*
X135879917Y-114514830D01*
X135864235Y-114599735D01*
X135802451Y-114783240D01*
X135735724Y-114774304D01*
X135706840Y-114693599D01*
X135731308Y-114487074D01*
X135770893Y-114357263D01*
X135788891Y-114100600D01*
X135797110Y-113957447D01*
X135858672Y-113872000D01*
X135896599Y-113879939D01*
G37*
G36*
X130460000Y-122986561D02*
G01*
X130613414Y-123045467D01*
X130641922Y-123151456D01*
X130561600Y-123371600D01*
X130474281Y-123574800D01*
X130460000Y-123371600D01*
X130445718Y-123168400D01*
X130358400Y-123371600D01*
X130310717Y-123467785D01*
X130276465Y-123453226D01*
X130263940Y-123254111D01*
X130267220Y-123096302D01*
X130319360Y-122980263D01*
X130460000Y-122986561D01*
G37*
G36*
X129494800Y-117834400D02*
G01*
X129565740Y-117851338D01*
X129647200Y-117980803D01*
X129608614Y-118131330D01*
X129504412Y-118185618D01*
X129403846Y-118079506D01*
X129371186Y-117986800D01*
X129444000Y-117986800D01*
X129494800Y-118037600D01*
X129545600Y-117986800D01*
X129494800Y-117936000D01*
X129444000Y-117986800D01*
X129371186Y-117986800D01*
X129359733Y-117954290D01*
X129366234Y-117853544D01*
X129494800Y-117834400D01*
G37*
G36*
X134095265Y-118850912D02*
G01*
X134238752Y-118934624D01*
X134415025Y-119118101D01*
X134567982Y-119343975D01*
X134613802Y-119552640D01*
X134524000Y-119764800D01*
X134481816Y-119814771D01*
X134437711Y-119770107D01*
X134423955Y-119541961D01*
X134423897Y-119533149D01*
X134369918Y-119213602D01*
X134196593Y-119008561D01*
X134071808Y-118897396D01*
X134087619Y-118850400D01*
X134095265Y-118850912D01*
G37*
G36*
X125436910Y-120712428D02*
G01*
X125481600Y-120871529D01*
X125505500Y-120983786D01*
X125634000Y-121122341D01*
X125708275Y-121188960D01*
X125777342Y-121353158D01*
X125790327Y-121518339D01*
X125728920Y-121593600D01*
X125540110Y-121543577D01*
X125350863Y-121340946D01*
X125278400Y-121031225D01*
X125279180Y-120987632D01*
X125312574Y-120768449D01*
X125380000Y-120679200D01*
X125436910Y-120712428D01*
G37*
G36*
X127275621Y-123282262D02*
G01*
X127310400Y-123473200D01*
X127310429Y-123480726D01*
X127361253Y-123676437D01*
X127539000Y-123738985D01*
X127590596Y-123742085D01*
X127683925Y-123761085D01*
X127584919Y-123798175D01*
X127471780Y-123805192D01*
X127254719Y-123723149D01*
X127193115Y-123654049D01*
X127118190Y-123468517D01*
X127120864Y-123295541D01*
X127208800Y-123219200D01*
X127275621Y-123282262D01*
G37*
G36*
X125271259Y-106366559D02*
G01*
X125270831Y-106373698D01*
X125236743Y-106544236D01*
X125174574Y-106711075D01*
X125113411Y-106810653D01*
X125082340Y-106779403D01*
X125068792Y-106727369D01*
X124973600Y-106709200D01*
X124908568Y-106697003D01*
X124872000Y-106545862D01*
X124887590Y-106416706D01*
X124938851Y-106386585D01*
X124993902Y-106404729D01*
X125142051Y-106340278D01*
X125242212Y-106281396D01*
X125271259Y-106366559D01*
G37*
G36*
X125148218Y-107410155D02*
G01*
X125168984Y-107667827D01*
X125176800Y-108029999D01*
X125176409Y-108136770D01*
X125168933Y-108480085D01*
X125153907Y-108710539D01*
X125133902Y-108782969D01*
X125129649Y-108777238D01*
X125098840Y-108631274D01*
X125077502Y-108357114D01*
X125066745Y-108020926D01*
X125067680Y-107688878D01*
X125081415Y-107427137D01*
X125109060Y-107301872D01*
X125118523Y-107300205D01*
X125148218Y-107410155D01*
G37*
G36*
X133690880Y-116229120D02*
G01*
X133751348Y-116305996D01*
X133807172Y-116542690D01*
X133747365Y-116899943D01*
X133698010Y-117024292D01*
X133572076Y-117103150D01*
X133316952Y-117103143D01*
X133074369Y-117064741D01*
X132959952Y-116962427D01*
X132916867Y-116735563D01*
X132916115Y-116727316D01*
X132930289Y-116450978D01*
X133005508Y-116252963D01*
X133188686Y-116137602D01*
X133459985Y-116119774D01*
X133690880Y-116229120D01*
G37*
G36*
X125415189Y-122143499D02*
G01*
X125409043Y-122306310D01*
X125406474Y-122316317D01*
X125402818Y-122455698D01*
X125520155Y-122447839D01*
X125580094Y-122431594D01*
X125662883Y-122485505D01*
X125684800Y-122700329D01*
X125674005Y-122873764D01*
X125616097Y-123000707D01*
X125520283Y-122935295D01*
X125400410Y-122678586D01*
X125308692Y-122386996D01*
X125288178Y-122170474D01*
X125370488Y-122101600D01*
X125415189Y-122143499D01*
G37*
G36*
X131633770Y-122969339D02*
G01*
X131824342Y-123074057D01*
X131915842Y-123197031D01*
X131982502Y-123404257D01*
X131981733Y-123426195D01*
X131945393Y-123468607D01*
X131851340Y-123320800D01*
X131801418Y-123235733D01*
X131635156Y-123102170D01*
X131354417Y-123066800D01*
X131291285Y-123065639D01*
X131091170Y-123039773D01*
X131034375Y-122990600D01*
X131145184Y-122928000D01*
X131377617Y-122917509D01*
X131633770Y-122969339D01*
G37*
G36*
X125024400Y-104730323D02*
G01*
X125036148Y-104720929D01*
X125193690Y-104778757D01*
X125232779Y-104915256D01*
X125212882Y-105100963D01*
X125146721Y-105210600D01*
X125071714Y-105231562D01*
X124919161Y-105191261D01*
X124872000Y-104982000D01*
X124895514Y-104880400D01*
X124973600Y-104880400D01*
X125024400Y-104931200D01*
X125075200Y-104880400D01*
X125024400Y-104829600D01*
X124973600Y-104880400D01*
X124895514Y-104880400D01*
X124908865Y-104822713D01*
X125024400Y-104730323D01*
G37*
G36*
X130510800Y-117891852D02*
G01*
X130553980Y-117853873D01*
X130627924Y-117898953D01*
X130663200Y-118079933D01*
X130637064Y-118255200D01*
X130561600Y-118342400D01*
X130514861Y-118325206D01*
X130460000Y-118190000D01*
X130459369Y-118123374D01*
X130453382Y-117986800D01*
X130460000Y-117986800D01*
X130510800Y-118037600D01*
X130561600Y-117986800D01*
X130510800Y-117936000D01*
X130460000Y-117986800D01*
X130453382Y-117986800D01*
X130452380Y-117963940D01*
X130454869Y-117941047D01*
X130510800Y-117891852D01*
G37*
G36*
X128819880Y-118037600D02*
G01*
X128828979Y-118150409D01*
X128892646Y-118469425D01*
X128990031Y-118692018D01*
X129087772Y-118907599D01*
X129127516Y-119200018D01*
X129124787Y-119269314D01*
X129113536Y-119408175D01*
X129090423Y-119366679D01*
X129042775Y-119135124D01*
X129034163Y-119093702D01*
X128947388Y-118806937D01*
X128845050Y-118609233D01*
X128825819Y-118580841D01*
X128762781Y-118347549D01*
X128759641Y-118019708D01*
X128798899Y-117580400D01*
X128819880Y-118037600D01*
G37*
G36*
X127892945Y-122911075D02*
G01*
X127920000Y-123117600D01*
X127920094Y-123132619D01*
X127950002Y-123331493D01*
X128021600Y-123371600D01*
X128053513Y-123356747D01*
X128224800Y-123371600D01*
X128237984Y-123379996D01*
X128340453Y-123499685D01*
X128285792Y-123586151D01*
X128117108Y-123615524D01*
X127877509Y-123563929D01*
X127785666Y-123472000D01*
X127722360Y-123254440D01*
X127730461Y-123018339D01*
X127818400Y-122863600D01*
X127823235Y-122860904D01*
X127892945Y-122911075D01*
G37*
G36*
X126962147Y-122808241D02*
G01*
X126988668Y-123003370D01*
X126853200Y-123320800D01*
X126770196Y-123458063D01*
X126713964Y-123495870D01*
X126692379Y-123371600D01*
X126686272Y-123319450D01*
X126653622Y-123298577D01*
X126594610Y-123473200D01*
X126512461Y-123778000D01*
X126530430Y-123473200D01*
X126576505Y-123260922D01*
X126700800Y-123166667D01*
X126792819Y-123124992D01*
X126845675Y-122943119D01*
X126859808Y-122814873D01*
X126921875Y-122773047D01*
X126962147Y-122808241D01*
G37*
G36*
X136217921Y-99858851D02*
G01*
X136308895Y-99916244D01*
X136339256Y-100074471D01*
X136334486Y-100384600D01*
X136316173Y-100918000D01*
X136278119Y-100435400D01*
X136242352Y-100151310D01*
X136174196Y-99994752D01*
X136054873Y-99952800D01*
X135918733Y-99975774D01*
X135723153Y-100153603D01*
X135615013Y-100511600D01*
X135608204Y-100557896D01*
X135581474Y-100711860D01*
X135567036Y-100680812D01*
X135555222Y-100455720D01*
X135555103Y-100452825D01*
X135595258Y-100106196D01*
X135761072Y-99911851D01*
X136068320Y-99851200D01*
X136217921Y-99858851D01*
G37*
G36*
X130486845Y-120450570D02*
G01*
X130700592Y-120569313D01*
X130723108Y-120582723D01*
X131105281Y-120721579D01*
X131568905Y-120777518D01*
X132026454Y-120747478D01*
X132390400Y-120628400D01*
X132599557Y-120532328D01*
X132796800Y-120487135D01*
X132824169Y-120498691D01*
X132751665Y-120568321D01*
X132542800Y-120679200D01*
X132114015Y-120817507D01*
X131590413Y-120873815D01*
X131089832Y-120828099D01*
X130688600Y-120680313D01*
X130630110Y-120643693D01*
X130436517Y-120505055D01*
X130358400Y-120418406D01*
X130367447Y-120410175D01*
X130486845Y-120450570D01*
G37*
G36*
X134371600Y-99787289D02*
G01*
X134643742Y-99769729D01*
X134826737Y-99759908D01*
X135029175Y-99773543D01*
X135120889Y-99851863D01*
X135160605Y-100023729D01*
X135181137Y-100243416D01*
X135141516Y-100668485D01*
X134994869Y-100977867D01*
X134754086Y-101136280D01*
X134526627Y-101139886D01*
X134302070Y-100989701D01*
X134166582Y-100689850D01*
X134138138Y-100265740D01*
X134148578Y-100105200D01*
X134320800Y-100105200D01*
X134371600Y-100156000D01*
X134422400Y-100105200D01*
X134371600Y-100054400D01*
X134320800Y-100105200D01*
X134148578Y-100105200D01*
X134168400Y-99800400D01*
X134371600Y-99787289D01*
G37*
G36*
X125215687Y-108947062D02*
G01*
X125257993Y-109191315D01*
X125266379Y-109630200D01*
X125260311Y-109880358D01*
X125244104Y-110116700D01*
X125217226Y-110172621D01*
X125176800Y-110062000D01*
X125168406Y-110030114D01*
X125115343Y-109883655D01*
X125087220Y-109901133D01*
X125078321Y-109953770D01*
X125025654Y-109989069D01*
X124960929Y-109889824D01*
X124920446Y-109699849D01*
X124934116Y-109578853D01*
X125033685Y-109543504D01*
X125070985Y-109551764D01*
X125124464Y-109479450D01*
X125105342Y-109243185D01*
X125092810Y-108984085D01*
X125163506Y-108893600D01*
X125215687Y-108947062D01*
G37*
G36*
X134712081Y-116178186D02*
G01*
X134905000Y-116200445D01*
X134989245Y-116271839D01*
X135032000Y-116468796D01*
X135005738Y-116630029D01*
X134930400Y-116666000D01*
X134890720Y-116629782D01*
X134828800Y-116456803D01*
X134777006Y-116361890D01*
X134577704Y-116310400D01*
X134499673Y-116315311D01*
X134336844Y-116402808D01*
X134231268Y-116640600D01*
X134203173Y-116726869D01*
X134150676Y-116810268D01*
X134125489Y-116746516D01*
X134133878Y-116574717D01*
X134182114Y-116333975D01*
X134194435Y-116292486D01*
X134298126Y-116153144D01*
X134510926Y-116147820D01*
X134712081Y-116178186D01*
G37*
G36*
X134638747Y-117361955D02*
G01*
X134921933Y-117504200D01*
X134991399Y-117593499D01*
X135082109Y-117814424D01*
X135128486Y-118060314D01*
X135119992Y-118260020D01*
X135046089Y-118342400D01*
X135000190Y-118271443D01*
X135009199Y-118077593D01*
X134998141Y-117841329D01*
X134846221Y-117689565D01*
X134574800Y-117689580D01*
X134371600Y-117743321D01*
X134574800Y-117573825D01*
X134649292Y-117509685D01*
X134694246Y-117443132D01*
X134596229Y-117431017D01*
X134326080Y-117459995D01*
X134177324Y-117475413D01*
X134003543Y-117472495D01*
X134021280Y-117422586D01*
X134294732Y-117336015D01*
X134638747Y-117361955D01*
G37*
G36*
X132949200Y-99749600D02*
G01*
X133196133Y-99749600D01*
X133307626Y-99750439D01*
X133563050Y-99771801D01*
X133689802Y-99839842D01*
X133744591Y-99978200D01*
X133768646Y-100297608D01*
X133700583Y-100689916D01*
X133541846Y-100987533D01*
X133490139Y-101042423D01*
X133328577Y-101153734D01*
X133167112Y-101116015D01*
X132944581Y-100922618D01*
X132856156Y-100823691D01*
X132730084Y-100568957D01*
X132695200Y-100211418D01*
X132695200Y-100003600D01*
X132898400Y-100003600D01*
X132949200Y-100054400D01*
X133000000Y-100003600D01*
X132949200Y-99952800D01*
X132898400Y-100003600D01*
X132695200Y-100003600D01*
X132695200Y-99749600D01*
X132949200Y-99749600D01*
G37*
G36*
X127367196Y-116034246D02*
G01*
X127571732Y-116049161D01*
X127676193Y-116084686D01*
X127789810Y-116207677D01*
X127818400Y-116459687D01*
X127754575Y-116772389D01*
X127566945Y-116940242D01*
X127270569Y-116941026D01*
X127114936Y-116883639D01*
X126953659Y-116707528D01*
X126905555Y-116393446D01*
X126905757Y-116375508D01*
X126933489Y-116300924D01*
X127163855Y-116300924D01*
X127172755Y-116346566D01*
X127310259Y-116339875D01*
X127454163Y-116290698D01*
X127503388Y-116233065D01*
X127367196Y-116208800D01*
X127304827Y-116216307D01*
X127163855Y-116300924D01*
X126933489Y-116300924D01*
X126994329Y-116137295D01*
X127225256Y-116023895D01*
X127367196Y-116034246D01*
G37*
G36*
X130872396Y-116076421D02*
G01*
X130908115Y-116059393D01*
X131171200Y-116107200D01*
X131302684Y-116253968D01*
X131373770Y-116520389D01*
X131352135Y-116803823D01*
X131231718Y-117013534D01*
X131151353Y-117059542D01*
X130902345Y-117077861D01*
X130655606Y-116985000D01*
X130507594Y-116808299D01*
X130481281Y-116683822D01*
X130511788Y-116457866D01*
X130705443Y-116457866D01*
X130810323Y-116450766D01*
X130884176Y-116417971D01*
X130964709Y-116343049D01*
X130872396Y-116310400D01*
X130844800Y-116314010D01*
X130714719Y-116410836D01*
X130705443Y-116457866D01*
X130511788Y-116457866D01*
X130520590Y-116392675D01*
X130677056Y-116169541D01*
X130872396Y-116076421D01*
G37*
G36*
X133907426Y-121195538D02*
G01*
X134196641Y-121349300D01*
X134356168Y-121587952D01*
X134376624Y-121665147D01*
X134410614Y-121802781D01*
X134388936Y-121877130D01*
X134285720Y-122046483D01*
X134193860Y-122152918D01*
X134136363Y-122120910D01*
X134084962Y-121913013D01*
X134082930Y-121902807D01*
X134040937Y-121663813D01*
X134027119Y-121528270D01*
X133959374Y-121412738D01*
X133749537Y-121329995D01*
X133457050Y-121295026D01*
X133142461Y-121314729D01*
X132866320Y-121396004D01*
X132746020Y-121452814D01*
X132709395Y-121455563D01*
X132839851Y-121346497D01*
X132851321Y-121337477D01*
X133175800Y-121180236D01*
X133547491Y-121136053D01*
X133907426Y-121195538D01*
G37*
G36*
X128428000Y-116052351D02*
G01*
X128580400Y-116005600D01*
X128717603Y-116025729D01*
X128915680Y-116127520D01*
X128938985Y-116154474D01*
X129025351Y-116393301D01*
X129017583Y-116679634D01*
X128915680Y-116899680D01*
X128804273Y-116971747D01*
X128561433Y-117018709D01*
X128324536Y-116980142D01*
X128184870Y-116860890D01*
X128124778Y-116629337D01*
X128146214Y-116367196D01*
X128326400Y-116367196D01*
X128329041Y-116377335D01*
X128428000Y-116412000D01*
X128455847Y-116407865D01*
X128529600Y-116304403D01*
X128521622Y-116267655D01*
X128428000Y-116259600D01*
X128397594Y-116280453D01*
X128326400Y-116367196D01*
X128146214Y-116367196D01*
X128150839Y-116310630D01*
X128309144Y-116088811D01*
X128428000Y-116052351D01*
G37*
G36*
X132925450Y-117418970D02*
G01*
X132961547Y-117433479D01*
X133083951Y-117520467D01*
X133128826Y-117679680D01*
X133118419Y-117975255D01*
X133101439Y-118122161D01*
X133045501Y-118352992D01*
X132976475Y-118444000D01*
X132969089Y-118443311D01*
X132915384Y-118340010D01*
X132928497Y-118094691D01*
X132939875Y-117833539D01*
X132853068Y-117635738D01*
X132843104Y-117627778D01*
X132639046Y-117570125D01*
X132461416Y-117671875D01*
X132377700Y-117896070D01*
X132358362Y-118121709D01*
X132309181Y-118355972D01*
X132252837Y-118420283D01*
X132206465Y-118305184D01*
X132187200Y-118001218D01*
X132187541Y-117934222D01*
X132208700Y-117662233D01*
X132283584Y-117515312D01*
X132441200Y-117428000D01*
X132625699Y-117386851D01*
X132925450Y-117418970D01*
G37*
G36*
X128727411Y-122762000D02*
G01*
X128764255Y-122953312D01*
X128794265Y-123220412D01*
X128812200Y-123498915D01*
X128815908Y-123735432D01*
X128803237Y-123876578D01*
X128772034Y-123868966D01*
X128697195Y-123805306D01*
X128500655Y-123778781D01*
X128395882Y-123782155D01*
X128453400Y-123756948D01*
X128490417Y-123747398D01*
X128609581Y-123689991D01*
X128588731Y-123588298D01*
X128424005Y-123394706D01*
X128289861Y-123191633D01*
X128246205Y-122988530D01*
X128247345Y-122981719D01*
X128325971Y-122828274D01*
X128428667Y-122842780D01*
X128481683Y-123016482D01*
X128502272Y-123129729D01*
X128583283Y-123192973D01*
X128595312Y-123187234D01*
X128650646Y-123055090D01*
X128663232Y-122812800D01*
X128644465Y-122457200D01*
X128727411Y-122762000D01*
G37*
G36*
X137078508Y-99890855D02*
G01*
X137259061Y-100029000D01*
X137339807Y-100229737D01*
X137363459Y-100556452D01*
X137285829Y-100860716D01*
X137125336Y-101084039D01*
X136900399Y-101167932D01*
X136825521Y-101161360D01*
X136816817Y-101117731D01*
X136982888Y-101014860D01*
X137070584Y-100962822D01*
X137209974Y-100803235D01*
X137217979Y-100554560D01*
X137158679Y-100301149D01*
X137005627Y-100046712D01*
X136797559Y-99952800D01*
X136739813Y-99974692D01*
X136676926Y-100131127D01*
X136657600Y-100460800D01*
X136650743Y-100643789D01*
X136613957Y-100877423D01*
X136556000Y-100968800D01*
X136529507Y-100964792D01*
X136468293Y-100872038D01*
X136465429Y-100636633D01*
X136519611Y-100232200D01*
X136575248Y-99993185D01*
X136675281Y-99876958D01*
X136869045Y-99851200D01*
X137078508Y-99890855D01*
G37*
G36*
X134751361Y-117937019D02*
G01*
X134813945Y-118049487D01*
X134801048Y-118342380D01*
X134791520Y-118430619D01*
X134792803Y-118678336D01*
X134838470Y-118805576D01*
X134865638Y-118833006D01*
X134919449Y-119049018D01*
X134919126Y-119454412D01*
X134864564Y-120044200D01*
X134861333Y-120070683D01*
X134807390Y-120381543D01*
X134732008Y-120535895D01*
X134614636Y-120577600D01*
X134504658Y-120552610D01*
X134487034Y-120425783D01*
X134526363Y-120356403D01*
X134621826Y-120321267D01*
X134647496Y-120316013D01*
X134697477Y-120182408D01*
X134737844Y-119928772D01*
X134764661Y-119611675D01*
X134773995Y-119287686D01*
X134761911Y-119013375D01*
X134724476Y-118845310D01*
X134688391Y-118759204D01*
X134637803Y-118507543D01*
X134630492Y-118238237D01*
X134665177Y-118023613D01*
X134740577Y-117936000D01*
X134751361Y-117937019D01*
G37*
G36*
X130158275Y-120704684D02*
G01*
X130522654Y-120830024D01*
X130546079Y-120844742D01*
X130717283Y-120917991D01*
X130958702Y-120959416D01*
X131314393Y-120973572D01*
X131828413Y-120965013D01*
X132159932Y-120958872D01*
X132520809Y-120963467D01*
X132758140Y-120980895D01*
X132832203Y-121009400D01*
X132793973Y-121034891D01*
X132587688Y-121073712D01*
X132253990Y-121091815D01*
X131843753Y-121090887D01*
X131407855Y-121072614D01*
X130997171Y-121038682D01*
X130662579Y-120990779D01*
X130454954Y-120930590D01*
X130420785Y-120913564D01*
X130232143Y-120848263D01*
X130155200Y-120874407D01*
X130144431Y-120896518D01*
X130002199Y-120945335D01*
X129747546Y-120956977D01*
X129649981Y-120950648D01*
X129428274Y-120900863D01*
X129391343Y-120826460D01*
X129530794Y-120751298D01*
X129838232Y-120699235D01*
X130158275Y-120704684D01*
G37*
G36*
X127564400Y-99546730D02*
G01*
X127661128Y-99548612D01*
X127920153Y-99572488D01*
X128055466Y-99614133D01*
X128105564Y-99747922D01*
X128120574Y-100016561D01*
X128092565Y-100329993D01*
X128024114Y-100606585D01*
X128021857Y-100612464D01*
X127881361Y-100811624D01*
X127634023Y-100867200D01*
X127560325Y-100862199D01*
X127309669Y-100731548D01*
X127158087Y-100425879D01*
X127107200Y-99948019D01*
X127107200Y-99851200D01*
X127208800Y-99851200D01*
X127211871Y-99864533D01*
X127329359Y-99927281D01*
X127564400Y-99952800D01*
X127611067Y-99951922D01*
X127830685Y-99918354D01*
X127920000Y-99851200D01*
X127916928Y-99837866D01*
X127799440Y-99775118D01*
X127564400Y-99749600D01*
X127517732Y-99750477D01*
X127298114Y-99784045D01*
X127208800Y-99851200D01*
X127107200Y-99851200D01*
X127107200Y-99546400D01*
X127547466Y-99546400D01*
X127564400Y-99546730D01*
G37*
G36*
X132238000Y-116122106D02*
G01*
X132273603Y-116127329D01*
X132471680Y-116229120D01*
X132529493Y-116300053D01*
X132612108Y-116558135D01*
X132570221Y-116826707D01*
X132424759Y-117037738D01*
X132196649Y-117123200D01*
X131969438Y-117091124D01*
X131751790Y-116924307D01*
X131679200Y-116615200D01*
X131696833Y-116474792D01*
X131882400Y-116474792D01*
X131889015Y-116488689D01*
X131984000Y-116462800D01*
X132014075Y-116441926D01*
X132076348Y-116361200D01*
X132187200Y-116361200D01*
X132238000Y-116412000D01*
X132288800Y-116361200D01*
X132238000Y-116310400D01*
X132187200Y-116361200D01*
X132076348Y-116361200D01*
X132085600Y-116349207D01*
X132078984Y-116335310D01*
X131984000Y-116361200D01*
X131953924Y-116382073D01*
X131882400Y-116474792D01*
X131696833Y-116474792D01*
X131703159Y-116424418D01*
X131856679Y-116189926D01*
X132078984Y-116124180D01*
X132136400Y-116107200D01*
X132238000Y-116122106D01*
G37*
G36*
X139008468Y-102138694D02*
G01*
X139117901Y-102144172D01*
X139477000Y-102165241D01*
X139640241Y-102175802D01*
X139955916Y-102205249D01*
X140127887Y-102249499D01*
X140199375Y-102325205D01*
X140213600Y-102449016D01*
X140208925Y-102540582D01*
X140166734Y-102622762D01*
X140045510Y-102666261D01*
X139803869Y-102683104D01*
X139400429Y-102685316D01*
X138587258Y-102683529D01*
X138652722Y-102410364D01*
X138670120Y-102341484D01*
X138914520Y-102341484D01*
X138979202Y-102385260D01*
X139224709Y-102444258D01*
X139231404Y-102445500D01*
X139548545Y-102480168D01*
X139819291Y-102472995D01*
X139882121Y-102448281D01*
X139787924Y-102406577D01*
X139515939Y-102357512D01*
X139238853Y-102326043D01*
X139008468Y-102319542D01*
X138914520Y-102341484D01*
X138670120Y-102341484D01*
X138700542Y-102221040D01*
X138729292Y-102128375D01*
X138731640Y-102127891D01*
X138852322Y-102130877D01*
X139008468Y-102138694D01*
G37*
G36*
X129703996Y-116038144D02*
G01*
X129802485Y-116027622D01*
X130002800Y-116137584D01*
X130074583Y-116176989D01*
X130183865Y-116321247D01*
X130209583Y-116490099D01*
X130182997Y-116584419D01*
X130155200Y-116826709D01*
X130146995Y-116900753D01*
X130052441Y-116996251D01*
X129810470Y-117021600D01*
X129796664Y-117021536D01*
X129523957Y-116970497D01*
X129382704Y-116800134D01*
X129342400Y-116474810D01*
X129344749Y-116462800D01*
X129952000Y-116462800D01*
X130002800Y-116513600D01*
X130053600Y-116462800D01*
X130002800Y-116412000D01*
X129952000Y-116462800D01*
X129344749Y-116462800D01*
X129356540Y-116402524D01*
X129500655Y-116402524D01*
X129509555Y-116448166D01*
X129647059Y-116441475D01*
X129790963Y-116392298D01*
X129840188Y-116334665D01*
X129703996Y-116310400D01*
X129641627Y-116317907D01*
X129500655Y-116402524D01*
X129356540Y-116402524D01*
X129389213Y-116235488D01*
X129557668Y-116053777D01*
X129703996Y-116038144D01*
G37*
G36*
X131509866Y-99683613D02*
G01*
X131725947Y-99665994D01*
X131815201Y-99660482D01*
X132034800Y-99683610D01*
X132095678Y-99690021D01*
X132266448Y-99818394D01*
X132340556Y-100036026D01*
X132347255Y-100360088D01*
X132288469Y-100690915D01*
X132171986Y-100936330D01*
X132105538Y-100992573D01*
X131884658Y-101045883D01*
X131657159Y-100992187D01*
X131519761Y-100845024D01*
X131472707Y-100747217D01*
X131361986Y-100664000D01*
X131331057Y-100639047D01*
X131293243Y-100467306D01*
X131292633Y-100181400D01*
X131310692Y-99899957D01*
X131497707Y-99899957D01*
X131509866Y-100020533D01*
X131540426Y-100036428D01*
X131555019Y-100003600D01*
X131984000Y-100003600D01*
X132034800Y-100054400D01*
X132085600Y-100003600D01*
X132034800Y-99952800D01*
X131984000Y-100003600D01*
X131555019Y-100003600D01*
X131577600Y-99952800D01*
X131570267Y-99899013D01*
X131509866Y-99885066D01*
X131497707Y-99899957D01*
X131310692Y-99899957D01*
X131323600Y-99698800D01*
X131509866Y-99683613D01*
G37*
G36*
X136810000Y-119471530D02*
G01*
X136868480Y-119460000D01*
X136974860Y-119467501D01*
X137196843Y-119577449D01*
X137302590Y-119831778D01*
X137301399Y-120247400D01*
X137286432Y-120488446D01*
X137319261Y-120639469D01*
X137420516Y-120679200D01*
X137497237Y-120694588D01*
X137521200Y-120780800D01*
X137456524Y-120844172D01*
X137240643Y-120870674D01*
X136957921Y-120755400D01*
X136927782Y-120737171D01*
X136767926Y-120681126D01*
X136665859Y-120768416D01*
X136574531Y-120860640D01*
X136464034Y-120825696D01*
X136383780Y-120635549D01*
X136359572Y-120387100D01*
X136614649Y-120387100D01*
X136645153Y-120420117D01*
X136810000Y-120476000D01*
X136866099Y-120469606D01*
X137005350Y-120387100D01*
X136977693Y-120327754D01*
X136810000Y-120298200D01*
X136657038Y-120321050D01*
X136614649Y-120387100D01*
X136359572Y-120387100D01*
X136352800Y-120317603D01*
X136351748Y-120243297D01*
X136314111Y-119962264D01*
X136225800Y-119863019D01*
X136183275Y-119856236D01*
X136177317Y-119794622D01*
X136291315Y-119693804D01*
X136476812Y-119584170D01*
X136685353Y-119496107D01*
X136810000Y-119471530D01*
G37*
G36*
X131954815Y-117262815D02*
G01*
X132195325Y-117273110D01*
X132237951Y-117291869D01*
X132085600Y-117319467D01*
X132075993Y-117320712D01*
X131824073Y-117361665D01*
X131756925Y-117399742D01*
X131857000Y-117444545D01*
X131984173Y-117503133D01*
X132065308Y-117646396D01*
X132085600Y-117926488D01*
X132082639Y-118026038D01*
X132047020Y-118252129D01*
X131984000Y-118342400D01*
X131961225Y-118332036D01*
X131904933Y-118190488D01*
X131882400Y-117936000D01*
X131882321Y-117903198D01*
X131864987Y-117657610D01*
X131792786Y-117552094D01*
X131630335Y-117529600D01*
X131439646Y-117573239D01*
X131329491Y-117758200D01*
X131295736Y-117916686D01*
X131237741Y-118190000D01*
X131220488Y-118230814D01*
X131197065Y-118146269D01*
X131182985Y-117910600D01*
X131180928Y-117785602D01*
X131196287Y-117550457D01*
X131261374Y-117444240D01*
X131399800Y-117412740D01*
X131451489Y-117402450D01*
X131390368Y-117370649D01*
X131171200Y-117328949D01*
X131128064Y-117322297D01*
X130987206Y-117292736D01*
X131016263Y-117273676D01*
X131226304Y-117263456D01*
X131628400Y-117260419D01*
X131954815Y-117262815D01*
G37*
G36*
X128678988Y-99556589D02*
G01*
X128689086Y-99552877D01*
X128961400Y-99559058D01*
X129066017Y-99568802D01*
X129139200Y-99583551D01*
X129327493Y-99621500D01*
X129467844Y-99693827D01*
X129468429Y-99694665D01*
X129555657Y-99957474D01*
X129535589Y-100277198D01*
X129430103Y-100589051D01*
X129261078Y-100828244D01*
X129050393Y-100929990D01*
X128864444Y-100871655D01*
X128658626Y-100679563D01*
X128513027Y-100422327D01*
X128481446Y-100171654D01*
X128501462Y-100033121D01*
X128511504Y-99902000D01*
X128631200Y-99902000D01*
X128646724Y-99979473D01*
X128732800Y-100003600D01*
X128763538Y-99982776D01*
X128798179Y-99943288D01*
X128936000Y-99943288D01*
X128977190Y-99987936D01*
X129139200Y-99982238D01*
X129258627Y-99943519D01*
X129342400Y-99890150D01*
X129304586Y-99867588D01*
X129139200Y-99851200D01*
X129021179Y-99868440D01*
X128936000Y-99943288D01*
X128798179Y-99943288D01*
X128834400Y-99902000D01*
X128829618Y-99887304D01*
X128732800Y-99800400D01*
X128678988Y-99792262D01*
X128631200Y-99902000D01*
X128511504Y-99902000D01*
X128521826Y-99767230D01*
X128523872Y-99725866D01*
X128562000Y-99599597D01*
X128678988Y-99556589D01*
G37*
G36*
X130697066Y-99669204D02*
G01*
X130820913Y-99686780D01*
X130863510Y-99716397D01*
X130923863Y-99895223D01*
X130922905Y-100244131D01*
X130922806Y-100245576D01*
X130883320Y-100625322D01*
X130811731Y-100844292D01*
X130681401Y-100944710D01*
X130465688Y-100968800D01*
X130319938Y-100948412D01*
X130063110Y-100780815D01*
X129904428Y-100476454D01*
X129869983Y-100074496D01*
X129875883Y-100007845D01*
X129898039Y-99899957D01*
X130075307Y-99899957D01*
X130087466Y-100020533D01*
X130118026Y-100036428D01*
X130132619Y-100003600D01*
X130358400Y-100003600D01*
X130409200Y-100054400D01*
X130460000Y-100003600D01*
X130409200Y-99952800D01*
X130358400Y-100003600D01*
X130132619Y-100003600D01*
X130155200Y-99952800D01*
X130147996Y-99899957D01*
X130684907Y-99899957D01*
X130697066Y-100020533D01*
X130727626Y-100036428D01*
X130764800Y-99952800D01*
X130757467Y-99899013D01*
X130697066Y-99885066D01*
X130684907Y-99899957D01*
X130147996Y-99899957D01*
X130147867Y-99899013D01*
X130087466Y-99885066D01*
X130075307Y-99899957D01*
X129898039Y-99899957D01*
X129919445Y-99795725D01*
X130036907Y-99702758D01*
X130087466Y-99695622D01*
X130292884Y-99666629D01*
X130351864Y-99662473D01*
X130409200Y-99662056D01*
X130635133Y-99660414D01*
X130697066Y-99669204D01*
G37*
G36*
X130460000Y-122135466D02*
G01*
X130466247Y-122181680D01*
X130526512Y-122245194D01*
X130680807Y-122282597D01*
X130965482Y-122300321D01*
X131416890Y-122304800D01*
X131639410Y-122306429D01*
X132049618Y-122318380D01*
X132366244Y-122339402D01*
X132534490Y-122366470D01*
X132604115Y-122394827D01*
X132685652Y-122451316D01*
X132572825Y-122464749D01*
X132263400Y-122435697D01*
X132126976Y-122419551D01*
X131945073Y-122408840D01*
X131923776Y-122445778D01*
X132034800Y-122543733D01*
X132195316Y-122645961D01*
X132381933Y-122707968D01*
X132442196Y-122717905D01*
X132456996Y-122780069D01*
X132421205Y-122790476D01*
X132245535Y-122746930D01*
X131994123Y-122627497D01*
X131916477Y-122584271D01*
X131712111Y-122483677D01*
X131625765Y-122483627D01*
X131614260Y-122578556D01*
X131614809Y-122609136D01*
X131537395Y-122723899D01*
X131298200Y-122770040D01*
X131272039Y-122771263D01*
X131056455Y-122755177D01*
X130968000Y-122699311D01*
X131003314Y-122648238D01*
X131165203Y-122609600D01*
X131282010Y-122592947D01*
X131426937Y-122505188D01*
X131430002Y-122499716D01*
X131384848Y-122447798D01*
X131200019Y-122453174D01*
X130925433Y-122509424D01*
X130611008Y-122610128D01*
X130573325Y-122624406D01*
X130360544Y-122696761D01*
X130273502Y-122691853D01*
X130256800Y-122609600D01*
X130306762Y-122544173D01*
X130485400Y-122497872D01*
X130589905Y-122492162D01*
X130645562Y-122472440D01*
X130509225Y-122421672D01*
X130414028Y-122377295D01*
X130308534Y-122221957D01*
X130383800Y-122042333D01*
X130425414Y-122028387D01*
X130460000Y-122135466D01*
G37*
G36*
X124973600Y-102247979D02*
G01*
X124983163Y-102245773D01*
X125246726Y-102233476D01*
X125258131Y-103325080D01*
X125256505Y-103684792D01*
X125240207Y-104077604D01*
X125211055Y-104356441D01*
X125172368Y-104476738D01*
X125123272Y-104485669D01*
X125075200Y-104381584D01*
X125051970Y-104298507D01*
X124917449Y-104286911D01*
X124917129Y-104287034D01*
X124820488Y-104290301D01*
X124780461Y-104173756D01*
X124781691Y-104041090D01*
X124916065Y-104041090D01*
X124954550Y-104086204D01*
X125013302Y-104102437D01*
X125149283Y-104078183D01*
X125147710Y-104043500D01*
X125015933Y-104024821D01*
X124916065Y-104041090D01*
X124781691Y-104041090D01*
X124783030Y-103896715D01*
X124786585Y-103779733D01*
X124905866Y-103779733D01*
X124920757Y-103791892D01*
X125015933Y-103782294D01*
X125041333Y-103779733D01*
X125057228Y-103749173D01*
X124973600Y-103712000D01*
X124919813Y-103719332D01*
X124905866Y-103779733D01*
X124786585Y-103779733D01*
X124786648Y-103777660D01*
X124774215Y-103497505D01*
X124735924Y-103332012D01*
X124716819Y-103280718D01*
X124720763Y-103271733D01*
X124905866Y-103271733D01*
X124920757Y-103283892D01*
X124973600Y-103278563D01*
X125041333Y-103271733D01*
X125057228Y-103241173D01*
X124973600Y-103204000D01*
X124919813Y-103211332D01*
X124905866Y-103271733D01*
X124720763Y-103271733D01*
X124773676Y-103151175D01*
X124813138Y-103109747D01*
X124798646Y-102966354D01*
X124743029Y-102808899D01*
X124738521Y-102763733D01*
X124905866Y-102763733D01*
X124920757Y-102775892D01*
X124973600Y-102770563D01*
X125041333Y-102763733D01*
X125057228Y-102733173D01*
X124973600Y-102696000D01*
X124919813Y-102703332D01*
X124905866Y-102763733D01*
X124738521Y-102763733D01*
X124717513Y-102553235D01*
X124723124Y-102440246D01*
X124791685Y-102289941D01*
X124973600Y-102247979D01*
G37*
G36*
X128580400Y-121554625D02*
G01*
X128608365Y-121368714D01*
X128625805Y-120995573D01*
X128631200Y-120438645D01*
X128630893Y-120227091D01*
X128625374Y-119758593D01*
X128609412Y-119447627D01*
X128578461Y-119260566D01*
X128527972Y-119163778D01*
X128453400Y-119123635D01*
X128424582Y-119115768D01*
X128366691Y-119082643D01*
X128504200Y-119065385D01*
X128588526Y-119065616D01*
X128669010Y-119103832D01*
X128712166Y-119223250D01*
X128729570Y-119464531D01*
X128732800Y-119868335D01*
X128732800Y-120683071D01*
X129012200Y-120627998D01*
X129165950Y-120599614D01*
X129204306Y-120606615D01*
X129063000Y-120673589D01*
X128922873Y-120767950D01*
X128852176Y-120937827D01*
X128834400Y-121244100D01*
X128871526Y-121609573D01*
X129039022Y-121974085D01*
X129175347Y-122175786D01*
X129192400Y-122273482D01*
X129089247Y-122230230D01*
X128887317Y-122037122D01*
X128825560Y-121971638D01*
X128684687Y-121860040D01*
X128640145Y-121898400D01*
X128647493Y-122044361D01*
X128607894Y-122243705D01*
X128477280Y-122380108D01*
X128227677Y-122466615D01*
X127831108Y-122516270D01*
X127259600Y-122542116D01*
X126650000Y-122558800D01*
X126646315Y-120882400D01*
X126642631Y-119206000D01*
X126705713Y-122508000D01*
X127256060Y-122508000D01*
X127475682Y-122499909D01*
X127740161Y-122463026D01*
X127869200Y-122406400D01*
X127992165Y-122336776D01*
X128224408Y-122304800D01*
X128273038Y-122304542D01*
X128435827Y-122281107D01*
X128484623Y-122177194D01*
X128470071Y-122050800D01*
X128529600Y-122050800D01*
X128580400Y-122101600D01*
X128631200Y-122050800D01*
X128580400Y-122000000D01*
X128529600Y-122050800D01*
X128470071Y-122050800D01*
X128456555Y-121933403D01*
X128440282Y-121818467D01*
X128442901Y-121644264D01*
X128513743Y-121634599D01*
X128529827Y-121640273D01*
X128577000Y-121577228D01*
X128580400Y-121554625D01*
G37*
G36*
X134371600Y-122330751D02*
G01*
X134473200Y-122304800D01*
X134640252Y-122279575D01*
X134727200Y-122203200D01*
X134723139Y-122175552D01*
X134619956Y-122101600D01*
X134614509Y-122101228D01*
X134553988Y-122002560D01*
X134554479Y-121771400D01*
X134558593Y-121742506D01*
X134622797Y-121536960D01*
X134712522Y-121466600D01*
X134764035Y-121463182D01*
X134828800Y-121351131D01*
X134741130Y-121238613D01*
X134524000Y-121165527D01*
X134521574Y-121165174D01*
X134306279Y-121164328D01*
X134219200Y-121226567D01*
X134179329Y-121255559D01*
X134054778Y-121167921D01*
X133964831Y-121054121D01*
X133944348Y-120905412D01*
X134068465Y-120850470D01*
X134302393Y-120923617D01*
X134534555Y-121037236D01*
X134766516Y-121130581D01*
X134844278Y-121165381D01*
X134910333Y-121261091D01*
X134926455Y-121455151D01*
X134903150Y-121798951D01*
X134888140Y-122075671D01*
X134899745Y-122314656D01*
X134940034Y-122406400D01*
X134966590Y-122425634D01*
X135013448Y-122586090D01*
X135032000Y-122856203D01*
X135031553Y-122918345D01*
X135001093Y-123195030D01*
X134890150Y-123397818D01*
X134653251Y-123618203D01*
X134572108Y-123683984D01*
X134376507Y-123818551D01*
X134178997Y-123890180D01*
X133912577Y-123916208D01*
X133510251Y-123913972D01*
X132746000Y-123897544D01*
X133457200Y-123836462D01*
X133819781Y-123797145D01*
X134202166Y-123714559D01*
X134430452Y-123585135D01*
X134533580Y-123389410D01*
X134540490Y-123107922D01*
X134534523Y-123022964D01*
X134545152Y-122800431D01*
X134594527Y-122711200D01*
X134611074Y-122718013D01*
X134650058Y-122848378D01*
X134644945Y-123092200D01*
X134636841Y-123195636D01*
X134654509Y-123362587D01*
X134713727Y-123362531D01*
X134791751Y-123212299D01*
X134865840Y-122928722D01*
X134878702Y-122859181D01*
X134894302Y-122670878D01*
X134809838Y-122611560D01*
X134574475Y-122628920D01*
X134404833Y-122642025D01*
X134256765Y-122608115D01*
X134219200Y-122487598D01*
X134230846Y-122457200D01*
X134320800Y-122457200D01*
X134371600Y-122508000D01*
X134422400Y-122457200D01*
X134371600Y-122406400D01*
X134320800Y-122457200D01*
X134230846Y-122457200D01*
X134269279Y-122356887D01*
X134371600Y-122330751D01*
G37*
G36*
X128055466Y-101325725D02*
G01*
X128550561Y-101343535D01*
X128563466Y-101343959D01*
X128675574Y-101347642D01*
X128766666Y-101350635D01*
X129308899Y-101368451D01*
X130002800Y-101389660D01*
X130139775Y-101393847D01*
X130993869Y-101418181D01*
X131821862Y-101439911D01*
X132322657Y-101452005D01*
X133039654Y-101466887D01*
X133585827Y-101473644D01*
X133863600Y-101472281D01*
X133981606Y-101471702D01*
X134247419Y-101460484D01*
X134403696Y-101439418D01*
X134470866Y-101407928D01*
X134469359Y-101365440D01*
X134448519Y-101329936D01*
X134434817Y-101274707D01*
X134549808Y-101357684D01*
X134556614Y-101362898D01*
X134768945Y-101436469D01*
X135168774Y-101482286D01*
X135763111Y-101501179D01*
X136101791Y-101508074D01*
X136410567Y-101525717D01*
X136571133Y-101550853D01*
X136556000Y-101580724D01*
X136334536Y-101614232D01*
X136022600Y-101602329D01*
X135886864Y-101585059D01*
X135768518Y-101632745D01*
X135743200Y-101821635D01*
X135748877Y-101945380D01*
X135814524Y-102047316D01*
X136005385Y-102024467D01*
X136112066Y-102000043D01*
X136214888Y-102011435D01*
X136238988Y-102130305D01*
X136209626Y-102403531D01*
X136173931Y-102724346D01*
X136133641Y-103161195D01*
X136098572Y-103610400D01*
X136093454Y-103682151D01*
X136056639Y-104146183D01*
X136002278Y-104766648D01*
X135929513Y-105552664D01*
X135837487Y-106513349D01*
X135725343Y-107657821D01*
X135592223Y-108995200D01*
X135586759Y-109049861D01*
X135529005Y-109635694D01*
X135458882Y-110358147D01*
X135382068Y-111158138D01*
X135304237Y-111976583D01*
X135231068Y-112754400D01*
X135198593Y-113094456D01*
X135134582Y-113723813D01*
X135074012Y-114269112D01*
X135020440Y-114700758D01*
X134977424Y-114989160D01*
X134948522Y-115104724D01*
X134899795Y-115112367D01*
X134669838Y-115120025D01*
X134271148Y-115122357D01*
X133724830Y-115119568D01*
X133051991Y-115111864D01*
X132273735Y-115099449D01*
X131411170Y-115082530D01*
X130485400Y-115061311D01*
X126091199Y-114953572D01*
X126091199Y-113922800D01*
X126396000Y-113922800D01*
X126446800Y-113973600D01*
X126497600Y-113922800D01*
X126446800Y-113872000D01*
X126396000Y-113922800D01*
X126091199Y-113922800D01*
X126091199Y-113821200D01*
X133812800Y-113821200D01*
X133863600Y-113872000D01*
X133914400Y-113821200D01*
X133863600Y-113770400D01*
X133812800Y-113821200D01*
X126091199Y-113821200D01*
X126091200Y-109551957D01*
X128551307Y-109551957D01*
X128563466Y-109672533D01*
X128594026Y-109688428D01*
X128631200Y-109604800D01*
X128623867Y-109551013D01*
X128563466Y-109537066D01*
X128551307Y-109551957D01*
X126091200Y-109551957D01*
X126091200Y-108098518D01*
X126091200Y-106071793D01*
X128642502Y-106071793D01*
X128658947Y-106432485D01*
X128667276Y-106493819D01*
X128683214Y-106492136D01*
X128694109Y-106319471D01*
X128697970Y-105998000D01*
X128696869Y-105830227D01*
X128689100Y-105588378D01*
X128675574Y-105511893D01*
X128658276Y-105619685D01*
X128653684Y-105677321D01*
X128642502Y-106071793D01*
X126091200Y-106071793D01*
X126091200Y-104067600D01*
X126396000Y-104067600D01*
X126446800Y-104118400D01*
X126497600Y-104067600D01*
X126446800Y-104016800D01*
X126396000Y-104067600D01*
X126091200Y-104067600D01*
X126091200Y-103151157D01*
X128754507Y-103151157D01*
X128766666Y-103271733D01*
X128797226Y-103287628D01*
X128834400Y-103204000D01*
X128827067Y-103150213D01*
X128766666Y-103136266D01*
X128754507Y-103151157D01*
X126091200Y-103151157D01*
X126091200Y-102846357D01*
X128043307Y-102846357D01*
X128055466Y-102966933D01*
X128086026Y-102982828D01*
X128100619Y-102950000D01*
X129952000Y-102950000D01*
X130002800Y-103000800D01*
X130053600Y-102950000D01*
X130002800Y-102899200D01*
X129952000Y-102950000D01*
X128100619Y-102950000D01*
X128123200Y-102899200D01*
X128115867Y-102845413D01*
X128055466Y-102831466D01*
X128043307Y-102846357D01*
X126091200Y-102846357D01*
X126091200Y-101243464D01*
X126446800Y-101258683D01*
X127589800Y-101307603D01*
X127914077Y-101320639D01*
X128055466Y-101325725D01*
G37*
G36*
X141089192Y-97572342D02*
G01*
X141162586Y-97585348D01*
X141284984Y-97588834D01*
X141228634Y-97529438D01*
X141227640Y-97528817D01*
X141077888Y-97494335D01*
X140760236Y-97458201D01*
X140309280Y-97423116D01*
X139759614Y-97391779D01*
X139145834Y-97366891D01*
X137597477Y-97315333D01*
X135039175Y-97225811D01*
X132616703Y-97135138D01*
X130287282Y-97041687D01*
X128008131Y-96943834D01*
X127591074Y-96925591D01*
X126642057Y-96886700D01*
X125872956Y-96859890D01*
X125267232Y-96844976D01*
X124808346Y-96841773D01*
X124479760Y-96850096D01*
X124264935Y-96869758D01*
X124147331Y-96900576D01*
X123906800Y-97017873D01*
X124154591Y-96802510D01*
X124203151Y-96752103D01*
X124372097Y-96490608D01*
X124550395Y-96119734D01*
X124711104Y-95706412D01*
X124827286Y-95317572D01*
X124871999Y-95020144D01*
X124901646Y-94868615D01*
X125039576Y-94656640D01*
X125117294Y-94608994D01*
X125371356Y-94502738D01*
X125722216Y-94384760D01*
X126112320Y-94271287D01*
X126484112Y-94178543D01*
X126780036Y-94122757D01*
X126942537Y-94120153D01*
X127042521Y-94217403D01*
X127228023Y-94449676D01*
X127472339Y-94782049D01*
X127748940Y-95179664D01*
X128039460Y-95605053D01*
X128247759Y-95891716D01*
X128403596Y-96066264D01*
X128537745Y-96156813D01*
X128680984Y-96191477D01*
X128864088Y-96198372D01*
X128870885Y-96198455D01*
X129114079Y-96204678D01*
X129518581Y-96218386D01*
X130044571Y-96238091D01*
X130652233Y-96262302D01*
X131301746Y-96289532D01*
X131377973Y-96292768D01*
X132001411Y-96316166D01*
X132559491Y-96331916D01*
X133017813Y-96339427D01*
X133341979Y-96338106D01*
X133497590Y-96327360D01*
X133587261Y-96277818D01*
X133655606Y-96146321D01*
X133701928Y-95894440D01*
X133737986Y-95480771D01*
X133744169Y-95395442D01*
X133780174Y-95014907D01*
X133821156Y-94722169D01*
X133859398Y-94574797D01*
X133899348Y-94554324D01*
X134106983Y-94525749D01*
X134494029Y-94507893D01*
X135066369Y-94500640D01*
X135829883Y-94503875D01*
X136790456Y-94517483D01*
X139654800Y-94568115D01*
X140018357Y-94863950D01*
X140116500Y-94952855D01*
X140341540Y-95231628D01*
X140580908Y-95639672D01*
X140855181Y-96210092D01*
X141033300Y-96588816D01*
X141210853Y-96931240D01*
X141348835Y-97159174D01*
X141427090Y-97236444D01*
X141467007Y-97249741D01*
X141543413Y-97391793D01*
X141600646Y-97626553D01*
X141623689Y-97879900D01*
X141597527Y-98077711D01*
X141578606Y-98155770D01*
X141624197Y-98182094D01*
X141638438Y-98175217D01*
X141717152Y-98234647D01*
X141762587Y-98454511D01*
X141773353Y-98799675D01*
X141748057Y-99235007D01*
X141685309Y-99725372D01*
X141616799Y-100225855D01*
X141604270Y-100539031D01*
X141647576Y-100671154D01*
X141715281Y-100766644D01*
X141732779Y-100791323D01*
X141857882Y-101048410D01*
X141994894Y-101385785D01*
X142106203Y-101730100D01*
X142181514Y-102065511D01*
X142194060Y-102289600D01*
X142130360Y-102663387D01*
X141979447Y-103547929D01*
X141857920Y-104258326D01*
X141762469Y-104813721D01*
X141689784Y-105233260D01*
X141636553Y-105536089D01*
X141599466Y-105741352D01*
X141575211Y-105868197D01*
X141519485Y-106144794D01*
X141248581Y-105893597D01*
X141131302Y-105788582D01*
X140946984Y-105664497D01*
X140840648Y-105692561D01*
X140775136Y-105871000D01*
X140750150Y-106018189D01*
X140700644Y-106344569D01*
X140630129Y-106825619D01*
X140541888Y-107437793D01*
X140439207Y-108157546D01*
X140325369Y-108961332D01*
X140203661Y-109825607D01*
X140077366Y-110726824D01*
X139949769Y-111641438D01*
X139824155Y-112545904D01*
X139703809Y-113416676D01*
X139592014Y-114230210D01*
X139492056Y-114962958D01*
X139407220Y-115591377D01*
X139340790Y-116091921D01*
X139296050Y-116441043D01*
X139276286Y-116615200D01*
X139270979Y-116707685D01*
X139294318Y-116901894D01*
X139340782Y-116920977D01*
X139389116Y-116940827D01*
X139459678Y-116950281D01*
X139493958Y-117069934D01*
X139469802Y-117347227D01*
X139453463Y-117487034D01*
X139453185Y-117624505D01*
X139478109Y-117597736D01*
X139490198Y-117584752D01*
X139501624Y-117561059D01*
X139549713Y-117573148D01*
X139594800Y-117779054D01*
X139638043Y-118183468D01*
X139654481Y-118441464D01*
X139652197Y-118946680D01*
X139600904Y-119513735D01*
X139495944Y-120209035D01*
X139491142Y-120237147D01*
X139409003Y-120706609D01*
X139337686Y-121094259D01*
X139284693Y-121360552D01*
X139257523Y-121465942D01*
X139252357Y-121467836D01*
X139144407Y-121415371D01*
X138953759Y-121278639D01*
X138922139Y-121254513D01*
X138727964Y-121139492D01*
X138614184Y-121127148D01*
X138579897Y-121238831D01*
X138530026Y-121513154D01*
X138472566Y-121906655D01*
X138414306Y-122376893D01*
X138361061Y-122829531D01*
X138312387Y-123216108D01*
X138275252Y-123481803D01*
X138254998Y-123586068D01*
X138151519Y-123602251D01*
X137899371Y-123621916D01*
X137553865Y-123640616D01*
X137545235Y-123641010D01*
X137215098Y-123667271D01*
X136992652Y-123706339D01*
X136925635Y-123749909D01*
X136942362Y-123785990D01*
X136901304Y-123829840D01*
X136772818Y-123788124D01*
X136621314Y-123676400D01*
X136462246Y-123586792D01*
X136657600Y-123586792D01*
X136664215Y-123600689D01*
X136759200Y-123574800D01*
X136789275Y-123553926D01*
X136860800Y-123461207D01*
X136854184Y-123447310D01*
X136759200Y-123473200D01*
X136729124Y-123494073D01*
X136657600Y-123586792D01*
X136462246Y-123586792D01*
X136448799Y-123579217D01*
X136182257Y-123537836D01*
X136051985Y-123545944D01*
X135994518Y-123563741D01*
X136124200Y-123595702D01*
X136266711Y-123643905D01*
X136352800Y-123734266D01*
X136351667Y-123750026D01*
X136264830Y-123824192D01*
X136092682Y-123796386D01*
X135910114Y-123676400D01*
X135827048Y-123608050D01*
X135550526Y-123533193D01*
X135199387Y-123631387D01*
X134761738Y-123905000D01*
X134251578Y-124286000D01*
X130247589Y-124206164D01*
X126243600Y-124126329D01*
X125303800Y-123673432D01*
X124364000Y-123220534D01*
X124362505Y-122788067D01*
X124361549Y-122698716D01*
X124357485Y-122407672D01*
X124350429Y-121935586D01*
X124340589Y-121295437D01*
X124328171Y-120500204D01*
X124313381Y-119562866D01*
X124296426Y-118496402D01*
X124277513Y-117313792D01*
X124256848Y-116028013D01*
X124234637Y-114652046D01*
X124211088Y-113198868D01*
X124186407Y-111681460D01*
X124160800Y-110112800D01*
X124159635Y-110041607D01*
X124128667Y-108149282D01*
X124100836Y-106449524D01*
X124076022Y-104932095D01*
X124054101Y-103586752D01*
X124034952Y-102403256D01*
X124018452Y-101371367D01*
X124004479Y-100480843D01*
X123992911Y-99721445D01*
X123983626Y-99082932D01*
X123976501Y-98555064D01*
X123971414Y-98127600D01*
X123968244Y-97790300D01*
X123966867Y-97532923D01*
X123967162Y-97345228D01*
X123969006Y-97216977D01*
X123972277Y-97137927D01*
X123976853Y-97097839D01*
X123982612Y-97086473D01*
X123989431Y-97093587D01*
X123997189Y-97108942D01*
X124005763Y-97122296D01*
X124006609Y-97124966D01*
X124014575Y-97257134D01*
X124025378Y-97578759D01*
X124038779Y-98077756D01*
X124054539Y-98742039D01*
X124072421Y-99559523D01*
X124092185Y-100518123D01*
X124113593Y-101605754D01*
X124136407Y-102810330D01*
X124160387Y-104119766D01*
X124185296Y-105521977D01*
X124210895Y-107004878D01*
X124236944Y-108556383D01*
X124263207Y-110164407D01*
X124266845Y-110390106D01*
X124292830Y-111990329D01*
X124318186Y-113531960D01*
X124342701Y-115002952D01*
X124366160Y-116391255D01*
X124388349Y-117684820D01*
X124409054Y-118871600D01*
X124428060Y-119939545D01*
X124445154Y-120876606D01*
X124460121Y-121670736D01*
X124472748Y-122309886D01*
X124482820Y-122782007D01*
X124490123Y-123075050D01*
X124494443Y-123176966D01*
X124526101Y-123194682D01*
X124702445Y-123285868D01*
X124997014Y-123435287D01*
X125368662Y-123621994D01*
X126220925Y-124048409D01*
X127814311Y-124018956D01*
X129407698Y-123989503D01*
X129376936Y-123731351D01*
X129346175Y-123473200D01*
X129424951Y-123727200D01*
X129473087Y-123831032D01*
X129571097Y-123924485D01*
X129737119Y-123995761D01*
X129993677Y-124047906D01*
X130363297Y-124083964D01*
X130868504Y-124106981D01*
X131531823Y-124120001D01*
X132375779Y-124126069D01*
X134342358Y-124133600D01*
X134763379Y-123804861D01*
X134915867Y-123684357D01*
X135163099Y-123482780D01*
X135318657Y-123347661D01*
X135447125Y-123278997D01*
X135688834Y-123230236D01*
X135952338Y-123223251D01*
X136164254Y-123258822D01*
X136251200Y-123337733D01*
X136256550Y-123378636D01*
X136318310Y-123389156D01*
X136325371Y-123306102D01*
X136229626Y-123143622D01*
X136211996Y-123117600D01*
X136454400Y-123117600D01*
X136471593Y-123164338D01*
X136606800Y-123219200D01*
X136676908Y-123207737D01*
X136722746Y-123157529D01*
X136860800Y-123157529D01*
X136879518Y-123183827D01*
X137013200Y-123255941D01*
X137091126Y-123271913D01*
X137165600Y-123216011D01*
X137148431Y-123170770D01*
X137013200Y-123117600D01*
X136943764Y-123122013D01*
X136860800Y-123157529D01*
X136722746Y-123157529D01*
X136759200Y-123117600D01*
X136742006Y-123070861D01*
X136713999Y-123059497D01*
X137318103Y-123059497D01*
X137404991Y-123096681D01*
X137518765Y-123102900D01*
X137692095Y-123038144D01*
X137694780Y-123035408D01*
X137689772Y-122979839D01*
X137503503Y-122998169D01*
X137419895Y-123016667D01*
X137318103Y-123059497D01*
X136713999Y-123059497D01*
X136606800Y-123016000D01*
X136536691Y-123027462D01*
X136454400Y-123117600D01*
X136211996Y-123117600D01*
X136188019Y-123082211D01*
X136087696Y-122822483D01*
X136057426Y-122667502D01*
X136443263Y-122667502D01*
X136455609Y-122753049D01*
X136520285Y-122794193D01*
X136606800Y-122761564D01*
X136672746Y-122736693D01*
X136680072Y-122729242D01*
X136715419Y-122647582D01*
X136572356Y-122636303D01*
X136443263Y-122667502D01*
X136057426Y-122667502D01*
X136024349Y-122498150D01*
X136013977Y-122337753D01*
X136068367Y-122022759D01*
X136255504Y-121849673D01*
X136572356Y-121800031D01*
X136592981Y-121796800D01*
X136813483Y-121840516D01*
X136854184Y-121882305D01*
X137001189Y-122033238D01*
X137013200Y-122113422D01*
X137051339Y-122368034D01*
X137043735Y-122556208D01*
X137060546Y-122787302D01*
X137136407Y-122890161D01*
X137292600Y-122912844D01*
X137503429Y-122892526D01*
X137689772Y-122788390D01*
X137699189Y-122783127D01*
X137798435Y-122547125D01*
X137826000Y-122148959D01*
X137812522Y-121818228D01*
X137757714Y-121595650D01*
X137648200Y-121479804D01*
X137517595Y-121340734D01*
X137468323Y-121138332D01*
X137515497Y-120959440D01*
X137657853Y-120882400D01*
X137834660Y-120824620D01*
X138038853Y-120661735D01*
X138049660Y-120649305D01*
X138141457Y-120523755D01*
X138111930Y-120511295D01*
X138072294Y-120527718D01*
X138038410Y-120468712D01*
X138086530Y-120250031D01*
X138109252Y-120166392D01*
X138116668Y-120118357D01*
X138203307Y-120118357D01*
X138215466Y-120238933D01*
X138246026Y-120254828D01*
X138283200Y-120171200D01*
X138275867Y-120117413D01*
X138215466Y-120103466D01*
X138203307Y-120118357D01*
X138116668Y-120118357D01*
X138181206Y-119700348D01*
X138136637Y-119345583D01*
X137978399Y-119131621D01*
X137853941Y-119004647D01*
X137775199Y-118724360D01*
X137774925Y-118698289D01*
X137727887Y-118500043D01*
X137577996Y-118444000D01*
X137461388Y-118428050D01*
X137319285Y-118344480D01*
X137250078Y-118303398D01*
X137061825Y-118367336D01*
X137021220Y-118390799D01*
X136831151Y-118422544D01*
X136708590Y-118273534D01*
X136646050Y-117936000D01*
X136643957Y-117912338D01*
X136628556Y-117826006D01*
X136877363Y-117826006D01*
X136950910Y-117942601D01*
X137097819Y-118019649D01*
X137202350Y-118010677D01*
X137259178Y-117867249D01*
X137244152Y-117778216D01*
X137199912Y-117809000D01*
X137173515Y-117856494D01*
X137049537Y-117936000D01*
X137016427Y-117928233D01*
X137013200Y-117834400D01*
X137028475Y-117794544D01*
X136959929Y-117732800D01*
X136911638Y-117741552D01*
X136877363Y-117826006D01*
X136628556Y-117826006D01*
X136594677Y-117636088D01*
X136520812Y-117450224D01*
X136503886Y-117377200D01*
X136657600Y-117377200D01*
X136708400Y-117428000D01*
X136759200Y-117377200D01*
X136708400Y-117326400D01*
X136657600Y-117377200D01*
X136503886Y-117377200D01*
X136493946Y-117334316D01*
X136536905Y-117275600D01*
X136860800Y-117275600D01*
X136911600Y-117326400D01*
X136959929Y-117278071D01*
X136962400Y-117275600D01*
X136911600Y-117224800D01*
X136860800Y-117275600D01*
X136536905Y-117275600D01*
X136602204Y-117186350D01*
X136708400Y-117133079D01*
X136829598Y-117072283D01*
X136911600Y-117059301D01*
X137129329Y-117024831D01*
X137313762Y-117042947D01*
X137488465Y-117156187D01*
X137570295Y-117400920D01*
X137577456Y-117809000D01*
X137572222Y-117937735D01*
X137585499Y-118143821D01*
X137664411Y-118226499D01*
X137843726Y-118242355D01*
X137925482Y-118244301D01*
X138042785Y-118271026D01*
X137981342Y-118338431D01*
X137910401Y-118397758D01*
X137888853Y-118489920D01*
X137980614Y-118481350D01*
X138148332Y-118368444D01*
X138148868Y-118367970D01*
X138215466Y-118275778D01*
X138296827Y-118163150D01*
X138423438Y-117864271D01*
X138510347Y-117539787D01*
X138539203Y-117258151D01*
X138491656Y-117087816D01*
X138440311Y-117013827D01*
X138384800Y-116798079D01*
X138360127Y-116698625D01*
X138232400Y-116615200D01*
X138157702Y-116564400D01*
X138486400Y-116564400D01*
X138537200Y-116615200D01*
X138588000Y-116564400D01*
X138537200Y-116513600D01*
X138486400Y-116564400D01*
X138157702Y-116564400D01*
X138118532Y-116537762D01*
X138080000Y-116285000D01*
X138077490Y-116152480D01*
X138038191Y-116015606D01*
X137906841Y-115963238D01*
X137627879Y-115954800D01*
X137506627Y-115951281D01*
X137231949Y-115915370D01*
X137077396Y-115854012D01*
X137410560Y-115854012D01*
X137515203Y-115904000D01*
X137566500Y-115902012D01*
X137669109Y-115854019D01*
X137579020Y-115755938D01*
X137542386Y-115742132D01*
X137420624Y-115800742D01*
X137410560Y-115854012D01*
X137077396Y-115854012D01*
X137075351Y-115853200D01*
X137025379Y-115781502D01*
X136945472Y-115520032D01*
X136932777Y-115319800D01*
X137191000Y-115319800D01*
X137216245Y-115366680D01*
X137368800Y-115446800D01*
X137422875Y-115436800D01*
X137530513Y-115317260D01*
X137536749Y-115268686D01*
X137505113Y-115291860D01*
X137487915Y-115319398D01*
X137354337Y-115396000D01*
X137321227Y-115388233D01*
X137318000Y-115294400D01*
X137333275Y-115254544D01*
X137264729Y-115192800D01*
X137219239Y-115205041D01*
X137191000Y-115319800D01*
X136932777Y-115319800D01*
X136925991Y-115212768D01*
X136978588Y-114966486D01*
X136980341Y-114963060D01*
X137016893Y-114839976D01*
X136913950Y-114850356D01*
X136825698Y-114871074D01*
X136762492Y-114819496D01*
X136819265Y-114692398D01*
X136985006Y-114538161D01*
X137196115Y-114421028D01*
X137264729Y-114411294D01*
X137505036Y-114377204D01*
X137542386Y-114397567D01*
X137742484Y-114506657D01*
X137885574Y-114792588D01*
X137911423Y-115218200D01*
X137896263Y-115431061D01*
X137907958Y-115617306D01*
X137984812Y-115691804D01*
X138153610Y-115708821D01*
X138160499Y-115709033D01*
X138316698Y-115730022D01*
X138308600Y-115768087D01*
X138207877Y-115834992D01*
X138202525Y-115933890D01*
X138354058Y-115962308D01*
X138376663Y-115954800D01*
X138689600Y-115954800D01*
X138740400Y-116005600D01*
X138791200Y-115954800D01*
X138740400Y-115904000D01*
X138689600Y-115954800D01*
X138376663Y-115954800D01*
X138428396Y-115937617D01*
X138537200Y-115830927D01*
X138617566Y-115752122D01*
X138740400Y-115504328D01*
X138775923Y-115432667D01*
X138882728Y-115029658D01*
X138917245Y-114593498D01*
X138915818Y-114500407D01*
X138922158Y-114235941D01*
X138952168Y-114146857D01*
X139011212Y-114211342D01*
X139030555Y-114255732D01*
X139071480Y-114508227D01*
X139059616Y-114820942D01*
X139032363Y-115025469D01*
X138980635Y-115416293D01*
X138917003Y-115898854D01*
X138849540Y-116412000D01*
X138836942Y-116507769D01*
X138760236Y-117085402D01*
X138668288Y-117771018D01*
X138571560Y-118486867D01*
X138480509Y-119155200D01*
X138448570Y-119391107D01*
X138370372Y-119990892D01*
X138301162Y-120551588D01*
X138247486Y-121019167D01*
X138215888Y-121339600D01*
X138182573Y-121676307D01*
X138119194Y-122182812D01*
X138047268Y-122660400D01*
X137927600Y-123371600D01*
X136911600Y-123492076D01*
X137546600Y-123508038D01*
X137556059Y-123508274D01*
X137899931Y-123510900D01*
X138089561Y-123486685D01*
X138172585Y-123420046D01*
X138196642Y-123295400D01*
X138205904Y-123160418D01*
X138226951Y-122910954D01*
X138257708Y-122638511D01*
X138307671Y-122254000D01*
X138330254Y-122081939D01*
X138378685Y-121707910D01*
X138445002Y-121192627D01*
X138468059Y-121012838D01*
X139110858Y-121012838D01*
X139130956Y-121214533D01*
X139135005Y-121223591D01*
X139166811Y-121208314D01*
X139177793Y-121034800D01*
X139177123Y-121003249D01*
X139159533Y-120868301D01*
X139127192Y-120909733D01*
X139110858Y-121012838D01*
X138468059Y-121012838D01*
X138478272Y-120933200D01*
X138588000Y-120933200D01*
X138638800Y-120984000D01*
X138689600Y-120933200D01*
X138638800Y-120882400D01*
X138588000Y-120933200D01*
X138478272Y-120933200D01*
X138524856Y-120569958D01*
X138541438Y-120440309D01*
X139201735Y-120440309D01*
X139206276Y-120627520D01*
X139235889Y-120670733D01*
X139237096Y-120669092D01*
X139264188Y-120544173D01*
X139297883Y-120275085D01*
X139331180Y-119917200D01*
X139351372Y-119643364D01*
X139357951Y-119453019D01*
X139340782Y-119446201D01*
X139298746Y-119612400D01*
X139254281Y-119862676D01*
X139218869Y-120166295D01*
X139201735Y-120440309D01*
X138541438Y-120440309D01*
X138613900Y-119873771D01*
X138638800Y-119678612D01*
X138707784Y-119137934D01*
X138727024Y-118991702D01*
X139416762Y-118991702D01*
X139441016Y-119127683D01*
X139475699Y-119126110D01*
X139494378Y-118994333D01*
X139478109Y-118894465D01*
X139432995Y-118932950D01*
X139416762Y-118991702D01*
X138727024Y-118991702D01*
X138786108Y-118542641D01*
X138878969Y-117887205D01*
X138964034Y-117340780D01*
X139037425Y-116926577D01*
X139095266Y-116667809D01*
X139133681Y-116587688D01*
X139159533Y-116570647D01*
X139181331Y-116556279D01*
X139160395Y-116379198D01*
X139155457Y-116357759D01*
X139131729Y-116122089D01*
X139136204Y-115827581D01*
X139143060Y-115749557D01*
X139219307Y-115749557D01*
X139231466Y-115870133D01*
X139262026Y-115886028D01*
X139299200Y-115802400D01*
X139291867Y-115748613D01*
X139231466Y-115734666D01*
X139219307Y-115749557D01*
X139143060Y-115749557D01*
X139162648Y-115526639D01*
X139204827Y-115271665D01*
X139231466Y-115190946D01*
X139256509Y-115115064D01*
X139311459Y-115109237D01*
X139342084Y-115110657D01*
X139352871Y-114962004D01*
X139331999Y-114684800D01*
X139296926Y-114469095D01*
X139254640Y-114318102D01*
X139416762Y-114318102D01*
X139441016Y-114454083D01*
X139475699Y-114452510D01*
X139494378Y-114320733D01*
X139478109Y-114220865D01*
X139432995Y-114259350D01*
X139416762Y-114318102D01*
X139254640Y-114318102D01*
X139200389Y-114124384D01*
X139082830Y-113886541D01*
X139053212Y-113847087D01*
X138956036Y-113639813D01*
X138958549Y-113629992D01*
X138994400Y-113629992D01*
X139001015Y-113643889D01*
X139096000Y-113618000D01*
X139111990Y-113606902D01*
X139518362Y-113606902D01*
X139542616Y-113742883D01*
X139577299Y-113741310D01*
X139595978Y-113609533D01*
X139579709Y-113509665D01*
X139534595Y-113548150D01*
X139518362Y-113606902D01*
X139111990Y-113606902D01*
X139126075Y-113597126D01*
X139197600Y-113504407D01*
X139190984Y-113490510D01*
X139096000Y-113516400D01*
X139065924Y-113537273D01*
X138994400Y-113629992D01*
X138958549Y-113629992D01*
X139006304Y-113443356D01*
X139061619Y-113276467D01*
X139069080Y-112997659D01*
X139070582Y-112821635D01*
X139078810Y-112805200D01*
X139096000Y-112805200D01*
X139146800Y-112856000D01*
X139190984Y-112811816D01*
X139197600Y-112805200D01*
X139167389Y-112774989D01*
X139624893Y-112774989D01*
X139638312Y-112983000D01*
X139673591Y-113000234D01*
X139689557Y-112856000D01*
X139675395Y-112716236D01*
X139638312Y-112729000D01*
X139624893Y-112774989D01*
X139167389Y-112774989D01*
X139146800Y-112754400D01*
X139096000Y-112805200D01*
X139078810Y-112805200D01*
X139146800Y-112669392D01*
X139161012Y-112641004D01*
X139227322Y-112567797D01*
X139299200Y-112379102D01*
X139299720Y-112367215D01*
X139369921Y-112192870D01*
X139478109Y-112057114D01*
X139507731Y-112019944D01*
X139579709Y-111977464D01*
X139640476Y-111941600D01*
X139674465Y-111969051D01*
X139675395Y-111971329D01*
X139735858Y-112119400D01*
X139748755Y-112152564D01*
X139754477Y-112070293D01*
X139738733Y-111840000D01*
X139728477Y-111692645D01*
X139738006Y-111511591D01*
X139788214Y-111517258D01*
X139812811Y-111526569D01*
X139864938Y-111419814D01*
X139916129Y-111194300D01*
X139958921Y-110905729D01*
X139985848Y-110609802D01*
X139989444Y-110362219D01*
X139962246Y-110218682D01*
X139950500Y-110190317D01*
X140009566Y-110096077D01*
X140064465Y-109985076D01*
X140110321Y-109726792D01*
X140137199Y-109377148D01*
X140137429Y-109371085D01*
X140162428Y-109028790D01*
X140202870Y-108784716D01*
X140250115Y-108691348D01*
X140261659Y-108687902D01*
X140301559Y-108569928D01*
X140296104Y-108336403D01*
X140291497Y-108292642D01*
X140286472Y-108063171D01*
X140317878Y-107955403D01*
X140340376Y-107897011D01*
X140389215Y-107666620D01*
X140453674Y-107293119D01*
X140528023Y-106810311D01*
X140606534Y-106252000D01*
X140650648Y-105925365D01*
X140701217Y-105554620D01*
X141028214Y-105554620D01*
X141115040Y-105673697D01*
X141229324Y-105771352D01*
X141383467Y-105839461D01*
X141494946Y-105842345D01*
X141495917Y-105763930D01*
X141487409Y-105739096D01*
X141487078Y-105554422D01*
X141527800Y-105281330D01*
X141569358Y-105055763D01*
X141634749Y-104663763D01*
X141711157Y-104179709D01*
X141789287Y-103661200D01*
X141789800Y-103657708D01*
X141866171Y-103177838D01*
X141941838Y-102770545D01*
X142008088Y-102478777D01*
X142056208Y-102345480D01*
X142121474Y-102229814D01*
X142137535Y-102062992D01*
X142067800Y-101977026D01*
X142007841Y-101968873D01*
X141814203Y-101935275D01*
X141715281Y-101929752D01*
X141585386Y-101984498D01*
X141566445Y-102049144D01*
X141517600Y-102289549D01*
X141449342Y-102671309D01*
X141367932Y-103158944D01*
X141279632Y-103716975D01*
X141231188Y-104035392D01*
X141152203Y-104591600D01*
X141106890Y-104989868D01*
X141093234Y-105258876D01*
X141109225Y-105427304D01*
X141152849Y-105523829D01*
X141178604Y-105556070D01*
X141226302Y-105637096D01*
X141128000Y-105591600D01*
X141080188Y-105564305D01*
X141028214Y-105554620D01*
X140701217Y-105554620D01*
X140710031Y-105490000D01*
X140823200Y-105490000D01*
X140874000Y-105540800D01*
X140924800Y-105490000D01*
X140874000Y-105439200D01*
X140823200Y-105490000D01*
X140710031Y-105490000D01*
X140735173Y-105305676D01*
X140814839Y-104728851D01*
X140874000Y-104307084D01*
X140882324Y-104247741D01*
X140930306Y-103915200D01*
X141077654Y-102903325D01*
X141196570Y-102041701D01*
X141285851Y-101340346D01*
X141344300Y-100809258D01*
X141370716Y-100458436D01*
X141363903Y-100297878D01*
X141262194Y-100165913D01*
X141166606Y-100192272D01*
X141158081Y-100361659D01*
X141168822Y-100517454D01*
X141141790Y-100780602D01*
X141084925Y-101074636D01*
X141012029Y-101341432D01*
X140936902Y-101522865D01*
X140873346Y-101560812D01*
X140868003Y-101551235D01*
X140875129Y-101406925D01*
X140934686Y-101165270D01*
X140982195Y-100942906D01*
X141018335Y-100621222D01*
X141033531Y-100290446D01*
X141024810Y-100020606D01*
X140989197Y-99881731D01*
X140986014Y-99879684D01*
X140870664Y-99905622D01*
X140660516Y-100001156D01*
X140653587Y-100004754D01*
X140415782Y-100111001D01*
X140251700Y-100155374D01*
X140185736Y-100197893D01*
X140097383Y-100397039D01*
X140034409Y-100711869D01*
X140010400Y-101089779D01*
X139987133Y-101390154D01*
X139874715Y-101628585D01*
X139636969Y-101748586D01*
X139238829Y-101781600D01*
X139007453Y-101790033D01*
X138793542Y-101823566D01*
X138735036Y-101874522D01*
X138747988Y-101907406D01*
X138685185Y-102003204D01*
X138638234Y-102064540D01*
X138575193Y-102281842D01*
X138531716Y-102594831D01*
X138508561Y-102824293D01*
X138462065Y-103232992D01*
X138396975Y-103778788D01*
X138317313Y-104428491D01*
X138227102Y-105148910D01*
X138130363Y-105906852D01*
X138037121Y-106643260D01*
X137952092Y-107339853D01*
X137879912Y-107957097D01*
X137824054Y-108464470D01*
X137787992Y-108831452D01*
X137775200Y-109027522D01*
X137776857Y-109099858D01*
X137894724Y-109659409D01*
X138175845Y-110155427D01*
X138253391Y-110254749D01*
X138268442Y-110316159D01*
X138130800Y-110276408D01*
X138011033Y-110245955D01*
X138029200Y-110300118D01*
X138116331Y-110361924D01*
X138334000Y-110454889D01*
X138415411Y-110482605D01*
X138360157Y-110481769D01*
X138188683Y-110453307D01*
X137945120Y-110404674D01*
X137673600Y-110343325D01*
X137401879Y-110231964D01*
X137287769Y-110049900D01*
X137293402Y-109919511D01*
X137319832Y-109611152D01*
X137364394Y-109150271D01*
X137424327Y-108561723D01*
X137427981Y-108526902D01*
X137587962Y-108526902D01*
X137612216Y-108662883D01*
X137646899Y-108661310D01*
X137665578Y-108529533D01*
X137649309Y-108429665D01*
X137604195Y-108468150D01*
X137587962Y-108526902D01*
X137427981Y-108526902D01*
X137496873Y-107870367D01*
X137579272Y-107101058D01*
X137649309Y-106457439D01*
X137668764Y-106278653D01*
X137762590Y-105428010D01*
X137857990Y-104573986D01*
X137952205Y-103741435D01*
X138042475Y-102955217D01*
X138126041Y-102240187D01*
X138200144Y-101621202D01*
X138205461Y-101578400D01*
X138921896Y-101578400D01*
X139301048Y-101578400D01*
X139554630Y-101560237D01*
X139679450Y-101471408D01*
X139743700Y-101260900D01*
X139786577Y-100981106D01*
X139807200Y-100695662D01*
X139795194Y-100561088D01*
X139708223Y-100477859D01*
X139484077Y-100479762D01*
X139341480Y-100500438D01*
X139207272Y-100569977D01*
X139121068Y-100733857D01*
X139041425Y-101045000D01*
X138921896Y-101578400D01*
X138205461Y-101578400D01*
X138262023Y-101123118D01*
X138308919Y-100770794D01*
X138338074Y-100589085D01*
X138362154Y-100509430D01*
X138558420Y-100262760D01*
X138929454Y-100090973D01*
X139484010Y-99989490D01*
X139708223Y-99958519D01*
X139779377Y-99948690D01*
X140019763Y-99893210D01*
X140112000Y-99839915D01*
X140084001Y-99804537D01*
X139942933Y-99820854D01*
X139842405Y-99843162D01*
X139845165Y-99800400D01*
X140213600Y-99800400D01*
X140264400Y-99851200D01*
X140315200Y-99800400D01*
X140416800Y-99800400D01*
X140467600Y-99851200D01*
X140518400Y-99800400D01*
X140485514Y-99767514D01*
X141250753Y-99767514D01*
X141287244Y-99860901D01*
X141326014Y-99932374D01*
X141396919Y-100139909D01*
X141441356Y-100291940D01*
X141503730Y-100325589D01*
X141534400Y-100185633D01*
X141543503Y-99980246D01*
X141572085Y-99686100D01*
X141574246Y-99668954D01*
X141585197Y-99514356D01*
X141564395Y-99522243D01*
X141536385Y-99571142D01*
X141426274Y-99593167D01*
X141384742Y-99592806D01*
X141400429Y-99710190D01*
X141423355Y-99824190D01*
X141332767Y-99801368D01*
X141250753Y-99767514D01*
X140485514Y-99767514D01*
X140467600Y-99749600D01*
X140416800Y-99800400D01*
X140315200Y-99800400D01*
X140264400Y-99749600D01*
X140213600Y-99800400D01*
X139845165Y-99800400D01*
X139847329Y-99766865D01*
X139868963Y-99712334D01*
X139813196Y-99648000D01*
X139783705Y-99644095D01*
X139705600Y-99546400D01*
X139744629Y-99486972D01*
X139910818Y-99444800D01*
X139968836Y-99438233D01*
X140214345Y-99354327D01*
X140264400Y-99327772D01*
X140467600Y-99219972D01*
X140496338Y-99204726D01*
X140626904Y-99130935D01*
X140904561Y-99012715D01*
X141178664Y-98932763D01*
X141402755Y-98899919D01*
X141530372Y-98923020D01*
X141515056Y-99010907D01*
X141462136Y-99102944D01*
X141570829Y-99080655D01*
X141585197Y-99071830D01*
X141655101Y-99028895D01*
X141737600Y-98875902D01*
X141695365Y-98726211D01*
X141525120Y-98494800D01*
X141290798Y-98304576D01*
X141064874Y-98225600D01*
X141046956Y-98225428D01*
X140825751Y-98173576D01*
X140791129Y-98073185D01*
X140863154Y-98073185D01*
X140963607Y-98124000D01*
X141032233Y-98114864D01*
X141178800Y-98022400D01*
X141189645Y-97971614D01*
X141089192Y-97920800D01*
X141020566Y-97929935D01*
X140874000Y-98022400D01*
X140863154Y-98073185D01*
X140791129Y-98073185D01*
X140783279Y-98050422D01*
X140931660Y-97886790D01*
X141047443Y-97800308D01*
X141082196Y-97717032D01*
X140958759Y-97624443D01*
X140875477Y-97569050D01*
X140887083Y-97541029D01*
X141077200Y-97570217D01*
X141089192Y-97572342D01*
G37*
G36*
X139853876Y-133340697D02*
G01*
X139066279Y-133340697D01*
X139066279Y-132454651D01*
X139853876Y-132454651D01*
X139853876Y-133340697D01*
G37*
G36*
X139853876Y-130879457D02*
G01*
X139066279Y-130879457D01*
X139066279Y-129993411D01*
X139853876Y-129993411D01*
X139853876Y-130879457D01*
G37*
G36*
X136390066Y-127999806D02*
G01*
X136387127Y-128025061D01*
X136363126Y-128145035D01*
X136299863Y-128219472D01*
X136157953Y-128261339D01*
X135898013Y-128283604D01*
X135480660Y-128299233D01*
X135306741Y-128303866D01*
X134920400Y-128306270D01*
X134624256Y-128297173D01*
X134471551Y-128277711D01*
X134386734Y-128185340D01*
X134340698Y-127978283D01*
X134340698Y-127729070D01*
X136421218Y-127729070D01*
X136390066Y-127999806D01*
G37*
G36*
X134314241Y-133340697D02*
G01*
X134349461Y-132848449D01*
X134832946Y-132848449D01*
X135927777Y-132848449D01*
X135897222Y-132482356D01*
X135890218Y-132414951D01*
X135804781Y-132144460D01*
X135607275Y-131971352D01*
X135462959Y-131899841D01*
X135294937Y-131886741D01*
X135090414Y-131995141D01*
X135051724Y-132021694D01*
X134880288Y-132217734D01*
X134832946Y-132506145D01*
X134832946Y-132848449D01*
X134349461Y-132848449D01*
X134363326Y-132654672D01*
X134423984Y-132172809D01*
X134551801Y-131788017D01*
X134760249Y-131533085D01*
X135067140Y-131375642D01*
X135188407Y-131340093D01*
X135460313Y-131320223D01*
X135763318Y-131412538D01*
X135913160Y-131490785D01*
X136191404Y-131776847D01*
X136354770Y-132208446D01*
X136408139Y-132796063D01*
X136408139Y-133340697D01*
X135927777Y-133340697D01*
X134314241Y-133340697D01*
G37*
G36*
X135668786Y-133833257D02*
G01*
X136028504Y-133838640D01*
X136247217Y-133857167D01*
X136360006Y-133896990D01*
X136401953Y-133966260D01*
X136408139Y-134073127D01*
X136388786Y-134216725D01*
X136284408Y-134305034D01*
X136038953Y-134343863D01*
X135988649Y-134348217D01*
X135770357Y-134389295D01*
X135675105Y-134499864D01*
X135639212Y-134743604D01*
X135608657Y-135112791D01*
X136008398Y-135112791D01*
X136103361Y-135113371D01*
X136310047Y-135135306D01*
X136392958Y-135219758D01*
X136408139Y-135408139D01*
X136408139Y-135703488D01*
X135440052Y-135703488D01*
X135175969Y-135700886D01*
X134798095Y-135686869D01*
X134524779Y-135663440D01*
X134402178Y-135633702D01*
X134367743Y-135558590D01*
X134361157Y-135362966D01*
X134399352Y-135254089D01*
X134534504Y-135170989D01*
X134813922Y-135131469D01*
X134991980Y-135116956D01*
X135162404Y-135074311D01*
X135217425Y-134964775D01*
X135207721Y-134737671D01*
X135196140Y-134616685D01*
X135148583Y-134447656D01*
X135022627Y-134374108D01*
X134759108Y-134344145D01*
X134715155Y-134340813D01*
X134471522Y-134305078D01*
X134364503Y-134227461D01*
X134340698Y-134073409D01*
X134342038Y-134004748D01*
X134365207Y-133921137D01*
X134444947Y-133870312D01*
X134616342Y-133844113D01*
X134914471Y-133834377D01*
X135374418Y-133832946D01*
X135668786Y-133833257D01*
G37*
G36*
X135513775Y-128713689D02*
G01*
X135928332Y-128717980D01*
X136190328Y-128733315D01*
X136334481Y-128766304D01*
X136395511Y-128823558D01*
X136408139Y-128911688D01*
X136392782Y-128982939D01*
X136223707Y-129193712D01*
X135866667Y-129456186D01*
X135600952Y-129631755D01*
X135401463Y-129774922D01*
X135325194Y-129845736D01*
X135395337Y-129911793D01*
X135590436Y-130052503D01*
X135866667Y-130235287D01*
X136034549Y-130348299D01*
X136315006Y-130589568D01*
X136408139Y-130779785D01*
X136407494Y-130807622D01*
X136384955Y-130886552D01*
X136304413Y-130936436D01*
X136131148Y-130963882D01*
X135830441Y-130975502D01*
X135367571Y-130977907D01*
X135098089Y-130977610D01*
X134728107Y-130972548D01*
X134503019Y-130955329D01*
X134388960Y-130918520D01*
X134352063Y-130854687D01*
X134358463Y-130756395D01*
X134363745Y-130724529D01*
X134422555Y-130600955D01*
X134571731Y-130536471D01*
X134864492Y-130504594D01*
X135339061Y-130474304D01*
X134931121Y-130178793D01*
X134860888Y-130126677D01*
X134657070Y-129935693D01*
X134620238Y-129776334D01*
X134756484Y-129615827D01*
X135071899Y-129421401D01*
X135374418Y-129256173D01*
X134882170Y-129206381D01*
X134805299Y-129198155D01*
X134539191Y-129151228D01*
X134407493Y-129072471D01*
X134358463Y-128935077D01*
X134351707Y-128877702D01*
X134364282Y-128798789D01*
X134438290Y-128750353D01*
X134607596Y-128724959D01*
X134906068Y-128715175D01*
X135367571Y-128713566D01*
X135513775Y-128713689D01*
G37*
G36*
X128294119Y-135494838D02*
G01*
X128131156Y-135422211D01*
X127842137Y-135385807D01*
X127342268Y-135266425D01*
X126864252Y-134971609D01*
X126489331Y-134515540D01*
X126230954Y-133916288D01*
X127055426Y-133916288D01*
X127310302Y-134219190D01*
X127420786Y-134339344D01*
X127647882Y-134484671D01*
X127951734Y-134522093D01*
X128338291Y-134522093D01*
X128312169Y-131691666D01*
X128312140Y-131688504D01*
X129125030Y-131688504D01*
X129125400Y-132116769D01*
X129127367Y-132981419D01*
X129131669Y-133679188D01*
X129139280Y-134231070D01*
X129151173Y-134658056D01*
X129168321Y-134981138D01*
X129191699Y-135221307D01*
X129222279Y-135399557D01*
X129261036Y-135536878D01*
X129308942Y-135654263D01*
X129444344Y-135906574D01*
X129816148Y-136333936D01*
X130327057Y-136634061D01*
X130346978Y-136642065D01*
X130482863Y-136682851D01*
X130670400Y-136715438D01*
X130930336Y-136740677D01*
X131283420Y-136759418D01*
X131750399Y-136772514D01*
X132352022Y-136780815D01*
X133109035Y-136785171D01*
X134042187Y-136786434D01*
X137392636Y-136786434D01*
X137392636Y-135743088D01*
X138529457Y-135743088D01*
X138584293Y-135754738D01*
X138801838Y-135762618D01*
X139164729Y-135765515D01*
X139518367Y-135762791D01*
X139740728Y-135755048D01*
X139800924Y-135743498D01*
X139681589Y-135729357D01*
X139541963Y-135721720D01*
X139080166Y-135714780D01*
X138647868Y-135729357D01*
X138529457Y-135743088D01*
X137392636Y-135743088D01*
X137392636Y-134817442D01*
X138180232Y-134817442D01*
X140936822Y-134817442D01*
X140936822Y-128516666D01*
X139164729Y-128516666D01*
X138180232Y-128516666D01*
X138180232Y-134817442D01*
X137392636Y-134817442D01*
X137392636Y-127571771D01*
X138529457Y-127571771D01*
X138584293Y-127583420D01*
X138801838Y-127591300D01*
X139164729Y-127594197D01*
X139518367Y-127591473D01*
X139740728Y-127583730D01*
X139800924Y-127572181D01*
X139681589Y-127558039D01*
X139541963Y-127550402D01*
X139080166Y-127543462D01*
X138647868Y-127558039D01*
X138529457Y-127571771D01*
X137392636Y-127571771D01*
X137392636Y-126547674D01*
X134020736Y-126549836D01*
X133903790Y-126549920D01*
X133010874Y-126551465D01*
X132290564Y-126555253D01*
X131721119Y-126562345D01*
X131280795Y-126573803D01*
X130947852Y-126590689D01*
X130700547Y-126614065D01*
X130517138Y-126644992D01*
X130375882Y-126684532D01*
X130255039Y-126733748D01*
X130002728Y-126869151D01*
X129575366Y-127240954D01*
X129275241Y-127751863D01*
X129253078Y-127811578D01*
X129216265Y-127957571D01*
X129186925Y-128160258D01*
X129164295Y-128439667D01*
X129147609Y-128815825D01*
X129136104Y-129308760D01*
X129129015Y-129938500D01*
X129125579Y-130725072D01*
X129125030Y-131688504D01*
X128312140Y-131688504D01*
X128286046Y-128861240D01*
X127964842Y-128830297D01*
X127843608Y-128825737D01*
X127600231Y-128891173D01*
X127349532Y-129093461D01*
X127055426Y-129387567D01*
X127055426Y-133916288D01*
X126230954Y-133916288D01*
X126226856Y-133906783D01*
X126220077Y-133886945D01*
X126156488Y-133808689D01*
X126015133Y-133762333D01*
X125756365Y-133740171D01*
X125340540Y-133734496D01*
X125328312Y-133734493D01*
X124908360Y-133727367D01*
X124642314Y-133701397D01*
X124488482Y-133648904D01*
X124405172Y-133562209D01*
X124324480Y-133373754D01*
X124348150Y-133141956D01*
X124551949Y-132978018D01*
X124937913Y-132880622D01*
X125508081Y-132848449D01*
X126279715Y-132848449D01*
X126249160Y-132479263D01*
X126218604Y-132110077D01*
X125342800Y-132060853D01*
X124953457Y-132033267D01*
X124641958Y-131990564D01*
X124456539Y-131928803D01*
X124358807Y-131839341D01*
X124303420Y-131707688D01*
X124358807Y-131494767D01*
X124436495Y-131417218D01*
X124605708Y-131351704D01*
X124895013Y-131306598D01*
X125342800Y-131273256D01*
X126218604Y-131224031D01*
X126249160Y-130854845D01*
X126279715Y-130485659D01*
X125497082Y-130485659D01*
X125241311Y-130482734D01*
X124889608Y-130458059D01*
X124654834Y-130400396D01*
X124485571Y-130300325D01*
X124379053Y-130205463D01*
X124310498Y-130060962D01*
X124372332Y-129861191D01*
X124425845Y-129758825D01*
X124513467Y-129673370D01*
X124665216Y-129623519D01*
X124925341Y-129596337D01*
X125338091Y-129578889D01*
X126188211Y-129550387D01*
X126318684Y-129170102D01*
X126578136Y-128675928D01*
X126970430Y-128279301D01*
X127452306Y-128019306D01*
X127983584Y-127925969D01*
X128055288Y-127925190D01*
X128246314Y-127893899D01*
X128356810Y-127777385D01*
X128448356Y-127522145D01*
X128479161Y-127433151D01*
X128707477Y-127017836D01*
X129052675Y-126592882D01*
X129463333Y-126214798D01*
X129888025Y-125940095D01*
X129947849Y-125910946D01*
X130068843Y-125857360D01*
X130198782Y-125814023D01*
X130358549Y-125779640D01*
X130569029Y-125752915D01*
X130851104Y-125732553D01*
X131225656Y-125717258D01*
X131713571Y-125705733D01*
X132335729Y-125696683D01*
X133113016Y-125688812D01*
X134066313Y-125680824D01*
X134461306Y-125677921D01*
X135504224Y-125673824D01*
X136357455Y-125676573D01*
X137026307Y-125686272D01*
X137516091Y-125703028D01*
X137832114Y-125726944D01*
X137979686Y-125758125D01*
X138033788Y-125792395D01*
X138147626Y-125959700D01*
X138180232Y-126255789D01*
X138180232Y-126646124D01*
X139398798Y-126646124D01*
X139532778Y-126646192D01*
X140030205Y-126651288D01*
X140373473Y-126673441D01*
X140597592Y-126725092D01*
X140737570Y-126818681D01*
X140828418Y-126966651D01*
X140905143Y-127181444D01*
X141012144Y-127382290D01*
X141287548Y-127563849D01*
X141359745Y-127586392D01*
X141480923Y-127626716D01*
X141578965Y-127678080D01*
X141656170Y-127759071D01*
X141714834Y-127888273D01*
X141757257Y-128084272D01*
X141785735Y-128365656D01*
X141802567Y-128751009D01*
X141810050Y-129258917D01*
X141810483Y-129907967D01*
X141806162Y-130716744D01*
X141799387Y-131703834D01*
X141773643Y-135554163D01*
X141393662Y-135751887D01*
X141098628Y-135963809D01*
X140851430Y-136294186D01*
X140689180Y-136638759D01*
X139164729Y-136672243D01*
X138180232Y-136693867D01*
X138180232Y-137081260D01*
X138177790Y-137181475D01*
X138123488Y-137434644D01*
X137979686Y-137575983D01*
X137948457Y-137587306D01*
X137744730Y-137616028D01*
X137370762Y-137637520D01*
X136821246Y-137651886D01*
X136090872Y-137659233D01*
X135174330Y-137659664D01*
X134066313Y-137653284D01*
X134042187Y-137653088D01*
X133902099Y-137651949D01*
X132975287Y-137643853D01*
X132221145Y-137635444D01*
X131618766Y-137625509D01*
X131147240Y-137612834D01*
X130785657Y-137596208D01*
X130513109Y-137574418D01*
X130308685Y-137546251D01*
X130151478Y-137510494D01*
X130020577Y-137465934D01*
X129895074Y-137411359D01*
X129620676Y-137261237D01*
X129134033Y-136875483D01*
X128738126Y-136405485D01*
X128485105Y-135906887D01*
X128396265Y-135656558D01*
X128338291Y-135564772D01*
X128294119Y-135494838D01*
G37*
G36*
X129000803Y-73722388D02*
G01*
X143091825Y-73722388D01*
X143190975Y-73821539D01*
X143290126Y-73920689D01*
X143290126Y-88463275D01*
X141153796Y-90599606D01*
X139017465Y-92735936D01*
X124474879Y-92735936D01*
X124276578Y-92537635D01*
X124276578Y-92123536D01*
X125341171Y-92123536D01*
X138784799Y-92123536D01*
X142254695Y-88653272D01*
X128811067Y-88653272D01*
X125341171Y-92123536D01*
X124276578Y-92123536D01*
X124276578Y-91695291D01*
X124888978Y-91695291D01*
X128382566Y-88230425D01*
X128388404Y-74763033D01*
X124894816Y-78227899D01*
X124888978Y-91695291D01*
X124276578Y-91695291D01*
X124276578Y-77995855D01*
X125858610Y-76410861D01*
X126066219Y-76203055D01*
X126337224Y-75932331D01*
X126605917Y-75664485D01*
X126867448Y-75404327D01*
X127116962Y-75156665D01*
X127349608Y-74926308D01*
X127560534Y-74718067D01*
X127744888Y-74536751D01*
X127897816Y-74387168D01*
X127951869Y-74334788D01*
X129000803Y-74334788D01*
X129000803Y-88040873D01*
X142677726Y-88040873D01*
X142677726Y-74334788D01*
X129000803Y-74334788D01*
X127951869Y-74334788D01*
X128014466Y-74274128D01*
X128388404Y-73914581D01*
X128588290Y-73722388D01*
X128811067Y-73722388D01*
X129000803Y-73722388D01*
G37*
G36*
X137066980Y-75862871D02*
G01*
X137113053Y-75913368D01*
X137154893Y-75987341D01*
X137166130Y-76073547D01*
X137165975Y-76083606D01*
X137163361Y-76107295D01*
X137155186Y-76133417D01*
X137138475Y-76165204D01*
X137110250Y-76205886D01*
X137067534Y-76258694D01*
X137007353Y-76326859D01*
X136926728Y-76413612D01*
X136822683Y-76522183D01*
X136692242Y-76655804D01*
X136532429Y-76817704D01*
X136340267Y-77011116D01*
X136112778Y-77239269D01*
X135846988Y-77505396D01*
X134527845Y-78825718D01*
X141232824Y-78825718D01*
X140424276Y-78015275D01*
X140342156Y-77932939D01*
X140152805Y-77742696D01*
X139999528Y-77587637D01*
X139878524Y-77463428D01*
X139785989Y-77365736D01*
X139718123Y-77290227D01*
X139671122Y-77232568D01*
X139641184Y-77188425D01*
X139624507Y-77153465D01*
X139617290Y-77123354D01*
X139615729Y-77093760D01*
X139640116Y-76982709D01*
X139709292Y-76881895D01*
X139809241Y-76811105D01*
X139925879Y-76784386D01*
X139934201Y-76784476D01*
X139959671Y-76786847D01*
X139987106Y-76794895D01*
X140020068Y-76811859D01*
X140062122Y-76840977D01*
X140116833Y-76885489D01*
X140187765Y-76948636D01*
X140278482Y-77033657D01*
X140392549Y-77143791D01*
X140533529Y-77282278D01*
X140704987Y-77452357D01*
X140910487Y-77657268D01*
X141153595Y-77900251D01*
X141274879Y-78021552D01*
X141499074Y-78246009D01*
X141686777Y-78434560D01*
X141841226Y-78590779D01*
X141965662Y-78718243D01*
X142063324Y-78820528D01*
X142137453Y-78901211D01*
X142191288Y-78963867D01*
X142228070Y-79012073D01*
X142251038Y-79049405D01*
X142263432Y-79079439D01*
X142268493Y-79105751D01*
X142269460Y-79131918D01*
X142269303Y-79144661D01*
X142266779Y-79170452D01*
X142258609Y-79198101D01*
X142241553Y-79231184D01*
X142212372Y-79273280D01*
X142167824Y-79327962D01*
X142104671Y-79398808D01*
X142019672Y-79489394D01*
X141909588Y-79603295D01*
X141771178Y-79744089D01*
X141601202Y-79915351D01*
X141396421Y-80120657D01*
X141153595Y-80363584D01*
X141071459Y-80445711D01*
X140840779Y-80676153D01*
X140646564Y-80869561D01*
X140485251Y-81029174D01*
X140353274Y-81158232D01*
X140247071Y-81259974D01*
X140163075Y-81337639D01*
X140097724Y-81394468D01*
X140047453Y-81433700D01*
X140008697Y-81458575D01*
X139977892Y-81472331D01*
X139951475Y-81478210D01*
X139925879Y-81479449D01*
X139814550Y-81455123D01*
X139713482Y-81386120D01*
X139642514Y-81286422D01*
X139615729Y-81170076D01*
X139615897Y-81158626D01*
X139619158Y-81129346D01*
X139629519Y-81097904D01*
X139650782Y-81059969D01*
X139686750Y-81011205D01*
X139741224Y-80947279D01*
X139818008Y-80863859D01*
X139920903Y-80756611D01*
X140053711Y-80621200D01*
X140220235Y-80453294D01*
X140424276Y-80248560D01*
X141232824Y-79438117D01*
X133690034Y-79438117D01*
X133590884Y-79338967D01*
X133544811Y-79288469D01*
X133502971Y-79214496D01*
X133491733Y-79128290D01*
X133491889Y-79118232D01*
X133494503Y-79094543D01*
X133502677Y-79068421D01*
X133519389Y-79036634D01*
X133547614Y-78995952D01*
X133590329Y-78943143D01*
X133650511Y-78874978D01*
X133731136Y-78788226D01*
X133835181Y-78679655D01*
X133965621Y-78546034D01*
X134125435Y-78384133D01*
X134317597Y-78190722D01*
X134545085Y-77962568D01*
X134810876Y-77696442D01*
X136130018Y-76376120D01*
X130628036Y-76376120D01*
X130528886Y-76276969D01*
X130486617Y-76231036D01*
X130441968Y-76155448D01*
X130429736Y-76069920D01*
X130433104Y-76020554D01*
X130461533Y-75943535D01*
X130528886Y-75862871D01*
X130628036Y-75763720D01*
X136967830Y-75763720D01*
X137066980Y-75862871D01*
G37*
G36*
X132884646Y-80891376D02*
G01*
X132985713Y-80960379D01*
X133056681Y-81060077D01*
X133083467Y-81176423D01*
X133083299Y-81187873D01*
X133080038Y-81217153D01*
X133069677Y-81248594D01*
X133048414Y-81286530D01*
X133012446Y-81335294D01*
X132957971Y-81399220D01*
X132881188Y-81482640D01*
X132778293Y-81589888D01*
X132645485Y-81725299D01*
X132478961Y-81893204D01*
X132274919Y-82097939D01*
X131466372Y-82908382D01*
X139009161Y-82908382D01*
X139108312Y-83007532D01*
X139154385Y-83058030D01*
X139196225Y-83132002D01*
X139207462Y-83218208D01*
X139207307Y-83228267D01*
X139204693Y-83251956D01*
X139196518Y-83278078D01*
X139179806Y-83309865D01*
X139151581Y-83350547D01*
X139108866Y-83403356D01*
X139048684Y-83471521D01*
X138968059Y-83558273D01*
X138864015Y-83666844D01*
X138733574Y-83800465D01*
X138573761Y-83962366D01*
X138381598Y-84155777D01*
X138154110Y-84383931D01*
X137888320Y-84650057D01*
X136569177Y-85970379D01*
X142071159Y-85970379D01*
X142170310Y-86069530D01*
X142212578Y-86115463D01*
X142257228Y-86191051D01*
X142269460Y-86276579D01*
X142266092Y-86325945D01*
X142237662Y-86402964D01*
X142170310Y-86483628D01*
X142071159Y-86582779D01*
X135731366Y-86582779D01*
X135632215Y-86483628D01*
X135586143Y-86433131D01*
X135544302Y-86359158D01*
X135533065Y-86272952D01*
X135533221Y-86262893D01*
X135535835Y-86239204D01*
X135544009Y-86213082D01*
X135560721Y-86181295D01*
X135588946Y-86140613D01*
X135631661Y-86087805D01*
X135691843Y-86019640D01*
X135772468Y-85932887D01*
X135876512Y-85824316D01*
X136006953Y-85690695D01*
X136166766Y-85528795D01*
X136358929Y-85335383D01*
X136586417Y-85107229D01*
X136852208Y-84841103D01*
X138171350Y-83520781D01*
X131466372Y-83520781D01*
X132274919Y-84331224D01*
X132357040Y-84413560D01*
X132546391Y-84603803D01*
X132699667Y-84758862D01*
X132820672Y-84883071D01*
X132913206Y-84980763D01*
X132981073Y-85056272D01*
X133028074Y-85113931D01*
X133058012Y-85158074D01*
X133074688Y-85193034D01*
X133081906Y-85223145D01*
X133083467Y-85252739D01*
X133059079Y-85363790D01*
X132989903Y-85464604D01*
X132889954Y-85535394D01*
X132773316Y-85562113D01*
X132764995Y-85562023D01*
X132739524Y-85559651D01*
X132712090Y-85551604D01*
X132679128Y-85534640D01*
X132637073Y-85505522D01*
X132582362Y-85461009D01*
X132511430Y-85397863D01*
X132420713Y-85312842D01*
X132306647Y-85202708D01*
X132165667Y-85064221D01*
X131994209Y-84894142D01*
X131788708Y-84689230D01*
X131545601Y-84446248D01*
X131424317Y-84324947D01*
X131200121Y-84100490D01*
X131012419Y-83911939D01*
X130857969Y-83755720D01*
X130733534Y-83628256D01*
X130635871Y-83525971D01*
X130561743Y-83445288D01*
X130507907Y-83382632D01*
X130471126Y-83334426D01*
X130448157Y-83297094D01*
X130435763Y-83267060D01*
X130430702Y-83240748D01*
X130429736Y-83214581D01*
X130429893Y-83201837D01*
X130432417Y-83176047D01*
X130440586Y-83148398D01*
X130457642Y-83115314D01*
X130486824Y-83073219D01*
X130531371Y-83018537D01*
X130594524Y-82947691D01*
X130679523Y-82857105D01*
X130789607Y-82743204D01*
X130928017Y-82602410D01*
X131097993Y-82431148D01*
X131302774Y-82225842D01*
X131545601Y-81982915D01*
X131627737Y-81900788D01*
X131858417Y-81670346D01*
X132052631Y-81476938D01*
X132213945Y-81317325D01*
X132345921Y-81188267D01*
X132452125Y-81086525D01*
X132536120Y-81008860D01*
X132601471Y-80952031D01*
X132651743Y-80912799D01*
X132690499Y-80887924D01*
X132721303Y-80874167D01*
X132747721Y-80868289D01*
X132773316Y-80867050D01*
X132884646Y-80891376D01*
G37*
%TD*%
M02*
